<?xml version="1.0" encoding="UTF-8" standalone="no"?>
<!-- Created with Inkscape (http://www.inkscape.org/) -->

<svg
   width="181.29385"
   height="205.15497"
   viewBox="0 0 47.96733 54.280585"
   version="1.1"
   id="svg5"
   inkscape:version="1.2 (dc2aedaf03, 2022-05-15)"
   sodipodi:docname="Scene 1.svg"
   xml:space="preserve"
   xmlns:inkscape="http://www.inkscape.org/namespaces/inkscape"
   xmlns:sodipodi="http://sodipodi.sourceforge.net/DTD/sodipodi-0.dtd"
   xmlns="http://www.w3.org/2000/svg"
   xmlns:svg="http://www.w3.org/2000/svg"><sodipodi:namedview
     id="namedview7"
     pagecolor="#ffffff"
     bordercolor="#666666"
     borderopacity="1.0"
     inkscape:showpageshadow="2"
     inkscape:pageopacity="0.0"
     inkscape:pagecheckerboard="0"
     inkscape:deskcolor="#d1d1d1"
     inkscape:document-units="mm"
     showgrid="true"
     inkscape:zoom="0.71624578"
     inkscape:cx="376.26749"
     inkscape:cy="330.19392"
     inkscape:window-width="1920"
     inkscape:window-height="991"
     inkscape:window-x="-9"
     inkscape:window-y="-9"
     inkscape:window-maximized="1"
     inkscape:current-layer="g1408"><inkscape:grid
       type="axonomgrid"
       id="grid1326"
       snapvisiblegridlinesonly="false"
       units="px"
       spacingy="2.6458333"
       originx="169.33333"
       originy="95.25" /></sodipodi:namedview><defs
     id="defs2" /><g
     inkscape:label="Layer 1"
     inkscape:groupmode="layer"
     id="layer1"
     transform="translate(127.00464,-70.539658)"><g
       id="g1408"><g
         id="g748"
         inkscape:label="Level 1"
         style="fill:#88aa00;stroke:none"
         transform="translate(-292.55224,9.403465)"><path
           style="fill:#88aa00;stroke:none;stroke-width:0.264583px;stroke-linecap:butt;stroke-linejoin:miter;stroke-opacity:1"
           d="m 193.38246,68.339551 c 1.23537,-1.156674 2.91792,-0.860056 3.69403,-3.509327 1.02916,-1.343457 1.97054,-2.70886 4.43284,-3.694031 1.75194,0.577916 3.84631,0.373157 4.80224,2.770524 -0.23097,0.985075 0.0687,1.970149 -1.29291,2.955224 -1.71807,1.926006 -3.83674,2.650222 -5.91045,3.509327 -1.20669,0.391602 -2.27261,0.98028 -4.06343,0.554106 -2.21143,-0.338575 -1.67101,-1.546156 -1.66232,-2.585823 z"
           id="path634"
           sodipodi:nodetypes="cccccccc" /><path
           style="fill:#88aa00;stroke:none;stroke-width:0.264583px;stroke-linecap:butt;stroke-linejoin:miter;stroke-opacity:1"
           d="m 172.8806,101.40112 c -1.44141,-1.84564 -3.40961,-1.1802 -4.98694,-0.92351 -2.38031,1.57068 -1.42623,2.11304 -1.29291,3.13993 0.40221,1.71571 2.25292,1.58786 3.50932,2.21642 0.61435,1.96766 0.4253,3.71369 -1.47761,4.98693 -2.03218,0.15357 -2.81798,0.92358 -3.08487,2.36847 2.09832,3.61638 5.0902,1.26106 7.88711,1.69497 1.31468,0.54759 2.62935,0.79943 3.94403,0.1306 -0.11547,-3.32661 -2.19534,-3.95218 -3.57463,-5.54105 -0.0426,-1.85354 0.34192,-2.16984 1.2593,-3.06341 1e-4,0 1.1173,0.45445 1.55604,1.94401 2.14842,2.50086 5.9106,-0.82442 6.05034,-1.59702 0.32602,-1.13042 0.18386,-2.08527 -0.1847,-2.95522 -0.65908,-0.81334 -2.09807,-1.06961 -3.32463,-1.47761 -0.0975,-0.68069 0.42899,-0.94535 1.10821,-1.10821 l 3.50933,0.1847 c 1.59929,0.0601 2.37326,-0.7051 3.50932,-1.10821 0.32484,-0.678643 0.78555,-0.648163 -0.3694,-1.477611 -2.17531,-0.646149 -4.07422,-0.04854 -6.09515,0 -1.68659,0.110366 -2.56022,-2.153863 -3.67258,-1.433758 -1.22888,1.235888 -0.75274,2.124623 -0.94496,3.280769 -0.93099,0.62601 -1.80484,1.37448 -3.32462,0.73881 z"
           id="path636"
           sodipodi:nodetypes="cccccccccccccccccccccc" /><path
           style="fill:#88aa00;stroke:none;stroke-width:0.264583px;stroke-linecap:butt;stroke-linejoin:miter;stroke-opacity:1"
           d="m 187.28731,91.057835 c 1.53918,0.660823 2.66278,0.255632 4.20196,-0.554104 -0.21862,-0.795765 0.55272,-1.495801 -0.32323,-2.40112 -0.96721,-0.517686 -0.89014,-1.905602 -3.87873,-0.738804 -0.32161,1.038378 -1.90856,1.317551 0,3.694028 z"
           id="path638"
           sodipodi:nodetypes="ccccc" /><path
           style="fill:#88aa00;stroke:none;stroke-width:0.264583px;stroke-linecap:butt;stroke-linejoin:miter;stroke-opacity:1"
           d="m 198.92351,82.376866 c 2.16624,-0.381281 4.50804,-0.376349 6.09515,-2.031717 -0.0421,-0.996166 -0.57478,-1.403554 -1.84702,-0.923507 -3.4963,-0.824499 -1.9024,-1.572123 -2.03171,-1.662313 1.38332,-0.69456 2.89041,-1.341517 2.72434,-2.631997 2.64737,-1.723886 2.43242,-3.262889 7.43424,-4.201958 0.99733,-0.147835 1.94472,-0.362253 2.21641,-1.477613 -0.56244,-1.02649 -0.71084,-2.249104 -3.50932,-2.216417 -0.91498,0.159508 -1.64693,-0.486379 -3.13993,2.216417 -1.2046,0.86194 0.025,2.523419 -3.69403,2.585821 -0.79841,-0.441764 -1.13293,-1.495552 -2.40112,0.646455 0.41773,0.909982 0.6865,1.991047 -0.5541,2.308768 -1.14872,-0.325674 -2.23603,-0.344325 -3.13993,0.554107 -0.53312,1.931392 -1.09953,4.433025 0,6.095148 z"
           id="path640"
           sodipodi:nodetypes="ccccccccccccccc" /></g></g></g></svg>
