<?xml version="1.0" encoding="UTF-8" standalone="no"?>
<!-- Created with Inkscape (http://www.inkscape.org/) -->

<svg
   width="304.99011"
   height="366.86823"
   viewBox="0 0 80.695297 97.067218"
   version="1.1"
   id="svg5"
   inkscape:version="1.2 (dc2aedaf03, 2022-05-15)"
   sodipodi:docname="Scene 1.svg"
   xml:space="preserve"
   xmlns:inkscape="http://www.inkscape.org/namespaces/inkscape"
   xmlns:sodipodi="http://sodipodi.sourceforge.net/DTD/sodipodi-0.dtd"
   xmlns="http://www.w3.org/2000/svg"
   xmlns:svg="http://www.w3.org/2000/svg"><sodipodi:namedview
     id="namedview7"
     pagecolor="#ffffff"
     bordercolor="#666666"
     borderopacity="1.0"
     inkscape:showpageshadow="2"
     inkscape:pageopacity="0.0"
     inkscape:pagecheckerboard="0"
     inkscape:deskcolor="#d1d1d1"
     inkscape:document-units="mm"
     showgrid="true"
     inkscape:zoom="0.71624578"
     inkscape:cx="376.26749"
     inkscape:cy="330.19392"
     inkscape:window-width="1920"
     inkscape:window-height="991"
     inkscape:window-x="-9"
     inkscape:window-y="-9"
     inkscape:window-maximized="1"
     inkscape:current-layer="g1408"><inkscape:grid
       type="axonomgrid"
       id="grid1326"
       snapvisiblegridlinesonly="false"
       units="px"
       spacingy="2.6458333"
       originx="169.33333"
       originy="95.25" /></sodipodi:namedview><defs
     id="defs2" /><g
     inkscape:label="Layer 1"
     inkscape:groupmode="layer"
     id="layer1"
     transform="translate(148.10458,-58.873562)"><g
       id="g1408"><path
         style="fill:#44aa00;stroke:none;stroke-width:0.264583px;stroke-linecap:butt;stroke-linejoin:miter;stroke-opacity:1"
         d="m -136.48084,110.2295 c -0.37276,-2.14679 3.58727,-2.28116 4.04871,-6.53018 0.77947,-1.67726 2.64899,1.02596 3.91811,0.65302 0.74317,-1.40376 -1.42681,-2.32399 -1.43664,-3.78751 0.98789,-0.713601 0.82583,-1.531744 3.5263,-2.089657 2.29776,-0.05789 4.51967,-4.865978 4.70173,-3.656904 0.55499,3.205557 -0.64422,6.279371 0.52242,6.660791 2.191,0.32051 2.26658,-3.79399 4.30992,-4.962941 1.32937,-0.300219 0.99785,2.062172 2.74267,1.697847 1.08808,-0.108837 0.11125,-2.176729 -0.2612,-3.265093 0.72135,-0.786409 -0.39453,-2.083159 3.13449,-2.089658 2.58363,1.204295 3.93051,0.513364 2.74267,-0.783622 -1.48645,-1.120863 -0.77602,-1.489471 -0.52241,-2.350865 1.25436,-1.224405 2.98198,-2.742702 1.69784,-4.048715 -2.07488,-0.811544 -4.4755,-1.52873 -4.70172,-3.85281 1.20208,-1.083096 3.71888,1.185806 3.91811,-0.130604 1.17174,-1.516328 -2.58624,-1.205343 -3.3957,-2.938581 0.42322,-1.412958 -0.52689,-3.636721 3.85281,-3.787507 2.25633,-0.334732 -1.31664,-2.244381 0.58772,-3.918109 4.96407,-2.873865 5.28814,-2.372229 7.313797,-5.093544 0.38774,-1.662687 2.25751,-1.596347 3.5916,-2.154959 1.72806,0.246102 -0.3467,4.34457 1.24073,3.591599 0.38293,-0.181636 2.98049,-3.95661 4.70174,-3.526298 2.83614,3.553158 2.57679,-3.765883 6.72609,-3.199792 1.9588,1.262417 -0.92357,3.17491 1.50194,6.203675 0.79776,0.219891 2.35317,1.966983 2.48147,0.130604 0.10112,-2.437935 0.1736,-4.875871 2.48147,-7.313806 1.16223,-1.011755 3.52502,-1.364596 4.17932,0.653018 0.42931,1.750639 -1.44806,3.173945 -1.82846,6.00777 0.0899,0.780209 1.67901,-0.129337 1.95906,0.783621 -1.14153,1.732534 -8.06441,3.446201 -7.70562,5.224148 0.71198,1.342715 3.058,3.00331 5.35475,1.306036 0.67399,-0.91701 0.88563,-0.836428 2.50524,-0.360121 1.02366,1.332551 0.91939,2.328145 2.98012,3.233404 1.07604,0.469022 2.63627,0.592204 2.08966,2.220261 -0.54695,0.755789 -1.2914,0.497055 -2.35087,1.306036 -1.2642,0.602692 -2.55238,1.10947 -4.17932,0.261208 -2.16697,-0.608609 -2.74693,0.105286 -1.95905,1.959054 0.94353,1.018972 2.19874,1.531474 2.22026,4.048715 -0.15713,0.794582 0.35134,1.710182 -1.0369,2.280925 -1.84416,0.07541 -3.54438,1.668231 -4.96294,1.175432 -0.55885,-1.570335 -1.5696,-1.789889 -2.61208,-1.667517 -1.29306,0.0752 1.26049,2.184001 1.55139,3.365364 0.16357,0.649418 -0.91954,1.875169 -1.68992,3.335034 -0.73062,0.756746 -2.8534,1.309087 -4.00253,1.266426 -0.73575,-0.06727 -3.27736,-2.469166 -3.18067,-0.482802 0.59342,1.313486 1.27313,2.616187 0.91423,4.048713 -1.09496,1.631234 -2.46134,2.312494 -4.04872,2.220264 -0.97213,-1.34175 -0.75735,-0.92205 -1.43664,-0.65302 -0.62373,0.93916 0.5425,1.89116 -0.52241,2.35087 -1.22075,0.11612 -2.12135,0.59814 -2.48147,1.69784 -1.15704,2.03542 -2.00939,4.66018 -2.48147,6.26898 -0.733307,0.83459 -0.0497,2.26579 -2.873277,2.22026 -1.32455,-0.23185 -2.41582,0.0806 -3.00389,1.56724 -0.45957,1.98409 0.61759,4.32976 -1.69785,5.87717 -0.75704,0.45932 -1.38131,0.12197 -2.01971,-0.1306 -1.45585,-0.48861 -2.40942,1.3907 -3.00389,4.96293 -0.5456,0.92993 0.35105,2.31855 -1.94457,2.48012 -1.69257,-1.08882 -4.36368,-4.12521 -4.39435,-0.78227 0.32459,0.95776 0.94278,1.91552 -0.2612,2.87328 -1.38361,0.24775 -2.7361,0.59403 -3.3957,3.13449 -0.47871,1.4911 0.0927,3.24472 -3.13449,4.04871 -2.07067,-0.84597 -2.3023,1.29451 -3.39569,2.74268 -2.68085,0.35725 -2.17144,1.39833 -3.3957,3.78751 -0.81354,1.37994 -3.37918,-1.65388 -3.5263,1.04483 -0.56595,0.57946 -1.1319,-0.66073 -1.69785,1.82845 -0.99831,1.63802 -2.5566,2.2494 -2.61207,5.61596 -1.19278,2.12457 -3.86886,2.27142 -6.00777,3.13449 -0.69068,-0.45881 -1.73212,0.48537 -1.95905,-1.82845 0.40273,0 2.81762,-2.03855 2.35086,-2.87329 -0.391,-0.69924 0.66386,-4.67296 2.08966,-4.57112 0.77202,-0.90883 2.27675,-0.98027 1.95906,-3.13449 -1.66714,-1.10884 -1.04748,-2.43617 -1.56725,-3.6569 0.54159,-1.41337 1.55475,-1.38747 1.56725,-2.22027 -0.73564,-2.34642 0.28998,-2.93158 0.65302,-4.17932 1.03426,-1.4791 6.74462,-4.45526 5.28945,-5.68126 -0.64042,-0.58313 -3.37971,2.40075 -4.17932,1.76315 -0.0972,-1.17543 -0.29922,-4.57113 1.76315,-5.74656 2.21416,-0.18024 4.32713,-0.46167 4.83233,-2.35086 -0.60063,-0.936 -3.80232,1.3278 -5.09354,0.71832 -0.83746,-1.29479 1.73659,-4.42577 3.78751,-5.68126 2.23281,-2.20928 2.41477,-4.5392 1.69784,-6.922 -0.65302,-1.33287 -2.35086,0.91784 -3.52629,0.65302 z"
         id="path1309"
         sodipodi:nodetypes="cccccccccccccccccccccscccccccccccccccccccccccccccccccccccccccccccccccsccccccccccccc"
         inkscape:label="Level 3" /></g></g></svg>
