<?xml version="1.0" encoding="UTF-8" standalone="no"?>
<!-- Created with Inkscape (http://www.inkscape.org/) -->

<svg
   width="429.72568"
   height="473.80585"
   viewBox="0 0 113.69825 125.36113"
   version="1.1"
   id="svg5"
   inkscape:version="1.2 (dc2aedaf03, 2022-05-15)"
   sodipodi:docname="Scene 1.svg"
   xml:space="preserve"
   xmlns:inkscape="http://www.inkscape.org/namespaces/inkscape"
   xmlns:sodipodi="http://sodipodi.sourceforge.net/DTD/sodipodi-0.dtd"
   xmlns="http://www.w3.org/2000/svg"
   xmlns:svg="http://www.w3.org/2000/svg"><sodipodi:namedview
     id="namedview7"
     pagecolor="#ffffff"
     bordercolor="#666666"
     borderopacity="1.0"
     inkscape:showpageshadow="2"
     inkscape:pageopacity="0.0"
     inkscape:pagecheckerboard="0"
     inkscape:deskcolor="#d1d1d1"
     inkscape:document-units="mm"
     showgrid="true"
     inkscape:zoom="0.71624578"
     inkscape:cx="376.26749"
     inkscape:cy="330.19392"
     inkscape:window-width="1920"
     inkscape:window-height="991"
     inkscape:window-x="-9"
     inkscape:window-y="-9"
     inkscape:window-maximized="1"
     inkscape:current-layer="g1408"><inkscape:grid
       type="axonomgrid"
       id="grid1326"
       snapvisiblegridlinesonly="false"
       units="px"
       spacingy="2.6458333"
       originx="169.33333"
       originy="95.25" /></sodipodi:namedview><defs
     id="defs2" /><g
     inkscape:label="Layer 1"
     inkscape:groupmode="layer"
     id="layer1"
     transform="translate(166.16164,-44.547955)"><g
       id="g1408"><path
         style="fill:#16502d;stroke:none;stroke-width:0.264583px;stroke-linecap:butt;stroke-linejoin:miter;stroke-opacity:1"
         d="m -138.32649,82.729957 -14.40672,9.789181 c -2.84974,3.357436 -5.57021,6.775193 -4.80224,11.820892 -1.63123,5.03952 -12.64851,9.02407 -7.05577,14.98129 3.56559,2.25906 2.65624,3.55822 1.41493,6.03147 -1.35336,7.90032 1.95814,16.0598 6.95273,20.96905 1.4466,1.42187 4.97375,2.47875 5.15266,3.9165 0.3733,1.87613 -0.39429,3.30253 0.31451,6.36948 0.39387,1.70427 1.2722,3.43551 -0.52709,6.26976 -1.14695,1.80668 -1.14314,7.86042 0.21259,6.33885 2.67966,-3.60561 4.32912,0.47189 5.40251,0.69263 1.73021,0.0207 5.33257,-8.77377 7.17611,-12.64168 4.3584,-9.14435 13.83513,-14.76233 18.4922,-16.49827 7.74698,-3.63466 13.98064,-8.09321 20.182347,-16.74346 6.00038,-8.36944 12.54793,-18.32391 18.19459,-27.35073 2.04082,-2.135524 4.78437,-2.713239 5.56051,-4.068058 1.09345,-1.908685 5.19569,-2.50756 4.51219,-5.060388 -1.97801,-7.387746 6.937,-3.792364 8.02804,-8.325845 -2.5061,-12.258742 5.80306,-12.185932 10.15858,-16.069029 1.03813,-1.549437 1.87921,-4.680053 -1.66231,-7.203358 -5.47916,-1.843698 -7.18772,-6.121183 -12.7444,-11.312968 -2.89775,-0.478383 -3.57408,1.049719 -7.79472,3.582998 -4.73526,2.84216 -11.77427,0.230251 -17.13999,0.896013 -3.25733,2.518528 -7.16473,4.381085 -8.680967,6.464554 -2.90969,4.205485 -7.09719,3.696787 -10.44219,5.725744 -8.12477,4.371531 -12.33961,9.150175 -17.81713,13.852613 -3.79383,3.199384 -6.24913,5.394869 -8.68097,7.572761 z"
         id="path1379"
         sodipodi:nodetypes="cccccscssccscscssccccsccccc"
         inkscape:label="Level 5" /></g></g></svg>
