<?xml version="1.0" encoding="UTF-8" standalone="no"?>
<!-- Created with Inkscape (http://www.inkscape.org/) -->

<svg
   width="379.43576"
   height="459.02466"
   viewBox="0 0 100.39237 121.45027"
   version="1.1"
   id="svg5"
   inkscape:version="1.2 (dc2aedaf03, 2022-05-15)"
   sodipodi:docname="Scene 1.svg"
   xml:space="preserve"
   xmlns:inkscape="http://www.inkscape.org/namespaces/inkscape"
   xmlns:sodipodi="http://sodipodi.sourceforge.net/DTD/sodipodi-0.dtd"
   xmlns="http://www.w3.org/2000/svg"
   xmlns:svg="http://www.w3.org/2000/svg"><sodipodi:namedview
     id="namedview7"
     pagecolor="#ffffff"
     bordercolor="#666666"
     borderopacity="1.0"
     inkscape:showpageshadow="2"
     inkscape:pageopacity="0.0"
     inkscape:pagecheckerboard="0"
     inkscape:deskcolor="#d1d1d1"
     inkscape:document-units="mm"
     showgrid="true"
     inkscape:zoom="0.71624578"
     inkscape:cx="376.26749"
     inkscape:cy="330.19392"
     inkscape:window-width="1920"
     inkscape:window-height="991"
     inkscape:window-x="-9"
     inkscape:window-y="-9"
     inkscape:window-maximized="1"
     inkscape:current-layer="g1408"><inkscape:grid
       type="axonomgrid"
       id="grid1326"
       snapvisiblegridlinesonly="false"
       units="px"
       spacingy="2.6458333"
       originx="169.33333"
       originy="95.25" /></sodipodi:namedview><defs
     id="defs2" /><g
     inkscape:label="Layer 1"
     inkscape:groupmode="layer"
     id="layer1"
     transform="translate(155.33839,-45.798676)"><g
       id="g1408"><path
         style="fill:#008000;stroke:none;stroke-width:0.264583px;stroke-linecap:butt;stroke-linejoin:miter;stroke-opacity:1"
         d="m -138.17869,104.09113 c -5.4386,6.24712 -6.81829,7.78881 -9.79528,10.18708 -0.57265,2.16278 3.31017,1.60177 3.78751,3.78751 0.16694,2.16353 -1.15753,2.74646 -1.82845,2.22026 -1.27379,-1.5398 -2.60138,-2.3265 -4.04872,-1.43664 0,0 -0.64343,2.15146 0.39181,1.95906 2.07867,-0.38632 2.73984,1.96047 2.48147,2.08966 -0.65301,0.77379 -1.30603,0.58415 -1.95905,0.52241 0,0 -1.27672,-1.60974 -1.82845,-1.95905 -1.79704,-1.13774 -2.18794,3.82427 -1.43664,4.44052 0.70339,0.57695 3.69593,0.15651 3.6569,1.56725 0.12797,1.04183 -8.45686,3.31539 -6.20368,8.03212 0,0 3.45057,0.0972 2.67738,-1.17543 -0.59576,-0.9806 3.21451,-6.80468 5.74656,-5.15885 2.78876,1.16102 3.24927,2.93473 2.74268,4.96294 -1.14251,3.28156 -3.85972,6.52673 -3.72221,10.4483 0.0446,3.44664 -1.14543,5.48232 -2.28556,7.57501 -1.09622,4.30758 1.05929,3.27151 1.95905,5.87717 0.59821,0.29742 -0.34499,3.72665 -1.17543,4.83233 -0.49569,0.65998 -0.0138,2.61823 1.11013,3.19979 0.65056,0.5512 1.40558,1.89374 3.13449,0.71832 0.66982,-3.56048 2.61464,-3.47635 2.61207,-4.96294 0.0687,-2.78916 1.27738,-3.9945 2.15497,-6.00777 2.87422,-6.01948 7.20415,-8.16394 8.94635,-10.8401 2.72905,-3.81411 10.1479,-9.73572 12.14614,-10.7748 1.44024,-1.31392 -0.56196,1.92788 0.1959,2.54677 3.26199,1.23998 6.33356,-1.33246 9.47038,-4.25711 5.64295,-5.26125 10.766927,-13.4146 12.405737,-15.00694 2.6878,-5.24769 7.86715,-10.02859 11.10131,-14.6276 0.0915,-1.56248 -2.87299,-0.76011 -4.11401,2.28556 -6.24402,5.82744 -10.809517,12.21438 -15.541837,18.54572 -1.15198,2.45074 -2.61999,2.23435 -3.91811,2.74267 -1.82821,-0.9741 -0.8856,-2.12138 0,-3.26509 3.19951,-1.76343 5.89672,-4.02916 7.70562,-7.1832 l 5.093537,-7.57501 c 0.37026,-1.98314 1.99472,-3.40886 3.91811,-4.70173 2.19941,-1.7851 5.59995,-2.41278 6.79139,-5.093543 0.005,-1.218968 2.02382,-2.437936 4.44053,-3.656904 1.30772,-1.10678 1.45206,-2.379758 1.56724,-3.656902 -0.60847,-1.864543 1.17175,-0.883572 1.95906,-0.522415 2.92159,0.183623 3.43119,-1.392524 4.96294,-2.220263 0.99382,-2.317693 0.39855,-3.752554 -0.13061,-5.224145 -1.49035,-3.213516 1.97621,-1.637674 3.26509,-1.763152 2.10472,0.494771 3.32301,-1.5857 4.76704,-2.742677 1.03868,-1.610779 0.45748,-1.523709 0.45711,-3.134488 -2.55407,-2.095181 -3.73409,-2.718123 -4.83234,-3.330393 -2.06707,-0.735899 -3.40634,-1.617355 -2.87327,-2.873282 1.00129,-1.12987 2.00259,-1.499034 3.00388,-1.959055 1.64589,-0.507753 -0.99488,-1.209294 1.04483,-2.350865 6.35756,-0.35385 8.0213,-1.897511 9.66468,-3.069188 5.91388,0.497031 3.24304,-2.453625 0.71831,-2.481468 -1.00194,-0.492978 1.30851,-1.600741 2.15496,-2.546774 0.16942,-1.077965 -0.1694,-2.078305 -4.83233,-0.130604 -2.2523,0.392222 -1.23267,-1.847332 -3.78751,-2.089658 -1.73726,0.0812 -3.07508,1.12628 -4.83234,0.261208 -0.82196,0.417786 -1.84167,-0.153188 -2.35086,1.82845 -5e-4,6.006367 0.0809,0.936004 -1.50195,0.130607 -3.37513,-0.0037 -8.28549,-0.433716 -8.88105,-1.30604 1.84703,-1.41806 6.09128,-1.287832 8.42394,-2.220261 0,0 -0.1306,-3.003886 1.95906,-1.175432 2.08965,1.82845 6.03131,1.519997 6.79139,1.567243 1.23906,0.07702 2.60681,-1.231883 2.35086,-1.43664 0.25338,-1.906577 -1.08296,-1.996324 -1.95905,-2.612075 -0.67326,-0.850452 -1.85411,-1.193307 -3.91811,-0.653018 -1.623,-0.0653 1.52956,-2.712267 0.52241,-3.265091 -1.46933,-0.806513 -6.40713,1.417769 -6.13837,2.089658 -0.19495,1.173813 1.66908,4.028483 -1.56724,3.656904 -1.80223,-2.409148 -4.31397,1.355362 -6.07308,1.632546 -6.20085,-0.841252 -13.61713,-1.714173 -13.38687,1.501941 0,0 -1.28756,1.889071 0.78362,1.959055 3.93541,0.132975 3.6569,1.436642 3.6569,1.436642 -2.45671,1.426596 -3.3363,-2.158191 -4.96294,1.044829 -1.30604,0.692702 -2.61207,0.783633 -3.91811,-0.261207 -2.067827,-0.877673 -4.310457,0.788532 -6.007757,3.656901 -2.09286,2.62304 -3.50108,4.268615 -5.74657,3.265094 -0.9702,-0.457113 1.86183,-1.56778 1.04483,-2.612073 -0.68072,-0.870094 -3.8856,0.523543 -3.91811,0.783622 -1.00466,1.140259 -0.99104,2.489166 -1.82845,4.30992 -0.59558,0.616635 -2.82536,0.700346 -2.74268,3.003886 -1.31954,0.992247 -1.70809,-1.823376 -3.5263,-0.914226 -2.50074,1.959055 -3.66907,3.918111 -4.44052,5.877166 -0.35209,0.609484 -0.82475,1.218967 0,1.828451 1.73767,1.4085 2.25171,-0.820703 3.91811,-0.522415 1.92957,0.789237 1.98303,2.404454 2.35086,3.656902 0.9043,1.842997 -4.13529,1.267021 -2.74267,4.309922 1.39893,2.516218 0.29882,3.416865 -0.26121,4.440526 0.20178,0.403563 -1.7615,1.509614 -1.82845,0.261207 -0.15212,-2.836429 -2.62724,-8.834006 -3.5263,-8.619845 -0.25697,0 -1.70552,3.918112 -0.26121,5.093544 0.93391,0.760051 -1.43664,3.787508 -1.43664,3.787508 -0.28435,0.995639 -0.34518,1.323058 1.30604,2.87328 0.65831,1.843273 -4.08666,2.022264 -4.44053,3.265093 -0.34607,1.215408 -4.81373,4.024634 -5.02824,5.420054 0.59937,1.48394 0.80927,1.44929 0.19591,1.89375 z"
         id="path1376"
         sodipodi:nodetypes="cccccsccssccscccccscccccccsccccccccccccccccccccccccccccccccsscccsccccscccccsccccccccccscsccscc"
         inkscape:label="Level 4" /></g></g></svg>
