<?xml version="1.0" encoding="UTF-8" standalone="no"?>
<!-- Created with Inkscape (http://www.inkscape.org/) -->

<svg
   width="44.701195"
   height="49.286514"
   viewBox="0 0 11.827191 13.04039"
   version="1.1"
   id="svg5"
   inkscape:version="1.2 (dc2aedaf03, 2022-05-15)"
   sodipodi:docname="Scene 2.svg"
   xml:space="preserve"
   xmlns:inkscape="http://www.inkscape.org/namespaces/inkscape"
   xmlns:sodipodi="http://sodipodi.sourceforge.net/DTD/sodipodi-0.dtd"
   xmlns="http://www.w3.org/2000/svg"
   xmlns:svg="http://www.w3.org/2000/svg"><sodipodi:namedview
     id="namedview7"
     pagecolor="#ffffff"
     bordercolor="#666666"
     borderopacity="1.0"
     inkscape:showpageshadow="2"
     inkscape:pageopacity="0.0"
     inkscape:pagecheckerboard="0"
     inkscape:deskcolor="#d1d1d1"
     inkscape:document-units="mm"
     showgrid="true"
     inkscape:zoom="1.0129245"
     inkscape:cx="594.31873"
     inkscape:cy="279.88266"
     inkscape:window-width="1920"
     inkscape:window-height="991"
     inkscape:window-x="-9"
     inkscape:window-y="-9"
     inkscape:window-maximized="1"
     inkscape:current-layer="layer1"><inkscape:grid
       type="axonomgrid"
       id="grid1326"
       snapvisiblegridlinesonly="false"
       units="px"
       spacingy="2.6458333"
       originx="169.33333"
       originy="95.25" /></sodipodi:namedview><defs
     id="defs2" /><g
     inkscape:groupmode="layer"
     id="layer3"
     inkscape:label="scene 3"
     transform="matrix(0.10379619,0,0,0.10379619,90.993011,-43.314742)"><path
       style="fill:#16502d;stroke:none;stroke-width:0.26516px;stroke-linecap:butt;stroke-linejoin:miter;stroke-opacity:1"
       d="m -848.75492,455.57103 -14.43815,9.81053 c -2.85596,3.36476 -5.58236,6.78997 -4.81271,11.84668 -1.63479,5.05051 -12.67611,9.04376 -7.07117,15.01397 3.57337,2.26399 2.66204,3.56599 1.41802,6.04463 -1.35631,7.91756 1.96241,16.09483 6.9679,21.01479 1.44975,1.42498 4.9846,2.48416 5.1639,3.92505 0.37411,1.88022 -0.39515,3.30973 0.31519,6.38337 0.39473,1.70799 1.27498,3.44301 -0.52824,6.28344 -1.14945,1.81062 -1.14563,7.87757 0.21306,6.35268 2.6855,-3.61348 4.33856,0.47292 5.41429,0.69414 1.73399,0.0207 5.3442,-8.79291 7.19177,-12.66926 4.3679,-9.1643 13.86531,-14.79453 18.53254,-16.53426 7.76387,-3.64259 14.01113,-8.11086 20.22637,-16.77998 6.01347,-8.3877 12.5753,-18.36389 18.23428,-27.4104 2.04527,-2.14018 4.79481,-2.71916 5.57264,-4.07693 1.09584,-1.91285 5.20702,-2.51303 4.52203,-5.07143 -1.98232,-7.40386 6.95214,-3.80064 8.04556,-8.34401 -2.51157,-12.28548 5.81571,-12.21251 10.18074,-16.10408 1.04039,-1.55282 1.8833,-4.69026 -1.66594,-7.21907 -5.49111,-1.84772 -7.2034,-6.13454 -12.7722,-11.33765 -2.90407,-0.47942 -3.58188,1.05201 -7.81172,3.59082 -4.74559,2.84836 -11.79996,0.23075 -17.17738,0.89797 -3.26444,2.52402 -7.18036,4.39064 -8.69991,6.47865 -2.91604,4.21466 -7.11267,3.70485 -10.46497,5.73824 -8.14249,4.38106 -12.36653,9.17013 -17.856,13.88283 -3.8021,3.20636 -6.26276,5.40663 -8.6999,7.58928 z"
       id="path1379"
       sodipodi:nodetypes="cccccscssccscscssccccsccccc"
       inkscape:label="Level 5" /><path
       style="fill:#008000;stroke:none;stroke-width:0.26516px;stroke-linecap:butt;stroke-linejoin:miter;stroke-opacity:1"
       d="m -848.6068,476.9788 c -5.45046,6.26075 -6.83316,7.8058 -9.81665,10.2093 -0.5739,2.1675 3.31739,1.60527 3.79578,3.79578 0.1673,2.16825 -1.16006,2.75245 -1.83244,2.2251 -1.27657,-1.54316 -2.60706,-2.33158 -4.05756,-1.43977 0,0 -0.64483,2.15615 0.39267,1.96333 2.0832,-0.38716 2.74582,1.96475 2.48688,2.09422 -0.65443,0.77548 -1.30888,0.58542 -1.96332,0.52355 0,0 -1.27951,-1.61325 -1.83244,-1.96333 -1.80096,-1.14022 -2.19271,3.83262 -1.43977,4.45021 0.70492,0.57821 3.70399,0.15685 3.66487,1.57067 0.12825,1.0441 -8.4753,3.32262 -6.21721,8.04964 0,0 3.4581,0.0974 2.68322,-1.17799 -0.59706,-0.98274 3.22152,-6.81953 5.7591,-5.17011 2.79484,1.16355 3.25635,2.94113 2.74866,4.97377 -1.145,3.28872 -3.86814,6.54097 -3.73033,10.47109 0.0447,3.45416 -1.14793,5.49428 -2.29055,7.59153 -1.09861,4.31698 1.06161,3.27865 1.96333,5.88999 0.59951,0.29807 -0.34574,3.73478 -1.178,4.84288 -0.49677,0.66142 -0.0138,2.62394 1.11256,3.20677 0.65197,0.5524 1.40864,1.89787 3.14132,0.71988 0.67128,-3.56824 2.62035,-3.48393 2.61777,-4.97376 0.0688,-2.79525 1.28017,-4.00322 2.15967,-6.02088 2.88049,-6.03261 7.21987,-8.18175 8.96587,-10.86374 2.735,-3.82244 10.17003,-9.75696 12.17263,-10.79831 1.44338,-1.31679 -0.56318,1.93209 0.19633,2.55233 3.26911,1.24268 6.34738,-1.33537 9.49104,-4.2664 5.65526,-5.27273 10.79042,-13.44386 12.4328,-15.03968 2.69366,-5.25913 7.88431,-10.05047 11.12553,-14.65951 0.0917,-1.56589 -2.87926,-0.76176 -4.12299,2.29055 -6.25764,5.84015 -10.8331,12.24103 -15.57574,18.58618 -1.15449,2.45608 -2.62571,2.23922 -3.92666,2.74865 -1.83219,-0.97623 -0.88753,-2.12601 0,-3.27221 3.20649,-1.76728 5.90959,-4.03795 7.72243,-7.19887 l 5.10465,-7.59154 c 0.37107,-1.98747 1.99907,-3.4163 3.92666,-4.71199 2.20421,-1.789 5.61217,-2.41804 6.8062,-5.10465 0.005,-1.22163 2.02824,-2.44326 4.45022,-3.66488 1.31057,-1.1092 1.45523,-2.38495 1.57066,-3.66488 -0.6098,-1.86861 1.17431,-0.8855 1.96333,-0.52356 2.92797,0.18403 3.43868,-1.39556 4.97377,-2.2251 0.99599,-2.32275 0.39942,-3.76074 -0.1309,-5.23554 -1.4936,-3.22053 1.98053,-1.64125 3.27222,-1.767 2.10931,0.49585 3.33026,-1.58916 4.77744,-2.74866 1.04094,-1.6143 0.45847,-1.52704 0.4581,-3.14133 -2.55964,-2.09975 -3.74223,-2.72405 -4.84288,-3.33766 -2.07158,-0.7375 -3.41377,-1.62088 -2.87954,-2.87955 1.00348,-1.13233 2.00696,-1.5023 3.01044,-1.96332 1.64948,-0.50886 -0.99705,-1.21194 1.04711,-2.356 6.37142,-0.35462 8.03879,-1.90165 9.68576,-3.07588 5.92678,0.49811 3.25011,-2.45898 0.71988,-2.48688 -1.00413,-0.49405 1.31136,-1.60423 2.15966,-2.55233 0.16979,-1.08032 -0.16977,-2.08284 -4.84287,-0.13089 -2.25722,0.39308 -1.23536,-1.85136 -3.79578,-2.09422 -1.74105,0.0814 -3.08178,1.12874 -4.84288,0.26178 -0.82375,0.4187 -1.84569,-0.15352 -2.35599,1.83244 -5e-4,6.01947 0.0811,0.93805 -1.50522,0.13089 -3.3825,-0.004 -8.30357,-0.43466 -8.90043,-1.30889 1.85106,-1.42115 6.10457,-1.29064 8.44232,-2.2251 0,0 -0.13088,-3.01044 1.96333,-1.178 2.09421,1.83244 6.04447,1.52332 6.80621,1.57066 1.24176,0.0772 2.6125,-1.23457 2.35599,-1.43977 0.25393,-1.91074 -1.08533,-2.00068 -1.96333,-2.61777 -0.67473,-0.85231 -1.85815,-1.19591 -3.92665,-0.65444 -1.62654,-0.0654 1.53289,-2.71819 0.52355,-3.27222 -1.47254,-0.80827 -6.42111,1.42086 -6.15176,2.09422 -0.19538,1.17637 1.67272,4.03727 -1.57066,3.66488 -1.80616,-2.4144 -4.32338,1.35832 -6.08633,1.63611 -6.21438,-0.84309 -13.64684,-1.71792 -13.41607,1.50521 0,0 -1.29037,1.8932 0.78533,1.96333 3.94399,0.13327 3.66487,1.43978 3.66487,1.43978 -2.46207,1.42971 -3.34357,-2.1629 -4.97376,1.04711 -1.30889,0.69421 -2.61777,0.78534 -3.92666,-0.26178 -2.07234,-0.87959 -4.31986,0.79025 -6.02087,3.66488 -2.09742,2.62876 -3.50871,4.27792 -5.7591,3.27221 -0.97232,-0.45811 1.86589,-1.5712 1.04711,-2.61777 -0.68221,-0.87199 -3.89408,0.52469 -3.92666,0.78533 -1.00685,1.14275 -0.9932,2.4946 -1.83244,4.31933 -0.59688,0.61798 -2.83152,0.70187 -2.74866,3.01043 -1.32242,0.99442 -1.71182,-1.82735 -3.53399,-0.91622 -2.5062,1.96333 -3.67708,3.92666 -4.45021,5.88999 -0.35286,0.61081 -0.82655,1.22163 0,1.83244 1.74146,1.41157 2.25662,-0.82249 3.92666,-0.52355 1.93378,0.79095 1.98735,2.4097 2.35599,3.66488 0.90627,1.84701 -4.14431,1.26978 -2.74866,4.31932 1.40199,2.52171 0.29948,3.42432 -0.26178,4.45021 0.20222,0.40444 -1.76534,1.51291 -1.83243,0.26178 -0.15246,-2.84262 -2.63298,-8.85328 -3.534,-8.63865 -0.25753,0 -1.70924,3.92666 -0.26178,5.10466 0.93595,0.7617 -1.43977,3.79577 -1.43977,3.79577 -0.28497,0.99781 -0.34593,1.32594 1.30889,2.87954 0.65974,1.8473 -4.09558,2.02668 -4.45022,3.27222 -0.34682,1.21806 -4.82423,4.03341 -5.03921,5.43187 0.60068,1.48719 0.81104,1.45246 0.19634,1.89789 z"
       id="path1376"
       sodipodi:nodetypes="cccccsccssccscccccscccccccsccccccccccccccccccccccccccccccccsscccsccccscccccsccccccccccscsccscc"
       inkscape:label="Level 4" /><path
       style="fill:#44aa00;stroke:none;stroke-width:0.26516px;stroke-linecap:butt;stroke-linejoin:miter;stroke-opacity:1"
       d="m -846.90525,483.13056 c -0.37357,-2.15148 3.5951,-2.28614 4.05755,-6.54443 0.78117,-1.68091 2.65476,1.0282 3.92665,0.65445 0.74479,-1.40682 -1.42992,-2.32906 -1.43977,-3.79577 0.99004,-0.71516 0.82763,-1.53509 3.53399,-2.09422 2.30277,-0.058 4.52953,-4.87659 4.71199,-3.66488 0.5562,3.21255 -0.64563,6.29307 0.52356,6.67532 2.19578,0.32121 2.27152,-3.80227 4.31932,-4.97377 1.33227,-0.30087 1.00003,2.06667 2.74865,1.70155 1.09046,-0.10907 0.11149,-2.18148 -0.26177,-3.27221 0.72293,-0.78813 -0.39539,-2.08771 3.14133,-2.09422 2.58927,1.20692 3.93908,0.51448 2.74865,-0.78533 -1.48969,-1.12331 -0.77771,-1.49272 -0.52355,-2.35599 1.2571,-1.22708 2.98849,-2.74869 1.70155,-4.05755 -2.07941,-0.81332 -4.48527,-1.53207 -4.71198,-3.86122 1.2047,-1.08545 3.72699,1.1884 3.92666,-0.13088 1.17429,-1.51964 -2.59188,-1.20798 -3.40311,-2.945 0.42414,-1.41604 -0.52804,-3.64465 3.86121,-3.79576 2.26126,-0.33547 -1.31951,-2.24928 0.58901,-3.92666 4.9749,-2.88013 5.29967,-2.3774 7.32975,-5.10466 0.38859,-1.66631 2.26244,-1.59983 3.59944,-2.15966 1.73183,0.24664 -0.34746,4.35405 1.24343,3.59944 0.38377,-0.18203 2.98699,-3.96524 4.712,-3.53399 2.84233,3.56091 2.58241,-3.7741 6.74076,-3.20677 1.96307,1.26517 -0.92558,3.18183 1.50522,6.2172 0.7995,0.22037 2.3583,1.97128 2.48688,0.13089 0.10134,-2.44325 0.17398,-4.8865 2.48688,-7.32976 1.16477,-1.01396 3.53271,-1.36757 4.18844,0.65444 0.43025,1.75446 -1.45122,3.18087 -1.83245,6.02088 0.0901,0.78191 1.68267,-0.12962 1.96333,0.78533 -1.14402,1.73631 -8.082,3.45372 -7.72242,5.23554 0.71353,1.34565 3.06467,3.00987 5.36643,1.30889 0.67546,-0.91901 0.88756,-0.83825 2.5107,-0.36091 1.02589,1.33546 0.9214,2.33323 2.98662,3.24046 1.07839,0.47005 2.64202,0.5935 2.09422,2.2251 -0.54814,0.75744 -1.29422,0.49814 -2.356,1.30889 -1.26696,0.60401 -2.55795,1.11189 -4.18843,0.26178 -2.1717,-0.60994 -2.75293,0.10551 -1.96333,1.96332 0.94559,1.0212 2.20354,1.53482 2.22511,4.05755 -0.15748,0.79632 0.3521,1.71391 -1.03917,2.2859 -1.84818,0.0756 -3.55211,1.67187 -4.97376,1.178 -0.56007,-1.57376 -1.57303,-1.7938 -2.61778,-1.67116 -1.29588,0.0754 1.26324,2.18877 1.55477,3.37271 0.16393,0.65083 -0.92154,1.87926 -1.6936,3.34231 -0.73222,0.75839 -2.85963,1.31194 -4.01126,1.26919 -0.73736,-0.0674 -3.28451,-2.47456 -3.18761,-0.48386 0.59471,1.31635 1.27591,2.6219 0.91622,4.05755 -1.09735,1.63479 -2.46671,2.31754 -4.05755,2.2251 -0.97425,-1.34467 -0.759,-0.92406 -1.43977,-0.65444 -0.62509,0.94121 0.54368,1.89528 -0.52355,2.35599 -1.22342,0.11638 -2.12598,0.59946 -2.48689,1.70155 -1.15956,2.03986 -2.01377,4.67035 -2.48688,6.28266 -0.73491,0.83641 -0.0498,2.27073 -2.87955,2.2251 -1.32744,-0.23235 -2.42109,0.0808 -3.01044,1.57066 -0.46057,1.98842 0.61894,4.33921 -1.70155,5.88999 -0.75869,0.46033 -1.38433,0.12224 -2.02412,-0.13088 -1.45903,-0.48968 -2.41468,1.39373 -3.01044,4.97375 -0.54679,0.93196 0.35181,2.32361 -1.94881,2.48553 -1.69627,-1.09119 -4.3732,-4.1342 -4.40394,-0.78397 0.3253,0.95985 0.94484,1.9197 -0.26177,2.87955 -1.38663,0.24829 -2.74207,0.59532 -3.40311,3.14132 -0.47975,1.49436 0.0929,3.2518 -3.14132,4.05755 -2.07519,-0.84782 -2.30733,1.29733 -3.4031,2.74866 -2.6867,0.35803 -2.17618,1.40138 -3.40311,3.79577 -0.81531,1.38295 -3.38655,-1.65749 -3.53399,1.04711 -0.56719,0.58072 -1.13437,-0.66217 -1.70156,1.83244 -1.00048,1.64159 -2.56217,2.25431 -2.61776,5.62821 -1.19538,2.1292 -3.8773,2.27637 -6.02088,3.14133 -0.69219,-0.45981 -1.7359,0.48643 -1.96332,-1.83244 0.40361,0 2.82376,-2.043 2.35599,-2.87956 -0.39186,-0.70077 0.6653,-4.68315 2.09421,-4.58109 0.77371,-0.91081 2.28172,-0.98241 1.96334,-3.14133 -1.67078,-1.11126 -1.04977,-2.44148 -1.57067,-3.66488 0.54277,-1.41645 1.55814,-1.39049 1.57067,-2.22511 -0.73725,-2.35154 0.29061,-2.93797 0.65444,-4.18844 1.03652,-1.48232 6.75934,-4.46497 5.30099,-5.69365 -0.64182,-0.5844 -3.38708,2.40599 -4.18844,1.767 -0.0974,-1.178 -0.29987,-4.5811 1.767,-5.7591 2.21899,-0.18063 4.33657,-0.46268 4.84287,-2.35599 -0.60194,-0.93804 -3.81061,1.3307 -5.10465,0.71989 -0.83929,-1.29761 1.74038,-4.43542 3.79577,-5.69365 2.23768,-2.2141 2.42004,-4.5491 1.70155,-6.9371 -0.65445,-1.33578 -2.35599,0.91984 -3.53399,0.65444 z"
       id="path1309"
       sodipodi:nodetypes="cccccccccccccccccccccscccccccccccccccccccccccccccccccccccccccccccccccsccccccccccccc"
       inkscape:label="Level 3" /><path
       style="fill:#bcd35f;stroke:none;stroke-width:0.26516px;stroke-linecap:butt;stroke-linejoin:miter;stroke-opacity:1"
       d="m -823.85838,478.06121 c -0.64173,-1.487 2.56444,-3.46806 1.85104,-5.09037 -0.97106,-1.10527 -2.40597,-1.05201 -3.88719,0.64787 -2.36189,2.05197 -2.35713,4.83329 -3.97975,7.12652 -1.30577,1.09763 -2.54915,1.50916 -3.60953,-0.0926 -1.05107,-2.43946 0.24301,-2.76523 -0.27766,-4.11857 -1.68616,-2.22377 -2.34973,-0.48565 -2.86912,0.60159 -1.65489,1.83297 -2.0047,3.50386 -1.94359,5.09037 -0.3944,2.05189 -0.20587,2.77323 -2.31381,4.39623 -0.42314,1.16793 -1.89991,2.76553 0.92553,2.73029 1.50451,0.36842 3.22037,-0.0202 4.16484,1.01807 0.88935,1.47146 -0.37908,2.26862 -1.38828,3.14678 -1.83925,1.38794 -2.03096,2.39567 -2.31381,3.42443 -1.1034,2.71841 -3.32511,2.97655 -4.99782,4.4425 -0.53455,3.43935 -5.2255,4.95887 -5.55313,7.21908 0.43335,1.46001 -0.23792,2.65348 2.63774,2.91539 0.62169,0.52221 1.39602,0.67171 0.69414,1.43456 l -1.38828,1.38829 c -0.37656,0.80221 -0.36163,1.38694 0.3702,1.57338 3.27531,0.11124 3.60988,-1.50114 3.79465,-2.40636 v -3.42443 c -0.69863,-2.77849 0.85738,-3.86436 1.66594,-5.5994 2.26927,-1.02067 1.96727,0.36923 2.40636,1.06435 0.27974,1.04892 0.19284,2.09785 1.38828,3.14677 2.83073,0.11917 3.06756,-1.22075 4.07229,-2.1287 0.57213,-0.9127 0.15999,-1.54419 -0.0926,-2.22125 0.0517,-2.69988 1.66536,-1.96338 2.86912,-2.1287 0.75564,-1.35434 -1.35818,-2.47109 -0.13883,-3.74836 1.99769,-0.77947 3.58693,0.21106 5.2292,0.97179 1.26584,0.29134 2.1263,0.0151 2.77657,-0.55532 0.59802,-1.37166 0.0607,-2.36489 0,-3.51698 0.36903,-3.13437 3.24483,-3.48344 5.73823,-4.2574 1.70342,-1.82189 1.05729,-3.34558 0.92553,-5.27547 0.13573,-1.94154 2.11917,-1.36402 3.51698,-0.37022 2.6325,-1.72764 1.72581,-2.80741 2.49891,-4.53505 0.0519,-1.82019 0.62842,-3.64039 2.03615,-5.46058 2.38004,-1.91229 1.29772,-4.82217 2.96167,-5.18292 2.81748,0.76117 8.17931,1.20147 2.91539,-3.37816 -2.52346,-3.19021 5.18122,0.096 7.72812,0.23138 3.7334,-1.12645 2.13878,-2.51919 2.12869,-3.60953 -0.74664,-1.3111 -2.01576,-1.96908 -3.23932,-2.68402 -1.40365,-1.59833 0.35114,-1.69264 1.38828,-2.1287 1.87533,-0.73301 0.63411,-2.13054 1.75849,-2.86912 2.02924,0.13429 3.34614,0.92328 3.23933,4.53506 0.498,2.59547 1.66757,1.24821 2.77656,0.37021 1.86476,-1.18238 0.9981,-2.00058 1.20318,-2.96167 -0.35715,-1.64815 -2.19466,-1.81594 -2.36008,-3.1005 -0.30764,-1.17612 -0.232,-2.07846 0.32393,-2.63774 0.35998,-1.8449 -0.53088,-3.0041 -1.38828,-4.11857 -0.61237,-2.23536 -2.03917,-0.90968 -3.0916,-1.38227 -1.18834,-1.51094 -0.61939,-2.32987 -0.17018,-3.88526 -1.31146,-2.84349 -3.61374,-2.257 -5.99344,-2.55313 -3.35655,-1.13921 -2.31331,-0.56719 -4.99782,0.92552 -1.83759,1.08738 -4.38348,-0.85368 -6.29355,1.38828 -0.26724,1.13818 3.01938,0.88854 2.96167,2.22126 -2.00889,3.37668 -5.86654,1.54867 -7.77438,3.79464 -0.99011,2.69172 3.99766,2.19088 4.53505,4.0723 -0.82937,2.0872 -3.11294,1.84732 -5.36802,3.60953 -0.57366,0.80629 -1.79818,1.39562 -0.92552,2.68402 2.31699,1.26274 2.75131,0.14077 3.88719,-0.0926 3.64056,-2.57381 4.76293,-3.0466 6.20099,-1.75849 0.87092,3.18057 -1.88683,5.68302 -3.23932,8.42225 -1.14983,1.96051 0.43312,2.05032 0.83297,2.96167 0.4907,0.94125 -0.92301,1.61668 -2.03615,1.20318 -2.74432,-2.81966 -4.577,-2.37046 -6.01589,-1.48083 -0.8179,1.19323 -1.1431,2.42166 -0.74042,3.70208 0.2421,1.51838 0.43363,3.25864 1.85104,4.62761 0.8615,0.51824 1.80995,1.00303 1.57339,1.9436 0.0328,1.46079 -0.98266,1.2183 -1.57339,1.66594 -1.83601,0.32909 -3.60052,0.42578 -5.09037,-0.37021 -1.2405,-0.41605 -2.00037,-0.27072 -2.77651,-1.57339 z"
       id="path1305"
       sodipodi:nodetypes="ccccccccccccccccccccccccccccccccccccccccccccccccccccccccccccccccccccccc"
       inkscape:label="Level 2" /><g
       id="g748"
       inkscape:label="Level 1"
       style="fill:#88aa00;stroke:none"
       transform="matrix(1.0021814,0,0,1.0021814,-1003.3171,382.08458)"><path
         style="fill:#88aa00;stroke:none;stroke-width:0.264583px;stroke-linecap:butt;stroke-linejoin:miter;stroke-opacity:1"
         d="m 193.38246,68.339551 c 1.23537,-1.156674 2.91792,-0.860056 3.69403,-3.509327 1.02916,-1.343457 1.97054,-2.70886 4.43284,-3.694031 1.75194,0.577916 3.84631,0.373157 4.80224,2.770524 -0.23097,0.985075 0.0687,1.970149 -1.29291,2.955224 -1.71807,1.926006 -3.83674,2.650222 -5.91045,3.509327 -1.20669,0.391602 -2.27261,0.98028 -4.06343,0.554106 -2.21143,-0.338575 -1.67101,-1.546156 -1.66232,-2.585823 z"
         id="path634"
         sodipodi:nodetypes="cccccccc" /><path
         style="fill:#88aa00;stroke:none;stroke-width:0.264583px;stroke-linecap:butt;stroke-linejoin:miter;stroke-opacity:1"
         d="m 172.8806,101.40112 c -1.44141,-1.84564 -3.40961,-1.1802 -4.98694,-0.92351 -2.38031,1.57068 -1.42623,2.11304 -1.29291,3.13993 0.40221,1.71571 2.25292,1.58786 3.50932,2.21642 0.61435,1.96766 0.4253,3.71369 -1.47761,4.98693 -2.03218,0.15357 -2.81798,0.92358 -3.08487,2.36847 2.09832,3.61638 5.0902,1.26106 7.88711,1.69497 1.31468,0.54759 2.62935,0.79943 3.94403,0.1306 -0.11547,-3.32661 -2.19534,-3.95218 -3.57463,-5.54105 -0.0426,-1.85354 0.34192,-2.16984 1.2593,-3.06341 1e-4,0 1.1173,0.45445 1.55604,1.94401 2.14842,2.50086 5.9106,-0.82442 6.05034,-1.59702 0.32602,-1.13042 0.18386,-2.08527 -0.1847,-2.95522 -0.65908,-0.81334 -2.09807,-1.06961 -3.32463,-1.47761 -0.0975,-0.68069 0.42899,-0.94535 1.10821,-1.10821 l 3.50933,0.1847 c 1.59929,0.0601 2.37326,-0.7051 3.50932,-1.10821 0.32484,-0.678643 0.78555,-0.648163 -0.3694,-1.477611 -2.17531,-0.646149 -4.07422,-0.04854 -6.09515,0 -1.68659,0.110366 -2.56022,-2.153863 -3.67258,-1.433758 -1.22888,1.235888 -0.75274,2.124623 -0.94496,3.280769 -0.93099,0.62601 -1.80484,1.37448 -3.32462,0.73881 z"
         id="path636"
         sodipodi:nodetypes="cccccccccccccccccccccc" /><path
         style="fill:#88aa00;stroke:none;stroke-width:0.264583px;stroke-linecap:butt;stroke-linejoin:miter;stroke-opacity:1"
         d="m 187.28731,91.057835 c 1.53918,0.660823 2.66278,0.255632 4.20196,-0.554104 -0.21862,-0.795765 0.55272,-1.495801 -0.32323,-2.40112 -0.96721,-0.517686 -0.89014,-1.905602 -3.87873,-0.738804 -0.32161,1.038378 -1.90856,1.317551 0,3.694028 z"
         id="path638"
         sodipodi:nodetypes="ccccc" /><path
         style="fill:#88aa00;stroke:none;stroke-width:0.264583px;stroke-linecap:butt;stroke-linejoin:miter;stroke-opacity:1"
         d="m 198.92351,82.376866 c 2.16624,-0.381281 4.50804,-0.376349 6.09515,-2.031717 -0.0421,-0.996166 -0.57478,-1.403554 -1.84702,-0.923507 -3.4963,-0.824499 -1.9024,-1.572123 -2.03171,-1.662313 1.38332,-0.69456 2.89041,-1.341517 2.72434,-2.631997 2.64737,-1.723886 2.43242,-3.262889 7.43424,-4.201958 0.99733,-0.147835 1.94472,-0.362253 2.21641,-1.477613 -0.56244,-1.02649 -0.71084,-2.249104 -3.50932,-2.216417 -0.91498,0.159508 -1.64693,-0.486379 -3.13993,2.216417 -1.2046,0.86194 0.025,2.523419 -3.69403,2.585821 -0.79841,-0.441764 -1.13293,-1.495552 -2.40112,0.646455 0.41773,0.909982 0.6865,1.991047 -0.5541,2.308768 -1.14872,-0.325674 -2.23603,-0.344325 -3.13993,0.554107 -0.53312,1.931392 -1.09953,4.433025 0,6.095148 z"
         id="path640"
         sodipodi:nodetypes="ccccccccccccccc" /></g></g></svg>
