<?xml version="1.0" encoding="UTF-8" standalone="no"?>
<!-- Created with Inkscape (http://www.inkscape.org/) -->

<svg
   width="69.275864"
   height="88.677773"
   viewBox="0 0 18.329238 23.462661"
   version="1.1"
   id="svg5"
   inkscape:version="1.2 (dc2aedaf03, 2022-05-15)"
   sodipodi:docname="5-books.svg"
   xmlns:inkscape="http://www.inkscape.org/namespaces/inkscape"
   xmlns:sodipodi="http://sodipodi.sourceforge.net/DTD/sodipodi-0.dtd"
   xmlns="http://www.w3.org/2000/svg"
   xmlns:svg="http://www.w3.org/2000/svg">
  <sodipodi:namedview
     id="namedview7"
     pagecolor="#ffffff"
     bordercolor="#666666"
     borderopacity="1.0"
     inkscape:showpageshadow="2"
     inkscape:pageopacity="0.0"
     inkscape:pagecheckerboard="0"
     inkscape:deskcolor="#d1d1d1"
     inkscape:document-units="mm"
     showgrid="true"
     inkscape:zoom="4.051698"
     inkscape:cx="111.92838"
     inkscape:cy="21.595884"
     inkscape:window-width="1920"
     inkscape:window-height="991"
     inkscape:window-x="-9"
     inkscape:window-y="-9"
     inkscape:window-maximized="1"
     inkscape:current-layer="g66743">
    <inkscape:grid
       type="axonomgrid"
       id="grid1326"
       snapvisiblegridlinesonly="false"
       units="px"
       spacingy="2.6458333"
       originx="169.33333"
       originy="95.25" />
  </sodipodi:namedview>
  <defs
     id="defs2" />
  <g
     inkscape:label="Layer 1"
     inkscape:groupmode="layer"
     id="layer1"
     transform="translate(-209.96273,0.4445762)">
    <path
       id="rect2469-4"
       style="fill:#667b60;fill-opacity:1;stroke:#99e4ff;stroke-width:0;stroke-linecap:round;stroke-miterlimit:18.1;stroke-dashoffset:5.07364;paint-order:markers fill stroke"
       d="m 169.27808,7.7951452 68.74211,39.6915518 -0.004,105.832453 -68.74187,-39.68714 z"
       sodipodi:nodetypes="ccccc" />
    <path
       id="rect2469-3-3-1-8"
       style="fill:#d9c894;fill-opacity:1;stroke:#99e4ff;stroke-width:0;stroke-linecap:round;stroke-miterlimit:18.1;stroke-dashoffset:5.07364;paint-order:markers fill stroke"
       d="m 242.61075,44.844137 -4.59599,2.64462 -68.73289,-39.6875338 4.57906,-2.649346 z"
       sodipodi:nodetypes="ccccc" />
    <g
       id="g80125"
       transform="matrix(0.86614532,0,0,0.86614532,54.381913,-14.199453)">
      <g
         id="g4568-5-4"
         inkscape:label="Book"
         transform="matrix(1.1545407,0,0,1.1545407,-37.853493,-10.265655)">
        <path
           id="rect2469-7-2-9"
           style="fill:#88aa00;fill-opacity:1;stroke:#99e4ff;stroke-width:0;stroke-linecap:round;stroke-miterlimit:18.1;stroke-dashoffset:5.07364;paint-order:markers fill stroke"
           d="m 188.40769,27.898593 c 0.68296,0.983372 1.56227,1.726046 2.91727,1.885625 l -0.003,13.180719 c -1.24999,-0.226064 -2.45192,-0.518668 -2.9163,-1.832489 z"
           sodipodi:nodetypes="ccccc" />
        <path
           id="rect2469-3-81-2-4"
           style="fill:#ececec;fill-opacity:1;stroke:#99e4ff;stroke-width:0;stroke-linecap:round;stroke-miterlimit:18.1;stroke-dashoffset:5.07364;paint-order:markers fill stroke"
           d="m 200.78624,24.425054 -9.45599,5.375389 c -1.44282,-0.226521 -2.34529,-0.936513 -2.9628,-1.901467 l 9.48973,-5.25255 c 0.60645,1.168275 1.78545,1.445935 2.92906,1.778628 z"
           sodipodi:nodetypes="ccccc" />
        <path
           id="rect2469-3-8-0-5-0"
           style="fill:#9dac93;fill-opacity:1;stroke:#99e4ff;stroke-width:0;stroke-linecap:round;stroke-miterlimit:18.1;stroke-dashoffset:5.07364;paint-order:markers fill stroke"
           d="m 191.28052,42.969159 4.2e-4,-13.187156 9.39198,-5.281727 0.0123,12.751622 z"
           sodipodi:nodetypes="ccccc" />
        <path
           style="fill:#e6e6e6;stroke:#c8c8c8;stroke-width:0.1;stroke-linecap:round;stroke-linejoin:miter;stroke-dasharray:none;stroke-opacity:1"
           d="m 188.63705,28.143608 9.33,-5.150683"
           id="path66294"
           sodipodi:nodetypes="cc" />
        <path
           style="fill:#e6e6e6;stroke:#c8c8c8;stroke-width:0.1;stroke-linecap:round;stroke-linejoin:miter;stroke-dasharray:none;stroke-opacity:1"
           d="m 190.87364,29.596574 9.33,-5.150683"
           id="path66659"
           sodipodi:nodetypes="cc" />
        <path
           style="fill:#e6e6e6;stroke:#c8c8c8;stroke-width:0.1;stroke-linecap:round;stroke-linejoin:miter;stroke-dasharray:none;stroke-opacity:1"
           d="m 190.12267,29.253739 9.33,-5.150683"
           id="path66663"
           sodipodi:nodetypes="cc" />
        <path
           style="fill:#e6e6e6;stroke:#c8c8c8;stroke-width:0.1;stroke-linecap:round;stroke-linejoin:miter;stroke-dasharray:none;stroke-opacity:1"
           d="m 189.50066,28.919647 9.33,-5.150683"
           id="path66667"
           sodipodi:nodetypes="cc" />
        <path
           style="fill:#e6e6e6;stroke:#c8c8c8;stroke-width:0.1;stroke-linecap:round;stroke-linejoin:miter;stroke-dasharray:none;stroke-opacity:1"
           d="m 189.01766,28.472098 9.33,-5.150683"
           id="path66671"
           sodipodi:nodetypes="cc" />
      </g>
      <g
         aria-label="H
T
M
L"
         transform="skewY(37.004502)"
         id="text80044"
         style="font-size:2.61871px;font-family:'Nunito Sans';-inkscape-font-specification:'Nunito Sans, Normal';fill:#ffffff;stroke-width:0.0446526">
        <path
           d="m 180.49682,-109.5875 v -1.84619 h 0.3352 v 0.7699 h 0.95059 v -0.7699 h 0.33519 v 1.84619 h -0.33519 v -0.79609 h -0.95059 v 0.79609 z"
           style="-inkscape-font-specification:'Nunito Sans, Bold'"
           id="path432" />
        <path
           d="m 181.14102,-107.09973 v -1.56599 h -0.63372 v -0.2802 h 1.60265 v 0.2802 h -0.63373 v 1.56599 z"
           style="-inkscape-font-specification:'Nunito Sans, Bold'"
           id="path434" />
        <path
           d="m 180.37767,-104.61195 v -1.84619 h 0.2802 l 0.65468,1.20722 0.65206,-1.20722 h 0.27496 v 1.84619 h -0.30377 v -1.24389 l -0.52898,0.96369 h -0.1964 l -0.52898,-0.95845 v 1.23865 z"
           style="-inkscape-font-specification:'Nunito Sans, Bold'"
           id="path436" />
        <path
           d="m 180.77309,-102.12418 v -1.84619 h 0.3352 v 1.56075 h 0.88512 v 0.28544 z"
           style="-inkscape-font-specification:'Nunito Sans, Bold'"
           id="path438" />
      </g>
    </g>
    <g
       id="g66725"
       inkscape:label="Book"
       transform="translate(25.012264,-20.966934)">
      <path
         id="path66709"
         style="fill:#536c67;fill-opacity:1;stroke:#99e4ff;stroke-width:0;stroke-linecap:round;stroke-miterlimit:18.1;stroke-dashoffset:5.07364;paint-order:markers fill stroke"
         d="m 188.40769,27.898593 c 0.68296,0.983372 1.56227,1.726046 2.91727,1.885625 l -0.003,13.180719 c -1.24999,-0.226064 -2.45192,-0.518668 -2.9163,-1.832489 z"
         sodipodi:nodetypes="ccccc" />
      <path
         id="path66711"
         style="fill:#ececec;fill-opacity:1;stroke:#99e4ff;stroke-width:0;stroke-linecap:round;stroke-miterlimit:18.1;stroke-dashoffset:5.07364;paint-order:markers fill stroke"
         d="m 200.78624,24.425054 -9.45599,5.375389 c -1.44282,-0.226521 -2.34529,-0.936513 -2.9628,-1.901467 l 9.48973,-5.25255 c 0.60645,1.168275 1.78545,1.445935 2.92906,1.778628 z"
         sodipodi:nodetypes="ccccc" />
      <path
         id="path66713"
         style="fill:#2c89a0;fill-opacity:1;stroke:#99e4ff;stroke-width:0;stroke-linecap:round;stroke-miterlimit:18.1;stroke-dashoffset:5.07364;paint-order:markers fill stroke"
         d="m 191.28052,42.969159 4.2e-4,-13.187156 9.39198,-5.281727 0.0123,12.751622 z"
         sodipodi:nodetypes="ccccc" />
      <path
         style="fill:#e6e6e6;stroke:#c8c8c8;stroke-width:0.1;stroke-linecap:round;stroke-linejoin:miter;stroke-dasharray:none;stroke-opacity:1"
         d="m 188.63705,28.143608 9.33,-5.150683"
         id="path66715"
         sodipodi:nodetypes="cc" />
      <path
         style="fill:#e6e6e6;stroke:#c8c8c8;stroke-width:0.1;stroke-linecap:round;stroke-linejoin:miter;stroke-dasharray:none;stroke-opacity:1"
         d="m 190.87364,29.596574 9.33,-5.150683"
         id="path66717"
         sodipodi:nodetypes="cc" />
      <path
         style="fill:#e6e6e6;stroke:#c8c8c8;stroke-width:0.1;stroke-linecap:round;stroke-linejoin:miter;stroke-dasharray:none;stroke-opacity:1"
         d="m 190.12267,29.253739 9.33,-5.150683"
         id="path66719"
         sodipodi:nodetypes="cc" />
      <path
         style="fill:#e6e6e6;stroke:#c8c8c8;stroke-width:0.1;stroke-linecap:round;stroke-linejoin:miter;stroke-dasharray:none;stroke-opacity:1"
         d="m 189.50066,28.919647 9.33,-5.150683"
         id="path66721"
         sodipodi:nodetypes="cc" />
      <path
         style="fill:#e6e6e6;stroke:#c8c8c8;stroke-width:0.1;stroke-linecap:round;stroke-linejoin:miter;stroke-dasharray:none;stroke-opacity:1"
         d="m 189.01766,28.472098 9.33,-5.150683"
         id="path66723"
         sodipodi:nodetypes="cc" />
      <g
         aria-label="JAVA
SCRIPT"
         transform="matrix(1.1601233,0.64965271,0,0.86197733,0,0)"
         id="text80044-6"
         style="font-size:1.28578px;font-family:'Nunito Sans';-inkscape-font-specification:'Nunito Sans, Normal';writing-mode:tb-rl;fill:#ffffff;stroke-width:0.0219242"
         inkscape:transform-center-x="1.4601611"
         inkscape:transform-center-y="-0.86153053">
        <path
           d="m 163.80767,-88.507778 0.13501,-0.01157 0.005,0.09129 q 0.008,0.114434 0.12601,0.114434 h 0.65189 v 0.16458 h -0.6506 q -0.2443,0 -0.2623,-0.253298 z"
           style="-inkscape-font-specification:'Nunito Sans, Bold'"
           id="path449" />
        <path
           d="m 163.81925,-88.048756 0.90647,0.410164 v 0.135007 l -0.90647,0.410164 v -0.167151 l 0.20958,-0.09001 v -0.442308 l -0.20958,-0.08872 z m 0.72775,0.475739 -0.38702,-0.163294 v 0.32916 l 0.38702,-0.163294 z"
           style="-inkscape-font-specification:'Nunito Sans, Bold'"
           id="path451" />
        <path
           d="m 163.81925,-86.780976 0.90647,-0.403735 v 0.176152 l -0.69561,0.299586 0.69561,0.299587 v 0.169723 l -0.90647,-0.403735 z"
           style="-inkscape-font-specification:'Nunito Sans, Bold'"
           id="path453" />
        <path
           d="m 163.81925,-86.329668 0.90647,0.410164 v 0.135007 l -0.90647,0.410164 v -0.167152 l 0.20958,-0.09 v -0.442309 l -0.20958,-0.08872 z m 0.72775,0.475739 -0.38702,-0.163294 v 0.329159 l 0.38702,-0.163294 z"
           style="-inkscape-font-specification:'Nunito Sans, Bold'"
           id="path455" />
        <path
           d="m 162.5849,-88.095043 q 0,-0.10672 0.027,-0.19801 0.0283,-0.09129 0.0759,-0.154294 l 0.12986,0.05015 q -0.045,0.063 -0.0694,0.137578 -0.0244,0.07586 -0.0244,0.16458 0,0.101577 0.0334,0.147865 0.0347,0.04629 0.0887,0.04629 0.045,0 0.0707,-0.03343 0.0257,-0.03214 0.0424,-0.111862 l 0.0296,-0.141436 q 0.0514,-0.241727 0.24816,-0.241727 0.0849,0 0.14786,0.045 0.063,0.045 0.0977,0.124721 0.0347,0.07972 0.0347,0.183867 0,0.09258 -0.0283,0.17358 -0.027,0.081 -0.0771,0.135007 l -0.12343,-0.05015 q 0.09,-0.106719 0.09,-0.259727 0,-0.08872 -0.0373,-0.138864 -0.0373,-0.05015 -0.0977,-0.05015 -0.0463,0 -0.0746,0.03086 -0.027,0.03086 -0.0424,0.105434 l -0.0296,0.14015 q -0.027,0.127292 -0.0849,0.18901 -0.0579,0.063 -0.1543,0.063 -0.081,0 -0.14272,-0.04372 -0.0617,-0.04372 -0.0964,-0.12472 -0.0334,-0.07972 -0.0334,-0.18901 z"
           style="-inkscape-font-specification:'Nunito Sans, Bold'"
           id="path457" />
        <path
           d="m 162.5849,-87.174424 q 0,-0.141436 0.0566,-0.243012 0.0579,-0.100291 0.16201,-0.154294 0.10543,-0.054 0.24816,-0.054 0.14272,0 0.24687,0.054 0.10414,0.054 0.16072,0.154294 0.0579,0.101576 0.0579,0.243012 0,0.09129 -0.0283,0.172295 -0.0283,0.08229 -0.081,0.135006 l -0.13115,-0.054 q 0.0489,-0.05786 0.0707,-0.118292 0.0231,-0.06043 0.0231,-0.129864 0,-0.137578 -0.0836,-0.209582 -0.0823,-0.072 -0.23529,-0.072 -0.15301,0 -0.23659,0.072 -0.0836,0.072 -0.0836,0.209582 0,0.06943 0.0219,0.129864 0.0231,0.06043 0.072,0.118292 l -0.13115,0.054 q -0.0514,-0.05272 -0.081,-0.135006 -0.0283,-0.08101 -0.0283,-0.172295 z"
           style="-inkscape-font-specification:'Nunito Sans, Bold'"
           id="path459" />
        <path
           d="m 162.59776,-86.723114 h 0.90647 v 0.393449 q 0,0.14915 -0.072,0.230154 -0.0707,0.081 -0.1993,0.081 -0.10158,0 -0.16844,-0.05272 -0.0656,-0.05272 -0.0887,-0.151722 -0.0206,0.06557 -0.099,0.108006 l -0.27901,0.151722 v -0.181295 l 0.2893,-0.156865 q 0.0424,-0.02314 0.0579,-0.05529 0.0154,-0.03086 0.0154,-0.07972 v -0.122149 h -0.36259 z m 0.48473,0.16458 v 0.200581 q 0,0.18001 0.14658,0.18001 0.1453,0 0.1453,-0.18001 v -0.200581 z"
           style="-inkscape-font-specification:'Nunito Sans, Bold'"
           id="path461" />
        <path
           d="m 162.59776,-85.841068 h 0.90647 v 0.16458 h -0.90647 z"
           style="-inkscape-font-specification:'Nunito Sans, Bold'"
           id="path463" />
        <path
           d="m 162.59776,-85.479764 h 0.90647 v 0.393449 q 0,0.14915 -0.0746,0.230155 -0.0746,0.081 -0.20829,0.081 -0.13372,0 -0.20958,-0.081 -0.0746,-0.081 -0.0746,-0.230155 v -0.228869 h -0.33944 z m 0.4693,0.16458 v 0.203153 q 0,0.177438 0.1543,0.177438 0.15301,0 0.15301,-0.177438 v -0.203153 z"
           style="-inkscape-font-specification:'Nunito Sans, Bold'"
           id="path465" />
        <path
           d="m 162.59776,-84.445996 h 0.76889 v -0.311158 h 0.13758 v 0.786897 h -0.13758 v -0.311159 h -0.76889 z"
           style="-inkscape-font-specification:'Nunito Sans, Bold'"
           id="path467" />
      </g>
    </g>
    <g
       id="g66743"
       inkscape:label="Book"
       transform="matrix(0.86614532,0,0,0.86614532,54.381913,-14.199453)">
      <path
         id="path66727"
         style="fill:#d4aa00;fill-opacity:1;stroke:#99e4ff;stroke-width:0;stroke-linecap:round;stroke-miterlimit:18.1;stroke-dashoffset:5.07364;paint-order:markers fill stroke"
         d="m 188.40769,27.898593 c 0.68296,0.983372 1.56227,1.726046 2.91727,1.885625 l -0.003,13.180719 c -1.24999,-0.226064 -2.45192,-0.518668 -2.9163,-1.832489 z"
         sodipodi:nodetypes="ccccc" />
      <path
         id="path66729"
         style="fill:#ececec;fill-opacity:1;stroke:#99e4ff;stroke-width:0;stroke-linecap:round;stroke-miterlimit:18.1;stroke-dashoffset:5.07364;paint-order:markers fill stroke"
         d="m 200.78624,24.425054 -9.45599,5.375389 c -1.44282,-0.226521 -2.34529,-0.936513 -2.9628,-1.901467 l 9.48973,-5.25255 c 0.60645,1.168275 1.78545,1.445935 2.92906,1.778628 z"
         sodipodi:nodetypes="ccccc" />
      <path
         id="path66731"
         style="fill:#d3bc5f;fill-opacity:1;stroke:#99e4ff;stroke-width:0;stroke-linecap:round;stroke-miterlimit:18.1;stroke-dashoffset:5.07364;paint-order:markers fill stroke"
         d="m 191.28052,42.969159 4.2e-4,-13.187156 9.39198,-5.281727 0.0123,12.751622 z"
         sodipodi:nodetypes="ccccc" />
      <path
         style="fill:#e6e6e6;stroke:#c8c8c8;stroke-width:0.1;stroke-linecap:round;stroke-linejoin:miter;stroke-dasharray:none;stroke-opacity:1"
         d="m 188.63705,28.143608 9.33,-5.150683"
         id="path66733"
         sodipodi:nodetypes="cc" />
      <path
         style="fill:#e6e6e6;stroke:#c8c8c8;stroke-width:0.1;stroke-linecap:round;stroke-linejoin:miter;stroke-dasharray:none;stroke-opacity:1"
         d="m 190.87364,29.596574 9.33,-5.150683"
         id="path66735"
         sodipodi:nodetypes="cc" />
      <path
         style="fill:#e6e6e6;stroke:#c8c8c8;stroke-width:0.1;stroke-linecap:round;stroke-linejoin:miter;stroke-dasharray:none;stroke-opacity:1"
         d="m 190.12267,29.253739 9.33,-5.150683"
         id="path66737"
         sodipodi:nodetypes="cc" />
      <path
         style="fill:#e6e6e6;stroke:#c8c8c8;stroke-width:0.1;stroke-linecap:round;stroke-linejoin:miter;stroke-dasharray:none;stroke-opacity:1"
         d="m 189.50066,28.919647 9.33,-5.150683"
         id="path66739"
         sodipodi:nodetypes="cc" />
      <path
         style="fill:#e6e6e6;stroke:#c8c8c8;stroke-width:0.1;stroke-linecap:round;stroke-linejoin:miter;stroke-dasharray:none;stroke-opacity:1"
         d="m 189.01766,28.472098 9.33,-5.150683"
         id="path66741"
         sodipodi:nodetypes="cc" />
      <g
         aria-label="C
S
S"
         transform="skewY(37.004501)"
         id="text80044-9"
         style="font-size:2.61871px;font-family:'Nunito Sans';-inkscape-font-specification:'Nunito Sans, Normal';fill:#ffffff;stroke-width:0.0446526">
        <path
           d="m 189.91994,-110.87835 q -0.28806,0 -0.49494,-0.11522 -0.20426,-0.11784 -0.31424,-0.32996 -0.10999,-0.21473 -0.10999,-0.50541 0,-0.29067 0.10999,-0.50279 0.10998,-0.21212 0.31424,-0.32734 0.20688,-0.11784 0.49494,-0.11784 0.18593,0 0.3509,0.0576 0.1676,0.0576 0.27497,0.16498 l -0.10999,0.26711 q -0.11784,-0.0995 -0.24092,-0.14403 -0.12308,-0.0471 -0.26449,-0.0471 -0.2802,0 -0.42685,0.17022 -0.14665,0.1676 -0.14665,0.47922 0,0.31163 0.14665,0.48184 0.14665,0.17022 0.42685,0.17022 0.14141,0 0.26449,-0.0445 0.12308,-0.0471 0.24092,-0.14665 l 0.10999,0.26711 q -0.10737,0.10475 -0.27497,0.16498 -0.16497,0.0576 -0.3509,0.0576 z"
           style="-inkscape-font-specification:'Nunito Sans, Bold'"
           id="path490" />
        <path
           d="m 189.7602,-108.39057 q -0.21736,0 -0.40328,-0.055 -0.18593,-0.0576 -0.31425,-0.15451 l 0.10213,-0.26449 q 0.12832,0.0917 0.2802,0.14141 0.15451,0.0498 0.3352,0.0498 0.20687,0 0.30115,-0.0681 0.0943,-0.0707 0.0943,-0.18069 0,-0.0917 -0.0681,-0.14403 -0.0655,-0.0524 -0.22783,-0.0864 l -0.28806,-0.0602 q -0.49232,-0.10475 -0.49232,-0.50541 0,-0.17283 0.0917,-0.30115 0.0917,-0.12832 0.25401,-0.19902 0.16236,-0.0707 0.37448,-0.0707 0.18854,0 0.35352,0.0576 0.16498,0.055 0.27497,0.15712 l -0.10213,0.25139 q -0.21735,-0.18331 -0.52898,-0.18331 -0.18069,0 -0.28282,0.076 -0.10213,0.0759 -0.10213,0.19902 0,0.0943 0.0628,0.15188 0.0628,0.055 0.21473,0.0864 l 0.28544,0.0602 q 0.25925,0.055 0.38495,0.17284 0.12832,0.11784 0.12832,0.31424 0,0.16498 -0.089,0.29068 -0.089,0.1257 -0.25401,0.1964 -0.16236,0.0681 -0.38495,0.0681 z"
           style="-inkscape-font-specification:'Nunito Sans, Bold'"
           id="path492" />
        <path
           d="m 189.7602,-105.9028 q -0.21736,0 -0.40328,-0.055 -0.18593,-0.0576 -0.31425,-0.1545 l 0.10213,-0.26449 q 0.12832,0.0917 0.2802,0.14141 0.15451,0.0498 0.3352,0.0498 0.20687,0 0.30115,-0.0681 0.0943,-0.0707 0.0943,-0.1807 0,-0.0917 -0.0681,-0.14402 -0.0655,-0.0524 -0.22783,-0.0864 l -0.28806,-0.0602 q -0.49232,-0.10475 -0.49232,-0.50541 0,-0.17284 0.0917,-0.30115 0.0917,-0.12832 0.25401,-0.19903 0.16236,-0.0707 0.37448,-0.0707 0.18854,0 0.35352,0.0576 0.16498,0.055 0.27497,0.15712 l -0.10213,0.2514 q -0.21735,-0.18331 -0.52898,-0.18331 -0.18069,0 -0.28282,0.0759 -0.10213,0.0759 -0.10213,0.19902 0,0.0943 0.0628,0.15189 0.0628,0.055 0.21473,0.0864 l 0.28544,0.0602 q 0.25925,0.055 0.38495,0.17283 0.12832,0.11784 0.12832,0.31425 0,0.16497 -0.089,0.29067 -0.089,0.1257 -0.25401,0.19641 -0.16236,0.0681 -0.38495,0.0681 z"
           style="-inkscape-font-specification:'Nunito Sans, Bold'"
           id="path494" />
      </g>
    </g>
  </g>
</svg>
