<?xml version="1.0" encoding="UTF-8" standalone="no"?>
<!-- Created with Inkscape (http://www.inkscape.org/) -->

<svg
   width="154.00249"
   height="106.75901"
   viewBox="0 0 40.746489 28.246655"
   version="1.1"
   id="svg5"
   inkscape:version="1.2 (dc2aedaf03, 2022-05-15)"
   sodipodi:docname="5-react.svg"
   xmlns:inkscape="http://www.inkscape.org/namespaces/inkscape"
   xmlns:sodipodi="http://sodipodi.sourceforge.net/DTD/sodipodi-0.dtd"
   xmlns="http://www.w3.org/2000/svg"
   xmlns:svg="http://www.w3.org/2000/svg">
  <sodipodi:namedview
     id="namedview7"
     pagecolor="#ffffff"
     bordercolor="#666666"
     borderopacity="1.0"
     inkscape:showpageshadow="2"
     inkscape:pageopacity="0.0"
     inkscape:pagecheckerboard="0"
     inkscape:deskcolor="#d1d1d1"
     inkscape:document-units="mm"
     showgrid="true"
     inkscape:zoom="2.8649831"
     inkscape:cx="110.64638"
     inkscape:cy="94.415914"
     inkscape:window-width="1920"
     inkscape:window-height="991"
     inkscape:window-x="-9"
     inkscape:window-y="-9"
     inkscape:window-maximized="1"
     inkscape:current-layer="g80556">
    <inkscape:grid
       type="axonomgrid"
       id="grid1326"
       snapvisiblegridlinesonly="false"
       units="px"
       spacingy="2.6458333"
       originx="169.33333"
       originy="95.25" />
  </sodipodi:namedview>
  <defs
     id="defs2" />
  <g
     inkscape:label="Layer 1"
     inkscape:groupmode="layer"
     id="layer1"
     transform="translate(-190.0771,-31.112659)">
    <g
       id="g80556"
       transform="matrix(0.86614532,0,0,0.86614532,34.496268,17.357784)">
      <g
         id="g80544"
         inkscape:label="Book"
         transform="matrix(1.1545407,0,0,1.1545407,-37.853493,-10.265655)">
        <path
           id="path80528"
           style="fill:#88aa00;fill-opacity:1;stroke:#99e4ff;stroke-width:0;stroke-linecap:round;stroke-miterlimit:18.1;stroke-dashoffset:5.07364;paint-order:markers fill stroke"
           d="m 188.40769,27.898593 c 0.68296,0.983372 1.56227,1.726046 2.91727,1.885625 l -0.003,13.180719 c -1.24999,-0.226064 -2.45192,-0.518668 -2.9163,-1.832489 z"
           sodipodi:nodetypes="ccccc" />
        <path
           id="path80530"
           style="fill:#ececec;fill-opacity:1;stroke:#99e4ff;stroke-width:0;stroke-linecap:round;stroke-miterlimit:18.1;stroke-dashoffset:5.07364;paint-order:markers fill stroke"
           d="m 200.78624,24.425054 -9.45599,5.375389 c -1.44282,-0.226521 -2.34529,-0.936513 -2.9628,-1.901467 l 9.48973,-5.25255 c 0.60645,1.168275 1.78545,1.445935 2.92906,1.778628 z"
           sodipodi:nodetypes="ccccc" />
        <path
           id="path80532"
           style="fill:#9dac93;fill-opacity:1;stroke:#99e4ff;stroke-width:0;stroke-linecap:round;stroke-miterlimit:18.1;stroke-dashoffset:5.07364;paint-order:markers fill stroke"
           d="m 191.28052,42.969159 4.2e-4,-13.187156 9.39198,-5.281727 0.0123,12.751622 z"
           sodipodi:nodetypes="ccccc" />
        <path
           style="fill:#e6e6e6;stroke:#c8c8c8;stroke-width:0.1;stroke-linecap:round;stroke-linejoin:miter;stroke-dasharray:none;stroke-opacity:1"
           d="m 188.63705,28.143608 9.33,-5.150683"
           id="path80534"
           sodipodi:nodetypes="cc" />
        <path
           style="fill:#e6e6e6;stroke:#c8c8c8;stroke-width:0.1;stroke-linecap:round;stroke-linejoin:miter;stroke-dasharray:none;stroke-opacity:1"
           d="m 190.87364,29.596574 9.33,-5.150683"
           id="path80536"
           sodipodi:nodetypes="cc" />
        <path
           style="fill:#e6e6e6;stroke:#c8c8c8;stroke-width:0.1;stroke-linecap:round;stroke-linejoin:miter;stroke-dasharray:none;stroke-opacity:1"
           d="m 190.12267,29.253739 9.33,-5.150683"
           id="path80538"
           sodipodi:nodetypes="cc" />
        <path
           style="fill:#e6e6e6;stroke:#c8c8c8;stroke-width:0.1;stroke-linecap:round;stroke-linejoin:miter;stroke-dasharray:none;stroke-opacity:1"
           d="m 189.50066,28.919647 9.33,-5.150683"
           id="path80540"
           sodipodi:nodetypes="cc" />
        <path
           style="fill:#e6e6e6;stroke:#c8c8c8;stroke-width:0.1;stroke-linecap:round;stroke-linejoin:miter;stroke-dasharray:none;stroke-opacity:1"
           d="m 189.01766,28.472098 9.33,-5.150683"
           id="path80542"
           sodipodi:nodetypes="cc" />
      </g>
      <g
         aria-label="R
E
A
C
T"
         transform="skewY(37.004502)"
         id="text80554"
         style="font-size:2.61871px;font-family:'Nunito Sans';-inkscape-font-specification:'Nunito Sans, Normal';fill:#ffffff;stroke-width:0.0446526">
        <path
           d="m 180.61073,-109.5875 v -1.84619 h 0.80133 q 0.30377,0 0.46875,0.14665 0.16498,0.14402 0.16498,0.4059 0,0.20687 -0.10737,0.34305 -0.10737,0.13355 -0.30901,0.18069 0.13356,0.0419 0.21997,0.20164 l 0.30901,0.56826 h -0.36924 l -0.31948,-0.58921 q -0.0471,-0.0864 -0.1126,-0.11784 -0.0628,-0.0314 -0.16236,-0.0314 h -0.24878 v 0.73848 z m 0.3352,-0.98726 h 0.40852 q 0.36662,0 0.36662,-0.29853 0,-0.29591 -0.36662,-0.29591 h -0.40852 z"
           style="-inkscape-font-specification:'Nunito Sans, Bold'"
           id="path357" />
        <path
           d="m 180.72727,-107.09973 v -1.84619 h 1.22817 v 0.26711 h -0.90607 v 0.50803 h 0.84846 v 0.26711 h -0.84846 v 0.53683 h 0.90607 v 0.26711 z"
           style="-inkscape-font-specification:'Nunito Sans, Bold'"
           id="path359" />
        <path
           d="m 180.33577,-104.61195 0.83537,-1.84619 h 0.27496 l 0.83537,1.84619 h -0.34043 l -0.18331,-0.42685 h -0.90084 l -0.18069,0.42685 z m 0.96892,-1.48219 -0.33257,0.78823 h 0.67039 l -0.33258,-0.78823 z"
           style="-inkscape-font-specification:'Nunito Sans, Bold'"
           id="path361" />
        <path
           d="m 181.47884,-102.09799 q -0.28806,0 -0.49494,-0.11522 -0.20426,-0.11785 -0.31425,-0.32996 -0.10998,-0.21474 -0.10998,-0.50541 0,-0.29068 0.10998,-0.50279 0.10999,-0.21212 0.31425,-0.32734 0.20688,-0.11785 0.49494,-0.11785 0.18592,0 0.3509,0.0576 0.1676,0.0576 0.27497,0.16497 l -0.10999,0.26711 q -0.11784,-0.0995 -0.24092,-0.14403 -0.12308,-0.0471 -0.26449,-0.0471 -0.2802,0 -0.42685,0.17021 -0.14665,0.1676 -0.14665,0.47923 0,0.31162 0.14665,0.48184 0.14665,0.17022 0.42685,0.17022 0.14141,0 0.26449,-0.0445 0.12308,-0.0471 0.24092,-0.14665 l 0.10999,0.26711 q -0.10737,0.10475 -0.27497,0.16498 -0.16498,0.0576 -0.3509,0.0576 z"
           style="-inkscape-font-specification:'Nunito Sans, Bold'"
           id="path363" />
        <path
           d="m 181.14102,-99.636403 v -1.565987 h -0.63372 v -0.2802 h 1.60265 v 0.2802 h -0.63373 v 1.565987 z"
           style="-inkscape-font-specification:'Nunito Sans, Bold'"
           id="path365" />
      </g>
    </g>
    <path
       id="rect2469-6"
       style="fill:#d5bdad;fill-opacity:1;stroke:#99e4ff;stroke-width:0;stroke-linecap:round;stroke-miterlimit:18.1;stroke-dashoffset:5.07364;paint-order:markers fill stroke"
       d="m 209.10335,33.444701 21.72024,12.698681 -0.0148,13.215931 -21.64976,-12.680757 z"
       sodipodi:nodetypes="ccccc" />
    <ellipse
       style="opacity:1;fill:#d4aa00;fill-opacity:1;stroke:#c8c8c8;stroke-width:0.080385;stroke-linecap:round;stroke-miterlimit:18.1;stroke-dasharray:none;stroke-dashoffset:5.07364;stroke-opacity:1;paint-order:markers fill stroke"
       id="path80646"
       cx="187.74258"
       cy="138.7674"
       rx="2.1609235"
       ry="2.3870773"
       transform="rotate(-23.223533)" />
    <g
       aria-label="CERTIFICATE"
       transform="matrix(1.0063103,0.61181123,-0.0931608,0.93708986,0,0)"
       id="text81170"
       style="font-size:3.00796px;font-family:'Nunito Sans';-inkscape-font-specification:'Nunito Sans, Normal';stroke-width:0.0512899">
      <path
         d="m 202.32928,-91.389144 q -0.0361,0.03008 -0.13536,0.08122 -0.0962,0.05114 -0.23762,0.09024 -0.14138,0.0391 -0.31283,0.0361 -0.26169,-0.006 -0.46924,-0.09325 -0.20454,-0.09024 -0.34893,-0.243645 -0.14137,-0.153406 -0.21657,-0.351931 -0.0752,-0.198526 -0.0752,-0.424123 0,-0.252668 0.0752,-0.463225 0.0782,-0.210558 0.21958,-0.363964 0.14438,-0.153405 0.34291,-0.237628 0.19852,-0.08422 0.43916,-0.08422 0.22259,0 0.39404,0.06016 0.17146,0.06016 0.27974,0.129342 l -0.17145,0.412091 q -0.0752,-0.05715 -0.20153,-0.117311 -0.12333,-0.06317 -0.28576,-0.06317 -0.12633,0 -0.24364,0.05414 -0.11431,0.05114 -0.20455,0.14739 -0.0872,0.09625 -0.13836,0.225597 -0.0511,0.126335 -0.0511,0.276733 0,0.159422 0.0451,0.291772 0.0481,0.13235 0.13536,0.228605 0.0872,0.09325 0.20755,0.144382 0.12333,0.05114 0.27673,0.05114 0.17747,0 0.30381,-0.05715 0.12633,-0.05715 0.19251,-0.120318 z"
         style="-inkscape-font-specification:'Josefin Sans Bold'"
         id="path5071" />
      <path
         d="m 202.76544,-93.419517 h 1.50999 v 0.421115 h -1.07384 v 0.47225 h 0.95052 v 0.421114 h -0.95052 v 0.478266 h 1.11596 v 0.421114 h -1.55211 z"
         style="-inkscape-font-specification:'Josefin Sans Bold'"
         id="path5073" />
      <path
         d="m 205.43952,-93.419517 q 0.20755,0 0.36998,0.05414 0.16243,0.05114 0.27071,0.150398 0.1113,0.09625 0.16845,0.234621 0.0572,0.135358 0.0572,0.306812 0,0.135358 -0.0421,0.270716 -0.0391,0.135358 -0.13235,0.246653 -0.0902,0.111294 -0.24064,0.180477 -0.1504,0.06618 -0.37299,0.06618 h -0.31282 v 0.703863 h -0.43616 v -2.213859 z m 0.0752,1.088882 q 0.0993,0 0.16543,-0.03309 0.0662,-0.03309 0.10227,-0.08422 0.0391,-0.05114 0.0541,-0.105279 0.0181,-0.05715 0.0181,-0.105279 0,-0.0361 -0.012,-0.09024 -0.009,-0.05715 -0.0421,-0.114303 -0.0331,-0.05715 -0.10227,-0.09625 -0.0662,-0.0391 -0.18048,-0.0391 h -0.31282 v 0.667767 z m 0.40908,0.270716 0.54745,0.854261 h -0.50835 l -0.55948,-0.842229 z"
         style="-inkscape-font-specification:'Josefin Sans Bold'"
         id="path5075" />
      <path
         d="m 206.63669,-93.419517 h 1.49195 v 0.421115 h -0.53843 v 1.792744 h -0.43615 v -1.792744 h -0.51737 z"
         style="-inkscape-font-specification:'Josefin Sans Bold'"
         id="path5077" />
      <path
         d="m 208.54975,-93.419517 h 0.43616 v 2.213859 h -0.43616 z"
         style="-inkscape-font-specification:'Josefin Sans Bold'"
         id="path5079" />
      <path
         d="m 209.55742,-93.419517 h 1.38366 v 0.421115 h -0.94751 v 0.502329 h 0.82117 v 0.421115 h -0.82117 v 0.8693 h -0.43615 z"
         style="-inkscape-font-specification:'Josefin Sans Bold'"
         id="path5081" />
      <path
         d="m 211.36219,-93.419517 h 0.43616 v 2.213859 h -0.43616 z"
         style="-inkscape-font-specification:'Josefin Sans Bold'"
         id="path5083" />
      <path
         d="m 214.03025,-91.389144 q -0.0361,0.03008 -0.13536,0.08122 -0.0962,0.05114 -0.23763,0.09024 -0.14137,0.0391 -0.31282,0.0361 -0.2617,-0.006 -0.46924,-0.09325 -0.20455,-0.09024 -0.34893,-0.243645 -0.14137,-0.153406 -0.21657,-0.351931 -0.0752,-0.198526 -0.0752,-0.424123 0,-0.252668 0.0752,-0.463225 0.0782,-0.210558 0.21958,-0.363964 0.14438,-0.153405 0.34291,-0.237628 0.19852,-0.08422 0.43916,-0.08422 0.22259,0 0.39404,0.06016 0.17146,0.06016 0.27974,0.129342 l -0.17145,0.412091 q -0.0752,-0.05715 -0.20153,-0.117311 -0.12333,-0.06317 -0.28576,-0.06317 -0.12634,0 -0.24365,0.05414 -0.1143,0.05114 -0.20454,0.14739 -0.0872,0.09625 -0.13836,0.225597 -0.0511,0.126335 -0.0511,0.276733 0,0.159422 0.0451,0.291772 0.0481,0.13235 0.13536,0.228605 0.0872,0.09325 0.20755,0.144382 0.12332,0.05114 0.27673,0.05114 0.17747,0 0.3038,-0.05715 0.12634,-0.05715 0.19251,-0.120318 z"
         style="-inkscape-font-specification:'Josefin Sans Bold'"
         id="path5085" />
      <path
         d="m 214.21675,-91.205658 0.99864,-2.301089 h 0.0241 l 0.99865,2.301089 h -0.50534 l -0.63769,-1.618282 0.31584,-0.216574 -0.76402,1.834856 z m 0.6828,-0.800117 h 0.66476 l 0.15341,0.366971 h -0.95352 z"
         style="-inkscape-font-specification:'Josefin Sans Bold'"
         id="path5087" />
      <path
         d="m 216.22907,-93.419517 h 1.49195 v 0.421115 h -0.53843 v 1.792744 h -0.43615 v -1.792744 h -0.51737 z"
         style="-inkscape-font-specification:'Josefin Sans Bold'"
         id="path5089" />
      <path
         d="m 218.14213,-93.419517 h 1.51 v 0.421115 h -1.07384 v 0.47225 h 0.95051 v 0.421114 h -0.95051 v 0.478266 h 1.11595 v 0.421114 h -1.55211 z"
         style="-inkscape-font-specification:'Josefin Sans Bold'"
         id="path5091" />
    </g>
    <g
       aria-label="Project Management Data Analytics UX Design"
       transform="matrix(1.0679055,0.61946589,0.02110079,0.94865248,0,0)"
       id="text81170-4"
       style="font-size:1.74923px;font-family:'Nunito Sans';-inkscape-font-specification:'Nunito Sans, Normal';stroke-width:0.0577309">
      <path
         d="m 198.6435,-88.152782 q 0.15918,0 0.26939,0.05423 0.1102,0.05248 0.16792,0.150434 0.0577,0.09621 0.0577,0.229149 0,0.07872 -0.0245,0.15918 -0.0227,0.07872 -0.0752,0.143437 -0.0507,0.06472 -0.13819,0.104954 -0.0857,0.03848 -0.21166,0.03848 h -0.18192 v 0.40757 h -0.25363 v -1.287433 z m 0.0437,0.633221 q 0.0577,0 0.0962,-0.01924 0.0385,-0.02099 0.0595,-0.05073 0.0227,-0.03149 0.0315,-0.06472 0.0105,-0.03324 0.0105,-0.05772 0,-0.01924 -0.007,-0.05073 -0.005,-0.03324 -0.0245,-0.06647 -0.0192,-0.03323 -0.0595,-0.05597 -0.0385,-0.02274 -0.10496,-0.02274 h -0.18192 v 0.388329 z"
         style="-inkscape-font-specification:'Josefin Sans Bold';fill:#707070"
         id="path5116" />
      <path
         d="m 199.54611,-87.629762 0.0227,0.209907 -0.005,-0.03149 q 0.0332,-0.06822 0.091,-0.115449 0.0577,-0.04898 0.1137,-0.07522 0.0577,-0.02624 0.0875,-0.02624 l -0.0122,0.244892 q -0.0857,-0.0105 -0.14694,0.02799 -0.0612,0.03848 -0.0945,0.101456 -0.0332,0.06297 -0.0332,0.129443 v 0.299118 h -0.24315 v -0.764413 z"
         style="-inkscape-font-specification:'Josefin Sans Bold';fill:#707070"
         id="path5118" />
      <path
         d="m 199.94843,-87.257176 q 0,-0.117199 0.0542,-0.209908 0.056,-0.09271 0.15569,-0.145186 0.0997,-0.05423 0.22915,-0.05423 0.13119,0 0.2274,0.05423 0.0962,0.05248 0.14693,0.145186 0.0525,0.09271 0.0525,0.209908 0,0.117198 -0.0525,0.211656 -0.0507,0.09271 -0.14693,0.146936 -0.0962,0.05423 -0.2309,0.05423 -0.12595,0 -0.22565,-0.04898 -0.098,-0.04898 -0.15394,-0.141688 -0.056,-0.09271 -0.056,-0.222152 z m 0.24664,0.0017 q 0,0.05947 0.0245,0.108452 0.0245,0.04723 0.0665,0.07522 0.042,0.02799 0.0945,0.02799 0.0577,0 0.0997,-0.02799 0.042,-0.02799 0.0647,-0.07522 0.0227,-0.04898 0.0227,-0.108452 0,-0.06122 -0.0227,-0.108452 -0.0227,-0.04723 -0.0647,-0.07522 -0.042,-0.02799 -0.0997,-0.02799 -0.0525,0 -0.0945,0.02799 -0.042,0.02799 -0.0665,0.07522 -0.0245,0.04723 -0.0245,0.108452 z"
         style="-inkscape-font-specification:'Josefin Sans Bold';fill:#707070"
         id="path5120" />
      <path
         d="m 201.05744,-86.496261 -0.14169,-0.152183 q 0.0525,-0.03848 0.0805,-0.09446 0.0297,-0.05598 0.0297,-0.13644 v -0.750419 h 0.2449 v 0.764413 q 0,0.13644 -0.049,0.225651 -0.049,0.09096 -0.16443,0.143437 z m -0.0402,-1.404632 q 0,-0.05423 0.042,-0.08921 0.0437,-0.03498 0.0927,-0.03498 0.049,0 0.0892,0.03498 0.042,0.03499 0.042,0.08921 0,0.05423 -0.042,0.08921 -0.0402,0.03324 -0.0892,0.03324 -0.049,0 -0.0927,-0.03324 -0.042,-0.03498 -0.042,-0.08921 z"
         style="-inkscape-font-specification:'Josefin Sans Bold';fill:#707070"
         id="path5122" />
      <path
         d="m 201.89882,-86.844358 q -0.13994,0 -0.2379,-0.05248 -0.0962,-0.05248 -0.14693,-0.145186 -0.0507,-0.09271 -0.0507,-0.213406 0,-0.115449 0.0595,-0.208158 0.0595,-0.09271 0.15918,-0.146936 0.0997,-0.05597 0.22216,-0.05597 0.16442,0 0.26938,0.09621 0.1067,0.09446 0.13819,0.27463 l -0.59474,0.188916 -0.0542,-0.132941 0.43031,-0.145186 -0.0507,0.02274 q -0.014,-0.04548 -0.0507,-0.07872 -0.035,-0.03499 -0.1067,-0.03499 -0.0542,0 -0.0962,0.02624 -0.0402,0.02449 -0.063,0.07172 -0.021,0.04548 -0.021,0.108452 0,0.07172 0.0262,0.120697 0.0262,0.04723 0.0717,0.07172 0.0455,0.02449 0.10146,0.02449 0.0402,0 0.077,-0.01399 0.0385,-0.01399 0.0752,-0.03673 l 0.10845,0.18192 q -0.0612,0.03498 -0.13294,0.05598 -0.07,0.02099 -0.13294,0.02099 z"
         style="-inkscape-font-specification:'Josefin Sans Bold';fill:#707070"
         id="path5124" />
      <path
         d="m 203.13902,-86.933569 q -0.0507,0.04023 -0.12769,0.06472 -0.0752,0.02449 -0.14869,0.02449 -0.13119,0 -0.22915,-0.04723 -0.0962,-0.04898 -0.15043,-0.138189 -0.0525,-0.09096 -0.0525,-0.218654 0,-0.127694 0.0577,-0.216905 0.0577,-0.09096 0.15043,-0.138189 0.0945,-0.04723 0.19767,-0.04723 0.1032,0 0.17842,0.02799 0.077,0.02799 0.13119,0.07347 l -0.11895,0.157431 q -0.0245,-0.01924 -0.0682,-0.03848 -0.042,-0.02099 -0.0997,-0.02099 -0.0507,0 -0.0927,0.02624 -0.042,0.02624 -0.0665,0.07172 -0.0245,0.04548 -0.0245,0.104954 0,0.05598 0.0262,0.103204 0.0262,0.04723 0.0717,0.07522 0.0472,0.02624 0.1102,0.02624 0.0402,0 0.0735,-0.0105 0.035,-0.01224 0.0595,-0.03324 z"
         style="-inkscape-font-specification:'Josefin Sans Bold';fill:#707070"
         id="path5126" />
      <path
         d="m 203.39966,-87.965615 h 0.24489 v 0.332354 h 0.18542 v 0.190666 h -0.18542 v 0.577246 h -0.24489 v -0.577246 h -0.11895 v -0.190666 h 0.11895 z"
         style="-inkscape-font-specification:'Josefin Sans Bold';fill:#707070"
         id="path5128" />
      <path
         d="m 204.62587,-86.865349 v -1.33991 h 0.002 l 0.71543,1.014553 -0.10845,-0.02449 0.71369,-0.990064 h 0.003 v 1.33991 h -0.25363 v -0.767912 l 0.0157,0.131192 -0.43556,0.619228 h -0.004 l -0.4478,-0.619228 0.0437,-0.120696 v 0.757416 z"
         style="-inkscape-font-specification:'Josefin Sans Bold';fill:#707070"
         id="path5130" />
      <path
         d="m 206.56576,-86.844358 q -0.1067,0 -0.19416,-0.04198 -0.0857,-0.04373 -0.13644,-0.132941 -0.0507,-0.08921 -0.0507,-0.2274 0,-0.129443 0.0525,-0.223901 0.0525,-0.09446 0.13819,-0.145186 0.0857,-0.05248 0.18192,-0.05248 0.1137,0 0.17142,0.03848 0.0595,0.03673 0.098,0.08221 l -0.0105,0.02974 0.0227,-0.11195 h 0.2274 v 0.764413 h -0.24489 v -0.166177 l 0.0192,0.05248 q -0.004,0 -0.021,0.02099 -0.0175,0.01924 -0.0525,0.04723 -0.0332,0.02624 -0.084,0.04548 -0.049,0.02099 -0.1172,0.02099 z m 0.07,-0.199412 q 0.0437,0 0.0787,-0.01225 0.035,-0.01399 0.0612,-0.03848 0.0262,-0.02624 0.0455,-0.06472 v -0.187168 q -0.014,-0.03848 -0.042,-0.06472 -0.028,-0.02799 -0.0665,-0.04198 -0.0385,-0.01574 -0.0857,-0.01574 -0.0525,0 -0.098,0.02799 -0.0437,0.02624 -0.07,0.07347 -0.0262,0.04723 -0.0262,0.108452 0,0.06122 0.028,0.110202 0.028,0.04898 0.0735,0.07697 0.0472,0.02799 0.10145,0.02799 z"
         style="-inkscape-font-specification:'Josefin Sans Bold';fill:#707070"
         id="path5132" />
      <path
         d="m 207.54009,-87.629762 0.0192,0.13644 -0.004,-0.01224 q 0.0402,-0.07172 0.1137,-0.115449 0.0735,-0.04548 0.18017,-0.04548 0.10845,0 0.18017,0.06472 0.0735,0.06297 0.0752,0.164428 v 0.571998 h -0.2449 v -0.481038 q -0.002,-0.05073 -0.028,-0.08047 -0.0245,-0.03149 -0.084,-0.03149 -0.056,0 -0.0979,0.03673 -0.042,0.03673 -0.0647,0.09971 -0.0227,0.06297 -0.0227,0.145186 v 0.311363 h -0.2449 v -0.764413 z"
         style="-inkscape-font-specification:'Josefin Sans Bold';fill:#707070"
         id="path5134" />
      <path
         d="m 208.67883,-86.844358 q -0.1067,0 -0.19416,-0.04198 -0.0857,-0.04373 -0.13644,-0.132941 -0.0507,-0.08921 -0.0507,-0.2274 0,-0.129443 0.0525,-0.223901 0.0525,-0.09446 0.13819,-0.145186 0.0857,-0.05248 0.18192,-0.05248 0.1137,0 0.17142,0.03848 0.0595,0.03673 0.098,0.08221 l -0.0105,0.02974 0.0227,-0.11195 h 0.2274 v 0.764413 h -0.24489 v -0.166177 l 0.0192,0.05248 q -0.004,0 -0.021,0.02099 -0.0175,0.01924 -0.0525,0.04723 -0.0332,0.02624 -0.084,0.04548 -0.049,0.02099 -0.1172,0.02099 z m 0.07,-0.199412 q 0.0437,0 0.0787,-0.01225 0.035,-0.01399 0.0612,-0.03848 0.0262,-0.02624 0.0455,-0.06472 v -0.187168 q -0.014,-0.03848 -0.042,-0.06472 -0.028,-0.02799 -0.0665,-0.04198 -0.0385,-0.01574 -0.0857,-0.01574 -0.0525,0 -0.098,0.02799 -0.0437,0.02624 -0.07,0.07347 -0.0262,0.04723 -0.0262,0.108452 0,0.06122 0.028,0.110202 0.028,0.04898 0.0735,0.07697 0.0472,0.02799 0.10145,0.02799 z"
         style="-inkscape-font-specification:'Josefin Sans Bold';fill:#707070"
         id="path5136" />
      <path
         d="m 209.82633,-86.480518 q -0.10321,0 -0.17492,-0.02449 -0.07,-0.02449 -0.11895,-0.05947 -0.049,-0.03499 -0.0875,-0.06647 l 0.14343,-0.167926 q 0.0402,0.03673 0.0927,0.06997 0.0542,0.03499 0.14169,0.03499 0.0577,0 0.1067,-0.02099 0.0507,-0.01924 0.0805,-0.05772 0.0315,-0.03848 0.0315,-0.09621 v -0.167926 l 0.009,0.04373 q -0.028,0.05947 -0.10145,0.104954 -0.0735,0.04373 -0.19242,0.04373 -0.1032,0 -0.19242,-0.05248 -0.0875,-0.05423 -0.13993,-0.145186 -0.0525,-0.09271 -0.0525,-0.209908 0,-0.120697 0.056,-0.213406 0.056,-0.09446 0.14519,-0.148684 0.0892,-0.05423 0.18892,-0.05423 0.0997,0 0.17142,0.02974 0.0735,0.02799 0.1102,0.06997 l -0.009,0.02274 0.0262,-0.08396 h 0.22565 v 0.764413 q 0,0.111951 -0.063,0.197663 -0.063,0.08746 -0.16792,0.13644 -0.10321,0.05073 -0.22915,0.05073 z m -0.20816,-0.778408 q 0,0.06122 0.028,0.110202 0.028,0.04898 0.0752,0.07697 0.049,0.02799 0.10845,0.02799 0.0507,0 0.0892,-0.01225 0.0402,-0.01399 0.07,-0.03848 0.0315,-0.02624 0.0525,-0.06472 v -0.187168 q -0.0157,-0.03848 -0.0472,-0.06472 -0.0315,-0.02799 -0.0735,-0.04198 -0.0402,-0.01574 -0.091,-0.01574 -0.0595,0 -0.10845,0.02799 -0.0472,0.02624 -0.0752,0.07347 -0.028,0.04723 -0.028,0.108452 z"
         style="-inkscape-font-specification:'Josefin Sans Bold';fill:#707070"
         id="path5138" />
      <path
         d="m 210.91435,-86.844358 q -0.13994,0 -0.2379,-0.05248 -0.0962,-0.05248 -0.14693,-0.145186 -0.0507,-0.09271 -0.0507,-0.213406 0,-0.115449 0.0595,-0.208158 0.0595,-0.09271 0.15918,-0.146936 0.0997,-0.05597 0.22216,-0.05597 0.16442,0 0.26938,0.09621 0.1067,0.09446 0.13819,0.27463 l -0.59474,0.188916 -0.0542,-0.132941 0.43031,-0.145186 -0.0507,0.02274 q -0.014,-0.04548 -0.0507,-0.07872 -0.035,-0.03499 -0.1067,-0.03499 -0.0542,0 -0.0962,0.02624 -0.0402,0.02449 -0.063,0.07172 -0.021,0.04548 -0.021,0.108452 0,0.07172 0.0262,0.120697 0.0262,0.04723 0.0717,0.07172 0.0455,0.02449 0.10146,0.02449 0.0402,0 0.077,-0.01399 0.0385,-0.01399 0.0752,-0.03673 l 0.10845,0.18192 q -0.0612,0.03498 -0.13294,0.05598 -0.07,0.02099 -0.13294,0.02099 z"
         style="-inkscape-font-specification:'Josefin Sans Bold';fill:#707070"
         id="path5140" />
      <path
         d="m 211.72774,-87.629762 0.0192,0.13469 -0.004,-0.0105 q 0.0455,-0.07697 0.1137,-0.118948 0.0682,-0.04373 0.16443,-0.04373 0.063,0 0.1102,0.01749 0.049,0.01749 0.0822,0.05248 0.0332,0.03324 0.0455,0.08746 l -0.009,0.0017 q 0.049,-0.07172 0.1172,-0.11545 0.07,-0.04373 0.14518,-0.04373 0.1137,0 0.18018,0.06472 0.0682,0.06297 0.07,0.164428 v 0.573747 h -0.24314 v -0.472292 q -0.002,-0.05073 -0.0157,-0.08221 -0.014,-0.03324 -0.0647,-0.03673 -0.0595,0 -0.10146,0.04198 -0.0402,0.04023 -0.0612,0.104954 -0.0192,0.06297 -0.0192,0.131192 v 0.313112 h -0.2449 v -0.472292 q -0.002,-0.05073 -0.0192,-0.08221 -0.0157,-0.03324 -0.0665,-0.03673 -0.0577,0 -0.098,0.04198 -0.0385,0.04023 -0.0595,0.103205 -0.0192,0.06297 -0.0192,0.129443 v 0.31661 h -0.24489 v -0.764413 z"
         style="-inkscape-font-specification:'Josefin Sans Bold';fill:#707070"
         id="path5142" />
      <path
         d="m 213.39126,-86.844358 q -0.13994,0 -0.2379,-0.05248 -0.0962,-0.05248 -0.14693,-0.145186 -0.0507,-0.09271 -0.0507,-0.213406 0,-0.115449 0.0595,-0.208158 0.0595,-0.09271 0.15918,-0.146936 0.0997,-0.05597 0.22215,-0.05597 0.16443,0 0.26938,0.09621 0.1067,0.09446 0.13819,0.27463 l -0.59474,0.188916 -0.0542,-0.132941 0.43031,-0.145186 -0.0507,0.02274 q -0.014,-0.04548 -0.0507,-0.07872 -0.035,-0.03499 -0.1067,-0.03499 -0.0542,0 -0.0962,0.02624 -0.0402,0.02449 -0.063,0.07172 -0.021,0.04548 -0.021,0.108452 0,0.07172 0.0262,0.120697 0.0262,0.04723 0.0717,0.07172 0.0455,0.02449 0.10146,0.02449 0.0402,0 0.077,-0.01399 0.0385,-0.01399 0.0752,-0.03673 l 0.10845,0.18192 q -0.0612,0.03498 -0.13294,0.05598 -0.07,0.02099 -0.13294,0.02099 z"
         style="-inkscape-font-specification:'Josefin Sans Bold';fill:#707070"
         id="path5144" />
      <path
         d="m 214.20465,-87.629762 0.0192,0.13644 -0.004,-0.01224 q 0.0402,-0.07172 0.1137,-0.115449 0.0735,-0.04548 0.18017,-0.04548 0.10846,0 0.18018,0.06472 0.0735,0.06297 0.0752,0.164428 v 0.571998 h -0.24489 v -0.481038 q -0.002,-0.05073 -0.028,-0.08047 -0.0245,-0.03149 -0.084,-0.03149 -0.056,0 -0.098,0.03673 -0.042,0.03673 -0.0647,0.09971 -0.0227,0.06297 -0.0227,0.145186 v 0.311363 h -0.24489 v -0.764413 z"
         style="-inkscape-font-specification:'Josefin Sans Bold';fill:#707070"
         id="path5146" />
      <path
         d="m 215.09326,-87.965615 h 0.24489 v 0.332354 h 0.18542 v 0.190666 h -0.18542 v 0.577246 h -0.24489 v -0.577246 h -0.11895 v -0.190666 h 0.11895 z"
         style="-inkscape-font-specification:'Josefin Sans Bold';fill:#707070"
         id="path5148" />
      <path
         d="m 198.25343,-85.188191 v -1.287433 h 0.38483 q 0.19416,0 0.3306,0.05772 0.13644,0.05773 0.21866,0.153932 0.084,0.09621 0.12244,0.215156 0.0385,0.118947 0.0385,0.239644 0,0.143437 -0.0525,0.258886 -0.0507,0.1137 -0.13994,0.195914 -0.0892,0.08046 -0.20641,0.124195 -0.1172,0.04198 -0.24839,0.04198 z m 0.25363,-0.244892 h 0.15044 q 0.0962,0 0.17492,-0.02449 0.0787,-0.02624 0.13469,-0.07522 0.0577,-0.04898 0.0875,-0.122446 0.0315,-0.07522 0.0315,-0.171424 0,-0.125945 -0.042,-0.20466 -0.0402,-0.08047 -0.10146,-0.124195 -0.0595,-0.04373 -0.12244,-0.05947 -0.063,-0.01749 -0.10671,-0.01749 h -0.20641 z"
         style="-inkscape-font-specification:'Josefin Sans Bold';fill:#707070"
         id="path5150" />
      <path
         d="m 199.88371,-85.1672 q -0.1067,0 -0.19417,-0.04198 -0.0857,-0.04373 -0.13644,-0.132941 -0.0507,-0.08921 -0.0507,-0.2274 0,-0.129443 0.0525,-0.223902 0.0525,-0.09446 0.13819,-0.145186 0.0857,-0.05248 0.18192,-0.05248 0.1137,0 0.17143,0.03848 0.0595,0.03673 0.0979,0.08221 l -0.0105,0.02974 0.0227,-0.111951 h 0.2274 v 0.764414 h -0.24489 v -0.166177 l 0.0192,0.05248 q -0.004,0 -0.021,0.02099 -0.0175,0.01924 -0.0525,0.04723 -0.0332,0.02624 -0.084,0.04548 -0.049,0.02099 -0.1172,0.02099 z m 0.07,-0.199413 q 0.0437,0 0.0787,-0.01224 0.035,-0.01399 0.0612,-0.03848 0.0262,-0.02624 0.0455,-0.06472 v -0.187167 q -0.014,-0.03848 -0.042,-0.06472 -0.028,-0.02799 -0.0665,-0.04198 -0.0385,-0.01574 -0.0857,-0.01574 -0.0525,0 -0.098,0.02799 -0.0437,0.02624 -0.07,0.07347 -0.0262,0.04723 -0.0262,0.108452 0,0.06122 0.028,0.110202 0.028,0.04898 0.0735,0.07697 0.0472,0.02799 0.10146,0.02799 z"
         style="-inkscape-font-specification:'Josefin Sans Bold';fill:#707070"
         id="path5152" />
      <path
         d="m 200.7076,-86.288457 h 0.24489 v 0.332354 h 0.18542 v 0.190666 h -0.18542 v 0.577246 h -0.24489 v -0.577246 h -0.11895 v -0.190666 h 0.11895 z"
         style="-inkscape-font-specification:'Josefin Sans Bold';fill:#707070"
         id="path5154" />
      <path
         d="m 201.64693,-85.1672 q -0.1067,0 -0.19416,-0.04198 -0.0857,-0.04373 -0.13644,-0.132941 -0.0507,-0.08921 -0.0507,-0.2274 0,-0.129443 0.0525,-0.223902 0.0525,-0.09446 0.13819,-0.145186 0.0857,-0.05248 0.18192,-0.05248 0.1137,0 0.17142,0.03848 0.0595,0.03673 0.098,0.08221 l -0.0105,0.02974 0.0227,-0.111951 h 0.2274 v 0.764414 h -0.24489 v -0.166177 l 0.0192,0.05248 q -0.004,0 -0.021,0.02099 -0.0175,0.01924 -0.0525,0.04723 -0.0332,0.02624 -0.084,0.04548 -0.049,0.02099 -0.1172,0.02099 z m 0.07,-0.199413 q 0.0437,0 0.0787,-0.01224 0.035,-0.01399 0.0612,-0.03848 0.0262,-0.02624 0.0455,-0.06472 v -0.187167 q -0.014,-0.03848 -0.042,-0.06472 -0.028,-0.02799 -0.0665,-0.04198 -0.0385,-0.01574 -0.0857,-0.01574 -0.0525,0 -0.0979,0.02799 -0.0437,0.02624 -0.07,0.07347 -0.0262,0.04723 -0.0262,0.108452 0,0.06122 0.028,0.110202 0.028,0.04898 0.0735,0.07697 0.0472,0.02799 0.10145,0.02799 z"
         style="-inkscape-font-specification:'Josefin Sans Bold';fill:#707070"
         id="path5156" />
      <path
         d="m 202.86265,-85.188191 0.58074,-1.338161 h 0.014 l 0.58074,1.338161 h -0.29387 l -0.37084,-0.941086 0.18367,-0.125945 -0.4443,1.067031 z m 0.39707,-0.465295 h 0.38658 l 0.0892,0.213406 h -0.5545 z"
         style="-inkscape-font-specification:'Josefin Sans Bold';fill:#707070"
         id="path5158" />
      <path
         d="m 204.40722,-85.952605 0.0192,0.13644 -0.004,-0.01224 q 0.0402,-0.07172 0.1137,-0.11545 0.0735,-0.04548 0.18017,-0.04548 0.10845,0 0.18017,0.06472 0.0735,0.06297 0.0752,0.164428 v 0.571998 h -0.24489 v -0.481038 q -0.002,-0.05073 -0.028,-0.08047 -0.0245,-0.03149 -0.084,-0.03149 -0.056,0 -0.098,0.03673 -0.042,0.03673 -0.0647,0.09971 -0.0227,0.06297 -0.0227,0.145186 v 0.311363 h -0.2449 v -0.764414 z"
         style="-inkscape-font-specification:'Josefin Sans Bold';fill:#707070"
         id="path5160" />
      <path
         d="m 205.54597,-85.1672 q -0.10671,0 -0.19417,-0.04198 -0.0857,-0.04373 -0.13644,-0.132941 -0.0507,-0.08921 -0.0507,-0.2274 0,-0.129443 0.0525,-0.223902 0.0525,-0.09446 0.13819,-0.145186 0.0857,-0.05248 0.18192,-0.05248 0.1137,0 0.17142,0.03848 0.0595,0.03673 0.098,0.08221 l -0.0105,0.02974 0.0227,-0.111951 h 0.2274 v 0.764414 h -0.2449 v -0.166177 l 0.0192,0.05248 q -0.003,0 -0.021,0.02099 -0.0175,0.01924 -0.0525,0.04723 -0.0332,0.02624 -0.084,0.04548 -0.049,0.02099 -0.11719,0.02099 z m 0.07,-0.199413 q 0.0437,0 0.0787,-0.01224 0.035,-0.01399 0.0612,-0.03848 0.0262,-0.02624 0.0455,-0.06472 v -0.187167 q -0.014,-0.03848 -0.042,-0.06472 -0.028,-0.02799 -0.0665,-0.04198 -0.0385,-0.01574 -0.0857,-0.01574 -0.0525,0 -0.098,0.02799 -0.0437,0.02624 -0.07,0.07347 -0.0262,0.04723 -0.0262,0.108452 0,0.06122 0.028,0.110202 0.028,0.04898 0.0735,0.07697 0.0472,0.02799 0.10145,0.02799 z"
         style="-inkscape-font-specification:'Josefin Sans Bold';fill:#707070"
         id="path5162" />
      <path
         d="m 206.29814,-86.568334 h 0.24489 v 1.380143 h -0.24489 z"
         style="-inkscape-font-specification:'Josefin Sans Bold';fill:#707070"
         id="path5164" />
      <path
         d="m 206.85614,-84.820853 0.50903,-1.131752 h 0.2204 l -0.49328,1.131752 z m 0.20466,-0.36384 -0.37434,-0.767912 h 0.27463 l 0.28863,0.645466 z"
         style="-inkscape-font-specification:'Josefin Sans Bold';fill:#707070"
         id="path5166" />
      <path
         d="m 207.80072,-86.288457 h 0.2449 v 0.332354 h 0.18542 v 0.190666 h -0.18542 v 0.577246 h -0.2449 v -0.577246 h -0.11894 v -0.190666 h 0.11894 z"
         style="-inkscape-font-specification:'Josefin Sans Bold';fill:#707070"
         id="path5168" />
      <path
         d="m 208.4182,-85.952605 h 0.24489 v 0.764414 h -0.24489 z m -0.005,-0.27113 q 0,-0.05423 0.042,-0.08921 0.0437,-0.03499 0.0927,-0.03499 0.049,0 0.0892,0.03499 0.042,0.03498 0.042,0.08921 0,0.05423 -0.042,0.08921 -0.0402,0.03324 -0.0892,0.03324 -0.049,0 -0.0927,-0.03324 -0.042,-0.03498 -0.042,-0.08921 z"
         style="-inkscape-font-specification:'Josefin Sans Bold';fill:#707070"
         id="path5170" />
      <path
         d="m 209.56395,-85.256411 q -0.0507,0.04023 -0.1277,0.06472 -0.0752,0.02449 -0.14868,0.02449 -0.13119,0 -0.22915,-0.04723 -0.0962,-0.04898 -0.15043,-0.138189 -0.0525,-0.09096 -0.0525,-0.218654 0,-0.127693 0.0577,-0.216904 0.0577,-0.09096 0.15044,-0.138189 0.0945,-0.04723 0.19766,-0.04723 0.10321,0 0.17842,0.02799 0.077,0.02799 0.13119,0.07347 l -0.11894,0.157431 q -0.0245,-0.01924 -0.0682,-0.03848 -0.042,-0.02099 -0.0997,-0.02099 -0.0507,0 -0.0927,0.02624 -0.042,0.02624 -0.0665,0.07172 -0.0245,0.04548 -0.0245,0.104953 0,0.05598 0.0262,0.103205 0.0262,0.04723 0.0717,0.07522 0.0472,0.02624 0.1102,0.02624 0.0402,0 0.0735,-0.0105 0.035,-0.01224 0.0595,-0.03323 z"
         style="-inkscape-font-specification:'Josefin Sans Bold';fill:#707070"
         id="path5172" />
      <path
         d="m 210.00126,-85.172448 q -0.0945,0 -0.17668,-0.03323 -0.0805,-0.03324 -0.13644,-0.09271 l 0.10146,-0.13469 q 0.056,0.05073 0.1032,0.07347 0.049,0.02099 0.0875,0.02099 0.0297,0 0.0525,-0.0052 0.0245,-0.007 0.0385,-0.01924 0.014,-0.01399 0.014,-0.03499 0,-0.02974 -0.0245,-0.04723 -0.0227,-0.01749 -0.0595,-0.02799 -0.0367,-0.01224 -0.0787,-0.02449 -0.10495,-0.03324 -0.15218,-0.09621 -0.0455,-0.06472 -0.0455,-0.139938 0,-0.05772 0.0297,-0.115449 0.0315,-0.05947 0.098,-0.09796 0.0682,-0.04023 0.17492,-0.04023 0.0962,0 0.16268,0.01924 0.0665,0.01924 0.12595,0.06297 l -0.0927,0.143437 q -0.0332,-0.02624 -0.0752,-0.04373 -0.0402,-0.01924 -0.0752,-0.02099 -0.0315,-0.0017 -0.0542,0.007 -0.021,0.0087 -0.0332,0.02274 -0.0122,0.01399 -0.0122,0.02974 -0.002,0.03323 0.0245,0.05248 0.028,0.01924 0.07,0.02974 0.042,0.0105 0.0822,0.02449 0.056,0.01749 0.0962,0.04723 0.0402,0.02974 0.0612,0.07172 0.0227,0.04023 0.0227,0.09796 0,0.06997 -0.0367,0.132942 -0.035,0.06122 -0.10845,0.09971 -0.0717,0.03848 -0.18367,0.03848 z"
         style="-inkscape-font-specification:'Josefin Sans Bold';fill:#707070"
         id="path5174" />
      <path
         d="m 198.48083,-83.986824 q 0,0.06122 0.0367,0.117198 0.0367,0.05598 0.0962,0.09096 0.0612,0.03499 0.13294,0.03499 0.0787,0 0.13994,-0.03499 0.0612,-0.03498 0.0962,-0.09096 0.0367,-0.05598 0.0367,-0.117198 v -0.811643 h 0.25014 v 0.816891 q 0,0.141687 -0.07,0.251889 -0.07,0.108452 -0.18892,0.171424 -0.11894,0.06122 -0.26413,0.06122 v 0 q -0.14344,0 -0.26239,-0.06122 -0.11719,-0.06297 -0.18716,-0.171424 -0.07,-0.110202 -0.07,-0.251889 v -0.816891 h 0.25364 z"
         style="-inkscape-font-specification:'Josefin Sans Bold';fill:#707070"
         id="path5176" />
      <path
         d="m 199.47089,-84.798467 h 0.32361 l 0.83963,1.287433 h -0.32711 z m -0.0175,1.287433 0.4583,-0.720682 0.11895,0.255387 -0.26239,0.465295 z m 0.59474,-0.815141 0.26588,-0.472292 h 0.30786 l -0.44255,0.690946 z"
         style="-inkscape-font-specification:'Josefin Sans Bold';fill:#707070"
         id="path5178" />
      <path
         d="m 201.41254,-83.511034 v -1.287433 h 0.38483 q 0.19416,0 0.3306,0.05773 0.13644,0.05772 0.21866,0.153932 0.084,0.09621 0.12244,0.215155 0.0385,0.118948 0.0385,0.239645 0,0.143437 -0.0525,0.258886 -0.0507,0.1137 -0.13994,0.195914 -0.0892,0.08046 -0.20641,0.124195 -0.1172,0.04198 -0.24839,0.04198 z m 0.25364,-0.244892 h 0.15043 q 0.0962,0 0.17492,-0.02449 0.0787,-0.02624 0.13469,-0.07522 0.0577,-0.04898 0.0875,-0.122446 0.0315,-0.07522 0.0315,-0.171425 0,-0.125944 -0.042,-0.204659 -0.0402,-0.08047 -0.10145,-0.124196 -0.0595,-0.04373 -0.12245,-0.05947 -0.063,-0.01749 -0.1067,-0.01749 h -0.20641 z"
         style="-inkscape-font-specification:'Josefin Sans Bold';fill:#707070"
         id="path5180" />
      <path
         d="m 203.09705,-83.490043 q -0.13994,0 -0.2379,-0.05248 -0.0962,-0.05248 -0.14693,-0.145186 -0.0507,-0.09271 -0.0507,-0.213406 0,-0.115449 0.0595,-0.208158 0.0595,-0.09271 0.15918,-0.146936 0.0997,-0.05597 0.22216,-0.05597 0.16442,0 0.26938,0.09621 0.1067,0.09446 0.13819,0.274629 l -0.59474,0.188917 -0.0542,-0.132942 0.43031,-0.145186 -0.0507,0.02274 q -0.014,-0.04548 -0.0507,-0.07872 -0.035,-0.03499 -0.10671,-0.03499 -0.0542,0 -0.0962,0.02624 -0.0402,0.02449 -0.063,0.07172 -0.021,0.04548 -0.021,0.108452 0,0.07172 0.0262,0.120697 0.0262,0.04723 0.0717,0.07172 0.0455,0.02449 0.10146,0.02449 0.0402,0 0.077,-0.01399 0.0385,-0.01399 0.0752,-0.03673 l 0.10845,0.18192 q -0.0612,0.03498 -0.13294,0.05598 -0.07,0.02099 -0.13294,0.02099 z"
         style="-inkscape-font-specification:'Josefin Sans Bold';fill:#707070"
         id="path5182" />
      <path
         d="m 203.93668,-83.49529 q -0.0945,0 -0.17668,-0.03324 -0.0805,-0.03324 -0.13644,-0.09271 l 0.10146,-0.134691 q 0.056,0.05073 0.1032,0.07347 0.049,0.02099 0.0875,0.02099 0.0297,0 0.0525,-0.0052 0.0245,-0.007 0.0385,-0.01924 0.014,-0.01399 0.014,-0.03498 0,-0.02974 -0.0245,-0.04723 -0.0227,-0.01749 -0.0595,-0.02799 -0.0367,-0.01224 -0.0787,-0.02449 -0.10495,-0.03324 -0.15218,-0.09621 -0.0455,-0.06472 -0.0455,-0.139938 0,-0.05773 0.0297,-0.11545 0.0315,-0.05947 0.0979,-0.09796 0.0682,-0.04023 0.17493,-0.04023 0.0962,0 0.16267,0.01924 0.0665,0.01924 0.12595,0.06297 l -0.0927,0.143437 q -0.0332,-0.02624 -0.0752,-0.04373 -0.0402,-0.01924 -0.0752,-0.02099 -0.0315,-0.0017 -0.0542,0.007 -0.021,0.0087 -0.0332,0.02274 -0.0122,0.01399 -0.0122,0.02974 -0.002,0.03324 0.0245,0.05248 0.028,0.01924 0.07,0.02974 0.042,0.01049 0.0822,0.02449 0.056,0.01749 0.0962,0.04723 0.0402,0.02974 0.0612,0.07172 0.0227,0.04023 0.0227,0.09796 0,0.06997 -0.0367,0.132941 -0.035,0.06122 -0.10845,0.09971 -0.0717,0.03848 -0.18367,0.03848 z"
         style="-inkscape-font-specification:'Josefin Sans Bold';fill:#707070"
         id="path5184" />
      <path
         d="m 204.47019,-84.275447 h 0.2449 v 0.764413 h -0.2449 z m -0.005,-0.271131 q 0,-0.05423 0.042,-0.08921 0.0437,-0.03498 0.0927,-0.03498 0.049,0 0.0892,0.03498 0.042,0.03498 0.042,0.08921 0,0.05423 -0.042,0.08921 -0.0402,0.03324 -0.0892,0.03324 -0.049,0 -0.0927,-0.03324 -0.042,-0.03498 -0.042,-0.08921 z"
         style="-inkscape-font-specification:'Josefin Sans Bold';fill:#707070"
         id="path5186" />
      <path
         d="m 205.3623,-83.126203 q -0.1032,0 -0.17492,-0.02449 -0.07,-0.02449 -0.11895,-0.05947 -0.049,-0.03499 -0.0875,-0.06647 l 0.14344,-0.167926 q 0.0402,0.03673 0.0927,0.06997 0.0542,0.03499 0.14169,0.03499 0.0577,0 0.10671,-0.02099 0.0507,-0.01924 0.0805,-0.05772 0.0315,-0.03848 0.0315,-0.09621 v -0.167926 l 0.009,0.04373 q -0.028,0.05947 -0.10145,0.104953 -0.0735,0.04373 -0.19242,0.04373 -0.1032,0 -0.19241,-0.05248 -0.0875,-0.05423 -0.13994,-0.145186 -0.0525,-0.09271 -0.0525,-0.209907 0,-0.120697 0.056,-0.213406 0.056,-0.09446 0.14518,-0.148685 0.0892,-0.05423 0.18892,-0.05423 0.0997,0 0.17142,0.02974 0.0735,0.02799 0.11021,0.06997 l -0.009,0.02274 0.0262,-0.08396 h 0.22565 v 0.764413 q 0,0.111951 -0.063,0.197663 -0.063,0.08746 -0.16793,0.13644 -0.1032,0.05073 -0.22915,0.05073 z m -0.20816,-0.778407 q 0,0.06122 0.028,0.110201 0.028,0.04898 0.0752,0.07697 0.049,0.02799 0.10845,0.02799 0.0507,0 0.0892,-0.01225 0.0402,-0.01399 0.07,-0.03848 0.0315,-0.02624 0.0525,-0.06472 v -0.187168 q -0.0157,-0.03848 -0.0472,-0.06472 -0.0315,-0.02799 -0.0735,-0.04198 -0.0402,-0.01574 -0.091,-0.01574 -0.0595,0 -0.10845,0.02799 -0.0472,0.02624 -0.0752,0.07347 -0.028,0.04723 -0.028,0.108453 z"
         style="-inkscape-font-specification:'Josefin Sans Bold';fill:#707070"
         id="path5188" />
      <path
         d="m 206.29639,-84.275447 0.0192,0.13644 -0.004,-0.01224 q 0.0402,-0.07172 0.1137,-0.115449 0.0735,-0.04548 0.18017,-0.04548 0.10845,0 0.18017,0.06472 0.0735,0.06297 0.0752,0.164427 v 0.571998 h -0.24489 v -0.481038 q -0.002,-0.05073 -0.028,-0.08046 -0.0245,-0.03149 -0.084,-0.03149 -0.056,0 -0.098,0.03673 -0.042,0.03673 -0.0647,0.09971 -0.0227,0.06297 -0.0227,0.145186 v 0.311363 h -0.24489 v -0.764413 z"
         style="-inkscape-font-specification:'Josefin Sans Bold';fill:#707070"
         id="path5190" />
    </g>
  </g>
</svg>
