<?xml version="1.0" encoding="UTF-8" standalone="no"?>
<!-- Created with Inkscape (http://www.inkscape.org/) -->

<svg
   width="231.24785"
   height="164.01973"
   viewBox="0 0 61.184324 43.396887"
   version="1.1"
   id="svg5"
   inkscape:version="1.2 (dc2aedaf03, 2022-05-15)"
   sodipodi:docname="Scene 5.svg.2022_08_24_03_31_35.0.svg"
   xmlns:inkscape="http://www.inkscape.org/namespaces/inkscape"
   xmlns:sodipodi="http://sodipodi.sourceforge.net/DTD/sodipodi-0.dtd"
   xmlns="http://www.w3.org/2000/svg"
   xmlns:svg="http://www.w3.org/2000/svg">
  <sodipodi:namedview
     id="namedview7"
     pagecolor="#ffffff"
     bordercolor="#666666"
     borderopacity="1.0"
     inkscape:showpageshadow="2"
     inkscape:pageopacity="0.0"
     inkscape:pagecheckerboard="0"
     inkscape:deskcolor="#d1d1d1"
     inkscape:document-units="mm"
     showgrid="true"
     inkscape:zoom="1.0129245"
     inkscape:cx="305.55091"
     inkscape:cy="298.64022"
     inkscape:window-width="1920"
     inkscape:window-height="991"
     inkscape:window-x="-9"
     inkscape:window-y="-9"
     inkscape:window-maximized="1"
     inkscape:current-layer="layer1">
    <inkscape:grid
       type="axonomgrid"
       id="grid1326"
       snapvisiblegridlinesonly="false"
       units="px"
       spacingy="2.6458333"
       originx="169.33333"
       originy="95.25" />
  </sodipodi:namedview>
  <defs
     id="defs2" />
  <g
     inkscape:label="Layer 1"
     inkscape:groupmode="layer"
     id="layer1"
     transform="translate(70.525745,-94.328087)">
    <g
       aria-label="... I henceforth 
    began my 4-month
    learning sabbatical"
       transform="skewY(-30)"
       id="text1131"
       style="font-size:5.95077px;font-family:'Carter One';-inkscape-font-specification:'Carter One';fill:#ffffff;stroke-width:0.31879">
      <path
         d="m -70.525685,85.106707 q 0.0058,-0.136566 0.0087,-0.215018 0.0029,-0.08136 0.0029,-0.124943 0.0029,-0.04358 0.0029,-0.06102 0,-0.01743 0,-0.03196 0,-0.01743 0,-0.04068 0.0029,-0.02325 0.0058,-0.07555 0.0029,-0.05521 0.0087,-0.148188 0.0058,-0.09589 0.01453,-0.252792 0.0058,-0.09589 0.01743,-0.130754 0.01453,-0.03777 0.06683,-0.04649 0.255697,0 0.534639,0 0.278943,-0.0029 0.525923,-0.0058 0.02615,0 0.04358,0.01453 0.01743,0.01453 0.01743,0.05521 l -0.08136,0.912374 q -0.01162,0.09589 -0.02325,0.130754 -0.0087,0.03777 -0.06392,0.04359 -0.24698,0.0029 -0.508489,0.0058 -0.258603,0.0029 -0.540451,0.0029 -0.01743,0 -0.02615,-0.0029 -0.0058,-0.0029 -0.0058,-0.01743 z"
         id="path2691" />
      <path
         d="m -68.860748,85.106707 q 0.0058,-0.136566 0.0087,-0.215018 0.0029,-0.08136 0.0029,-0.124943 0.0029,-0.04358 0.0029,-0.06102 0,-0.01743 0,-0.03196 0,-0.01743 0,-0.04068 0.0029,-0.02325 0.0058,-0.07555 0.0029,-0.05521 0.0087,-0.148188 0.0058,-0.09589 0.01453,-0.252792 0.0058,-0.09589 0.01743,-0.130754 0.01453,-0.03777 0.06683,-0.04649 0.255697,0 0.534639,0 0.278943,-0.0029 0.525923,-0.0058 0.02615,0 0.04358,0.01453 0.01743,0.01453 0.01743,0.05521 l -0.08136,0.912374 q -0.01162,0.09589 -0.02325,0.130754 -0.0087,0.03777 -0.06392,0.04359 -0.24698,0.0029 -0.508489,0.0058 -0.258603,0.0029 -0.540451,0.0029 -0.01743,0 -0.02615,-0.0029 -0.0058,-0.0029 -0.0058,-0.01743 z"
         id="path2693" />
      <path
         d="m -67.195811,85.106707 q 0.0058,-0.136566 0.0087,-0.215018 0.0029,-0.08136 0.0029,-0.124943 0.0029,-0.04358 0.0029,-0.06102 0,-0.01743 0,-0.03196 0,-0.01743 0,-0.04068 0.0029,-0.02325 0.0058,-0.07555 0.0029,-0.05521 0.0087,-0.148188 0.0058,-0.09589 0.01453,-0.252792 0.0058,-0.09589 0.01743,-0.130754 0.01453,-0.03777 0.06683,-0.04649 0.255697,0 0.534639,0 0.278943,-0.0029 0.525923,-0.0058 0.02615,0 0.04359,0.01453 0.01743,0.01453 0.01743,0.05521 l -0.08136,0.912374 q -0.01162,0.09589 -0.02325,0.130754 -0.0087,0.03777 -0.06392,0.04359 -0.24698,0.0029 -0.508489,0.0058 -0.258602,0.0029 -0.54045,0.0029 -0.01743,0 -0.02615,-0.0029 -0.0058,-0.0029 -0.0058,-0.01743 z"
         id="path2695" />
      <path
         d="m -64.110011,85.089273 0.145283,-1.987464 q 0.07264,-0.999544 0.107509,-1.467353 0.03487,-0.46781 0.03487,-0.464904 0.0029,-0.0523 0.0058,-0.08717 0.0029,-0.03487 0.01162,-0.05811 0.0087,-0.02325 0.02325,-0.03487 0.01453,-0.01162 0.04358,-0.01743 l 1.005355,-0.241169 q 0.03777,-0.01162 0.07845,-0.01162 0.04068,0 0.05521,0.02615 0.01453,0.02325 0.01453,0.09879 -0.02034,0.18015 -0.03196,0.337055 -0.01162,0.156906 -0.02034,0.299282 -0.0058,0.142377 -0.01162,0.276037 -0.0058,0.130754 -0.01453,0.261509 -0.01743,0.142376 -0.03196,0.284753 -0.01162,0.142377 -0.02325,0.296376 -0.01162,0.151094 -0.02615,0.322527 -0.01162,0.168528 -0.02906,0.369018 l -0.127849,1.531277 q -0.0029,0.02615 -0.01162,0.0523 -0.0058,0.02324 -0.03777,0.03777 -0.0029,0 -0.03487,0.01162 -0.03196,0.01162 -0.08426,0.03196 -0.0523,0.01743 -0.122038,0.03777 -0.06974,0.02034 -0.148188,0.03777 -0.130754,0.02906 -0.229546,0.05811 -0.09589,0.02906 -0.171433,0.0523 -0.07555,0.02615 -0.139471,0.04068 -0.06392,0.01453 -0.127849,0.01453 -0.04358,0 -0.07264,-0.02325 -0.02906,-0.02325 -0.02906,-0.08426 z"
         id="path2697" />
      <path
         d="m -60.614515,80.771478 q 0,-0.01743 -0.0029,-0.03196 0,-0.01453 0,-0.02906 0,-0.02615 0.02034,-0.04358 0.02034,-0.02034 0.09879,-0.04068 l 0.816488,-0.194678 q 0.03196,-0.0058 0.08426,-0.02615 0.0523,-0.02034 0.101698,-0.02034 0.101697,0 0.101697,0.09298 0,0.0058 -0.0087,0.119132 -0.0087,0.11332 -0.02325,0.281848 -0.01453,0.168528 -0.03196,0.369017 -0.01743,0.197585 -0.03487,0.377735 -0.01743,0.18015 -0.03196,0.316716 -0.01453,0.13366 -0.02325,0.174339 0.136565,-0.07555 0.284753,-0.142377 0.148189,-0.06683 0.296377,-0.116226 0.151093,-0.0494 0.299282,-0.07555 0.151093,-0.02906 0.290565,-0.02906 0.177244,0 0.331244,0.0523 0.153999,0.0494 0.267319,0.168528 0.116226,0.116226 0.180151,0.307999 0.06683,0.188867 0.06683,0.464904 0,0.06973 -0.0029,0.145282 -0.0029,0.07264 -0.01162,0.151094 l -0.124943,1.18841 q -0.01453,0.122038 -0.01743,0.255697 -0.0029,0.130755 -0.0029,0.270226 0,0.02325 0,0.04068 0.0029,0.01453 0.0029,0.02615 0,0.02615 -0.02324,0.04068 -0.02034,0.01453 -0.09589,0.03777 l -0.711884,0.197584 q -0.03196,0.0087 -0.08426,0.02615 -0.0523,0.02034 -0.101698,0.02034 -0.0494,0 -0.07555,-0.02325 -0.02615,-0.02034 -0.02615,-0.08426 0.02034,-0.217924 0.03196,-0.351584 0.01453,-0.13366 0.02034,-0.212112 0.0087,-0.08136 0.01453,-0.122037 0.0058,-0.04359 0.0087,-0.07555 0.0029,-0.03487 0.0087,-0.07555 0.0058,-0.04359 0.01162,-0.124943 0.0087,-0.08136 0.02034,-0.215018 0.01453,-0.13366 0.03487,-0.351584 0.01162,-0.116226 0.02324,-0.229546 0.01453,-0.116226 0.01453,-0.212112 0,-0.122038 -0.01453,-0.22083 -0.01162,-0.101697 -0.04649,-0.171433 -0.03196,-0.07264 -0.09007,-0.11332 -0.05811,-0.04068 -0.148188,-0.04068 -0.06683,0 -0.183056,0.02906 -0.113321,0.02906 -0.229546,0.09589 -0.113321,0.06683 -0.203396,0.177245 -0.08717,0.107509 -0.09879,0.26732 -0.02325,0.223735 -0.03777,0.366112 -0.01162,0.142376 -0.02034,0.235357 -0.0087,0.09298 -0.01453,0.148188 -0.0029,0.05521 -0.0058,0.101698 -0.0029,0.01453 -0.0087,0.07264 -0.0058,0.05521 -0.01453,0.13366 -0.0087,0.07845 -0.01743,0.168528 -0.0087,0.08717 -0.01743,0.165622 -0.0058,0.07845 -0.01162,0.136565 -0.0029,0.05521 -0.0029,0.06974 0,0.02325 0,0.04068 0.0029,0.01453 0.0029,0.02906 0,0.02325 -0.02324,0.04068 -0.02034,0.01453 -0.09589,0.03487 l -0.758374,0.264414 q -0.03196,0.01162 -0.08426,0.02906 -0.0523,0.01743 -0.101698,0.01743 -0.04358,0 -0.07264,-0.02615 -0.02906,-0.02325 -0.02906,-0.08136 z"
         id="path2699" />
      <path
         d="m -55.355289,81.753587 q 0.276037,0 0.499772,0.104604 0.22664,0.101698 0.386451,0.26732 0.162717,0.162716 0.249886,0.366111 0.08717,0.203396 0.08717,0.406791 0,0.180151 -0.110415,0.363206 -0.110415,0.180151 -0.310905,0.325433 -0.197584,0.145283 -0.476526,0.235358 -0.278942,0.09007 -0.613092,0.09007 -0.174339,0 -0.366112,-0.03487 0.01162,0.124943 0.07264,0.215018 0.06102,0.09007 0.154,0.148188 0.09298,0.05811 0.209206,0.08717 0.119132,0.02615 0.244075,0.02615 0.139471,0 0.26732,-0.02325 0.130754,-0.02615 0.249886,-0.06683 0.119131,-0.04068 0.229546,-0.09007 0.110415,-0.0494 0.209207,-0.09879 0.02615,-0.0058 0.04358,-0.0087 0.02034,-0.0058 0.03777,-0.0058 0,0 -0.0029,0.04649 0,0.04649 0,0.130755 0,0.08426 -0.0029,0.203395 0,0.119132 -0.0029,0.264414 0.0087,0.01453 0.01162,0.02906 0.0029,0.01453 0.0029,0.02324 0,0.03487 -0.06392,0.07555 -0.06392,0.04068 -0.168528,0.08426 -0.101698,0.04358 -0.235357,0.08426 -0.130755,0.04068 -0.26732,0.07264 -0.136566,0.03487 -0.264414,0.0523 -0.127849,0.02034 -0.223735,0.02034 -0.31381,0 -0.610187,-0.110415 -0.29347,-0.107509 -0.523017,-0.310904 -0.22664,-0.203396 -0.363206,-0.493961 -0.136565,-0.290565 -0.136565,-0.653771 0,-0.38064 0.130754,-0.711884 0.130754,-0.33415 0.366112,-0.58113 0.238263,-0.24698 0.566601,-0.389357 0.328339,-0.142377 0.723507,-0.142377 z m -0.03487,0.772903 q -0.119131,0 -0.220829,0.0523 -0.09879,0.0494 -0.183056,0.145282 -0.08136,0.09298 -0.142377,0.226641 -0.06102,0.130754 -0.09879,0.290565 0.299282,-0.0523 0.496866,-0.110415 0.197584,-0.05811 0.316716,-0.116226 0.119132,-0.06102 0.168528,-0.119131 0.0494,-0.06102 0.0494,-0.116226 0,-0.0523 -0.04068,-0.09879 -0.03777,-0.04649 -0.09589,-0.08136 -0.05811,-0.03487 -0.127848,-0.0523 -0.06683,-0.02034 -0.122038,-0.02034 z"
         id="path2701" />
      <path
         d="m -51.357116,85.100895 q -0.03196,0.0087 -0.08426,0.02615 -0.0523,0.02034 -0.101698,0.02034 -0.04068,0 -0.07264,-0.02034 -0.02906,-0.02034 -0.02906,-0.06974 v -0.01743 q 0.01743,-0.156905 0.02906,-0.264414 0.01162,-0.110415 0.02034,-0.197584 0.01162,-0.09008 0.01743,-0.177245 0.0087,-0.09007 0.02034,-0.206301 0.01162,-0.119132 0.02615,-0.278942 0.01743,-0.162717 0.04068,-0.403886 0.01453,-0.148188 0.02615,-0.302187 0.01162,-0.154 0.01162,-0.284754 0,-0.08717 -0.01453,-0.159811 -0.01162,-0.07555 -0.04649,-0.127848 -0.03196,-0.05521 -0.09007,-0.08426 -0.05811,-0.02906 -0.148189,-0.02906 -0.06683,0 -0.185961,0.02906 -0.116226,0.02906 -0.232452,0.09589 -0.116226,0.06683 -0.206301,0.177245 -0.09007,0.107509 -0.101698,0.26732 -0.01743,0.215018 -0.03196,0.369017 -0.01453,0.151094 -0.02615,0.258603 -0.01162,0.104603 -0.02034,0.171433 -0.0058,0.06683 -0.0087,0.113321 -0.0029,0.01162 -0.0087,0.06392 -0.0058,0.0523 -0.01453,0.124943 -0.0058,0.07264 -0.01453,0.153999 -0.0058,0.08136 -0.01453,0.154 -0.0058,0.07264 -0.01162,0.124943 -0.0029,0.0523 -0.0029,0.06392 0,0.02325 0,0.04068 0.0029,0.01453 0.0029,0.02906 0,0.02325 -0.02325,0.04068 -0.02034,0.01453 -0.09589,0.03487 l -0.769997,0.264414 q -0.03196,0.01162 -0.08426,0.02906 -0.0523,0.01743 -0.101698,0.01743 -0.04068,0 -0.07264,-0.02034 -0.02906,-0.02034 -0.02906,-0.06974 l 0.264414,-2.969574 q 0.0087,-0.09589 0.02034,-0.130754 0.01453,-0.03777 0.06683,-0.0494 0.264414,-0.0523 0.543356,-0.104604 0.278943,-0.05521 0.543357,-0.139471 0.02325,0 0.02615,0.0087 0.0058,0.0058 0.0058,0.02034 0,0.0058 -0.0029,0.01743 0,0.01162 -0.0087,0.0523 -0.0058,0.04068 -0.02034,0.124943 -0.01162,0.08136 -0.03487,0.229547 0.20049,-0.116226 0.374829,-0.185962 0.177244,-0.07264 0.331244,-0.110415 0.156905,-0.04068 0.29347,-0.0523 0.136566,-0.01453 0.255698,-0.01453 0.409696,0 0.595658,0.249886 0.185961,0.24698 0.185961,0.743847 0,0.06973 -0.0029,0.145282 -0.0029,0.07264 -0.01162,0.151094 l -0.13366,1.249429 q -0.01453,0.122037 -0.01743,0.226641 -0.0029,0.101697 -0.0029,0.238263 0,0.02325 0,0.04068 0.0029,0.01453 0.0029,0.02615 0,0.02615 -0.02325,0.04068 -0.02034,0.01453 -0.09589,0.03777 z"
         id="path2703" />
      <path
         d="m -49.98565,83.578335 q 0,-0.38064 0.139472,-0.711884 0.142376,-0.33415 0.389357,-0.58113 0.249885,-0.24698 0.586941,-0.389357 0.339961,-0.142377 0.738035,-0.142377 0.270225,0 0.461998,0.04359 0.191773,0.04358 0.31381,0.09879 0.122037,0.0523 0.177245,0.09879 0.05811,0.04359 0.05811,0.04649 0,0.01743 -0.01453,0.09879 -0.01162,0.07845 -0.02906,0.185961 -0.01453,0.104604 -0.02906,0.217924 -0.01162,0.110415 -0.01162,0.191773 0,0.01453 -0.0087,0.03196 -0.0087,0.01743 -0.04649,0.01743 -0.03487,0 -0.101697,-0.02325 -0.06683,-0.02615 -0.165622,-0.05521 -0.09589,-0.02906 -0.223735,-0.0523 -0.124943,-0.02615 -0.278943,-0.02615 -0.191772,0 -0.345772,0.06974 -0.153999,0.06683 -0.264414,0.188868 -0.110415,0.119131 -0.171433,0.284753 -0.05811,0.165622 -0.05811,0.357395 0,0.20049 0.06102,0.342867 0.06392,0.139471 0.168528,0.229546 0.104603,0.08717 0.241169,0.127849 0.136565,0.04068 0.287659,0.04068 0.174339,0 0.351584,-0.04649 0.177244,-0.0494 0.334149,-0.136565 0.0058,-0.0029 0.02325,-0.0029 0.01453,0 0.02034,0.01453 0.0087,0.01453 0.0087,0.05521 0,0.09298 0,0.22664 0,0.130755 -0.0029,0.252792 0,0.119132 -0.0029,0.203395 -0.0029,0.08426 -0.0058,0.08426 -0.104604,0.06974 -0.226641,0.113321 -0.122037,0.04358 -0.252792,0.06974 -0.127848,0.02615 -0.258602,0.03487 -0.130755,0.0087 -0.252792,0.0087 -0.339961,0 -0.633431,-0.11332 -0.293471,-0.113321 -0.511395,-0.319622 -0.215018,-0.206301 -0.339961,-0.49396 -0.124943,-0.290565 -0.124943,-0.642149 z"
         id="path2705" />
      <path
         d="m -45.173894,81.753587 q 0.276036,0 0.499771,0.104604 0.226641,0.101698 0.386452,0.26732 0.162716,0.162716 0.249886,0.366111 0.08717,0.203396 0.08717,0.406791 0,0.180151 -0.110415,0.363206 -0.110414,0.180151 -0.310904,0.325433 -0.197584,0.145283 -0.476527,0.235358 -0.278942,0.09007 -0.613092,0.09007 -0.174339,0 -0.366111,-0.03487 0.01162,0.124943 0.07264,0.215018 0.06102,0.09007 0.153999,0.148188 0.09298,0.05811 0.209207,0.08717 0.119132,0.02615 0.244075,0.02615 0.139471,0 0.267319,-0.02325 0.130755,-0.02615 0.249886,-0.06683 0.119132,-0.04068 0.229546,-0.09007 0.110415,-0.0494 0.209207,-0.09879 0.02615,-0.0058 0.04359,-0.0087 0.02034,-0.0058 0.03777,-0.0058 0,0 -0.0029,0.04649 0,0.04649 0,0.130755 0,0.08426 -0.0029,0.203395 0,0.119132 -0.0029,0.264414 0.0087,0.01453 0.01162,0.02906 0.0029,0.01453 0.0029,0.02324 0,0.03487 -0.06392,0.07555 -0.06392,0.04068 -0.168527,0.08426 -0.101698,0.04358 -0.235358,0.08426 -0.130754,0.04068 -0.26732,0.07264 -0.136565,0.03487 -0.264414,0.0523 -0.127848,0.02034 -0.223735,0.02034 -0.31381,0 -0.610186,-0.110415 -0.293471,-0.107509 -0.523017,-0.310904 -0.226641,-0.203396 -0.363206,-0.493961 -0.136566,-0.290565 -0.136566,-0.653771 0,-0.38064 0.130755,-0.711884 0.130754,-0.33415 0.366111,-0.58113 0.238264,-0.24698 0.566602,-0.389357 0.328338,-0.142377 0.723507,-0.142377 z m -0.03487,0.772903 q -0.119132,0 -0.220829,0.0523 -0.09879,0.0494 -0.183056,0.145282 -0.08136,0.09298 -0.142377,0.226641 -0.06102,0.130754 -0.09879,0.290565 0.299282,-0.0523 0.496866,-0.110415 0.197584,-0.05811 0.316716,-0.116226 0.119131,-0.06102 0.168527,-0.119131 0.0494,-0.06102 0.0494,-0.116226 0,-0.0523 -0.04068,-0.09879 -0.03777,-0.04649 -0.09589,-0.08136 -0.05811,-0.03487 -0.127849,-0.0523 -0.06683,-0.02034 -0.122038,-0.02034 z"
         id="path2707" />
      <path
         d="m -43.261976,85.039877 q 0.0029,-0.03196 0.01162,-0.136566 0.01162,-0.107509 0.02615,-0.270225 0.01453,-0.162716 0.03196,-0.371923 0.02034,-0.212113 0.04358,-0.453281 0.02325,-0.244075 0.04649,-0.508489 0.02615,-0.264414 0.0523,-0.53464 h -0.386451 q -0.156905,0 -0.226641,-0.01162 -0.06974,-0.01453 -0.06974,-0.05521 0,-0.01162 0.02906,-0.06102 0.02906,-0.0523 0.07264,-0.122037 0.04649,-0.07264 0.09879,-0.154 0.0523,-0.08136 0.09879,-0.151094 0.0494,-0.07264 0.08426,-0.124943 0.03487,-0.0523 0.04358,-0.06392 h 0.354489 l 0.05811,-0.461998 q 0.04068,-0.366112 0.145283,-0.615998 0.107509,-0.249886 0.264414,-0.403885 0.159811,-0.153999 0.363206,-0.220829 0.203396,-0.06683 0.435848,-0.06683 0.232452,0 0.482337,0.05811 0.252792,0.05521 0.508489,0.153999 0.05521,0.02324 0.08136,0.04068 0.02906,0.01453 0.02906,0.04068 0,0.02325 -0.02034,0.06102 -0.09298,0.18015 -0.139471,0.290565 -0.04359,0.110415 -0.06974,0.174339 -0.02615,0.06392 -0.04358,0.08717 -0.01743,0.02034 -0.0523,0.02034 -0.01743,0 -0.03777,-0.0087 -0.01743,-0.0087 -0.04359,-0.02034 -0.101698,-0.03777 -0.206301,-0.06683 -0.101698,-0.03196 -0.194679,-0.03196 -0.130754,0 -0.22664,0.08136 -0.09298,0.08136 -0.148189,0.307999 -0.03196,0.130755 -0.0523,0.281848 -0.02034,0.151094 -0.03487,0.299282 h 0.758374 q 0.02325,0 0.04359,0.01743 0.02324,0.01453 0.02324,0.0523 0,0.01453 -0.03487,0.104603 -0.03487,0.09007 -0.09879,0.235358 l -0.104603,0.235357 q -0.02034,0.04359 -0.04359,0.06392 -0.02034,0.02034 -0.08717,0.02615 h -0.502677 q -0.03196,0.302188 -0.06102,0.598564 -0.02906,0.296376 -0.05521,0.557885 -0.02615,0.258603 -0.04649,0.461998 -0.02034,0.20049 -0.03196,0.310905 -0.0029,0.0087 -0.0029,0.03196 0,0.01162 0,0.02034 0.0029,0.0087 0.0029,0.01453 0,0.02615 -0.02034,0.04358 -0.01743,0.01453 -0.09589,0.03487 l -0.764186,0.270225 q -0.03196,0.01162 -0.08426,0.02906 -0.0523,0.01743 -0.101697,0.01743 -0.0494,0 -0.07555,-0.02325 -0.02615,-0.02325 -0.02615,-0.08426 z"
         id="path2709" />
      <path
         d="m -39.406179,85.147386 q -0.409697,0 -0.720601,-0.13366 -0.307999,-0.13366 -0.517206,-0.354489 -0.209207,-0.223735 -0.31381,-0.511395 -0.104603,-0.290564 -0.104603,-0.601469 0,-0.310904 0.101697,-0.589847 0.101698,-0.281848 0.284754,-0.502677 0.183056,-0.223735 0.438753,-0.371923 0.255697,-0.151094 0.563696,-0.203396 0.04649,-0.0029 0.04649,-0.02034 0,-0.03196 -0.0087,-0.05811 -0.0058,-0.02906 -0.0058,-0.0494 0,-0.03196 0.01162,-0.04358 0.01162,-0.01162 0.02615,-0.01162 0.554979,0 0.944336,0.127849 0.389357,0.124943 0.633431,0.342867 0.244075,0.217923 0.354489,0.5143 0.110415,0.296376 0.110415,0.636337 0,0.432942 -0.145282,0.772903 -0.145283,0.33996 -0.398074,0.575318 -0.249886,0.235358 -0.586942,0.357395 -0.334149,0.124943 -0.714789,0.124943 z m -0.537545,-1.632975 q 0,0.156905 0.03196,0.310904 0.03487,0.154 0.110414,0.278943 0.07845,0.124943 0.203396,0.203395 0.124943,0.07555 0.310904,0.07555 0.13366,-0.0058 0.232452,-0.05811 0.101698,-0.05521 0.174339,-0.139471 0.07264,-0.08717 0.119132,-0.194679 0.0494,-0.107509 0.07555,-0.220829 0.02906,-0.116226 0.04068,-0.226641 0.01162,-0.110414 0.01162,-0.200489 0,-0.151094 -0.04649,-0.296377 -0.04359,-0.145282 -0.130754,-0.255697 -0.08717,-0.110414 -0.217924,-0.177244 -0.127848,-0.06974 -0.296376,-0.06974 -0.174339,0 -0.293471,0.104603 -0.119131,0.101698 -0.191773,0.252792 -0.06974,0.151094 -0.101697,0.319621 -0.03196,0.165622 -0.03196,0.293471 z"
         id="path2711" />
      <path
         d="m -34.812347,82.631094 q -0.06102,-0.0058 -0.136565,-0.01162 -0.07555,-0.0087 -0.159811,-0.0087 -0.127848,0 -0.261508,0.02325 -0.130754,0.02034 -0.244075,0.08426 -0.11332,0.06392 -0.194678,0.177245 -0.08136,0.110414 -0.104604,0.287659 -0.02034,0.215018 -0.03487,0.354489 -0.01162,0.136566 -0.01743,0.226641 -0.0058,0.08717 -0.01162,0.142377 -0.0029,0.0523 -0.0058,0.09879 0,0.01162 -0.0058,0.06392 -0.0029,0.0523 -0.01162,0.122037 -0.0087,0.06974 -0.01743,0.151094 -0.0058,0.08136 -0.01453,0.151094 -0.0087,0.06973 -0.01453,0.122037 -0.0029,0.0523 -0.0029,0.06392 0,0.02325 0,0.04068 0.0029,0.01453 0.0029,0.02906 0,0.02325 -0.02325,0.04068 -0.02034,0.01453 -0.09589,0.03487 l -0.769997,0.276036 q -0.03196,0.01162 -0.08426,0.02906 -0.0523,0.01743 -0.101698,0.01743 -0.04068,0 -0.07264,-0.02034 -0.02906,-0.02034 -0.02906,-0.06974 l 0.249885,-2.879499 q 0.0087,-0.09589 0.02034,-0.130754 0.01453,-0.03777 0.06683,-0.0494 0.264414,-0.0523 0.546262,-0.104603 0.281848,-0.05521 0.546262,-0.139472 0.02324,0 0.02615,0.0087 0.0058,0.0058 0.0058,0.02034 0,0.0058 -0.0029,0.01743 0,0.01162 -0.0087,0.0523 -0.0058,0.04068 -0.02034,0.124942 -0.01162,0.08136 -0.03487,0.229547 0.13366,-0.104604 0.293471,-0.191773 0.162716,-0.08717 0.325433,-0.148188 0.162716,-0.06392 0.31381,-0.09879 0.151093,-0.03777 0.264414,-0.03777 z"
         id="path2713" />
      <path
         d="m -32.996318,82.756036 q -0.04068,0.305094 -0.07845,0.610187 -0.03487,0.302187 -0.04359,0.566601 0,0.113321 0.01743,0.188868 0.01743,0.07555 0.0494,0.119131 0.03487,0.04358 0.08136,0.06392 0.04649,0.01743 0.104604,0.01743 0.09298,0 0.203395,-0.02615 0.110415,-0.02906 0.22083,-0.07264 0.03487,-0.01453 0.05811,-0.02034 0.02615,-0.0087 0.04358,-0.0087 0.02906,0 0.03777,0.02615 0.01162,0.02615 0.02034,0.09298 0.01162,0.06392 0.03196,0.174338 0.02034,0.110415 0.06683,0.278943 0.0029,0.01453 0.0029,0.02615 0.0029,0.0087 0.0029,0.01743 0,0.04068 -0.03196,0.05811 -0.02906,0.01743 -0.09879,0.04068 -0.119131,0.04068 -0.252791,0.08426 -0.130754,0.04068 -0.261509,0.07555 -0.127848,0.03487 -0.24698,0.05521 -0.119131,0.02325 -0.209206,0.02325 -0.485244,0 -0.708979,-0.241169 -0.220829,-0.241169 -0.220829,-0.735129 0,-0.08426 0.0058,-0.171434 0.0058,-0.09008 0.01453,-0.185961 0.02906,-0.290565 0.0494,-0.549168 0.02325,-0.261508 0.04649,-0.499772 h -0.305094 q -0.156905,0 -0.22664,-0.01162 -0.06974,-0.01453 -0.06974,-0.05521 0,-0.01162 0.02906,-0.06102 0.02906,-0.0523 0.07264,-0.122037 0.04649,-0.07264 0.09879,-0.154 0.0523,-0.08136 0.09879,-0.151094 0.0494,-0.07264 0.08426,-0.124943 0.03487,-0.0523 0.04359,-0.06392 h 0.206301 q 0.02615,-0.220829 0.04068,-0.369017 0.01743,-0.151094 0.02615,-0.249886 0.01162,-0.09879 0.02034,-0.151094 0.0087,-0.05521 0.01743,-0.08136 0.01162,-0.02615 0.02615,-0.03196 0.01743,-0.0087 0.04359,-0.01453 0.130754,-0.02615 0.252791,-0.04649 0.122038,-0.02325 0.244075,-0.04649 0.122037,-0.02324 0.24698,-0.0523 0.127849,-0.03196 0.264414,-0.07264 0.0087,0 0.01162,0 0.0029,-0.0029 0.01162,-0.0029 0.03487,0 0.03487,0.02325 v 0.0058 q -0.01453,0.15981 -0.04649,0.444564 -0.02906,0.284754 -0.06683,0.645054 h 0.778714 q 0.02324,0 0.04359,0.01743 0.02324,0.01453 0.02324,0.0523 0,0.01453 -0.03487,0.104603 -0.03487,0.09007 -0.09879,0.235358 l -0.104604,0.235357 q -0.02034,0.04359 -0.04358,0.06392 -0.02034,0.02034 -0.08717,0.02615 z"
         id="path2715" />
      <path
         d="m -31.51734,80.771478 q 0,-0.01743 -0.0029,-0.03196 0,-0.01453 0,-0.02906 0,-0.02615 0.02034,-0.04358 0.02034,-0.02034 0.09879,-0.04068 l 0.816488,-0.194678 q 0.03196,-0.0058 0.08426,-0.02615 0.0523,-0.02034 0.101698,-0.02034 0.101698,0 0.101698,0.09298 0,0.0058 -0.0087,0.119132 -0.0087,0.11332 -0.02324,0.281848 -0.01453,0.168528 -0.03196,0.369017 -0.01743,0.197585 -0.03487,0.377735 -0.01743,0.18015 -0.03196,0.316716 -0.01453,0.13366 -0.02325,0.174339 0.136566,-0.07555 0.284754,-0.142377 0.148188,-0.06683 0.296376,-0.116226 0.151094,-0.0494 0.299282,-0.07555 0.151094,-0.02906 0.290565,-0.02906 0.177245,0 0.331244,0.0523 0.154,0.0494 0.26732,0.168528 0.116226,0.116226 0.18015,0.307999 0.06683,0.188867 0.06683,0.464904 0,0.06973 -0.0029,0.145282 -0.0029,0.07264 -0.01162,0.151094 l -0.124943,1.18841 q -0.01453,0.122038 -0.01743,0.255697 -0.0029,0.130755 -0.0029,0.270226 0,0.02325 0,0.04068 0.0029,0.01453 0.0029,0.02615 0,0.02615 -0.02324,0.04068 -0.02034,0.01453 -0.09589,0.03777 l -0.711884,0.197584 q -0.03196,0.0087 -0.08426,0.02615 -0.0523,0.02034 -0.101698,0.02034 -0.0494,0 -0.07555,-0.02325 -0.02615,-0.02034 -0.02615,-0.08426 0.02034,-0.217924 0.03196,-0.351584 0.01453,-0.13366 0.02034,-0.212112 0.0087,-0.08136 0.01453,-0.122037 0.0058,-0.04359 0.0087,-0.07555 0.0029,-0.03487 0.0087,-0.07555 0.0058,-0.04359 0.01162,-0.124943 0.0087,-0.08136 0.02034,-0.215018 0.01453,-0.13366 0.03487,-0.351584 0.01162,-0.116226 0.02324,-0.229546 0.01453,-0.116226 0.01453,-0.212112 0,-0.122038 -0.01453,-0.22083 -0.01162,-0.101697 -0.04649,-0.171433 -0.03196,-0.07264 -0.09008,-0.11332 -0.05811,-0.04068 -0.148188,-0.04068 -0.06683,0 -0.183056,0.02906 -0.11332,0.02906 -0.229546,0.09589 -0.11332,0.06683 -0.203395,0.177245 -0.08717,0.107509 -0.09879,0.26732 -0.02325,0.223735 -0.03777,0.366112 -0.01162,0.142376 -0.02034,0.235357 -0.0087,0.09298 -0.01453,0.148188 -0.0029,0.05521 -0.0058,0.101698 -0.0029,0.01453 -0.0087,0.07264 -0.0058,0.05521 -0.01453,0.13366 -0.0087,0.07845 -0.01743,0.168528 -0.0087,0.08717 -0.01743,0.165622 -0.0058,0.07845 -0.01162,0.136565 -0.0029,0.05521 -0.0029,0.06974 0,0.02325 0,0.04068 0.0029,0.01453 0.0029,0.02906 0,0.02325 -0.02325,0.04068 -0.02034,0.01453 -0.09589,0.03487 l -0.758375,0.264414 q -0.03196,0.01162 -0.08426,0.02906 -0.0523,0.01743 -0.101698,0.01743 -0.04359,0 -0.07264,-0.02615 -0.02906,-0.02325 -0.02906,-0.08136 z"
         id="path2717" />
      <path
         d="m -64.098388,91.487513 q 0.02906,0.05811 0.08136,0.119131 0.05521,0.05811 0.124943,0.107509 0.07264,0.0494 0.156905,0.08136 0.08426,0.02906 0.174339,0.02906 0.124943,0 0.235357,-0.09589 0.110415,-0.09879 0.191773,-0.261509 0.08426,-0.165622 0.130755,-0.374829 0.04649,-0.212112 0.04649,-0.438753 0,-0.139471 -0.02615,-0.264414 -0.02325,-0.124943 -0.07555,-0.217923 -0.0523,-0.09298 -0.136565,-0.148188 -0.08136,-0.05521 -0.197584,-0.05521 -0.188868,0 -0.345773,0.110415 -0.156905,0.110415 -0.264414,0.281848 z m -1.080902,1.089618 q -0.04068,0.0087 -0.06392,0.0087 -0.09298,0 -0.09298,-0.110414 0,-0.01453 0,-0.02906 0.0029,-0.01453 0.0058,-0.03196 l 0.337056,-4.111494 q 0,-0.0087 0,-0.01743 0.0029,-0.0087 0.0029,-0.01453 0,-0.01162 -0.0029,-0.02034 0,-0.0087 0,-0.01453 0,-0.02615 0.01743,-0.04068 0.02034,-0.01743 0.09879,-0.03777 l 0.816487,-0.194679 q 0.03196,-0.0058 0.08426,-0.02615 0.0523,-0.02034 0.101698,-0.02034 0.03777,0 0.06974,0.01743 0.03487,0.01743 0.03487,0.06683 0,0.0058 -0.0029,0.01162 0,0.0058 0,0.01162 -0.0029,0.01453 -0.01453,0.127848 -0.01162,0.113321 -0.02615,0.276037 -0.01453,0.159811 -0.03196,0.345772 -0.01743,0.183056 -0.03196,0.345773 -0.01453,0.15981 -0.02615,0.273131 -0.01162,0.11332 -0.01453,0.127848 0.212112,-0.139471 0.438753,-0.232452 0.226641,-0.09589 0.453281,-0.09589 0.299282,0 0.517206,0.124943 0.217924,0.122037 0.3603,0.328338 0.142377,0.203396 0.209207,0.470715 0.06974,0.26732 0.06974,0.552074 0,0.229546 -0.04359,0.461998 -0.04068,0.229546 -0.122037,0.441659 -0.07845,0.212112 -0.20049,0.398074 -0.119132,0.185961 -0.276037,0.322527 -0.153999,0.136565 -0.345772,0.215018 -0.191773,0.07845 -0.415508,0.07845 -0.270225,0 -0.49396,-0.119131 -0.223735,-0.119132 -0.415508,-0.307999 -0.0058,0.06974 -0.0087,0.110414 -0.0029,0.04068 -0.02034,0.06392 -0.01453,0.02034 -0.04649,0.03487 -0.03196,0.01162 -0.09589,0.02615 -0.03196,0.0087 -0.113321,0.02906 -0.07845,0.01743 -0.191773,0.04068 -0.110414,0.02615 -0.24698,0.05521 -0.13366,0.02906 -0.273131,0.05811 z"
         id="path2719" />
      <path
         d="m -59.760253,89.19205 q 0.276036,0 0.499771,0.104603 0.226641,0.101698 0.386452,0.26732 0.162716,0.162716 0.249886,0.366112 0.08717,0.203395 0.08717,0.406791 0,0.18015 -0.110415,0.363206 -0.110414,0.18015 -0.310904,0.325433 -0.197584,0.145282 -0.476527,0.235357 -0.278942,0.09007 -0.613092,0.09007 -0.174339,0 -0.366111,-0.03487 0.01162,0.124943 0.07264,0.215019 0.06102,0.09007 0.153999,0.148188 0.09298,0.05811 0.209207,0.08717 0.119132,0.02615 0.244075,0.02615 0.139471,0 0.267319,-0.02325 0.130755,-0.02615 0.249886,-0.06683 0.119132,-0.04068 0.229546,-0.09007 0.110415,-0.0494 0.209207,-0.09879 0.02615,-0.0058 0.04359,-0.0087 0.02034,-0.0058 0.03777,-0.0058 0,0 -0.0029,0.04649 0,0.04649 0,0.130754 0,0.08426 -0.0029,0.203395 0,0.119132 -0.0029,0.264415 0.0087,0.01453 0.01162,0.02906 0.0029,0.01453 0.0029,0.02324 0,0.03487 -0.06393,0.07555 -0.06392,0.04068 -0.168527,0.08426 -0.101698,0.04359 -0.235358,0.08426 -0.130754,0.04068 -0.26732,0.07264 -0.136565,0.03487 -0.264414,0.0523 -0.127848,0.02034 -0.223735,0.02034 -0.31381,0 -0.610186,-0.110414 -0.293471,-0.107509 -0.523017,-0.310905 -0.226641,-0.203395 -0.363206,-0.49396 -0.136566,-0.290565 -0.136566,-0.653771 0,-0.38064 0.130755,-0.711884 0.130754,-0.33415 0.366111,-0.58113 0.238264,-0.246981 0.566602,-0.389357 0.328338,-0.142377 0.723507,-0.142377 z m -0.03487,0.772903 q -0.119132,0 -0.220829,0.0523 -0.09879,0.0494 -0.183056,0.145283 -0.08136,0.09298 -0.142377,0.22664 -0.06102,0.130755 -0.09879,0.290565 0.299282,-0.0523 0.496866,-0.110414 0.197584,-0.05811 0.316716,-0.116226 0.119131,-0.06102 0.168527,-0.119132 0.0494,-0.06102 0.0494,-0.116226 0,-0.0523 -0.04068,-0.09879 -0.03777,-0.04649 -0.09589,-0.08136 -0.05811,-0.03487 -0.127849,-0.0523 -0.06683,-0.02034 -0.122038,-0.02034 z"
         id="path2721" />
      <path
         d="m -56.055551,90.363026 q -0.02906,-0.06683 -0.08136,-0.136565 -0.0494,-0.06974 -0.116226,-0.127849 -0.06683,-0.05811 -0.145283,-0.09298 -0.07845,-0.03777 -0.165622,-0.03777 -0.119132,0 -0.223735,0.09879 -0.104603,0.09879 -0.183056,0.264414 -0.07845,0.162717 -0.124943,0.374829 -0.04358,0.209207 -0.04358,0.435848 0,0.139471 0.02325,0.264414 0.02615,0.122037 0.07845,0.215018 0.0523,0.09298 0.13366,0.148188 0.08426,0.05521 0.20049,0.05521 0.174339,0 0.319621,-0.107509 0.145283,-0.110415 0.246981,-0.284754 0.0029,-0.06102 0.0087,-0.145282 0.0058,-0.08426 0.01453,-0.203395 0.0087,-0.122038 0.02034,-0.284754 0.01453,-0.165622 0.03487,-0.392263 z m 0.96177,1.755013 q -0.02906,0.287659 -0.130755,0.537545 -0.101697,0.249886 -0.258602,0.456187 -0.154,0.209207 -0.35449,0.371923 -0.197584,0.165622 -0.421319,0.278942 -0.220829,0.113321 -0.456187,0.171434 -0.235357,0.06102 -0.464904,0.06102 -0.122037,0 -0.249885,-0.0087 -0.127849,-0.0087 -0.249886,-0.03487 -0.122038,-0.02325 -0.232452,-0.06974 -0.110415,-0.04358 -0.197584,-0.11332 v -0.0029 q 0,-0.01453 0.02034,-0.101698 0.02325,-0.08717 0.0523,-0.206301 0.03196,-0.116226 0.06392,-0.241169 0.03487,-0.124943 0.05811,-0.215018 0.01162,-0.04068 0.02324,-0.05521 0.01162,-0.01453 0.02615,-0.01453 0.01743,0 0.02034,0.0029 0.08426,0.05521 0.156905,0.09007 0.07555,0.03777 0.156905,0.05811 0.08426,0.02325 0.183056,0.03196 0.09879,0.0087 0.229546,0.0087 0.203396,0 0.360301,-0.07845 0.156905,-0.07845 0.270225,-0.203396 0.11332,-0.124943 0.18015,-0.276036 0.06974,-0.148188 0.09589,-0.293471 -0.209207,0.139471 -0.424225,0.226641 -0.215018,0.08717 -0.432942,0.08717 -0.299282,0 -0.517205,-0.122037 -0.217924,-0.119132 -0.360301,-0.322527 -0.142377,-0.203396 -0.212112,-0.464904 -0.06683,-0.264414 -0.06683,-0.552073 0,-0.226641 0.04068,-0.456187 0.04358,-0.232452 0.124943,-0.44747 0.08426,-0.215018 0.206301,-0.40098 0.122037,-0.188867 0.281848,-0.328338 0.15981,-0.139471 0.354489,-0.217924 0.194678,-0.08136 0.424225,-0.08136 0.249886,0 0.461998,0.110414 0.215018,0.110415 0.389357,0.273132 0.0058,-0.0523 0.0087,-0.08136 0.0029,-0.03196 0.01453,-0.0494 0.01162,-0.01743 0.03777,-0.02615 0.02906,-0.0087 0.08136,-0.02034 0.03196,-0.0058 0.116226,-0.02325 0.08426,-0.02034 0.20049,-0.04649 0.116226,-0.02615 0.255697,-0.05521 0.139471,-0.02906 0.281848,-0.06102 0.03487,-0.0087 0.06392,-0.0087 0.09007,0 0.09007,0.116226 0,0.01453 0,0.02906 0,0.01162 -0.0029,0.02615 z"
         id="path2723" />
      <path
         d="m -51.444286,91.850719 q -0.0029,0.01162 -0.0029,0.02325 0,0.0087 0,0.01743 0,0.07264 0.02325,0.122037 0.02325,0.04649 0.0494,0.07845 0.02906,0.02906 0.0523,0.0494 0.02325,0.01743 0.02325,0.03196 0,0.04068 -0.08717,0.07555 l -0.78162,0.33415 q -0.0029,0.0029 -0.02034,0.0029 -0.02325,0 -0.04649,-0.04068 -0.02325,-0.04068 -0.04649,-0.104603 -0.02034,-0.06102 -0.04068,-0.130754 -0.01743,-0.07264 -0.03196,-0.13366 -0.183056,0.212112 -0.395169,0.310904 -0.212112,0.09879 -0.421319,0.09879 -0.244074,0 -0.476526,-0.107509 -0.232452,-0.107509 -0.412603,-0.305093 -0.18015,-0.20049 -0.290565,-0.482338 -0.107509,-0.281848 -0.107509,-0.633431 0,-0.415508 0.119132,-0.758375 0.122037,-0.342866 0.328338,-0.589847 0.206302,-0.24698 0.479433,-0.38064 0.276036,-0.136565 0.584035,-0.136565 0.217924,0 0.412602,0.09007 0.194679,0.08717 0.369018,0.226641 0.01743,-0.08717 0.02034,-0.139472 0.0029,-0.0523 0.01162,-0.08136 0.01162,-0.02906 0.04068,-0.03777 0.02906,-0.01162 0.09589,-0.01743 0.209207,-0.02906 0.415508,-0.0523 0.209207,-0.02615 0.435848,-0.03777 z m -0.868789,-1.09543 q 0.02906,-0.165622 0.03777,-0.310904 0.01162,-0.148188 0.01743,-0.270226 -0.04649,-0.03487 -0.101698,-0.07264 -0.0523,-0.03777 -0.116226,-0.06974 -0.06102,-0.03487 -0.130754,-0.05521 -0.06683,-0.02034 -0.142377,-0.02034 -0.156905,0 -0.264414,0.101697 -0.104603,0.101698 -0.171433,0.249886 -0.06392,0.148188 -0.09298,0.31381 -0.02615,0.165622 -0.02615,0.293471 0,0.459092 0.119132,0.674111 0.122037,0.212112 0.337055,0.212112 0.08717,0 0.194679,-0.0494 0.107509,-0.0494 0.217923,-0.136566 z"
         id="path2725" />
      <path
         d="m -48.373014,92.539358 q -0.03196,0.0087 -0.08426,0.02615 -0.0523,0.02034 -0.101698,0.02034 -0.04068,0 -0.07264,-0.02034 -0.02906,-0.02034 -0.02906,-0.06974 v -0.01743 q 0.01743,-0.156905 0.02906,-0.264414 0.01162,-0.110415 0.02034,-0.197584 0.01162,-0.09007 0.01743,-0.177245 0.0087,-0.09007 0.02034,-0.206301 0.01162,-0.119131 0.02615,-0.278942 0.01743,-0.162716 0.04068,-0.403885 0.01453,-0.148188 0.02615,-0.302188 0.01162,-0.153999 0.01162,-0.284754 0,-0.08717 -0.01453,-0.15981 -0.01162,-0.07555 -0.04649,-0.127849 -0.03196,-0.05521 -0.09007,-0.08426 -0.05811,-0.02906 -0.148188,-0.02906 -0.06683,0 -0.185962,0.02906 -0.116226,0.02906 -0.232452,0.09589 -0.116226,0.06683 -0.206301,0.177244 -0.09007,0.107509 -0.101698,0.26732 -0.01743,0.215018 -0.03196,0.369018 -0.01453,0.151093 -0.02615,0.258602 -0.01162,0.104604 -0.02034,0.171434 -0.0058,0.06683 -0.0087,0.11332 -0.0029,0.01162 -0.0087,0.06392 -0.0058,0.0523 -0.01453,0.124943 -0.0058,0.07264 -0.01453,0.154 -0.0058,0.08136 -0.01453,0.153999 -0.0058,0.07264 -0.01162,0.124943 -0.0029,0.0523 -0.0029,0.06392 0,0.02325 0,0.04068 0.0029,0.01453 0.0029,0.02906 0,0.02324 -0.02325,0.04068 -0.02034,0.01453 -0.09589,0.03487 l -0.769997,0.264414 q -0.03196,0.01162 -0.08426,0.02906 -0.0523,0.01743 -0.101698,0.01743 -0.04068,0 -0.07264,-0.02034 -0.02906,-0.02034 -0.02906,-0.06974 l 0.264414,-2.969574 q 0.0087,-0.09589 0.02034,-0.130754 0.01453,-0.03777 0.06683,-0.0494 0.264414,-0.0523 0.543357,-0.104603 0.278942,-0.05521 0.543356,-0.139471 0.02325,0 0.02615,0.0087 0.0058,0.0058 0.0058,0.02034 0,0.0058 -0.0029,0.01743 0,0.01162 -0.0087,0.0523 -0.0058,0.04068 -0.02034,0.124943 -0.01162,0.08136 -0.03487,0.229546 0.20049,-0.116226 0.374829,-0.185962 0.177245,-0.07264 0.331244,-0.110414 0.156905,-0.04068 0.293471,-0.0523 0.136565,-0.01453 0.255697,-0.01453 0.409696,0 0.595658,0.249886 0.185961,0.24698 0.185961,0.743846 0,0.06973 -0.0029,0.145282 -0.0029,0.07264 -0.01162,0.151094 l -0.13366,1.249429 q -0.01453,0.122038 -0.01743,0.226641 -0.0029,0.101698 -0.0029,0.238263 0,0.02325 0,0.04068 0.0029,0.01453 0.0029,0.02615 0,0.02615 -0.02325,0.04068 -0.02034,0.01453 -0.09589,0.03777 z"
         id="path2727" />
      <path
         d="m -41.437228,92.539358 q -0.03196,0.0087 -0.08426,0.02615 -0.0523,0.02034 -0.101698,0.02034 -0.04068,0 -0.07264,-0.02034 -0.02906,-0.02034 -0.02906,-0.06974 v -0.01743 q 0.02034,-0.212112 0.03487,-0.342866 0.01453,-0.13366 0.02324,-0.215018 0.0087,-0.08136 0.01453,-0.122038 0.0058,-0.04358 0.01162,-0.07845 0.0058,-0.03777 0.0087,-0.08136 0.0058,-0.04358 0.01453,-0.122038 0.0087,-0.08136 0.02034,-0.212112 0.01453,-0.13366 0.03487,-0.348678 0.01162,-0.116226 0.02325,-0.229546 0.01453,-0.116226 0.01453,-0.212113 0,-0.122037 -0.01453,-0.220829 -0.01162,-0.101698 -0.04649,-0.171433 -0.03196,-0.07264 -0.09008,-0.113321 -0.05811,-0.04068 -0.148188,-0.04068 -0.05521,0 -0.145282,0.02324 -0.08717,0.02325 -0.177245,0.08426 -0.09008,0.05811 -0.162716,0.156905 -0.07264,0.09589 -0.09298,0.244075 v 0.01162 q -0.03487,0.331244 -0.06392,0.575319 -0.02615,0.241169 -0.04649,0.415508 -0.02034,0.174339 -0.03487,0.290565 -0.01162,0.116226 -0.02034,0.197584 -0.0087,0.07845 -0.01453,0.130754 -0.0029,0.0523 -0.0029,0.09879 0,0.02325 0,0.04068 0.0029,0.01453 0.0029,0.02615 0,0.02324 -0.02325,0.04068 -0.02034,0.01453 -0.09589,0.03777 l -0.682827,0.197584 q -0.03196,0.0087 -0.08426,0.02615 -0.0523,0.02034 -0.101698,0.02034 -0.04068,0 -0.07264,-0.02034 -0.02906,-0.02034 -0.02906,-0.06974 v -0.01743 q 0.02034,-0.212112 0.03196,-0.342866 0.01453,-0.13366 0.02325,-0.215018 0.01162,-0.08136 0.01743,-0.122038 0.0058,-0.04358 0.0087,-0.07845 0.0058,-0.03777 0.01162,-0.08136 0.0058,-0.04358 0.01162,-0.122038 0.0087,-0.08136 0.02034,-0.212112 0.01453,-0.13366 0.03487,-0.348678 0.01162,-0.116226 0.02325,-0.229546 0.01453,-0.116226 0.01453,-0.212113 0,-0.122037 -0.01162,-0.220829 -0.01162,-0.101698 -0.04359,-0.171433 -0.02906,-0.07264 -0.08136,-0.113321 -0.0523,-0.04068 -0.13366,-0.04068 -0.05811,0 -0.159811,0.02906 -0.09879,0.02906 -0.200489,0.09589 -0.09879,0.06683 -0.177245,0.177245 -0.07555,0.107509 -0.08717,0.267319 -0.02325,0.215019 -0.03777,0.35449 -0.01453,0.136565 -0.02325,0.22664 -0.0087,0.08717 -0.01453,0.142377 -0.0029,0.0523 -0.0058,0.09879 -0.0029,0.01162 -0.0087,0.06683 -0.0058,0.0523 -0.01453,0.127849 -0.0058,0.07264 -0.01453,0.15981 -0.0058,0.08426 -0.01162,0.159811 -0.0058,0.07264 -0.01162,0.127849 -0.0029,0.0523 -0.0029,0.06392 v 0.0523 q 0,0.02906 -0.0029,0.0494 -0.0029,0.02034 -0.01743,0.03777 -0.01453,0.01743 -0.04358,0.03196 -0.02615,0.01453 -0.07555,0.03196 l -0.76128,0.270226 q -0.03196,0.01162 -0.08426,0.02906 -0.0523,0.01743 -0.101698,0.01743 -0.04068,0 -0.07264,-0.02034 -0.02906,-0.02034 -0.02906,-0.06974 l 0.261509,-2.963762 q 0.0087,-0.09589 0.02034,-0.130754 0.01453,-0.03777 0.06683,-0.0494 0.264414,-0.0523 0.540451,-0.104604 0.276037,-0.05521 0.540451,-0.139471 0.02325,0 0.02615,0.0087 0.0058,0.0058 0.0058,0.02034 l -0.03777,0.424225 q 0.107509,-0.05521 0.241168,-0.119131 0.13366,-0.06683 0.278943,-0.122038 0.148188,-0.05521 0.299282,-0.09007 0.153999,-0.03777 0.299282,-0.03777 0.200489,0 0.369017,0.09298 0.171433,0.09007 0.281848,0.302187 0.130754,-0.08426 0.276037,-0.156905 0.148188,-0.07264 0.299282,-0.124943 0.153999,-0.0523 0.307998,-0.08136 0.154,-0.02906 0.299282,-0.02906 0.183056,0 0.345773,0.0523 0.162716,0.0523 0.281848,0.171433 0.122037,0.119132 0.191772,0.310905 0.06974,0.188867 0.06974,0.461998 0,0.06974 -0.0029,0.145283 -0.0029,0.07264 -0.01162,0.151093 l -0.13366,1.243618 q -0.01453,0.122038 -0.01743,0.226641 -0.0029,0.101698 -0.0029,0.238263 0,0.02325 0,0.04068 0.0029,0.01453 0.0029,0.02615 0,0.02615 -0.02324,0.04068 -0.02034,0.01453 -0.09589,0.03777 z"
         id="path2729" />
      <path
         d="m -38.813427,93.759731 q -0.0058,0.01162 -0.01453,0.01743 -0.0058,0.0087 -0.02325,0.0087 -0.01743,0 -0.02615,-0.0029 -0.104603,-0.03777 -0.197584,-0.06392 -0.09298,-0.02615 -0.185961,-0.0494 -0.09007,-0.02034 -0.185962,-0.04068 -0.09589,-0.01743 -0.203395,-0.04068 -0.02906,-0.0058 -0.04649,-0.02034 -0.01453,-0.01162 -0.01453,-0.04359 0,-0.0087 0.0087,-0.04358 0.01162,-0.03196 0.0523,-0.136565 0.04068,-0.101698 0.124943,-0.299282 0.08426,-0.194679 0.232452,-0.525923 -0.04359,-0.145282 -0.09879,-0.348678 -0.05521,-0.203395 -0.119131,-0.444564 -0.06102,-0.241169 -0.127849,-0.508489 -0.06683,-0.270225 -0.136565,-0.543356 -0.06683,-0.276037 -0.136566,-0.543356 -0.06683,-0.270226 -0.130754,-0.5143 -0.02034,-0.04649 -0.02325,-0.07555 -0.0029,-0.03196 -0.0029,-0.0523 0,-0.04068 0.04649,-0.0523 0.22664,-0.0494 0.470715,-0.101697 0.244074,-0.05521 0.461998,-0.139472 0.0087,-0.0029 0.02615,-0.0029 0.03777,0 0.04068,0.02906 l 0.354489,1.952597 q 0.01162,-0.03487 0.04359,-0.124943 0.03487,-0.09298 0.07845,-0.22083 0.04649,-0.127848 0.101698,-0.281848 0.05521,-0.153999 0.11332,-0.31381 0.05811,-0.15981 0.113321,-0.316716 0.05811,-0.15981 0.107509,-0.296376 0.0494,-0.136565 0.08426,-0.241169 0.03777,-0.104603 0.05811,-0.156905 0.01162,-0.02906 0.04358,-0.02906 0.0087,0 0.01162,0.0029 0.0029,0 0.01162,0 0.217923,0.08426 0.44747,0.139472 0.229546,0.0523 0.456187,0.101697 0.05521,0.01162 0.05521,0.06392 0,0.03777 -0.03487,0.116226 l -1.197127,2.705159 z"
         id="path2731" />
      <path
         d="m -31.93866,90.775629 q -0.0058,0.02325 -0.01743,0.06683 -0.0087,0.04358 -0.02034,0.101697 -0.0087,0.05521 -0.02325,0.122038 -0.01162,0.06683 -0.02325,0.130754 l -0.06683,0.331244 q -0.0087,0.04358 -0.02325,0.06683 -0.01453,0.02034 -0.06683,0.02906 -0.0494,0.0087 -0.148188,0.0087 -0.09879,0 -0.276037,0 l -0.0523,0.531734 q -0.0029,0.02615 -0.01162,0.0523 -0.0087,0.02615 -0.03777,0.03777 -0.02034,0.0087 -0.09589,0.03777 -0.07264,0.02906 -0.174339,0.06683 -0.101697,0.03777 -0.217923,0.07845 -0.116226,0.04359 -0.22083,0.07845 -0.104603,0.03487 -0.185961,0.05811 -0.08136,0.02325 -0.110415,0.02325 -0.04068,0 -0.07264,-0.02325 -0.02906,-0.02034 -0.02906,-0.08136 0,-0.139471 0.01162,-0.351583 0.01453,-0.215018 0.03777,-0.496866 -0.24698,0.0029 -0.488149,0.0058 -0.241169,0.0029 -0.450375,0.0058 -0.206302,0 -0.363207,0 -0.156905,0 -0.235357,0 -0.255697,0 -0.369018,-0.01743 -0.11332,-0.01743 -0.11332,-0.08136 0,-0.03487 0.02906,-0.08136 0.02615,-0.04359 0.09589,-0.159811 0.06974,-0.116225 0.165622,-0.276036 0.09879,-0.162717 0.212112,-0.351584 0.116226,-0.191773 0.232452,-0.383545 l 0.604375,-0.996638 q 0.110415,-0.183056 0.194679,-0.357395 0.08717,-0.177245 0.188867,-0.322527 0.104603,-0.145283 0.24698,-0.252792 0.145283,-0.107509 0.377735,-0.153999 l 0.918185,-0.241169 q 0.04359,-0.01162 0.07845,-0.01162 0.03196,0 0.0494,0.02034 0.02034,0.01743 0.02034,0.07264 v 0.03196 q -0.01162,0.270226 -0.02325,0.488149 -0.01162,0.217924 -0.02324,0.412603 -0.01162,0.194678 -0.02615,0.377734 -0.01162,0.18015 -0.02325,0.374829 -0.01162,0.194678 -0.02325,0.415508 -0.01162,0.217923 -0.02325,0.488149 0.194679,-0.0058 0.319622,-0.0087 0.127848,-0.0029 0.151093,-0.0029 0.03487,0.0058 0.06974,0.02615 0.03487,0.01743 0.03487,0.07845 0,0.02325 -0.0029,0.03196 z m -1.74339,-0.08717 q 0.03487,-0.20049 0.06102,-0.421319 0.02615,-0.223735 0.04359,-0.453281 0.01743,-0.229547 0.02906,-0.456187 0.01453,-0.226641 0.02325,-0.438753 l -1.057657,1.76954 z"
         id="path2733" />
      <path
         d="m -30.049989,89.979481 q 0.148188,-0.0058 0.287659,-0.0087 0.142377,-0.0058 0.258603,-0.0087 0.116226,-0.0058 0.200489,-0.0087 0.08717,-0.0058 0.122038,-0.0058 0.02324,0 0.0523,0.01743 0.02906,0.01743 0.02906,0.06683 0,0.02615 -0.02906,0.09589 -0.02615,0.06974 -0.06973,0.171433 -0.04359,0.09879 -0.09879,0.223735 -0.05521,0.122037 -0.113321,0.255697 -0.01162,0.02615 -0.02324,0.04359 -0.0087,0.01743 -0.02615,0.03196 -0.01453,0.01162 -0.04068,0.01743 -0.02615,0.0058 -0.06974,0.0058 -0.261509,0.0058 -0.523017,0.01162 -0.261509,0.0029 -0.493961,0.0087 -0.229546,0.0029 -0.415507,0.0058 -0.185962,0.0029 -0.296377,0.0029 -0.174339,0 -0.261508,-0.01453 -0.08426,-0.01743 -0.08426,-0.06683 0,-0.01453 0.03487,-0.07845 0.03777,-0.06683 0.09589,-0.153999 0.05811,-0.09007 0.130754,-0.188867 0.07555,-0.101698 0.148189,-0.185962 0.07264,-0.08426 0.139471,-0.139471 0.06683,-0.05811 0.110414,-0.06102 z"
         id="path2735" />
      <path
         d="m -24.564124,92.539358 q -0.03196,0.0087 -0.08426,0.02615 -0.0523,0.02034 -0.101698,0.02034 -0.04068,0 -0.07264,-0.02034 -0.02906,-0.02034 -0.02906,-0.06974 v -0.01743 q 0.02034,-0.212112 0.03487,-0.342866 0.01453,-0.13366 0.02324,-0.215018 0.0087,-0.08136 0.01453,-0.122038 0.0058,-0.04358 0.01162,-0.07845 0.0058,-0.03777 0.0087,-0.08136 0.0058,-0.04358 0.01453,-0.122038 0.0087,-0.08136 0.02034,-0.212112 0.01453,-0.13366 0.03487,-0.348678 0.01162,-0.116226 0.02325,-0.229546 0.01453,-0.116226 0.01453,-0.212113 0,-0.122037 -0.01453,-0.220829 -0.01162,-0.101698 -0.04649,-0.171433 -0.03196,-0.07264 -0.09007,-0.113321 -0.05811,-0.04068 -0.148189,-0.04068 -0.05521,0 -0.145282,0.02324 -0.08717,0.02325 -0.177245,0.08426 -0.09008,0.05811 -0.162716,0.156905 -0.07264,0.09589 -0.09298,0.244075 v 0.01162 q -0.03487,0.331244 -0.06392,0.575319 -0.02615,0.241169 -0.04649,0.415508 -0.02034,0.174339 -0.03487,0.290565 -0.01162,0.116226 -0.02034,0.197584 -0.0087,0.07845 -0.01453,0.130754 -0.0029,0.0523 -0.0029,0.09879 0,0.02325 0,0.04068 0.0029,0.01453 0.0029,0.02615 0,0.02324 -0.02324,0.04068 -0.02034,0.01453 -0.09589,0.03777 l -0.682827,0.197584 q -0.03196,0.0087 -0.08426,0.02615 -0.0523,0.02034 -0.101698,0.02034 -0.04068,0 -0.07264,-0.02034 -0.02906,-0.02034 -0.02906,-0.06974 v -0.01743 q 0.02034,-0.212112 0.03196,-0.342866 0.01453,-0.13366 0.02324,-0.215018 0.01162,-0.08136 0.01743,-0.122038 0.0058,-0.04358 0.0087,-0.07845 0.0058,-0.03777 0.01162,-0.08136 0.0058,-0.04358 0.01162,-0.122038 0.0087,-0.08136 0.02034,-0.212112 0.01453,-0.13366 0.03487,-0.348678 0.01162,-0.116226 0.02324,-0.229546 0.01453,-0.116226 0.01453,-0.212113 0,-0.122037 -0.01162,-0.220829 -0.01162,-0.101698 -0.04359,-0.171433 -0.02906,-0.07264 -0.08136,-0.113321 -0.0523,-0.04068 -0.13366,-0.04068 -0.05811,0 -0.159811,0.02906 -0.09879,0.02906 -0.200489,0.09589 -0.09879,0.06683 -0.177245,0.177245 -0.07555,0.107509 -0.08717,0.267319 -0.02325,0.215019 -0.03777,0.35449 -0.01453,0.136565 -0.02324,0.22664 -0.0087,0.08717 -0.01453,0.142377 -0.0029,0.0523 -0.0058,0.09879 -0.0029,0.01162 -0.0087,0.06683 -0.0058,0.0523 -0.01453,0.127849 -0.0058,0.07264 -0.01453,0.15981 -0.0058,0.08426 -0.01162,0.159811 -0.0058,0.07264 -0.01162,0.127849 -0.0029,0.0523 -0.0029,0.06392 v 0.0523 q 0,0.02906 -0.0029,0.0494 -0.0029,0.02034 -0.01743,0.03777 -0.01453,0.01743 -0.04359,0.03196 -0.02615,0.01453 -0.07555,0.03196 l -0.76128,0.270226 q -0.03196,0.01162 -0.08426,0.02906 -0.0523,0.01743 -0.101698,0.01743 -0.04068,0 -0.07264,-0.02034 -0.02906,-0.02034 -0.02906,-0.06974 l 0.261509,-2.963762 q 0.0087,-0.09589 0.02034,-0.130754 0.01453,-0.03777 0.06683,-0.0494 0.264414,-0.0523 0.540451,-0.104604 0.276037,-0.05521 0.540451,-0.139471 0.02324,0 0.02615,0.0087 0.0058,0.0058 0.0058,0.02034 l -0.03777,0.424225 q 0.107509,-0.05521 0.241169,-0.119131 0.133659,-0.06683 0.278942,-0.122038 0.148188,-0.05521 0.299282,-0.09007 0.153999,-0.03777 0.299282,-0.03777 0.200489,0 0.369017,0.09298 0.171433,0.09007 0.281848,0.302187 0.130754,-0.08426 0.276037,-0.156905 0.148188,-0.07264 0.299282,-0.124943 0.153999,-0.0523 0.307999,-0.08136 0.153999,-0.02906 0.299281,-0.02906 0.183056,0 0.345773,0.0523 0.162716,0.0523 0.281848,0.171433 0.122037,0.119132 0.191773,0.310905 0.06973,0.188867 0.06973,0.461998 0,0.06974 -0.0029,0.145283 -0.0029,0.07264 -0.01162,0.151093 l -0.13366,1.243618 q -0.01453,0.122038 -0.01743,0.226641 -0.0029,0.101698 -0.0029,0.238263 0,0.02325 0,0.04068 0.0029,0.01453 0.0029,0.02615 0,0.02615 -0.02324,0.04068 -0.02034,0.01453 -0.09589,0.03777 z"
         id="path2737" />
      <path
         d="m -21.527717,92.585848 q -0.409697,0 -0.720602,-0.13366 -0.307998,-0.133659 -0.517205,-0.354489 -0.209207,-0.223735 -0.31381,-0.511394 -0.104604,-0.290565 -0.104604,-0.60147 0,-0.310904 0.101698,-0.589846 0.101698,-0.281848 0.284754,-0.502678 0.183056,-0.223735 0.438753,-0.371923 0.255697,-0.151094 0.563696,-0.203395 0.04649,-0.0029 0.04649,-0.02034 0,-0.03196 -0.0087,-0.05811 -0.0058,-0.02906 -0.0058,-0.0494 0,-0.03196 0.01162,-0.04358 0.01162,-0.01162 0.02615,-0.01162 0.554979,0 0.944336,0.127848 0.389357,0.124943 0.633432,0.342867 0.244075,0.217924 0.354489,0.5143 0.110415,0.296376 0.110415,0.636337 0,0.432942 -0.145283,0.772903 -0.145282,0.339961 -0.398074,0.575318 -0.249885,0.235358 -0.586941,0.357395 -0.334149,0.124943 -0.714789,0.124943 z m -0.537546,-1.632975 q 0,0.156905 0.03196,0.310905 0.03487,0.153999 0.110414,0.278942 0.07845,0.124943 0.203396,0.203396 0.124943,0.07555 0.310904,0.07555 0.13366,-0.0058 0.232452,-0.05811 0.101698,-0.05521 0.174339,-0.139471 0.07264,-0.08717 0.119132,-0.194678 0.0494,-0.107509 0.07555,-0.22083 0.02906,-0.116226 0.04068,-0.22664 0.01162,-0.110415 0.01162,-0.20049 0,-0.151094 -0.04649,-0.296376 -0.04359,-0.145283 -0.130754,-0.255697 -0.08717,-0.110415 -0.217924,-0.177245 -0.127849,-0.06974 -0.296376,-0.06974 -0.174339,0 -0.293471,0.104604 -0.119132,0.101698 -0.191773,0.252791 -0.06974,0.151094 -0.101697,0.319622 -0.03196,0.165622 -0.03196,0.29347 z"
         id="path2739" />
      <path
         d="m -16.899019,92.539358 q -0.03196,0.0087 -0.08426,0.02615 -0.0523,0.02034 -0.101697,0.02034 -0.04068,0 -0.07264,-0.02034 -0.02906,-0.02034 -0.02906,-0.06974 v -0.01743 q 0.01743,-0.156905 0.02906,-0.264414 0.01162,-0.110415 0.02034,-0.197584 0.01162,-0.09007 0.01743,-0.177245 0.0087,-0.09007 0.02034,-0.206301 0.01162,-0.119131 0.02615,-0.278942 0.01743,-0.162716 0.04068,-0.403885 0.01453,-0.148188 0.02615,-0.302188 0.01162,-0.153999 0.01162,-0.284754 0,-0.08717 -0.01453,-0.15981 -0.01162,-0.07555 -0.04649,-0.127849 -0.03196,-0.05521 -0.09007,-0.08426 -0.05811,-0.02906 -0.148188,-0.02906 -0.06683,0 -0.185962,0.02906 -0.116226,0.02906 -0.232452,0.09589 -0.116226,0.06683 -0.206301,0.177244 -0.09008,0.107509 -0.101697,0.26732 -0.01743,0.215018 -0.03196,0.369018 -0.01453,0.151093 -0.02615,0.258602 -0.01162,0.104604 -0.02034,0.171434 -0.0058,0.06683 -0.0087,0.11332 -0.0029,0.01162 -0.0087,0.06392 -0.0058,0.0523 -0.01453,0.124943 -0.0058,0.07264 -0.01453,0.154 -0.0058,0.08136 -0.01453,0.153999 -0.0058,0.07264 -0.01162,0.124943 -0.0029,0.0523 -0.0029,0.06392 0,0.02325 0,0.04068 0.0029,0.01453 0.0029,0.02906 0,0.02324 -0.02324,0.04068 -0.02034,0.01453 -0.09589,0.03487 l -0.769997,0.264414 q -0.03196,0.01162 -0.08426,0.02906 -0.0523,0.01743 -0.101697,0.01743 -0.04068,0 -0.07264,-0.02034 -0.02906,-0.02034 -0.02906,-0.06974 l 0.264414,-2.969574 q 0.0087,-0.09589 0.02034,-0.130754 0.01453,-0.03777 0.06683,-0.0494 0.264414,-0.0523 0.543357,-0.104603 0.278942,-0.05521 0.543356,-0.139471 0.02324,0 0.02615,0.0087 0.0058,0.0058 0.0058,0.02034 0,0.0058 -0.0029,0.01743 0,0.01162 -0.0087,0.0523 -0.0058,0.04068 -0.02034,0.124943 -0.01162,0.08136 -0.03487,0.229546 0.20049,-0.116226 0.374829,-0.185962 0.177245,-0.07264 0.331244,-0.110414 0.156905,-0.04068 0.293471,-0.0523 0.136565,-0.01453 0.255697,-0.01453 0.409697,0 0.595658,0.249886 0.185962,0.24698 0.185962,0.743846 0,0.06973 -0.0029,0.145282 -0.0029,0.07264 -0.01162,0.151094 l -0.133659,1.249429 q -0.01453,0.122038 -0.01743,0.226641 -0.0029,0.101698 -0.0029,0.238263 0,0.02325 0,0.04068 0.0029,0.01453 0.0029,0.02615 0,0.02615 -0.02325,0.04068 -0.02034,0.01453 -0.09589,0.03777 z"
         id="path2741" />
      <path
         d="m -13.903296,90.194499 q -0.04068,0.305093 -0.07845,0.610186 -0.03487,0.302188 -0.04358,0.566602 0,0.11332 0.01743,0.188867 0.01743,0.07555 0.0494,0.119132 0.03487,0.04358 0.08136,0.06392 0.04649,0.01743 0.104603,0.01743 0.09298,0 0.203396,-0.02615 0.110414,-0.02906 0.220829,-0.07264 0.03487,-0.01453 0.05811,-0.02034 0.02615,-0.0087 0.04358,-0.0087 0.02906,0 0.03777,0.02615 0.01162,0.02615 0.02034,0.09298 0.01162,0.06392 0.03196,0.174339 0.02034,0.110415 0.06683,0.278942 0.0029,0.01453 0.0029,0.02615 0.0029,0.0087 0.0029,0.01743 0,0.04068 -0.03196,0.05811 -0.02906,0.01743 -0.09879,0.04068 -0.119132,0.04068 -0.252792,0.08426 -0.130754,0.04068 -0.261508,0.07555 -0.127849,0.03487 -0.24698,0.05521 -0.119132,0.02325 -0.209207,0.02325 -0.485244,0 -0.708979,-0.241169 -0.220829,-0.241169 -0.220829,-0.735129 0,-0.08426 0.0058,-0.171433 0.0058,-0.09007 0.01453,-0.185962 0.02906,-0.290565 0.0494,-0.549168 0.02324,-0.261508 0.04649,-0.499771 h -0.305093 q -0.156905,0 -0.226641,-0.01162 -0.06973,-0.01453 -0.06973,-0.05521 0,-0.01162 0.02906,-0.06102 0.02906,-0.0523 0.07264,-0.122037 0.04649,-0.07264 0.09879,-0.153999 0.0523,-0.08136 0.09879,-0.151094 0.0494,-0.07264 0.08426,-0.124943 0.03487,-0.0523 0.04359,-0.06392 h 0.206301 q 0.02615,-0.22083 0.04068,-0.369018 0.01743,-0.151094 0.02615,-0.249886 0.01162,-0.09879 0.02034,-0.151094 0.0087,-0.05521 0.01743,-0.08136 0.01162,-0.02615 0.02615,-0.03196 0.01743,-0.0087 0.04359,-0.01453 0.130754,-0.02615 0.252792,-0.04649 0.122037,-0.02325 0.244074,-0.04649 0.122037,-0.02325 0.24698,-0.0523 0.127849,-0.03196 0.264415,-0.07264 0.0087,0 0.01162,0 0.0029,-0.0029 0.01162,-0.0029 0.03487,0 0.03487,0.02325 v 0.0058 q -0.01453,0.159811 -0.04649,0.444564 -0.02906,0.284754 -0.06683,0.645055 h 0.778714 q 0.02324,0 0.04359,0.01743 0.02324,0.01453 0.02324,0.0523 0,0.01453 -0.03487,0.104604 -0.03487,0.09007 -0.09879,0.235357 l -0.104603,0.235358 q -0.02034,0.04358 -0.04359,0.06392 -0.02034,0.02034 -0.08717,0.02615 z"
         id="path2743" />
      <path
         d="m -12.424318,88.20994 q 0,-0.01743 -0.0029,-0.03196 0,-0.01453 0,-0.02906 0,-0.02615 0.02034,-0.04358 0.02034,-0.02034 0.09879,-0.04068 l 0.816487,-0.194679 q 0.03196,-0.0058 0.08426,-0.02615 0.0523,-0.02034 0.101698,-0.02034 0.101697,0 0.101697,0.09298 0,0.0058 -0.0087,0.119131 -0.0087,0.113321 -0.02325,0.281848 -0.01453,0.168528 -0.03196,0.369018 -0.01743,0.197584 -0.03487,0.377734 -0.01743,0.18015 -0.03196,0.316716 -0.01453,0.13366 -0.02325,0.174339 0.136565,-0.07555 0.284753,-0.142377 0.148189,-0.06683 0.296377,-0.116226 0.151093,-0.0494 0.299282,-0.07555 0.151093,-0.02906 0.290565,-0.02906 0.177244,0 0.3312436,0.0523 0.1539994,0.0494 0.2673197,0.168528 0.116226,0.116226 0.1801503,0.307999 0.06683,0.188867 0.06683,0.464904 0,0.06973 -0.00291,0.145282 -0.00291,0.07264 -0.011623,0.151094 l -0.124943,1.188411 q -0.014528,0.122037 -0.017434,0.255697 -0.00291,0.130754 -0.00291,0.270225 0,0.02325 0,0.04068 0.00291,0.01453 0.00291,0.02615 0,0.02615 -0.023245,0.04068 -0.02034,0.01453 -0.095886,0.03777 l -0.7118836,0.197584 q -0.03196,0.0087 -0.08426,0.02615 -0.0523,0.02034 -0.101698,0.02034 -0.0494,0 -0.07555,-0.02325 -0.02615,-0.02034 -0.02615,-0.08426 0.02034,-0.217923 0.03196,-0.351583 0.01453,-0.13366 0.02034,-0.212113 0.0087,-0.08136 0.01453,-0.122037 0.0058,-0.04359 0.0087,-0.07555 0.0029,-0.03487 0.0087,-0.07555 0.0058,-0.04359 0.01162,-0.124943 0.0087,-0.08136 0.02034,-0.215018 0.01453,-0.13366 0.03487,-0.351583 0.01162,-0.116226 0.02325,-0.229547 0.01453,-0.116226 0.01453,-0.212112 0,-0.122037 -0.01453,-0.220829 -0.01162,-0.101698 -0.04649,-0.171434 -0.03196,-0.07264 -0.09008,-0.11332 -0.05811,-0.04068 -0.148188,-0.04068 -0.06683,0 -0.183056,0.02906 -0.11332,0.02906 -0.229546,0.09589 -0.113321,0.06683 -0.203396,0.177244 -0.08717,0.107509 -0.09879,0.26732 -0.02324,0.223735 -0.03777,0.366112 -0.01162,0.142377 -0.02034,0.235358 -0.0087,0.09298 -0.01453,0.148188 -0.0029,0.05521 -0.0058,0.101697 -0.0029,0.01453 -0.0087,0.07264 -0.0058,0.05521 -0.01453,0.13366 -0.0087,0.07845 -0.01743,0.168527 -0.0087,0.08717 -0.01743,0.165622 -0.0058,0.07845 -0.01162,0.136566 -0.0029,0.05521 -0.0029,0.06973 0,0.02325 0,0.04068 0.0029,0.01453 0.0029,0.02906 0,0.02324 -0.02325,0.04068 -0.02034,0.01453 -0.09589,0.03487 l -0.758374,0.264414 q -0.03196,0.01162 -0.08426,0.02906 -0.0523,0.01743 -0.101698,0.01743 -0.04359,0 -0.07264,-0.02615 -0.02906,-0.02325 -0.02906,-0.08136 z"
         id="path2745" />
      <path
         d="m -65.124082,97.415038 q 0.03487,-0.398074 0.05521,-0.787431 0.02325,-0.389357 0.0494,-0.799054 0.0058,-0.09589 0.01743,-0.130754 0.01453,-0.03777 0.06683,-0.0494 0.270225,-0.0494 0.540451,-0.09879 0.273131,-0.0523 0.546262,-0.136566 0.0087,-0.0029 0.02615,-0.0029 0.03196,0 0.03196,0.02906 l -0.377735,4.149267 v 0.0494 q 0,0.02615 -0.02034,0.04358 -0.02034,0.01453 -0.09589,0.03487 l -0.76128,0.278942 q -0.03196,0.01453 -0.08426,0.02906 -0.0523,0.0174 -0.101697,0.0174 -0.04068,0 -0.07264,-0.0203 -0.02906,-0.0203 -0.02906,-0.06973 v -0.01743 q 0.02324,-0.293471 0.04358,-0.572413 0.02325,-0.281848 0.04649,-0.58113 0.02615,-0.299282 0.05521,-0.633432 0.02906,-0.33415 0.06392,-0.732223 z"
         id="path2747" />
      <path
         d="m -61.785491,96.630512 q 0.276036,0 0.499771,0.104604 0.226641,0.101697 0.386452,0.267319 0.162716,0.162717 0.249886,0.366112 0.08717,0.203396 0.08717,0.406791 0,0.18015 -0.110415,0.363206 -0.110414,0.18015 -0.310904,0.325433 -0.197584,0.145282 -0.476527,0.235358 -0.278942,0.09007 -0.613092,0.09007 -0.174339,0 -0.366111,-0.03487 0.01162,0.124943 0.07264,0.215018 0.06102,0.09007 0.153999,0.148188 0.09298,0.05811 0.209207,0.08717 0.119132,0.02615 0.244075,0.02615 0.139471,0 0.267319,-0.02324 0.130754,-0.02615 0.249886,-0.06683 0.119132,-0.04068 0.229546,-0.09007 0.110415,-0.0494 0.209207,-0.09879 0.02615,-0.0058 0.04359,-0.0087 0.02034,-0.0058 0.03777,-0.0058 0,0 -0.0029,0.04649 0,0.04649 0,0.130754 0,0.08426 -0.0029,0.203396 0,0.119131 -0.0029,0.264414 0.0087,0.01453 0.01162,0.02906 0.0029,0.01453 0.0029,0.02325 0,0.03487 -0.06393,0.07555 -0.06392,0.04068 -0.168527,0.08426 -0.101698,0.04358 -0.235358,0.08426 -0.130754,0.04068 -0.26732,0.07264 -0.136565,0.03487 -0.264414,0.0523 -0.127848,0.0203 -0.223735,0.0203 -0.31381,0 -0.610186,-0.110434 -0.293471,-0.107509 -0.523017,-0.310905 -0.226641,-0.203395 -0.363206,-0.49396 -0.136566,-0.290565 -0.136566,-0.653771 0,-0.38064 0.130755,-0.711884 0.130754,-0.33415 0.366111,-0.58113 0.238264,-0.24698 0.566602,-0.389357 0.328338,-0.142377 0.723507,-0.142377 z m -0.03487,0.772903 q -0.119132,0 -0.220829,0.0523 -0.09879,0.0494 -0.183056,0.145282 -0.08136,0.09298 -0.142377,0.226641 -0.06102,0.130754 -0.09879,0.290565 0.299282,-0.0523 0.496866,-0.110415 0.197584,-0.05811 0.316716,-0.116226 0.119131,-0.06102 0.168527,-0.119132 0.0494,-0.06102 0.0494,-0.116226 0,-0.0523 -0.04068,-0.09879 -0.03777,-0.04649 -0.09589,-0.08136 -0.05811,-0.03487 -0.127849,-0.0523 -0.06683,-0.02034 -0.122037,-0.02034 z"
         id="path2749" />
      <path
         d="m -57.232339,99.289181 q -0.0029,0.01162 -0.0029,0.02325 0,0.0087 0,0.01743 0,0.07264 0.02325,0.122038 0.02324,0.04649 0.0494,0.07845 0.02906,0.02906 0.0523,0.0494 0.02325,0.01743 0.02325,0.03196 0,0.04068 -0.08717,0.07555 l -0.781619,0.334141 q -0.0029,0.003 -0.02034,0.003 -0.02324,0 -0.04649,-0.04068 -0.02325,-0.04068 -0.04649,-0.104604 -0.02034,-0.06102 -0.04068,-0.130754 -0.01743,-0.07264 -0.03196,-0.13366 -0.183056,0.212112 -0.395168,0.310905 -0.212113,0.09879 -0.421319,0.09879 -0.244075,0 -0.476527,-0.107516 -0.232452,-0.107509 -0.412602,-0.305094 -0.18015,-0.200489 -0.290565,-0.482337 -0.107509,-0.281848 -0.107509,-0.633432 0,-0.415508 0.119131,-0.758374 0.122038,-0.342867 0.328339,-0.589847 0.206301,-0.24698 0.479432,-0.38064 0.276037,-0.136566 0.584036,-0.136566 0.217923,0 0.412602,0.09007 0.194678,0.08717 0.369017,0.226641 0.01743,-0.08717 0.02034,-0.139471 0.0029,-0.0523 0.01162,-0.08136 0.01162,-0.02906 0.04068,-0.03777 0.02906,-0.01162 0.09589,-0.01743 0.209207,-0.02906 0.415508,-0.0523 0.209206,-0.02615 0.435847,-0.03777 z m -0.868789,-1.095429 q 0.02906,-0.165622 0.03777,-0.310905 0.01162,-0.148188 0.01743,-0.270225 -0.04649,-0.03487 -0.101697,-0.07264 -0.0523,-0.03777 -0.116226,-0.06973 -0.06102,-0.03487 -0.130754,-0.05521 -0.06683,-0.02034 -0.142377,-0.02034 -0.156905,0 -0.264414,0.101698 -0.104604,0.101697 -0.171434,0.249886 -0.06392,0.148188 -0.09298,0.31381 -0.02615,0.165622 -0.02615,0.29347 0,0.459093 0.119131,0.674111 0.122038,0.212112 0.337056,0.212112 0.08717,0 0.194678,-0.0494 0.107509,-0.0494 0.217924,-0.136565 z"
         id="path2751" />
      <path
         d="m -54.195935,97.508018 q -0.06102,-0.0058 -0.136566,-0.01162 -0.07555,-0.0087 -0.159811,-0.0087 -0.127848,0 -0.261508,0.02325 -0.130754,0.02034 -0.244075,0.08426 -0.11332,0.06392 -0.194678,0.177244 -0.08136,0.110415 -0.104603,0.28766 -0.02034,0.215018 -0.03487,0.354489 -0.01162,0.136565 -0.01743,0.226641 -0.0058,0.08717 -0.01162,0.142376 -0.0029,0.0523 -0.0058,0.09879 0,0.01162 -0.0058,0.06392 -0.0029,0.0523 -0.01162,0.122037 -0.0087,0.06974 -0.01743,0.151094 -0.0058,0.08136 -0.01453,0.151094 -0.0087,0.06973 -0.01453,0.122037 -0.0029,0.0523 -0.0029,0.06392 0,0.02325 0,0.04068 0.0029,0.01453 0.0029,0.02906 0,0.02325 -0.02325,0.04068 -0.02034,0.01453 -0.09589,0.03487 l -0.769997,0.276036 q -0.03196,0.01162 -0.08426,0.02906 -0.0523,0.0174 -0.101698,0.0174 -0.04068,0 -0.07264,-0.0203 -0.02906,-0.02034 -0.02906,-0.06973 l 0.249886,-2.879499 q 0.0087,-0.09589 0.02034,-0.130754 0.01453,-0.03777 0.06683,-0.0494 0.264414,-0.0523 0.546262,-0.104604 0.281848,-0.05521 0.546262,-0.139471 0.02324,0 0.02615,0.0087 0.0058,0.0058 0.0058,0.02034 0,0.0058 -0.0029,0.01743 0,0.01162 -0.0087,0.0523 -0.0058,0.04068 -0.02034,0.124943 -0.01162,0.08136 -0.03487,0.229546 0.13366,-0.104603 0.293471,-0.191772 0.162716,-0.08717 0.325433,-0.148188 0.162716,-0.06392 0.31381,-0.09879 0.151094,-0.03777 0.264414,-0.03777 z"
         id="path2753" />
      <path
         d="m -51.53436,99.97782 q -0.03196,0.0087 -0.08426,0.02615 -0.0523,0.0203 -0.101698,0.0203 -0.04068,0 -0.07264,-0.0203 -0.02906,-0.02034 -0.02906,-0.06973 v -0.01743 q 0.01743,-0.156905 0.02906,-0.264414 0.01162,-0.110415 0.02034,-0.197585 0.01162,-0.09007 0.01743,-0.177244 0.0087,-0.09007 0.02034,-0.206301 0.01162,-0.119132 0.02615,-0.278943 0.01743,-0.162716 0.04068,-0.403885 0.01453,-0.148188 0.02615,-0.302187 0.01162,-0.154 0.01162,-0.284754 0,-0.08717 -0.01453,-0.159811 -0.01162,-0.07555 -0.04649,-0.127848 -0.03196,-0.05521 -0.09008,-0.08426 -0.05811,-0.02906 -0.148188,-0.02906 -0.06683,0 -0.185961,0.02906 -0.116226,0.02906 -0.232452,0.09589 -0.116226,0.06683 -0.206301,0.177245 -0.09007,0.107509 -0.101698,0.26732 -0.01743,0.215018 -0.03196,0.369017 -0.01453,0.151094 -0.02615,0.258603 -0.01162,0.104603 -0.02034,0.171433 -0.0058,0.06683 -0.0087,0.11332 -0.0029,0.01162 -0.0087,0.06392 -0.0058,0.0523 -0.01453,0.124943 -0.0058,0.07264 -0.01453,0.153999 -0.0058,0.08136 -0.01453,0.153999 -0.0058,0.07264 -0.01162,0.124943 -0.0029,0.0523 -0.0029,0.06392 0,0.02325 0,0.04068 0.0029,0.01453 0.0029,0.02906 0,0.02324 -0.02325,0.04068 -0.02034,0.01453 -0.09589,0.03487 l -0.769998,0.264414 q -0.03196,0.01162 -0.08426,0.02906 -0.0523,0.0174 -0.101698,0.0174 -0.04068,0 -0.07264,-0.0203 -0.02906,-0.02034 -0.02906,-0.06973 l 0.264414,-2.969574 q 0.0087,-0.09589 0.02034,-0.130754 0.01453,-0.03777 0.06683,-0.0494 0.264414,-0.0523 0.543356,-0.104604 0.278943,-0.05521 0.543357,-0.139471 0.02325,0 0.02615,0.0087 0.0058,0.0058 0.0058,0.02034 0,0.0058 -0.0029,0.01743 0,0.01162 -0.0087,0.0523 -0.0058,0.04068 -0.02034,0.124943 -0.01162,0.08136 -0.03487,0.229546 0.20049,-0.116226 0.374829,-0.185961 0.177244,-0.07264 0.331244,-0.110415 0.156905,-0.04068 0.29347,-0.0523 0.136566,-0.01453 0.255697,-0.01453 0.409697,0 0.595658,0.249886 0.185962,0.24698 0.185962,0.743846 0,0.06974 -0.0029,0.145283 -0.0029,0.07264 -0.01162,0.151093 l -0.13366,1.24943 q -0.01453,0.122037 -0.01743,0.22664 -0.0029,0.101698 -0.0029,0.238264 0,0.02325 0,0.04068 0.0029,0.01453 0.0029,0.02615 0,0.02615 -0.02325,0.04068 -0.02034,0.01453 -0.09589,0.03777 z"
         id="path2755" />
      <path
         d="m -50.029234,98.641222 q 0.03777,-0.398074 0.07555,-0.787431 0.03777,-0.389357 0.06683,-0.799054 0.0058,-0.09589 0.01743,-0.130754 0.01453,-0.03777 0.06683,-0.0494 0.24698,-0.0494 0.517205,-0.101698 0.270226,-0.05521 0.523017,-0.139471 0.0087,-0.0029 0.02615,-0.0029 0.03196,0 0.03196,0.02325 l -0.261508,2.830103 q -0.0087,0.09589 -0.02034,0.13366 -0.01162,0.03487 -0.06392,0.04649 -0.24698,0.07555 -0.499772,0.168528 -0.252791,0.09298 -0.534639,0.188865 -0.0087,0.003 -0.02615,0.003 -0.03196,0 -0.03196,-0.02906 0,-0.0029 0.0058,-0.07845 0.0058,-0.07555 0.01453,-0.194679 0.01162,-0.119132 0.02324,-0.26732 0.01162,-0.148188 0.02325,-0.296376 0.01453,-0.148188 0.02615,-0.284754 0.01162,-0.136565 0.02034,-0.232451 z m 0.217924,-2.318709 q 0.0087,-0.124943 0.01162,-0.191773 0.0058,-0.06683 0.0087,-0.09879 0.0029,-0.03487 0.0029,-0.04358 0,-0.0087 0,-0.01162 0.0029,-0.0058 0.0029,-0.01743 0.0029,-0.01453 0.0058,-0.05521 0.0029,-0.04358 0.0087,-0.124943 0.0058,-0.08136 0.01743,-0.223735 0.0058,-0.09589 0.01743,-0.130754 0.01453,-0.03777 0.06683,-0.0494 0.24698,-0.0494 0.517205,-0.101698 0.270226,-0.05521 0.523017,-0.139471 0.0087,-0.0029 0.02615,-0.0029 0.0087,0.01743 0.02324,0.02325 l 0.0087,0.0058 -0.06392,0.796148 q -0.0087,0.09589 -0.02325,0.133659 -0.01162,0.03777 -0.06102,0.04649 -0.24698,0.04649 -0.499772,0.101698 -0.252791,0.05521 -0.534639,0.110414 -0.0087,0.0029 -0.02615,0.0029 -0.03196,0 -0.03196,-0.02906 z"
         id="path2757" />
      <path
         d="m -45.914835,99.97782 q -0.03196,0.0087 -0.08426,0.02615 -0.0523,0.0203 -0.101698,0.0203 -0.04068,0 -0.07264,-0.0203 -0.02906,-0.02034 -0.02906,-0.06973 v -0.01743 q 0.01743,-0.156905 0.02906,-0.264414 0.01162,-0.110415 0.02034,-0.197585 0.01162,-0.09007 0.01743,-0.177244 0.0087,-0.09007 0.02034,-0.206301 0.01162,-0.119132 0.02615,-0.278943 0.01743,-0.162716 0.04068,-0.403885 0.01453,-0.148188 0.02615,-0.302187 0.01162,-0.154 0.01162,-0.284754 0,-0.08717 -0.01453,-0.159811 -0.01162,-0.07555 -0.04649,-0.127848 -0.03196,-0.05521 -0.09007,-0.08426 -0.05811,-0.02906 -0.148188,-0.02906 -0.06683,0 -0.185961,0.02906 -0.116226,0.02906 -0.232452,0.09589 -0.116226,0.06683 -0.206301,0.177245 -0.09008,0.107509 -0.101698,0.26732 -0.01743,0.215018 -0.03196,0.369017 -0.01453,0.151094 -0.02615,0.258603 -0.01162,0.104603 -0.02034,0.171433 -0.0058,0.06683 -0.0087,0.11332 -0.0029,0.01162 -0.0087,0.06392 -0.0058,0.0523 -0.01453,0.124943 -0.0058,0.07264 -0.01453,0.153999 -0.0058,0.08136 -0.01453,0.153999 -0.0058,0.07264 -0.01162,0.124943 -0.0029,0.0523 -0.0029,0.06392 0,0.02325 0,0.04068 0.0029,0.01453 0.0029,0.02906 0,0.02324 -0.02325,0.04068 -0.02034,0.01453 -0.09589,0.03487 l -0.769997,0.264414 q -0.03196,0.01162 -0.08426,0.02906 -0.0523,0.0174 -0.101698,0.0174 -0.04068,0 -0.07264,-0.0203 -0.02906,-0.02034 -0.02906,-0.06973 l 0.264414,-2.969574 q 0.0087,-0.09589 0.02034,-0.130754 0.01453,-0.03777 0.06683,-0.0494 0.264414,-0.0523 0.543356,-0.104604 0.278942,-0.05521 0.543357,-0.139471 0.02325,0 0.02615,0.0087 0.0058,0.0058 0.0058,0.02034 0,0.0058 -0.0029,0.01743 0,0.01162 -0.0087,0.0523 -0.0058,0.04068 -0.02034,0.124943 -0.01162,0.08136 -0.03487,0.229546 0.20049,-0.116226 0.374828,-0.185961 0.177245,-0.07264 0.331245,-0.110415 0.156905,-0.04068 0.29347,-0.0523 0.136566,-0.01453 0.255697,-0.01453 0.409697,0 0.595658,0.249886 0.185962,0.24698 0.185962,0.743846 0,0.06974 -0.0029,0.145283 -0.0029,0.07264 -0.01162,0.151093 l -0.13366,1.24943 q -0.01453,0.122037 -0.01743,0.22664 -0.0029,0.101698 -0.0029,0.238264 0,0.02325 0,0.04068 0.0029,0.01453 0.0029,0.02615 0,0.02615 -0.02325,0.04068 -0.02034,0.01453 -0.09589,0.03777 z"
         id="path2759" />
      <path
         d="m -42.367037,97.801489 q -0.02906,-0.06683 -0.08136,-0.136566 -0.0494,-0.06974 -0.116226,-0.127848 -0.06683,-0.05811 -0.145282,-0.09298 -0.07845,-0.03777 -0.165622,-0.03777 -0.119132,0 -0.223735,0.09879 -0.104604,0.09879 -0.183056,0.264414 -0.07845,0.162716 -0.124943,0.374828 -0.04358,0.209207 -0.04358,0.435848 0,0.139471 0.02324,0.264414 0.02615,0.122037 0.07845,0.215018 0.0523,0.09298 0.13366,0.148188 0.08426,0.05521 0.20049,0.05521 0.174339,0 0.319621,-0.10751 0.145283,-0.110414 0.24698,-0.284753 0.0029,-0.06102 0.0087,-0.145283 0.0058,-0.08426 0.01453,-0.203395 0.0087,-0.122037 0.02034,-0.284754 0.01453,-0.165622 0.03487,-0.392262 z m 0.96177,1.755012 q -0.02906,0.287659 -0.130754,0.537549 -0.101698,0.24988 -0.258603,0.45618 -0.153999,0.20921 -0.354489,0.37193 -0.197584,0.16562 -0.421319,0.27894 -0.220829,0.11332 -0.456187,0.17143 -0.235358,0.061 -0.464904,0.061 -0.122037,0 -0.249886,-0.009 -0.127848,-0.009 -0.249886,-0.0349 -0.122037,-0.0233 -0.232452,-0.0697 -0.110414,-0.0436 -0.197584,-0.11332 v -0.003 q 0,-0.0145 0.02034,-0.10169 0.02324,-0.0872 0.0523,-0.2063 0.03196,-0.11623 0.06392,-0.24117 0.03487,-0.12495 0.05811,-0.21502 0.01162,-0.0407 0.02325,-0.0552 0.01162,-0.0145 0.02615,-0.0145 0.01743,0 0.02034,0.003 0.08426,0.0552 0.156905,0.0901 0.07555,0.0378 0.156906,0.0581 0.08426,0.0232 0.183055,0.032 0.09879,0.009 0.229547,0.009 0.203395,0 0.3603,-0.0785 0.156905,-0.0785 0.270226,-0.20339 0.11332,-0.12495 0.18015,-0.27604 0.06974,-0.148187 0.09589,-0.293469 -0.209206,0.139471 -0.424224,0.22664 -0.215018,0.08717 -0.432942,0.08717 -0.299282,0 -0.517206,-0.122033 -0.217923,-0.119131 -0.3603,-0.322527 -0.142377,-0.203395 -0.212113,-0.464904 -0.06683,-0.264414 -0.06683,-0.552073 0,-0.226641 0.04068,-0.456187 0.04359,-0.232452 0.124943,-0.44747 0.08426,-0.215018 0.206301,-0.40098 0.122038,-0.188867 0.281848,-0.328338 0.159811,-0.139471 0.35449,-0.217924 0.194678,-0.08136 0.424224,-0.08136 0.249886,0 0.461999,0.110415 0.215018,0.110415 0.389357,0.273131 0.0058,-0.0523 0.0087,-0.08136 0.0029,-0.03196 0.01453,-0.0494 0.01162,-0.01743 0.03777,-0.02615 0.02906,-0.0087 0.08136,-0.02034 0.03196,-0.0058 0.116226,-0.02325 0.08426,-0.02034 0.200489,-0.04649 0.116226,-0.02615 0.255698,-0.05521 0.139471,-0.02906 0.281847,-0.06102 0.03487,-0.0087 0.06392,-0.0087 0.09007,0 0.09007,0.116226 0,0.01453 0,0.02906 0,0.01162 -0.0029,0.02615 z"
         id="path2761" />
      <path
         d="m -39.429425,99.071258 q 0,-0.0029 -0.0029,-0.0029 0,-0.0029 0,-0.0058 0,-0.03777 0.04068,-0.03777 0.02615,0 0.04649,0.02034 0.116226,0.110414 0.264414,0.18015 0.151094,0.06974 0.325433,0.06974 0.04649,0 0.107509,-0.0087 0.06102,-0.01162 0.116226,-0.03487 0.05521,-0.02325 0.09007,-0.06102 0.03777,-0.04068 0.03777,-0.09879 0,-0.06392 -0.03196,-0.116226 -0.03196,-0.05521 -0.08426,-0.09007 -0.02906,-0.02034 -0.101697,-0.06974 -0.07264,-0.0523 -0.156906,-0.110414 -0.08136,-0.05811 -0.156905,-0.110415 -0.07264,-0.0523 -0.101697,-0.07555 -0.130755,-0.09879 -0.209207,-0.20049 -0.07555,-0.101697 -0.116226,-0.209206 -0.04068,-0.110415 -0.0523,-0.229547 -0.01162,-0.119131 -0.01162,-0.252791 0,-0.203396 0.107509,-0.383546 0.107509,-0.18015 0.281848,-0.316716 0.177244,-0.136565 0.400979,-0.215018 0.223735,-0.08136 0.456187,-0.08136 0.191773,0 0.377735,0.05811 0.185961,0.05811 0.345772,0.197584 0.01453,0.183056 0.02034,0.360301 0.0058,0.177244 0.01743,0.371923 0,0.03777 -0.01743,0.0523 -0.01743,0.01162 -0.04068,0.01162 -0.02034,0 -0.03487,-0.01453 -0.06683,-0.06392 -0.136566,-0.124943 -0.06974,-0.06392 -0.148188,-0.110415 -0.07555,-0.0494 -0.162716,-0.07845 -0.08717,-0.03196 -0.185962,-0.03196 -0.06102,0 -0.122037,0.01162 -0.06102,0.0087 -0.110415,0.03777 -0.0494,0.02615 -0.08136,0.07264 -0.02906,0.04649 -0.02906,0.119132 0,0.08426 0.02034,0.145282 0.02034,0.06102 0.09589,0.119132 l 0.540451,0.366112 q 0.148188,0.101697 0.238263,0.200489 0.09298,0.09589 0.145283,0.191773 0.0523,0.09589 0.06974,0.191773 0.02034,0.09298 0.02034,0.185962 0,0.261508 -0.122037,0.461998 -0.119132,0.197584 -0.310905,0.331244 -0.191773,0.130754 -0.435847,0.197584 -0.241169,0.06973 -0.485244,0.06973 -0.185961,0 -0.3603,-0.04068 -0.171433,-0.03777 -0.319622,-0.119132 z"
         id="path2763" />
      <path
         d="m -33.975521,99.289181 q -0.0029,0.01162 -0.0029,0.02325 0,0.0087 0,0.01743 0,0.07264 0.02325,0.122038 0.02325,0.04649 0.0494,0.07845 0.02906,0.02906 0.0523,0.0494 0.02325,0.01743 0.02325,0.03196 0,0.04068 -0.08717,0.07555 l -0.78162,0.334141 q -0.0029,0.003 -0.02034,0.003 -0.02325,0 -0.04649,-0.04068 -0.02324,-0.04068 -0.04649,-0.104604 -0.02034,-0.06102 -0.04068,-0.130754 -0.01743,-0.07264 -0.03196,-0.13366 -0.183056,0.212112 -0.395168,0.310905 -0.212113,0.09879 -0.42132,0.09879 -0.244074,0 -0.476526,-0.107516 -0.232452,-0.107509 -0.412602,-0.305094 -0.180151,-0.200489 -0.290565,-0.482337 -0.107509,-0.281848 -0.107509,-0.633432 0,-0.415508 0.119131,-0.758374 0.122038,-0.342867 0.328339,-0.589847 0.206301,-0.24698 0.479432,-0.38064 0.276037,-0.136566 0.584035,-0.136566 0.217924,0 0.412603,0.09007 0.194678,0.08717 0.369017,0.226641 0.01743,-0.08717 0.02034,-0.139471 0.0029,-0.0523 0.01162,-0.08136 0.01162,-0.02906 0.04068,-0.03777 0.02906,-0.01162 0.09589,-0.01743 0.209206,-0.02906 0.415508,-0.0523 0.209206,-0.02615 0.435847,-0.03777 z m -0.868789,-1.095429 q 0.02906,-0.165622 0.03777,-0.310905 0.01162,-0.148188 0.01743,-0.270225 -0.04649,-0.03487 -0.101697,-0.07264 -0.0523,-0.03777 -0.116226,-0.06973 -0.06102,-0.03487 -0.130755,-0.05521 -0.06683,-0.02034 -0.142376,-0.02034 -0.156906,0 -0.264415,0.101698 -0.104603,0.101697 -0.171433,0.249886 -0.06392,0.148188 -0.09298,0.31381 -0.02615,0.165622 -0.02615,0.29347 0,0.459093 0.119132,0.674111 0.122037,0.212112 0.337055,0.212112 0.08717,0 0.194679,-0.0494 0.107509,-0.0494 0.217924,-0.136565 z"
         id="path2765" />
      <path
         d="m -32.089754,98.925975 q 0.02906,0.05811 0.08136,0.119132 0.05521,0.05811 0.124942,0.107509 0.07264,0.0494 0.156905,0.08136 0.08426,0.02906 0.174339,0.02906 0.124943,0 0.235358,-0.09589 0.110415,-0.09879 0.191773,-0.261508 0.08426,-0.165622 0.130754,-0.374829 0.04649,-0.212113 0.04649,-0.438753 0,-0.139471 -0.02615,-0.264414 -0.02325,-0.124943 -0.07555,-0.217924 -0.0523,-0.09298 -0.136566,-0.148188 -0.08136,-0.05521 -0.197584,-0.05521 -0.188867,0 -0.345772,0.110414 -0.156905,0.110415 -0.264414,0.281848 z m -1.080901,1.089615 q -0.04068,0.009 -0.06393,0.009 -0.09298,0 -0.09298,-0.110414 0,-0.01453 0,-0.02906 0.0029,-0.01453 0.0058,-0.03196 l 0.337055,-4.111494 q 0,-0.0087 0,-0.01743 0.0029,-0.0087 0.0029,-0.01453 0,-0.01162 -0.0029,-0.02034 0,-0.0087 0,-0.01453 0,-0.02615 0.01743,-0.04068 0.02034,-0.01743 0.09879,-0.03777 l 0.816488,-0.194679 q 0.03196,-0.0058 0.08426,-0.02615 0.0523,-0.02034 0.101697,-0.02034 0.03777,0 0.06974,0.01743 0.03487,0.01743 0.03487,0.06683 0,0.0058 -0.0029,0.01162 0,0.0058 0,0.01162 -0.0029,0.01453 -0.01453,0.127849 -0.01162,0.11332 -0.02615,0.276036 -0.01453,0.159811 -0.03196,0.345773 -0.01743,0.183056 -0.03196,0.345772 -0.01453,0.159811 -0.02615,0.273131 -0.01162,0.11332 -0.01453,0.127849 0.212112,-0.139472 0.438753,-0.232452 0.22664,-0.09589 0.453281,-0.09589 0.299282,0 0.517206,0.124943 0.217923,0.122037 0.3603,0.328338 0.142377,0.203396 0.209207,0.470716 0.06973,0.267319 0.06973,0.552073 0,0.229546 -0.04358,0.461998 -0.04068,0.229547 -0.122038,0.441659 -0.07845,0.212112 -0.200489,0.398074 -0.119132,0.185962 -0.276037,0.322527 -0.154,0.136566 -0.345772,0.215018 -0.191773,0.07845 -0.415508,0.07845 -0.270226,0 -0.493961,-0.119143 -0.223735,-0.119132 -0.415508,-0.307999 -0.0058,0.06974 -0.0087,0.110415 -0.0029,0.04068 -0.02034,0.06392 -0.01453,0.02034 -0.04649,0.03487 -0.03196,0.01162 -0.09589,0.02615 -0.03196,0.0087 -0.11332,0.02906 -0.07845,0.01743 -0.191773,0.04068 -0.110415,0.02615 -0.24698,0.05521 -0.13366,0.02906 -0.273131,0.05811 z"
         id="path2767" />
      <path
         d="m -28.257204,98.925975 q 0.02906,0.05811 0.08136,0.119132 0.05521,0.05811 0.124942,0.107509 0.07264,0.0494 0.156906,0.08136 0.08426,0.02906 0.174339,0.02906 0.124942,0 0.235357,-0.09589 0.110415,-0.09879 0.191773,-0.261508 0.08426,-0.165622 0.130754,-0.374829 0.04649,-0.212113 0.04649,-0.438753 0,-0.139471 -0.02615,-0.264414 -0.02324,-0.124943 -0.07555,-0.217924 -0.0523,-0.09298 -0.136566,-0.148188 -0.08136,-0.05521 -0.197584,-0.05521 -0.188867,0 -0.345772,0.110414 -0.156905,0.110415 -0.264414,0.281848 z m -1.080901,1.089615 q -0.04068,0.009 -0.06392,0.009 -0.09298,0 -0.09298,-0.110414 0,-0.01453 0,-0.02906 0.0029,-0.01453 0.0058,-0.03196 l 0.337055,-4.111494 q 0,-0.0087 0,-0.01743 0.0029,-0.0087 0.0029,-0.01453 0,-0.01162 -0.0029,-0.02034 0,-0.0087 0,-0.01453 0,-0.02615 0.01743,-0.04068 0.02034,-0.01743 0.09879,-0.03777 l 0.816488,-0.194679 q 0.03196,-0.0058 0.08426,-0.02615 0.0523,-0.02034 0.101697,-0.02034 0.03777,0 0.06974,0.01743 0.03487,0.01743 0.03487,0.06683 0,0.0058 -0.0029,0.01162 0,0.0058 0,0.01162 -0.0029,0.01453 -0.01453,0.127849 -0.01162,0.11332 -0.02615,0.276036 -0.01453,0.159811 -0.03196,0.345773 -0.01743,0.183056 -0.03196,0.345772 -0.01453,0.159811 -0.02615,0.273131 -0.01162,0.11332 -0.01453,0.127849 0.212112,-0.139472 0.438753,-0.232452 0.22664,-0.09589 0.453281,-0.09589 0.299282,0 0.517206,0.124943 0.217923,0.122037 0.3603,0.328338 0.142377,0.203396 0.209207,0.470716 0.06974,0.267319 0.06974,0.552073 0,0.229546 -0.04358,0.461998 -0.04068,0.229547 -0.122038,0.441659 -0.07845,0.212112 -0.200489,0.398074 -0.119132,0.185962 -0.276037,0.322527 -0.153999,0.136566 -0.345772,0.215018 -0.191773,0.07845 -0.415508,0.07845 -0.270226,0 -0.493961,-0.119143 -0.223735,-0.119132 -0.415507,-0.307999 -0.0058,0.06974 -0.0087,0.110415 -0.0029,0.04068 -0.02034,0.06392 -0.01453,0.02034 -0.04649,0.03487 -0.03196,0.01162 -0.09589,0.02615 -0.03196,0.0087 -0.11332,0.02906 -0.07845,0.01743 -0.191773,0.04068 -0.110415,0.02615 -0.24698,0.05521 -0.13366,0.02906 -0.273131,0.05811 z"
         id="path2769" />
      <path
         d="m -22.684166,99.289181 q -0.0029,0.01162 -0.0029,0.02325 0,0.0087 0,0.01743 0,0.07264 0.02324,0.122038 0.02324,0.04649 0.0494,0.07845 0.02906,0.02906 0.0523,0.0494 0.02325,0.01743 0.02325,0.03196 0,0.04068 -0.08717,0.07555 l -0.781619,0.334141 q -0.0029,0.003 -0.02034,0.003 -0.02324,0 -0.04649,-0.04068 -0.02325,-0.04068 -0.04649,-0.104604 -0.02034,-0.06102 -0.04068,-0.130754 -0.01743,-0.07264 -0.03196,-0.13366 -0.183056,0.212112 -0.395168,0.310905 -0.212113,0.09879 -0.42132,0.09879 -0.244074,0 -0.476526,-0.107516 -0.232452,-0.107509 -0.412602,-0.305094 -0.18015,-0.200489 -0.290565,-0.482337 -0.107509,-0.281848 -0.107509,-0.633432 0,-0.415508 0.119131,-0.758374 0.122038,-0.342867 0.328339,-0.589847 0.206301,-0.24698 0.479432,-0.38064 0.276037,-0.136566 0.584035,-0.136566 0.217924,0 0.412603,0.09007 0.194678,0.08717 0.369017,0.226641 0.01743,-0.08717 0.02034,-0.139471 0.0029,-0.0523 0.01162,-0.08136 0.01162,-0.02906 0.04068,-0.03777 0.02906,-0.01162 0.09589,-0.01743 0.209207,-0.02906 0.415508,-0.0523 0.209206,-0.02615 0.435847,-0.03777 z m -0.868789,-1.095429 q 0.02906,-0.165622 0.03777,-0.310905 0.01162,-0.148188 0.01743,-0.270225 -0.04649,-0.03487 -0.101697,-0.07264 -0.0523,-0.03777 -0.116226,-0.06973 -0.06102,-0.03487 -0.130755,-0.05521 -0.06683,-0.02034 -0.142376,-0.02034 -0.156905,0 -0.264414,0.101698 -0.104604,0.101697 -0.171434,0.249886 -0.06392,0.148188 -0.09298,0.31381 -0.02615,0.165622 -0.02615,0.29347 0,0.459093 0.119131,0.674111 0.122038,0.212112 0.337056,0.212112 0.08717,0 0.194678,-0.0494 0.107509,-0.0494 0.217924,-0.136565 z"
         id="path2771" />
      <path
         d="m -20.458441,97.632961 q -0.04068,0.305093 -0.07845,0.610187 -0.03487,0.302187 -0.04359,0.566601 0,0.113321 0.01743,0.188867 0.01743,0.07555 0.0494,0.119132 0.03487,0.04358 0.08136,0.06392 0.04649,0.01743 0.104604,0.01743 0.09298,0 0.203395,-0.02615 0.110415,-0.02906 0.22083,-0.07264 0.03487,-0.01453 0.05811,-0.02034 0.02615,-0.0087 0.04358,-0.0087 0.02906,0 0.03777,0.02615 0.01162,0.02615 0.02034,0.09298 0.01162,0.06392 0.03196,0.174339 0.02034,0.110415 0.06683,0.278943 0.0029,0.01453 0.0029,0.02615 0.0029,0.0087 0.0029,0.01743 0,0.04068 -0.03196,0.05811 -0.02906,0.01743 -0.09879,0.04068 -0.119132,0.04068 -0.252792,0.08426 -0.130754,0.04068 -0.261508,0.07555 -0.127849,0.03487 -0.246981,0.05521 -0.119131,0.0232 -0.209206,0.0232 -0.485244,0 -0.708979,-0.241168 -0.220829,-0.241169 -0.220829,-0.73513 0,-0.08426 0.0058,-0.171433 0.0058,-0.09008 0.01453,-0.185961 0.02906,-0.290565 0.0494,-0.549168 0.02325,-0.261509 0.04649,-0.499772 h -0.305093 q -0.156905,0 -0.226641,-0.01162 -0.06974,-0.01453 -0.06974,-0.05521 0,-0.01162 0.02906,-0.06102 0.02906,-0.0523 0.07264,-0.122038 0.04649,-0.07264 0.09879,-0.153999 0.0523,-0.08136 0.09879,-0.151094 0.0494,-0.07264 0.08426,-0.124943 0.03487,-0.0523 0.04359,-0.06392 h 0.206301 q 0.02615,-0.220829 0.04068,-0.369018 0.01743,-0.151093 0.02615,-0.249885 0.01162,-0.09879 0.02034,-0.151094 0.0087,-0.05521 0.01743,-0.08136 0.01162,-0.02615 0.02615,-0.03196 0.01743,-0.0087 0.04359,-0.01453 0.130754,-0.02615 0.252791,-0.04649 0.122038,-0.02325 0.244075,-0.04649 0.122037,-0.02325 0.24698,-0.0523 0.127849,-0.03196 0.264414,-0.07264 0.0087,0 0.01162,0 0.0029,-0.0029 0.01162,-0.0029 0.03487,0 0.03487,0.02325 v 0.0058 q -0.01453,0.159811 -0.04649,0.444565 -0.02906,0.284753 -0.06683,0.645054 h 0.778714 q 0.02324,0 0.04359,0.01743 0.02324,0.01453 0.02324,0.0523 0,0.01453 -0.03487,0.104603 -0.03487,0.09007 -0.09879,0.235357 l -0.104603,0.235358 q -0.02034,0.04359 -0.04359,0.06392 -0.02034,0.02034 -0.08717,0.02615 z"
         id="path2773" />
      <path
         d="m -19.235161,98.641222 q 0.03777,-0.398074 0.07555,-0.787431 0.03777,-0.389357 0.06683,-0.799054 0.0058,-0.09589 0.01743,-0.130754 0.01453,-0.03777 0.06683,-0.0494 0.24698,-0.0494 0.517205,-0.101698 0.270226,-0.05521 0.523017,-0.139471 0.0087,-0.0029 0.02615,-0.0029 0.03196,0 0.03196,0.02325 l -0.261508,2.830103 q -0.0087,0.09589 -0.02034,0.13366 -0.01162,0.03487 -0.06392,0.04649 -0.24698,0.07555 -0.499772,0.168528 -0.252791,0.09298 -0.534639,0.188865 -0.0087,0.003 -0.02615,0.003 -0.03196,0 -0.03196,-0.02906 0,-0.0029 0.0058,-0.07845 0.0058,-0.07555 0.01453,-0.194679 0.01162,-0.119132 0.02325,-0.26732 0.01162,-0.148188 0.02324,-0.296376 0.01453,-0.148188 0.02615,-0.284754 0.01162,-0.136565 0.02034,-0.232451 z m 0.217924,-2.318709 q 0.0087,-0.124943 0.01162,-0.191773 0.0058,-0.06683 0.0087,-0.09879 0.0029,-0.03487 0.0029,-0.04358 0,-0.0087 0,-0.01162 0.0029,-0.0058 0.0029,-0.01743 0.0029,-0.01453 0.0058,-0.05521 0.0029,-0.04358 0.0087,-0.124943 0.0058,-0.08136 0.01743,-0.223735 0.0058,-0.09589 0.01743,-0.130754 0.01453,-0.03777 0.06683,-0.0494 0.24698,-0.0494 0.517205,-0.101698 0.270226,-0.05521 0.523017,-0.139471 0.0087,-0.0029 0.02615,-0.0029 0.0087,0.01743 0.02324,0.02325 l 0.0087,0.0058 -0.06392,0.796148 q -0.0087,0.09589 -0.02324,0.133659 -0.01162,0.03777 -0.06102,0.04649 -0.24698,0.04649 -0.499772,0.101698 -0.252791,0.05521 -0.534639,0.110414 -0.0087,0.0029 -0.02615,0.0029 -0.03196,0 -0.03196,-0.02906 z"
         id="path2775" />
      <path
         d="m -17.590565,98.45526 q 0,-0.38064 0.139471,-0.711884 0.142377,-0.33415 0.389357,-0.58113 0.249886,-0.24698 0.586941,-0.389357 0.339961,-0.142377 0.738035,-0.142377 0.270225,0 0.461998,0.04359 0.191773,0.04358 0.31381,0.09879 0.122038,0.0523 0.177245,0.09879 0.05811,0.04359 0.05811,0.04649 0,0.01743 -0.01453,0.09879 -0.01162,0.07845 -0.02906,0.185961 -0.01453,0.104603 -0.02906,0.217924 -0.01162,0.110414 -0.01162,0.191773 0,0.01453 -0.0087,0.03196 -0.0087,0.01743 -0.04649,0.01743 -0.03487,0 -0.101698,-0.02325 -0.06683,-0.02615 -0.165622,-0.05521 -0.09589,-0.02906 -0.223735,-0.0523 -0.124943,-0.02615 -0.278942,-0.02615 -0.191773,0 -0.345773,0.06974 -0.153999,0.06683 -0.264414,0.188867 -0.110414,0.119132 -0.171433,0.284754 -0.05811,0.165622 -0.05811,0.357395 0,0.20049 0.06102,0.342867 0.06392,0.139471 0.168527,0.229546 0.104604,0.08717 0.241169,0.127848 0.136566,0.04068 0.28766,0.04068 0.174339,0 0.351583,-0.04649 0.177245,-0.0494 0.33415,-0.136565 0.0058,-0.0029 0.02324,-0.0029 0.01453,0 0.02034,0.01453 0.0087,0.01453 0.0087,0.05521 0,0.09298 0,0.22664 0,0.130754 -0.0029,0.252792 0,0.119131 -0.0029,0.203395 -0.0029,0.08426 -0.0058,0.08426 -0.104603,0.06974 -0.226641,0.11332 -0.122037,0.04359 -0.252791,0.06974 -0.127849,0.02615 -0.258603,0.03486 -0.130754,0.009 -0.252792,0.009 -0.339961,0 -0.633431,-0.113324 -0.293471,-0.11332 -0.511394,-0.319621 -0.215018,-0.206301 -0.339961,-0.493961 -0.124943,-0.290564 -0.124943,-0.642148 z"
         id="path2777" />
      <path
         d="m -11.538097,99.289181 q -0.0029,0.01162 -0.0029,0.02325 0,0.0087 0,0.01743 0,0.07264 0.02324,0.122038 0.02325,0.04649 0.0494,0.07845 0.02906,0.02906 0.0523,0.0494 0.02324,0.01743 0.02324,0.03196 0,0.04068 -0.08717,0.07555 l -0.78162,0.334141 q -0.0029,0.003 -0.02034,0.003 -0.02325,0 -0.04649,-0.04068 -0.02325,-0.04068 -0.04649,-0.104604 -0.02034,-0.06102 -0.04068,-0.130754 -0.01743,-0.07264 -0.03196,-0.13366 -0.183056,0.212112 -0.395169,0.310905 -0.212112,0.09879 -0.421319,0.09879 -0.244074,0 -0.476526,-0.107516 -0.232452,-0.107509 -0.412603,-0.305094 -0.18015,-0.200489 -0.290565,-0.482337 -0.107509,-0.281848 -0.107509,-0.633432 0,-0.415508 0.119132,-0.758374 0.122037,-0.342867 0.328338,-0.589847 0.206301,-0.24698 0.479433,-0.38064 0.276036,-0.136566 0.584035,-0.136566 0.217924,0 0.412602,0.09007 0.194679,0.08717 0.369018,0.226641 0.01743,-0.08717 0.02034,-0.139471 0.0029,-0.0523 0.01162,-0.08136 0.01162,-0.02906 0.04068,-0.03777 0.02906,-0.01162 0.09589,-0.01743 0.209207,-0.02906 0.415508,-0.0523 0.209207,-0.02615 0.435848,-0.03777 z m -0.868789,-1.095429 q 0.02906,-0.165622 0.03777,-0.310905 0.01162,-0.148188 0.01743,-0.270225 -0.04649,-0.03487 -0.101698,-0.07264 -0.0523,-0.03777 -0.116226,-0.06973 -0.06102,-0.03487 -0.130754,-0.05521 -0.06683,-0.02034 -0.142377,-0.02034 -0.156905,0 -0.264414,0.101698 -0.104603,0.101697 -0.171433,0.249886 -0.06392,0.148188 -0.09298,0.31381 -0.02615,0.165622 -0.02615,0.29347 0,0.459093 0.119132,0.674111 0.122037,0.212112 0.337055,0.212112 0.08717,0 0.194679,-0.0494 0.107509,-0.0494 0.217923,-0.136565 z"
         id="path2779" />
      <path
         d="m -10.678024,97.415038 q 0.03487,-0.398074 0.05521,-0.787431 0.02324,-0.389357 0.0494,-0.799054 0.0058,-0.09589 0.01743,-0.130754 0.01453,-0.03777 0.06683,-0.0494 0.270225,-0.0494 0.5404508,-0.09879 0.273131,-0.0523 0.5462621,-0.136566 0.00872,-0.0029 0.026151,-0.0029 0.031962,0 0.031962,0.02906 l -0.3777345,4.149267 v 0.0494 q 0,0.02615 -0.020339,0.04358 -0.02034,0.01453 -0.095886,0.03487 l -0.7612804,0.278942 q -0.03196,0.01453 -0.08426,0.02906 -0.0523,0.0174 -0.101698,0.0174 -0.04068,0 -0.07264,-0.0203 -0.02906,-0.0203 -0.02906,-0.06973 v -0.01743 q 0.02324,-0.293471 0.04359,-0.572413 0.02324,-0.281848 0.04649,-0.58113 0.02615,-0.299282 0.05521,-0.633432 0.02906,-0.33415 0.06392,-0.732223 z"
         id="path2781" />
    </g>
  </g>
</svg>
