<?xml version="1.0" encoding="UTF-8" standalone="no"?>
<!-- Created with Inkscape (http://www.inkscape.org/) -->

<svg
   width="249.42761"
   height="173.56311"
   viewBox="0 0 65.994386 45.921906"
   version="1.1"
   id="svg5"
   inkscape:version="1.2 (dc2aedaf03, 2022-05-15)"
   sodipodi:docname="Scene 7.svg"
   xmlns:inkscape="http://www.inkscape.org/namespaces/inkscape"
   xmlns:sodipodi="http://sodipodi.sourceforge.net/DTD/sodipodi-0.dtd"
   xmlns="http://www.w3.org/2000/svg"
   xmlns:svg="http://www.w3.org/2000/svg">
  <sodipodi:namedview
     id="namedview7"
     pagecolor="#ffffff"
     bordercolor="#666666"
     borderopacity="1.0"
     inkscape:showpageshadow="2"
     inkscape:pageopacity="0.0"
     inkscape:pagecheckerboard="0"
     inkscape:deskcolor="#d1d1d1"
     inkscape:document-units="mm"
     showgrid="true"
     inkscape:zoom="1.4142136"
     inkscape:cx="1384.1615"
     inkscape:cy="492.49987"
     inkscape:window-width="1920"
     inkscape:window-height="991"
     inkscape:window-x="-9"
     inkscape:window-y="-9"
     inkscape:window-maximized="1"
     inkscape:current-layer="g6740">
    <inkscape:grid
       type="axonomgrid"
       id="grid1326"
       snapvisiblegridlinesonly="false"
       units="px"
       spacingy="2.6458333"
       originx="169.33333"
       originy="95.25" />
  </sodipodi:namedview>
  <defs
     id="defs2" />
  <g
     inkscape:groupmode="layer"
     id="layer3"
     inkscape:label="scene 3"
     transform="matrix(0.10379619,0,0,0.10379619,-198.40116,-87.779982)">
    <g
       id="g6740"
       transform="matrix(13.564821,0,0,13.564821,466.95107,-1367.1742)"
       inkscape:label="Computer">
      <g
         aria-label="&gt;&gt;&gt; To show the world
    what I have in store"
         transform="matrix(0.87711176,0.47449975,-0.32331266,0.96519994,0,0)"
         id="text7233-6"
         style="font-size:3.8372px;font-family:'Nunito Sans';-inkscape-font-specification:'Nunito Sans, Normal';fill:#ffffff;stroke-width:0.205563">
        <path
           d="m 157.52961,93.270957 -1.24409,-0.689497 q -0.0937,-0.05246 -0.12553,-0.09368 -0.03,-0.04122 -0.03,-0.104923 0,-0.08057 0.0581,-0.138649 0.0581,-0.05808 0.13678,-0.05808 0.0487,0 0.14989,0.05434 l 1.85302,1.030498 -1.85302,1.030498 q -0.10118,0.05621 -0.14989,0.05621 -0.0787,0 -0.13678,-0.05808 -0.0581,-0.05808 -0.0581,-0.140523 0,-0.0637 0.03,-0.104923 0.0319,-0.04122 0.12553,-0.09368 z"
           style="-inkscape-font-specification:'Courier New Bold'"
           id="path8016" />
        <path
           d="m 159.83231,93.270957 -1.24409,-0.689497 q -0.0937,-0.05246 -0.12554,-0.09368 -0.03,-0.04122 -0.03,-0.104923 0,-0.08057 0.0581,-0.138649 0.0581,-0.05808 0.13677,-0.05808 0.0487,0 0.14989,0.05434 l 1.85303,1.030498 -1.85303,1.030498 q -0.10117,0.05621 -0.14989,0.05621 -0.0787,0 -0.13677,-0.05808 -0.0581,-0.05808 -0.0581,-0.140523 0,-0.0637 0.03,-0.104923 0.0319,-0.04122 0.12554,-0.09368 z"
           style="-inkscape-font-specification:'Courier New Bold'"
           id="path8018" />
        <path
           d="m 162.135,93.270957 -1.24409,-0.689497 q -0.0937,-0.05246 -0.12553,-0.09368 -0.03,-0.04122 -0.03,-0.104923 0,-0.08057 0.0581,-0.138649 0.0581,-0.05808 0.13678,-0.05808 0.0487,0 0.14989,0.05434 l 1.85302,1.030498 -1.85302,1.030498 q -0.10118,0.05621 -0.14989,0.05621 -0.0787,0 -0.13678,-0.05808 -0.0581,-0.05808 -0.0581,-0.140523 0,-0.0637 0.03,-0.104923 0.0319,-0.04122 0.12553,-0.09368 z"
           style="-inkscape-font-specification:'Courier New Bold'"
           id="path8020" />
        <path
           d="m 166.52118,92.47841 v 1.502653 h 0.25856 q 0.13865,0 0.19673,0.05434 0.06,0.05246 0.06,0.138649 0,0.08431 -0.06,0.138648 -0.0581,0.05246 -0.19673,0.05246 h -0.89934 q -0.13865,0 -0.19861,-0.05246 -0.0581,-0.05434 -0.0581,-0.140522 0,-0.08431 0.0581,-0.136775 0.06,-0.05434 0.19861,-0.05434 h 0.25668 V 92.47841 h -0.41594 v 0.363485 q 0,0.138648 -0.0543,0.198605 -0.0525,0.05808 -0.13865,0.05808 -0.0843,0 -0.13865,-0.05808 -0.0525,-0.05996 -0.0525,-0.198605 v -0.749453 l 1.9898,0.0019 v 0.74758 q 0,0.138648 -0.0543,0.198605 -0.0525,0.05808 -0.13865,0.05808 -0.0843,0 -0.13865,-0.05808 -0.0525,-0.05996 -0.0525,-0.198605 V 92.47841 Z"
           style="-inkscape-font-specification:'Courier New Bold'"
           id="path8022" />
        <path
           d="m 169.63516,93.546381 q 0,0.221088 -0.12366,0.429061 -0.12179,0.2061 -0.36536,0.32976 -0.2417,0.121786 -0.50588,0.121786 -0.26231,0 -0.50214,-0.119913 -0.23982,-0.121786 -0.36535,-0.329759 -0.12554,-0.207973 -0.12554,-0.434683 0,-0.230457 0.12741,-0.451545 0.12741,-0.222963 0.36536,-0.35037 0.23982,-0.127407 0.50026,-0.127407 0.26231,0 0.504,0.131155 0.24358,0.12928 0.36724,0.350369 0.12366,0.219215 0.12366,0.451546 z m -0.3841,0.0019 q 0,-0.185489 -0.13303,-0.341001 -0.18174,-0.209847 -0.47777,-0.209847 -0.26044,0 -0.43469,0.166753 -0.17424,0.166754 -0.17424,0.385969 0,0.179869 0.17612,0.337254 0.17612,0.155511 0.43281,0.155511 0.25856,0 0.43468,-0.155511 0.17612,-0.157385 0.17612,-0.339128 z"
           style="-inkscape-font-specification:'Courier New Bold'"
           id="path8024" />
        <path
           d="m 173.65785,93.113571 q -0.0937,-0.05808 -0.19673,-0.08619 -0.10305,-0.02998 -0.21547,-0.02998 -0.22296,0 -0.35412,0.07307 -0.0581,0.03185 -0.0581,0.06932 0,0.04309 0.0787,0.08431 0.06,0.02998 0.26793,0.05808 0.38222,0.05246 0.53211,0.104924 0.19673,0.06932 0.30353,0.206099 0.1068,0.136776 0.1068,0.28854 0,0.206099 -0.18174,0.344748 -0.26044,0.200479 -0.67639,0.200479 -0.16675,0 -0.30915,-0.02998 -0.14052,-0.0281 -0.25856,-0.08431 -0.0281,0.02436 -0.06,0.03747 -0.0318,0.01311 -0.0656,0.01311 -0.0899,0 -0.14427,-0.05808 -0.0525,-0.05996 -0.0525,-0.198605 v -0.129281 q 0,-0.138649 0.0525,-0.196731 0.0543,-0.05996 0.14052,-0.05996 0.0693,0 0.11617,0.03935 0.0468,0.03747 0.0731,0.131154 0.0881,0.07494 0.21172,0.114292 0.12366,0.03747 0.28479,0.03747 0.26418,0 0.41033,-0.08244 0.0693,-0.04122 0.0693,-0.08619 0,-0.07494 -0.0993,-0.123659 -0.0993,-0.04872 -0.41033,-0.08244 -0.46278,-0.04872 -0.61829,-0.187364 -0.15552,-0.136775 -0.15552,-0.337253 0,-0.2061 0.17425,-0.342875 0.23608,-0.187364 0.6183,-0.187364 0.13303,0 0.25481,0.02623 0.12366,0.02436 0.23608,0.07682 0.0356,-0.02623 0.0656,-0.03935 0.0318,-0.01311 0.0581,-0.01311 0.0787,0 0.13116,0.05996 0.0525,0.05808 0.0525,0.196731 v 0.09368 q 0,0.125533 -0.03,0.1705 -0.06,0.08619 -0.16301,0.08619 -0.0693,0 -0.12178,-0.04309 -0.0525,-0.04309 -0.0675,-0.114292 z"
           style="-inkscape-font-specification:'Courier New Bold'"
           id="path8026" />
        <path
           d="m 175.14926,91.935056 v 0.818778 q 0.11991,-0.0712 0.2417,-0.104924 0.12366,-0.0356 0.24919,-0.0356 0.1986,0 0.35412,0.06745 0.15551,0.06745 0.25668,0.213594 0.10305,0.14427 0.10305,0.365359 v 0.721348 q 0.14615,0 0.19111,0.0281 0.0899,0.05808 0.0899,0.16488 0,0.08431 -0.0581,0.138648 -0.0581,0.05246 -0.19674,0.05246 h -0.43843 q -0.13677,0 -0.19673,-0.05246 -0.0581,-0.05434 -0.0581,-0.140522 0,-0.104924 0.0899,-0.163006 0.0468,-0.02998 0.19111,-0.0281 v -0.695117 q 0,-0.148017 -0.0675,-0.207974 -0.0881,-0.08057 -0.26043,-0.08057 -0.12741,0 -0.22671,0.05059 -0.0974,0.04872 -0.26418,0.213594 v 0.719475 q 0.14802,0 0.19111,0.0281 0.0918,0.05808 0.0918,0.16488 0,0.08431 -0.06,0.138648 -0.0581,0.05246 -0.19673,0.05246 h -0.43656 q -0.13865,0 -0.1986,-0.05246 -0.0581,-0.05434 -0.0581,-0.140522 0,-0.104924 0.0918,-0.163006 0.045,-0.02998 0.19111,-0.0281 v -1.661912 h -0.0656 q -0.13865,0 -0.19861,-0.05246 -0.0581,-0.05433 -0.0581,-0.140522 0,-0.08431 0.0581,-0.136775 0.06,-0.05434 0.19861,-0.05434 z"
           style="-inkscape-font-specification:'Courier New Bold'"
           id="path8028" />
        <path
           d="m 178.84594,93.546381 q 0,0.221088 -0.12366,0.429061 -0.12179,0.2061 -0.36536,0.32976 -0.2417,0.121786 -0.50588,0.121786 -0.26231,0 -0.50214,-0.119913 -0.23982,-0.121786 -0.36536,-0.329759 -0.12553,-0.207973 -0.12553,-0.434683 0,-0.230457 0.12741,-0.451545 0.1274,-0.222963 0.36536,-0.35037 0.23982,-0.127407 0.50026,-0.127407 0.2623,0 0.504,0.131155 0.24358,0.12928 0.36724,0.350369 0.12366,0.219215 0.12366,0.451546 z m -0.3841,0.0019 q 0,-0.185489 -0.13303,-0.341001 -0.18174,-0.209847 -0.47777,-0.209847 -0.26044,0 -0.43469,0.166753 -0.17424,0.166754 -0.17424,0.385969 0,0.179869 0.17612,0.337254 0.17612,0.155511 0.43281,0.155511 0.25856,0 0.43468,-0.155511 0.17612,-0.157385 0.17612,-0.339128 z"
           style="-inkscape-font-specification:'Courier New Bold'"
           id="path8030" />
        <path
           d="m 180.15373,93.656925 -0.26606,0.708233 h -0.36161 l -0.32226,-1.317164 q -0.10492,-0.0056 -0.15926,-0.05808 -0.0525,-0.05434 -0.0525,-0.134902 0,-0.08431 0.0581,-0.136775 0.06,-0.05434 0.19861,-0.05434 h 0.35786 q 0.13865,0 0.19673,0.05434 0.06,0.05246 0.06,0.138649 0,0.08619 -0.0674,0.146143 -0.0506,0.04497 -0.19861,0.04497 l 0.14614,0.608931 0.23796,-0.62392 h 0.341 l 0.23982,0.62392 0.14989,-0.608931 q -0.14239,0 -0.18736,-0.0281 -0.0899,-0.05808 -0.0899,-0.16488 0,-0.08431 0.0581,-0.136775 0.0599,-0.05434 0.1986,-0.05434 h 0.36161 q 0.13865,0 0.19674,0.05434 0.06,0.05246 0.06,0.138649 0,0.07682 -0.0525,0.131154 -0.0506,0.05246 -0.15176,0.05996 l -0.31477,1.317164 h -0.35599 z"
           style="-inkscape-font-specification:'Courier New Bold'"
           id="path8032" />
        <path
           d="m 184.66169,93.047994 v 0.770063 q 0,0.12366 0.0506,0.163006 0.0787,0.06183 0.28105,0.06183 0.29416,0 0.54335,-0.125533 0.0956,-0.04872 0.14989,-0.04872 0.0749,0 0.12928,0.05621 0.0562,0.05621 0.0562,0.136776 0,0.07494 -0.06,0.12928 -0.0918,0.08806 -0.36348,0.163006 -0.26981,0.07307 -0.45529,0.07307 -0.35787,0 -0.53774,-0.153638 -0.17799,-0.155511 -0.17799,-0.380347 v -0.845009 h -0.13865 q -0.13865,0 -0.19861,-0.05246 -0.0581,-0.05434 -0.0581,-0.140523 0,-0.08431 0.0581,-0.136775 0.06,-0.05434 0.19861,-0.05434 h 0.13865 v -0.346623 q 0,-0.138648 0.0525,-0.196731 0.0543,-0.05996 0.14052,-0.05996 0.0843,0 0.13678,0.05996 0.0543,0.05808 0.0543,0.196731 V 92.6639 h 0.71011 q 0.13865,0 0.19673,0.05434 0.06,0.05246 0.06,0.138649 0,0.08431 -0.06,0.138649 -0.0581,0.05246 -0.19673,0.05246 z"
           style="-inkscape-font-specification:'Courier New Bold'"
           id="path8034" />
        <path
           d="m 186.66273,91.935056 v 0.818778 q 0.11991,-0.0712 0.2417,-0.104924 0.12366,-0.0356 0.24919,-0.0356 0.19861,0 0.35412,0.06745 0.15551,0.06745 0.25669,0.213594 0.10305,0.14427 0.10305,0.365359 v 0.721348 q 0.14614,0 0.19111,0.0281 0.0899,0.05808 0.0899,0.16488 0,0.08431 -0.0581,0.138648 -0.0581,0.05246 -0.19673,0.05246 h -0.43843 q -0.13678,0 -0.19673,-0.05246 -0.0581,-0.05434 -0.0581,-0.140522 0,-0.104924 0.0899,-0.163006 0.0468,-0.02998 0.19111,-0.0281 v -0.695117 q 0,-0.148017 -0.0674,-0.207974 -0.0881,-0.08057 -0.26044,-0.08057 -0.1274,0 -0.22671,0.05059 -0.0974,0.04872 -0.26418,0.213594 v 0.719475 q 0.14802,0 0.19111,0.0281 0.0918,0.05808 0.0918,0.16488 0,0.08431 -0.06,0.138648 -0.0581,0.05246 -0.19673,0.05246 h -0.43655 q -0.13865,0 -0.19861,-0.05246 -0.0581,-0.05434 -0.0581,-0.140522 0,-0.104924 0.0918,-0.163006 0.045,-0.02998 0.19111,-0.0281 v -1.661912 h -0.0656 q -0.13865,0 -0.19861,-0.05246 -0.0581,-0.05433 -0.0581,-0.140522 0,-0.08431 0.0581,-0.136775 0.06,-0.05434 0.19861,-0.05434 z"
           style="-inkscape-font-specification:'Courier New Bold'"
           id="path8036" />
        <path
           d="m 190.32569,93.709387 h -1.57573 q 0.06,0.14989 0.21172,0.241698 0.15364,0.09181 0.41407,0.09181 0.2136,0 0.56771,-0.09181 0.14615,-0.03747 0.20236,-0.03747 0.0768,0 0.12928,0.05434 0.0525,0.05433 0.0525,0.136775 0,0.07494 -0.0562,0.127407 -0.075,0.06933 -0.36536,0.133028 -0.29041,0.06183 -0.55834,0.06183 -0.46091,0 -0.73821,-0.260435 -0.27543,-0.260435 -0.27543,-0.640782 0,-0.404705 0.29791,-0.657646 0.29978,-0.254814 0.6895,-0.254814 0.2342,0 0.42906,0.08244 0.19673,0.08244 0.29229,0.177995 0.1349,0.138649 0.22296,0.342875 0.06,0.142396 0.06,0.32976 z m -0.42532,-0.384095 q -0.0881,-0.16488 -0.23046,-0.245446 -0.14239,-0.08244 -0.33912,-0.08244 -0.19486,0 -0.33726,0.08244 -0.14239,0.08057 -0.23233,0.245446 z"
           style="-inkscape-font-specification:'Courier New Bold'"
           id="path8038" />
        <path
           d="m 193.9699,93.656925 -0.26606,0.708233 h -0.36161 l -0.32226,-1.317164 q -0.10492,-0.0056 -0.15926,-0.05808 -0.0525,-0.05434 -0.0525,-0.134902 0,-0.08431 0.0581,-0.136775 0.06,-0.05434 0.19861,-0.05434 h 0.35786 q 0.13865,0 0.19673,0.05434 0.06,0.05246 0.06,0.138649 0,0.08619 -0.0674,0.146143 -0.0506,0.04497 -0.19861,0.04497 l 0.14614,0.608931 0.23796,-0.62392 h 0.341 l 0.23982,0.62392 0.14989,-0.608931 q -0.14239,0 -0.18736,-0.0281 -0.0899,-0.05808 -0.0899,-0.16488 0,-0.08431 0.0581,-0.136775 0.0599,-0.05434 0.1986,-0.05434 h 0.36161 q 0.13865,0 0.19674,0.05434 0.06,0.05246 0.06,0.138649 0,0.07682 -0.0525,0.131154 -0.0506,0.05246 -0.15176,0.05996 l -0.31477,1.317164 h -0.35599 z"
           style="-inkscape-font-specification:'Courier New Bold'"
           id="path8040" />
        <path
           d="m 197.2675,93.546381 q 0,0.221088 -0.12366,0.429061 -0.12179,0.2061 -0.36536,0.32976 -0.2417,0.121786 -0.50588,0.121786 -0.26231,0 -0.50214,-0.119913 -0.23982,-0.121786 -0.36536,-0.329759 -0.12553,-0.207973 -0.12553,-0.434683 0,-0.230457 0.12741,-0.451545 0.12741,-0.222963 0.36536,-0.35037 0.23982,-0.127407 0.50026,-0.127407 0.26231,0 0.504,0.131155 0.24358,0.12928 0.36724,0.350369 0.12366,0.219215 0.12366,0.451546 z m -0.3841,0.0019 q 0,-0.185489 -0.13303,-0.341001 -0.18174,-0.209847 -0.47777,-0.209847 -0.26044,0 -0.43469,0.166753 -0.17424,0.166754 -0.17424,0.385969 0,0.179869 0.17612,0.337254 0.17612,0.155511 0.43281,0.155511 0.25856,0 0.43468,-0.155511 0.17612,-0.157385 0.17612,-0.339128 z"
           style="-inkscape-font-specification:'Courier New Bold'"
           id="path8042" />
        <path
           d="m 198.49285,92.6639 v 0.239825 q 0.2417,-0.174248 0.38035,-0.232331 0.14052,-0.05808 0.26231,-0.05808 0.18736,0 0.36348,0.138649 0.11991,0.09368 0.11991,0.191111 0,0.08244 -0.0581,0.140522 -0.0562,0.05621 -0.13678,0.05621 -0.0712,0 -0.14989,-0.0712 -0.0787,-0.0712 -0.14052,-0.0712 -0.0806,0 -0.2417,0.101176 -0.15926,0.101176 -0.39908,0.303529 v 0.578952 h 0.5471 q 0.13865,0 0.19673,0.05434 0.06,0.05246 0.06,0.138649 0,0.08431 -0.06,0.138648 -0.0581,0.05246 -0.19673,0.05246 h -1.15978 q -0.13865,0 -0.1986,-0.05246 -0.0581,-0.05434 -0.0581,-0.140522 0,-0.08431 0.0581,-0.136775 0.06,-0.05434 0.1986,-0.05434 h 0.22858 v -0.933069 h -0.13864 q -0.13865,0 -0.19861,-0.05246 -0.0581,-0.05434 -0.0581,-0.140523 0,-0.08431 0.0581,-0.136775 0.06,-0.05434 0.19861,-0.05434 z"
           style="-inkscape-font-specification:'Courier New Bold'"
           id="path8044" />
        <path
           d="m 201.06722,91.935056 v 2.046007 h 0.46092 q 0.13864,0 0.19673,0.05434 0.0599,0.05246 0.0599,0.138649 0,0.08431 -0.0599,0.138648 -0.0581,0.05246 -0.19673,0.05246 h -1.30593 q -0.13865,0 -0.1986,-0.05246 -0.0581,-0.05434 -0.0581,-0.140522 0,-0.08431 0.0581,-0.136775 0.06,-0.05434 0.1986,-0.05434 h 0.46092 v -1.661912 h -0.30915 q -0.13678,0 -0.19673,-0.05246 -0.06,-0.05433 -0.06,-0.140522 0,-0.08431 0.0581,-0.136775 0.06,-0.05434 0.19861,-0.05434 z"
           style="-inkscape-font-specification:'Courier New Bold'"
           id="path8046" />
        <path
           d="m 204.05941,91.935056 v 2.046007 h 0.0656 q 0.13677,0 0.19673,0.05434 0.06,0.05246 0.06,0.138649 0,0.08431 -0.06,0.138648 -0.0581,0.05246 -0.19673,0.05246 h -0.44967 v -0.09368 q -0.13116,0.07682 -0.27543,0.116166 -0.14239,0.03935 -0.29603,0.03935 -0.43281,0 -0.69699,-0.249193 -0.26418,-0.251067 -0.26418,-0.62392 0,-0.389716 0.27729,-0.66514 0.2773,-0.275424 0.67638,-0.275424 0.14989,0 0.29416,0.04684 0.14427,0.04497 0.2848,0.136775 v -0.477776 h -0.0656 q -0.13865,0 -0.19861,-0.05246 -0.0581,-0.05433 -0.0581,-0.138648 0,-0.08619 0.0581,-0.138649 0.06,-0.05434 0.19861,-0.05434 z m -0.38409,1.630061 q 0,-0.237951 -0.16676,-0.402831 -0.16675,-0.16488 -0.40845,-0.16488 -0.23982,0 -0.40658,0.16488 -0.16675,0.16488 -0.16675,0.39721 0,0.21172 0.14989,0.348496 0.14989,0.134901 0.42344,0.134901 0.27168,0 0.42344,-0.134901 0.15177,-0.136776 0.15177,-0.342875 z"
           style="-inkscape-font-specification:'Courier New Bold'"
           id="path8048" />
        <path
           d="m 166.33756,98.494413 -0.26605,0.708233 h -0.36161 l -0.32227,-1.317164 q -0.10492,-0.0056 -0.15926,-0.05808 -0.0525,-0.05433 -0.0525,-0.134901 0,-0.08431 0.0581,-0.136775 0.06,-0.05434 0.19861,-0.05434 h 0.35786 q 0.13865,0 0.19673,0.05434 0.06,0.05246 0.06,0.138648 0,0.08619 -0.0674,0.146144 -0.0506,0.04497 -0.19861,0.04497 l 0.14615,0.608931 0.23795,-0.62392 h 0.341 l 0.23982,0.62392 0.1499,-0.608931 q -0.1424,0 -0.18737,-0.0281 -0.0899,-0.05808 -0.0899,-0.16488 0,-0.08431 0.0581,-0.136775 0.06,-0.05434 0.19861,-0.05434 h 0.36161 q 0.13865,0 0.19673,0.05434 0.06,0.05246 0.06,0.138648 0,0.07682 -0.0525,0.131155 -0.0506,0.05246 -0.15176,0.05996 l -0.31477,1.317164 h -0.35599 z"
           style="-inkscape-font-specification:'Courier New Bold'"
           id="path8050" />
        <path
           d="m 168.24117,96.772544 v 0.818778 q 0.11992,-0.0712 0.2417,-0.104924 0.12366,-0.0356 0.2492,-0.0356 0.1986,0 0.35411,0.06745 0.15551,0.06745 0.25669,0.213594 0.10305,0.14427 0.10305,0.365359 v 0.721348 q 0.14614,0 0.19111,0.0281 0.0899,0.05808 0.0899,0.164879 0,0.08431 -0.0581,0.138649 -0.0581,0.05246 -0.19673,0.05246 h -0.43843 q -0.13678,0 -0.19673,-0.05246 -0.0581,-0.05433 -0.0581,-0.140522 0,-0.104924 0.0899,-0.163006 0.0468,-0.02998 0.19111,-0.0281 v -0.695118 q 0,-0.148017 -0.0674,-0.207973 -0.0881,-0.08057 -0.26043,-0.08057 -0.12741,0 -0.22671,0.05059 -0.0974,0.04871 -0.26419,0.213594 v 0.719475 q 0.14802,0 0.19111,0.0281 0.0918,0.05808 0.0918,0.164879 0,0.08431 -0.06,0.138649 -0.0581,0.05246 -0.19674,0.05246 h -0.43655 q -0.13865,0 -0.19861,-0.05246 -0.0581,-0.05433 -0.0581,-0.140522 0,-0.104924 0.0918,-0.163006 0.045,-0.02998 0.19111,-0.0281 v -1.661912 h -0.0656 q -0.13865,0 -0.1986,-0.05246 -0.0581,-0.05434 -0.0581,-0.140522 0,-0.08431 0.0581,-0.136776 0.06,-0.05434 0.1986,-0.05434 z"
           style="-inkscape-font-specification:'Courier New Bold'"
           id="path8052" />
        <path
           d="m 171.28583,99.202646 v -0.08993 q -0.14427,0.07682 -0.31852,0.114292 -0.17425,0.03935 -0.31664,0.03935 -0.30915,0 -0.50214,-0.163006 -0.19298,-0.164879 -0.19298,-0.363484 0,-0.241699 0.24544,-0.447799 0.24732,-0.207973 0.68201,-0.207973 0.17424,0 0.40283,0.03747 v -0.09181 q 0,-0.08619 -0.075,-0.140523 -0.0731,-0.05433 -0.28104,-0.05433 -0.1705,0 -0.44218,0.06745 -0.10118,0.02436 -0.15739,0.02436 -0.0768,0 -0.13115,-0.05434 -0.0525,-0.05621 -0.0525,-0.142397 0,-0.04871 0.0187,-0.08431 0.0187,-0.0356 0.0525,-0.05621 0.0337,-0.02248 0.14052,-0.05246 0.14239,-0.03935 0.29041,-0.06183 0.14802,-0.02436 0.26793,-0.02436 0.35787,0 0.5546,0.155512 0.1986,0.153638 0.1986,0.421567 v 0.790673 h 0.0656 q 0.13865,0 0.19673,0.05433 0.06,0.05246 0.06,0.138649 0,0.08431 -0.06,0.138649 -0.0581,0.05246 -0.19673,0.05246 z m 0,-0.687623 q -0.23046,-0.04497 -0.42532,-0.04497 -0.2342,0 -0.40283,0.114292 -0.10492,0.07307 -0.10492,0.148017 0,0.05433 0.0506,0.08806 0.0937,0.06183 0.25668,0.06183 0.13865,0 0.3129,-0.05434 0.17612,-0.05433 0.3129,-0.148017 z"
           style="-inkscape-font-specification:'Courier New Bold'"
           id="path8054" />
        <path
           d="m 173.14822,97.885482 v 0.770063 q 0,0.12366 0.0506,0.163006 0.0787,0.06183 0.28104,0.06183 0.29416,0 0.54336,-0.125533 0.0956,-0.04872 0.14989,-0.04872 0.0749,0 0.12928,0.05621 0.0562,0.05621 0.0562,0.136775 0,0.07495 -0.06,0.129281 -0.0918,0.08806 -0.36349,0.163006 -0.2698,0.07307 -0.45529,0.07307 -0.35786,0 -0.53773,-0.153638 -0.178,-0.155512 -0.178,-0.380348 v -0.845008 h -0.13864 q -0.13865,0 -0.19861,-0.05246 -0.0581,-0.05434 -0.0581,-0.140522 0,-0.08431 0.0581,-0.136775 0.06,-0.05434 0.19861,-0.05434 h 0.13864 v -0.346622 q 0,-0.138649 0.0525,-0.196731 0.0543,-0.05996 0.14052,-0.05996 0.0843,0 0.13677,0.05996 0.0543,0.05808 0.0543,0.196731 v 0.346622 h 0.71011 q 0.13864,0 0.19673,0.05434 0.06,0.05246 0.06,0.138648 0,0.08431 -0.06,0.138649 -0.0581,0.05246 -0.19673,0.05246 z"
           style="-inkscape-font-specification:'Courier New Bold'"
           id="path8056" />
        <path
           d="m 178.04027,97.315898 v 1.502653 h 0.38785 q 0.13864,0 0.19673,0.05433 0.0599,0.05246 0.0599,0.138649 0,0.08431 -0.0599,0.138649 -0.0581,0.05246 -0.19673,0.05246 h -1.15978 q -0.13865,0 -0.19861,-0.05246 -0.0581,-0.05433 -0.0581,-0.140522 0,-0.08431 0.0581,-0.136776 0.06,-0.05433 0.19861,-0.05433 h 0.38784 v -1.502653 h -0.38784 q -0.13865,0 -0.19861,-0.05246 -0.0581,-0.05433 -0.0581,-0.140523 0,-0.08619 0.0581,-0.138648 0.06,-0.05434 0.19861,-0.05434 l 1.15978,0.0019 q 0.13864,0 0.19673,0.05246 0.0599,0.05246 0.0599,0.138648 0,0.08619 -0.0599,0.140523 -0.0581,0.05246 -0.19673,0.05246 z"
           style="-inkscape-font-specification:'Courier New Bold'"
           id="path8058" />
        <path
           d="m 182.05734,96.772544 v 0.818778 q 0.11992,-0.0712 0.2417,-0.104924 0.12366,-0.0356 0.24919,-0.0356 0.19861,0 0.35412,0.06745 0.15551,0.06745 0.25669,0.213594 0.10305,0.14427 0.10305,0.365359 v 0.721348 q 0.14614,0 0.19111,0.0281 0.0899,0.05808 0.0899,0.164879 0,0.08431 -0.0581,0.138649 -0.0581,0.05246 -0.19673,0.05246 h -0.43843 q -0.13678,0 -0.19673,-0.05246 -0.0581,-0.05433 -0.0581,-0.140522 0,-0.104924 0.0899,-0.163006 0.0468,-0.02998 0.19111,-0.0281 v -0.695118 q 0,-0.148017 -0.0674,-0.207973 -0.0881,-0.08057 -0.26044,-0.08057 -0.1274,0 -0.2267,0.05059 -0.0974,0.04871 -0.26419,0.213594 v 0.719475 q 0.14802,0 0.19111,0.0281 0.0918,0.05808 0.0918,0.164879 0,0.08431 -0.06,0.138649 -0.0581,0.05246 -0.19674,0.05246 h -0.43655 q -0.13865,0 -0.19861,-0.05246 -0.0581,-0.05433 -0.0581,-0.140522 0,-0.104924 0.0918,-0.163006 0.045,-0.02998 0.19111,-0.0281 v -1.661912 h -0.0656 q -0.13865,0 -0.1986,-0.05246 -0.0581,-0.05434 -0.0581,-0.140522 0,-0.08431 0.0581,-0.136776 0.0599,-0.05434 0.1986,-0.05434 z"
           style="-inkscape-font-specification:'Courier New Bold'"
           id="path8060" />
        <path
           d="m 185.102,99.202646 v -0.08993 q -0.14427,0.07682 -0.31852,0.114292 -0.17425,0.03935 -0.31665,0.03935 -0.30915,0 -0.50213,-0.163006 -0.19298,-0.164879 -0.19298,-0.363484 0,-0.241699 0.24544,-0.447799 0.24732,-0.207973 0.682,-0.207973 0.17425,0 0.40284,0.03747 v -0.09181 q 0,-0.08619 -0.075,-0.140523 -0.0731,-0.05433 -0.28104,-0.05433 -0.1705,0 -0.44218,0.06745 -0.10118,0.02436 -0.15739,0.02436 -0.0768,0 -0.13115,-0.05434 -0.0525,-0.05621 -0.0525,-0.142397 0,-0.04871 0.0187,-0.08431 0.0187,-0.0356 0.0525,-0.05621 0.0337,-0.02248 0.14052,-0.05246 0.14239,-0.03935 0.29041,-0.06183 0.14802,-0.02436 0.26793,-0.02436 0.35786,0 0.5546,0.155512 0.1986,0.153638 0.1986,0.421567 v 0.790673 h 0.0656 q 0.13865,0 0.19673,0.05433 0.06,0.05246 0.06,0.138649 0,0.08431 -0.06,0.138649 -0.0581,0.05246 -0.19673,0.05246 z m 0,-0.687623 q -0.23046,-0.04497 -0.42532,-0.04497 -0.2342,0 -0.40283,0.114292 -0.10492,0.07307 -0.10492,0.148017 0,0.05433 0.0506,0.08806 0.0937,0.06183 0.25669,0.06183 0.13865,0 0.3129,-0.05434 0.17612,-0.05433 0.3129,-0.148017 z"
           style="-inkscape-font-specification:'Courier New Bold'"
           id="path8062" />
        <path
           d="m 187.06182,98.736111 0.41407,-0.850629 q -0.15364,0 -0.19673,-0.02623 -0.0937,-0.05808 -0.0937,-0.166753 0,-0.08431 0.0581,-0.136775 0.0599,-0.05434 0.1986,-0.05434 h 0.52649 q 0.13865,0 0.19674,0.05434 0.0599,0.05246 0.0599,0.138648 0,0.08431 -0.0599,0.138649 -0.0581,0.05246 -0.19674,0.05246 h -0.0637 l -0.64266,1.317164 h -0.40095 l -0.64266,-1.317164 h -0.0543 q -0.13865,0 -0.19861,-0.05246 -0.0581,-0.05434 -0.0581,-0.140522 0,-0.08431 0.0581,-0.136775 0.06,-0.05434 0.19861,-0.05434 h 0.51524 q 0.13678,0 0.19486,0.05434 0.06,0.05246 0.06,0.138648 0,0.106798 -0.0899,0.163007 -0.045,0.0281 -0.20047,0.0281 z"
           style="-inkscape-font-specification:'Courier New Bold'"
           id="path8064" />
        <path
           d="m 190.32569,98.546874 h -1.57573 q 0.06,0.149891 0.21172,0.241699 0.15364,0.09181 0.41407,0.09181 0.2136,0 0.56771,-0.09181 0.14615,-0.03747 0.20236,-0.03747 0.0768,0 0.12928,0.05434 0.0525,0.05433 0.0525,0.136775 0,0.07494 -0.0562,0.127407 -0.075,0.06932 -0.36536,0.133028 -0.29041,0.06183 -0.55834,0.06183 -0.46091,0 -0.73821,-0.260435 -0.27543,-0.260435 -0.27543,-0.640783 0,-0.404704 0.29791,-0.657645 0.29978,-0.254814 0.6895,-0.254814 0.2342,0 0.42906,0.08244 0.19673,0.08244 0.29229,0.177995 0.1349,0.138649 0.22296,0.342875 0.06,0.142396 0.06,0.329759 z m -0.42532,-0.384094 q -0.0881,-0.16488 -0.23046,-0.245446 -0.14239,-0.08244 -0.33912,-0.08244 -0.19486,0 -0.33726,0.08244 -0.14239,0.08057 -0.23233,0.245446 z"
           style="-inkscape-font-specification:'Courier New Bold'"
           id="path8066" />
        <path
           d="m 194.1048,96.772544 v 0.406578 h -0.45716 v -0.406578 z m 0.0525,0.728843 v 1.317164 h 0.46092 q 0.13865,0 0.19673,0.05433 0.06,0.05246 0.06,0.138649 0,0.08431 -0.06,0.138649 -0.0581,0.05246 -0.19673,0.05246 h -1.30592 q -0.13865,0 -0.19861,-0.05246 -0.0581,-0.05433 -0.0581,-0.140522 0,-0.08431 0.0581,-0.136776 0.06,-0.05433 0.19861,-0.05433 h 0.46091 v -0.933069 h -0.30915 q -0.13678,0 -0.19673,-0.05246 -0.06,-0.05434 -0.06,-0.140522 0,-0.08431 0.0581,-0.136775 0.06,-0.05434 0.19861,-0.05434 z"
           style="-inkscape-font-specification:'Courier New Bold'"
           id="path8068" />
        <path
           d="m 195.88101,97.501387 v 0.129281 q 0.10492,-0.08993 0.23045,-0.134902 0.12741,-0.04497 0.27543,-0.04497 0.341,0 0.5396,0.211721 0.15739,0.168627 0.15739,0.442177 v 0.713854 q 0.12179,0 0.17987,0.05433 0.0581,0.05246 0.0581,0.138649 0,0.08431 -0.06,0.138649 -0.0581,0.05246 -0.19673,0.05246 h -0.34662 q -0.13865,0 -0.1986,-0.05246 -0.0581,-0.05433 -0.0581,-0.140522 0,-0.08431 0.0581,-0.136776 0.0581,-0.05433 0.17986,-0.05433 v -0.725096 q 0,-0.125533 -0.0675,-0.183616 -0.0881,-0.07494 -0.26418,-0.07494 -0.13303,0 -0.2342,0.05246 -0.0993,0.05059 -0.25294,0.217341 v 0.713854 q 0.14801,0 0.19111,0.0281 0.0918,0.05621 0.0918,0.164879 0,0.08431 -0.06,0.138649 -0.0581,0.05246 -0.19673,0.05246 h -0.43656 q -0.13865,0 -0.1986,-0.05246 -0.0581,-0.05433 -0.0581,-0.140522 0,-0.104924 0.0899,-0.163006 0.045,-0.0281 0.19298,-0.0281 v -0.933069 q -0.12178,0 -0.17987,-0.05433 -0.0581,-0.05434 -0.0581,-0.138649 0,-0.08431 0.0581,-0.136775 0.06,-0.05434 0.19861,-0.05434 z"
           style="-inkscape-font-specification:'Courier New Bold'"
           id="path8070" />
        <path
           d="m 201.29018,97.951059 q -0.0937,-0.05808 -0.19673,-0.08619 -0.10305,-0.02998 -0.21546,-0.02998 -0.22297,0 -0.35412,0.07307 -0.0581,0.03185 -0.0581,0.06932 0,0.04309 0.0787,0.08431 0.06,0.02998 0.26793,0.05808 0.38222,0.05246 0.53211,0.104924 0.19673,0.06932 0.30353,0.206099 0.1068,0.136775 0.1068,0.28854 0,0.206099 -0.18175,0.344748 -0.26043,0.200479 -0.67638,0.200479 -0.16675,0 -0.30915,-0.02998 -0.14052,-0.0281 -0.25856,-0.08431 -0.0281,0.02436 -0.06,0.03747 -0.0318,0.01311 -0.0656,0.01311 -0.0899,0 -0.14427,-0.05808 -0.0525,-0.05996 -0.0525,-0.198605 v -0.129281 q 0,-0.138649 0.0525,-0.196732 0.0543,-0.05996 0.14052,-0.05996 0.0693,0 0.11617,0.03935 0.0468,0.03747 0.0731,0.131155 0.0881,0.07494 0.21172,0.114291 0.12366,0.03747 0.28479,0.03747 0.26418,0 0.41033,-0.08244 0.0693,-0.04122 0.0693,-0.08619 0,-0.07494 -0.0993,-0.12366 -0.0993,-0.04871 -0.41033,-0.08244 -0.46279,-0.04871 -0.6183,-0.187363 -0.15551,-0.136775 -0.15551,-0.337254 0,-0.206099 0.17425,-0.342875 0.23608,-0.187363 0.6183,-0.187363 0.13303,0 0.25481,0.02623 0.12366,0.02436 0.23608,0.07682 0.0356,-0.02623 0.0656,-0.03935 0.0318,-0.01312 0.0581,-0.01312 0.0787,0 0.13115,0.05996 0.0525,0.05808 0.0525,0.196731 v 0.09368 q 0,0.125533 -0.03,0.1705 -0.06,0.08619 -0.16301,0.08619 -0.0693,0 -0.12178,-0.04309 -0.0525,-0.04309 -0.0675,-0.114292 z"
           style="-inkscape-font-specification:'Courier New Bold'"
           id="path8072" />
        <path
           d="m 203.08325,97.885482 v 0.770063 q 0,0.12366 0.0506,0.163006 0.0787,0.06183 0.28104,0.06183 0.29416,0 0.54336,-0.125533 0.0956,-0.04872 0.14989,-0.04872 0.0749,0 0.12928,0.05621 0.0562,0.05621 0.0562,0.136775 0,0.07495 -0.06,0.129281 -0.0918,0.08806 -0.36349,0.163006 -0.2698,0.07307 -0.45529,0.07307 -0.35786,0 -0.53773,-0.153638 -0.178,-0.155512 -0.178,-0.380348 v -0.845008 h -0.13864 q -0.13865,0 -0.19861,-0.05246 -0.0581,-0.05434 -0.0581,-0.140522 0,-0.08431 0.0581,-0.136775 0.06,-0.05434 0.19861,-0.05434 h 0.13864 v -0.346622 q 0,-0.138649 0.0525,-0.196731 0.0543,-0.05996 0.14052,-0.05996 0.0843,0 0.13677,0.05996 0.0543,0.05808 0.0543,0.196731 v 0.346622 h 0.71011 q 0.13864,0 0.19673,0.05434 0.0599,0.05246 0.0599,0.138648 0,0.08431 -0.0599,0.138649 -0.0581,0.05246 -0.19673,0.05246 z"
           style="-inkscape-font-specification:'Courier New Bold'"
           id="path8074" />
        <path
           d="m 206.47827,98.383868 q 0,0.221089 -0.12366,0.429062 -0.12178,0.2061 -0.36536,0.32976 -0.24169,0.121786 -0.50588,0.121786 -0.2623,0 -0.50213,-0.119913 -0.23982,-0.121786 -0.36536,-0.329759 -0.12553,-0.207973 -0.12553,-0.434683 0,-0.230457 0.12741,-0.451545 0.1274,-0.222963 0.36535,-0.35037 0.23983,-0.127407 0.50026,-0.127407 0.26231,0 0.50401,0.131155 0.24357,0.12928 0.36723,0.350369 0.12366,0.219215 0.12366,0.451545 z m -0.38409,0.0019 q 0,-0.18549 -0.13303,-0.341001 -0.18174,-0.209847 -0.47778,-0.209847 -0.26043,0 -0.43468,0.166753 -0.17425,0.166754 -0.17425,0.385969 0,0.179868 0.17612,0.337253 0.17613,0.155512 0.43281,0.155512 0.25857,0 0.43469,-0.155512 0.17612,-0.157385 0.17612,-0.339127 z"
           style="-inkscape-font-specification:'Courier New Bold'"
           id="path8076" />
        <path
           d="m 207.70363,97.501387 v 0.239825 q 0.2417,-0.174248 0.38035,-0.23233 0.14052,-0.05808 0.26231,-0.05808 0.18736,0 0.36348,0.138649 0.11991,0.09368 0.11991,0.191111 0,0.08244 -0.0581,0.140522 -0.0562,0.05621 -0.13677,0.05621 -0.0712,0 -0.14989,-0.0712 -0.0787,-0.0712 -0.14053,-0.0712 -0.0806,0 -0.2417,0.101176 -0.15925,0.101176 -0.39908,0.303529 v 0.578952 h 0.5471 q 0.13865,0 0.19673,0.05433 0.06,0.05246 0.06,0.138649 0,0.08431 -0.06,0.138649 -0.0581,0.05246 -0.19673,0.05246 h -1.15978 q -0.13865,0 -0.1986,-0.05246 -0.0581,-0.05433 -0.0581,-0.140522 0,-0.08431 0.0581,-0.136776 0.06,-0.05433 0.1986,-0.05433 h 0.22859 v -0.933069 h -0.13865 q -0.13865,0 -0.19861,-0.05246 -0.0581,-0.05434 -0.0581,-0.140522 0,-0.08431 0.0581,-0.136775 0.06,-0.05434 0.19861,-0.05434 z"
           style="-inkscape-font-specification:'Courier New Bold'"
           id="path8078" />
        <path
           d="m 211.04994,98.546874 h -1.57573 q 0.06,0.149891 0.21172,0.241699 0.15364,0.09181 0.41407,0.09181 0.2136,0 0.56771,-0.09181 0.14615,-0.03747 0.20236,-0.03747 0.0768,0 0.12928,0.05434 0.0525,0.05433 0.0525,0.136775 0,0.07494 -0.0562,0.127407 -0.0749,0.06932 -0.36536,0.133028 -0.29041,0.06183 -0.55834,0.06183 -0.46091,0 -0.73821,-0.260435 -0.27543,-0.260435 -0.27543,-0.640783 0,-0.404704 0.29791,-0.657645 0.29978,-0.254814 0.6895,-0.254814 0.2342,0 0.42906,0.08244 0.19673,0.08244 0.29229,0.177995 0.1349,0.138649 0.22296,0.342875 0.06,0.142396 0.06,0.329759 z m -0.42532,-0.384094 q -0.0881,-0.16488 -0.23046,-0.245446 -0.14239,-0.08244 -0.33912,-0.08244 -0.19486,0 -0.33726,0.08244 -0.14239,0.08057 -0.23233,0.245446 z"
           style="-inkscape-font-specification:'Courier New Bold'"
           id="path8080" />
      </g>
    </g>
  </g>
</svg>
