<?xml version="1.0" encoding="UTF-8" standalone="no"?>
<!-- Created with Inkscape (http://www.inkscape.org/) -->

<svg
   width="205.52232"
   height="122.41411"
   viewBox="0 0 54.377779 32.388733"
   version="1.1"
   id="svg5"
   inkscape:version="1.2 (dc2aedaf03, 2022-05-15)"
   sodipodi:docname="Scene 7.svg"
   xmlns:inkscape="http://www.inkscape.org/namespaces/inkscape"
   xmlns:sodipodi="http://sodipodi.sourceforge.net/DTD/sodipodi-0.dtd"
   xmlns="http://www.w3.org/2000/svg"
   xmlns:svg="http://www.w3.org/2000/svg">
  <sodipodi:namedview
     id="namedview7"
     pagecolor="#ffffff"
     bordercolor="#666666"
     borderopacity="1.0"
     inkscape:showpageshadow="2"
     inkscape:pageopacity="0.0"
     inkscape:pagecheckerboard="0"
     inkscape:deskcolor="#d1d1d1"
     inkscape:document-units="mm"
     showgrid="true"
     inkscape:zoom="1.4142136"
     inkscape:cx="1384.1615"
     inkscape:cy="492.49987"
     inkscape:window-width="1920"
     inkscape:window-height="991"
     inkscape:window-x="-9"
     inkscape:window-y="-9"
     inkscape:window-maximized="1"
     inkscape:current-layer="g6740">
    <inkscape:grid
       type="axonomgrid"
       id="grid1326"
       snapvisiblegridlinesonly="false"
       units="px"
       spacingy="2.6458333"
       originx="169.33333"
       originy="95.25" />
  </sodipodi:namedview>
  <defs
     id="defs2" />
  <g
     inkscape:groupmode="layer"
     id="layer3"
     inkscape:label="scene 3"
     transform="matrix(0.10379619,0,0,0.10379619,-222.70282,-78.535079)">
    <g
       id="g6740"
       transform="matrix(13.564821,0,0,13.564821,466.95107,-1367.1742)"
       inkscape:label="Computer">
      <g
         aria-label="&gt;&gt;&gt; firebase deploy"
         transform="matrix(0.87711176,0.47449975,-0.32331266,0.96519994,0,0)"
         id="text7233-7"
         style="font-size:3.8372px;font-family:'Nunito Sans';-inkscape-font-specification:'Nunito Sans, Normal';fill:#ffffff;stroke-width:0.205563">
        <path
           d="m 172.06605,79.321906 -1.24409,-0.689497 q -0.0937,-0.05246 -0.12553,-0.09368 -0.03,-0.04122 -0.03,-0.104923 0,-0.08057 0.0581,-0.138649 0.0581,-0.05808 0.13678,-0.05808 0.0487,0 0.14989,0.05434 l 1.85302,1.030498 -1.85302,1.030498 q -0.10118,0.05621 -0.14989,0.05621 -0.0787,0 -0.13678,-0.05808 -0.0581,-0.05808 -0.0581,-0.140522 0,-0.0637 0.03,-0.104924 0.0319,-0.04122 0.12553,-0.09368 z"
           style="-inkscape-font-specification:'Courier New Bold'"
           id="path7947" />
        <path
           d="m 174.36875,79.321906 -1.24409,-0.689497 q -0.0937,-0.05246 -0.12554,-0.09368 -0.03,-0.04122 -0.03,-0.104923 0,-0.08057 0.0581,-0.138649 0.0581,-0.05808 0.13677,-0.05808 0.0487,0 0.14989,0.05434 l 1.85302,1.030498 -1.85302,1.030498 q -0.10117,0.05621 -0.14989,0.05621 -0.0787,0 -0.13677,-0.05808 -0.0581,-0.05808 -0.0581,-0.140522 0,-0.0637 0.03,-0.104924 0.0318,-0.04122 0.12554,-0.09368 z"
           style="-inkscape-font-specification:'Courier New Bold'"
           id="path7949" />
        <path
           d="m 176.67144,79.321906 -1.24409,-0.689497 q -0.0937,-0.05246 -0.12553,-0.09368 -0.03,-0.04122 -0.03,-0.104923 0,-0.08057 0.0581,-0.138649 0.0581,-0.05808 0.13678,-0.05808 0.0487,0 0.14989,0.05434 l 1.85302,1.030498 -1.85302,1.030498 q -0.10118,0.05621 -0.14989,0.05621 -0.0787,0 -0.13678,-0.05808 -0.0581,-0.05808 -0.0581,-0.140522 0,-0.0637 0.03,-0.104924 0.0319,-0.04122 0.12553,-0.09368 z"
           style="-inkscape-font-specification:'Courier New Bold'"
           id="path7951" />
        <path
           d="m 180.86838,79.098943 v 0.933069 h 0.5471 q 0.13865,0 0.19673,0.05434 0.06,0.05246 0.06,0.138649 0,0.08431 -0.06,0.138648 -0.0581,0.05246 -0.19673,0.05246 h -1.15978 q -0.13865,0 -0.1986,-0.05246 -0.0581,-0.05434 -0.0581,-0.140522 0,-0.08431 0.0581,-0.136775 0.06,-0.05434 0.1986,-0.05434 h 0.22859 v -0.933069 h -0.18362 q -0.13865,0 -0.19861,-0.05246 -0.0581,-0.05434 -0.0581,-0.140523 0,-0.08431 0.0581,-0.136775 0.06,-0.05433 0.19861,-0.05433 h 0.18362 v -0.146144 q 0,-0.251067 0.18736,-0.415946 0.18924,-0.166754 0.5471,-0.166754 0.15926,0 0.36723,0.02998 0.20985,0.0281 0.26793,0.08057 0.06,0.05246 0.06,0.134901 0,0.08806 -0.0525,0.14427 -0.0525,0.05433 -0.12929,0.05433 -0.0356,0 -0.10679,-0.01311 -0.23795,-0.04684 -0.42157,-0.04684 -0.19111,0 -0.26418,0.05808 -0.0712,0.05621 -0.0712,0.140522 v 0.146144 h 0.59207 q 0.13865,0 0.19673,0.05433 0.06,0.05246 0.06,0.138649 0,0.08431 -0.06,0.138649 -0.0581,0.05246 -0.19673,0.05246 z"
           style="-inkscape-font-specification:'Courier New Bold'"
           id="path7953" />
        <path
           d="m 183.3116,77.986005 v 0.406579 h -0.45717 v -0.406579 z m 0.0525,0.728844 v 1.317163 h 0.46091 q 0.13865,0 0.19673,0.05434 0.06,0.05246 0.06,0.138649 0,0.08431 -0.06,0.138648 -0.0581,0.05246 -0.19673,0.05246 h -1.30592 q -0.13865,0 -0.19861,-0.05246 -0.0581,-0.05434 -0.0581,-0.140522 0,-0.08431 0.0581,-0.136775 0.06,-0.05434 0.19861,-0.05434 H 182.98 v -0.933069 h -0.30915 q -0.13677,0 -0.19673,-0.05246 -0.0599,-0.05434 -0.0599,-0.140523 0,-0.08431 0.0581,-0.136775 0.06,-0.05433 0.1986,-0.05433 z"
           style="-inkscape-font-specification:'Courier New Bold'"
           id="path7955" />
        <path
           d="m 185.39695,78.714849 v 0.239825 q 0.2417,-0.174248 0.38035,-0.232331 0.14052,-0.05808 0.26231,-0.05808 0.18736,0 0.36348,0.138648 0.11991,0.09368 0.11991,0.191111 0,0.08244 -0.0581,0.140522 -0.0562,0.05621 -0.13677,0.05621 -0.0712,0 -0.14989,-0.0712 -0.0787,-0.0712 -0.14053,-0.0712 -0.0806,0 -0.2417,0.101176 -0.15925,0.101177 -0.39908,0.303529 v 0.578952 h 0.5471 q 0.13865,0 0.19673,0.05434 0.06,0.05246 0.06,0.138649 0,0.08431 -0.06,0.138648 -0.0581,0.05246 -0.19673,0.05246 h -1.15978 q -0.13865,0 -0.1986,-0.05246 -0.0581,-0.05434 -0.0581,-0.140522 0,-0.08431 0.0581,-0.136775 0.06,-0.05434 0.1986,-0.05434 h 0.22859 v -0.933069 h -0.13865 q -0.13865,0 -0.19861,-0.05246 -0.0581,-0.05434 -0.0581,-0.140523 0,-0.08431 0.0581,-0.136775 0.06,-0.05433 0.19861,-0.05433 z"
           style="-inkscape-font-specification:'Courier New Bold'"
           id="path7957" />
        <path
           d="m 188.74326,79.760336 h -1.57573 q 0.06,0.14989 0.21172,0.241698 0.15364,0.09181 0.41408,0.09181 0.21359,0 0.56771,-0.09181 0.14614,-0.03747 0.20235,-0.03747 0.0768,0 0.12928,0.05433 0.0525,0.05434 0.0525,0.136775 0,0.07495 -0.0562,0.127407 -0.0749,0.06933 -0.36535,0.133028 -0.29042,0.06183 -0.55835,0.06183 -0.46091,0 -0.73821,-0.260435 -0.27542,-0.260435 -0.27542,-0.640782 0,-0.404705 0.29791,-0.657645 0.29978,-0.254814 0.68949,-0.254814 0.23421,0 0.42906,0.08244 0.19674,0.08244 0.29229,0.177995 0.1349,0.138649 0.22296,0.342875 0.06,0.142396 0.06,0.32976 z m -0.42532,-0.384095 q -0.0881,-0.16488 -0.23045,-0.245446 -0.1424,-0.08244 -0.33913,-0.08244 -0.19486,0 -0.33725,0.08244 -0.1424,0.08057 -0.23233,0.245446 z"
           style="-inkscape-font-specification:'Courier New Bold'"
           id="path7959" />
        <path
           d="m 189.59764,77.986005 v 0.861872 q 0.14052,-0.09181 0.28479,-0.136776 0.14614,-0.04684 0.29416,-0.04684 0.39908,0 0.67638,0.275424 0.2773,0.275424 0.2773,0.665139 0,0.372853 -0.26419,0.62392 -0.26418,0.249193 -0.69699,0.249193 -0.15363,0 -0.29603,-0.03935 -0.1424,-0.03935 -0.27542,-0.116165 v 0.09368 h -0.44968 q -0.13865,0 -0.1986,-0.05246 -0.0581,-0.05434 -0.0581,-0.140522 0,-0.08431 0.06,-0.136775 0.06,-0.05434 0.19673,-0.05434 h 0.0656 V 78.3701 h -0.0656 q -0.13865,0 -0.1986,-0.05246 -0.0581,-0.05434 -0.0581,-0.140522 0,-0.08431 0.0581,-0.136775 0.0599,-0.05434 0.1986,-0.05434 z m 1.14853,1.630061 q 0,-0.237951 -0.16675,-0.402831 -0.16675,-0.16488 -0.40845,-0.16488 -0.23983,0 -0.40658,0.16488 -0.16675,0.16488 -0.16675,0.39721 0,0.211721 0.14989,0.348496 0.14989,0.134901 0.42344,0.134901 0.27355,0 0.42344,-0.134901 0.15176,-0.136775 0.15176,-0.342875 z"
           style="-inkscape-font-specification:'Courier New Bold'"
           id="path7961" />
        <path
           d="m 192.73035,80.416107 v -0.08993 q -0.14427,0.07682 -0.31852,0.114291 -0.17425,0.03935 -0.31664,0.03935 -0.30915,0 -0.50214,-0.163006 -0.19298,-0.16488 -0.19298,-0.363485 0,-0.241699 0.24545,-0.447798 0.24732,-0.207974 0.682,-0.207974 0.17425,0 0.40283,0.03747 v -0.09181 q 0,-0.08619 -0.075,-0.140522 -0.0731,-0.05434 -0.28104,-0.05434 -0.1705,0 -0.44218,0.06745 -0.10117,0.02436 -0.15738,0.02436 -0.0768,0 -0.13116,-0.05433 -0.0525,-0.05621 -0.0525,-0.142396 0,-0.04872 0.0187,-0.08431 0.0187,-0.0356 0.0525,-0.05621 0.0337,-0.02248 0.14052,-0.05246 0.1424,-0.03935 0.29041,-0.06183 0.14802,-0.02436 0.26793,-0.02436 0.35787,0 0.5546,0.155511 0.1986,0.153638 0.1986,0.421567 v 0.790673 h 0.0656 q 0.13865,0 0.19673,0.05434 0.06,0.05246 0.06,0.138649 0,0.08431 -0.06,0.138648 -0.0581,0.05246 -0.19673,0.05246 z m 0,-0.687623 q -0.23046,-0.04497 -0.42532,-0.04497 -0.2342,0 -0.40283,0.114291 -0.10492,0.07307 -0.10492,0.148017 0,0.05434 0.0506,0.08806 0.0937,0.06183 0.25669,0.06183 0.13864,0 0.31289,-0.05433 0.17612,-0.05434 0.3129,-0.148017 z"
           style="-inkscape-font-specification:'Courier New Bold'"
           id="path7963" />
        <path
           d="m 195.10237,79.16452 q -0.0937,-0.05808 -0.19673,-0.08619 -0.10305,-0.02998 -0.21547,-0.02998 -0.22296,0 -0.35412,0.07307 -0.0581,0.03185 -0.0581,0.06932 0,0.04309 0.0787,0.08431 0.06,0.02998 0.26793,0.05808 0.38222,0.05246 0.53211,0.104924 0.19673,0.06932 0.30353,0.206099 0.1068,0.136776 0.1068,0.28854 0,0.2061 -0.18174,0.344748 -0.26044,0.200479 -0.67639,0.200479 -0.16675,0 -0.30914,-0.02998 -0.14053,-0.0281 -0.25857,-0.08431 -0.0281,0.02436 -0.0599,0.03747 -0.0319,0.01312 -0.0656,0.01312 -0.0899,0 -0.14427,-0.05808 -0.0525,-0.05996 -0.0525,-0.198605 v -0.129281 q 0,-0.138649 0.0525,-0.196731 0.0543,-0.05996 0.14052,-0.05996 0.0693,0 0.11617,0.03935 0.0468,0.03747 0.0731,0.131154 0.0881,0.07494 0.21172,0.114292 0.12366,0.03747 0.28479,0.03747 0.26419,0 0.41033,-0.08244 0.0693,-0.04122 0.0693,-0.08619 0,-0.07494 -0.0993,-0.123659 -0.0993,-0.04872 -0.41033,-0.08244 -0.46278,-0.04872 -0.61829,-0.187363 -0.15552,-0.136776 -0.15552,-0.337254 0,-0.2061 0.17425,-0.342875 0.23608,-0.187363 0.6183,-0.187363 0.13303,0 0.25482,0.02623 0.12366,0.02436 0.23607,0.07682 0.0356,-0.02623 0.0656,-0.03935 0.0319,-0.01311 0.0581,-0.01311 0.0787,0 0.13116,0.05996 0.0525,0.05808 0.0525,0.196731 v 0.09368 q 0,0.125533 -0.03,0.170501 -0.06,0.08619 -0.16301,0.08619 -0.0693,0 -0.12178,-0.04309 -0.0525,-0.04309 -0.0674,-0.114292 z"
           style="-inkscape-font-specification:'Courier New Bold'"
           id="path7965" />
        <path
           d="m 197.95404,79.760336 h -1.57573 q 0.06,0.14989 0.21172,0.241698 0.15364,0.09181 0.41408,0.09181 0.21359,0 0.56771,-0.09181 0.14614,-0.03747 0.20235,-0.03747 0.0768,0 0.12928,0.05433 0.0525,0.05434 0.0525,0.136775 0,0.07495 -0.0562,0.127407 -0.0749,0.06933 -0.36536,0.133028 -0.29041,0.06183 -0.55834,0.06183 -0.46091,0 -0.73821,-0.260435 -0.27542,-0.260435 -0.27542,-0.640782 0,-0.404705 0.2979,-0.657645 0.29979,-0.254814 0.6895,-0.254814 0.23421,0 0.42906,0.08244 0.19673,0.08244 0.29229,0.177995 0.1349,0.138649 0.22296,0.342875 0.06,0.142396 0.06,0.32976 z m -0.42532,-0.384095 q -0.0881,-0.16488 -0.23045,-0.245446 -0.1424,-0.08244 -0.33913,-0.08244 -0.19486,0 -0.33725,0.08244 -0.1424,0.08057 -0.23233,0.245446 z"
           style="-inkscape-font-specification:'Courier New Bold'"
           id="path7967" />
        <path
           d="m 202.47699,77.986005 v 2.046007 h 0.0656 q 0.13678,0 0.19674,0.05434 0.06,0.05246 0.06,0.138649 0,0.08431 -0.06,0.138648 -0.0581,0.05246 -0.19674,0.05246 h -0.44967 v -0.09368 q -0.13115,0.07682 -0.27542,0.116165 -0.1424,0.03935 -0.29604,0.03935 -0.4328,0 -0.69699,-0.249193 -0.26418,-0.251067 -0.26418,-0.62392 0,-0.389715 0.2773,-0.665139 0.2773,-0.275424 0.67638,-0.275424 0.14989,0 0.29416,0.04684 0.14427,0.04497 0.28479,0.136776 V 78.3701 h -0.0656 q -0.13865,0 -0.19861,-0.05246 -0.0581,-0.05434 -0.0581,-0.138648 0,-0.08619 0.0581,-0.138649 0.06,-0.05434 0.19861,-0.05434 z m -0.3841,1.630061 q 0,-0.237951 -0.16675,-0.402831 -0.16675,-0.16488 -0.40845,-0.16488 -0.23983,0 -0.40658,0.16488 -0.16675,0.16488 -0.16675,0.39721 0,0.211721 0.14989,0.348496 0.14989,0.134901 0.42344,0.134901 0.27167,0 0.42344,-0.134901 0.15176,-0.136775 0.15176,-0.342875 z"
           style="-inkscape-font-specification:'Courier New Bold'"
           id="path7969" />
        <path
           d="m 204.86212,79.760336 h -1.57572 q 0.06,0.14989 0.21172,0.241698 0.15364,0.09181 0.41407,0.09181 0.2136,0 0.56771,-0.09181 0.14615,-0.03747 0.20235,-0.03747 0.0768,0 0.12929,0.05433 0.0525,0.05434 0.0525,0.136775 0,0.07495 -0.0562,0.127407 -0.075,0.06933 -0.36536,0.133028 -0.29041,0.06183 -0.55834,0.06183 -0.46092,0 -0.73821,-0.260435 -0.27543,-0.260435 -0.27543,-0.640782 0,-0.404705 0.29791,-0.657645 0.29978,-0.254814 0.6895,-0.254814 0.2342,0 0.42906,0.08244 0.19673,0.08244 0.29228,0.177995 0.13491,0.138649 0.22297,0.342875 0.06,0.142396 0.06,0.32976 z m -0.42531,-0.384095 q -0.0881,-0.16488 -0.23046,-0.245446 -0.14239,-0.08244 -0.33913,-0.08244 -0.19485,0 -0.33725,0.08244 -0.1424,0.08057 -0.23233,0.245446 z"
           style="-inkscape-font-specification:'Courier New Bold'"
           id="path7971" />
        <path
           d="m 205.72399,80.204387 v 0.62954 h 0.23046 q 0.13865,0 0.19673,0.05246 0.06,0.05434 0.06,0.140522 0,0.08431 -0.06,0.136776 -0.0581,0.05434 -0.19673,0.05434 h -0.68013 q -0.13865,0 -0.1986,-0.05434 -0.0581,-0.05246 -0.0581,-0.136776 0,-0.08619 0.06,-0.140522 0.06,-0.05246 0.19673,-0.05246 h 0.0656 v -1.734984 h -0.0656 q -0.13865,0 -0.1986,-0.05246 -0.0581,-0.05434 -0.0581,-0.140523 0,-0.08431 0.0581,-0.136775 0.06,-0.05433 0.1986,-0.05433 h 0.44967 v 0.131154 q 0.1349,-0.09181 0.27917,-0.136775 0.14427,-0.04497 0.29604,-0.04497 0.39346,0 0.67076,0.267929 0.2773,0.266056 0.2773,0.610804 0,0.380348 -0.32789,0.627667 -0.27355,0.2061 -0.61643,0.2061 -0.14801,0 -0.29228,-0.04309 -0.14427,-0.04309 -0.28667,-0.12928 z m 1.13917,-0.659519 q 0,-0.08057 -0.0637,-0.204226 -0.0637,-0.125533 -0.19673,-0.207973 -0.13116,-0.08431 -0.30915,-0.08431 -0.28667,0 -0.4553,0.215468 -0.11429,0.148017 -0.11429,0.284792 0,0.153638 0.16301,0.299781 0.16488,0.14427 0.40658,0.14427 0.24357,0 0.40657,-0.14427 0.16301,-0.144269 0.16301,-0.303528 z"
           style="-inkscape-font-specification:'Courier New Bold'"
           id="path7973" />
        <path
           d="m 208.69558,77.986005 v 2.046007 h 0.46091 q 0.13865,0 0.19673,0.05434 0.06,0.05246 0.06,0.138649 0,0.08431 -0.06,0.138648 -0.0581,0.05246 -0.19673,0.05246 h -1.30592 q -0.13865,0 -0.19861,-0.05246 -0.0581,-0.05434 -0.0581,-0.140522 0,-0.08431 0.0581,-0.136775 0.06,-0.05434 0.19861,-0.05434 h 0.46091 V 78.3701 h -0.30915 q -0.13677,0 -0.19673,-0.05246 -0.06,-0.05434 -0.06,-0.140522 0,-0.08431 0.0581,-0.136775 0.0599,-0.05434 0.1986,-0.05434 z"
           style="-inkscape-font-specification:'Courier New Bold'"
           id="path7975" />
        <path
           d="m 211.80393,79.59733 q 0,0.221088 -0.12366,0.429062 -0.12178,0.206099 -0.36535,0.329759 -0.2417,0.121786 -0.50589,0.121786 -0.2623,0 -0.50213,-0.119912 -0.23982,-0.121787 -0.36536,-0.32976 -0.12553,-0.207973 -0.12553,-0.434683 0,-0.230456 0.12741,-0.451545 0.1274,-0.222962 0.36535,-0.350369 0.23983,-0.127407 0.50026,-0.127407 0.26231,0 0.50401,0.131154 0.24357,0.12928 0.36723,0.350369 0.12366,0.219215 0.12366,0.451546 z m -0.38409,0.0019 q 0,-0.185489 -0.13303,-0.341001 -0.18174,-0.209847 -0.47778,-0.209847 -0.26043,0 -0.43468,0.166754 -0.17425,0.166753 -0.17425,0.385968 0,0.179869 0.17613,0.337254 0.17612,0.155511 0.4328,0.155511 0.25857,0 0.43469,-0.155511 0.17612,-0.157385 0.17612,-0.339128 z"
           style="-inkscape-font-specification:'Courier New Bold'"
           id="path7977" />
        <path
           d="m 212.89439,80.402992 -0.66514,-1.304049 q -0.0937,-0.01124 -0.1424,-0.0637 -0.0487,-0.05246 -0.0487,-0.127407 0,-0.08619 0.0581,-0.138649 0.06,-0.05433 0.1986,-0.05433 h 0.35037 q 0.13865,0 0.19673,0.05433 0.06,0.05246 0.06,0.138649 0,0.08431 -0.06,0.138649 -0.0581,0.05246 -0.18549,0.05246 l 0.45342,0.882481 0.44968,-0.882481 q -0.12366,0 -0.18362,-0.05246 -0.0581,-0.05434 -0.0581,-0.140523 0,-0.08431 0.0581,-0.136775 0.06,-0.05433 0.1986,-0.05433 h 0.36162 q 0.13677,0 0.19485,0.05433 0.06,0.05246 0.06,0.138649 0,0.07682 -0.0506,0.131154 -0.0506,0.05246 -0.14989,0.05996 l -0.88061,1.734984 q 0.14427,0 0.18924,0.0281 0.0899,0.05808 0.0899,0.164879 0,0.08431 -0.0599,0.136776 -0.0581,0.05434 -0.19673,0.05434 h -0.83752 q -0.13865,0 -0.1986,-0.05434 -0.0581,-0.05246 -0.0581,-0.136776 0,-0.08619 0.0581,-0.140522 0.06,-0.05246 0.1986,-0.05246 h 0.38222 z"
           style="-inkscape-font-specification:'Courier New Bold'"
           id="path7979" />
      </g>
    </g>
  </g>
</svg>
