<?xml version="1.0" encoding="UTF-8" standalone="no"?>
<!-- Created with Inkscape (http://www.inkscape.org/) -->

<svg
   width="150.59367"
   height="155.36952"
   viewBox="0 0 39.844574 41.108186"
   version="1.1"
   id="svg5"
   inkscape:version="1.2 (dc2aedaf03, 2022-05-15)"
   sodipodi:docname="Scene 3.svg"
   xmlns:inkscape="http://www.inkscape.org/namespaces/inkscape"
   xmlns:sodipodi="http://sodipodi.sourceforge.net/DTD/sodipodi-0.dtd"
   xmlns="http://www.w3.org/2000/svg"
   xmlns:svg="http://www.w3.org/2000/svg">
  <sodipodi:namedview
     id="namedview7"
     pagecolor="#ffffff"
     bordercolor="#666666"
     borderopacity="1.0"
     inkscape:showpageshadow="2"
     inkscape:pageopacity="0.0"
     inkscape:pagecheckerboard="0"
     inkscape:deskcolor="#d1d1d1"
     inkscape:document-units="mm"
     showgrid="true"
     inkscape:zoom="1.0129245"
     inkscape:cx="630.84661"
     inkscape:cy="377.61945"
     inkscape:window-width="1920"
     inkscape:window-height="991"
     inkscape:window-x="-9"
     inkscape:window-y="-9"
     inkscape:window-maximized="1"
     inkscape:current-layer="layer1">
    <inkscape:grid
       type="axonomgrid"
       id="grid1326"
       snapvisiblegridlinesonly="false"
       units="px"
       spacingy="2.6458333"
       originx="169.33333"
       originy="95.25" />
  </sodipodi:namedview>
  <defs
     id="defs2" />
  <g
     inkscape:label="Layer 1"
     inkscape:groupmode="layer"
     id="layer1"
     transform="translate(-154.42884,-82.58696)">
    <g
       id="g941">
      <path
         d="m 172.19489,83.577873 q 0.14535,0.0534 0.21021,0.09159 0.0735,0.03415 0.1434,0.11724 0.0762,0.08538 0.07,0.219382 -0.006,0.134 -0.0805,0.336218 -0.0743,0.202219 -0.15634,0.308353 -0.082,0.106135 -0.1954,0.121863 -0.11103,0.0094 -0.19151,-0.0058 -0.0719,-0.01927 -0.22348,-0.07497 l -1.93372,-0.710488 -0.23451,0.638253 1.24491,0.457405 q 0.15166,0.05572 0.21653,0.09391 0.0735,0.03415 0.14972,0.119561 0.12948,0.155161 -0.0191,0.559598 -0.16253,0.442353 -0.43284,0.436274 -0.11272,-0.0056 -0.33391,-0.08682 l -1.23858,-0.455081 -0.43883,1.194353 q -0.0557,0.151664 -0.0939,0.216522 -0.0321,0.0671 -0.11725,0.143402 -0.15111,0.138135 -0.55559,-0.01048 -0.44236,-0.162531 -0.42996,-0.430529 -7.7e-4,-0.115042 0.0805,-0.336219 l 1.29096,-3.513547 q 0.11841,-0.322286 0.28027,-0.391921 0.16418,-0.07595 0.4991,0.04711 z"
         style="font-size:6.73238px;font-family:'Nunito Sans';-inkscape-font-specification:'Fredoka One';fill:#ffffff;stroke-width:0.114796"
         id="path735" />
      <path
         d="m 174.54635,85.962405 q 0.10614,0.08203 0.14714,0.204682 0.0496,0.118644 -0.0247,0.320866 -0.0743,0.202218 -0.2826,0.39824 -0.2083,0.196017 -0.43579,0.112432 -0.11374,-0.04179 -0.2026,-0.131819 -0.0825,-0.08771 -0.25316,-0.150398 -0.17062,-0.06269 -0.3664,0.0017 -0.18946,0.06667 -0.25215,0.237289 l -0.48759,1.327059 q -0.0534,0.145344 -0.0939,0.216521 -0.0321,0.0671 -0.11725,0.143403 -0.15516,0.129473 -0.55328,-0.0168 -0.30333,-0.111447 -0.39656,-0.267635 -0.0686,-0.125618 -0.0139,-0.313523 0.0232,-0.06319 0.0673,-0.183261 l 0.81497,-2.218085 q 0.0534,-0.145344 0.0855,-0.212443 0.0405,-0.07118 0.11725,-0.143403 0.15121,-0.138099 0.5556,0.01049 0.37916,0.13931 0.42055,0.319483 0.0323,0.12663 -0.007,0.234059 0.0479,-0.03262 0.12799,-0.07491 0.0864,-0.03998 0.32177,-0.07543 0.23538,-0.03545 0.38072,0.01795 0.15167,0.05573 0.24581,0.111837 0.0965,0.04979 0.2026,0.131819 z"
         style="font-size:6.73238px;font-family:'Nunito Sans';-inkscape-font-specification:'Fredoka One';fill:#ffffff;stroke-width:0.114796"
         id="path737" />
      <path
         d="m 177.73984,88.534383 q -0.14163,0.385479 -0.40718,0.503082 -0.25691,0.113606 -0.49073,0.0277 l -1.49768,-0.550278 q -0.065,0.176942 0.0994,0.373627 0.16443,0.19669 0.37297,0.273312 0.36652,0.134668 0.60292,0.135456 l 0.0787,2.43e-4 q 0.17721,-0.01379 0.27832,0.02336 0.20222,0.0743 0.24308,0.412071 0.0194,0.2008 -0.0247,0.320867 -0.20664,0.562421 -1.55266,0.06786 -0.46763,-0.171815 -0.7761,-0.464467 -0.29984,-0.29665 -0.40454,-0.636359 -0.21004,-0.658142 0.0221,-1.290075 0.29256,-0.796236 0.97856,-1.082117 0.69465,-0.289876 1.46561,-0.0066 0.87838,0.322737 1.06159,1.092951 0.0941,0.407547 -0.0498,0.799346 z m -1.40071,-0.30665 q 0.24014,0.08823 0.31443,-0.113988 0.0534,-0.145345 -0.0278,-0.275608 -0.0749,-0.127939 -0.28346,-0.20456 -0.20223,-0.0743 -0.46713,0.02202 -0.26259,0.09 -0.33225,0.279582 z"
         style="font-size:6.73238px;font-family:'Nunito Sans';-inkscape-font-specification:'Fredoka One';fill:#ffffff;stroke-width:0.114796"
         id="path739" />
      <path
         d="m 181.36082,89.864807 q -0.14163,0.385479 -0.40719,0.503079 -0.25691,0.113605 -0.49073,0.0277 l -1.49768,-0.550278 q -0.065,0.176942 0.0994,0.373631 0.16442,0.196689 0.37295,0.273308 0.36652,0.134668 0.60292,0.135456 l 0.0789,2.78e-4 q 0.17719,-0.01379 0.27831,0.02336 0.20222,0.0743 0.24307,0.412071 0.0194,0.2008 -0.0247,0.320867 -0.20664,0.56242 -1.55266,0.06787 -0.46763,-0.171818 -0.77611,-0.46447 -0.29982,-0.296647 -0.40453,-0.636359 -0.21005,-0.658142 0.0221,-1.290075 0.29255,-0.796236 0.97855,-1.082117 0.69466,-0.289876 1.46561,-0.0066 0.87839,0.322738 1.06161,1.092955 0.0941,0.407547 -0.0498,0.799346 z m -1.40072,-0.306653 q 0.24014,0.08823 0.31444,-0.113988 0.0534,-0.145345 -0.0278,-0.275608 -0.0749,-0.127939 -0.28346,-0.20456 -0.20221,-0.0743 -0.46713,0.02202 -0.26259,0.09 -0.33224,0.279582 z"
         style="font-size:6.73238px;font-family:'Nunito Sans';-inkscape-font-specification:'Fredoka One';fill:#ffffff;stroke-width:0.114796"
         id="path741" />
      <path
         d="m 184.97748,88.181221 q 0.0854,-0.0762 0.21938,-0.07001 0.134,0.0062 0.32989,0.07818 0.20222,0.0743 0.30837,0.156329 0.10613,0.08204 0.11554,0.193074 0.0158,0.113379 -0.006,0.191522 -0.0129,0.07417 -0.0663,0.219512 l -1.38615,3.772641 q -0.0534,0.145345 -0.0939,0.216521 -0.0321,0.0671 -0.11493,0.137083 -0.15749,0.135793 -0.59983,-0.02673 -0.43604,-0.16021 -0.37283,-0.488432 -0.37686,0.20581 -0.85081,0.03167 -0.56874,-0.208966 -0.85527,-0.873692 -0.28419,-0.671042 -0.0427,-1.328252 0.24379,-0.66353 0.89485,-0.990942 0.65737,-0.325088 1.21979,-0.118443 0.46764,0.171818 0.61064,0.582982 l 0.48759,-1.32706 q 0.0534,-0.145345 0.0855,-0.212443 0.0405,-0.07118 0.11725,-0.143403 z m -2.2845,3.055259 q 0.10162,0.230989 0.33543,0.316898 0.23381,0.08591 0.44817,-0.02899 0.22067,-0.112576 0.29497,-0.314795 0.0766,-0.208537 -0.01,-0.441204 -0.0803,-0.230343 -0.33311,-0.323218 -0.25277,-0.09287 -0.46945,0.02834 -0.21435,0.114896 -0.29097,0.323435 -0.0766,0.208537 0.025,0.439531 z"
         style="font-size:6.73238px;font-family:'Nunito Sans';-inkscape-font-specification:'Fredoka One';fill:#ffffff;stroke-width:0.114796"
         id="path743" />
      <path
         d="m 185.30947,91.767485 q 0.27862,-0.75832 0.99055,-1.056191 0.71193,-0.297872 1.39441,-0.04711 0.68249,0.250762 1.02589,0.936385 0.34572,0.679299 0.0671,1.437618 -0.19272,0.524505 -0.61537,0.835423 -0.42033,0.304598 -0.8841,0.356541 -0.45513,0.04795 -0.87221,-0.105295 -0.41708,-0.153243 -0.73457,-0.499414 -0.31518,-0.352494 -0.44063,-0.85045 -0.11682,-0.501955 0.0689,-1.007502 z m 1.15356,0.940257 q 0.1465,0.225964 0.35504,0.302586 0.20854,0.07662 0.47511,-0.0047 0.26659,-0.08136 0.38036,-0.391009 0.11377,-0.309647 -0.0264,-0.533287 -0.14017,-0.22364 -0.36767,-0.307228 -0.2275,-0.08359 -0.48144,0.0024 -0.25395,0.08601 -0.36772,0.395654 -0.11145,0.303329 0.0327,0.535609 z"
         style="font-size:6.73238px;font-family:'Nunito Sans';-inkscape-font-specification:'Fredoka One';fill:#ffffff;stroke-width:0.114796"
         id="path745" />
      <path
         d="m 190.73322,92.368833 q 0.46186,-0.339546 0.87894,-0.186303 0.64457,0.236828 0.75853,0.902703 0.10438,-0.06923 0.23628,-0.135532 0.14058,-0.07028 0.39956,-0.111402 0.26129,-0.04744 0.48879,0.03614 0.50554,0.185748 0.70283,0.702928 0.19962,0.510859 -0.13009,1.408204 l -0.40632,1.105883 q -0.0534,0.145344 -0.0939,0.216521 -0.0321,0.0671 -0.11725,0.143402 -0.14482,0.140446 -0.54927,-0.0082 -0.39812,-0.146277 -0.42159,-0.355727 -0.009,-0.111034 0.003,-0.185202 0.0213,-0.07825 0.0747,-0.22359 l 0.40633,-1.105884 q 0.202,-0.549781 -0.1898,-0.693737 -0.22117,-0.08126 -0.35673,0.0339 -0.12924,0.117479 -0.22676,0.382891 l -0.40632,1.105882 q -0.0557,0.151664 -0.0939,0.216521 -0.0321,0.0671 -0.11725,0.143403 -0.15121,0.1381 -0.55559,-0.01048 -0.39812,-0.146277 -0.42159,-0.355727 -0.009,-0.111034 0.003,-0.185202 0.0213,-0.07825 0.0747,-0.223591 l 0.40633,-1.105883 q 0.202,-0.549782 -0.1898,-0.693738 -0.37916,-0.13931 -0.58116,0.410472 l -0.41097,1.118522 q -0.0534,0.145344 -0.0939,0.21652 -0.0321,0.0671 -0.11725,0.143403 -0.15516,0.129477 -0.55328,-0.0168 -0.39811,-0.146277 -0.42389,-0.349405 -0.009,-0.111033 0.003,-0.185201 0.019,-0.07193 0.0747,-0.223591 l 0.81729,-2.224404 q 0.0534,-0.145345 0.0855,-0.212443 0.0405,-0.07118 0.12354,-0.141093 0.15747,-0.135795 0.51136,-0.0058 0.35388,0.130022 0.41951,0.283241 0.0656,0.153219 -0.0133,0.368077 z"
         style="font-size:6.73238px;font-family:'Nunito Sans';-inkscape-font-specification:'Fredoka One';fill:#ffffff;stroke-width:0.114796"
         id="path747" />
      <path
         d="m 164.50775,91.117219 -0.40148,-0.1762 -0.32041,0.872068 q -0.0627,0.170622 -0.04,0.265042 0.029,0.09673 0.17436,0.150134 0.15166,0.05572 0.22284,0.09623 0.0798,0.03647 0.14973,0.119565 0.11516,0.135551 -0.0102,0.476797 -0.14628,0.398117 -0.35572,0.421578 -0.11105,0.0094 -0.19152,-0.0058 -0.0718,-0.01923 -0.21085,-0.07033 -0.65721,-0.24147 -0.88932,-0.663859 -0.23212,-0.42239 0.0279,-1.130155 l 0.34363,-0.935261 q -0.12704,-0.02516 -0.26606,-0.07624 -0.13902,-0.05108 -0.19435,-0.193337 -0.049,-0.139952 0.0462,-0.399044 0.0952,-0.259093 0.16862,-0.361218 0.0757,-0.108445 0.1512,-0.1381 0.13129,-0.045 0.28296,0.01072 l 0.19925,0.1019 0.23915,-0.650891 q 0.0534,-0.145345 0.0855,-0.212443 0.0382,-0.06486 0.1189,-0.128454 0.14017,-0.127807 0.54463,0.0208 0.42971,0.157885 0.42595,0.421884 -0.006,0.112732 -0.0868,0.333909 l -0.22754,0.619294 q 0.28734,0.07689 0.42637,0.127966 0.14534,0.0534 0.21021,0.09159 0.0735,0.03415 0.14973,0.119565 0.13411,0.142518 -0.0145,0.546956 -0.14628,0.398118 -0.34941,0.423897 -0.11104,0.0094 -0.19152,-0.0058 -0.0719,-0.01927 -0.21717,-0.07265 z"
         style="font-size:6.73238px;font-family:'Nunito Sans';-inkscape-font-specification:'Fredoka One';fill:#ffffff;stroke-width:0.114796"
         id="path749" />
      <path
         d="m 165.11462,91.964196 q 0.27862,-0.75832 0.99055,-1.056191 0.71192,-0.297873 1.39441,-0.04711 0.68249,0.250757 1.02589,0.93638 0.34572,0.679303 0.0671,1.437622 -0.19271,0.524505 -0.61536,0.835423 -0.42034,0.304594 -0.88411,0.356541 -0.45514,0.04794 -0.87222,-0.105298 -0.41707,-0.15324 -0.73457,-0.499414 -0.31518,-0.352494 -0.44063,-0.85045 -0.11681,-0.501956 0.0689,-1.007502 z m 1.15356,0.94026 q 0.14649,0.225961 0.35503,0.302583 0.20854,0.07662 0.47513,-0.0047 0.26658,-0.08136 0.38035,-0.391008 0.11377,-0.309648 -0.0264,-0.533291 -0.14017,-0.22364 -0.36767,-0.307229 -0.22749,-0.08358 -0.48144,0.0024 -0.25394,0.08601 -0.36771,0.395654 -0.11145,0.303329 0.0327,0.535612 z"
         style="font-size:6.73238px;font-family:'Nunito Sans';-inkscape-font-specification:'Fredoka One';fill:#ffffff;stroke-width:0.114796"
         id="path751" />
      <path
         d="m 173.9563,94.760951 q -0.14164,0.385479 -0.40719,0.503082 -0.25692,0.113602 -0.49073,0.0277 l -1.49769,-0.550281 q -0.065,0.176942 0.0994,0.37363 0.16442,0.19669 0.37296,0.273312 0.36652,0.134668 0.60292,0.135453 l 0.0788,2.78e-4 q 0.17721,-0.01379 0.27832,0.02336 0.20221,0.0743 0.24308,0.412072 0.0194,0.200799 -0.0247,0.320866 -0.20664,0.562421 -1.55266,0.06787 -0.46764,-0.171819 -0.7761,-0.464467 -0.29984,-0.29665 -0.40455,-0.636363 -0.21004,-0.658141 0.0221,-1.290075 0.29255,-0.796235 0.97857,-1.082113 0.69464,-0.289879 1.46559,-0.0066 0.87839,0.322738 1.06161,1.092955 0.0941,0.407547 -0.0498,0.799346 z m -1.40072,-0.30665 q 0.24014,0.08823 0.31444,-0.113988 0.0534,-0.145345 -0.0279,-0.275611 -0.0749,-0.127939 -0.28345,-0.204557 -0.20222,-0.0743 -0.46714,0.02202 -0.26258,0.09001 -0.33223,0.279585 z"
         style="font-size:6.73238px;font-family:'Nunito Sans';-inkscape-font-specification:'Fredoka One';fill:#ffffff;stroke-width:0.114796"
         id="path753" />
      <path
         d="m 176.52965,96.151145 0.44139,0.96549 q 0.14392,0.311084 0.0835,0.475387 -0.058,0.157982 -0.36913,0.30189 -0.30876,0.137592 -0.46674,0.07955 -0.15799,-0.05805 -0.3019,-0.369131 l -0.4374,-0.956848 -0.95917,0.443721 q -0.31108,0.143908 -0.46907,0.08586 -0.15165,-0.05572 -0.30421,-0.362807 -0.14391,-0.311085 -0.0859,-0.469068 0.0604,-0.164302 0.37145,-0.30821 l 0.96149,-0.450041 -0.44139,-0.965489 q -0.14392,-0.311084 -0.0859,-0.469067 0.0604,-0.164303 0.37145,-0.308211 0.31741,-0.141587 0.46907,-0.08586 0.15798,0.05805 0.30189,0.369131 l 0.4414,0.96549 0.95517,-0.452362 q 0.31109,-0.143908 0.46907,-0.08586 0.15798,0.05805 0.30189,0.369128 0.14391,0.311084 0.0835,0.475387 -0.058,0.157983 -0.36913,0.301891 z"
         style="font-size:6.73238px;font-family:'Nunito Sans';-inkscape-font-specification:'Fredoka One';fill:#ffffff;stroke-width:0.114796"
         id="path755" />
      <path
         d="m 176.86116,99.192127 1.35596,-3.690489 q 0.0534,-0.145345 0.0855,-0.212443 0.0382,-0.06486 0.11493,-0.137084 0.15121,-0.138099 0.48609,-0.01506 0.33493,0.12306 0.41617,0.25332 0.0899,0.126267 0.0485,0.297534 0.36087,-0.240375 0.87274,-0.0523 0.51818,0.19039 0.80071,0.846473 0.28253,0.656085 0.0457,1.300657 -0.23683,0.644572 -0.87693,0.961663 -0.63377,0.319415 -1.15195,0.129025 -0.51819,-0.190394 -0.6452,-0.566992 l -0.46902,1.276505 q -0.0534,0.145344 -0.0916,0.210202 -0.0321,0.0671 -0.11493,0.137083 -0.079,0.07855 -0.20674,0.07466 -0.12768,-0.004 -0.32358,-0.07586 -0.1959,-0.07198 -0.30204,-0.154005 -0.0998,-0.0797 -0.11786,-0.186754 -0.0117,-0.104712 0.001,-0.178883 0.019,-0.07193 0.0724,-0.217271 z m 2.34482,-2.516678 q -0.20804,0.117217 -0.28234,0.319436 -0.0743,0.202219 0.008,0.426245 0.0913,0.220028 0.31879,0.303613 0.23382,0.08591 0.45217,-0.02035 0.22467,-0.103935 0.30129,-0.312473 0.0766,-0.208538 -0.0147,-0.428566 -0.089,-0.226344 -0.33543,-0.316899 -0.24013,-0.08823 -0.44816,0.02899 z"
         style="font-size:6.73238px;font-family:'Nunito Sans';-inkscape-font-specification:'Fredoka One';fill:#ffffff;stroke-width:0.114796"
         id="path757" />
      <path
         d="m 184.34304,97.178635 q 0.10614,0.08203 0.14714,0.204682 0.0496,0.118645 -0.0247,0.320866 -0.0743,0.202218 -0.28261,0.398237 -0.20829,0.19602 -0.43579,0.112432 -0.11374,-0.04179 -0.2026,-0.131819 -0.0825,-0.08771 -0.25316,-0.150398 -0.17062,-0.06269 -0.3664,0.0017 -0.18946,0.06667 -0.25215,0.237289 l -0.48758,1.327059 q -0.0534,0.145344 -0.0939,0.216521 -0.0321,0.0671 -0.11725,0.143403 -0.15515,0.129476 -0.55327,-0.0168 -0.30334,-0.111451 -0.39657,-0.267639 -0.0686,-0.125618 -0.0139,-0.313524 0.0232,-0.06319 0.0673,-0.18326 l 0.81497,-2.218085 q 0.0534,-0.145345 0.0855,-0.212443 0.0405,-0.07118 0.11725,-0.143403 0.15121,-0.1381 0.5556,0.01048 0.37916,0.139311 0.42055,0.319484 0.0323,0.12663 -0.007,0.234059 0.0479,-0.03262 0.12799,-0.07491 0.0864,-0.03998 0.32177,-0.07543 0.23538,-0.03545 0.38072,0.01795 0.15167,0.05573 0.24581,0.111837 0.0965,0.04979 0.2026,0.131819 z"
         style="font-size:6.73238px;font-family:'Nunito Sans';-inkscape-font-specification:'Fredoka One';fill:#ffffff;stroke-width:0.114796"
         id="path759" />
      <path
         d="m 187.53653,99.750613 q -0.14163,0.385477 -0.40718,0.503087 -0.25691,0.1136 -0.49073,0.0277 l -1.49768,-0.550283 q -0.065,0.176941 0.0994,0.373623 0.16443,0.19669 0.37297,0.27332 0.36652,0.13466 0.60292,0.13545 l 0.0788,2.5e-4 q 0.17721,-0.0138 0.27832,0.0234 0.20222,0.0743 0.24308,0.41207 0.0194,0.2008 -0.0247,0.32086 -0.20664,0.56242 -1.55266,0.0679 -0.46763,-0.17181 -0.7761,-0.46446 -0.29984,-0.29665 -0.40454,-0.63636 -0.21004,-0.658145 0.0221,-1.290078 0.29256,-0.796236 0.97856,-1.082117 0.69465,-0.289875 1.46561,-0.0066 0.87838,0.322737 1.06159,1.092951 0.0941,0.407547 -0.0498,0.799346 z m -1.40071,-0.30665 q 0.24014,0.08823 0.31443,-0.113988 0.0534,-0.145345 -0.0278,-0.275607 -0.0749,-0.127939 -0.28346,-0.204561 -0.20223,-0.0743 -0.46713,0.02202 -0.26259,0.09 -0.33225,0.279581 z"
         style="font-size:6.73238px;font-family:'Nunito Sans';-inkscape-font-specification:'Fredoka One';fill:#ffffff;stroke-width:0.114796"
         id="path761" />
      <path
         d="m 187.32477,101.67392 q -0.0922,-0.11995 -0.0318,-0.28426 0.0604,-0.1643 0.42356,-0.41099 0.10903,-0.0819 0.26066,-0.0262 0.15798,0.058 0.36535,0.31355 0.20968,0.24918 0.42454,0.32812 0.38547,0.14163 0.4412,-0.01 0.0441,-0.12007 -0.35838,-0.3325 -0.37723,-0.20315 -0.68079,-0.58724 -0.14146,-0.18108 -0.17331,-0.46534 -0.0295,-0.290563 0.0936,-0.625487 0.36685,-0.998455 1.73814,-0.494615 0.44868,0.164852 0.84369,0.553849 0.18402,0.182373 0.12829,0.334037 -0.0557,0.151666 -0.27601,0.321756 -0.22029,0.1701 -0.36564,0.1167 -0.0758,-0.0279 -0.24953,-0.19927 -0.1674,-0.16909 -0.40753,-0.257325 -0.37284,-0.13699 -0.42392,0.002 -0.0697,0.189585 0.33916,0.404345 0.40082,0.19748 0.72065,0.53733 0.15076,0.1558 0.18955,0.42109 0.0474,0.2613 -0.0733,0.5899 -0.12073,0.32861 -0.33303,0.51599 -0.20365,0.18338 -0.46663,0.21586 -0.47641,0.0473 -1.08938,-0.17792 -0.60666,-0.2229 -1.03906,-0.78342 z"
         style="font-size:6.73238px;font-family:'Nunito Sans';-inkscape-font-specification:'Fredoka One';fill:#ffffff;stroke-width:0.114796"
         id="path763" />
      <path
         d="m 190.41493,102.80931 q -0.0922,-0.11996 -0.0318,-0.28426 0.0604,-0.1643 0.42356,-0.41099 0.10903,-0.0819 0.26065,-0.0262 0.15798,0.058 0.36535,0.31354 0.20968,0.24919 0.42454,0.32813 0.38548,0.14163 0.44121,-0.01 0.0441,-0.12007 -0.35839,-0.33251 -0.37722,-0.20315 -0.68079,-0.58724 -0.14147,-0.18108 -0.1733,-0.46533 -0.0295,-0.29057 0.0935,-0.62549 0.36685,-0.998457 1.73815,-0.49461 0.44868,0.16485 0.84368,0.55385 0.18403,0.18237 0.1283,0.33403 -0.0557,0.15167 -0.27601,0.32176 -0.22029,0.1701 -0.36564,0.1167 -0.0758,-0.0279 -0.24954,-0.19928 -0.16739,-0.16909 -0.40752,-0.25732 -0.37284,-0.13699 -0.42392,0.002 -0.0697,0.18958 0.33916,0.40434 0.40082,0.19748 0.72064,0.53733 0.15075,0.1558 0.18956,0.4211 0.0474,0.2613 -0.0733,0.5899 -0.12074,0.32861 -0.33303,0.51598 -0.20366,0.18338 -0.46663,0.21587 -0.47641,0.0473 -1.08939,-0.17792 -0.60665,-0.2229 -1.03905,-0.78343 z"
         style="font-size:6.73238px;font-family:'Nunito Sans';-inkscape-font-specification:'Fredoka One';fill:#ffffff;stroke-width:0.114796"
         id="path765" />
      <path
         d="m 167.01114,99.560744 q 0.46186,-0.339546 0.87892,-0.186306 0.64458,0.236832 0.75855,0.902712 0.10429,-0.0693 0.23628,-0.13554 0.14058,-0.0703 0.39955,-0.1114 0.26129,-0.04744 0.48879,0.0361 0.50554,0.18575 0.70283,0.70293 0.19961,0.51086 -0.13009,1.4082 l -0.40632,1.10589 q -0.0534,0.14534 -0.0939,0.21652 -0.0321,0.0671 -0.11725,0.1434 -0.14482,0.14045 -0.54928,-0.008 -0.39811,-0.14628 -0.42157,-0.35572 -0.009,-0.11104 0.003,-0.18521 0.0213,-0.0782 0.0747,-0.22359 l 0.40633,-1.10588 q 0.202,-0.54978 -0.18979,-0.69373 -0.22119,-0.0813 -0.35674,0.0339 -0.12925,0.11747 -0.22676,0.38289 l -0.40633,1.10588 q -0.0557,0.15166 -0.0939,0.21652 -0.0321,0.0671 -0.11725,0.1434 -0.15121,0.1381 -0.55561,-0.0105 -0.39811,-0.14627 -0.42157,-0.35572 -0.009,-0.11104 0.003,-0.1852 0.0213,-0.0782 0.0747,-0.22359 l 0.40632,-1.10589 q 0.20201,-0.54978 -0.18979,-0.69373 -0.37917,-0.13932 -0.58117,0.41046 l -0.41097,1.11853 q -0.0534,0.14534 -0.0939,0.21652 -0.0321,0.0671 -0.11725,0.1434 -0.15516,0.12947 -0.55328,-0.0168 -0.39812,-0.14628 -0.42389,-0.34941 -0.009,-0.11103 0.003,-0.1852 0.019,-0.0719 0.0747,-0.22359 l 0.81729,-2.224402 q 0.0534,-0.145345 0.0855,-0.212444 0.0405,-0.07118 0.12354,-0.141092 0.15749,-0.135792 0.51137,-0.0058 0.35388,0.130023 0.41951,0.283241 0.0656,0.153223 -0.0133,0.368081 z"
         style="font-size:6.73238px;font-family:'Nunito Sans';-inkscape-font-specification:'Fredoka One';fill:#ffffff;stroke-width:0.114796"
         id="path767" />
      <path
         d="m 174.35744,101.8009 q 0.31247,0.30129 0.22657,0.5351 -0.0418,0.11375 -0.12954,0.19627 -0.0877,0.0825 -0.0901,0.0888 l -3.01627,3.09481 q -0.0947,0.10148 -0.15585,0.15074 -0.0549,0.0516 -0.15154,0.0806 -0.0967,0.029 -0.21048,-0.0128 -0.11374,-0.0418 -0.3001,-0.21785 -0.31247,-0.30129 -0.22888,-0.52879 0.0557,-0.15166 1.13836,-1.22423 l -0.47973,-2.57902 q -0.0498,-0.25498 -0.0126,-0.35609 0.0743,-0.20222 0.48984,-0.27906 0.26129,-0.0474 0.38137,-0.003 0.12006,0.0441 0.17732,0.12254 0.0573,0.0784 0.0679,0.1469 0.0194,0.0645 0.13163,0.71539 0.12093,0.64692 0.23581,1.21272 0.0688,-0.0895 0.62684,-0.6519 0.5604,-0.56872 0.59561,-0.60599 0.0415,-0.035 0.11531,-0.0796 0.12161,-0.0772 0.26697,-0.0238 0.15166,0.0557 0.32138,0.2185 z"
         style="font-size:6.73238px;font-family:'Nunito Sans';-inkscape-font-specification:'Fredoka One';fill:#ffffff;stroke-width:0.114796"
         id="path769" />
      <path
         d="m 173.87617,105.0238 q -0.0922,-0.11995 -0.0318,-0.28425 0.0604,-0.1643 0.42357,-0.411 0.10894,-0.0819 0.26065,-0.0262 0.15798,0.058 0.36535,0.31355 0.20969,0.24919 0.42454,0.32813 0.38548,0.14163 0.4412,-0.01 0.0441,-0.12007 -0.35838,-0.33251 -0.37722,-0.20315 -0.68079,-0.58724 -0.14146,-0.18108 -0.1733,-0.46533 -0.0295,-0.29057 0.0935,-0.62549 0.36686,-0.99846 1.73814,-0.49462 0.44868,0.16486 0.84369,0.55385 0.18402,0.18237 0.1283,0.33404 -0.0557,0.15166 -0.27602,0.32176 -0.22028,0.1701 -0.36562,0.1167 -0.0759,-0.0279 -0.24955,-0.19928 -0.16739,-0.16909 -0.40753,-0.25732 -0.37284,-0.13699 -0.42392,0.002 -0.0696,0.18958 0.33916,0.40434 0.40083,0.19748 0.72065,0.53733 0.15076,0.15581 0.18955,0.4211 0.0474,0.2613 -0.0733,0.5899 -0.12073,0.32861 -0.33303,0.51598 -0.20365,0.18339 -0.46663,0.21587 -0.47641,0.0473 -1.08938,-0.17792 -0.60666,-0.2229 -1.03906,-0.78343 z"
         style="font-size:6.73238px;font-family:'Nunito Sans';-inkscape-font-specification:'Fredoka One';fill:#ffffff;stroke-width:0.114796"
         id="path771" />
      <path
         d="m 180.79907,105.56631 q -0.14163,0.38548 -0.40719,0.50308 -0.25691,0.11361 -0.49073,0.0277 l -1.49768,-0.55028 q -0.065,0.17694 0.0994,0.37363 0.16442,0.19669 0.37295,0.27331 0.36652,0.13467 0.60292,0.13546 l 0.0788,2.8e-4 q 0.17719,-0.0138 0.27831,0.0234 0.20222,0.0743 0.24307,0.41207 0.0195,0.2008 -0.0247,0.32086 -0.20664,0.56242 -1.55266,0.0679 -0.46763,-0.17181 -0.77611,-0.46447 -0.29982,-0.29664 -0.40453,-0.63636 -0.21005,-0.65814 0.0221,-1.29007 0.29255,-0.79624 0.97855,-1.08212 0.69466,-0.28988 1.46561,-0.007 0.87839,0.32274 1.06161,1.09296 0.0941,0.40754 -0.0498,0.79934 z m -1.40072,-0.30665 q 0.24014,0.0882 0.31444,-0.11399 0.0534,-0.14534 -0.0278,-0.27561 -0.0749,-0.12794 -0.28346,-0.20456 -0.20222,-0.0743 -0.46713,0.022 -0.26259,0.09 -0.33224,0.27958 z"
         style="font-size:6.73238px;font-family:'Nunito Sans';-inkscape-font-specification:'Fredoka One';fill:#ffffff;stroke-width:0.114796"
         id="path773" />
      <path
         d="m 182.04801,103.43595 q 0.0534,-0.14535 0.0855,-0.21244 0.0405,-0.0712 0.11957,-0.14973 0.1512,-0.1381 0.5556,0.0105 0.38548,0.14164 0.41758,0.34709 0.0158,0.11338 -0.006,0.19152 -0.0152,0.0805 -0.0686,0.22583 l -1.07502,2.92585 q -0.0836,0.2275 -0.0689,0.30463 0.017,0.0708 0.1434,0.11724 0.13271,0.0488 0.1723,0.0777 0.0419,0.0225 0.0889,0.09 0.0962,0.12858 -0.0385,0.49511 -0.14627,0.39811 -0.30517,0.44015 -0.20609,0.0534 -0.79753,-0.25 -0.46337,-0.24197 -0.51352,-0.55447 -0.0632,-0.37466 0.18528,-1.05083 z"
         style="font-size:6.73238px;font-family:'Nunito Sans';-inkscape-font-specification:'Fredoka One';fill:#ffffff;stroke-width:0.114796"
         id="path775" />
      <path
         d="m 185.49738,105.85808 q 0.43604,0.16021 0.42364,0.42821 -0.006,0.134 -0.0782,0.3299 -0.072,0.1959 -0.1603,0.29972 -0.0797,0.0998 -0.18675,0.11787 -0.16057,0.0271 -0.41334,-0.0658 l -0.39515,-0.17387 -0.62226,1.69358 q -0.0882,0.24013 -0.19552,0.33699 -0.0987,0.0928 -0.23897,0.0843 -0.134,-0.006 -0.3299,-0.0782 -0.1959,-0.072 -0.30204,-0.15401 -0.0975,-0.086 -0.11554,-0.19307 -0.0158,-0.11338 -4.8e-4,-0.19383 0.0213,-0.0782 0.0747,-0.22359 l 0.6153,-1.67463 -0.2275,-0.0836 q -0.15966,-0.073 -0.20595,-0.16174 -0.076,-0.16418 0.0494,-0.50542 0.1904,-0.51819 0.56324,-0.3812 l 0.20854,0.0766 0.12305,-0.33492 q 0.17879,-0.4866 0.6703,-0.75069 0.49384,-0.27042 1.15106,-0.0289 0.14534,0.0534 0.21021,0.0916 0.0735,0.0342 0.14972,0.11956 0.14044,0.14484 -0.008,0.54928 -0.11145,0.30333 -0.26763,0.39656 -0.12567,0.0686 -0.31985,0.0116 -0.0569,-0.0209 -0.17694,-0.065 -0.23381,-0.0859 -0.29186,0.0721 l -0.1277,0.34757 z"
         style="font-size:6.73238px;font-family:'Nunito Sans';-inkscape-font-specification:'Fredoka One';fill:#ffffff;stroke-width:0.114796"
         id="path777" />
      <path
         d="m 170.99249,112.43597 q -0.0922,-0.11995 -0.0318,-0.28425 0.0604,-0.1643 0.42356,-0.41099 0.10893,-0.0819 0.26065,-0.0262 0.15798,0.058 0.36534,0.31354 0.20969,0.24919 0.42455,0.32813 0.38548,0.14163 0.44121,-0.01 0.0441,-0.12007 -0.35839,-0.33251 -0.37722,-0.20315 -0.68079,-0.58724 -0.14147,-0.18108 -0.1733,-0.46533 -0.0295,-0.29057 0.0935,-0.62549 0.36685,-0.99846 1.73815,-0.49461 0.44867,0.16485 0.84367,0.55384 0.18404,0.18238 0.12831,0.33404 -0.0557,0.15167 -0.27601,0.32176 -0.2203,0.1701 -0.36564,0.11669 -0.0758,-0.0279 -0.24954,-0.19927 -0.16739,-0.16909 -0.40753,-0.25732 -0.37284,-0.13699 -0.42392,0.002 -0.0697,0.18958 0.33917,0.40434 0.40081,0.19748 0.72064,0.53733 0.15075,0.1558 0.18955,0.4211 0.0475,0.26129 -0.0733,0.5899 -0.12074,0.3286 -0.33303,0.51598 -0.20365,0.18338 -0.46662,0.21587 -0.47642,0.0473 -1.0894,-0.17793 -0.60665,-0.22289 -1.03905,-0.78342 z"
         style="font-size:6.73238px;font-family:'Nunito Sans';-inkscape-font-specification:'Fredoka One';fill:#ffffff;stroke-width:0.114796"
         id="path783" />
      <path
         d="m 155.32566,110.01001 q 0.0534,-0.14534 0.0855,-0.21244 0.0405,-0.0712 0.11957,-0.14972 0.14879,-0.13182 0.55327,0.0168 0.30334,0.11145 0.39025,0.26531 0.0749,0.12794 0.0139,0.31353 -0.0166,0.0656 -0.0608,0.18567 l -0.81265,2.21177 q -0.0534,0.14534 -0.0939,0.21652 -0.0321,0.0671 -0.11725,0.1434 -0.1425,0.13413 -0.54695,-0.0145 -0.39812,-0.14627 -0.4239,-0.3494 -0.009,-0.11103 0.003,-0.1852 0.019,-0.0719 0.0747,-0.22359 z m 1.46591,-0.78829 q -0.0767,0.0722 -0.21074,0.066 -0.13399,-0.006 -0.33621,-0.0805 -0.1959,-0.072 -0.30204,-0.15401 -0.10613,-0.082 -0.12186,-0.1954 -0.009,-0.11103 0.003,-0.1852 0.0213,-0.0782 0.0747,-0.22359 0.0534,-0.14534 0.0855,-0.21244 0.0405,-0.0712 0.11725,-0.14341 0.15111,-0.13813 0.55559,0.0105 0.39812,0.14628 0.41758,0.34709 0.0158,0.11338 -0.006,0.19152 -0.0129,0.0742 -0.0663,0.21951 -0.0534,0.14535 -0.0939,0.21652 -0.0321,0.0671 -0.11725,0.1434 z"
         style="font-size:6.73238px;font-family:'Nunito Sans';-inkscape-font-specification:'Fredoka One';fill:#ffffff;stroke-width:0.114796"
         id="path785" />
      <path
         d="m 158.0658,110.8877 q 0.46187,-0.33955 0.87894,-0.18631 0.64457,0.23683 0.75853,0.90271 0.10438,-0.0692 0.23629,-0.13553 0.14057,-0.0703 0.39955,-0.11141 0.2613,-0.0474 0.48879,0.0361 0.50554,0.18575 0.70283,0.70293 0.19962,0.51086 -0.13009,1.40821 l -0.40632,1.10588 q -0.0534,0.14534 -0.0939,0.21652 -0.0321,0.0671 -0.11725,0.1434 -0.14482,0.14045 -0.54927,-0.008 -0.39812,-0.14627 -0.42158,-0.35572 -0.009,-0.11103 0.003,-0.1852 0.0213,-0.0782 0.0747,-0.22359 l 0.40633,-1.10589 q 0.202,-0.54978 -0.18979,-0.69373 -0.22119,-0.0813 -0.35674,0.0339 -0.12924,0.11748 -0.22676,0.38289 l -0.40633,1.10588 q -0.0557,0.15167 -0.0939,0.21652 -0.0321,0.0671 -0.11725,0.14341 -0.15121,0.1381 -0.55561,-0.0105 -0.39811,-0.14628 -0.42157,-0.35573 -0.009,-0.11103 0.003,-0.1852 0.0213,-0.0782 0.0747,-0.22359 l 0.40633,-1.10588 q 0.202,-0.54979 -0.18979,-0.69374 -0.37917,-0.13931 -0.58117,0.41047 l -0.41097,1.11852 q -0.0534,0.14535 -0.0939,0.21652 -0.0321,0.0671 -0.11725,0.14341 -0.15516,0.12947 -0.55328,-0.0168 -0.39811,-0.14628 -0.42389,-0.34941 -0.009,-0.11103 0.003,-0.1852 0.019,-0.0719 0.0747,-0.22359 l 0.81729,-2.2244 q 0.0534,-0.14535 0.0855,-0.21245 0.0405,-0.0712 0.12354,-0.14109 0.15749,-0.13579 0.51137,-0.006 0.35388,0.13002 0.41951,0.28324 0.0656,0.15322 -0.0133,0.36808 z"
         style="font-size:6.73238px;font-family:'Nunito Sans';-inkscape-font-specification:'Fredoka One';fill:#ffffff;stroke-width:0.114796"
         id="path787" />
      <path
         d="m 160.96352,116.25583 1.35596,-3.69049 q 0.0534,-0.14534 0.0855,-0.21244 0.0382,-0.0649 0.11493,-0.13708 0.1512,-0.1381 0.48609,-0.0151 0.33492,0.12306 0.41616,0.25332 0.0899,0.12627 0.0485,0.29753 0.36088,-0.24037 0.87274,-0.0523 0.51818,0.19039 0.80071,0.84648 0.28253,0.65608 0.0457,1.30065 -0.23683,0.64457 -0.87692,0.96167 -0.63377,0.31941 -1.15196,0.12902 -0.51818,-0.19039 -0.6452,-0.56699 l -0.46901,1.27651 q -0.0534,0.14534 -0.0916,0.2102 -0.0321,0.0671 -0.11493,0.13708 -0.079,0.0785 -0.20675,0.0747 -0.12767,-0.004 -0.32358,-0.0759 -0.19589,-0.072 -0.30202,-0.154 -0.0998,-0.0797 -0.11788,-0.18676 -0.0117,-0.10471 0.001,-0.17888 0.019,-0.0719 0.0724,-0.21727 z m 2.34482,-2.51667 q -0.20803,0.11722 -0.28233,0.31944 -0.0743,0.20221 0.008,0.42624 0.0913,0.22002 0.31879,0.30361 0.23381,0.0859 0.45216,-0.0204 0.22467,-0.10394 0.30129,-0.31247 0.0766,-0.20854 -0.0147,-0.42857 -0.089,-0.22634 -0.33543,-0.31689 -0.24014,-0.0882 -0.44817,0.029 z"
         style="font-size:6.73238px;font-family:'Nunito Sans';-inkscape-font-specification:'Fredoka One';fill:#ffffff;stroke-width:0.114796"
         id="path789" />
      <path
         d="m 165.48926,115.00668 q 0.27862,-0.75832 0.99055,-1.05619 0.71193,-0.29787 1.39441,-0.0471 0.68249,0.25076 1.02589,0.93638 0.34572,0.6793 0.0671,1.43762 -0.19271,0.52451 -0.61536,0.83542 -0.42033,0.3046 -0.88411,0.35655 -0.45513,0.048 -0.8722,-0.1053 -0.41708,-0.15324 -0.73457,-0.49941 -0.31518,-0.3525 -0.44064,-0.85045 -0.11681,-0.50196 0.0689,-1.00751 z m 1.15356,0.94026 q 0.1465,0.22596 0.35504,0.30258 0.20853,0.0766 0.47511,-0.005 0.26659,-0.0814 0.38036,-0.39101 0.11377,-0.30964 -0.0264,-0.53328 -0.14017,-0.22364 -0.36767,-0.30723 -0.2275,-0.0836 -0.48145,0.002 -0.25394,0.086 -0.36771,0.39565 -0.11145,0.30333 0.0327,0.53561 z"
         style="font-size:6.73238px;font-family:'Nunito Sans';-inkscape-font-specification:'Fredoka One';fill:#ffffff;stroke-width:0.114796"
         id="path791" />
      <path
         d="m 172.237,115.63545 q 0.10614,0.082 0.14715,0.20469 0.0496,0.11864 -0.0247,0.32087 -0.0743,0.20221 -0.2826,0.39823 -0.20829,0.19602 -0.43579,0.11244 -0.11375,-0.0418 -0.2026,-0.13182 -0.0825,-0.0877 -0.25316,-0.1504 -0.17062,-0.0627 -0.3664,0.002 -0.18946,0.0667 -0.25215,0.23729 l -0.48759,1.32706 q -0.0534,0.14534 -0.0939,0.21652 -0.0321,0.0671 -0.11725,0.1434 -0.15516,0.12948 -0.55328,-0.0168 -0.30333,-0.11145 -0.39656,-0.26764 -0.0686,-0.12562 -0.0139,-0.31352 0.0232,-0.0632 0.0673,-0.18326 l 0.81497,-2.21809 q 0.0534,-0.14534 0.0855,-0.21244 0.0405,-0.0712 0.11725,-0.1434 0.1512,-0.1381 0.5556,0.0105 0.37916,0.13931 0.42055,0.31948 0.0323,0.12663 -0.007,0.23406 0.0479,-0.0326 0.12798,-0.0749 0.0864,-0.04 0.32178,-0.0754 0.23538,-0.0355 0.38072,0.0179 0.15166,0.0557 0.24581,0.11184 0.0965,0.0498 0.2026,0.13182 z"
         style="font-size:6.73238px;font-family:'Nunito Sans';-inkscape-font-specification:'Fredoka One';fill:#ffffff;stroke-width:0.114796"
         id="path793" />
      <path
         d="m 174.3993,117.65641 -0.40148,-0.1762 -0.32041,0.87207 q -0.0627,0.17062 -0.04,0.26504 0.029,0.0967 0.17436,0.15014 0.15166,0.0557 0.22284,0.0962 0.0798,0.0365 0.14973,0.11956 0.11516,0.13555 -0.0102,0.4768 -0.14628,0.39812 -0.35572,0.42158 -0.11105,0.009 -0.19152,-0.006 -0.0719,-0.0193 -0.21085,-0.0703 -0.65721,-0.24148 -0.88932,-0.66386 -0.23212,-0.42239 0.0279,-1.13016 l 0.34363,-0.93526 q -0.12704,-0.0252 -0.26606,-0.0762 -0.13902,-0.0511 -0.19435,-0.19334 -0.0489,-0.13991 0.0462,-0.399 0.0952,-0.2591 0.16862,-0.36122 0.0757,-0.10845 0.15111,-0.13814 0.1313,-0.045 0.28297,0.0107 l 0.19925,0.1019 0.23915,-0.65089 q 0.0534,-0.14534 0.0855,-0.21244 0.0382,-0.0649 0.1189,-0.12845 0.14018,-0.12781 0.54464,0.0208 0.42971,0.15788 0.42595,0.42188 -0.006,0.11273 -0.0868,0.33391 l -0.22754,0.61929 q 0.28734,0.0769 0.42637,0.12797 0.14534,0.0534 0.21021,0.0916 0.0735,0.0341 0.14972,0.11956 0.13412,0.14252 -0.0145,0.54696 -0.14627,0.39812 -0.34941,0.4239 -0.11103,0.009 -0.19151,-0.006 -0.0719,-0.0193 -0.21717,-0.0726 z"
         style="font-size:6.73238px;font-family:'Nunito Sans';-inkscape-font-specification:'Fredoka One';fill:#ffffff;stroke-width:0.114796"
         id="path795" />
      <path
         d="m 177.74511,118.01787 q 0.16795,-0.33995 0.62925,-0.17046 0.24646,0.0906 0.35259,0.17258 0.10614,0.082 0.11554,0.19308 0.0158,0.11338 -0.006,0.19152 -0.0129,0.0742 -0.0663,0.21951 l -0.81265,2.21177 q -0.0534,0.14534 -0.0939,0.21652 -0.0321,0.0671 -0.11096,0.14571 -0.14889,0.13178 -0.49641,0.004 -0.34125,-0.12538 -0.43113,-0.25164 -0.0812,-0.13026 -0.0398,-0.30153 -0.35687,0.24901 -0.90666,0.047 -0.54346,-0.19968 -0.82766,-0.87073 -0.2842,-0.67104 -0.0427,-1.32825 0.2438,-0.66353 0.89253,-0.98462 0.65737,-0.32509 1.21979,-0.11845 0.21486,0.0789 0.36394,0.21979 0.14908,0.14085 0.19305,0.2359 0.0463,0.0888 0.0673,0.16818 z m -1.63307,0.89184 q -0.0766,0.20854 0.025,0.43953 0.10393,0.22467 0.33775,0.31058 0.23381,0.0859 0.44817,-0.029 0.22067,-0.11257 0.29497,-0.31479 0.0766,-0.20854 -0.01,-0.44121 -0.0803,-0.23034 -0.33311,-0.32321 -0.24645,-0.0905 -0.46945,0.0283 -0.21668,0.12121 -0.2933,0.32975 z"
         style="font-size:6.73238px;font-family:'Nunito Sans';-inkscape-font-specification:'Fredoka One';fill:#ffffff;stroke-width:0.114796"
         id="path797" />
      <path
         d="m 181.33181,118.93404 q 0.63193,0.23219 0.87023,0.87202 0.24693,0.63583 -0.008,1.33096 l -0.40865,1.1122 q -0.0534,0.14535 -0.0939,0.21652 -0.0321,0.0671 -0.10855,0.13943 -0.1512,0.1381 -0.5556,-0.0105 -0.44867,-0.16485 -0.43228,-0.42421 0.002,-0.12136 0.0805,-0.33622 l 0.40865,-1.1122 q 0.0952,-0.25909 -0.003,-0.46016 -0.0919,-0.19875 -0.34471,-0.29162 -0.24646,-0.0905 -0.46016,0.003 -0.2074,0.0959 -0.29795,0.34239 l -0.41097,1.11852 q -0.0534,0.14535 -0.0939,0.21652 -0.0321,0.0671 -0.11493,0.13709 -0.14482,0.14044 -0.54929,-0.008 -0.39811,-0.14628 -0.42389,-0.34941 -0.009,-0.11103 0.003,-0.1852 0.0213,-0.0782 0.0747,-0.22359 l 0.82194,-2.23704 q 0.0511,-0.13903 0.0832,-0.20613 0.0405,-0.0712 0.12354,-0.14109 0.14656,-0.12546 0.54464,0.0208 0.38547,0.14163 0.42055,0.31948 0.0237,0.13064 -0.032,0.28231 0.0415,-0.035 0.16018,-0.0846 0.1187,-0.0496 0.21939,-0.07 0.26826,-0.0664 0.52734,0.0288 z"
         style="font-size:6.73238px;font-family:'Nunito Sans';-inkscape-font-specification:'Fredoka One';fill:#ffffff;stroke-width:0.114796"
         id="path799" />
      <path
         d="m 184.76933,121.46658 -0.40147,-0.1762 -0.32042,0.87207 q -0.0627,0.17062 -0.04,0.26504 0.029,0.0967 0.17436,0.15013 0.15167,0.0557 0.22285,0.0962 0.0798,0.0365 0.14973,0.11957 0.11516,0.13555 -0.0102,0.4768 -0.14627,0.39811 -0.35571,0.42157 -0.11105,0.009 -0.19153,-0.006 -0.0718,-0.0192 -0.21085,-0.0703 -0.6572,-0.24147 -0.88932,-0.66386 -0.23212,-0.42238 0.0279,-1.13015 l 0.34364,-0.93526 q -0.12704,-0.0252 -0.26607,-0.0762 -0.13902,-0.0511 -0.19434,-0.19334 -0.049,-0.13995 0.0462,-0.39904 0.0952,-0.25909 0.16862,-0.36122 0.0757,-0.10844 0.15121,-0.1381 0.13128,-0.045 0.28295,0.0107 l 0.19925,0.1019 0.23915,-0.65089 q 0.0534,-0.14535 0.0855,-0.21244 0.0382,-0.0649 0.11889,-0.12846 0.14018,-0.1278 0.54463,0.0208 0.42972,0.15789 0.42596,0.42189 -0.006,0.11273 -0.0868,0.33391 l -0.22755,0.61929 q 0.28735,0.0769 0.42637,0.12797 0.14535,0.0534 0.21021,0.0916 0.0735,0.0341 0.14973,0.11956 0.13412,0.14252 -0.0145,0.54696 -0.14628,0.39811 -0.34941,0.42389 -0.11104,0.009 -0.19151,-0.006 -0.0719,-0.0193 -0.21717,-0.0727 z"
         style="font-size:6.73238px;font-family:'Nunito Sans';-inkscape-font-specification:'Fredoka One';fill:#ffffff;stroke-width:0.114796"
         id="path801" />
      <path
         d="m 169.91707,109.2712 q 0.0534,-0.14534 0.0855,-0.21244 0.0405,-0.0712 0.11957,-0.14972 0.14879,-0.13182 0.55327,0.0168 0.30334,0.11145 0.39025,0.26531 0.0749,0.12794 0.0139,0.31353 -0.0166,0.0656 -0.0608,0.18567 l -0.81265,2.21177 q -0.0534,0.14534 -0.0939,0.21652 -0.0321,0.0671 -0.11725,0.1434 -0.1425,0.13413 -0.54695,-0.0145 -0.39812,-0.14627 -0.4239,-0.3494 -0.009,-0.11103 0.003,-0.1852 0.019,-0.0719 0.0747,-0.22359 z m 1.46591,-0.78829 q -0.0767,0.0722 -0.21074,0.066 -0.13399,-0.006 -0.33621,-0.0805 -0.1959,-0.072 -0.30204,-0.15401 -0.10613,-0.082 -0.12186,-0.1954 -0.009,-0.11103 0.003,-0.1852 0.0213,-0.0782 0.0747,-0.22359 0.0534,-0.14534 0.0855,-0.21244 0.0405,-0.0712 0.11725,-0.14341 0.15111,-0.13813 0.55559,0.0105 0.39812,0.14628 0.41758,0.34709 0.0158,0.11338 -0.006,0.19152 -0.0129,0.0742 -0.0663,0.21951 -0.0534,0.14535 -0.0939,0.21652 -0.0321,0.0671 -0.11725,0.1434 z"
         style="font-size:6.73238px;font-family:'Nunito Sans';-inkscape-font-specification:'Fredoka One';fill:#ffffff;stroke-width:0.114796"
         id="path906" />
    </g>
  </g>
</svg>
