<?xml version="1.0" encoding="UTF-8" standalone="no"?>
<!-- Created with Inkscape (http://www.inkscape.org/) -->

<svg
   width="184.02614"
   height="110.7849"
   viewBox="0 0 48.690247 29.311839"
   version="1.1"
   id="svg5"
   inkscape:version="1.2 (dc2aedaf03, 2022-05-15)"
   sodipodi:docname="Scene 7.svg"
   xmlns:inkscape="http://www.inkscape.org/namespaces/inkscape"
   xmlns:sodipodi="http://sodipodi.sourceforge.net/DTD/sodipodi-0.dtd"
   xmlns="http://www.w3.org/2000/svg"
   xmlns:svg="http://www.w3.org/2000/svg">
  <sodipodi:namedview
     id="namedview7"
     pagecolor="#ffffff"
     bordercolor="#666666"
     borderopacity="1.0"
     inkscape:showpageshadow="2"
     inkscape:pageopacity="0.0"
     inkscape:pagecheckerboard="0"
     inkscape:deskcolor="#d1d1d1"
     inkscape:document-units="mm"
     showgrid="true"
     inkscape:zoom="1.4142136"
     inkscape:cx="1384.1615"
     inkscape:cy="492.49987"
     inkscape:window-width="1920"
     inkscape:window-height="991"
     inkscape:window-x="-9"
     inkscape:window-y="-9"
     inkscape:window-maximized="1"
     inkscape:current-layer="g6740">
    <inkscape:grid
       type="axonomgrid"
       id="grid1326"
       snapvisiblegridlinesonly="false"
       units="px"
       spacingy="2.6458333"
       originx="169.33333"
       originy="95.25" />
  </sodipodi:namedview>
  <defs
     id="defs2" />
  <g
     inkscape:groupmode="layer"
     id="layer3"
     inkscape:label="scene 3"
     transform="matrix(0.10379619,0,0,0.10379619,-243.80353,3.2886785)">
    <g
       id="g6740"
       transform="matrix(13.564821,0,0,13.564821,466.95107,-1367.1742)"
       inkscape:label="Computer">
      <g
         aria-label="&gt;&gt;&gt; Now I'm Ready"
         transform="matrix(0.87711176,0.47449975,-0.32331266,0.96519994,6.3781282,-19.533018)"
         id="text7233"
         style="font-size:3.8372px;font-family:'Nunito Sans';-inkscape-font-specification:'Nunito Sans, Normal';fill:#ffffff;stroke-width:0.205563">
        <path
           d="m 167.90104,41.397009 -1.24409,-0.689496 q -0.0937,-0.05246 -0.12553,-0.09368 -0.03,-0.04122 -0.03,-0.104924 0,-0.08057 0.0581,-0.138648 0.0581,-0.05808 0.13678,-0.05808 0.0487,0 0.14989,0.05434 l 1.85302,1.030498 -1.85302,1.030498 q -0.10118,0.05621 -0.14989,0.05621 -0.0787,0 -0.13678,-0.05808 -0.0581,-0.05808 -0.0581,-0.140523 0,-0.0637 0.03,-0.104923 0.0318,-0.04122 0.12553,-0.09368 z"
           style="-inkscape-font-specification:'Courier New Bold'"
           id="path7594" />
        <path
           d="m 170.20374,41.397009 -1.24409,-0.689496 q -0.0937,-0.05246 -0.12554,-0.09368 -0.03,-0.04122 -0.03,-0.104924 0,-0.08057 0.0581,-0.138648 0.0581,-0.05808 0.13677,-0.05808 0.0487,0 0.14989,0.05434 l 1.85303,1.030498 -1.85303,1.030498 q -0.10117,0.05621 -0.14989,0.05621 -0.0787,0 -0.13677,-0.05808 -0.0581,-0.05808 -0.0581,-0.140523 0,-0.0637 0.03,-0.104923 0.0319,-0.04122 0.12554,-0.09368 z"
           style="-inkscape-font-specification:'Courier New Bold'"
           id="path7596" />
        <path
           d="m 172.50643,41.397009 -1.24409,-0.689496 q -0.0937,-0.05246 -0.12553,-0.09368 -0.03,-0.04122 -0.03,-0.104924 0,-0.08057 0.0581,-0.138648 0.0581,-0.05808 0.13678,-0.05808 0.0487,0 0.14989,0.05434 l 1.85302,1.030498 -1.85302,1.030498 q -0.10118,0.05621 -0.14989,0.05621 -0.0787,0 -0.13678,-0.05808 -0.0581,-0.05808 -0.0581,-0.140523 0,-0.0637 0.03,-0.104923 0.0318,-0.04122 0.12553,-0.09368 z"
           style="-inkscape-font-specification:'Courier New Bold'"
           id="path7598" />
        <path
           d="m 176.22559,40.945464 v 1.161652 h 0.13865 q 0.13865,0 0.19674,0.05434 0.0599,0.05246 0.0599,0.138648 0,0.08431 -0.0599,0.138649 -0.0581,0.05246 -0.19674,0.05246 h -0.504 q -0.13865,0 -0.19861,-0.05246 -0.0581,-0.05434 -0.0581,-0.140522 0,-0.08244 0.0581,-0.136775 0.0581,-0.05434 0.17987,-0.05434 v -1.502653 h -0.06 q -0.13864,0 -0.1986,-0.05246 -0.0581,-0.05433 -0.0581,-0.140522 0,-0.08619 0.0581,-0.138649 0.06,-0.05434 0.1986,-0.05434 l 0.44405,0.0019 0.98179,1.540126 v -1.156031 h -0.13865 q -0.13865,0 -0.19861,-0.05246 -0.0581,-0.05433 -0.0581,-0.140522 0,-0.08619 0.0581,-0.138649 0.06,-0.05434 0.19861,-0.05434 l 0.50401,0.0019 q 0.13865,0 0.19673,0.05246 0.0599,0.05246 0.0599,0.138649 0,0.08431 -0.0581,0.138648 -0.0581,0.05434 -0.17799,0.05434 v 1.886748 H 177.213 Z"
           style="-inkscape-font-specification:'Courier New Bold'"
           id="path7600" />
        <path
           d="m 180.00659,41.672433 q 0,0.221089 -0.12366,0.429062 -0.12179,0.2061 -0.36536,0.32976 -0.2417,0.121786 -0.50588,0.121786 -0.26231,0 -0.50214,-0.119913 -0.23982,-0.121786 -0.36536,-0.329759 -0.12553,-0.207973 -0.12553,-0.434683 0,-0.230457 0.12741,-0.451545 0.12741,-0.222963 0.36536,-0.35037 0.23982,-0.127407 0.50026,-0.127407 0.26231,0 0.504,0.131155 0.24358,0.12928 0.36724,0.350369 0.12366,0.219215 0.12366,0.451545 z m -0.3841,0.0019 q 0,-0.18549 -0.13303,-0.341001 -0.18174,-0.209847 -0.47777,-0.209847 -0.26044,0 -0.43469,0.166753 -0.17424,0.166754 -0.17424,0.385969 0,0.179868 0.17612,0.337254 0.17612,0.155511 0.43281,0.155511 0.25856,0 0.43468,-0.155511 0.17612,-0.157386 0.17612,-0.339128 z"
           style="-inkscape-font-specification:'Courier New Bold'"
           id="path7602" />
        <path
           d="m 181.31438,41.782978 -0.26605,0.708233 h -0.36162 l -0.32226,-1.317164 q -0.10492,-0.0056 -0.15926,-0.05808 -0.0525,-0.05433 -0.0525,-0.134901 0,-0.08431 0.0581,-0.136775 0.06,-0.05434 0.19861,-0.05434 h 0.35786 q 0.13865,0 0.19673,0.05434 0.06,0.05246 0.06,0.138649 0,0.08619 -0.0674,0.146143 -0.0506,0.04497 -0.19861,0.04497 l 0.14615,0.608931 0.23795,-0.62392 h 0.341 l 0.23982,0.62392 0.14989,-0.608931 q -0.14239,0 -0.18736,-0.0281 -0.0899,-0.05808 -0.0899,-0.16488 0,-0.08431 0.0581,-0.136775 0.06,-0.05434 0.1986,-0.05434 h 0.36162 q 0.13864,0 0.19673,0.05434 0.0599,0.05246 0.0599,0.138649 0,0.07682 -0.0525,0.131154 -0.0506,0.05246 -0.15176,0.05996 l -0.31477,1.317164 h -0.35599 z"
           style="-inkscape-font-specification:'Courier New Bold'"
           id="path7604" />
        <path
           d="m 186.10901,40.604463 v 1.502653 h 0.38784 q 0.13865,0 0.19673,0.05434 0.06,0.05246 0.06,0.138648 0,0.08431 -0.06,0.138649 -0.0581,0.05246 -0.19673,0.05246 h -1.15978 q -0.13865,0 -0.1986,-0.05246 -0.0581,-0.05434 -0.0581,-0.140522 0,-0.08431 0.0581,-0.136775 0.0599,-0.05434 0.1986,-0.05434 h 0.38784 v -1.502653 h -0.38784 q -0.13865,0 -0.1986,-0.05246 -0.0581,-0.05433 -0.0581,-0.140522 0,-0.08619 0.0581,-0.138649 0.0599,-0.05434 0.1986,-0.05434 l 1.15978,0.0019 q 0.13865,0 0.19673,0.05246 0.06,0.05246 0.06,0.138649 0,0.08619 -0.06,0.140522 -0.0581,0.05246 -0.19673,0.05246 z"
           style="-inkscape-font-specification:'Courier New Bold'"
           id="path7606" />
        <path
           d="m 187.96953,40.145423 h 0.49463 l -0.12178,0.989278 q -0.009,0.07869 -0.0412,0.108671 -0.03,0.0281 -0.0806,0.0281 -0.0468,0 -0.0787,-0.0281 -0.03,-0.02998 -0.0393,-0.106798 z"
           style="-inkscape-font-specification:'Courier New Bold'"
           id="path7608" />
        <path
           d="m 189.92934,40.789952 v 0.108671 q 0.0937,-0.09181 0.16863,-0.125533 0.0768,-0.0356 0.17612,-0.0356 0.0843,0 0.16676,0.04122 0.0824,0.04122 0.16113,0.123659 0.0993,-0.08244 0.20048,-0.121786 0.10305,-0.04122 0.20984,-0.04122 0.2136,0 0.34663,0.114292 0.17612,0.149891 0.17612,0.393463 v 0.859997 q 0.11991,0 0.17799,0.05434 0.0581,0.05434 0.0581,0.138648 0,0.08431 -0.0581,0.138649 -0.0581,0.05246 -0.19673,0.05246 h -0.36536 v -1.21224 q 0,-0.08806 -0.0318,-0.121787 -0.0318,-0.03373 -0.0974,-0.03373 -0.0637,0 -0.11804,0.03373 -0.0693,0.04684 -0.16862,0.176122 v 0.77381 q 0.11991,0 0.17799,0.05434 0.0581,0.05434 0.0581,0.138648 0,0.08431 -0.0581,0.138649 -0.0581,0.05246 -0.19673,0.05246 h -0.36536 v -1.21224 q 0,-0.08619 -0.0337,-0.119913 -0.0319,-0.0356 -0.0974,-0.0356 -0.0675,0 -0.13303,0.04309 -0.0656,0.04122 -0.15739,0.166753 v 0.77381 q 0.11992,0 0.178,0.05434 0.06,0.05434 0.06,0.138648 0,0.08431 -0.06,0.138649 -0.0581,0.05246 -0.19673,0.05246 h -0.34662 q -0.13865,0 -0.19674,-0.05246 -0.06,-0.05434 -0.06,-0.140522 0,-0.08431 0.0581,-0.136775 0.0581,-0.05434 0.17987,-0.05434 v -0.933069 q -0.12179,0 -0.17987,-0.05434 -0.0581,-0.05434 -0.0581,-0.138649 0,-0.08431 0.06,-0.136775 0.0581,-0.05434 0.19674,-0.05434 z"
           style="-inkscape-font-specification:'Courier New Bold'"
           id="path7610" />
        <path
           d="m 194.73147,41.623719 v 0.483397 h 0.13865 q 0.13864,0 0.19673,0.05434 0.06,0.05246 0.06,0.138648 0,0.08431 -0.06,0.138649 -0.0581,0.05246 -0.19673,0.05246 h -0.5827 q -0.13865,0 -0.19861,-0.05246 -0.0581,-0.05434 -0.0581,-0.140522 0,-0.08431 0.0599,-0.136775 0.06,-0.05434 0.19674,-0.05434 h 0.06 v -1.502653 h -0.06 q -0.13865,0 -0.19861,-0.05246 -0.0581,-0.05433 -0.0581,-0.140522 0,-0.08619 0.0581,-0.138649 0.06,-0.05434 0.19861,-0.05434 l 0.86936,0.0019 q 0.40658,0 0.62954,0.202352 0.22484,0.200479 0.22484,0.489019 0,0.179868 -0.10493,0.327885 -0.10492,0.146144 -0.31664,0.260435 0.12179,0.106797 0.26044,0.273551 0.0862,0.106797 0.23233,0.333506 0.14614,0 0.19298,0.02998 0.0843,0.05808 0.0843,0.163006 0,0.08431 -0.0581,0.138649 -0.0581,0.05246 -0.19673,0.05246 h -0.21922 q -0.46653,-0.721349 -0.77381,-0.867492 z m 0,-0.384095 h 0.29978 q 0.16675,0 0.29791,-0.05059 0.17612,-0.06745 0.23607,-0.142396 0.0618,-0.07494 0.0618,-0.148017 0,-0.108671 -0.11616,-0.200479 -0.11617,-0.09368 -0.33913,-0.09368 h -0.4403 z"
           style="-inkscape-font-specification:'Courier New Bold'"
           id="path7612" />
        <path
           d="m 198.39442,41.835439 h -1.57573 q 0.06,0.149891 0.21172,0.241699 0.15364,0.09181 0.41408,0.09181 0.21359,0 0.56771,-0.09181 0.14614,-0.03747 0.20235,-0.03747 0.0768,0 0.12928,0.05434 0.0525,0.05434 0.0525,0.136775 0,0.07494 -0.0562,0.127407 -0.0749,0.06932 -0.36536,0.133028 -0.29041,0.06183 -0.55834,0.06183 -0.46091,0 -0.73821,-0.260435 -0.27542,-0.260435 -0.27542,-0.640783 0,-0.404704 0.2979,-0.657645 0.29979,-0.254814 0.6895,-0.254814 0.23421,0 0.42906,0.08244 0.19673,0.08244 0.29229,0.177995 0.1349,0.138649 0.22296,0.342875 0.06,0.142396 0.06,0.329759 z m -0.42532,-0.384094 q -0.0881,-0.16488 -0.23045,-0.245446 -0.1424,-0.08244 -0.33913,-0.08244 -0.19486,0 -0.33725,0.08244 -0.1424,0.08057 -0.23233,0.245446 z"
           style="-inkscape-font-specification:'Courier New Bold'"
           id="path7614" />
        <path
           d="m 200.07882,42.491211 v -0.08993 q -0.14427,0.07682 -0.31852,0.114291 -0.17425,0.03935 -0.31665,0.03935 -0.30915,0 -0.50213,-0.163006 -0.19298,-0.164879 -0.19298,-0.363484 0,-0.241699 0.24544,-0.447799 0.24732,-0.207973 0.682,-0.207973 0.17425,0 0.40284,0.03747 v -0.09181 q 0,-0.08619 -0.075,-0.140523 -0.0731,-0.05434 -0.28104,-0.05434 -0.1705,0 -0.44218,0.06745 -0.10118,0.02436 -0.15739,0.02436 -0.0768,0 -0.13115,-0.05433 -0.0525,-0.05621 -0.0525,-0.142396 0,-0.04871 0.0187,-0.08431 0.0187,-0.0356 0.0525,-0.05621 0.0337,-0.02248 0.14052,-0.05246 0.14239,-0.03935 0.29041,-0.06183 0.14802,-0.02436 0.26793,-0.02436 0.35786,0 0.5546,0.155512 0.1986,0.153638 0.1986,0.421567 v 0.790673 h 0.0656 q 0.13865,0 0.19673,0.05434 0.06,0.05246 0.06,0.138648 0,0.08431 -0.06,0.138649 -0.0581,0.05246 -0.19673,0.05246 z m 0,-0.687623 q -0.23046,-0.04497 -0.42532,-0.04497 -0.2342,0 -0.40283,0.114291 -0.10492,0.07307 -0.10492,0.148017 0,0.05433 0.0506,0.08806 0.0937,0.06183 0.25669,0.06183 0.13865,0 0.3129,-0.05434 0.17612,-0.05434 0.3129,-0.148017 z"
           style="-inkscape-font-specification:'Courier New Bold'"
           id="path7616" />
        <path
           d="m 202.91737,40.061109 v 2.046007 h 0.0656 q 0.13678,0 0.19674,0.05434 0.06,0.05246 0.06,0.138648 0,0.08431 -0.06,0.138649 -0.0581,0.05246 -0.19674,0.05246 h -0.44967 v -0.09368 q -0.13115,0.07682 -0.27542,0.116166 -0.1424,0.03935 -0.29604,0.03935 -0.4328,0 -0.69699,-0.249193 -0.26418,-0.251067 -0.26418,-0.62392 0,-0.389716 0.2773,-0.66514 0.2773,-0.275424 0.67638,-0.275424 0.14989,0 0.29416,0.04684 0.14427,0.04497 0.28479,0.136775 v -0.477776 h -0.0656 q -0.13865,0 -0.19861,-0.05246 -0.0581,-0.05434 -0.0581,-0.138649 0,-0.08619 0.0581,-0.138648 0.06,-0.05434 0.19861,-0.05434 z m -0.3841,1.630061 q 0,-0.237952 -0.16675,-0.402831 -0.16675,-0.16488 -0.40845,-0.16488 -0.23983,0 -0.40658,0.16488 -0.16675,0.164879 -0.16675,0.39721 0,0.21172 0.14989,0.348496 0.14989,0.134901 0.42344,0.134901 0.27167,0 0.42344,-0.134901 0.15176,-0.136776 0.15176,-0.342875 z"
           style="-inkscape-font-specification:'Courier New Bold'"
           id="path7618" />
        <path
           d="m 204.12399,42.478096 -0.66514,-1.304049 q -0.0937,-0.01124 -0.1424,-0.0637 -0.0487,-0.05246 -0.0487,-0.127407 0,-0.08619 0.0581,-0.138649 0.06,-0.05434 0.19861,-0.05434 h 0.35037 q 0.13864,0 0.19673,0.05434 0.06,0.05246 0.06,0.138649 0,0.08431 -0.06,0.138648 -0.0581,0.05246 -0.18549,0.05246 l 0.45342,0.882481 0.44967,-0.882481 q -0.12366,0 -0.18362,-0.05246 -0.0581,-0.05434 -0.0581,-0.140522 0,-0.08431 0.0581,-0.136775 0.06,-0.05434 0.19861,-0.05434 h 0.36161 q 0.13677,0 0.19486,0.05434 0.0599,0.05246 0.0599,0.138649 0,0.07682 -0.0506,0.131154 -0.0506,0.05246 -0.14989,0.05996 l -0.8806,1.734984 q 0.14427,0 0.18923,0.02811 0.0899,0.05808 0.0899,0.164879 0,0.08431 -0.06,0.136775 -0.0581,0.05434 -0.19673,0.05434 h -0.83751 q -0.13865,0 -0.19861,-0.05434 -0.0581,-0.05246 -0.0581,-0.136775 0,-0.08619 0.0581,-0.140522 0.06,-0.05246 0.19861,-0.05246 h 0.38222 z"
           style="-inkscape-font-specification:'Courier New Bold'"
           id="path7620" />
      </g>
    </g>
  </g>
</svg>
