<?xml version="1.0" encoding="UTF-8" standalone="no"?>
<!-- Created with Inkscape (http://www.inkscape.org/) -->

<svg
   width="249.65793"
   height="73.330864"
   viewBox="0 0 66.055324 19.402125"
   version="1.1"
   id="svg5"
   inkscape:version="1.2 (dc2aedaf03, 2022-05-15)"
   sodipodi:docname="text-2.svg"
   xml:space="preserve"
   xmlns:inkscape="http://www.inkscape.org/namespaces/inkscape"
   xmlns:sodipodi="http://sodipodi.sourceforge.net/DTD/sodipodi-0.dtd"
   xmlns="http://www.w3.org/2000/svg"
   xmlns:svg="http://www.w3.org/2000/svg"><sodipodi:namedview
     id="namedview7"
     pagecolor="#ffffff"
     bordercolor="#666666"
     borderopacity="1.0"
     inkscape:showpageshadow="2"
     inkscape:pageopacity="0.0"
     inkscape:pagecheckerboard="0"
     inkscape:deskcolor="#d1d1d1"
     inkscape:document-units="mm"
     showgrid="true"
     inkscape:zoom="2.025849"
     inkscape:cx="-59.234425"
     inkscape:cy="128.34125"
     inkscape:window-width="1920"
     inkscape:window-height="991"
     inkscape:window-x="-9"
     inkscape:window-y="-9"
     inkscape:window-maximized="1"
     inkscape:current-layer="g819"><inkscape:grid
       type="axonomgrid"
       id="grid1326"
       snapvisiblegridlinesonly="false"
       units="px"
       spacingy="2.6458333"
       originx="169.33333"
       originy="95.25" /></sodipodi:namedview><defs
     id="defs2" /><g
     inkscape:label="Layer 1"
     inkscape:groupmode="layer"
     id="layer1"
     transform="translate(113.45413,-148.58095)"><g
       id="g1408"><g
         aria-label="Where I wasn't feeling pretty."
         id="text5915-1"
         style="font-size:15.5168px;font-family:'Nunito Sans';-inkscape-font-specification:'Nunito Sans, Normal';fill:#ffffff;stroke-width:0.264583"
         inkscape:export-filename="text-2.svg"
         inkscape:export-xdpi="96"
         inkscape:export-ydpi="96"><g
           id="g819"><g
             aria-label="Where I was
inspired to upgrade."
             id="text462"
             style="font-size:8.35689px;stroke-width:0.0377022"><path
               d="m -108.40247,150.06649 q 0,0.48966 -0.0653,0.97116 -0.0653,0.47334 -0.15505,0.93852 -0.0245,0.12241 -0.0734,0.39989 -0.049,0.26931 -0.12242,0.60391 -0.0653,0.33461 -0.16322,0.69369 -0.0979,0.35909 -0.22035,0.65288 -0.11425,0.2938 -0.26115,0.48966 -0.13874,0.18771 -0.30196,0.18771 -0.16322,0 -0.31828,-0.16322 -0.1469,-0.16322 -0.27747,-0.40805 -0.12242,-0.253 -0.22851,-0.56311 -0.1061,-0.31012 -0.18771,-0.59576 -0.0734,-0.2938 -0.13057,-0.53047 -0.049,-0.24483 -0.0735,-0.36724 -0.0326,0.10609 -0.10609,0.34276 -0.0653,0.22851 -0.17139,0.52231 -0.10609,0.28563 -0.23667,0.58759 -0.13057,0.30196 -0.27747,0.55495 -0.13874,0.25299 -0.2938,0.41621 -0.15506,0.16322 -0.31012,0.16322 -0.20402,0 -0.35908,-0.17954 -0.15506,-0.17954 -0.26115,-0.45702 -0.1061,-0.28563 -0.17955,-0.6284 -0.0734,-0.35092 -0.11425,-0.68552 -0.0408,-0.34276 -0.0653,-0.63656 -0.0245,-0.2938 -0.0326,-0.46518 -0.0245,-0.39173 -0.049,-0.76714 -0.0163,-0.3754 -0.0163,-0.76713 0,-0.13874 0.008,-0.37541 0.008,-0.24483 0.0571,-0.47334 0.0571,-0.23667 0.16322,-0.40805 0.11425,-0.17954 0.32644,-0.19587 0.17954,-0.008 0.31012,0.1469 0.13057,0.15506 0.22034,0.41622 0.0898,0.25299 0.13874,0.57127 0.0571,0.31012 0.0816,0.60391 0.0327,0.2938 0.0408,0.53863 0.008,0.24483 0,0.35909 l -0.008,0.21218 q 0.0245,-0.10609 0.0816,-0.3346 0.0653,-0.22851 0.15506,-0.51414 0.0898,-0.2938 0.1877,-0.59576 0.10609,-0.31012 0.22035,-0.56311 0.11425,-0.25299 0.22851,-0.41621 0.11425,-0.17138 0.22034,-0.17954 0.13874,-0.008 0.26116,0.16322 0.13057,0.17138 0.22851,0.44885 0.10609,0.26932 0.1877,0.60392 0.0816,0.3346 0.13874,0.65288 0.0653,0.31012 0.0979,0.56311 0.0326,0.25299 0.049,0.35909 0.008,-0.13058 0.0408,-0.40806 0.0326,-0.28563 0.0898,-0.62839 0.0571,-0.35093 0.13874,-0.71001 0.0898,-0.36725 0.20402,-0.66921 0.11426,-0.30196 0.26116,-0.48966 0.1469,-0.19586 0.32644,-0.19586 0.20402,0 0.32644,0.13873 0.12241,0.13058 0.17954,0.32644 0.0571,0.18771 0.0734,0.3999 0.0163,0.20402 0.0163,0.34276 z"
               style="-inkscape-font-specification:Chewy"
               id="path520" /><path
               d="m -104.37092,152.7433 q 0,0.13874 -0.008,0.41622 0,0.26931 -0.0245,0.57127 -0.0163,0.2938 -0.049,0.56311 -0.0327,0.26115 -0.0816,0.38357 -0.0653,0.15506 -0.17138,0.26931 -0.1061,0.11426 -0.28564,0.11426 -0.27747,0 -0.39989,-0.22035 -0.12241,-0.22035 -0.16322,-0.54679 -0.0408,-0.32644 -0.0326,-0.71001 0.008,-0.38357 -0.008,-0.71001 -0.0163,-0.32644 -0.0898,-0.54679 -0.0735,-0.22035 -0.26931,-0.22035 -0.26931,0 -0.41621,0.0898 -0.13874,0.0816 -0.20403,0.22034 -0.0571,0.13874 -0.0735,0.31828 -0.008,0.17955 -0.0245,0.37541 -0.0163,0.1877 -0.0245,0.50598 -0.008,0.31828 -0.0734,0.6284 -0.0653,0.31012 -0.22035,0.53863 -0.1469,0.22035 -0.4407,0.22035 -0.17954,0 -0.29379,-0.13874 -0.1061,-0.13874 -0.17138,-0.35908 -0.0653,-0.22035 -0.0979,-0.48967 -0.0245,-0.26931 -0.0326,-0.5223 0,-0.26115 0,-0.47334 0.008,-0.21219 0.008,-0.31828 0,-0.16322 0.008,-0.53863 0.0163,-0.37541 0.0571,-0.83242 0.0408,-0.46518 0.10609,-0.95484 0.0653,-0.48966 0.17138,-0.88955 0.1061,-0.40806 0.253,-0.66105 0.15506,-0.25299 0.35908,-0.24483 0.13058,0.008 0.22035,0.11426 0.0979,0.10609 0.15506,0.27747 0.0653,0.16322 0.10609,0.35909 0.0408,0.19586 0.0571,0.39173 0.0245,0.1877 0.0245,0.35092 0.008,0.16322 0.008,0.25299 0,0.21219 -0.008,0.42437 -0.008,0.21219 -0.0245,0.42438 0.1877,-0.25299 0.49782,-0.41621 0.31828,-0.16323 0.63656,-0.16323 0.40805,0 0.61208,0.22851 0.21218,0.22035 0.30196,0.55495 0.0898,0.32644 0.0979,0.70185 0.008,0.36725 0.008,0.66104 z"
               style="-inkscape-font-specification:Chewy"
               id="path522" /><path
               d="m -100.37202,153.40435 q 0,0.27747 -0.17954,0.54679 -0.17138,0.26115 -0.4407,0.47334 -0.26115,0.20402 -0.56311,0.3346 -0.30196,0.12241 -0.55495,0.12241 -0.43253,0 -0.77529,-0.21218 -0.33461,-0.22035 -0.56311,-0.55495 -0.22851,-0.33461 -0.35093,-0.7345 -0.11425,-0.40805 -0.11425,-0.79162 0,-0.40805 0.11425,-0.87322 0.11426,-0.46518 0.34276,-0.85691 0.23667,-0.39173 0.5876,-0.65288 0.35908,-0.26116 0.84874,-0.26116 0.27748,0 0.53047,0.0979 0.25299,0.0898 0.4407,0.26115 0.1877,0.17138 0.30195,0.40805 0.11426,0.23667 0.11426,0.53047 0,0.38356 -0.16322,0.71817 -0.16322,0.3346 -0.43254,0.57943 -0.26931,0.24483 -0.62023,0.39989 -0.35093,0.1469 -0.71817,0.16322 0.0326,0.23667 0.1877,0.34276 0.16322,0.1061 0.38357,0.1061 0.16322,0 0.31828,-0.0816 0.15506,-0.0816 0.30196,-0.17955 0.14689,-0.10609 0.28563,-0.1877 0.1469,-0.0816 0.2938,-0.0816 0.16322,0 0.2938,0.10609 0.13057,0.1061 0.13057,0.27748 z m -1.32208,-1.99945 q 0,-0.1061 -0.0571,-0.22035 -0.0571,-0.11426 -0.17954,-0.11426 -0.17955,0 -0.30196,0.0979 -0.12242,0.0898 -0.20403,0.23667 -0.0816,0.13873 -0.13057,0.30195 -0.0408,0.16322 -0.049,0.30196 0.11425,-0.0245 0.26931,-0.0653 0.16322,-0.0408 0.30196,-0.10609 0.1469,-0.0735 0.24483,-0.17954 0.1061,-0.1061 0.1061,-0.25299 z"
               style="-inkscape-font-specification:Chewy"
               id="path524" /><path
               d="m -97.213702,151.80479 q -0.114254,0.008 -0.195864,-0.0163 -0.08161,-0.0326 -0.163221,-0.0653 -0.07345,-0.0327 -0.146898,-0.0571 -0.07345,-0.0327 -0.163221,-0.0245 -0.16322,0.008 -0.293797,0.0898 -0.122415,0.0816 -0.228508,0.20402 -0.09793,0.12242 -0.171382,0.27748 -0.07345,0.1469 -0.114254,0.29379 -0.02448,0.0979 -0.0408,0.30196 -0.0082,0.19587 -0.0082,0.42438 -0.0082,0.23667 -0.0082,0.44885 0,0.21219 -0.01632,0.3346 -0.0082,0.13058 -0.04081,0.31012 -0.03264,0.17138 -0.106093,0.32644 -0.06529,0.15506 -0.179542,0.26116 -0.114255,0.10609 -0.293797,0.10609 -0.138738,0 -0.244831,-0.0816 -0.09793,-0.0816 -0.171382,-0.21219 -0.06529,-0.13873 -0.114254,-0.31828 -0.0408,-0.17954 -0.06529,-0.36724 -0.02448,-0.19587 -0.0408,-0.39173 -0.008,-0.19587 -0.0163,-0.36725 0,-0.17954 0,-0.32644 0.008,-0.1469 0.008,-0.23667 -0.008,-0.28563 -0.0326,-0.57127 -0.0163,-0.2938 -0.0163,-0.57943 0,-0.17955 0.0163,-0.39989 0.0163,-0.22035 0.08977,-0.40805 0.07345,-0.19587 0.212186,-0.32645 0.146899,-0.13057 0.399891,-0.13057 0.138737,0 0.236669,0.0898 0.09793,0.0898 0.15506,0.22035 0.06529,0.13057 0.09793,0.27747 0.03264,0.1469 0.04081,0.26932 0.195865,-0.31828 0.440696,-0.51415 0.24483,-0.20402 0.63656,-0.22035 0.195864,-0.008 0.383568,0.0408 0.195864,0.0408 0.350924,0.1469 0.16322,0.0979 0.261153,0.26115 0.106093,0.16322 0.114254,0.38357 0.01632,0.26115 -0.155059,0.39989 -0.171382,0.13874 -0.416213,0.1469 z"
               style="-inkscape-font-specification:Chewy"
               id="path526" /><path
               d="m -93.100545,153.40435 q 0,0.27747 -0.179542,0.54679 -0.171382,0.26115 -0.440696,0.47334 -0.261152,0.20402 -0.56311,0.3346 -0.301958,0.12241 -0.55495,0.12241 -0.432534,0 -0.775297,-0.21218 -0.334602,-0.22035 -0.563111,-0.55495 -0.228509,-0.33461 -0.350924,-0.7345 -0.114255,-0.40805 -0.114255,-0.79162 0,-0.40805 0.114255,-0.87322 0.114254,-0.46518 0.342763,-0.85691 0.23667,-0.39173 0.587594,-0.65288 0.359085,-0.26116 0.848746,-0.26116 0.277475,0 0.530467,0.0979 0.252992,0.0898 0.440695,0.26115 0.187704,0.17138 0.301958,0.40805 0.114255,0.23667 0.114255,0.53047 0,0.38356 -0.163221,0.71817 -0.16322,0.3346 -0.432534,0.57943 -0.269314,0.24483 -0.620238,0.39989 -0.350924,0.1469 -0.71817,0.16322 0.03264,0.23667 0.187703,0.34276 0.163221,0.1061 0.383568,0.1061 0.163221,0 0.31828,-0.0816 0.15506,-0.0816 0.301958,-0.17955 0.146899,-0.10609 0.285636,-0.1877 0.146899,-0.0816 0.293797,-0.0816 0.163221,0 0.293797,0.10609 0.130576,0.1061 0.130576,0.27748 z m -1.322086,-1.99945 q 0,-0.1061 -0.05713,-0.22035 -0.05713,-0.11426 -0.179542,-0.11426 -0.179543,0 -0.301958,0.0979 -0.122416,0.0898 -0.204026,0.23667 -0.08161,0.13873 -0.130576,0.30195 -0.0408,0.16322 -0.04897,0.30196 0.114255,-0.0245 0.269314,-0.0653 0.163221,-0.0408 0.301958,-0.10609 0.146899,-0.0735 0.244831,-0.17954 0.106093,-0.1061 0.106093,-0.25299 z"
               style="-inkscape-font-specification:Chewy"
               id="path528" /><path
               d="m -87.983582,149.31567 q 0,0.15506 -0.07345,0.27748 -0.06529,0.12241 -0.179542,0.21219 -0.114255,0.0816 -0.252992,0.13873 -0.138737,0.0571 -0.269314,0.0816 -0.01632,0.9222 -0.07345,1.77911 -0.04897,0.8569 -0.163221,1.77094 h 0.04897 q 0.130576,0 0.252991,0.0326 0.130577,0.0245 0.228509,0.0979 0.106093,0.0653 0.163221,0.17138 0.06529,0.0979 0.06529,0.24483 0,0.1877 -0.122416,0.32644 -0.114254,0.13874 -0.310119,0.23667 -0.187703,0.0979 -0.424373,0.16322 -0.23667,0.0653 -0.473339,0.0979 -0.23667,0.0408 -0.448857,0.0571 -0.212186,0.0163 -0.342763,0.0163 -0.09793,0 -0.24483,-0.008 -0.138738,-0.008 -0.269314,-0.049 -0.122416,-0.0408 -0.212187,-0.12241 -0.08977,-0.0816 -0.08977,-0.22035 0,-0.17138 0.07345,-0.30196 0.06529,-0.13874 0.179543,-0.24483 0.114254,-0.10609 0.252991,-0.17138 0.146899,-0.0653 0.293797,-0.0979 0.05713,-0.44886 0.106094,-0.88955 0.04897,-0.44886 0.06529,-0.90588 0.01632,-0.46518 0.03264,-0.91403 0.01632,-0.45702 0.03264,-0.91404 -0.05713,0.008 -0.106093,0.0163 -0.04897,0 -0.08977,0 -0.114254,0 -0.24483,-0.0245 -0.130577,-0.0245 -0.244831,-0.0816 -0.114254,-0.0653 -0.195865,-0.15506 -0.07345,-0.0898 -0.07345,-0.22851 0,-0.27747 0.228509,-0.45701 0.236669,-0.17955 0.554949,-0.27748 0.326441,-0.0979 0.661043,-0.13058 0.334603,-0.0408 0.538628,-0.0408 0.114254,0 0.301958,0.0163 0.187704,0.0163 0.367246,0.0735 0.187704,0.0571 0.31828,0.15506 0.138738,0.0979 0.138738,0.26931 z"
               style="-inkscape-font-specification:Chewy"
               id="path530" /><path
               d="m -81.838331,154.9631 q -0.261153,0 -0.473339,-0.27747 -0.204026,-0.27748 -0.359086,-0.66104 -0.155059,-0.39173 -0.261152,-0.79979 -0.09793,-0.40805 -0.146899,-0.67736 -0.06529,0.16322 -0.179542,0.39989 -0.106094,0.23667 -0.252992,0.49782 -0.138738,0.26116 -0.301958,0.53047 -0.163221,0.26115 -0.342763,0.47334 -0.171382,0.21219 -0.350924,0.34276 -0.171382,0.13058 -0.334602,0.13058 -0.220348,0 -0.391729,-0.21219 -0.163221,-0.21219 -0.277475,-0.55495 -0.114255,-0.34276 -0.195865,-0.75897 -0.07345,-0.41622 -0.114254,-0.83243 -0.04081,-0.41621 -0.05713,-0.7753 -0.01632,-0.35908 -0.01632,-0.57943 0,-0.20402 0.01632,-0.39173 0.02448,-0.1877 0.08161,-0.3346 0.06529,-0.1469 0.179542,-0.22851 0.122416,-0.0898 0.31828,-0.0898 0.187704,0 0.31828,0.13874 0.138738,0.13874 0.228509,0.36724 0.08977,0.22035 0.146899,0.50599 0.05713,0.27747 0.08977,0.57127 0.03264,0.28564 0.04081,0.56311 0.01632,0.26931 0.02448,0.46518 0.04897,-0.17138 0.138737,-0.41621 0.08977,-0.253 0.195865,-0.53047 0.106093,-0.28564 0.228509,-0.56311 0.130576,-0.27748 0.252992,-0.49782 0.130576,-0.22035 0.252991,-0.35909 0.122416,-0.13874 0.23667,-0.13874 h 0.0082 q 0.146899,0 0.285636,0.13874 0.138737,0.13874 0.269314,0.35909 0.130576,0.22034 0.244831,0.50598 0.114254,0.27747 0.212186,0.57127 0.09793,0.28564 0.171382,0.56311 0.07345,0.26932 0.122415,0.46518 0.0082,-0.23667 0.02448,-0.53047 0.01632,-0.30195 0.05713,-0.60391 0.04897,-0.30196 0.122416,-0.5876 0.08161,-0.28563 0.195864,-0.50598 0.114255,-0.22851 0.277475,-0.35908 0.171382,-0.13874 0.391729,-0.13874 0.228509,0 0.334602,0.16322 0.114255,0.15506 0.114255,0.38357 0,0.24483 -0.06529,0.65288 -0.05713,0.40805 -0.163221,0.88955 -0.106093,0.47334 -0.252992,0.963 -0.138737,0.4815 -0.310119,0.87323 -0.171381,0.39173 -0.359085,0.64472 -0.187703,0.24483 -0.375407,0.24483 z"
               style="-inkscape-font-specification:Chewy"
               id="path532" /><path
               d="m -76.394926,153.70631 q 0,0.14689 -0.01632,0.38356 -0.0082,0.23667 -0.06529,0.46518 -0.05713,0.22035 -0.179543,0.38357 -0.122415,0.16322 -0.342763,0.16322 -0.301958,0 -0.465178,-0.19586 -0.163221,-0.19587 -0.15506,-0.48967 -0.261153,0.22851 -0.595755,0.35909 -0.326441,0.13058 -0.669204,0.13058 -0.236669,0 -0.448856,-0.11426 -0.212187,-0.11425 -0.375407,-0.2938 -0.163221,-0.17954 -0.261153,-0.39989 -0.09793,-0.2285 -0.09793,-0.44885 0,-0.39173 0.236669,-0.68553 0.244831,-0.29379 0.595755,-0.49782 0.350924,-0.21219 0.742654,-0.3346 0.39989,-0.12242 0.710009,-0.16322 0,-0.0408 0,-0.0734 0.0082,-0.0327 0.0082,-0.0735 0,-0.25299 -0.138738,-0.40805 -0.138737,-0.15506 -0.391729,-0.15506 -0.204026,0 -0.350924,0.0734 -0.146898,0.0653 -0.277475,0.15506 -0.130576,0.0816 -0.261153,0.15506 -0.130576,0.0653 -0.293797,0.0653 -0.179542,0 -0.310118,-0.11425 -0.122416,-0.11425 -0.122416,-0.2938 0,-0.26931 0.15506,-0.48966 0.16322,-0.22035 0.39989,-0.36724 0.244831,-0.15506 0.522305,-0.23667 0.285636,-0.0898 0.522306,-0.0898 0.220348,0 0.440695,0.0571 0.220348,0.049 0.416213,0.16322 0.195864,0.1061 0.350924,0.26932 0.16322,0.15506 0.261153,0.36724 0.146898,0.30196 0.236669,0.64472 0.08977,0.3346 0.138738,0.69369 0.04897,0.35092 0.06529,0.71001 0.01632,0.35092 0.01632,0.68553 z m -1.305764,-0.26116 -0.02448,-0.55495 q -0.01632,0 -0.03264,0 -0.01632,-0.008 -0.03264,-0.008 -0.106094,0 -0.269314,0.0571 -0.15506,0.049 -0.301958,0.1469 -0.146899,0.0898 -0.252992,0.20402 -0.09793,0.11426 -0.09793,0.23667 0,0.11426 0.08161,0.15506 0.08161,0.0408 0.187704,0.0408 0.179542,0 0.383568,-0.0898 0.204025,-0.0979 0.359085,-0.18771 z"
               style="-inkscape-font-specification:Chewy"
               id="path534" /><path
               d="m -73.514086,150.36845 q 0,0.23667 -0.16322,0.35092 -0.15506,0.11425 -0.350924,0.22035 -0.195865,0.0979 -0.359085,0.23667 -0.15506,0.13873 -0.15506,0.41621 0,0.1469 0.06529,0.25299 0.07345,0.10609 0.171382,0.19587 0.106093,0.0816 0.228508,0.17138 0.122416,0.0898 0.220348,0.20402 0.106093,0.11426 0.171382,0.27748 0.07345,0.16322 0.07345,0.39989 0,0.34276 -0.179543,0.67736 -0.171381,0.32644 -0.448856,0.5876 -0.269314,0.25299 -0.612077,0.40805 -0.342763,0.15506 -0.677365,0.15506 -0.138737,0 -0.277475,-0.0245 -0.138737,-0.0163 -0.252992,-0.0735 -0.106093,-0.0571 -0.179542,-0.15506 -0.07345,-0.1061 -0.07345,-0.26932 0,-0.22851 0.08977,-0.35092 0.08977,-0.13058 0.228509,-0.20403 0.138737,-0.0735 0.293796,-0.11425 0.163221,-0.0408 0.301958,-0.0979 0.138738,-0.0653 0.228509,-0.16322 0.08977,-0.0979 0.08977,-0.27748 0,-0.17138 -0.138737,-0.35092 -0.130576,-0.18771 -0.293797,-0.39173 -0.16322,-0.21219 -0.301958,-0.44886 -0.130576,-0.23667 -0.130576,-0.5223 0,-0.35093 0.138737,-0.64473 0.146899,-0.30195 0.383568,-0.5223 0.244831,-0.22035 0.55495,-0.34276 0.310119,-0.13058 0.652882,-0.13058 0.130576,0 0.252992,0.0245 0.130576,0.0245 0.228509,0.0898 0.09793,0.0571 0.155059,0.16322 0.06529,0.0979 0.06529,0.253 z"
               style="-inkscape-font-specification:Chewy"
               id="path536" /><path
               d="m -112.07493,159.76492 q 0,0.11426 -0.0653,0.20403 -0.0571,0.0898 -0.15506,0.16322 -0.0979,0.0653 -0.21218,0.10609 -0.11426,0.0326 -0.21219,0.0326 -0.16322,0 -0.28564,-0.0816 -0.12241,-0.0816 -0.12241,-0.253 0,-0.12241 0.0571,-0.21218 0.0653,-0.0979 0.15506,-0.15506 0.0898,-0.0653 0.20402,-0.0979 0.11426,-0.0326 0.22035,-0.0326 0.15506,0 0.28564,0.0735 0.13057,0.0734 0.13057,0.25299 z m 0.0653,2.77475 q 0,0.11426 0,0.24483 0,0.12242 -0.008,0.23667 -0.008,0.13874 -0.008,0.37541 0,0.22851 -0.0163,0.49782 -0.0163,0.26932 -0.0571,0.54679 -0.0326,0.27747 -0.11426,0.50598 -0.0816,0.22851 -0.22034,0.37541 -0.13058,0.13874 -0.33461,0.1469 -0.15506,0.008 -0.26115,-0.12242 -0.10609,-0.13057 -0.17954,-0.3346 -0.0653,-0.21218 -0.0979,-0.46518 -0.0327,-0.26115 -0.049,-0.49782 -0.0163,-0.24483 -0.0163,-0.44886 0,-0.20402 0,-0.30195 0,-0.13058 0,-0.36725 0,-0.24483 0.0163,-0.52231 0.0163,-0.27747 0.0571,-0.56311 0.049,-0.28563 0.13057,-0.5223 0.0898,-0.23667 0.22851,-0.38357 0.13874,-0.1469 0.35093,-0.1469 0.22034,0 0.3346,0.22035 0.11425,0.22035 0.17138,0.51414 0.0571,0.2938 0.0653,0.5876 0.008,0.28563 0.008,0.42437 z"
               style="-inkscape-font-specification:Chewy"
               id="path538" /><path
               d="m -109.11248,165.68983 q -0.13873,0 -0.22034,-0.13058 -0.0816,-0.12241 -0.12242,-0.28564 -0.0408,-0.16322 -0.0571,-0.32644 -0.008,-0.17138 -0.008,-0.26115 0,-0.24483 0.0245,-0.48966 0.0326,-0.24483 0.0653,-0.48966 0.0408,-0.24483 0.0653,-0.48966 0.0327,-0.24483 0.0327,-0.48967 0,-0.0979 -0.008,-0.21218 -0.008,-0.11426 -0.0408,-0.21219 -0.0245,-0.10609 -0.0898,-0.17138 -0.0653,-0.0653 -0.17138,-0.0653 -0.0735,0 -0.16322,0.12242 -0.0898,0.11425 -0.17139,0.26931 -0.0734,0.1469 -0.13057,0.30196 -0.049,0.1469 -0.049,0.22035 0,0.17954 0,0.36724 0.008,0.17955 0.008,0.36725 v 0.47334 q -0.008,0.1469 -0.0245,0.30196 -0.0163,0.15506 -0.049,0.30195 -0.0245,0.1469 -0.0734,0.28564 -0.049,0.13058 -0.13057,0.23667 -0.0734,0.0979 -0.17954,0.16322 -0.1061,0.0653 -0.253,0.0653 -0.16322,0 -0.26931,-0.10609 -0.10609,-0.1061 -0.17138,-0.26932 -0.0653,-0.17138 -0.0979,-0.37541 -0.0245,-0.21218 -0.0408,-0.40805 -0.008,-0.20402 -0.008,-0.36724 0.008,-0.17138 0.008,-0.26932 v -0.38357 q 0,-0.31011 -0.0163,-0.61207 -0.008,-0.30196 -0.008,-0.60392 0,-0.16322 0,-0.41621 0.008,-0.25299 0.0653,-0.48966 0.0571,-0.24483 0.1877,-0.41621 0.13058,-0.17139 0.38357,-0.17139 0.11425,0 0.20402,0.0735 0.0898,0.0734 0.15506,0.17955 0.0734,0.10609 0.11426,0.2285 0.049,0.12242 0.0735,0.21219 0.0816,-0.11425 0.1877,-0.22035 0.11425,-0.10609 0.25299,-0.1877 0.13874,-0.0816 0.31012,-0.13058 0.17138,-0.049 0.39173,-0.049 0.41621,0 0.64472,0.20402 0.23667,0.19587 0.34276,0.49783 0.11426,0.29379 0.13874,0.63656 0.0245,0.34276 0.0245,0.62023 0,0.13874 -0.0245,0.41622 -0.0245,0.26931 -0.0816,0.60391 -0.049,0.32644 -0.13874,0.67737 -0.0898,0.34276 -0.21218,0.6284 -0.12242,0.28563 -0.2938,0.46517 -0.16322,0.17955 -0.37541,0.17955 z"
               style="-inkscape-font-specification:Chewy"
               id="path540" /><path
               d="m -105.13806,160.97275 q 0,0.23667 -0.16322,0.35093 -0.15506,0.11425 -0.35092,0.22035 -0.19587,0.0979 -0.35909,0.23667 -0.15506,0.13873 -0.15506,0.41621 0,0.1469 0.0653,0.25299 0.0735,0.10609 0.17138,0.19586 0.1061,0.0816 0.22851,0.17139 0.12242,0.0898 0.22035,0.20402 0.10609,0.11426 0.17138,0.27748 0.0734,0.16322 0.0734,0.39989 0,0.34276 -0.17954,0.67736 -0.17138,0.32644 -0.44886,0.5876 -0.26931,0.25299 -0.61208,0.40805 -0.34276,0.15506 -0.67736,0.15506 -0.13874,0 -0.27748,-0.0245 -0.13873,-0.0163 -0.25299,-0.0734 -0.10609,-0.0571 -0.17954,-0.15506 -0.0735,-0.10609 -0.0735,-0.26931 0,-0.22851 0.0898,-0.35092 0.0898,-0.13058 0.22851,-0.20403 0.13874,-0.0735 0.2938,-0.11425 0.16322,-0.0408 0.30196,-0.0979 0.13873,-0.0653 0.2285,-0.16322 0.0898,-0.0979 0.0898,-0.27747 0,-0.17138 -0.13874,-0.35092 -0.13058,-0.18771 -0.2938,-0.39173 -0.16322,-0.21219 -0.30196,-0.44886 -0.13057,-0.23667 -0.13057,-0.52231 0,-0.35092 0.13873,-0.64472 0.1469,-0.30196 0.38357,-0.5223 0.24483,-0.22035 0.55495,-0.34277 0.31012,-0.13057 0.65288,-0.13057 0.13058,0 0.253,0.0245 0.13057,0.0245 0.22851,0.0898 0.0979,0.0571 0.15505,0.16322 0.0653,0.0979 0.0653,0.25299 z"
               style="-inkscape-font-specification:Chewy"
               id="path542" /><path
               d="m -101.07387,163.02933 q 0,0.35909 -0.0816,0.79162 -0.0735,0.42438 -0.26115,0.79162 -0.17954,0.36725 -0.4815,0.61208 -0.2938,0.24483 -0.74265,0.24483 -0.11426,0 -0.23667,-0.0163 -0.12242,-0.0163 -0.23667,-0.0571 -0.1061,-0.0408 -0.19587,-0.10609 -0.0898,-0.0735 -0.13874,-0.18771 l -0.0734,1.17519 q -0.008,0.1877 -0.0163,0.44886 0,0.26115 -0.0653,0.49782 -0.0571,0.23667 -0.20403,0.39989 -0.13874,0.17138 -0.40805,0.17138 -0.15506,0 -0.26115,-0.16322 -0.1061,-0.15506 -0.17139,-0.39989 -0.0571,-0.24483 -0.0898,-0.54679 -0.0326,-0.30196 -0.0408,-0.57943 -0.008,-0.27748 -0.008,-0.50598 0,-0.22851 0,-0.33461 0,-0.54679 -0.008,-1.08541 -0.008,-0.54679 -0.008,-1.09358 0,-0.0979 0,-0.30196 0,-0.21218 0.0163,-0.45702 0.0163,-0.24483 0.049,-0.50598 0.0408,-0.26115 0.11426,-0.47334 0.0734,-0.22035 0.1877,-0.35092 0.11426,-0.13874 0.27748,-0.13874 0.10609,0 0.1877,0.0653 0.0898,0.0571 0.1469,0.15506 0.0653,0.0898 0.10609,0.19586 0.0408,0.1061 0.0653,0.19587 0.25299,-0.28564 0.57943,-0.43254 0.3346,-0.1469 0.71001,-0.1469 0.39173,0 0.63656,0.22035 0.25299,0.22035 0.39173,0.54679 0.1469,0.32644 0.20403,0.70185 0.0571,0.36724 0.0571,0.6692 z m -1.16702,-0.0653 q 0,-0.12241 -0.0245,-0.24483 -0.0163,-0.13057 -0.0735,-0.23667 -0.049,-0.11425 -0.14689,-0.17954 -0.0979,-0.0735 -0.24483,-0.0735 -0.19587,0 -0.41622,0.13058 -0.21218,0.12241 -0.31828,0.28563 -0.0408,0.0653 -0.049,0.21219 -0.008,0.1469 -0.008,0.22035 0,0.0571 0,0.15506 0.008,0.0898 0.0163,0.1877 0.008,0.0979 0.0163,0.18771 0.0163,0.0898 0.0408,0.13873 0.0245,0.0735 0.1061,0.13874 0.0816,0.0571 0.17954,0.10609 0.0979,0.049 0.19587,0.0734 0.10609,0.0245 0.17954,0.0245 0.17138,0 0.27747,-0.13058 0.1061,-0.13058 0.16322,-0.31012 0.0653,-0.17954 0.0816,-0.36725 0.0245,-0.19586 0.0245,-0.31828 z"
               style="-inkscape-font-specification:Chewy"
               id="path544" /><path
               d="m -99.229475,159.76492 q 0,0.11426 -0.06529,0.20403 -0.05713,0.0898 -0.15506,0.16322 -0.09793,0.0653 -0.212187,0.10609 -0.114254,0.0326 -0.212186,0.0326 -0.163222,0 -0.285632,-0.0816 -0.12242,-0.0816 -0.12242,-0.253 0,-0.12241 0.0571,-0.21218 0.0653,-0.0979 0.15506,-0.15506 0.08977,-0.0653 0.204023,-0.0979 0.114254,-0.0326 0.220347,-0.0326 0.15506,0 0.285636,0.0735 0.130577,0.0734 0.130577,0.25299 z m 0.06529,2.77475 q 0,0.11426 0,0.24483 0,0.12242 -0.0082,0.23667 -0.0082,0.13874 -0.0082,0.37541 0,0.22851 -0.01632,0.49782 -0.01632,0.26932 -0.05713,0.54679 -0.03264,0.27747 -0.114255,0.50598 -0.08161,0.22851 -0.220347,0.37541 -0.130577,0.13874 -0.334602,0.1469 -0.155061,0.008 -0.261161,-0.12242 -0.10609,-0.13057 -0.17954,-0.3346 -0.0653,-0.21218 -0.0979,-0.46518 -0.0326,-0.26115 -0.049,-0.49782 -0.0163,-0.24483 -0.0163,-0.44886 0,-0.20402 0,-0.30195 0,-0.13058 0,-0.36725 0,-0.24483 0.0163,-0.52231 0.0163,-0.27747 0.0571,-0.56311 0.049,-0.28563 0.13058,-0.5223 0.0898,-0.23667 0.22851,-0.38357 0.138736,-0.1469 0.350923,-0.1469 0.220348,0 0.334602,0.22035 0.114255,0.22035 0.171382,0.51414 0.05713,0.2938 0.06529,0.5876 0.0082,0.28563 0.0082,0.42437 z"
               style="-inkscape-font-specification:Chewy"
               id="path546" /><path
               d="m -95.752879,162.40909 q -0.114254,0.008 -0.195864,-0.0163 -0.08161,-0.0326 -0.163221,-0.0653 -0.07345,-0.0326 -0.146898,-0.0571 -0.07345,-0.0327 -0.163221,-0.0245 -0.16322,0.008 -0.293797,0.0898 -0.122415,0.0816 -0.228508,0.20402 -0.09793,0.12242 -0.171382,0.27748 -0.07345,0.14689 -0.114254,0.29379 -0.02448,0.0979 -0.04081,0.30196 -0.0082,0.19587 -0.0082,0.42437 -0.0082,0.23667 -0.0082,0.44886 0,0.21219 -0.01632,0.3346 -0.0082,0.13058 -0.04081,0.31012 -0.03264,0.17138 -0.106093,0.32644 -0.06529,0.15506 -0.179542,0.26116 -0.114255,0.10609 -0.293797,0.10609 -0.138738,0 -0.244831,-0.0816 -0.09793,-0.0816 -0.171382,-0.21219 -0.06529,-0.13874 -0.114254,-0.31828 -0.04081,-0.17954 -0.06529,-0.36724 -0.02448,-0.19587 -0.04081,-0.39173 -0.0082,-0.19587 -0.01632,-0.36725 0,-0.17954 0,-0.32644 0.0082,-0.1469 0.0082,-0.23667 -0.0082,-0.28564 -0.03264,-0.57127 -0.01632,-0.2938 -0.01632,-0.57943 0,-0.17955 0.01632,-0.3999 0.01632,-0.22034 0.08977,-0.40805 0.07345,-0.19586 0.212187,-0.32644 0.146898,-0.13057 0.39989,-0.13057 0.138737,0 0.23667,0.0898 0.09793,0.0898 0.155059,0.22035 0.06529,0.13057 0.09793,0.27747 0.03264,0.1469 0.0408,0.26931 0.195865,-0.31828 0.440696,-0.51414 0.244831,-0.20403 0.63656,-0.22035 0.195864,-0.008 0.383568,0.0408 0.195865,0.0408 0.350924,0.1469 0.163221,0.0979 0.261153,0.26115 0.106093,0.16322 0.114254,0.38357 0.01632,0.26115 -0.155059,0.39989 -0.171382,0.13873 -0.416213,0.14689 z"
               style="-inkscape-font-specification:Chewy"
               id="path548" /><path
               d="m -91.639722,164.00866 q 0,0.27747 -0.179542,0.54678 -0.171382,0.26116 -0.440695,0.47334 -0.261153,0.20403 -0.563111,0.33461 -0.301958,0.12241 -0.55495,0.12241 -0.432534,0 -0.775297,-0.21219 -0.334602,-0.22034 -0.563111,-0.55495 -0.228509,-0.3346 -0.350924,-0.73449 -0.114254,-0.40805 -0.114254,-0.79162 0,-0.40805 0.114254,-0.87323 0.114254,-0.46517 0.342763,-0.8569 0.23667,-0.39173 0.587594,-0.65289 0.359085,-0.26115 0.848746,-0.26115 0.277475,0 0.530467,0.0979 0.252992,0.0898 0.440695,0.26116 0.187704,0.17138 0.301958,0.40805 0.114255,0.23667 0.114255,0.53046 0,0.38357 -0.163221,0.71817 -0.16322,0.33461 -0.432534,0.57944 -0.269314,0.24483 -0.620238,0.39989 -0.350924,0.1469 -0.71817,0.16322 0.03264,0.23667 0.187703,0.34276 0.163221,0.10609 0.383568,0.10609 0.163221,0 0.31828,-0.0816 0.15506,-0.0816 0.301958,-0.17954 0.146899,-0.10609 0.285636,-0.1877 0.146899,-0.0816 0.293797,-0.0816 0.163221,0 0.293797,0.10609 0.130576,0.10609 0.130576,0.27748 z m -1.322086,-1.99946 q 0,-0.10609 -0.05713,-0.22034 -0.05713,-0.11426 -0.179542,-0.11426 -0.179543,0 -0.301958,0.0979 -0.122416,0.0898 -0.204026,0.23667 -0.08161,0.13874 -0.130576,0.30196 -0.04081,0.16322 -0.04897,0.30196 0.114254,-0.0245 0.269313,-0.0653 0.163221,-0.0408 0.301958,-0.10609 0.146899,-0.0735 0.244831,-0.17954 0.106093,-0.1061 0.106093,-0.253 z"
               style="-inkscape-font-specification:Chewy"
               id="path550" /><path
               d="m -87.795879,160.09136 q 0,0.59576 -0.04897,1.18335 -0.0408,0.5876 -0.0408,1.18335 0,0.4815 0.02448,0.95484 0.03264,0.47334 0.03264,0.95484 0,0.13058 -0.0082,0.31828 -0.0082,0.17954 -0.05713,0.35092 -0.04081,0.17139 -0.146898,0.2938 -0.09793,0.12242 -0.285636,0.12242 -0.244831,0 -0.408051,-0.17955 -0.15506,-0.1877 -0.195865,-0.41621 -0.15506,0.2938 -0.448856,0.49782 -0.293797,0.20403 -0.63656,0.20403 -0.367247,0 -0.63656,-0.25299 -0.261153,-0.25299 -0.440696,-0.61208 -0.171381,-0.35908 -0.261153,-0.75081 -0.08161,-0.39173 -0.08161,-0.67737 0,-0.20402 0.02448,-0.46518 0.02448,-0.26115 0.08161,-0.53046 0.06529,-0.26932 0.16322,-0.52231 0.09793,-0.26115 0.244831,-0.46518 0.155059,-0.20402 0.359085,-0.32644 0.212187,-0.12241 0.4815,-0.12241 0.293797,0 0.563111,0.17138 0.269314,0.17138 0.408051,0.42437 l 0.07345,-1.2976 q 0.0082,-0.15506 0.02448,-0.35909 0.01632,-0.21218 0.06529,-0.39989 0.05713,-0.1877 0.171381,-0.31828 0.114255,-0.13057 0.334602,-0.13057 0.23667,0 0.367247,0.11425 0.130576,0.11426 0.187703,0.2938 0.06529,0.17138 0.07345,0.37541 0.01632,0.20402 0.01632,0.38356 z m -1.330247,3.6235 q 0,-0.1877 -0.0082,-0.36725 -0.0082,-0.17954 0,-0.36724 -0.04897,-0.1061 -0.114254,-0.22851 -0.06529,-0.13058 -0.163221,-0.23667 -0.08977,-0.11426 -0.204025,-0.18771 -0.114255,-0.0734 -0.244831,-0.0734 -0.146898,0 -0.23667,0.0898 -0.08977,0.0898 -0.130576,0.22034 -0.04081,0.12242 -0.05713,0.26932 -0.0082,0.1469 -0.0082,0.25299 0,0.0979 0.01632,0.2938 0.01632,0.1877 0.05713,0.38356 0.04897,0.19587 0.130576,0.34277 0.08161,0.1469 0.220348,0.1469 0.106093,0 0.212187,-0.0408 0.106093,-0.049 0.195864,-0.11425 0.09793,-0.0735 0.179543,-0.15506 0.08977,-0.0898 0.155059,-0.16322 z"
               style="-inkscape-font-specification:Chewy"
               id="path552" /><path
               d="m -83.388925,165.75512 q -0.579433,0 -0.905874,-0.15506 -0.31828,-0.1469 -0.4815,-0.42438 -0.15506,-0.27747 -0.187704,-0.6692 -0.03264,-0.39173 -0.03264,-0.87323 0,-0.38357 0.02448,-0.76714 0.02448,-0.39173 0.07345,-0.83242 -0.114254,0 -0.179542,0.008 -0.06529,0 -0.106093,0 -0.261153,0 -0.448857,-0.11426 -0.195864,-0.11425 -0.195864,-0.35092 0,-0.1469 0.114254,-0.26115 0.106093,-0.11426 0.277475,-0.19587 0.171381,-0.0816 0.367246,-0.13057 0.204026,-0.049 0.383568,-0.0653 0,-0.22851 0.03264,-0.50599 0.03264,-0.27747 0.114255,-0.51414 0.08977,-0.24483 0.236669,-0.40805 0.146899,-0.16322 0.375407,-0.16322 0.130577,0 0.228509,0.0816 0.106093,0.0735 0.171382,0.19586 0.06529,0.11426 0.09793,0.26116 0.03264,0.14689 0.03264,0.28563 0,0.16322 -0.02448,0.3346 -0.02448,0.17139 -0.08977,0.42438 0.138737,-0.0163 0.187703,-0.0163 0.04897,-0.008 0.08977,-0.008 0.138737,0 0.285635,0.0245 0.15506,0.0245 0.277475,0.0816 0.130577,0.0571 0.212187,0.15506 0.08161,0.0898 0.08161,0.22034 0,0.1469 -0.122415,0.26116 -0.114255,0.11425 -0.293797,0.19586 -0.179543,0.0816 -0.383568,0.13058 -0.204026,0.0408 -0.383568,0.0571 -0.04897,0.3346 -0.07345,0.62023 -0.01632,0.27748 -0.0408,0.56311 -0.01632,0.13874 -0.03264,0.28564 -0.0082,0.13874 -0.0082,0.28564 0,0.10609 0.0082,0.25299 0.0082,0.13874 0.05713,0.26931 0.04897,0.13058 0.15506,0.22851 0.106093,0.0898 0.293797,0.0898 0.114254,0 0.236669,-0.0163 0.122416,-0.0245 0.244831,-0.0245 0.212187,0 0.301958,0.14689 0.09793,0.1469 0.09793,0.37541 0,0.17138 -0.106093,0.30196 -0.09793,0.12242 -0.252992,0.19586 -0.155059,0.0816 -0.350924,0.12242 -0.187703,0.0408 -0.359085,0.0408 z"
               style="-inkscape-font-specification:Chewy"
               id="path554" /><path
               d="m -80.606016,165.69799 q -0.416212,0 -0.726331,-0.22035 -0.310119,-0.22035 -0.522306,-0.56311 -0.212187,-0.34276 -0.31828,-0.75898 -0.106093,-0.42437 -0.106093,-0.83242 0,-0.43253 0.106093,-0.88955 0.106093,-0.46518 0.326441,-0.84059 0.220348,-0.38357 0.563111,-0.62024 0.342763,-0.24483 0.816102,-0.24483 0.457018,0 0.775298,0.253 0.326441,0.24483 0.522305,0.62023 0.195865,0.36725 0.277475,0.80794 0.08161,0.4407 0.05713,0.83243 -0.02448,0.43253 -0.138737,0.87323 -0.106093,0.44069 -0.31828,0.79162 -0.212187,0.35092 -0.538628,0.57127 -0.326441,0.22035 -0.775297,0.22035 z m 0.08161,-3.68879 q -0.122415,0 -0.220347,0.13058 -0.08977,0.13058 -0.15506,0.31828 -0.05713,0.1877 -0.08977,0.39989 -0.03264,0.20403 -0.03264,0.35909 0,0.19586 0.03264,0.42437 0.0408,0.22851 0.106093,0.42437 0.06529,0.18771 0.15506,0.31828 0.09793,0.12242 0.220347,0.12242 0.130577,0 0.220348,-0.12242 0.09793,-0.12241 0.155059,-0.31012 0.05713,-0.1877 0.08161,-0.40805 0.02448,-0.22851 0.02448,-0.42437 0,-0.17954 -0.03264,-0.39173 -0.03264,-0.22035 -0.09793,-0.40805 -0.05713,-0.1877 -0.155059,-0.31012 -0.08977,-0.12242 -0.212187,-0.12242 z"
               style="-inkscape-font-specification:Chewy"
               id="path556" /><path
               d="m -72.877524,163.12727 q 0,0.44885 -0.08977,0.88955 -0.08977,0.44069 -0.301958,0.79162 -0.212186,0.34276 -0.571271,0.55495 -0.350924,0.21218 -0.881391,0.21218 -0.522306,0 -0.87323,-0.20402 -0.350924,-0.21219 -0.56311,-0.55495 -0.204026,-0.34277 -0.293797,-0.7753 -0.08161,-0.43253 -0.08161,-0.88139 0,-0.48966 0.114255,-0.97116 0.02448,-0.13058 0.08977,-0.35909 0.07345,-0.23667 0.179543,-0.45702 0.114254,-0.2285 0.252991,-0.39172 0.146899,-0.16323 0.31828,-0.16323 0.163221,0 0.261153,0.0898 0.09793,0.0898 0.15506,0.2285 0.05713,0.13058 0.07345,0.28564 0.01632,0.1469 0.01632,0.26931 0,0.18771 -0.03264,0.36725 -0.02448,0.17954 -0.05713,0.35909 -0.03265,0.24483 -0.06529,0.48966 -0.02448,0.24483 -0.02448,0.48966 0,0.12241 0.0082,0.27747 0.01632,0.1469 0.06529,0.28564 0.04897,0.13874 0.138737,0.23667 0.08977,0.0898 0.252992,0.0898 0.212186,0 0.334602,-0.11425 0.130576,-0.11426 0.187703,-0.28564 0.06529,-0.17138 0.08161,-0.36725 0.01632,-0.19586 0.01632,-0.35908 0,-0.35909 -0.04897,-0.70185 -0.04897,-0.35092 -0.08977,-0.71001 -0.0082,-0.0408 -0.0082,-0.11425 0,-0.12242 0.04081,-0.24483 0.04081,-0.12242 0.114255,-0.22035 0.07345,-0.0979 0.179542,-0.15506 0.106094,-0.0653 0.23667,-0.0653 0.179542,0 0.31828,0.13058 0.138737,0.12241 0.228509,0.32644 0.09793,0.19586 0.155059,0.44886 0.06529,0.24483 0.09793,0.48966 0.04081,0.23667 0.04897,0.44885 0.01632,0.21219 0.01632,0.33461 z"
               style="-inkscape-font-specification:Chewy"
               id="path558" /><path
               d="m -68.641954,163.02933 q 0,0.35909 -0.08161,0.79162 -0.07345,0.42438 -0.261152,0.79162 -0.179543,0.36725 -0.481501,0.61208 -0.293797,0.24483 -0.742653,0.24483 -0.114255,0 -0.23667,-0.0163 -0.122415,-0.0163 -0.23667,-0.0571 -0.106093,-0.0408 -0.195864,-0.10609 -0.08977,-0.0735 -0.138738,-0.18771 l -0.07345,1.17519 q -0.0082,0.1877 -0.01632,0.44886 0,0.26115 -0.06529,0.49782 -0.05713,0.23667 -0.204026,0.39989 -0.138737,0.17138 -0.408051,0.17138 -0.155059,0 -0.261153,-0.16322 -0.106093,-0.15506 -0.171381,-0.39989 -0.05713,-0.24483 -0.08977,-0.54679 -0.03264,-0.30196 -0.04081,-0.57943 -0.0082,-0.27748 -0.0082,-0.50598 0,-0.22851 0,-0.33461 0,-0.54679 -0.0082,-1.08541 -0.0082,-0.54679 -0.0082,-1.09358 0,-0.0979 0,-0.30196 0,-0.21218 0.01632,-0.45702 0.01632,-0.24483 0.04897,-0.50598 0.0408,-0.26115 0.114255,-0.47334 0.07345,-0.22035 0.187703,-0.35092 0.114255,-0.13874 0.277475,-0.13874 0.106093,0 0.187704,0.0653 0.08977,0.0571 0.146898,0.15506 0.06529,0.0898 0.106094,0.19586 0.0408,0.1061 0.06529,0.19587 0.252991,-0.28564 0.579432,-0.43254 0.334603,-0.1469 0.71001,-0.1469 0.391729,0 0.63656,0.22035 0.252991,0.22035 0.391729,0.54679 0.146898,0.32644 0.204025,0.70185 0.05713,0.36724 0.05713,0.6692 z m -1.167027,-0.0653 q 0,-0.12241 -0.02448,-0.24483 -0.01632,-0.13057 -0.07345,-0.23667 -0.04897,-0.11425 -0.146899,-0.17954 -0.09793,-0.0735 -0.24483,-0.0735 -0.195865,0 -0.416213,0.13058 -0.212186,0.12241 -0.31828,0.28563 -0.0408,0.0653 -0.04897,0.21219 -0.0082,0.1469 -0.0082,0.22035 0,0.0571 0,0.15506 0.0082,0.0898 0.01632,0.1877 0.0082,0.0979 0.01632,0.18771 0.01632,0.0898 0.04081,0.13873 0.02448,0.0735 0.106094,0.13874 0.08161,0.0571 0.179542,0.10609 0.09793,0.049 0.195865,0.0734 0.106093,0.0245 0.179542,0.0245 0.171382,0 0.277475,-0.13058 0.106094,-0.13058 0.163221,-0.31012 0.06529,-0.17954 0.08161,-0.36725 0.02448,-0.19586 0.02448,-0.31828 z"
               style="-inkscape-font-specification:Chewy"
               id="path560" /><path
               d="m -64.447187,162.67841 q 0,0.41621 -0.01632,0.83242 -0.0082,0.41622 -0.0408,0.83243 -0.02448,0.35908 -0.06529,0.76713 -0.0408,0.40806 -0.130576,0.80795 -0.08977,0.40805 -0.23667,0.77529 -0.146899,0.37541 -0.391729,0.66105 -0.23667,0.28563 -0.579433,0.45701 -0.342763,0.17138 -0.816103,0.17138 -0.220347,0 -0.497822,-0.0734 -0.269314,-0.0653 -0.514145,-0.19587 -0.23667,-0.13058 -0.408051,-0.32644 -0.163221,-0.1877 -0.163221,-0.4407 0,-0.1877 0.130577,-0.35092 0.138737,-0.15506 0.350924,-0.15506 0.130576,0 0.244831,0.0408 0.122415,0.049 0.236669,0.10609 0.122416,0.0571 0.228509,0.0979 0.114254,0.049 0.228509,0.049 0.301958,0 0.505983,-0.15506 0.204026,-0.1469 0.326441,-0.38357 0.122416,-0.22851 0.179543,-0.50598 0.06529,-0.26932 0.08977,-0.51415 -0.16322,0.18771 -0.383568,0.26116 -0.212187,0.0653 -0.448856,0.0653 -0.432535,0 -0.734493,-0.1469 -0.301958,-0.15505 -0.489661,-0.41621 -0.187704,-0.26931 -0.277475,-0.62024 -0.08977,-0.35092 -0.08977,-0.75897 0,-0.25299 0.04897,-0.57127 0.05713,-0.31828 0.16322,-0.64472 0.106094,-0.32644 0.261153,-0.63656 0.163221,-0.31012 0.375407,-0.54679 0.212187,-0.23667 0.47334,-0.38357 0.269314,-0.1469 0.587594,-0.1469 0.310119,0 0.546788,0.17954 0.244831,0.17955 0.285636,0.50599 0.08977,-0.17138 0.23667,-0.3346 0.146898,-0.17139 0.359085,-0.17139 0.114254,0 0.187704,0.11426 0.08161,0.11425 0.122415,0.30196 0.04897,0.17954 0.07345,0.39989 0.02448,0.21218 0.03264,0.42437 0.0082,0.20403 0.0082,0.37541 0,0.17138 0,0.25299 z m -1.240475,0.53047 q 0,-0.12242 -0.04081,-0.31828 -0.03264,-0.19587 -0.106093,-0.37541 -0.06529,-0.17954 -0.171381,-0.31012 -0.106094,-0.13058 -0.252992,-0.13058 -0.187704,0 -0.334602,0.13058 -0.138738,0.13058 -0.23667,0.31828 -0.09793,0.17954 -0.155059,0.39173 -0.04897,0.20402 -0.04897,0.35092 0,0.1061 0.01632,0.28564 0.01632,0.17954 0.06529,0.35092 0.05713,0.17138 0.146898,0.2938 0.08977,0.12241 0.23667,0.12241 0.220347,0 0.383568,-0.10609 0.16322,-0.10609 0.269314,-0.26931 0.114254,-0.16322 0.171381,-0.35909 0.05713,-0.19586 0.05713,-0.3754 z"
               style="-inkscape-font-specification:Chewy"
               id="path562" /><path
               d="m -61.035877,162.40909 q -0.114254,0.008 -0.195864,-0.0163 -0.08161,-0.0326 -0.163221,-0.0653 -0.07345,-0.0326 -0.146898,-0.0571 -0.07345,-0.0327 -0.163221,-0.0245 -0.16322,0.008 -0.293797,0.0898 -0.122415,0.0816 -0.228508,0.20402 -0.09793,0.12242 -0.171382,0.27748 -0.07345,0.14689 -0.114254,0.29379 -0.02448,0.0979 -0.0408,0.30196 -0.0082,0.19587 -0.0082,0.42437 -0.0082,0.23667 -0.0082,0.44886 0,0.21219 -0.01632,0.3346 -0.0082,0.13058 -0.04081,0.31012 -0.03264,0.17138 -0.106093,0.32644 -0.06529,0.15506 -0.179542,0.26116 -0.114255,0.10609 -0.293797,0.10609 -0.138738,0 -0.244831,-0.0816 -0.09793,-0.0816 -0.171382,-0.21219 -0.06529,-0.13874 -0.114254,-0.31828 -0.0408,-0.17954 -0.06529,-0.36724 -0.02448,-0.19587 -0.0408,-0.39173 -0.0082,-0.19587 -0.01632,-0.36725 0,-0.17954 0,-0.32644 0.0082,-0.1469 0.0082,-0.23667 -0.0082,-0.28564 -0.03264,-0.57127 -0.01632,-0.2938 -0.01632,-0.57943 0,-0.17955 0.01632,-0.3999 0.01632,-0.22034 0.08977,-0.40805 0.07345,-0.19586 0.212186,-0.32644 0.146899,-0.13057 0.399891,-0.13057 0.138737,0 0.236669,0.0898 0.09793,0.0898 0.15506,0.22035 0.06529,0.13057 0.09793,0.27747 0.03264,0.1469 0.0408,0.26931 0.195865,-0.31828 0.440696,-0.51414 0.24483,-0.20403 0.63656,-0.22035 0.195864,-0.008 0.383568,0.0408 0.195864,0.0408 0.350924,0.1469 0.16322,0.0979 0.261153,0.26115 0.106093,0.16322 0.114254,0.38357 0.01632,0.26115 -0.155059,0.39989 -0.171382,0.13873 -0.416213,0.14689 z"
               style="-inkscape-font-specification:Chewy"
               id="path564" /><path
               d="m -56.873754,164.31061 q 0,0.1469 -0.01632,0.38357 -0.0082,0.23667 -0.06529,0.46518 -0.05713,0.22035 -0.179542,0.38357 -0.122416,0.16322 -0.342763,0.16322 -0.301958,0 -0.465179,-0.19587 -0.16322,-0.19586 -0.155059,-0.48966 -0.261153,0.22851 -0.595755,0.35909 -0.326441,0.13057 -0.669204,0.13057 -0.23667,0 -0.448856,-0.11425 -0.212187,-0.11425 -0.375408,-0.2938 -0.16322,-0.17954 -0.261152,-0.39989 -0.09793,-0.22851 -0.09793,-0.44885 0,-0.39173 0.23667,-0.68553 0.244831,-0.2938 0.595755,-0.49782 0.350924,-0.21219 0.742653,-0.3346 0.39989,-0.12242 0.710009,-0.16322 0,-0.0408 0,-0.0734 0.0082,-0.0327 0.0082,-0.0735 0,-0.25299 -0.138737,-0.40805 -0.138738,-0.15506 -0.391729,-0.15506 -0.204026,0 -0.350924,0.0734 -0.146899,0.0653 -0.277475,0.15505 -0.130577,0.0816 -0.261153,0.15506 -0.130576,0.0653 -0.293797,0.0653 -0.179543,0 -0.310119,-0.11425 -0.122415,-0.11426 -0.122415,-0.2938 0,-0.26931 0.155059,-0.48966 0.163221,-0.22035 0.39989,-0.36725 0.244831,-0.15506 0.522306,-0.23667 0.285636,-0.0898 0.522306,-0.0898 0.220347,0 0.440695,0.0571 0.220348,0.049 0.416212,0.16322 0.195865,0.10609 0.350924,0.26931 0.163221,0.15506 0.261153,0.36725 0.146899,0.30196 0.23667,0.64472 0.08977,0.3346 0.138737,0.69369 0.04897,0.35092 0.06529,0.71001 0.01632,0.35092 0.01632,0.68552 z m -1.305764,-0.26115 -0.02448,-0.55495 q -0.01632,0 -0.03264,0 -0.01632,-0.008 -0.03264,-0.008 -0.106093,0 -0.269314,0.0571 -0.155059,0.049 -0.301957,0.1469 -0.146899,0.0898 -0.252992,0.20402 -0.09793,0.11426 -0.09793,0.23667 0,0.11426 0.08161,0.15506 0.08161,0.0408 0.187703,0.0408 0.179543,0 0.383568,-0.0898 0.204026,-0.0979 0.359086,-0.1877 z"
               style="-inkscape-font-specification:Chewy"
               id="path566" /><path
               d="m -52.866693,160.09136 q 0,0.59576 -0.04897,1.18335 -0.0408,0.5876 -0.0408,1.18335 0,0.4815 0.02448,0.95484 0.03264,0.47334 0.03264,0.95484 0,0.13058 -0.0082,0.31828 -0.0082,0.17954 -0.05713,0.35092 -0.0408,0.17139 -0.146898,0.2938 -0.09793,0.12242 -0.285636,0.12242 -0.244831,0 -0.408052,-0.17955 -0.155059,-0.1877 -0.195864,-0.41621 -0.15506,0.2938 -0.448857,0.49782 -0.293797,0.20403 -0.63656,0.20403 -0.367246,0 -0.63656,-0.25299 -0.261152,-0.25299 -0.440695,-0.61208 -0.171381,-0.35908 -0.261153,-0.75081 -0.08161,-0.39173 -0.08161,-0.67737 0,-0.20402 0.02448,-0.46518 0.02448,-0.26115 0.08161,-0.53046 0.06529,-0.26932 0.163221,-0.52231 0.09793,-0.26115 0.244831,-0.46518 0.155059,-0.20402 0.359085,-0.32644 0.212186,-0.12241 0.4815,-0.12241 0.293797,0 0.563111,0.17138 0.269314,0.17138 0.408051,0.42437 l 0.07345,-1.2976 q 0.0082,-0.15506 0.02448,-0.35909 0.01632,-0.21218 0.06529,-0.39989 0.05713,-0.1877 0.171381,-0.31828 0.114255,-0.13057 0.334602,-0.13057 0.23667,0 0.367246,0.11425 0.130577,0.11426 0.187704,0.2938 0.06529,0.17138 0.07345,0.37541 0.01632,0.20402 0.01632,0.38356 z m -1.330247,3.6235 q 0,-0.1877 -0.0082,-0.36725 -0.0082,-0.17954 0,-0.36724 -0.04897,-0.1061 -0.114254,-0.22851 -0.06529,-0.13058 -0.163221,-0.23667 -0.08977,-0.11426 -0.204025,-0.18771 -0.114255,-0.0734 -0.244831,-0.0734 -0.146899,0 -0.23667,0.0898 -0.08977,0.0898 -0.130576,0.22034 -0.0408,0.12242 -0.05713,0.26932 -0.0082,0.1469 -0.0082,0.25299 0,0.0979 0.01632,0.2938 0.01632,0.1877 0.05713,0.38356 0.04897,0.19587 0.130576,0.34277 0.08161,0.1469 0.220348,0.1469 0.106093,0 0.212187,-0.0408 0.106093,-0.049 0.195864,-0.11425 0.09793,-0.0735 0.179543,-0.15506 0.08977,-0.0898 0.155059,-0.16322 z"
               style="-inkscape-font-specification:Chewy"
               id="path568" /><path
               d="m -48.908595,164.00866 q 0,0.27747 -0.179542,0.54678 -0.171382,0.26116 -0.440696,0.47334 -0.261152,0.20403 -0.56311,0.33461 -0.301958,0.12241 -0.55495,0.12241 -0.432534,0 -0.775298,-0.21219 -0.334602,-0.22034 -0.56311,-0.55495 -0.228509,-0.3346 -0.350924,-0.73449 -0.114255,-0.40805 -0.114255,-0.79162 0,-0.40805 0.114255,-0.87323 0.114254,-0.46517 0.342763,-0.8569 0.236669,-0.39173 0.587594,-0.65289 0.359085,-0.26115 0.848746,-0.26115 0.277475,0 0.530467,0.0979 0.252992,0.0898 0.440695,0.26116 0.187704,0.17138 0.301958,0.40805 0.114254,0.23667 0.114254,0.53046 0,0.38357 -0.16322,0.71817 -0.163221,0.33461 -0.432534,0.57944 -0.269314,0.24483 -0.620238,0.39989 -0.350924,0.1469 -0.718171,0.16322 0.03264,0.23667 0.187704,0.34276 0.163221,0.10609 0.383568,0.10609 0.163221,0 0.31828,-0.0816 0.15506,-0.0816 0.301958,-0.17954 0.146899,-0.10609 0.285636,-0.1877 0.146898,-0.0816 0.293797,-0.0816 0.16322,0 0.293797,0.10609 0.130576,0.10609 0.130576,0.27748 z m -1.322086,-1.99946 q 0,-0.10609 -0.05713,-0.22034 -0.05713,-0.11426 -0.179543,-0.11426 -0.179542,0 -0.301957,0.0979 -0.122416,0.0898 -0.204026,0.23667 -0.08161,0.13874 -0.130577,0.30196 -0.04081,0.16322 -0.04897,0.30196 0.114255,-0.0245 0.269314,-0.0653 0.163221,-0.0408 0.301958,-0.10609 0.146899,-0.0735 0.244831,-0.17954 0.106093,-0.1061 0.106093,-0.253 z"
               style="-inkscape-font-specification:Chewy"
               id="path570" /><path
               d="m -47.398809,165.06959 q 0,0.10609 -0.04897,0.19586 -0.04897,0.0816 -0.130576,0.13874 -0.07345,0.0571 -0.171382,0.0898 -0.08977,0.0327 -0.187703,0.0327 -0.122416,0 -0.269314,-0.049 -0.138738,-0.0408 -0.261153,-0.12242 -0.114254,-0.0816 -0.195865,-0.1877 -0.08161,-0.11425 -0.08161,-0.25299 0,-0.22035 0.187704,-0.32644 0.187703,-0.11426 0.383568,-0.11426 0.122415,0 0.252992,0.0408 0.138737,0.0408 0.252991,0.12241 0.122416,0.0735 0.195865,0.18771 0.07345,0.10609 0.07345,0.24483 z"
               style="-inkscape-font-specification:Chewy"
               id="path572" /></g></g></g></g></g></svg>
