<?xml version="1.0" encoding="UTF-8" standalone="no"?>
<!-- Created with Inkscape (http://www.inkscape.org/) -->

<svg
   width="128.93794"
   height="225.73718"
   viewBox="0 0 34.114829 59.726296"
   version="1.1"
   id="svg5"
   inkscape:version="1.2 (dc2aedaf03, 2022-05-15)"
   sodipodi:docname="Scene 5.svg.2022_08_24_03_31_35.0.svg"
   xmlns:inkscape="http://www.inkscape.org/namespaces/inkscape"
   xmlns:sodipodi="http://sodipodi.sourceforge.net/DTD/sodipodi-0.dtd"
   xmlns="http://www.w3.org/2000/svg"
   xmlns:svg="http://www.w3.org/2000/svg">
  <sodipodi:namedview
     id="namedview7"
     pagecolor="#ffffff"
     bordercolor="#666666"
     borderopacity="1.0"
     inkscape:showpageshadow="2"
     inkscape:pageopacity="0.0"
     inkscape:pagecheckerboard="0"
     inkscape:deskcolor="#d1d1d1"
     inkscape:document-units="mm"
     showgrid="true"
     inkscape:zoom="1.0129245"
     inkscape:cx="305.55091"
     inkscape:cy="298.64022"
     inkscape:window-width="1920"
     inkscape:window-height="991"
     inkscape:window-x="-9"
     inkscape:window-y="-9"
     inkscape:window-maximized="1"
     inkscape:current-layer="layer1">
    <inkscape:grid
       type="axonomgrid"
       id="grid1326"
       snapvisiblegridlinesonly="false"
       units="px"
       spacingy="2.6458333"
       originx="169.33333"
       originy="95.25" />
  </sodipodi:namedview>
  <defs
     id="defs2" />
  <g
     inkscape:label="Layer 1"
     inkscape:groupmode="layer"
     id="layer1"
     transform="translate(-118.80931,-27.317213)">
    <g
       aria-label="Where I 
picked up
 numerous 
invaluable 
skills"
       transform="skewY(-30)"
       id="text1135"
       style="font-size:8.39354px;font-family:'Nunito Sans';-inkscape-font-specification:'Nunito Sans, Normal';stroke-width:0.449652">
      <path
         d="m 128.21482,114.13336 q 0,0.49181 -0.0656,0.97542 -0.0656,0.47542 -0.15574,0.94264 -0.0246,0.12295 -0.0738,0.40164 -0.0492,0.2705 -0.12295,0.60657 -0.0656,0.33606 -0.16394,0.69672 -0.0984,0.36066 -0.22131,0.65575 -0.11476,0.29509 -0.2623,0.49181 -0.13935,0.18853 -0.30328,0.18853 -0.16394,0 -0.31968,-0.16394 -0.14754,-0.16394 -0.27869,-0.40984 -0.12295,-0.2541 -0.22951,-0.56558 -0.10656,-0.31148 -0.18853,-0.59837 -0.0738,-0.29508 -0.13115,-0.53279 -0.0492,-0.24591 -0.0738,-0.36886 -0.0328,0.10656 -0.10656,0.34427 -0.0656,0.22951 -0.17213,0.52459 -0.10656,0.28689 -0.23771,0.59017 -0.13115,0.30329 -0.27869,0.55739 -0.13935,0.2541 -0.29509,0.41804 -0.15574,0.16393 -0.31147,0.16393 -0.20493,0 -0.36066,-0.18033 -0.15574,-0.18033 -0.2623,-0.45902 -0.10656,-0.28689 -0.18033,-0.63116 -0.0738,-0.35246 -0.11476,-0.68853 -0.041,-0.34426 -0.0656,-0.63935 -0.0246,-0.29508 -0.0328,-0.46722 -0.0246,-0.39345 -0.0492,-0.7705 -0.0164,-0.37705 -0.0164,-0.7705 0,-0.13935 0.008,-0.37705 0.008,-0.24591 0.0574,-0.47542 0.0574,-0.23771 0.16394,-0.40984 0.11475,-0.18033 0.32787,-0.19672 0.18033,-0.008 0.31148,0.14754 0.13115,0.15574 0.22131,0.41804 0.0902,0.2541 0.13935,0.57377 0.0574,0.31148 0.082,0.60657 0.0328,0.29508 0.041,0.54099 0.008,0.2459 0,0.36066 l -0.008,0.21312 q 0.0246,-0.10656 0.082,-0.33607 0.0656,-0.22951 0.15574,-0.5164 0.0902,-0.29509 0.18853,-0.59837 0.10656,-0.31148 0.22131,-0.56558 0.11476,-0.2541 0.22951,-0.41804 0.11476,-0.17213 0.22132,-0.18033 0.13934,-0.008 0.26229,0.16394 0.13115,0.17213 0.22952,0.45082 0.10655,0.2705 0.18852,0.60657 0.082,0.33607 0.13935,0.65574 0.0656,0.31148 0.0984,0.56558 0.0328,0.2541 0.0492,0.36066 0.008,-0.13115 0.041,-0.40984 0.0328,-0.28689 0.0902,-0.63115 0.0574,-0.35247 0.13935,-0.71313 0.0902,-0.36885 0.20492,-0.67213 0.11475,-0.30329 0.26229,-0.49181 0.14755,-0.19673 0.32788,-0.19673 0.20492,0 0.32787,0.13935 0.12295,0.13115 0.18033,0.32787 0.0574,0.18853 0.0738,0.40165 0.0164,0.20492 0.0164,0.34426 z"
         style="-inkscape-font-specification:Chewy;fill:#ffffff"
         id="path5543" />
      <path
         d="m 132.26405,116.82192 q 0,0.13934 -0.008,0.41803 0,0.2705 -0.0246,0.57378 -0.0164,0.29509 -0.0492,0.56558 -0.0328,0.2623 -0.082,0.38525 -0.0656,0.15574 -0.17214,0.2705 -0.10656,0.11475 -0.28689,0.11475 -0.27869,0 -0.40164,-0.22131 -0.12295,-0.22131 -0.16394,-0.54919 -0.041,-0.32787 -0.0328,-0.71312 0.008,-0.38525 -0.008,-0.71312 -0.0164,-0.32788 -0.0902,-0.54919 -0.0738,-0.22131 -0.27049,-0.22131 -0.27049,0 -0.41804,0.0902 -0.13934,0.082 -0.20492,0.22131 -0.0574,0.13935 -0.0738,0.31968 -0.008,0.18033 -0.0246,0.37705 -0.0164,0.18853 -0.0246,0.50821 -0.008,0.31967 -0.0738,0.63115 -0.0656,0.31148 -0.22132,0.54099 -0.14754,0.22132 -0.44262,0.22132 -0.18033,0 -0.29509,-0.13935 -0.10656,-0.13935 -0.17213,-0.36066 -0.0656,-0.22131 -0.0984,-0.49181 -0.0246,-0.27049 -0.0328,-0.5246 0,-0.26229 0,-0.47541 0.008,-0.21312 0.008,-0.31968 0,-0.16393 0.008,-0.54099 0.0164,-0.37705 0.0574,-0.83607 0.041,-0.46722 0.10656,-0.95903 0.0656,-0.49181 0.17213,-0.89345 0.10656,-0.40984 0.2541,-0.66394 0.15574,-0.25411 0.36066,-0.24591 0.13115,0.008 0.22132,0.11476 0.0984,0.10655 0.15574,0.27869 0.0656,0.16393 0.10656,0.36066 0.041,0.19672 0.0574,0.39345 0.0246,0.18852 0.0246,0.35246 0.008,0.16393 0.008,0.2541 0,0.21312 -0.008,0.42623 -0.008,0.21312 -0.0246,0.42624 0.18853,-0.2541 0.50001,-0.41804 0.31967,-0.16394 0.63935,-0.16394 0.40984,0 0.61476,0.22952 0.21312,0.22131 0.30328,0.55738 0.0902,0.32787 0.0984,0.70493 0.008,0.36885 0.008,0.66394 z"
         style="-inkscape-font-specification:Chewy;fill:#ffffff"
         id="path5545" />
      <path
         d="m 136.28049,117.48586 q 0,0.27869 -0.18033,0.54919 -0.17213,0.26229 -0.44263,0.47541 -0.26229,0.20492 -0.56558,0.33607 -0.30328,0.12295 -0.55738,0.12295 -0.43443,0 -0.7787,-0.21311 -0.33607,-0.22132 -0.56558,-0.55739 -0.22951,-0.33607 -0.35246,-0.73771 -0.11476,-0.40984 -0.11476,-0.79509 0,-0.40984 0.11476,-0.87706 0.11476,-0.46722 0.34427,-0.86067 0.2377,-0.39344 0.59017,-0.65574 0.36066,-0.2623 0.85247,-0.2623 0.27869,0 0.53279,0.0984 0.2541,0.0902 0.44263,0.2623 0.18852,0.17213 0.30328,0.40984 0.11475,0.23771 0.11475,0.53279 0,0.38525 -0.16393,0.72132 -0.16394,0.33607 -0.43443,0.58198 -0.2705,0.2459 -0.62296,0.40164 -0.35246,0.14754 -0.72132,0.16394 0.0328,0.2377 0.18853,0.34426 0.16393,0.10656 0.38525,0.10656 0.16393,0 0.31967,-0.082 0.15574,-0.082 0.30328,-0.18033 0.14755,-0.10655 0.28689,-0.18852 0.14755,-0.082 0.29509,-0.082 0.16393,0 0.29508,0.10656 0.13115,0.10656 0.13115,0.27869 z m -1.32788,-2.00822 q 0,-0.10656 -0.0574,-0.22131 -0.0574,-0.11476 -0.18033,-0.11476 -0.18033,0 -0.30328,0.0984 -0.12295,0.0902 -0.20492,0.23771 -0.082,0.13935 -0.13115,0.30328 -0.041,0.16394 -0.0492,0.30328 0.11475,-0.0246 0.27049,-0.0656 0.16394,-0.041 0.30329,-0.10656 0.14754,-0.0738 0.2459,-0.18033 0.10656,-0.10656 0.10656,-0.2541 z"
         style="-inkscape-font-specification:Chewy;fill:#ffffff"
         id="path5547" />
      <path
         d="m 139.45266,115.87928 q -0.11475,0.008 -0.19672,-0.0164 -0.082,-0.0328 -0.16394,-0.0656 -0.0738,-0.0328 -0.14754,-0.0574 -0.0738,-0.0328 -0.16394,-0.0246 -0.16393,0.008 -0.29508,0.0902 -0.12296,0.082 -0.22951,0.20492 -0.0984,0.12295 -0.17214,0.27869 -0.0738,0.14755 -0.11475,0.29509 -0.0246,0.0984 -0.041,0.30328 -0.008,0.19673 -0.008,0.42624 -0.008,0.2377 -0.008,0.45082 0,0.21312 -0.0164,0.33607 -0.008,0.13115 -0.041,0.31148 -0.0328,0.17213 -0.10656,0.32787 -0.0656,0.15574 -0.18033,0.2623 -0.11475,0.10656 -0.29508,0.10656 -0.13935,0 -0.24591,-0.082 -0.0984,-0.082 -0.17213,-0.21312 -0.0656,-0.13934 -0.11476,-0.31967 -0.041,-0.18033 -0.0656,-0.36886 -0.0246,-0.19672 -0.041,-0.39345 -0.008,-0.19672 -0.0164,-0.36885 0,-0.18033 0,-0.32788 0.008,-0.14754 0.008,-0.2377 -0.008,-0.28689 -0.0328,-0.57378 -0.0164,-0.29509 -0.0164,-0.58197 0,-0.18033 0.0164,-0.40165 0.0164,-0.22131 0.0902,-0.40984 0.0738,-0.19672 0.21311,-0.32787 0.14755,-0.13115 0.40165,-0.13115 0.13934,0 0.23771,0.0902 0.0984,0.0902 0.15574,0.22132 0.0656,0.13115 0.0984,0.27869 0.0328,0.14754 0.041,0.27049 0.19672,-0.31967 0.44263,-0.51639 0.2459,-0.20492 0.63935,-0.22132 0.19672,-0.008 0.38525,0.041 0.19672,0.041 0.35246,0.14754 0.16394,0.0984 0.2623,0.2623 0.10656,0.16393 0.11476,0.38525 0.0164,0.26229 -0.15574,0.40164 -0.17213,0.13935 -0.41804,0.14754 z"
         style="-inkscape-font-specification:Chewy;fill:#ffffff"
         id="path5549" />
      <path
         d="m 143.58386,117.48586 q 0,0.27869 -0.18033,0.54919 -0.17214,0.26229 -0.44263,0.47541 -0.2623,0.20492 -0.56558,0.33607 -0.30328,0.12295 -0.55738,0.12295 -0.43444,0 -0.7787,-0.21311 -0.33607,-0.22132 -0.56558,-0.55739 -0.22951,-0.33607 -0.35247,-0.73771 -0.11475,-0.40984 -0.11475,-0.79509 0,-0.40984 0.11475,-0.87706 0.11476,-0.46722 0.34427,-0.86067 0.23771,-0.39344 0.59017,-0.65574 0.36066,-0.2623 0.85247,-0.2623 0.27869,0 0.53279,0.0984 0.25411,0.0902 0.44263,0.2623 0.18853,0.17213 0.30328,0.40984 0.11476,0.23771 0.11476,0.53279 0,0.38525 -0.16394,0.72132 -0.16393,0.33607 -0.43443,0.58198 -0.27049,0.2459 -0.62296,0.40164 -0.35246,0.14754 -0.72132,0.16394 0.0328,0.2377 0.18853,0.34426 0.16394,0.10656 0.38525,0.10656 0.16394,0 0.31968,-0.082 0.15574,-0.082 0.30328,-0.18033 0.14754,-0.10655 0.28689,-0.18852 0.14754,-0.082 0.29508,-0.082 0.16394,0 0.29509,0.10656 0.13115,0.10656 0.13115,0.27869 z m -1.32789,-2.00822 q 0,-0.10656 -0.0574,-0.22131 -0.0574,-0.11476 -0.18033,-0.11476 -0.18033,0 -0.30329,0.0984 -0.12295,0.0902 -0.20492,0.23771 -0.082,0.13935 -0.13115,0.30328 -0.041,0.16394 -0.0492,0.30328 0.11476,-0.0246 0.2705,-0.0656 0.16393,-0.041 0.30328,-0.10656 0.14754,-0.0738 0.2459,-0.18033 0.10656,-0.10656 0.10656,-0.2541 z"
         style="-inkscape-font-specification:Chewy;fill:#ffffff"
         id="path5551" />
      <path
         d="m 148.72326,113.37925 q 0,0.15574 -0.0738,0.2787 -0.0656,0.12295 -0.18033,0.21311 -0.11476,0.082 -0.2541,0.13935 -0.13935,0.0574 -0.2705,0.082 -0.0164,0.92624 -0.0738,1.7869 -0.0492,0.86067 -0.16394,1.77871 h 0.0492 q 0.13114,0 0.2541,0.0328 0.13115,0.0246 0.22951,0.0984 0.10656,0.0656 0.16393,0.17213 0.0656,0.0984 0.0656,0.24591 0,0.18853 -0.12295,0.32787 -0.11476,0.13935 -0.31148,0.23771 -0.18853,0.0984 -0.42624,0.16394 -0.2377,0.0656 -0.47541,0.0984 -0.23771,0.041 -0.45083,0.0574 -0.21311,0.0164 -0.34426,0.0164 -0.0984,0 -0.24591,-0.008 -0.13934,-0.008 -0.27049,-0.0492 -0.12296,-0.041 -0.21312,-0.12295 -0.0902,-0.082 -0.0902,-0.22131 0,-0.17214 0.0738,-0.30329 0.0656,-0.13934 0.18033,-0.2459 0.11475,-0.10656 0.2541,-0.17213 0.14754,-0.0656 0.29508,-0.0984 0.0574,-0.45082 0.10656,-0.89345 0.0492,-0.45082 0.0656,-0.90985 0.0164,-0.46721 0.0328,-0.91804 0.0164,-0.45902 0.0328,-0.91804 -0.0574,0.008 -0.10656,0.0164 -0.0492,0 -0.0902,0 -0.11476,0 -0.24591,-0.0246 -0.13115,-0.0246 -0.2459,-0.082 -0.11476,-0.0656 -0.19673,-0.15574 -0.0738,-0.0902 -0.0738,-0.22951 0,-0.27869 0.22951,-0.45902 0.23771,-0.18033 0.55739,-0.27869 0.32787,-0.0984 0.66394,-0.13115 0.33607,-0.041 0.54099,-0.041 0.11475,0 0.30328,0.0164 0.18853,0.0164 0.36886,0.0738 0.18853,0.0574 0.31967,0.15574 0.13935,0.0984 0.13935,0.27049 z"
         style="-inkscape-font-specification:Chewy;fill:#ffffff"
         id="path5553" />
      <path
         d="m 124.85003,127.15306 q 0,0.36066 -0.082,0.79509 -0.0738,0.42623 -0.26229,0.79509 -0.18033,0.36886 -0.48362,0.61476 -0.29508,0.24591 -0.74591,0.24591 -0.11475,0 -0.2377,-0.0164 -0.12296,-0.0164 -0.23771,-0.0574 -0.10656,-0.041 -0.19673,-0.10655 -0.0902,-0.0738 -0.13934,-0.18853 l -0.0738,1.18034 q -0.008,0.18853 -0.0164,0.45082 0,0.2623 -0.0656,0.50001 -0.0574,0.23771 -0.20492,0.40164 -0.13935,0.17214 -0.40984,0.17214 -0.15574,0 -0.2623,-0.16394 -0.10656,-0.15574 -0.17213,-0.40164 -0.0574,-0.24591 -0.0902,-0.54919 -0.0328,-0.30328 -0.041,-0.58197 -0.008,-0.27869 -0.008,-0.50821 0,-0.22951 0,-0.33607 0,-0.54918 -0.008,-1.09017 -0.008,-0.54919 -0.008,-1.09838 0,-0.0984 0,-0.30328 0,-0.21311 0.0164,-0.45902 0.0164,-0.2459 0.0492,-0.5082 0.041,-0.2623 0.11476,-0.47542 0.0738,-0.22131 0.18852,-0.35246 0.11476,-0.13935 0.27869,-0.13935 0.10656,0 0.18853,0.0656 0.0902,0.0574 0.14754,0.15574 0.0656,0.0902 0.10656,0.19672 0.041,0.10656 0.0656,0.19672 0.2541,-0.28688 0.58197,-0.43443 0.33607,-0.14754 0.71312,-0.14754 0.39345,0 0.63936,0.22131 0.2541,0.22132 0.39344,0.54919 0.14755,0.32787 0.20492,0.70493 0.0574,0.36885 0.0574,0.67214 z m -1.17214,-0.0656 q 0,-0.12295 -0.0246,-0.2459 -0.0164,-0.13115 -0.0738,-0.23771 -0.0492,-0.11476 -0.14755,-0.18033 -0.0984,-0.0738 -0.2459,-0.0738 -0.19673,0 -0.41804,0.13115 -0.21312,0.12295 -0.31968,0.28689 -0.041,0.0656 -0.0492,0.21311 -0.008,0.14755 -0.008,0.22132 0,0.0574 0,0.15574 0.008,0.0902 0.0164,0.18852 0.008,0.0984 0.0164,0.18853 0.0164,0.0902 0.041,0.13935 0.0246,0.0738 0.10656,0.13934 0.082,0.0574 0.18033,0.10656 0.0984,0.0492 0.19672,0.0738 0.10656,0.0246 0.18033,0.0246 0.17213,0 0.27869,-0.13115 0.10656,-0.13115 0.16394,-0.31148 0.0656,-0.18032 0.082,-0.36885 0.0246,-0.19673 0.0246,-0.31968 z"
         style="-inkscape-font-specification:Chewy;fill:#ffffff"
         id="path5555" />
      <path
         d="m 126.70251,123.87433 q 0,0.11476 -0.0656,0.20492 -0.0574,0.0902 -0.15574,0.16394 -0.0984,0.0656 -0.21312,0.10656 -0.11475,0.0328 -0.21312,0.0328 -0.16393,0 -0.28688,-0.082 -0.12296,-0.082 -0.12296,-0.2541 0,-0.12295 0.0574,-0.21311 0.0656,-0.0984 0.15574,-0.15574 0.0902,-0.0656 0.20492,-0.0984 0.11476,-0.0328 0.22131,-0.0328 0.15574,0 0.28689,0.0738 0.13115,0.0738 0.13115,0.2541 z m 0.0656,2.78692 q 0,0.11475 0,0.2459 0,0.12295 -0.008,0.23771 -0.008,0.13935 -0.008,0.37705 0,0.22951 -0.0164,0.50001 -0.0164,0.27049 -0.0574,0.54919 -0.0328,0.27869 -0.11475,0.5082 -0.082,0.22951 -0.22132,0.37705 -0.13115,0.13935 -0.33607,0.14755 -0.15574,0.008 -0.2623,-0.12296 -0.10655,-0.13115 -0.18033,-0.33607 -0.0656,-0.21311 -0.0984,-0.46722 -0.0328,-0.26229 -0.0492,-0.5 -0.0164,-0.24591 -0.0164,-0.45083 0,-0.20492 0,-0.30328 0,-0.13115 0,-0.36885 0,-0.24591 0.0164,-0.5246 0.0164,-0.27869 0.0574,-0.56558 0.0492,-0.28689 0.13115,-0.5246 0.0902,-0.23771 0.22951,-0.38525 0.13935,-0.14754 0.35246,-0.14754 0.22132,0 0.33607,0.22131 0.11476,0.22132 0.17214,0.5164 0.0574,0.29509 0.0656,0.59017 0.008,0.28689 0.008,0.42624 z"
         style="-inkscape-font-specification:Chewy;fill:#ffffff"
         id="path5557" />
      <path
         d="m 130.39108,126.44813 q 0,0.041 -0.008,0.0902 -0.008,0.041 -0.0246,0.082 -0.0738,0.18853 -0.22951,0.31968 -0.15574,0.12295 -0.36885,0.12295 -0.31968,0 -0.43444,-0.31967 -0.0164,-0.041 -0.0164,-0.0902 0,-0.0574 -0.008,-0.11475 v -0.23771 q -0.0164,-0.11476 -0.0574,-0.18033 -0.041,-0.0656 -0.13935,-0.0656 -0.13935,0 -0.2705,0.18033 -0.12295,0.17214 -0.22131,0.41804 -0.0902,0.23771 -0.14754,0.49181 -0.0574,0.2541 -0.0574,0.40984 0,0.12295 0.0164,0.30328 0.0164,0.17214 0.0656,0.33607 0.0492,0.16394 0.13115,0.28689 0.0902,0.11476 0.22951,0.11476 0.13934,0 0.2541,-0.082 0.12295,-0.0902 0.23771,-0.20492 0.10656,-0.0984 0.22951,-0.20492 0.13115,-0.10656 0.29508,-0.10656 0.20492,0 0.31968,0.14754 0.12295,0.14754 0.12295,0.33607 0,0.27869 -0.14754,0.5246 -0.14754,0.23771 -0.36886,0.41804 -0.22131,0.17213 -0.49181,0.27049 -0.27049,0.10656 -0.5164,0.10656 -0.44262,0 -0.7541,-0.22132 -0.30329,-0.22131 -0.49181,-0.55738 -0.18853,-0.34427 -0.2705,-0.74591 -0.082,-0.40164 -0.082,-0.7623 0,-0.41804 0.11476,-0.90165 0.11476,-0.49181 0.35246,-0.90985 0.23771,-0.41804 0.60657,-0.69673 0.37705,-0.27869 0.89345,-0.27869 0.31968,0 0.54919,0.13935 0.23771,0.13934 0.38525,0.36885 0.15574,0.22132 0.22951,0.50001 0.082,0.27869 0.082,0.54918 0,0.041 0,0.082 0,0.041 -0.008,0.082 z"
         style="-inkscape-font-specification:Chewy;fill:#ffffff"
         id="path5559" />
      <path
         d="m 134.48949,125.18582 q 0,0.22951 -0.12295,0.46722 -0.11476,0.23771 -0.28689,0.47541 -0.16394,0.22952 -0.35247,0.44263 -0.18033,0.20492 -0.31967,0.37706 0.11475,0.18033 0.28689,0.48361 0.17213,0.29508 0.32787,0.63115 0.15574,0.33607 0.2623,0.65575 0.11475,0.31967 0.11475,0.53279 0,0.17214 -0.10656,0.31968 -0.10655,0.13934 -0.29508,0.13934 -0.13935,0 -0.28689,-0.11475 -0.13934,-0.12295 -0.28689,-0.31148 -0.13934,-0.19672 -0.27049,-0.43443 -0.13115,-0.23771 -0.24591,-0.46722 -0.10656,-0.22951 -0.19672,-0.42624 -0.082,-0.20492 -0.13115,-0.32787 -0.10656,0.10656 -0.22951,0.18033 -0.11476,0.0656 -0.22951,0.15574 0,0.17213 -0.0164,0.48361 -0.008,0.31148 -0.0738,0.61477 -0.0574,0.30328 -0.19672,0.53279 -0.13935,0.22131 -0.40984,0.22131 -0.21312,0 -0.32787,-0.19672 -0.11476,-0.18853 -0.17214,-0.44263 -0.0492,-0.2623 -0.0574,-0.5246 -0.008,-0.27049 -0.008,-0.40984 0,-0.60656 0.0328,-1.21313 0.0328,-0.60656 0.041,-1.21312 0,-0.13935 0,-0.36066 0.008,-0.22952 0.0328,-0.49181 0.0246,-0.2623 0.0738,-0.5328 0.0492,-0.27049 0.13934,-0.48361 0.0902,-0.22131 0.22952,-0.35246 0.14754,-0.13935 0.35246,-0.13935 0.14754,0 0.2459,0.11476 0.10656,0.10656 0.16394,0.27869 0.0656,0.17213 0.0902,0.38525 0.0328,0.21312 0.041,0.42623 0.0164,0.20493 0.0164,0.38526 0,0.18032 0,0.28688 0,0.0738 -0.008,0.22132 0,0.13934 -0.008,0.29508 0,0.15574 0,0.28689 0,0.13115 0.0164,0.18853 0.0574,0 0.17214,-0.10656 0.11475,-0.11476 0.26229,-0.28689 0.15574,-0.17213 0.32788,-0.36066 0.18033,-0.19672 0.36066,-0.36886 0.18852,-0.17213 0.36885,-0.27869 0.18033,-0.11475 0.33607,-0.11475 0.16394,0 0.2541,0.11475 0.0902,0.11476 0.0902,0.2623 z"
         style="-inkscape-font-specification:Chewy;fill:#ffffff"
         id="path5561" />
      <path
         d="m 138.16986,128.13667 q 0,0.2787 -0.18033,0.54919 -0.17213,0.2623 -0.44263,0.47542 -0.2623,0.20492 -0.56558,0.33607 -0.30328,0.12295 -0.55738,0.12295 -0.43443,0 -0.7787,-0.21312 -0.33607,-0.22131 -0.56558,-0.55738 -0.22951,-0.33607 -0.35246,-0.73772 -0.11476,-0.40984 -0.11476,-0.79509 0,-0.40984 0.11476,-0.87706 0.11475,-0.46721 0.34426,-0.86066 0.23771,-0.39345 0.59017,-0.65575 0.36066,-0.2623 0.85247,-0.2623 0.27869,0 0.5328,0.0984 0.2541,0.0902 0.44262,0.26229 0.18853,0.17214 0.30329,0.40985 0.11475,0.2377 0.11475,0.53279 0,0.38525 -0.16394,0.72132 -0.16393,0.33607 -0.43443,0.58197 -0.27049,0.24591 -0.62295,0.40165 -0.35247,0.14754 -0.72132,0.16393 0.0328,0.23771 0.18852,0.34427 0.16394,0.10656 0.38525,0.10656 0.16394,0 0.31968,-0.082 0.15574,-0.082 0.30328,-0.18033 0.14754,-0.10656 0.28689,-0.18853 0.14754,-0.082 0.29508,-0.082 0.16394,0 0.29509,0.10656 0.13115,0.10656 0.13115,0.27869 z m -1.32789,-2.00822 q 0,-0.10655 -0.0574,-0.22131 -0.0574,-0.11475 -0.18033,-0.11475 -0.18033,0 -0.30328,0.0984 -0.12296,0.0902 -0.20493,0.2377 -0.082,0.13935 -0.13114,0.30329 -0.041,0.16393 -0.0492,0.30328 0.11476,-0.0246 0.2705,-0.0656 0.16394,-0.041 0.30328,-0.10655 0.14754,-0.0738 0.24591,-0.18033 0.10655,-0.10656 0.10655,-0.25411 z"
         style="-inkscape-font-specification:Chewy;fill:#ffffff"
         id="path5563" />
      <path
         d="m 142.03056,124.2022 q 0,0.59837 -0.0492,1.18854 -0.041,0.59017 -0.041,1.18854 0,0.48361 0.0246,0.95903 0.0328,0.47541 0.0328,0.95902 0,0.13115 -0.008,0.31968 -0.008,0.18033 -0.0574,0.35246 -0.041,0.17214 -0.14754,0.29509 -0.0984,0.12295 -0.28689,0.12295 -0.24591,0 -0.40984,-0.18033 -0.15574,-0.18853 -0.19673,-0.41804 -0.15574,0.29509 -0.45082,0.50001 -0.29509,0.20492 -0.63935,0.20492 -0.36886,0 -0.63936,-0.2541 -0.26229,-0.2541 -0.44262,-0.61476 -0.17214,-0.36066 -0.2623,-0.75411 -0.082,-0.39345 -0.082,-0.68034 0,-0.20492 0.0246,-0.46721 0.0246,-0.2623 0.082,-0.5328 0.0656,-0.27049 0.16393,-0.52459 0.0984,-0.2623 0.24591,-0.46722 0.15574,-0.20492 0.36066,-0.32787 0.21312,-0.12296 0.48361,-0.12296 0.29509,0 0.56558,0.17214 0.2705,0.17213 0.40984,0.42623 l 0.0738,-1.30329 q 0.008,-0.15574 0.0246,-0.36066 0.0164,-0.21312 0.0656,-0.40165 0.0574,-0.18852 0.17213,-0.31967 0.11476,-0.13115 0.33607,-0.13115 0.23771,0 0.36886,0.11475 0.13115,0.11476 0.18852,0.29509 0.0656,0.17213 0.0738,0.37705 0.0164,0.20492 0.0164,0.38525 z m -1.33608,3.63939 q 0,-0.18853 -0.008,-0.36886 -0.008,-0.18033 0,-0.36885 -0.0492,-0.10656 -0.11475,-0.22951 -0.0656,-0.13115 -0.16394,-0.23771 -0.0902,-0.11476 -0.20492,-0.18853 -0.11476,-0.0738 -0.2459,-0.0738 -0.14755,0 -0.23771,0.0902 -0.0902,0.0902 -0.13115,0.22132 -0.041,0.12295 -0.0574,0.27049 -0.008,0.14755 -0.008,0.2541 0,0.0984 0.0164,0.29509 0.0164,0.18853 0.0574,0.38525 0.0492,0.19672 0.13114,0.34427 0.082,0.14754 0.22132,0.14754 0.10656,0 0.21312,-0.041 0.10655,-0.0492 0.19672,-0.11476 0.0984,-0.0738 0.18033,-0.15574 0.0902,-0.0902 0.15574,-0.16394 z"
         style="-inkscape-font-specification:Chewy;fill:#ffffff"
         id="path5565" />
      <path
         d="m 148.13719,127.25142 q 0,0.45082 -0.0902,0.89345 -0.0902,0.44263 -0.30328,0.79509 -0.21312,0.34427 -0.57378,0.55739 -0.35246,0.21311 -0.88525,0.21311 -0.5246,0 -0.87706,-0.20492 -0.35247,-0.21311 -0.56558,-0.55738 -0.20492,-0.34427 -0.29509,-0.7787 -0.082,-0.43443 -0.082,-0.88525 0,-0.49181 0.11476,-0.97543 0.0246,-0.13114 0.0902,-0.36066 0.0738,-0.2377 0.18033,-0.45902 0.11476,-0.22951 0.2541,-0.39344 0.14755,-0.16394 0.31968,-0.16394 0.16394,0 0.2623,0.0902 0.0984,0.0902 0.15574,0.22952 0.0574,0.13114 0.0738,0.28688 0.0164,0.14755 0.0164,0.2705 0,0.18853 -0.0328,0.36886 -0.0246,0.18033 -0.0574,0.36066 -0.0328,0.2459 -0.0656,0.4918 -0.0246,0.24591 -0.0246,0.49181 0,0.12296 0.008,0.2787 0.0164,0.14754 0.0656,0.28688 0.0492,0.13935 0.13935,0.23771 0.0902,0.0902 0.2541,0.0902 0.21312,0 0.33607,-0.11476 0.13115,-0.11475 0.18853,-0.28689 0.0656,-0.17213 0.082,-0.36885 0.0164,-0.19673 0.0164,-0.36066 0,-0.36066 -0.0492,-0.70493 -0.0492,-0.35246 -0.0902,-0.71312 -0.008,-0.041 -0.008,-0.11476 0,-0.12295 0.041,-0.2459 0.041,-0.12296 0.11476,-0.22132 0.0738,-0.0984 0.18033,-0.15574 0.10656,-0.0656 0.2377,-0.0656 0.18033,0 0.31968,0.13115 0.13935,0.12295 0.22951,0.32787 0.0984,0.19672 0.15574,0.45083 0.0656,0.2459 0.0984,0.4918 0.041,0.23771 0.0492,0.45083 0.0164,0.21312 0.0164,0.33607 z"
         style="-inkscape-font-specification:Chewy;fill:#ffffff"
         id="path5567" />
      <path
         d="m 152.39134,127.15306 q 0,0.36066 -0.082,0.79509 -0.0738,0.42623 -0.2623,0.79509 -0.18033,0.36886 -0.48361,0.61476 -0.29509,0.24591 -0.74591,0.24591 -0.11476,0 -0.23771,-0.0164 -0.12295,-0.0164 -0.23771,-0.0574 -0.10656,-0.041 -0.19672,-0.10655 -0.0902,-0.0738 -0.13935,-0.18853 l -0.0738,1.18034 q -0.008,0.18853 -0.0164,0.45082 0,0.2623 -0.0656,0.50001 -0.0574,0.23771 -0.20492,0.40164 -0.13934,0.17214 -0.40984,0.17214 -0.15574,0 -0.2623,-0.16394 -0.10656,-0.15574 -0.17213,-0.40164 -0.0574,-0.24591 -0.0902,-0.54919 -0.0328,-0.30328 -0.041,-0.58197 -0.008,-0.27869 -0.008,-0.50821 0,-0.22951 0,-0.33607 0,-0.54918 -0.008,-1.09017 -0.008,-0.54919 -0.008,-1.09838 0,-0.0984 0,-0.30328 0,-0.21311 0.0164,-0.45902 0.0164,-0.2459 0.0492,-0.5082 0.041,-0.2623 0.11476,-0.47542 0.0738,-0.22131 0.18853,-0.35246 0.11475,-0.13935 0.27869,-0.13935 0.10656,0 0.18853,0.0656 0.0902,0.0574 0.14754,0.15574 0.0656,0.0902 0.10656,0.19672 0.041,0.10656 0.0656,0.19672 0.2541,-0.28688 0.58198,-0.43443 0.33606,-0.14754 0.71312,-0.14754 0.39345,0 0.63935,0.22131 0.2541,0.22132 0.39345,0.54919 0.14754,0.32787 0.20492,0.70493 0.0574,0.36885 0.0574,0.67214 z m -1.17215,-0.0656 q 0,-0.12295 -0.0246,-0.2459 -0.0164,-0.13115 -0.0738,-0.23771 -0.0492,-0.11476 -0.14754,-0.18033 -0.0984,-0.0738 -0.24591,-0.0738 -0.19672,0 -0.41804,0.13115 -0.21311,0.12295 -0.31967,0.28689 -0.041,0.0656 -0.0492,0.21311 -0.008,0.14755 -0.008,0.22132 0,0.0574 0,0.15574 0.008,0.0902 0.0164,0.18852 0.008,0.0984 0.0164,0.18853 0.0164,0.0902 0.041,0.13935 0.0246,0.0738 0.10656,0.13934 0.082,0.0574 0.18033,0.10656 0.0984,0.0492 0.19672,0.0738 0.10656,0.0246 0.18033,0.0246 0.17214,0 0.2787,-0.13115 0.10655,-0.13115 0.16393,-0.31148 0.0656,-0.18032 0.082,-0.36885 0.0246,-0.19673 0.0246,-0.31968 z"
         style="-inkscape-font-specification:Chewy;fill:#ffffff"
         id="path5569" />
      <path
         d="m 123.62051,140.47603 q -0.13935,0 -0.22131,-0.13114 -0.082,-0.12296 -0.12296,-0.28689 -0.041,-0.16394 -0.0574,-0.32788 -0.008,-0.17213 -0.008,-0.26229 0,-0.24591 0.0246,-0.49181 0.0328,-0.24591 0.0656,-0.49181 0.041,-0.24591 0.0656,-0.49181 0.0328,-0.24591 0.0328,-0.49181 0,-0.0984 -0.008,-0.21312 -0.008,-0.11475 -0.041,-0.21311 -0.0246,-0.10656 -0.0902,-0.17214 -0.0656,-0.0656 -0.17213,-0.0656 -0.0738,0 -0.16394,0.12295 -0.0902,0.11476 -0.17213,0.2705 -0.0738,0.14754 -0.13115,0.30328 -0.0492,0.14754 -0.0492,0.22131 0,0.18033 0,0.36886 0.008,0.18033 0.008,0.36885 v 0.47542 q -0.008,0.14754 -0.0246,0.30328 -0.0164,0.15574 -0.0492,0.30328 -0.0246,0.14755 -0.0738,0.28689 -0.0492,0.13115 -0.13115,0.23771 -0.0738,0.0984 -0.18033,0.16394 -0.10656,0.0656 -0.2541,0.0656 -0.16394,0 -0.27049,-0.10656 -0.10656,-0.10656 -0.17214,-0.27049 -0.0656,-0.17213 -0.0984,-0.37706 -0.0246,-0.21311 -0.041,-0.40984 -0.008,-0.20492 -0.008,-0.36885 0.008,-0.17214 0.008,-0.2705 v -0.38525 q 0,-0.31148 -0.0164,-0.61476 -0.008,-0.30328 -0.008,-0.60656 0,-0.16394 0,-0.41804 0.008,-0.2541 0.0656,-0.49181 0.0574,-0.24591 0.18853,-0.41804 0.13115,-0.17213 0.38525,-0.17213 0.11475,0 0.20492,0.0738 0.0902,0.0738 0.15574,0.18033 0.0738,0.10656 0.11475,0.22951 0.0492,0.12295 0.0738,0.21312 0.082,-0.11476 0.18853,-0.22132 0.11476,-0.10655 0.2541,-0.18852 0.13935,-0.082 0.31148,-0.13115 0.17213,-0.0492 0.39345,-0.0492 0.41804,0 0.64755,0.20492 0.2377,0.19672 0.34426,0.5 0.11476,0.29509 0.13935,0.63936 0.0246,0.34426 0.0246,0.62295 0,0.13935 -0.0246,0.41804 -0.0246,0.2705 -0.082,0.60657 -0.0492,0.32787 -0.13934,0.68033 -0.0902,0.34427 -0.21312,0.63116 -0.12295,0.28688 -0.29509,0.46721 -0.16393,0.18033 -0.37705,0.18033 z"
         style="-inkscape-font-specification:Chewy;fill:#ffffff"
         id="path5571" />
      <path
         d="m 128.8009,137.90223 q 0,0.45083 -0.0902,0.89346 -0.0902,0.44263 -0.30328,0.79509 -0.21312,0.34426 -0.57378,0.55738 -0.35246,0.21312 -0.88525,0.21312 -0.5246,0 -0.87706,-0.20492 -0.35247,-0.21312 -0.56558,-0.55738 -0.20492,-0.34427 -0.29509,-0.7787 -0.082,-0.43443 -0.082,-0.88526 0,-0.49181 0.11476,-0.97542 0.0246,-0.13115 0.0902,-0.36066 0.0738,-0.23771 0.18033,-0.45902 0.11476,-0.22951 0.25411,-0.39345 0.14754,-0.16393 0.31967,-0.16393 0.16394,0 0.2623,0.0902 0.0984,0.0902 0.15574,0.22951 0.0574,0.13115 0.0738,0.28689 0.0164,0.14754 0.0164,0.27049 0,0.18853 -0.0328,0.36886 -0.0246,0.18033 -0.0574,0.36066 -0.0328,0.24591 -0.0656,0.49181 -0.0246,0.2459 -0.0246,0.49181 0,0.12295 0.008,0.27869 0.0164,0.14754 0.0656,0.28689 0.0492,0.13935 0.13934,0.23771 0.0902,0.0902 0.2541,0.0902 0.21312,0 0.33607,-0.11475 0.13115,-0.11476 0.18853,-0.28689 0.0656,-0.17214 0.082,-0.36886 0.0164,-0.19672 0.0164,-0.36066 0,-0.36066 -0.0492,-0.70492 -0.0492,-0.35247 -0.0902,-0.71313 -0.008,-0.041 -0.008,-0.11475 0,-0.12296 0.041,-0.24591 0.041,-0.12295 0.11476,-0.22131 0.0738,-0.0984 0.18033,-0.15574 0.10656,-0.0656 0.2377,-0.0656 0.18033,0 0.31968,0.13115 0.13935,0.12296 0.22951,0.32788 0.0984,0.19672 0.15574,0.45082 0.0656,0.24591 0.0984,0.49181 0.041,0.23771 0.0492,0.45082 0.0164,0.21312 0.0164,0.33607 z"
         style="-inkscape-font-specification:Chewy;fill:#ffffff"
         id="path5573" />
      <path
         d="m 134.27637,137.54157 q 0,0.15574 0,0.42624 0,0.2623 -0.0164,0.57378 -0.008,0.31147 -0.0492,0.63115 -0.041,0.31148 -0.13115,0.56558 -0.082,0.2541 -0.21312,0.41804 -0.13115,0.16394 -0.33607,0.16394 -0.18033,0 -0.27869,-0.14755 -0.0902,-0.15574 -0.13115,-0.36066 -0.041,-0.20492 -0.0492,-0.41804 0,-0.21311 0,-0.33606 0,-0.36886 0.0246,-0.72132 0.0246,-0.35247 0.0246,-0.72132 0,-0.041 0,-0.14755 0,-0.10656 -0.0164,-0.21311 -0.0164,-0.10656 -0.0574,-0.18853 -0.0328,-0.082 -0.10656,-0.082 -0.14754,0 -0.23771,0.15574 -0.0902,0.14754 -0.14754,0.35246 -0.0574,0.20492 -0.082,0.40984 -0.0246,0.19673 -0.0328,0.29509 -0.0164,0.10656 -0.0328,0.31968 -0.008,0.21311 -0.0328,0.46721 -0.0164,0.25411 -0.0656,0.5246 -0.041,0.2623 -0.11475,0.48361 -0.0656,0.21312 -0.17213,0.35247 -0.10656,0.13934 -0.2623,0.13934 -0.19673,0 -0.30328,-0.17213 -0.10656,-0.17213 -0.15574,-0.40165 -0.0492,-0.22951 -0.0656,-0.46721 -0.008,-0.23771 -0.008,-0.36886 0,-0.13935 0,-0.2705 0.008,-0.13115 0.008,-0.27049 0,-0.0574 0,-0.18853 0,-0.13115 -0.008,-0.28689 0,-0.16393 -0.0164,-0.33607 -0.008,-0.17213 -0.0328,-0.31147 -0.0246,-0.14755 -0.0738,-0.23771 -0.0492,-0.0902 -0.11475,-0.0902 -0.10656,0 -0.19673,0.13935 -0.0902,0.13115 -0.15574,0.31967 -0.0656,0.18033 -0.10655,0.36066 -0.0328,0.18033 -0.0328,0.2623 v 0.0492 q 0,0.39345 0.0492,0.7705 0.0492,0.37706 0.0492,0.7705 0,0.22952 -0.14754,0.42624 -0.14755,0.18853 -0.40984,0.18853 -0.18853,0 -0.31148,-0.13935 -0.12295,-0.14754 -0.20492,-0.37705 -0.082,-0.22951 -0.13115,-0.50001 -0.041,-0.27869 -0.0574,-0.54099 -0.0164,-0.27049 -0.0246,-0.48361 0,-0.22132 0,-0.32787 0,-0.12296 -0.008,-0.36066 0,-0.23771 0.008,-0.5164 0.0164,-0.2787 0.0492,-0.56558 0.0328,-0.29509 0.10656,-0.5328 0.0738,-0.2377 0.18853,-0.38525 0.12295,-0.15574 0.31148,-0.15574 0.21311,0 0.34426,0.11476 0.13935,0.11475 0.13935,0.34426 0,0.0492 -0.008,0.0984 0,0.0492 -0.008,0.0902 0.0902,-0.13115 0.22132,-0.2623 0.13115,-0.13934 0.27869,-0.2459 0.15574,-0.11476 0.32787,-0.18033 0.17214,-0.0738 0.34427,-0.0738 0.16393,0 0.29508,0.0902 0.13115,0.0902 0.22951,0.22951 0.0984,0.13115 0.16394,0.28689 0.0656,0.15574 0.0902,0.29509 0.082,-0.14755 0.19672,-0.29509 0.12295,-0.15574 0.2623,-0.27049 0.13934,-0.11476 0.30328,-0.18853 0.17213,-0.0738 0.35246,-0.0738 0.17214,0 0.29509,0.12295 0.12295,0.12295 0.21312,0.31968 0.0902,0.18852 0.13934,0.43443 0.0492,0.23771 0.082,0.47541 0.0328,0.22951 0.041,0.43444 0.008,0.19672 0.008,0.31147 z"
         style="-inkscape-font-specification:Chewy;fill:#ffffff"
         id="path5575" />
      <path
         d="m 138.25183,138.78749 q 0,0.27869 -0.18033,0.54919 -0.17214,0.2623 -0.44263,0.47541 -0.2623,0.20492 -0.56558,0.33607 -0.30328,0.12295 -0.55739,0.12295 -0.43443,0 -0.77869,-0.21311 -0.33607,-0.22132 -0.56558,-0.55739 -0.22951,-0.33607 -0.35247,-0.73771 -0.11475,-0.40984 -0.11475,-0.79509 0,-0.40984 0.11475,-0.87706 0.11476,-0.46722 0.34427,-0.86067 0.23771,-0.39344 0.59017,-0.65574 0.36066,-0.2623 0.85247,-0.2623 0.27869,0 0.53279,0.0984 0.2541,0.0902 0.44263,0.2623 0.18853,0.17213 0.30328,0.40984 0.11476,0.23771 0.11476,0.53279 0,0.38525 -0.16394,0.72132 -0.16393,0.33607 -0.43443,0.58198 -0.27049,0.2459 -0.62296,0.40164 -0.35246,0.14754 -0.72132,0.16394 0.0328,0.23771 0.18853,0.34426 0.16394,0.10656 0.38525,0.10656 0.16394,0 0.31968,-0.082 0.15574,-0.082 0.30328,-0.18033 0.14754,-0.10655 0.28689,-0.18852 0.14754,-0.082 0.29508,-0.082 0.16394,0 0.29509,0.10656 0.13115,0.10656 0.13115,0.27869 z m -1.32789,-2.00822 q 0,-0.10656 -0.0574,-0.22131 -0.0574,-0.11476 -0.18033,-0.11476 -0.18033,0 -0.30328,0.0984 -0.12295,0.0902 -0.20492,0.23771 -0.082,0.13935 -0.13115,0.30328 -0.041,0.16394 -0.0492,0.30328 0.11476,-0.0246 0.2705,-0.0656 0.16393,-0.041 0.30328,-0.10656 0.14754,-0.0738 0.2459,-0.18033 0.10656,-0.10656 0.10656,-0.2541 z"
         style="-inkscape-font-specification:Chewy;fill:#ffffff"
         id="path5577" />
      <path
         d="m 141.424,137.18091 q -0.11476,0.008 -0.19673,-0.0164 -0.082,-0.0328 -0.16393,-0.0656 -0.0738,-0.0328 -0.14755,-0.0574 -0.0738,-0.0328 -0.16393,-0.0246 -0.16394,0.008 -0.29509,0.0902 -0.12295,0.082 -0.22951,0.20492 -0.0984,0.12296 -0.17213,0.2787 -0.0738,0.14754 -0.11476,0.29508 -0.0246,0.0984 -0.041,0.30328 -0.008,0.19673 -0.008,0.42624 -0.008,0.2377 -0.008,0.45082 0,0.21312 -0.0164,0.33607 -0.008,0.13115 -0.041,0.31148 -0.0328,0.17213 -0.10656,0.32787 -0.0656,0.15574 -0.18033,0.2623 -0.11476,0.10656 -0.29509,0.10656 -0.13934,0 -0.2459,-0.082 -0.0984,-0.082 -0.17214,-0.21312 -0.0656,-0.13934 -0.11475,-0.31967 -0.041,-0.18033 -0.0656,-0.36886 -0.0246,-0.19672 -0.041,-0.39345 -0.008,-0.19672 -0.0164,-0.36885 0,-0.18033 0,-0.32787 0.008,-0.14755 0.008,-0.23771 -0.008,-0.28689 -0.0328,-0.57378 -0.0164,-0.29508 -0.0164,-0.58197 0,-0.18033 0.0164,-0.40165 0.0164,-0.22131 0.0902,-0.40984 0.0738,-0.19672 0.21312,-0.32787 0.14754,-0.13115 0.40164,-0.13115 0.13935,0 0.23771,0.0902 0.0984,0.0902 0.15574,0.22132 0.0656,0.13115 0.0984,0.27869 0.0328,0.14754 0.041,0.2705 0.19672,-0.31968 0.44262,-0.5164 0.24591,-0.20492 0.63936,-0.22132 0.19672,-0.008 0.38525,0.041 0.19672,0.041 0.35246,0.14754 0.16394,0.0984 0.2623,0.2623 0.10656,0.16393 0.11475,0.38525 0.0164,0.2623 -0.15574,0.40164 -0.17213,0.13935 -0.41803,0.14754 z"
         style="-inkscape-font-specification:Chewy;fill:#ffffff"
         id="path5579" />
      <path
         d="m 143.67812,140.48423 q -0.41804,0 -0.72952,-0.22131 -0.31148,-0.22132 -0.52459,-0.56558 -0.21312,-0.34427 -0.31968,-0.76231 -0.10656,-0.42623 -0.10656,-0.83607 0,-0.43443 0.10656,-0.89346 0.10656,-0.46721 0.32787,-0.84427 0.22132,-0.38525 0.56558,-0.62296 0.34427,-0.2459 0.81968,-0.2459 0.45903,0 0.7787,0.2541 0.32787,0.24591 0.5246,0.62296 0.19672,0.36886 0.27869,0.81148 0.082,0.44263 0.0574,0.83608 -0.0246,0.43443 -0.13935,0.87706 -0.10656,0.44263 -0.31967,0.79509 -0.21312,0.35246 -0.54099,0.57378 -0.32788,0.22131 -0.7787,0.22131 z m 0.082,-3.70496 q -0.12296,0 -0.22132,0.13115 -0.0902,0.13115 -0.15574,0.31968 -0.0574,0.18852 -0.0902,0.40164 -0.0328,0.20492 -0.0328,0.36066 0,0.19672 0.0328,0.42623 0.041,0.22951 0.10656,0.42624 0.0656,0.18852 0.15574,0.31967 0.0984,0.12296 0.22131,0.12296 0.13115,0 0.22131,-0.12296 0.0984,-0.12295 0.15574,-0.31148 0.0574,-0.18852 0.082,-0.40984 0.0246,-0.22951 0.0246,-0.42623 0,-0.18033 -0.0328,-0.39345 -0.0328,-0.22131 -0.0984,-0.40984 -0.0574,-0.18853 -0.15574,-0.31148 -0.0902,-0.12295 -0.21311,-0.12295 z"
         style="-inkscape-font-specification:Chewy;fill:#ffffff"
         id="path5581" />
      <path
         d="m 149.46507,137.90223 q 0,0.45083 -0.0902,0.89346 -0.0902,0.44263 -0.30329,0.79509 -0.21311,0.34426 -0.57377,0.55738 -0.35247,0.21312 -0.88526,0.21312 -0.52459,0 -0.87706,-0.20492 -0.35246,-0.21312 -0.56558,-0.55738 -0.20492,-0.34427 -0.29508,-0.7787 -0.082,-0.43443 -0.082,-0.88526 0,-0.49181 0.11475,-0.97542 0.0246,-0.13115 0.0902,-0.36066 0.0738,-0.23771 0.18033,-0.45902 0.11475,-0.22951 0.2541,-0.39345 0.14754,-0.16393 0.31968,-0.16393 0.16393,0 0.26229,0.0902 0.0984,0.0902 0.15574,0.22951 0.0574,0.13115 0.0738,0.28689 0.0164,0.14754 0.0164,0.27049 0,0.18853 -0.0328,0.36886 -0.0246,0.18033 -0.0574,0.36066 -0.0328,0.24591 -0.0656,0.49181 -0.0246,0.2459 -0.0246,0.49181 0,0.12295 0.008,0.27869 0.0164,0.14754 0.0656,0.28689 0.0492,0.13935 0.13935,0.23771 0.0902,0.0902 0.2541,0.0902 0.21311,0 0.33607,-0.11475 0.13115,-0.11476 0.18852,-0.28689 0.0656,-0.17214 0.082,-0.36886 0.0164,-0.19672 0.0164,-0.36066 0,-0.36066 -0.0492,-0.70492 -0.0492,-0.35247 -0.0902,-0.71313 -0.008,-0.041 -0.008,-0.11475 0,-0.12296 0.041,-0.24591 0.041,-0.12295 0.11475,-0.22131 0.0738,-0.0984 0.18033,-0.15574 0.10656,-0.0656 0.23771,-0.0656 0.18033,0 0.31968,0.13115 0.13934,0.12296 0.22951,0.32788 0.0984,0.19672 0.15574,0.45082 0.0656,0.24591 0.0984,0.49181 0.041,0.23771 0.0492,0.45082 0.0164,0.21312 0.0164,0.33607 z"
         style="-inkscape-font-specification:Chewy;fill:#ffffff"
         id="path5583" />
      <path
         d="m 152.36675,135.73827 q 0,0.23771 -0.16394,0.35247 -0.15574,0.11475 -0.35246,0.22131 -0.19673,0.0984 -0.36066,0.23771 -0.15574,0.13935 -0.15574,0.41804 0,0.14754 0.0656,0.2541 0.0738,0.10656 0.17213,0.19672 0.10656,0.082 0.22951,0.17214 0.12296,0.0902 0.22132,0.20492 0.10656,0.11475 0.17213,0.27869 0.0738,0.16393 0.0738,0.40164 0,0.34427 -0.18033,0.68034 -0.17213,0.32787 -0.45082,0.59017 -0.2705,0.2541 -0.61476,0.40984 -0.34427,0.15574 -0.68034,0.15574 -0.13934,0 -0.27869,-0.0246 -0.13935,-0.0164 -0.2541,-0.0738 -0.10656,-0.0574 -0.18033,-0.15574 -0.0738,-0.10656 -0.0738,-0.2705 0,-0.22951 0.0902,-0.35246 0.0902,-0.13115 0.22951,-0.20492 0.13935,-0.0738 0.29509,-0.11476 0.16393,-0.041 0.30328,-0.0984 0.13935,-0.0656 0.22951,-0.16394 0.0902,-0.0984 0.0902,-0.27869 0,-0.17213 -0.13935,-0.35246 -0.13115,-0.18853 -0.29508,-0.39345 -0.16394,-0.21311 -0.30329,-0.45082 -0.13115,-0.23771 -0.13115,-0.5246 0,-0.35246 0.13935,-0.64755 0.14754,-0.30328 0.38525,-0.52459 0.2459,-0.22132 0.55738,-0.34427 0.31148,-0.13115 0.65575,-0.13115 0.13115,0 0.2541,0.0246 0.13115,0.0246 0.22951,0.0902 0.0984,0.0574 0.15574,0.16393 0.0656,0.0984 0.0656,0.2541 z"
         style="-inkscape-font-specification:Chewy;fill:#ffffff"
         id="path5585" />
      <path
         d="m 120.11227,145.17596 q 0,0.11476 -0.0656,0.20492 -0.0574,0.0902 -0.15574,0.16394 -0.0984,0.0656 -0.21312,0.10656 -0.11476,0.0328 -0.21312,0.0328 -0.16393,0 -0.28689,-0.082 -0.12295,-0.082 -0.12295,-0.25411 0,-0.12295 0.0574,-0.21311 0.0656,-0.0984 0.15574,-0.15574 0.0902,-0.0656 0.20492,-0.0984 0.11476,-0.0328 0.22131,-0.0328 0.15574,0 0.28689,0.0738 0.13115,0.0738 0.13115,0.2541 z m 0.0656,2.78692 q 0,0.11475 0,0.2459 0,0.12296 -0.008,0.23771 -0.008,0.13935 -0.008,0.37705 0,0.22952 -0.0164,0.50001 -0.0164,0.2705 -0.0574,0.54919 -0.0328,0.27869 -0.11475,0.5082 -0.082,0.22951 -0.22132,0.37705 -0.13115,0.13935 -0.33607,0.14755 -0.15574,0.008 -0.2623,-0.12296 -0.10655,-0.13115 -0.18033,-0.33607 -0.0656,-0.21311 -0.0984,-0.46721 -0.0328,-0.2623 -0.0492,-0.50001 -0.0164,-0.2459 -0.0164,-0.45083 0,-0.20492 0,-0.30328 0,-0.13115 0,-0.36885 0,-0.24591 0.0164,-0.5246 0.0164,-0.27869 0.0574,-0.56558 0.0492,-0.28689 0.13115,-0.5246 0.0902,-0.2377 0.22951,-0.38525 0.13934,-0.14754 0.35246,-0.14754 0.22132,0 0.33607,0.22131 0.11476,0.22132 0.17213,0.5164 0.0574,0.29509 0.0656,0.59017 0.008,0.28689 0.008,0.42624 z"
         style="-inkscape-font-specification:Chewy;fill:#ffffff"
         id="path5587" />
      <path
         d="m 123.08772,151.12685 q -0.13935,0 -0.22132,-0.13115 -0.082,-0.12295 -0.12295,-0.28689 -0.041,-0.16393 -0.0574,-0.32787 -0.008,-0.17213 -0.008,-0.2623 0,-0.2459 0.0246,-0.49181 0.0328,-0.2459 0.0656,-0.49181 0.041,-0.2459 0.0656,-0.49181 0.0328,-0.2459 0.0328,-0.4918 0,-0.0984 -0.008,-0.21312 -0.008,-0.11476 -0.041,-0.21312 -0.0246,-0.10656 -0.0902,-0.17213 -0.0656,-0.0656 -0.17214,-0.0656 -0.0738,0 -0.16393,0.12296 -0.0902,0.11475 -0.17214,0.27049 -0.0738,0.14754 -0.13115,0.30328 -0.0492,0.14755 -0.0492,0.22132 0,0.18033 0,0.36885 0.008,0.18033 0.008,0.36886 v 0.47542 q -0.008,0.14754 -0.0246,0.30328 -0.0164,0.15574 -0.0492,0.30328 -0.0246,0.14754 -0.0738,0.28689 -0.0492,0.13115 -0.13115,0.23771 -0.0738,0.0984 -0.18033,0.16393 -0.10656,0.0656 -0.2541,0.0656 -0.16394,0 -0.2705,-0.10656 -0.10656,-0.10656 -0.17213,-0.2705 -0.0656,-0.17213 -0.0984,-0.37705 -0.0246,-0.21312 -0.041,-0.40984 -0.008,-0.20492 -0.008,-0.36886 0.008,-0.17213 0.008,-0.27049 v -0.38525 q 0,-0.31148 -0.0164,-0.61476 -0.008,-0.30329 -0.008,-0.60657 0,-0.16393 0,-0.41804 0.008,-0.2541 0.0656,-0.49181 0.0574,-0.2459 0.18852,-0.41803 0.13115,-0.17214 0.38525,-0.17214 0.11476,0 0.20492,0.0738 0.0902,0.0738 0.15574,0.18033 0.0738,0.10655 0.11476,0.22951 0.0492,0.12295 0.0738,0.21311 0.082,-0.11475 0.18853,-0.22131 0.11475,-0.10656 0.2541,-0.18853 0.13935,-0.082 0.31148,-0.13115 0.17213,-0.0492 0.39345,-0.0492 0.41803,0 0.64754,0.20492 0.23771,0.19673 0.34427,0.50001 0.11476,0.29508 0.13935,0.63935 0.0246,0.34427 0.0246,0.62296 0,0.13934 -0.0246,0.41804 -0.0246,0.27049 -0.082,0.60656 -0.0492,0.32787 -0.13935,0.68034 -0.0902,0.34426 -0.21311,0.63115 -0.12296,0.28689 -0.29509,0.46722 -0.16394,0.18033 -0.37705,0.18033 z"
         style="-inkscape-font-specification:Chewy;fill:#ffffff"
         id="path5589" />
      <path
         d="m 128.21073,147.96288 q -0.21312,0.56558 -0.46722,1.18034 -0.2541,0.61476 -0.54919,1.14755 -0.18033,0.32788 -0.40164,0.54919 -0.22132,0.21312 -0.50821,0.21312 -0.22951,0 -0.45082,-0.22951 -0.21312,-0.23771 -0.40164,-0.55739 -0.18033,-0.32787 -0.31968,-0.65574 -0.13115,-0.33607 -0.19672,-0.53279 -0.0656,-0.22132 -0.14755,-0.47542 -0.082,-0.2541 -0.14754,-0.5164 -0.0656,-0.2623 -0.10656,-0.5164 -0.041,-0.2623 -0.041,-0.49181 0,-0.31967 0.11475,-0.52459 0.11476,-0.20492 0.45083,-0.20492 0.13115,0 0.23771,0.082 0.10655,0.0738 0.19672,0.21312 0.0902,0.13935 0.17213,0.32787 0.082,0.18033 0.15574,0.40165 0.0738,0.21312 0.13935,0.44263 0.0656,0.22951 0.13115,0.44262 0.0656,0.21312 0.13115,0.41804 0.0738,0.19673 0.18852,0.39345 0.0574,-0.14754 0.13115,-0.33607 0.0738,-0.18853 0.15574,-0.40164 0.0902,-0.21312 0.18853,-0.43444 0.0984,-0.22951 0.21312,-0.44262 0.22131,-0.44263 0.46721,-0.75411 0.25411,-0.31148 0.50001,-0.31148 0.22951,0 0.32787,0.13935 0.0984,0.13934 0.0984,0.36066 0,0.22131 -0.0738,0.5 -0.0738,0.27869 -0.18852,0.57378 z"
         style="-inkscape-font-specification:Chewy;fill:#ffffff"
         id="path5591" />
      <path
         d="m 132.24356,149.74159 q 0,0.14754 -0.0164,0.38525 -0.008,0.23771 -0.0656,0.46722 -0.0574,0.22131 -0.18033,0.38525 -0.12295,0.16393 -0.34426,0.16393 -0.30329,0 -0.46722,-0.19672 -0.16394,-0.19672 -0.15574,-0.49181 -0.2623,0.22951 -0.59837,0.36066 -0.32787,0.13115 -0.67214,0.13115 -0.23771,0 -0.45082,-0.11476 -0.21312,-0.11475 -0.37706,-0.29508 -0.16393,-0.18033 -0.2623,-0.40164 -0.0984,-0.22952 -0.0984,-0.45083 0,-0.39345 0.23771,-0.68853 0.2459,-0.29509 0.59837,-0.50001 0.35246,-0.21312 0.74591,-0.33607 0.40164,-0.12295 0.71312,-0.16393 0,-0.041 0,-0.0738 0.008,-0.0328 0.008,-0.0738 0,-0.2541 -0.13935,-0.40984 -0.13934,-0.15574 -0.39344,-0.15574 -0.20493,0 -0.35247,0.0738 -0.14754,0.0656 -0.27869,0.15574 -0.13115,0.082 -0.2623,0.15574 -0.13115,0.0656 -0.29508,0.0656 -0.18033,0 -0.31148,-0.11476 -0.12295,-0.11475 -0.12295,-0.29508 0,-0.2705 0.15573,-0.49181 0.16394,-0.22132 0.40165,-0.36886 0.2459,-0.15574 0.5246,-0.23771 0.28688,-0.0902 0.52459,-0.0902 0.22132,0 0.44263,0.0574 0.22131,0.0492 0.41804,0.16393 0.19672,0.10656 0.35246,0.2705 0.16394,0.15574 0.2623,0.36885 0.14754,0.30329 0.23771,0.64755 0.0902,0.33607 0.13934,0.69673 0.0492,0.35247 0.0656,0.71313 0.0164,0.35246 0.0164,0.68853 z m -1.31149,-0.2623 -0.0246,-0.55738 q -0.0164,0 -0.0328,0 -0.0164,-0.008 -0.0328,-0.008 -0.10655,0 -0.27049,0.0574 -0.15574,0.0492 -0.30328,0.14754 -0.14755,0.0902 -0.2541,0.20492 -0.0984,0.11476 -0.0984,0.23771 0,0.11475 0.082,0.15574 0.082,0.041 0.18853,0.041 0.18033,0 0.38525,-0.0902 0.20492,-0.0984 0.36066,-0.18853 z"
         style="-inkscape-font-specification:Chewy;fill:#ffffff"
         id="path5593" />
      <path
         d="m 134.26817,145.93007 q 0,0.44263 -0.041,0.89345 -0.0328,0.44263 -0.0328,0.89345 0,0.58198 0.0328,1.16395 0.041,0.58198 0.041,1.17215 0,0.14754 -0.0164,0.33607 -0.0164,0.18033 -0.082,0.33607 -0.0574,0.15574 -0.18033,0.26229 -0.12295,0.10656 -0.32787,0.10656 -0.19672,0 -0.34427,-0.19672 -0.13934,-0.18853 -0.2377,-0.48361 -0.0902,-0.30329 -0.15574,-0.67214 -0.0574,-0.36886 -0.0902,-0.71313 -0.0246,-0.35246 -0.041,-0.63935 -0.008,-0.29508 -0.008,-0.43443 0,-0.15574 0.008,-0.45082 0.0164,-0.29509 0.0574,-0.63935 0.041,-0.34427 0.10656,-0.69673 0.0738,-0.36066 0.18853,-0.64755 0.11476,-0.29509 0.2705,-0.47542 0.16393,-0.18852 0.38525,-0.18852 0.18033,0 0.27049,0.12295 0.0984,0.11475 0.13935,0.28689 0.041,0.16393 0.0492,0.35246 0.008,0.18033 0.008,0.31148 z"
         style="-inkscape-font-specification:Chewy;fill:#ffffff"
         id="path5595" />
      <path
         d="m 138.48134,148.55305 q 0,0.45082 -0.0902,0.89345 -0.0902,0.44263 -0.30328,0.79509 -0.21312,0.34427 -0.57378,0.55739 -0.35246,0.21311 -0.88525,0.21311 -0.5246,0 -0.87706,-0.20492 -0.35246,-0.21311 -0.56558,-0.55738 -0.20492,-0.34427 -0.29509,-0.7787 -0.082,-0.43443 -0.082,-0.88525 0,-0.49181 0.11476,-0.97542 0.0246,-0.13115 0.0902,-0.36066 0.0738,-0.23771 0.18033,-0.45903 0.11475,-0.22951 0.2541,-0.39344 0.14754,-0.16394 0.31967,-0.16394 0.16394,0 0.2623,0.0902 0.0984,0.0902 0.15574,0.22951 0.0574,0.13115 0.0738,0.28688 0.0164,0.14755 0.0164,0.2705 0,0.18853 -0.0328,0.36886 -0.0246,0.18033 -0.0574,0.36066 -0.0328,0.2459 -0.0656,0.49181 -0.0246,0.2459 -0.0246,0.4918 0,0.12296 0.008,0.2787 0.0164,0.14754 0.0656,0.28688 0.0492,0.13935 0.13934,0.23771 0.0902,0.0902 0.2541,0.0902 0.21312,0 0.33607,-0.11476 0.13115,-0.11475 0.18853,-0.28689 0.0656,-0.17213 0.082,-0.36885 0.0164,-0.19673 0.0164,-0.36066 0,-0.36066 -0.0492,-0.70493 -0.0492,-0.35246 -0.0902,-0.71312 -0.008,-0.041 -0.008,-0.11476 0,-0.12295 0.041,-0.2459 0.041,-0.12295 0.11476,-0.22132 0.0738,-0.0984 0.18033,-0.15574 0.10656,-0.0656 0.23771,-0.0656 0.18033,0 0.31967,0.13115 0.13935,0.12295 0.22951,0.32787 0.0984,0.19672 0.15574,0.45083 0.0656,0.2459 0.0984,0.49181 0.041,0.2377 0.0492,0.45082 0.0164,0.21312 0.0164,0.33607 z"
         style="-inkscape-font-specification:Chewy;fill:#ffffff"
         id="path5597" />
      <path
         d="m 142.46499,149.74159 q 0,0.14754 -0.0164,0.38525 -0.008,0.23771 -0.0656,0.46722 -0.0574,0.22131 -0.18033,0.38525 -0.12295,0.16393 -0.34426,0.16393 -0.30329,0 -0.46722,-0.19672 -0.16394,-0.19672 -0.15574,-0.49181 -0.2623,0.22951 -0.59837,0.36066 -0.32787,0.13115 -0.67214,0.13115 -0.23771,0 -0.45082,-0.11476 -0.21312,-0.11475 -0.37706,-0.29508 -0.16393,-0.18033 -0.2623,-0.40164 -0.0984,-0.22952 -0.0984,-0.45083 0,-0.39345 0.23771,-0.68853 0.2459,-0.29509 0.59837,-0.50001 0.35246,-0.21312 0.74591,-0.33607 0.40164,-0.12295 0.71312,-0.16393 0,-0.041 0,-0.0738 0.008,-0.0328 0.008,-0.0738 0,-0.2541 -0.13935,-0.40984 -0.13934,-0.15574 -0.39345,-0.15574 -0.20492,0 -0.35246,0.0738 -0.14754,0.0656 -0.27869,0.15574 -0.13115,0.082 -0.2623,0.15574 -0.13115,0.0656 -0.29508,0.0656 -0.18033,0 -0.31148,-0.11476 -0.12295,-0.11475 -0.12295,-0.29508 0,-0.2705 0.15573,-0.49181 0.16394,-0.22132 0.40165,-0.36886 0.2459,-0.15574 0.5246,-0.23771 0.28688,-0.0902 0.52459,-0.0902 0.22132,0 0.44263,0.0574 0.22131,0.0492 0.41804,0.16393 0.19672,0.10656 0.35246,0.2705 0.16394,0.15574 0.2623,0.36885 0.14754,0.30329 0.23771,0.64755 0.0902,0.33607 0.13934,0.69673 0.0492,0.35247 0.0656,0.71313 0.0164,0.35246 0.0164,0.68853 z m -1.31149,-0.2623 -0.0246,-0.55738 q -0.0164,0 -0.0328,0 -0.0164,-0.008 -0.0328,-0.008 -0.10655,0 -0.27049,0.0574 -0.15574,0.0492 -0.30328,0.14754 -0.14755,0.0902 -0.2541,0.20492 -0.0984,0.11476 -0.0984,0.23771 0,0.11475 0.082,0.15574 0.082,0.041 0.18853,0.041 0.18033,0 0.38525,-0.0902 0.20492,-0.0984 0.36066,-0.18853 z"
         style="-inkscape-font-specification:Chewy;fill:#ffffff"
         id="path5599" />
      <path
         d="m 146.83389,148.19239 q 0,0.23771 -0.041,0.54099 -0.0328,0.29508 -0.11476,0.60656 -0.0738,0.31148 -0.20492,0.60657 -0.12295,0.29508 -0.31148,0.53279 -0.18033,0.22951 -0.42623,0.36886 -0.23771,0.13934 -0.55738,0.13934 -0.33607,0 -0.61476,-0.15574 -0.2705,-0.15573 -0.46722,-0.42623 -0.0246,0.22131 -0.18033,0.39345 -0.15574,0.16393 -0.39345,0.16393 -0.13935,0 -0.23771,-0.13934 -0.0902,-0.13935 -0.14754,-0.35247 -0.0574,-0.22131 -0.0902,-0.48361 -0.0246,-0.2623 -0.0328,-0.5082 -0.008,-0.2459 -0.008,-0.44263 0,-0.19672 0,-0.27869 0,-0.27869 0,-0.55738 0.008,-0.2787 0.0164,-0.56558 0,-0.13935 -0.008,-0.41804 0,-0.27869 0.008,-0.61476 0.008,-0.34427 0.0328,-0.69673 0.0328,-0.36066 0.10656,-0.65575 0.0738,-0.29508 0.20492,-0.48361 0.13115,-0.18853 0.33607,-0.19672 0.16394,0 0.27869,0.11475 0.11476,0.11476 0.18853,0.30328 0.082,0.18853 0.12295,0.42624 0.0492,0.22951 0.0656,0.46722 0.0246,0.22951 0.0246,0.44263 0.008,0.20492 0.008,0.33606 0,0.0246 -0.008,0.11476 0,0.082 0,0.18033 0,0.0984 0,0.18033 0,0.0738 0,0.082 0.0738,-0.15574 0.21311,-0.30328 0.13935,-0.14755 0.31148,-0.2623 0.17213,-0.11476 0.36066,-0.18853 0.18853,-0.0738 0.36066,-0.0738 0.34427,0 0.57378,0.18033 0.23771,0.17213 0.37705,0.44263 0.13935,0.27049 0.19673,0.59017 0.0574,0.31148 0.0574,0.59017 z m -1.20493,0.2459 q 0,-0.0984 -0.0164,-0.21311 -0.008,-0.11476 -0.0574,-0.21312 -0.041,-0.0984 -0.12295,-0.16394 -0.0738,-0.0656 -0.19673,-0.0656 -0.13114,0 -0.26229,0.0574 -0.12296,0.0574 -0.23771,0.14754 -0.11476,0.0902 -0.21312,0.19672 -0.0984,0.0984 -0.17213,0.19673 l -0.082,0.72951 q 0.13115,0.18853 0.31968,0.30329 0.18852,0.10655 0.42623,0.10655 0.18033,0 0.29509,-0.11475 0.12295,-0.11476 0.18852,-0.27869 0.0738,-0.17214 0.0984,-0.36066 0.0328,-0.18853 0.0328,-0.32788 z"
         style="-inkscape-font-specification:Chewy;fill:#ffffff"
         id="path5601" />
      <path
         d="m 148.8667,145.93007 q 0,0.44263 -0.041,0.89345 -0.0328,0.44263 -0.0328,0.89345 0,0.58198 0.0328,1.16395 0.041,0.58198 0.041,1.17215 0,0.14754 -0.0164,0.33607 -0.0164,0.18033 -0.082,0.33607 -0.0574,0.15574 -0.18033,0.26229 -0.12295,0.10656 -0.32787,0.10656 -0.19672,0 -0.34427,-0.19672 -0.13934,-0.18853 -0.2377,-0.48361 -0.0902,-0.30329 -0.15574,-0.67214 -0.0574,-0.36886 -0.0902,-0.71313 -0.0246,-0.35246 -0.041,-0.63935 -0.008,-0.29508 -0.008,-0.43443 0,-0.15574 0.008,-0.45082 0.0164,-0.29509 0.0574,-0.63935 0.041,-0.34427 0.10656,-0.69673 0.0738,-0.36066 0.18853,-0.64755 0.11476,-0.29509 0.27049,-0.47542 0.16394,-0.18852 0.38526,-0.18852 0.18033,0 0.27049,0.12295 0.0984,0.11475 0.13935,0.28689 0.041,0.16393 0.0492,0.35246 0.008,0.18033 0.008,0.31148 z"
         style="-inkscape-font-specification:Chewy;fill:#ffffff"
         id="path5603" />
      <path
         d="m 152.92413,149.43831 q 0,0.27869 -0.18033,0.54918 -0.17213,0.2623 -0.44263,0.47542 -0.2623,0.20492 -0.56558,0.33607 -0.30328,0.12295 -0.55738,0.12295 -0.43443,0 -0.7787,-0.21312 -0.33607,-0.22131 -0.56558,-0.55738 -0.22951,-0.33607 -0.35246,-0.73771 -0.11476,-0.40985 -0.11476,-0.7951 0,-0.40984 0.11476,-0.87706 0.11475,-0.46721 0.34426,-0.86066 0.23771,-0.39345 0.59017,-0.65575 0.36066,-0.26229 0.85247,-0.26229 0.27869,0 0.5328,0.0984 0.2541,0.0902 0.44262,0.2623 0.18853,0.17213 0.30329,0.40984 0.11475,0.2377 0.11475,0.53279 0,0.38525 -0.16394,0.72132 -0.16393,0.33607 -0.43443,0.58197 -0.27049,0.24591 -0.62295,0.40165 -0.35247,0.14754 -0.72132,0.16393 0.0328,0.23771 0.18852,0.34427 0.16394,0.10656 0.38525,0.10656 0.16394,0 0.31968,-0.082 0.15574,-0.082 0.30328,-0.18033 0.14754,-0.10656 0.28689,-0.18853 0.14754,-0.082 0.29508,-0.082 0.16394,0 0.29509,0.10655 0.13115,0.10656 0.13115,0.2787 z m -1.32789,-2.00822 q 0,-0.10656 -0.0574,-0.22132 -0.0574,-0.11475 -0.18033,-0.11475 -0.18033,0 -0.30329,0.0984 -0.12295,0.0902 -0.20492,0.23771 -0.082,0.13934 -0.13114,0.30328 -0.041,0.16393 -0.0492,0.30328 0.11476,-0.0246 0.2705,-0.0656 0.16394,-0.041 0.30328,-0.10656 0.14754,-0.0738 0.24591,-0.18033 0.10655,-0.10656 0.10655,-0.2541 z"
         style="-inkscape-font-specification:Chewy;fill:#ffffff"
         id="path5605" />
      <path
         d="m 131.54683,157.03991 q 0,0.2377 -0.16394,0.35246 -0.15573,0.11475 -0.35246,0.22131 -0.19672,0.0984 -0.36066,0.23771 -0.15574,0.13935 -0.15574,0.41804 0,0.14754 0.0656,0.2541 0.0738,0.10656 0.17213,0.19672 0.10656,0.082 0.22951,0.17214 0.12295,0.0902 0.22131,0.20492 0.10656,0.11475 0.17214,0.27869 0.0738,0.16393 0.0738,0.40164 0,0.34427 -0.18033,0.68034 -0.17213,0.32787 -0.45083,0.59017 -0.27049,0.2541 -0.61476,0.40984 -0.34426,0.15574 -0.68033,0.15574 -0.13935,0 -0.27869,-0.0246 -0.13935,-0.0164 -0.25411,-0.0738 -0.10655,-0.0574 -0.18033,-0.15574 -0.0738,-0.10656 -0.0738,-0.2705 0,-0.22951 0.0902,-0.35246 0.0902,-0.13115 0.22951,-0.20492 0.13934,-0.0738 0.29508,-0.11476 0.16394,-0.041 0.30329,-0.0984 0.13934,-0.0656 0.22951,-0.16393 0.0902,-0.0984 0.0902,-0.2787 0,-0.17213 -0.13934,-0.35246 -0.13115,-0.18853 -0.29509,-0.39345 -0.16394,-0.21311 -0.30328,-0.45082 -0.13115,-0.23771 -0.13115,-0.5246 0,-0.35246 0.13935,-0.64755 0.14754,-0.30328 0.38525,-0.52459 0.2459,-0.22132 0.55738,-0.34427 0.31148,-0.13115 0.65574,-0.13115 0.13115,0 0.25411,0.0246 0.13115,0.0246 0.22951,0.0902 0.0984,0.0574 0.15574,0.16393 0.0656,0.0984 0.0656,0.25411 z"
         style="-inkscape-font-specification:Chewy;fill:#ffffff"
         id="path5607" />
      <path
         d="m 135.51409,157.13827 q 0,0.22951 -0.12295,0.46722 -0.11476,0.2377 -0.28689,0.47541 -0.16394,0.22951 -0.35246,0.44263 -0.18033,0.20492 -0.31968,0.37705 0.11476,0.18033 0.28689,0.48362 0.17213,0.29508 0.32787,0.63115 0.15574,0.33607 0.2623,0.65575 0.11476,0.31967 0.11476,0.53279 0,0.17213 -0.10656,0.31967 -0.10656,0.13935 -0.29509,0.13935 -0.13934,0 -0.28689,-0.11476 -0.13934,-0.12295 -0.28689,-0.31147 -0.13934,-0.19673 -0.27049,-0.43444 -0.13115,-0.2377 -0.24591,-0.46721 -0.10655,-0.22952 -0.19672,-0.42624 -0.082,-0.20492 -0.13115,-0.32787 -0.10656,0.10656 -0.22951,0.18033 -0.11475,0.0656 -0.22951,0.15574 0,0.17213 -0.0164,0.48361 -0.008,0.31148 -0.0738,0.61476 -0.0574,0.30328 -0.19673,0.53279 -0.13934,0.22132 -0.40984,0.22132 -0.21312,0 -0.32787,-0.19672 -0.11476,-0.18853 -0.17214,-0.44263 -0.0492,-0.2623 -0.0574,-0.5246 -0.008,-0.27049 -0.008,-0.40984 0,-0.60656 0.0328,-1.21313 0.0328,-0.60656 0.041,-1.21313 0,-0.13934 0,-0.36066 0.008,-0.22951 0.0328,-0.49181 0.0246,-0.26229 0.0738,-0.53279 0.0492,-0.27049 0.13935,-0.48361 0.0902,-0.22132 0.22951,-0.35247 0.14754,-0.13934 0.35246,-0.13934 0.14754,0 0.2459,0.11475 0.10656,0.10656 0.16394,0.2787 0.0656,0.17213 0.0902,0.38525 0.0328,0.21311 0.041,0.42623 0.0164,0.20492 0.0164,0.38525 0,0.18033 0,0.28689 0,0.0738 -0.008,0.22131 0,0.13935 -0.008,0.29509 0,0.15574 0,0.28689 0,0.13115 0.0164,0.18852 0.0574,0 0.17214,-0.10655 0.11475,-0.11476 0.26229,-0.28689 0.15574,-0.17214 0.32788,-0.36066 0.18033,-0.19673 0.36066,-0.36886 0.18852,-0.17213 0.36885,-0.27869 0.18033,-0.11476 0.33607,-0.11476 0.16394,0 0.25411,0.11476 0.0902,0.11475 0.0902,0.2623 z"
         style="-inkscape-font-specification:Chewy;fill:#ffffff"
         id="path5609" />
      <path
         d="m 137.15345,155.82678 q 0,0.11475 -0.0656,0.20492 -0.0574,0.0902 -0.15574,0.16393 -0.0984,0.0656 -0.21312,0.10656 -0.11475,0.0328 -0.21312,0.0328 -0.16393,0 -0.28688,-0.082 -0.12296,-0.082 -0.12296,-0.2541 0,-0.12295 0.0574,-0.21312 0.0656,-0.0984 0.15574,-0.15574 0.0902,-0.0656 0.20492,-0.0984 0.11476,-0.0328 0.22132,-0.0328 0.15574,0 0.28688,0.0738 0.13115,0.0738 0.13115,0.2541 z m 0.0656,2.78691 q 0,0.11476 0,0.24591 0,0.12295 -0.008,0.23771 -0.008,0.13934 -0.008,0.37705 0,0.22951 -0.0164,0.50001 -0.0164,0.27049 -0.0574,0.54918 -0.0328,0.27869 -0.11475,0.50821 -0.082,0.22951 -0.22132,0.37705 -0.13115,0.13934 -0.33607,0.14754 -0.15574,0.008 -0.26229,-0.12295 -0.10656,-0.13115 -0.18033,-0.33607 -0.0656,-0.21312 -0.0984,-0.46722 -0.0328,-0.2623 -0.0492,-0.5 -0.0164,-0.24591 -0.0164,-0.45083 0,-0.20492 0,-0.30328 0,-0.13115 0,-0.36886 0,-0.2459 0.0164,-0.52459 0.0164,-0.2787 0.0574,-0.56559 0.0492,-0.28688 0.13115,-0.52459 0.0902,-0.23771 0.22951,-0.38525 0.13935,-0.14754 0.35246,-0.14754 0.22132,0 0.33607,0.22131 0.11476,0.22131 0.17214,0.5164 0.0574,0.29508 0.0656,0.59017 0.008,0.28689 0.008,0.42623 z"
         style="-inkscape-font-specification:Chewy;fill:#ffffff"
         id="path5611" />
      <path
         d="m 139.33381,156.58088 q 0,0.44263 -0.041,0.89346 -0.0328,0.44262 -0.0328,0.89345 0,0.58197 0.0328,1.16395 0.041,0.58197 0.041,1.17214 0,0.14755 -0.0164,0.33607 -0.0164,0.18033 -0.082,0.33607 -0.0574,0.15574 -0.18033,0.2623 -0.12295,0.10656 -0.32787,0.10656 -0.19672,0 -0.34426,-0.19673 -0.13935,-0.18852 -0.23771,-0.48361 -0.0902,-0.30328 -0.15574,-0.67214 -0.0574,-0.36885 -0.0902,-0.71312 -0.0246,-0.35246 -0.041,-0.63935 -0.008,-0.29509 -0.008,-0.43443 0,-0.15574 0.008,-0.45083 0.0164,-0.29508 0.0574,-0.63935 0.041,-0.34427 0.10656,-0.69673 0.0738,-0.36066 0.18852,-0.64755 0.11476,-0.29508 0.2705,-0.47541 0.16393,-0.18853 0.38525,-0.18853 0.18033,0 0.27049,0.12295 0.0984,0.11476 0.13935,0.28689 0.041,0.16394 0.0492,0.35246 0.008,0.18033 0.008,0.31148 z"
         style="-inkscape-font-specification:Chewy;fill:#ffffff"
         id="path5613" />
      <path
         d="m 141.48957,156.58088 q 0,0.44263 -0.041,0.89346 -0.0328,0.44262 -0.0328,0.89345 0,0.58197 0.0328,1.16395 0.041,0.58197 0.041,1.17214 0,0.14755 -0.0164,0.33607 -0.0164,0.18033 -0.082,0.33607 -0.0574,0.15574 -0.18033,0.2623 -0.12295,0.10656 -0.32787,0.10656 -0.19673,0 -0.34427,-0.19673 -0.13935,-0.18852 -0.23771,-0.48361 -0.0902,-0.30328 -0.15574,-0.67214 -0.0574,-0.36885 -0.0902,-0.71312 -0.0246,-0.35246 -0.041,-0.63935 -0.008,-0.29509 -0.008,-0.43443 0,-0.15574 0.008,-0.45083 0.0164,-0.29508 0.0574,-0.63935 0.041,-0.34427 0.10656,-0.69673 0.0738,-0.36066 0.18853,-0.64755 0.11475,-0.29508 0.27049,-0.47541 0.16394,-0.18853 0.38525,-0.18853 0.18033,0 0.2705,0.12295 0.0984,0.11476 0.13934,0.28689 0.041,0.16394 0.0492,0.35246 0.008,0.18033 0.008,0.31148 z"
         style="-inkscape-font-specification:Chewy;fill:#ffffff"
         id="path5615" />
      <path
         d="m 144.5142,157.03991 q 0,0.2377 -0.16394,0.35246 -0.15574,0.11475 -0.35246,0.22131 -0.19673,0.0984 -0.36066,0.23771 -0.15574,0.13935 -0.15574,0.41804 0,0.14754 0.0656,0.2541 0.0738,0.10656 0.17213,0.19672 0.10656,0.082 0.22951,0.17214 0.12296,0.0902 0.22132,0.20492 0.10656,0.11475 0.17213,0.27869 0.0738,0.16393 0.0738,0.40164 0,0.34427 -0.18033,0.68034 -0.17213,0.32787 -0.45082,0.59017 -0.2705,0.2541 -0.61476,0.40984 -0.34427,0.15574 -0.68034,0.15574 -0.13934,0 -0.27869,-0.0246 -0.13935,-0.0164 -0.2541,-0.0738 -0.10656,-0.0574 -0.18033,-0.15574 -0.0738,-0.10656 -0.0738,-0.2705 0,-0.22951 0.0902,-0.35246 0.0902,-0.13115 0.22951,-0.20492 0.13935,-0.0738 0.29509,-0.11476 0.16393,-0.041 0.30328,-0.0984 0.13935,-0.0656 0.22951,-0.16393 0.0902,-0.0984 0.0902,-0.2787 0,-0.17213 -0.13935,-0.35246 -0.13115,-0.18853 -0.29508,-0.39345 -0.16394,-0.21311 -0.30329,-0.45082 -0.13115,-0.23771 -0.13115,-0.5246 0,-0.35246 0.13935,-0.64755 0.14754,-0.30328 0.38525,-0.52459 0.2459,-0.22132 0.55738,-0.34427 0.31148,-0.13115 0.65575,-0.13115 0.13115,0 0.2541,0.0246 0.13115,0.0246 0.22951,0.0902 0.0984,0.0574 0.15574,0.16393 0.0656,0.0984 0.0656,0.25411 z"
         style="-inkscape-font-specification:Chewy;fill:#ffffff"
         id="path5617" />
    </g>
  </g>
</svg>
