<?xml version="1.0" encoding="UTF-8" standalone="no"?>
<!-- Created with Inkscape (http://www.inkscape.org/) -->

<svg
   width="518.93103"
   height="299.35519"
   viewBox="0 0 137.3005 79.204395"
   version="1.1"
   id="svg5"
   inkscape:version="1.2 (dc2aedaf03, 2022-05-15)"
   sodipodi:docname="Scene 1.svg"
   xml:space="preserve"
   xmlns:inkscape="http://www.inkscape.org/namespaces/inkscape"
   xmlns:sodipodi="http://sodipodi.sourceforge.net/DTD/sodipodi-0.dtd"
   xmlns="http://www.w3.org/2000/svg"
   xmlns:svg="http://www.w3.org/2000/svg"><sodipodi:namedview
     id="namedview7"
     pagecolor="#ffffff"
     bordercolor="#666666"
     borderopacity="1.0"
     inkscape:showpageshadow="2"
     inkscape:pageopacity="0.0"
     inkscape:pagecheckerboard="0"
     inkscape:deskcolor="#d1d1d1"
     inkscape:document-units="mm"
     showgrid="true"
     inkscape:zoom="1.0129245"
     inkscape:cx="-262.11233"
     inkscape:cy="487.20314"
     inkscape:window-width="1920"
     inkscape:window-height="991"
     inkscape:window-x="-9"
     inkscape:window-y="-9"
     inkscape:window-maximized="1"
     inkscape:current-layer="g1408"><inkscape:grid
       type="axonomgrid"
       id="grid1326"
       snapvisiblegridlinesonly="false"
       units="px"
       spacingy="2.6458333"
       originx="169.33333"
       originy="95.25" /></sodipodi:namedview><defs
     id="defs2" /><g
     inkscape:label="Layer 1"
     inkscape:groupmode="layer"
     id="layer1"
     transform="translate(178.30895,-33.62991)"><g
       id="g1408"><g
         id="g686"
         inkscape:export-filename="text-1.svg"
         inkscape:export-xdpi="96"
         inkscape:export-ydpi="96"><path
           d="m -171.67517,112.79531 q -0.30371,-0.197 -0.58579,-0.38201 -0.28209,-0.185 -0.54928,-0.35604 l -1.95495,-1.28965 q -0.21912,-0.1557 -0.39981,-0.2787 -0.18503,-0.12541 -0.36187,-0.23499 -0.17873,-0.11629 -0.35994,-0.22823 -0.18306,-0.11869 -0.4051,-0.25901 -0.0836,0.14031 -0.17251,0.30034 -0.0865,0.1557 -0.18258,0.3287 l -0.46366,0.83474 q -0.0265,0.0476 -0.0682,0.0414 -0.0437,-0.0129 -0.0741,-0.0297 l -0.0303,-0.0168 -0.98567,-1.17005 -0.0199,-0.005 q -0.0217,-0.012 -0.02,-0.0453 -3.3e-4,-0.0399 0.0461,-0.14417 0.29694,-0.61607 0.57656,-1.19082 0.27772,-0.58148 0.55448,-1.14086 0.27915,-0.56369 0.5559,-1.12307 0.27916,-0.56369 0.57945,-1.15526 0.0289,-0.0519 0.073,-0.10091 0.0467,-0.0534 0.12879,-0.008 0.009,0.004 0.0148,0.0142 0.006,0.009 0.0147,0.0141 0.13895,0.16768 0.26527,0.31715 0.12882,0.1451 0.25323,0.28785 0.1245,0.1427 0.25085,0.29216 0.12883,0.1451 0.26764,0.31284 0.002,0.007 0.0339,0.0412 0.0272,0.0323 0.0608,0.0844 0.0289,0.05 0.0434,0.11496 0.0142,0.065 -0.0168,0.13215 -0.0164,0.0192 -0.0284,0.0409 -0.0121,0.0216 -0.0265,0.0476 l -0.64144,1.15479 q 0.20856,0.14416 0.44307,0.30273 0.23693,0.15423 0.45606,0.30993 l 3.20249,2.19201 q 0.0364,0.0262 0.0683,0.0605 0.0341,0.0302 0.0245,0.0876 l -0.23873,1.46905 q -0.009,0.0571 -0.0264,0.14945 -0.0173,0.0922 -0.0582,0.16579 -0.0337,0.0605 -0.0904,0.0913 -0.0543,0.0265 -0.13649,-0.0192 z"
           style="font-size:15.5168px;line-height:1.25;font-family:'Carter One';-inkscape-font-specification:'Carter One';fill:#ffffff;stroke-width:0.172773"
           id="path600" /><path
           d="m -175.61571,104.74889 q -0.026,-0.0144 -0.0502,-0.0219 -0.0217,-0.012 -0.0433,-0.024 -0.0389,-0.0216 -0.0483,-0.0662 -0.0138,-0.047 0.0211,-0.18069 l 0.38531,-1.3763 q 0.0178,-0.0524 0.0307,-0.14705 0.013,-0.0947 0.0539,-0.16821 0.0841,-0.15137 0.2225,-0.0745 0.009,0.004 0.17017,0.11144 0.16151,0.10663 0.40031,0.26762 0.23884,0.16098 0.52287,0.35266 0.27968,0.18934 0.53343,0.3642 0.25373,0.17492 0.44502,0.30941 0.18697,0.13214 0.24029,0.17875 4.4e-4,-0.26574 0.0235,-0.54157 0.0231,-0.27585 0.072,-0.53726 0.0514,-0.26574 0.13501,-0.50795 0.0817,-0.24892 0.19697,-0.45652 0.14655,-0.26384 0.35173,-0.44982 0.20085,-0.18839 0.47188,-0.25856 0.26911,-0.0769 0.60741,-0.0135 0.33638,0.0567 0.74726,0.28491 0.10376,0.0577 0.21371,0.12469 0.10565,0.0646 0.2153,0.14223 l 1.66565,1.16855 q 0.16966,0.12252 0.36617,0.23739 0.1921,0.11267 0.39971,0.22798 0.0346,0.0192 0.0605,0.0337 0.0242,0.007 0.0414,0.0171 0.0389,0.0216 0.0414,0.0681 0.005,0.0423 -0.0231,0.17397 l -0.29447,1.22301 q -0.0134,0.0548 -0.0307,0.14704 -0.0129,0.0947 -0.0538,0.16819 -0.0408,0.0735 -0.0971,0.0932 -0.0519,0.0221 -0.14705,-0.0307 -0.30758,-0.21044 -0.49692,-0.33825 -0.18697,-0.13212 -0.29894,-0.20562 -0.11396,-0.0802 -0.16965,-0.12252 -0.06,-0.0448 -0.10534,-0.0755 -0.0494,-0.0334 -0.10522,-0.0754 -0.06,-0.0447 -0.17636,-0.1206 -0.11396,-0.0802 -0.30325,-0.20804 -0.18697,-0.13212 -0.49451,-0.34258 -0.16338,-0.1134 -0.32247,-0.22438 -0.16101,-0.11771 -0.3037,-0.19701 -0.18166,-0.1009 -0.34074,-0.16095 -0.16098,-0.0668 -0.29361,-0.0725 -0.13455,-0.0125 -0.24317,0.0403 -0.10858,0.0529 -0.18307,0.18695 -0.0552,0.0994 -0.1081,0.2965 -0.0504,0.1927 -0.0471,0.42096 0.006,0.22393 0.0957,0.4493 0.088,0.21862 0.31624,0.36806 0.31381,0.21958 0.51372,0.35893 0.20231,0.13502 0.33352,0.22485 0.13122,0.0898 0.20857,0.14417 0.0796,0.0503 0.14661,0.0927 0.0187,0.0169 0.10101,0.073 0.0774,0.0542 0.18696,0.13213 0.10954,0.0778 0.23643,0.16531 0.12253,0.085 0.23209,0.16291 0.11199,0.0735 0.19369,0.13021 0.0796,0.0502 0.10124,0.0623 0.0346,0.0192 0.0605,0.0337 0.0242,0.007 0.0458,0.0195 0.0346,0.0192 0.0414,0.0682 0.005,0.0423 -0.0274,0.17155 l -0.23345,1.34746 q -0.009,0.0572 -0.0263,0.14943 -0.0174,0.0922 -0.0582,0.1658 -0.036,0.0649 -0.099,0.0865 -0.0586,0.0241 -0.14513,-0.024 z"
           style="font-size:15.5168px;line-height:1.25;font-family:'Carter One';-inkscape-font-specification:'Carter One';fill:#ffffff;stroke-width:0.172773"
           id="path597" /><path
           d="m -168.18192,101.8603 q -0.5613,-0.38537 -1.10963,-0.76351 -0.54832,-0.37815 -1.13414,-0.76014 -0.13792,-0.0879 -0.18018,-0.13409 -0.0446,-0.0526 -0.0181,-0.14037 0.13068,-0.408468 0.27625,-0.853942 0.14126,-0.447881 0.22484,-0.893831 0.002,-0.01523 0.0172,-0.0413 0.0265,-0.04757 0.061,-0.02834 l 3.9964,2.729203 q 0.13554,0.0922 0.1821,0.14078 0.0423,0.0461 0.0168,0.1335 -0.0917,0.43009 -0.16235,0.88325 -0.0706,0.45315 -0.16091,0.95197 -0.002,0.0153 -0.0173,0.0414 -0.0265,0.0476 -0.0697,0.0236 -0.003,-0.002 -0.11199,-0.0735 -0.10759,-0.0712 -0.27776,-0.1826 -0.1677,-0.1158 -0.37869,-0.25561 -0.21096,-0.13982 -0.42194,-0.27964 -0.20857,-0.14416 -0.40224,-0.27437 -0.19366,-0.13021 -0.3292,-0.22245 z m -3.27122,-2.2415 q -0.17875,-0.116287 -0.27585,-0.175858 -0.0946,-0.06393 -0.13987,-0.09462 -0.0494,-0.03339 -0.0623,-0.04061 -0.0128,-0.0073 -0.0176,-0.0094 -0.006,-0.0094 -0.0236,-0.0189 -0.0187,-0.01681 -0.0774,-0.0543 -0.0623,-0.04059 -0.17874,-0.116288 -0.1163,-0.07593 -0.3186,-0.210959 -0.13795,-0.08793 -0.18018,-0.134096 -0.0446,-0.05262 -0.0181,-0.140369 0.13068,-0.408473 0.27625,-0.853945 0.14125,-0.44788 0.22483,-0.893825 0.002,-0.01524 0.0173,-0.04137 0.0331,0.0014 0.0539,-0.01535 l 0.0159,-0.0082 1.13222,0.753406 q 0.13555,0.09222 0.17974,0.145103 0.0467,0.0485 0.019,0.12921 -0.135,0.406071 -0.26184,0.828 -0.12682,0.421923 -0.27769,0.887105 -0.002,0.01524 -0.0172,0.0413 -0.0265,0.04757 -0.0697,0.02354 z"
           style="font-size:15.5168px;line-height:1.25;font-family:'Carter One';-inkscape-font-specification:'Carter One';fill:#ffffff;stroke-width:0.172773"
           id="path594" /><path
           d="m -166.12199,99.65974 q -0.004,-0.0024 -0.007,0.0021 -0.004,-0.0024 -0.009,-0.0044 -0.0563,-0.0312 -0.0232,-0.0917 0.0216,-0.03893 0.0687,-0.05241 0.26044,-0.08168 0.48677,-0.244628 0.22872,-0.16724 0.37288,-0.426745 0.0384,-0.06916 0.0759,-0.16723 0.0331,-0.100446 0.0442,-0.201834 0.011,-0.101367 -0.0163,-0.184535 -0.0295,-0.08981 -0.11587,-0.13789 -0.0951,-0.05284 -0.1994,-0.04854 -0.10857,0.0019 -0.20376,0.05096 -0.0544,0.02651 -0.18788,0.09371 -0.13791,0.06489 -0.29408,0.142271 -0.15377,0.07307 -0.29409,0.142272 -0.13791,0.06488 -0.19653,0.08891 -0.25516,0.11294 -0.47141,0.145618 -0.21383,0.02837 -0.4075,2.7e-5 -0.19799,-0.03073 -0.38493,-0.111936 -0.18693,-0.0812 -0.38588,-0.191713 -0.30275,-0.16817 -0.48202,-0.477144 -0.17931,-0.308955 -0.2384,-0.681395 -0.0567,-0.376746 0.0115,-0.774645 0.0639,-0.400288 0.25607,-0.746299 0.15856,-0.285453 0.39881,-0.514208 0.24026,-0.228752 0.57999,-0.351324 0.28451,0.129716 0.55311,0.267647 0.26866,0.137864 0.56805,0.28153 0.0563,0.0312 0.0635,0.0692 0.003,0.03567 -0.0163,0.07016 -0.0168,0.03026 -0.0504,0.03985 -0.15041,0.04662 -0.29887,0.100012 -0.1528,0.05098 -0.28689,0.12929 -0.13599,0.0716 -0.25131,0.177323 -0.11965,0.103331 -0.20132,0.25038 -0.0505,0.09085 -0.0836,0.191264 -0.0376,0.09807 -0.0351,0.195596 -0.002,0.09516 0.0409,0.181135 0.0451,0.08176 0.15327,0.141786 0.12537,0.0697 0.23307,0.08986 0.10757,0.02021 0.25659,-0.04424 l 0.9918,-0.501756 q 0.27391,-0.136501 0.49543,-0.18889 0.21961,-0.05912 0.40558,-0.05769 0.18597,0.0014 0.34312,0.05475 0.15521,0.04662 0.29361,0.123497 0.38925,0.216218 0.58678,0.563637 0.19557,0.340711 0.23598,0.736655 0.036,0.393574 -0.0663,0.812132 -0.0956,0.416635 -0.29738,0.779933 -0.15376,0.276807 -0.35846,0.502685 -0.19796,0.223952 -0.44158,0.377262 z"
           style="font-size:15.5168px;line-height:1.25;font-family:'Carter One';-inkscape-font-specification:'Carter One';fill:#ffffff;stroke-width:0.172773"
           id="path591" /><path
           d="m -162.42642,92.163112 q -0.56839,-0.374806 -1.12371,-0.74263 -0.55529,-0.367842 -1.14813,-0.738816 -0.13949,-0.08539 -0.18266,-0.130702 -0.0456,-0.0518 -0.0208,-0.139979 0.12302,-0.410844 0.26024,-0.85896 0.13286,-0.45044 0.20809,-0.897873 0.003,-0.01554 0.0165,-0.04167 0.0255,-0.04802 0.0606,-0.02942 l 4.04669,2.654042 q 0.13726,0.08967 0.18471,0.137361 0.0432,0.04531 0.0189,0.133232 -0.0837,0.431725 -0.14583,0.886126 -0.0621,0.454404 -0.1431,0.954813 -0.003,0.01555 -0.0165,0.04167 -0.0256,0.04807 -0.0692,0.02487 -0.004,-0.0023 -0.11333,-0.07143 -0.10898,-0.06909 -0.28112,-0.177374 -0.16985,-0.112648 -0.38341,-0.248491 -0.21354,-0.135854 -0.42709,-0.271709 -0.21122,-0.140234 -0.40729,-0.266799 -0.19607,-0.126569 -0.3333,-0.216258 z m -3.31254,-2.179977 q -0.18087,-0.112928 -0.27907,-0.170674 -0.0958,-0.06211 -0.1416,-0.092 -0.05,-0.03247 -0.0631,-0.03942 -0.013,-0.007 -0.0178,-0.0091 -0.006,-0.0092 -0.0239,-0.01845 -0.0191,-0.01645 -0.0784,-0.05285 -0.0631,-0.03942 -0.18096,-0.112874 -0.11777,-0.07372 -0.3225,-0.204967 -0.13956,-0.08531 -0.18265,-0.130702 -0.0455,-0.05179 -0.0208,-0.139979 0.12302,-0.410836 0.26025,-0.858956 0.13285,-0.450435 0.20809,-0.897873 0.003,-0.01556 0.0165,-0.04168 0.0332,8.22e-4 0.0535,-0.01637 l 0.0157,-0.0084 1.14609,0.732126 q 0.13725,0.08967 0.18242,0.141719 0.0475,0.04765 0.0212,0.128872 -0.12739,0.408521 -0.24632,0.832745 -0.11892,0.42422 -0.26106,0.892133 -0.003,0.01554 -0.0165,0.04167 -0.0255,0.04803 -0.0692,0.02487 z"
           style="font-size:15.5168px;line-height:1.25;font-family:'Carter One';-inkscape-font-specification:'Carter One';fill:#ffffff;stroke-width:0.172773"
           id="path588" /><path
           d="m -160.40797,89.924448 q -0.004,-0.0023 -0.007,0.0022 -0.004,-0.0023 -0.009,-0.0046 -0.0568,-0.03015 -0.0243,-0.09133 0.0209,-0.03931 0.0677,-0.05368 0.25887,-0.08656 0.48212,-0.253687 0.22555,-0.171489 0.36482,-0.433638 0.0371,-0.0699 0.0728,-0.16863 0.0313,-0.101056 0.0404,-0.202622 0.009,-0.101558 -0.0198,-0.184172 -0.0305,-0.08951 -0.11842,-0.135695 -0.0961,-0.05105 -0.20029,-0.04481 -0.1085,0.0039 -0.20277,0.05475 -0.0539,0.0275 -0.18609,0.09721 -0.1367,0.06742 -0.29138,0.147739 -0.15237,0.07592 -0.29136,0.14773 -0.1367,0.06742 -0.19484,0.09257 -0.253,0.117729 -0.4686,0.154434 -0.21328,0.03236 -0.40744,0.0076 -0.19853,-0.02703 -0.38694,-0.104727 -0.18842,-0.0777 -0.38941,-0.184468 -0.30583,-0.162485 -0.49085,-0.468051 -0.18502,-0.305561 -0.25113,-0.676805 -0.0638,-0.3756 -0.003,-0.774712 0.0564,-0.401423 0.24209,-0.750959 0.15318,-0.288364 0.38912,-0.52157 0.23595,-0.233204 0.57333,-0.362096 0.28687,0.124377 0.55802,0.25726 0.27118,0.132824 0.57319,0.270873 0.0568,0.03014 0.0647,0.06802 0.004,0.03552 -0.015,0.07046 -0.0163,0.03057 -0.0497,0.04079 -0.1495,0.04942 -0.29696,0.10555 -0.15183,0.0538 -0.2844,0.134647 -0.13462,0.07414 -0.24795,0.182005 -0.11769,0.105543 -0.19662,0.254098 -0.0488,0.09176 -0.08,0.192784 -0.0356,0.09872 -0.0314,0.19621 -1.4e-4,0.09518 0.0442,0.180368 0.0464,0.08098 0.15586,0.138907 0.12663,0.06736 0.2347,0.0855 0.10795,0.0182 0.25574,-0.04902 l 0.98225,-0.520199 q 0.27131,-0.141587 0.49181,-0.198114 0.21846,-0.06322 0.40443,-0.06527 0.18596,-0.002 0.34407,0.04834 0.15605,0.04371 0.29587,0.117987 0.39322,0.208908 0.59721,0.552577 0.20194,0.336978 0.24975,0.732101 0.0434,0.392814 -0.0511,0.813214 -0.0878,0.418351 -0.28277,0.785367 -0.14855,0.279627 -0.34899,0.509281 -0.19375,0.227612 -0.43447,0.385439 z"
           style="font-size:15.5168px;line-height:1.25;font-family:'Carter One';-inkscape-font-specification:'Carter One';fill:#ffffff;stroke-width:0.172773"
           id="path585" /><path
           d="m -150.65228,81.367736 q -0.034,0.04503 -0.0862,0.123007 -0.0492,0.08188 -0.11577,0.133344 -0.0548,0.04238 -0.11903,0.04828 -0.0604,0.0029 -0.1118,-0.06364 l -0.0182,-0.02348 q -0.19361,-0.306848 -0.31025,-0.498092 -0.11971,-0.19515 -0.19271,-0.3138 -0.073,-0.11864 -0.10759,-0.179498 -0.0376,-0.06477 -0.066,-0.117773 -0.0315,-0.05694 -0.0731,-0.11864 -0.0376,-0.06477 -0.10759,-0.179498 -0.0731,-0.118641 -0.1936,-0.306851 -0.11971,-0.19515 -0.31631,-0.505919 -0.10542,-0.168642 -0.20784,-0.333366 -0.10154,-0.171673 -0.20141,-0.300817 -0.12714,-0.16436 -0.24964,-0.282272 -0.12159,-0.124862 -0.24121,-0.182455 -0.11869,-0.06455 -0.23936,-0.05878 -0.12066,0.0058 -0.24197,0.09959 -0.0743,0.05751 -0.17145,0.182661 -0.0932,0.122119 -0.15092,0.29814 -0.0608,0.172109 -0.0557,0.380841 0.002,0.20481 0.12909,0.425582 l 0.0125,0.01559 q 0.29813,0.482441 0.51327,0.84144 0.21603,0.352054 0.37026,0.608043 0.15426,0.255976 0.25576,0.427654 0.10542,0.168641 0.17848,0.287282 0.07,0.114727 0.11668,0.191237 0.0504,0.07364 0.0988,0.136244 0.0242,0.03131 0.0424,0.05479 0.0192,0.01637 0.0314,0.03202 0.0242,0.03131 0.0111,0.07899 -0.0123,0.04074 -0.0898,0.150768 l -0.7138,0.977483 q -0.034,0.04503 -0.0862,0.123007 -0.0492,0.08188 -0.11578,0.133345 -0.0548,0.04238 -0.11902,0.04828 -0.0604,0.0029 -0.11181,-0.06364 l -0.0182,-0.02347 q -0.1936,-0.30685 -0.31417,-0.495056 -0.11971,-0.19515 -0.19271,-0.3138 -0.0691,-0.121686 -0.10361,-0.182544 -0.0376,-0.06477 -0.07,-0.114727 -0.0315,-0.05695 -0.0691,-0.121685 -0.0376,-0.06477 -0.11147,-0.176469 -0.0731,-0.11864 -0.1936,-0.30685 -0.11971,-0.195151 -0.3163,-0.50592 -0.10542,-0.168642 -0.20785,-0.333365 -0.10154,-0.171673 -0.2014,-0.300819 -0.12714,-0.16436 -0.24571,-0.285307 -0.12161,-0.124862 -0.23731,-0.18548 -0.11482,-0.06755 -0.22763,-0.06786 -0.11282,-2.98e-4 -0.22239,0.08446 -0.0782,0.06053 -0.18496,0.205626 -0.10278,0.142057 -0.17013,0.33801 -0.0634,0.192935 -0.0541,0.423369 0.0102,0.223501 0.1611,0.450842 0.19271,0.313798 0.31843,0.516783 0.12274,0.199064 0.20482,0.329452 0.0791,0.126466 0.1287,0.206904 0.0504,0.07364 0.0951,0.13912 0.008,0.01885 0.0579,0.09907 0.0466,0.07652 0.11365,0.187324 0.0678,0.103871 0.14691,0.230378 0.08,0.119522 0.15085,0.227339 0.0679,0.103902 0.11753,0.184295 0.0504,0.07364 0.0625,0.08929 l 0.0545,0.07043 q 0.0303,0.03914 0.0473,0.06972 0.017,0.0306 0.0157,0.06908 -0.001,0.03858 -0.0254,0.08845 -0.0201,0.04682 -0.0684,0.121744 l -0.74378,1.157048 q -0.0309,0.04894 -0.0832,0.126922 -0.0523,0.07797 -0.11881,0.129429 -0.0548,0.04238 -0.11902,0.04829 -0.0604,0.0029 -0.11181,-0.06364 l -2.73545,-4.264056 q -0.0882,-0.138205 -0.10881,-0.197282 -0.0202,-0.06594 0.0386,-0.136159 0.30163,-0.345906 0.61891,-0.703925 0.31425,-0.361926 0.58257,-0.750882 0.0313,-0.02421 0.0444,-0.01551 0.0139,0.0017 0.0291,0.02131 l 0.39108,0.610702 q 0.0873,-0.186359 0.2007,-0.4117 0.11039,-0.229254 0.24854,-0.454963 0.14207,-0.228735 0.30923,-0.433104 0.16807,-0.21131 0.36373,-0.362666 0.27002,-0.208871 0.59386,-0.259215 0.32473,-0.05726 0.69442,0.113357 0.0883,-0.24971 0.2083,-0.498896 0.1239,-0.252218 0.27291,-0.480069 0.15292,-0.230877 0.33005,-0.430445 0.17714,-0.199573 0.37281,-0.350931 0.24654,-0.190707 0.52017,-0.289785 0.27364,-0.09907 0.5582,-0.06275 0.28846,0.03331 0.58219,0.218939 0.29068,0.181716 0.57522,0.549572 0.0727,0.09391 0.14723,0.198862 0.0716,0.101028 0.14176,0.215601 l 1.11558,1.814164 q 0.1076,0.179499 0.21262,0.32342 0.10185,0.140158 0.24409,0.324091 0.0242,0.0313 0.0424,0.05479 0.0193,0.01636 0.0314,0.03201 0.0273,0.03522 0.0111,0.079 -0.0123,0.04074 -0.0898,0.150767 z"
           style="font-size:15.5168px;line-height:1.25;font-family:'Carter One';-inkscape-font-specification:'Carter One';fill:#ffffff;stroke-width:0.172773"
           id="path582" /><path
           d="m -145.84714,80.277855 q 0.004,0.02173 -0.001,0.03858 0.002,0.01774 -0.0222,0.03595 -0.0235,0.01818 -0.0383,0.02334 -0.18023,0.0581 -0.3327,0.119748 -0.15248,0.06165 -0.30192,0.127213 -0.1425,0.06644 -0.29283,0.138949 -0.1473,0.07642 -0.31631,0.157112 -0.0452,0.02246 -0.0838,0.02106 -0.0316,-5.03e-4 -0.065,-0.04356 -0.009,-0.01177 -0.0337,-0.06777 -0.0176,-0.05516 -0.0718,-0.238418 -0.0512,-0.179339 -0.14351,-0.533243 -0.0894,-0.349975 -0.23479,-0.950494 -0.21006,-0.15026 -0.49631,-0.366677 -0.28625,-0.216421 -0.6236,-0.47463 -0.33343,-0.26124 -0.70193,-0.551645 -0.37153,-0.294315 -0.75,-0.589523 -0.37758,-0.302145 -0.74999,-0.589521 -0.37153,-0.294318 -0.7119,-0.55644 -0.0758,-0.04145 -0.11005,-0.07753 -0.0374,-0.03986 -0.0586,-0.06725 -0.0424,-0.05479 0.008,-0.11888 0.25377,-0.30264 0.52801,-0.627359 0.27121,-0.32863 0.47692,-0.669154 0.009,-0.013 0.0322,-0.03119 0.0509,-0.03936 0.0851,-0.0033 l 2.51166,2.260463 q -0.0207,-0.05906 -0.0715,-0.213682 -0.0499,-0.161548 -0.12439,-0.379146 -0.0706,-0.220618 -0.15662,-0.48555 -0.0861,-0.264921 -0.17429,-0.540703 -0.0882,-0.275782 -0.17732,-0.544613 -0.0882,-0.275785 -0.16399,-0.511163 -0.0757,-0.235394 -0.13773,-0.412601 -0.0581,-0.18023 -0.0851,-0.27187 -0.0149,-0.05119 0.0284,-0.08454 0.0118,-0.0091 0.0187,-0.0081 0.005,-0.0032 0.0156,-0.01211 0.38128,-0.113541 0.74796,-0.278336 0.36363,-0.168701 0.72033,-0.338288 0.0864,-0.04186 0.14096,0.02858 0.0394,0.05087 0.0741,0.192853 l 1.20594,4.890502 z"
           style="font-size:15.5168px;line-height:1.25;font-family:'Carter One';-inkscape-font-specification:'Carter One';fill:#ffffff;stroke-width:0.172773"
           id="path579" /><path
           d="m -140.86275,72.584567 q 0.0976,0.05227 0.23016,0.0858 0.13386,0.02661 0.27937,0.02682 0.14956,-0.0026 0.29815,-0.04092 0.14575,-0.04235 0.27103,-0.13081 0.17378,-0.122711 0.23319,-0.364525 0.0565,-0.245854 0.01,-0.552085 -0.0455,-0.313123 -0.18628,-0.649772 -0.14367,-0.340687 -0.36627,-0.655923 -0.13697,-0.193991 -0.29607,-0.342086 -0.15504,-0.150958 -0.31911,-0.228909 -0.16407,-0.07796 -0.3355,-0.07199 -0.16738,0.0031 -0.32904,0.117276 -0.26269,0.185499 -0.37249,0.493178 -0.1098,0.307684 -0.0909,0.651721 z m -0.43326,2.577172 q -0.048,0.05207 -0.0803,0.07491 -0.12933,0.09132 -0.23778,-0.06226 -0.0143,-0.02021 -0.0286,-0.04042 -0.01,-0.02327 -0.0233,-0.05018 l -3.56931,-6.049736 q -0.008,-0.01214 -0.0171,-0.02424 -0.005,-0.0151 -0.01,-0.02327 -0.0118,-0.01612 -0.0243,-0.02527 -0.008,-0.01214 -0.0143,-0.02021 -0.0257,-0.03637 -0.0161,-0.07368 0.0112,-0.04421 0.10031,-0.149568 l 0.94446,-1.072695 q 0.0387,-0.03946 0.0915,-0.119134 0.0528,-0.07966 0.12148,-0.128176 0.0526,-0.03711 0.11412,-0.04424 0.0656,-0.01 0.11412,0.05871 0.006,0.0081 0.007,0.01918 0.006,0.0081 0.0118,0.01612 0.01,0.02327 0.10538,0.192096 0.0951,0.169032 0.23473,0.40963 0.13675,0.236556 0.29518,0.512311 0.15552,0.271751 0.29511,0.51235 0.13674,0.236557 0.23188,0.405587 0.0951,0.169033 0.10538,0.192097 0.15805,-0.402318 0.38195,-0.754241 0.22107,-0.355968 0.5363,-0.578564 0.41628,-0.293939 0.8421,-0.334193 0.42297,-0.0443 0.82363,0.102817 0.39779,0.143069 0.75329,0.449248 0.35955,0.303324 0.63922,0.699389 0.22545,0.319277 0.39313,0.685403 0.16887,0.359229 0.26404,0.734165 0.0992,0.37208 0.11208,0.750598 0.017,0.375654 -0.0672,0.719713 -0.0801,0.341201 -0.26976,0.638672 -0.18969,0.297473 -0.50087,0.517213 -0.37586,0.265404 -0.80407,0.319447 -0.42819,0.05402 -0.88042,-0.02031 0.0604,0.102717 0.0964,0.162121 0.0357,0.0596 0.0345,0.108874 -3.7e-4,0.04258 -0.0305,0.09417 -0.033,0.04755 -0.10768,0.130546 -0.0359,0.0435 -0.12908,0.151716 -0.092,0.101299 -0.22678,0.244931 -0.12789,0.144818 -0.2893,0.319362 -0.15737,0.171692 -0.32283,0.349088 z"
           style="font-size:15.5168px;line-height:1.25;font-family:'Carter One';-inkscape-font-specification:'Carter One';fill:#ffffff;stroke-width:0.172773"
           id="path576" /><path
           d="m -137.08333,65.131081 q 0.38394,-0.271114 0.79788,-0.345361 0.41511,-0.08114 0.80006,-0.0077 0.38613,0.06651 0.70715,0.263797 0.321,0.197293 0.52077,0.480196 0.17693,0.250572 0.20316,0.613626 0.0233,0.35902 -0.11282,0.758006 -0.13213,0.396129 -0.43165,0.79538 -0.29951,0.399251 -0.76428,0.72744 -0.24249,0.171226 -0.54348,0.311077 0.13888,0.162371 0.31222,0.227726 0.17334,0.06535 0.35975,0.05487 0.1864,-0.01051 0.3766,-0.08423 0.19138,-0.08063 0.36517,-0.203345 0.19399,-0.136984 0.34898,-0.294878 0.15618,-0.164797 0.28194,-0.338383 0.12574,-0.173587 0.2308,-0.350738 0.10507,-0.177149 0.19396,-0.342882 0.0306,-0.03376 0.052,-0.05493 0.0226,-0.02805 0.0469,-0.04519 0,0 0.0414,0.06767 0.0457,0.06466 0.12842,0.181868 0.0827,0.117207 0.1955,0.285916 0.11698,0.165703 0.25542,0.370788 0.0264,0.01165 0.0447,0.02901 0.0186,0.01718 0.0271,0.02932 0.0343,0.0485 -0.0147,0.167858 -0.0489,0.11936 -0.15165,0.282724 -0.0986,0.160505 -0.2446,0.34836 -0.1419,0.184999 -0.30047,0.363585 -0.1557,0.182627 -0.3164,0.332442 -0.15785,0.153862 -0.29122,0.248038 -0.43647,0.308207 -0.95715,0.445717 -0.51379,0.138706 -1.03282,0.08125 -0.51501,-0.06031 -0.99033,-0.330327 -0.47533,-0.270023 -0.83206,-0.775206 -0.37385,-0.529435 -0.51732,-1.118582 -0.14628,-0.593196 -0.0615,-1.16788 0.0888,-0.577538 0.40569,-1.09805 0.31684,-0.52051 0.86649,-0.908627 z m 0.71062,1.109272 q -0.16569,0.117006 -0.25578,0.289636 -0.0889,0.165733 -0.11192,0.381862 -0.0218,0.209228 0.0246,0.45507 0.0435,0.241801 0.148,0.501173 0.3649,-0.366685 0.58265,-0.641575 0.21774,-0.274885 0.32637,-0.472721 0.10577,-0.201878 0.1174,-0.331221 0.009,-0.133387 -0.0455,-0.210171 -0.0514,-0.07274 -0.15361,-0.09745 -0.0982,-0.02756 -0.21327,-0.01899 -0.11508,0.0085 -0.22919,0.05282 -0.11293,0.03735 -0.18973,0.09157 z"
           style="font-size:15.5168px;line-height:1.25;font-family:'Carter One';-inkscape-font-specification:'Carter One';fill:#ffffff;stroke-width:0.172773"
           id="path573" /><path
           d="m -128.1391,64.357129 q 0.007,0.01918 0.0186,0.03534 0.008,0.01214 0.0171,0.02424 0.0714,0.101032 0.15219,0.146917 0.078,0.04184 0.14575,0.06061 0.069,0.01187 0.12126,0.01733 0.0495,0.0014 0.0637,0.02163 0.04,0.05658 -0.0471,0.190693 l -0.75897,1.232443 q -0.001,0.0071 -0.0254,0.02402 -0.0323,0.02282 -0.10462,-0.01092 -0.0723,-0.03375 -0.1674,-0.09983 -0.0882,-0.06491 -0.185,-0.141911 -0.0956,-0.08391 -0.17571,-0.154532 -0.0463,0.47482 -0.24429,0.820554 -0.19799,0.345738 -0.48898,0.551212 -0.33949,0.239717 -0.7684,0.318489 -0.4289,0.07876 -0.87353,-0.01912 -0.44749,-0.101925 -0.87789,-0.385503 -0.42635,-0.286434 -0.77165,-0.775454 -0.4081,-0.577932 -0.57915,-1.171832 -0.167,-0.596755 -0.12284,-1.142876 0.0444,-0.546147 0.293,-1.000309 0.24981,-0.461063 0.67821,-0.763564 0.30311,-0.214038 0.66236,-0.279957 0.35639,-0.06996 0.73586,-0.04719 -0.0613,-0.138388 -0.10868,-0.213958 -0.0471,-0.07576 -0.0637,-0.124579 -0.0127,-0.0518 0.0195,-0.09249 0.029,-0.04472 0.11625,-0.118426 0.26245,-0.24589 0.52657,-0.48084 0.2653,-0.241847 0.56912,-0.480611 z m -2.28429,-0.670349 q -0.12224,-0.258914 -0.25281,-0.469539 -0.12939,-0.217527 -0.24114,-0.392996 -0.0989,-0.0028 -0.21279,-0.0012 -0.10985,-0.0012 -0.23015,0.0172 -0.11912,0.0114 -0.23609,0.05163 -0.11294,0.03734 -0.21801,0.111545 -0.21823,0.154103 -0.26789,0.401147 -0.0456,0.244191 0.007,0.515941 0.0566,0.268899 0.17889,0.527801 0.12625,0.256056 0.25184,0.433878 0.45091,0.638554 0.82779,0.820617 0.37807,0.175171 0.67714,-0.03601 0.12124,-0.08561 0.22226,-0.259909 0.10102,-0.174294 0.16899,-0.403984 z"
           style="font-size:15.5168px;line-height:1.25;font-family:'Carter One';-inkscape-font-specification:'Carter One';fill:#ffffff;stroke-width:0.172773"
           id="path570" /><path
           d="m -122.7301,61.004049 q 0.0821,0.141915 0.0989,0.208733 0.0139,0.06279 -0.0432,0.127442 -0.27503,0.339569 -0.57954,0.706009 -0.30333,0.359548 -0.54079,0.769486 -0.009,0.01261 -0.0335,0.02974 -0.0323,0.02282 -0.0519,0.01241 -0.0157,-0.01315 -0.03,-0.03336 -0.006,-0.0081 -0.02,-0.02829 -0.01,-0.02327 -0.0421,-0.08534 -0.029,-0.05825 -0.0854,-0.163808 -0.0524,-0.108403 -0.14221,-0.287206 -0.24431,0.614652 -0.50175,0.996304 -0.25054,0.382836 -0.52131,0.574041 -0.67494,0.476586 -1.21443,0.373008 -0.53831,-0.110471 -0.99492,-0.757108 -0.0827,-0.117207 -0.1641,-0.241461 -0.0842,-0.128295 -0.15553,-0.271751 -0.29231,-0.50827 -0.49968,-0.870599 -0.21024,-0.366352 -0.3584,-0.619074 -0.14816,-0.252723 -0.24164,-0.410809 -0.0923,-0.16499 -0.15552,-0.27175 -0.0592,-0.109586 -0.10083,-0.177115 -0.0404,-0.07443 -0.078,-0.144785 -0.0751,-0.140743 -0.10011,-0.201833 -0.021,-0.06395 0.0445,-0.134347 0.16427,-0.170503 0.31403,-0.31865 0.15096,-0.155044 0.29383,-0.304383 0.14405,-0.156234 0.2893,-0.319362 0.14524,-0.163129 0.29929,-0.356692 0.008,-0.0057 0.0161,-0.01142 0.005,-0.0098 0.0133,-0.01547 0.0485,-0.03424 0.0713,-0.002 l 0.006,0.0081 q 0.0808,0.148827 0.15437,0.278618 0.0735,0.129792 0.15266,0.26771 0.0764,0.133833 0.16294,0.290741 0.0907,0.15404 0.20739,0.362312 0.11395,0.20422 0.26258,0.474758 0.14866,0.270536 0.34224,0.630488 0.14696,0.259627 0.29397,0.519216 0.1441,0.255586 0.28964,0.461701 0.08,0.113156 0.16457,0.198744 0.0818,0.08154 0.17074,0.121702 0.09,0.03329 0.1845,0.02113 0.0944,-0.01213 0.20351,-0.0892 0.0849,-0.05993 0.20467,-0.199039 0.11696,-0.143149 0.19681,-0.33884 0.077,-0.19973 0.0777,-0.430364 0.002,-0.237529 -0.15031,-0.487389 -0.25427,-0.420069 -0.4224,-0.701083 -0.16693,-0.287917 -0.27919,-0.481197 -0.11511,-0.197321 -0.19147,-0.331156 -0.0764,-0.133833 -0.14816,-0.252723 -0.0707,-0.125751 -0.15387,-0.260806 -0.0861,-0.139089 -0.21784,-0.342814 -0.0821,-0.141916 -0.10011,-0.201834 -0.0174,-0.06677 0.0445,-0.134346 0.3164,-0.33244 0.64897,-0.676299 0.32972,-0.347898 0.61474,-0.724798 0.0323,-0.02282 0.0449,-0.01356 0.0138,0.0023 0.0281,0.02256 z"
           style="font-size:15.5168px;line-height:1.25;font-family:'Carter One';-inkscape-font-specification:'Carter One';fill:#ffffff;stroke-width:0.172773"
           id="path567" /><path
           d="m -121.4969,56.214616 q 0.24307,0.464309 0.49017,0.925762 0.24832,0.454551 0.49588,0.830895 0.11128,0.15762 0.20977,0.245558 0.0984,0.08794 0.1857,0.117187 0.0913,0.02638 0.17595,0.009 0.0818,-0.02141 0.16262,-0.07848 0.12933,-0.09132 0.25722,-0.23614 0.12503,-0.148861 0.2358,-0.317926 0.0342,-0.05445 0.0609,-0.08538 0.0279,-0.03782 0.052,-0.05493 0.0404,-0.02855 0.0782,-6.95e-4 0.0419,0.02496 0.1196,0.109364 0.079,0.07749 0.21566,0.211112 0.13672,0.133613 0.36691,0.322346 0.0186,0.01718 0.03,0.03336 0.0129,0.0091 0.0214,0.02123 0.04,0.05657 0.0126,0.112205 -0.0233,0.0528 -0.0975,0.153609 -0.12574,0.173586 -0.26884,0.365482 -0.14192,0.185004 -0.28954,0.36192 -0.14357,0.174067 -0.28931,0.319362 -0.14286,0.149337 -0.26815,0.237803 -0.67492,0.476586 -1.22299,0.360887 -0.54401,-0.118558 -1.02915,-0.805609 -0.0827,-0.117208 -0.16028,-0.244172 -0.0804,-0.131006 -0.16242,-0.27293 -0.24495,-0.4327 -0.47066,-0.812354 -0.22452,-0.386558 -0.42619,-0.740796 l -0.42436,0.299649 q -0.21824,0.154107 -0.32665,0.206428 -0.11127,0.04829 -0.15122,-0.0083 -0.0118,-0.01612 -0.0194,-0.113428 -0.0109,-0.101298 -0.0193,-0.241035 -0.007,-0.146665 -0.0139,-0.311223 -0.007,-0.164535 -0.011,-0.307184 -0.003,-0.149549 -0.005,-0.256545 -0.003,-0.107012 -0.002,-0.131711 l 0.28694,-0.20262 q -0.18051,-0.332841 -0.30585,-0.553222 -0.12412,-0.227295 -0.20905,-0.373255 -0.0808,-0.148826 -0.1201,-0.230123 -0.0421,-0.08534 -0.0557,-0.130294 -0.009,-0.04782 0.005,-0.07015 0.0157,-0.02926 0.0463,-0.06301 0.15619,-0.164797 0.30596,-0.312948 0.14691,-0.152188 0.29382,-0.304382 0.14691,-0.152188 0.29216,-0.315317 0.14643,-0.170023 0.29643,-0.360733 0.0121,-0.0086 0.0161,-0.01142 10e-4,-0.0071 0.0133,-0.01546 0.0485,-0.03424 0.0713,-0.002 l 0.006,0.0081 q 0.13674,0.236556 0.37197,0.664005 0.23924,0.424616 0.54059,0.962846 l 1.08312,-0.764819 q 0.0323,-0.02282 0.0777,-0.01855 0.0466,-0.0026 0.0837,0.04991 0.0143,0.02021 0.0542,0.179733 0.04,0.159526 0.0937,0.424391 l 0.0856,0.430101 q 0.0148,0.08056 0.002,0.131725 -0.008,0.04826 -0.0956,0.12199 z"
           style="font-size:15.5168px;line-height:1.25;font-family:'Carter One';-inkscape-font-specification:'Carter One';fill:#ffffff;stroke-width:0.172773"
           id="path564" /><path
           d="m -118.80518,56.415563 q -0.33842,-0.590786 -0.6683,-1.16944 -0.32986,-0.57866 -0.69183,-1.177044 -0.0861,-0.139089 -0.10413,-0.199007 -0.0174,-0.06677 0.0445,-0.13435 0.295,-0.311274 0.61949,-0.649424 0.32164,-0.342191 0.59049,-0.707675 0.009,-0.01261 0.0335,-0.02974 0.0444,-0.03137 0.0673,9.97e-4 l 2.41587,4.193243 q 0.0821,0.141916 0.10296,0.205876 0.0181,0.05991 -0.0432,0.127445 -0.26932,0.347648 -0.52961,0.725257 -0.26029,0.377606 -0.55814,0.787795 -0.009,0.01261 -0.0336,0.02975 -0.0445,0.03137 -0.073,-0.009 -0.002,-0.0041 -0.069,-0.114841 -0.0661,-0.110769 -0.17099,-0.285055 -0.10083,-0.177115 -0.23023,-0.394641 -0.12938,-0.217528 -0.25875,-0.435058 -0.12533,-0.220391 -0.2433,-0.421752 -0.11797,-0.201363 -0.20004,-0.343282 z m -1.97421,-3.43914 q -0.11055,-0.182339 -0.17219,-0.278149 -0.0576,-0.09868 -0.085,-0.145958 -0.03,-0.05151 -0.0385,-0.06363 -0.008,-0.01214 -0.0118,-0.01612 -0.001,-0.0111 -0.013,-0.02725 -0.01,-0.02327 -0.0461,-0.08251 -0.0385,-0.06364 -0.11056,-0.182339 -0.0718,-0.118883 -0.19547,-0.328332 -0.0861,-0.139089 -0.10413,-0.199007 -0.0174,-0.06676 0.0445,-0.134347 0.29501,-0.311275 0.6195,-0.649429 0.32164,-0.34219 0.59049,-0.707674 0.009,-0.0126 0.0335,-0.02974 0.0292,0.0157 0.0552,0.0095 l 0.0179,-4.42e-4 0.69302,1.170151 q 0.0821,0.141916 0.099,0.208734 0.021,0.06395 -0.0392,0.124593 -0.29786,0.307233 -0.59526,0.632305 -0.29738,0.325068 -0.63518,0.678673 -0.009,0.01261 -0.0335,0.02974 -0.0445,0.03137 -0.073,-0.009 z"
           style="font-size:15.5168px;line-height:1.25;font-family:'Carter One';-inkscape-font-specification:'Carter One';fill:#ffffff;stroke-width:0.172773"
           id="path561" /><path
           d="m -114.7314,56.19782 q -0.0271,-0.04747 -0.11797,-0.201362 -0.0894,-0.16095 -0.22903,-0.401546 -0.13959,-0.240597 -0.32084,-0.548685 -0.18006,-0.314991 -0.38457,-0.673279 -0.2074,-0.362309 -0.43476,-0.752917 -0.22332,-0.393462 -0.45235,-0.795001 l -0.53752,0.379554 q -0.21823,0.154103 -0.32664,0.206428 -0.11127,0.04829 -0.15123,-0.0083 -0.0118,-0.01612 -0.0194,-0.113429 -0.0109,-0.101297 -0.0193,-0.241035 -0.007,-0.146668 -0.0139,-0.311222 -0.007,-0.164535 -0.0109,-0.307196 -0.003,-0.149549 -0.005,-0.256544 -0.003,-0.107012 -0.002,-0.131725 l 0.49307,-0.348164 -0.37293,-0.699671 q -0.303,-0.549178 -0.40293,-0.999484 -0.0959,-0.453159 -0.0289,-0.821461 0.071,-0.371157 0.28829,-0.663877 0.21726,-0.292719 0.54059,-0.521026 0.32331,-0.228302 0.72796,-0.392901 0.40583,-0.171492 0.85851,-0.285217 0.0996,-0.02189 0.15311,-0.02337 0.0547,-0.0084 0.0804,0.02802 0.0228,0.03233 0.0317,0.104832 0.0476,0.341893 0.0914,0.54113 0.0478,0.196383 0.0742,0.31098 0.0264,0.114602 0.025,0.164055 -0.004,0.04541 -0.0528,0.07966 -0.0243,0.01714 -0.0611,0.02498 -0.0329,0.005 -0.0806,0.01454 -0.17855,0.04734 -0.35258,0.109668 -0.17284,0.05543 -0.30217,0.14675 -0.18187,0.128423 -0.23533,0.335757 -0.0494,0.204479 0.0964,0.573941 0.0839,0.213245 0.20407,0.44339 0.1201,0.230122 0.24545,0.45051 l 1.05482,-0.74484 q 0.0323,-0.02282 0.0777,-0.01855 0.0466,-0.0026 0.0837,0.04991 0.0143,0.02021 0.0542,0.179732 0.04,0.159527 0.0937,0.424389 l 0.0856,0.430103 q 0.0148,0.08056 0.002,0.131725 -0.008,0.04826 -0.0956,0.121986 l -0.69917,0.493708 q 0.25235,0.45169 0.503,0.892475 0.25065,0.440783 0.47115,0.830185 0.2176,0.385381 0.38908,0.688258 0.16864,0.298826 0.26092,0.463815 0.005,0.01509 0.0271,0.04747 0.0118,0.01612 0.02,0.02829 0.0129,0.0091 0.0186,0.01718 0.0257,0.03637 0.0148,0.08056 -0.01,0.03735 -0.0991,0.142675 l -0.7975,1.126408 q -0.033,0.04755 -0.0887,0.123177 -0.0556,0.07562 -0.12433,0.124132 -0.0687,0.04852 -0.12791,0.04187 -0.0592,-0.0066 -0.11913,-0.09152 z"
           style="font-size:15.5168px;line-height:1.25;font-family:'Carter One';-inkscape-font-specification:'Carter One';fill:#ffffff;stroke-width:0.172773"
           id="path558" /><path
           d="m -107.63115,50.342261 q 0.0821,0.141915 0.099,0.208734 0.0139,0.06279 -0.0432,0.127442 -0.27503,0.339568 -0.57955,0.706008 -0.30332,0.359543 -0.54078,0.769487 -0.009,0.0126 -0.0336,0.02975 -0.0323,0.02282 -0.0519,0.01241 -0.0157,-0.01315 -0.03,-0.03336 -0.006,-0.0081 -0.02,-0.02829 -0.01,-0.02327 -0.0421,-0.08534 -0.029,-0.05826 -0.0854,-0.163807 -0.0524,-0.108403 -0.14221,-0.287206 -0.24432,0.614651 -0.50174,0.9963 -0.25055,0.38284 -0.52133,0.574043 -0.67492,0.476583 -1.21442,0.373008 -0.53831,-0.110471 -0.99491,-0.757107 -0.0827,-0.117207 -0.16412,-0.24146 -0.0842,-0.128296 -0.15552,-0.271751 -0.2923,-0.508272 -0.49968,-0.8706 -0.21025,-0.366351 -0.3584,-0.619075 -0.14816,-0.252722 -0.24164,-0.410807 -0.0923,-0.164991 -0.15552,-0.271751 -0.0593,-0.109586 -0.10083,-0.177116 -0.0404,-0.07443 -0.078,-0.144784 -0.0751,-0.140744 -0.10011,-0.201834 -0.021,-0.06395 0.0445,-0.134346 0.16426,-0.170502 0.31403,-0.31865 0.15095,-0.155042 0.29382,-0.304382 0.14406,-0.156235 0.2893,-0.319362 0.14524,-0.16313 0.29929,-0.356692 0.008,-0.0057 0.0161,-0.01142 0.005,-0.0098 0.0133,-0.01547 0.0485,-0.03424 0.0713,-0.002 l 0.006,0.0081 q 0.0808,0.148825 0.15438,0.278617 0.0735,0.129791 0.15267,0.26771 0.0764,0.133832 0.16293,0.290742 0.0907,0.15404 0.20739,0.36231 0.11395,0.20422 0.26258,0.47476 0.14866,0.270535 0.34224,0.630487 0.14696,0.259626 0.29397,0.519217 0.14411,0.255584 0.28965,0.461699 0.0799,0.113166 0.16456,0.198745 0.0818,0.08153 0.17073,0.121703 0.0902,0.03329 0.18451,0.02113 0.0944,-0.01213 0.20351,-0.08919 0.0849,-0.05993 0.20467,-0.199039 0.11697,-0.14315 0.19682,-0.338842 0.077,-0.199729 0.0777,-0.430363 0.002,-0.237518 -0.15032,-0.48739 -0.25426,-0.420069 -0.42239,-0.701082 -0.16693,-0.287917 -0.27919,-0.481197 -0.11511,-0.197321 -0.19147,-0.331157 -0.0764,-0.133833 -0.14816,-0.252722 -0.0707,-0.12575 -0.15387,-0.260806 -0.0861,-0.139089 -0.21784,-0.342815 -0.0821,-0.141915 -0.10011,-0.201833 -0.0164,-0.06688 0.0445,-0.134346 0.3164,-0.332439 0.64897,-0.676299 0.32972,-0.347898 0.61474,-0.724797 0.0323,-0.02282 0.0449,-0.01356 0.0138,0.0023 0.0281,0.02256 z"
           style="font-size:15.5168px;line-height:1.25;font-family:'Carter One';-inkscape-font-specification:'Carter One';fill:#ffffff;stroke-width:0.172773"
           id="path555" /><path
           d="m -108.51147,46.591002 q -0.34248,-0.587922 -0.6966,-1.149462 -0.35008,-0.564384 -0.71609,-1.15992 -0.0861,-0.139089 -0.10413,-0.199007 -0.0164,-0.06687 0.0445,-0.134347 0.32735,-0.334112 0.65469,-0.66822 0.32852,-0.341001 0.62567,-0.726462 0.009,-0.01261 0.0335,-0.02974 0.0444,-0.03137 0.073,0.009 l 3.54984,6.142226 0.0485,0.0687 q 0.0257,0.03637 0.0148,0.08056 -0.014,0.04017 -0.0991,0.142675 l -0.7849,1.135674 q -0.0302,0.05158 -0.0887,0.123177 -0.0556,0.07562 -0.12433,0.124133 -0.0566,0.03995 -0.12102,0.04306 -0.0604,2.64e-4 -0.10892,-0.06845 l -0.0171,-0.02424 q -0.2559,-0.431016 -0.50157,-0.838975 -0.2445,-0.41485 -0.50609,-0.85396 -0.25757,-0.44196 -0.54535,-0.935263 -0.28775,-0.49332 -0.63024,-1.081238 z"
           style="font-size:15.5168px;line-height:1.25;font-family:'Carter One';-inkscape-font-specification:'Carter One';fill:#ffffff;stroke-width:0.172773"
           id="path552" /><path
           d="m -103.98529,40.198413 q -0.008,-0.02854 -0.0199,-0.05092 -0.007,-0.02383 -0.0131,-0.04766 -0.0123,-0.04281 0.013,-0.08083 0.0239,-0.04276 0.14292,-0.112557 l 1.24693,-0.698447 q 0.0496,-0.02436 0.12587,-0.08201 0.0762,-0.05764 0.15712,-0.0806 0.16659,-0.04727 0.20981,0.10503 0.002,0.0096 0.0412,0.199183 0.0384,0.189667 0.093,0.472477 0.0545,0.28281 0.11926,0.619304 0.0632,0.331767 0.11852,0.634943 0.0552,0.303197 0.0949,0.533646 0.0382,0.225717 0.043,0.296376 0.18858,-0.187234 0.40026,-0.365591 0.21166,-0.178356 0.43143,-0.328155 0.22454,-0.151153 0.45511,-0.262875 0.234,-0.117834 0.462455,-0.182674 0.290334,-0.0824 0.566906,-0.06832 0.275208,0.0093 0.516211,0.15179 0.244411,0.136353 0.438279,0.420764 0.197267,0.278303 0.32558,0.73046 0.03242,0.114226 0.06251,0.239402 0.02878,0.120411 0.05125,0.252892 l 0.347786,2.004736 q 0.03334,0.206594 0.09033,0.426943 0.05579,0.215601 0.120635,0.444057 0.01064,0.0381 0.01887,0.06663 0.01138,0.02243 0.01719,0.04141 0.01234,0.04281 -0.01916,0.07744 -0.02656,0.03325 -0.139506,0.106448 l -1.07423,0.654578 q -0.04828,0.02914 -0.125869,0.08201 -0.07624,0.05764 -0.157124,0.0806 -0.08092,0.02297 -0.134565,-0.003 -0.05232,-0.02115 -0.08204,-0.125863 -0.06801,-0.366415 -0.111129,-0.590753 -0.03817,-0.225717 -0.0653,-0.356896 -0.02319,-0.13737 -0.03334,-0.206596 -0.01081,-0.07408 -0.02077,-0.127807 -0.01161,-0.05848 -0.02077,-0.127807 -0.01071,-0.0741 -0.03891,-0.210082 -0.02319,-0.137371 -0.0667,-0.361649 -0.03817,-0.225719 -0.106374,-0.592104 -0.03479,-0.195812 -0.06868,-0.386803 -0.02994,-0.197178 -0.07481,-0.354201 -0.05672,-0.199904 -0.126466,-0.354969 -0.0663,-0.161183 -0.155846,-0.259201 -0.08613,-0.104131 -0.200223,-0.143745 -0.1141,-0.03962 -0.26165,0.0023 -0.10946,0.03106 -0.28634,0.13269 -0.17212,0.100276 -0.33144,0.263774 -0.15455,0.162147 -0.25076,0.384882 -0.0928,0.216626 -0.0376,0.483804 0.066,0.377286 0.10834,0.61726 0.0471,0.238622 0.0761,0.394968 0.029,0.156346 0.0447,0.249549 0.0206,0.09187 0.0378,0.169288 0.002,0.02522 0.0191,0.123101 0.0157,0.09321 0.0382,0.225718 0.0225,0.132515 0.0498,0.284162 0.0266,0.146787 0.0481,0.279454 0.0273,0.13115 0.0444,0.229105 0.0206,0.09186 0.0274,0.115655 0.0106,0.0381 0.0189,0.06664 0.0114,0.02243 0.0185,0.04618 0.0106,0.0381 -0.0191,0.07744 -0.0266,0.03325 -0.14085,0.101692 l -1.11932,0.78566 q -0.047,0.03391 -0.12452,0.08677 -0.0775,0.05287 -0.15848,0.07583 -0.0714,0.02028 -0.13114,-0.0091 -0.0584,-0.02457 -0.0854,-0.119763 z"
           style="font-size:15.5168px;line-height:1.25;font-family:'Carter One';-inkscape-font-specification:'Carter One';fill:#ffffff;stroke-width:0.172773"
           id="path549" /><path
           d="m -93.555251,44.983576 q -0.671092,0.190451 -1.242496,0.116037 -0.56664,-0.07577 -1.011986,-0.340235 -0.446702,-0.269229 -0.751762,-0.691798 -0.306425,-0.427326 -0.45095,-0.936597 -0.144555,-0.509267 -0.107651,-1.013457 0.03557,-0.508954 0.232726,-0.955783 0.195844,-0.45158 0.545792,-0.81318 0.348602,-0.366362 0.828799,-0.595213 0.07476,-0.02638 0.06673,-0.05493 -0.01476,-0.05237 -0.04127,-0.09114 -0.02306,-0.04489 -0.0325,-0.07821 -0.01476,-0.05237 -0.0012,-0.07679 0.0136,-0.02443 0.03747,-0.03121 0.909079,-0.257992 1.606286,-0.229596 0.695855,0.02367 1.196959,0.267171 0.501114,0.243502 0.819748,0.677648 0.318634,0.434146 0.476671,0.991011 0.201273,0.70917 0.121363,1.333568 -0.07994,0.624403 -0.384608,1.12744 -0.299903,0.501687 -0.795278,0.858273 -0.489276,0.359997 -1.112775,0.536944 z m -1.639629,-2.424977 q 0.07298,0.25701 0.196864,0.49442 0.128727,0.236045 0.310533,0.405587 0.18659,0.168191 0.427717,0.238617 0.239782,0.06567 0.544389,-0.02078 0.21624,-0.07165 0.353753,-0.203252 0.140914,-0.137705 0.220732,-0.309501 0.07847,-0.176553 0.10464,-0.37427 0.03093,-0.199064 0.02112,-0.396847 -0.0065,-0.203888 -0.03874,-0.390152 -0.03238,-0.186251 -0.07414,-0.333813 -0.07027,-0.247491 -0.213929,-0.46386 -0.138934,-0.217715 -0.333042,-0.358058 -0.194117,-0.140337 -0.439361,-0.189023 -0.24185,-0.05475 -0.517888,0.02354 -0.285581,0.08104 -0.432091,0.307769 -0.147867,0.221963 -0.196615,0.50323 -0.04393,0.279908 -0.01799,0.570824 0.0246,0.28615 0.08413,0.495559 z"
           style="font-size:15.5168px;line-height:1.25;font-family:'Carter One';-inkscape-font-specification:'Carter One';fill:#ffffff;stroke-width:0.172773"
           id="path546" /><path
           d="m -83.020199,41.911481 q -0.0483,0.02914 -0.125869,0.08201 -0.07622,0.05763 -0.157128,0.0806 -0.06664,0.01887 -0.128447,4.39e-4 -0.05706,-0.0198 -0.08001,-0.100723 l -0.008,-0.02856 q -0.06529,-0.356902 -0.10227,-0.577834 -0.03837,-0.225687 -0.06185,-0.363017 -0.02358,-0.137314 -0.03295,-0.206653 -0.01071,-0.0741 -0.01742,-0.133907 -0.0081,-0.06457 -0.02358,-0.137313 -0.01071,-0.0741 -0.03295,-0.206653 -0.02358,-0.137312 -0.06529,-0.356902 -0.03837,-0.225686 -0.104971,-0.587353 -0.03499,-0.195787 -0.06864,-0.386809 -0.03024,-0.197138 -0.07481,-0.354201 -0.05673,-0.1999 -0.126456,-0.354971 -0.06632,-0.16118 -0.155847,-0.259199 -0.08612,-0.104133 -0.200225,-0.143747 -0.114103,-0.03962 -0.261646,0.0023 -0.09042,0.02566 -0.227172,0.105604 -0.13198,0.0786 -0.25116,0.220422 -0.120528,0.137065 -0.193595,0.332657 -0.07441,0.190834 -0.03884,0.443026 l 0.0054,0.01904 q 0.09687,0.558796 0.162732,0.972106 0.06924,0.407203 0.117002,0.702225 0.04773,0.295027 0.07797,0.492163 0.03499,0.195785 0.05857,0.333097 0.02218,0.132561 0.03696,0.220939 0.01954,0.08703 0.04115,0.163179 0.01084,0.03808 0.01887,0.06664 0.01158,0.02244 0.01693,0.04148 0.01084,0.03808 -0.01912,0.07744 -0.02655,0.03326 -0.139504,0.106448 l -1.026641,0.641071 q -0.0483,0.02914 -0.12587,0.08201 -0.07622,0.05763 -0.157128,0.0806 -0.06665,0.01887 -0.128446,4.39e-4 -0.05706,-0.0198 -0.08002,-0.100722 l -0.008,-0.02856 q -0.06529,-0.356902 -0.107035,-0.576484 -0.03837,-0.225686 -0.06185,-0.363016 -0.01873,-0.138677 -0.02819,-0.208001 -0.01071,-0.0741 -0.02218,-0.132561 -0.0081,-0.06457 -0.01873,-0.138678 -0.01071,-0.0741 -0.0377,-0.205299 -0.02358,-0.137314 -0.06529,-0.356903 -0.03837,-0.225686 -0.10498,-0.587353 -0.03499,-0.195785 -0.06864,-0.386809 -0.03024,-0.197136 -0.07481,-0.3542 -0.05674,-0.1999 -0.121702,-0.356321 -0.06632,-0.161179 -0.151086,-0.260551 -0.08136,-0.105486 -0.185946,-0.147801 -0.104582,-0.04233 -0.237849,-0.0045 -0.0952,0.02701 -0.248262,0.121888 -0.148315,0.09352 -0.283838,0.250265 -0.130758,0.155397 -0.207938,0.372728 -0.07377,0.211223 -0.01855,0.478404 0.06135,0.363087 0.102927,0.598222 0.03987,0.230427 0.06727,0.38205 0.02659,0.146787 0.04228,0.239989 0.01885,0.08717 0.03637,0.164536 -2.3e-5,0.02051 0.01681,0.113516 0.01498,0.08834 0.03576,0.216158 0.02392,0.121742 0.05051,0.268527 0.02974,0.14072 0.05527,0.267176 0.02393,0.121741 0.04061,0.214791 0.01885,0.08717 0.02467,0.106143 l 0.02429,0.08567 q 0.01404,0.04751 0.01814,0.08231 0.0044,0.03476 -0.01106,0.07 -0.01574,0.0353 -0.05656,0.07261 -0.03607,0.03595 -0.108886,0.08747 l -1.121385,0.796533 q -0.04688,0.03388 -0.124523,0.08677 -0.07755,0.05287 -0.158472,0.07583 -0.06667,0.01888 -0.128446,4.39e-4 -0.05708,-0.01979 -0.08007,-0.100712 l -0.949392,-4.976298 q -0.0307,-0.161055 -0.02775,-0.22359 0.0063,-0.06862 0.0865,-0.111982 0.408811,-0.20859 0.83665,-0.422583 0.426494,-0.21875 0.820438,-0.479695 0.03803,-0.01084 0.0469,0.0021 0.01223,0.0069 0.01895,0.03062 l 0.135351,0.712449 q 0.150442,-0.140409 0.339667,-0.307254 0.18787,-0.171603 0.400179,-0.32957 0.217078,-0.15932 0.448364,-0.286673 0.234697,-0.133461 0.472674,-0.200997 0.328408,-0.09321 0.647684,-0.01924 0.322679,0.06788 0.602153,0.363969 0.175008,-0.198808 0.379216,-0.385334 0.208968,-0.187875 0.432152,-0.343786 0.227943,-0.157261 0.46669,-0.276445 0.238747,-0.119189 0.476725,-0.186725 0.29985,-0.0851 0.590698,-0.07507 0.290848,0.01004 0.54137,0.149788 0.255281,0.13841 0.458659,0.420122 0.202027,0.276952 0.328996,0.724349 0.03242,0.114229 0.06277,0.239331 0.02899,0.120345 0.05119,0.252902 l 0.35918,2.099215 q 0.03295,0.206653 0.0768,0.379349 0.0425,0.16794 0.105992,0.391638 0.01084,0.03807 0.01887,0.06664 0.01158,0.02244 0.01693,0.04148 0.01225,0.04283 -0.01912,0.07745 -0.02655,0.03326 -0.139506,0.106447 z"
           style="font-size:15.5168px;line-height:1.25;font-family:'Carter One';-inkscape-font-specification:'Carter One';fill:#ffffff;stroke-width:0.172773"
           id="path543" /><path
           d="m -79.383596,34.954835 q 0.452157,-0.128323 0.867268,-0.06099 0.418519,0.06123 0.757287,0.258227 0.342177,0.190892 0.579514,0.483539 0.237339,0.292646 0.331891,0.625813 0.08374,0.295092 -0.01202,0.64627 -0.09712,0.34642 -0.357987,0.677598 -0.256112,0.329827 -0.671156,0.607044 -0.415041,0.277218 -0.962389,0.432552 -0.285573,0.08104 -0.615912,0.113072 0.07712,0.199257 0.218944,0.318438 0.141824,0.119177 0.321142,0.17115 0.179323,0.05196 0.383208,0.04554 0.207298,-0.01254 0.411959,-0.07063 0.228456,-0.06484 0.427072,-0.162342 0.202024,-0.103613 0.378255,-0.225633 0.176229,-0.122014 0.334128,-0.254253 0.157901,-0.132242 0.296763,-0.259079 0.04013,-0.02168 0.06734,-0.03454 0.03062,-0.01898 0.05918,-0.02708 0,0 0.01683,0.07752 0.02161,0.07616 0.06078,0.21418 0.03917,0.138026 0.08978,0.334523 0.05538,0.195141 0.118138,0.434473 0.02103,0.01975 0.03255,0.04218 0.01158,0.02244 0.01557,0.03672 0.01626,0.05712 -0.0696,0.153465 -0.08579,0.09635 -0.236881,0.216369 -0.146323,0.118666 -0.346352,0.247436 -0.195269,0.127414 -0.40411,0.243257 -0.207489,0.120596 -0.408804,0.208589 -0.199964,0.09275 -0.357029,0.13733 -0.51403,0.14588 -1.050831,0.102794 -0.530689,-0.03968 -1.001246,-0.26614 -0.465794,-0.227811 -0.824567,-0.64028 -0.358773,-0.41247 -0.527615,-1.007411 -0.176949,-0.623501 -0.116756,-1.226872 0.05885,-0.608128 0.329556,-1.122101 0.27547,-0.515321 0.747111,-0.901172 0.471642,-0.385851 1.118939,-0.569552 z m 0.302182,1.282246 q -0.195141,0.05538 -0.337412,0.188327 -0.138861,0.126838 -0.232314,0.323075 -0.09004,0.190126 -0.127859,0.437431 -0.03918,0.242544 -0.02675,0.521879 0.465918,-0.224797 0.762553,-0.411839 0.296634,-0.187041 0.46476,-0.337612 0.166776,-0.155331 0.220673,-0.273484 0.05255,-0.122913 0.02689,-0.213344 -0.02431,-0.08567 -0.112558,-0.142914 -0.08348,-0.05859 -0.194885,-0.0887 -0.111392,-0.03013 -0.233732,-0.02624 -0.118923,-0.0022 -0.209353,0.02344 z"
           style="font-size:15.5168px;line-height:1.25;font-family:'Carter One';-inkscape-font-specification:'Carter One';fill:#ffffff;stroke-width:0.172773"
           id="path540" /><path
           d="m -74.162679,40.920042 q -0.06046,-0.0137 -0.09783,-0.01855 -0.03125,-0.0015 -0.09647,-0.0138 -0.06046,-0.0137 -0.186129,-0.03978 -0.119577,-0.02259 -0.356643,-0.0788 -0.175276,-0.03766 -0.190127,-0.09004 -0.004,-0.01429 0.0034,-0.04211 0.07724,-0.253351 0.157255,-0.533201 0.08612,-0.276439 0.155253,-0.55835 l -0.405915,0.110037 -0.08568,0.0243 q -0.06663,0.01887 -0.112174,0.02151 -0.04419,0.0074 -0.05364,-0.02592 l -0.0026,-0.0095 q -0.03901,-0.210069 -0.06194,-0.326994 -0.01947,-0.123045 -0.03228,-0.186266 -0.01412,-0.06799 -0.02225,-0.09655 -0.0034,-0.02991 -0.0101,-0.05371 -0.002,-0.02513 -0.01141,-0.05847 -0.0047,-0.03467 -0.02292,-0.116928 -0.01823,-0.08225 -0.04786,-0.222992 -0.02619,-0.146846 -0.07339,-0.385459 -0.03505,-0.159767 -0.03357,-0.227043 0.0063,-0.06862 0.0892,-0.102464 0.214179,-0.06078 0.447397,-0.126968 0.231862,-0.07096 0.460319,-0.135797 0.231865,-0.07096 0.455562,-0.134442 0.228457,-0.06484 0.437879,-0.124267 0.08091,-0.02297 0.113328,0.09127 l 0.243908,1.185642 q 0.01679,0.113519 0.02277,0.188966 0.01071,0.0741 0.01407,0.140014 0.0067,0.05983 0.0039,0.122333 0.0019,0.06118 -2.5e-4,0.144072 -0.0097,0.07473 -0.04657,0.198361 -0.03554,0.128386 -0.08612,0.276439 -0.05055,0.14806 -0.110629,0.298824 -0.05397,0.154172 -0.103807,0.286604 -0.04849,0.137191 -0.08741,0.235662 -0.03891,0.09847 -0.04984,0.132433 -0.0089,0.02309 -0.02456,0.0584 -0.0096,0.03873 -0.03003,0.07539 -0.01912,0.04141 -0.04566,0.07467 -0.02657,0.03325 -0.05988,0.04272 -0.02379,0.0068 -0.05641,5.95e-4 z"
           style="font-size:15.5168px;line-height:1.25;font-family:'Carter One';-inkscape-font-specification:'Carter One';fill:#ffffff;stroke-width:0.172773"
           id="path537" /><path
           d="m -70.577536,39.852857 q 0.234327,-0.275945 0.453594,-0.532295 0.219264,-0.256348 0.423376,-0.499228 l 1.529458,-1.773621 q 0.182434,-0.197418 0.327617,-0.360833 0.147807,-0.16765 0.279598,-0.328602 0.138217,-0.162407 0.272467,-0.327739 0.141381,-0.166196 0.308751,-0.3686 -0.128465,-0.100888 -0.275777,-0.209563 -0.143339,-0.105724 -0.302602,-0.223181 l -0.768465,-0.566781 q -0.04379,-0.03227 -0.03235,-0.07296 0.01853,-0.04169 0.03907,-0.06957 l 0.02061,-0.02781 1.28668,-0.827666 0.0079,-0.01892 q 0.01428,-0.02022 0.04743,-0.0142 0.03956,0.0046 0.137081,0.06421 0.572958,0.37341 1.107147,0.724365 0.541099,0.349922 1.060425,0.696053 0.523287,0.349066 1.042598,0.695202 0.523287,0.349065 1.071508,0.722675 0.04775,0.03519 0.0908,0.08533 0.04689,0.05306 -0.0089,0.128712 -0.0056,0.008 -0.01594,0.01285 -0.0096,0.0053 -0.01594,0.01285 -0.184107,0.116264 -0.348507,0.222468 -0.160433,0.10913 -0.317893,0.214311 -0.157502,0.10515 -0.321897,0.211364 -0.160432,0.109129 -0.344525,0.225407 -0.0072,8.9e-4 -0.04524,0.02812 -0.03541,0.02305 -0.09162,0.0492 -0.05331,0.02218 -0.119537,0.02864 -0.06622,0.0065 -0.128911,-0.03359 -0.01694,-0.01871 -0.03687,-0.03339 -0.01992,-0.01468 -0.04379,-0.03227 l -1.063099,-0.78409 q -0.170063,0.188062 -0.356964,0.40066 -0.18349,0.215064 -0.365775,0.412615 l -2.584201,2.895302 q -0.03019,0.03305 -0.0688,0.05993 -0.03423,0.03007 -0.08991,0.0136 l -1.426352,-0.424952 q -0.05553,-0.01631 -0.144841,-0.04535 -0.08927,-0.02899 -0.156964,-0.07889 -0.05581,-0.04113 -0.07901,-0.101298 -0.01929,-0.05725 0.03658,-0.132891 z"
           style="font-size:15.5168px;line-height:1.25;font-family:'Carter One';-inkscape-font-specification:'Carter One';fill:#ffffff;stroke-width:0.172773"
           id="path534" /><path
           d="m -62.837788,44.128936 q -0.01594,0.01285 -0.02782,0.02863 -0.0085,0.01179 -0.01747,0.02404 -0.07375,0.09925 -0.0915,0.190715 -0.01521,0.08718 -0.01161,0.157445 0.01067,0.06913 0.02178,0.120574 0.01424,0.04738 -4.27e-4,0.06729 -0.04123,0.05562 -0.195801,0.01545 l -1.408785,-0.332081 q -0.0072,8.9e-4 -0.03082,-0.01661 -0.03186,-0.02348 -0.0226,-0.102732 0.0093,-0.07921 0.04205,-0.190305 0.03382,-0.104155 0.07635,-0.220311 0.04951,-0.117179 0.09131,-0.215441 -0.465218,0.105649 -0.855729,0.02664 -0.390507,-0.079 -0.677189,-0.290444 -0.334454,-0.246678 -0.544334,-0.62894 -0.209878,-0.38225 -0.257051,-0.835082 -0.04419,-0.456811 0.08933,-0.954618 0.137533,-0.494884 0.492878,-0.976664 0.419943,-0.569381 0.929725,-0.918807 0.513758,-0.346494 1.046061,-0.476441 0.532319,-0.129934 1.04169,-0.03704 0.516282,0.09185 0.938335,0.403134 0.298626,0.220252 0.474365,0.540442 0.178662,0.316209 0.276606,0.683523 0.111999,-0.101827 0.168856,-0.170546 0.05681,-0.06873 0.09814,-0.09975 0.04524,-0.02812 0.09395,-0.01064 0.05157,0.01347 0.149012,0.07302 0.316042,0.171622 0.622232,0.348271 0.31312,0.175605 0.635432,0.388739 z m -0.0834,-2.379148 q 0.207203,-0.197594 0.365965,-0.387881 0.166032,-0.191036 0.297055,-0.352629 -0.02848,-0.09476 -0.06596,-0.202321 -0.03353,-0.104631 -0.08877,-0.213016 -0.0484,-0.109462 -0.123373,-0.207802 -0.07098,-0.09541 -0.174547,-0.171778 -0.215013,-0.158577 -0.465117,-0.127877 -0.246119,0.03363 -0.487477,0.169158 -0.237397,0.138425 -0.444562,0.33605 -0.203252,0.200507 -0.33247,0.375696 -0.463968,0.629128 -0.518066,1.044147 -0.04713,0.413999 0.247489,0.63132 0.119429,0.08813 0.316699,0.129069 0.19724,0.041 0.436645,0.03312 z"
           style="font-size:15.5168px;line-height:1.25;font-family:'Carter One';-inkscape-font-specification:'Carter One';fill:#ffffff;stroke-width:0.172773"
           id="path531" /><path
           d="m -61.175541,43.984012 q 0.45409,-0.507304 0.899379,-1.002663 0.445285,-0.495355 0.899186,-1.027396 0.104879,-0.125519 0.156022,-0.161573 0.05807,-0.03709 0.141503,-1.33e-4 0.388353,0.181927 0.811509,0.383367 0.426095,0.197466 0.85766,0.337486 0.01485,0.0049 0.03872,0.02243 0.04379,0.03227 0.02032,0.06412 l -3.218671,3.613836 q -0.10887,0.122574 -0.162982,0.162577 -0.05118,0.03601 -0.134592,-9.37e-4 -0.414798,-0.14609 -0.855174,-0.274174 -0.440368,-0.128079 -0.923513,-0.281543 -0.01484,-0.0049 -0.03872,-0.02243 -0.04379,-0.03227 -0.01445,-0.07209 0.0027,-0.0039 0.08736,-0.101504 0.08422,-0.09774 0.216872,-0.251923 0.136681,-0.151206 0.302023,-0.34282 0.166032,-0.191037 0.331299,-0.382718 0.169294,-0.188703 0.323663,-0.363744 0.154136,-0.175229 0.262775,-0.298 z m 2.642093,-2.957113 q 0.138218,-0.162408 0.209752,-0.25104 0.0755,-0.08574 0.112038,-0.12637 0.03896,-0.0451 0.04805,-0.05678 0.0085,-0.01179 0.0119,-0.01583 0.0096,-0.0053 0.02149,-0.02105 0.01909,-0.01662 0.0636,-0.06993 0.04805,-0.05678 0.138213,-0.162402 0.09055,-0.105324 0.25025,-0.288774 0.104879,-0.12552 0.156021,-0.161574 0.05814,-0.03702 0.141503,-1.32e-4 0.388367,0.181927 0.811517,0.383371 0.426099,0.197463 0.857665,0.337483 0.01485,0.0049 0.03872,0.02243 -0.0053,0.03268 0.008,0.05537 l 0.0059,0.01678 -0.892224,1.02639 q -0.10887,0.122576 -0.166933,0.159664 -0.05414,0.04002 -0.130582,0.0021 -0.385428,-0.185914 -0.787639,-0.365754 -0.402197,-0.179841 -0.844209,-0.389044 -0.01485,-0.0049 -0.03872,-0.02243 -0.04379,-0.03227 -0.01445,-0.0721 z"
           style="font-size:15.5168px;line-height:1.25;font-family:'Carter One';-inkscape-font-specification:'Carter One';fill:#ffffff;stroke-width:0.172773"
           id="path528" /><path
           d="m -54.621311,45.16642 q 0.04431,-0.03498 0.108811,-0.0058 0.375375,0.166203 0.769611,0.340165 0.39424,0.173972 0.787033,0.291543 0.05581,0.04113 0.02635,0.08094 l -1.59669,3.01503 2.76331,-2.154585 q 0.04524,-0.02812 0.08906,0.0043 0.01197,0.0088 0.01306,0.01573 0.0041,0.0029 0.01598,0.01172 0.21346,0.335724 0.472224,0.643373 0.261689,0.303663 0.522332,0.600419 0.06389,0.0717 0.01065,0.143415 -0.03809,0.05185 -0.165207,0.124053 l -3.901617,2.606027 q -0.08179,0.04412 -0.140914,0.07436 -0.05623,0.02615 -0.100631,0.03643 -0.04154,0.0062 -0.0811,0.0016 -0.03671,-0.0086 -0.08241,-0.03002 -0.349602,-0.159483 -0.715973,-0.312895 -0.366359,-0.153411 -0.785976,-0.284619 -0.0083,-0.0059 -0.01196,-0.0088 -0.0072,8.9e-4 -0.01044,-0.0015 l -0.02783,-0.0205 q -0.01992,-0.01468 -0.02012,-0.0394 -0.0031,-0.02077 0.0022,-0.03563 0.08251,-0.203494 0.214678,-0.499456 0.132206,-0.295941 0.297563,-0.653497 0.165354,-0.357556 0.355051,-0.764782 0.189691,-0.407233 0.390086,-0.837302 l -1.81837,1.406839 q -0.07275,0.057 -0.131907,0.08714 -0.05226,0.02904 -0.100632,0.03643 -0.0455,0.0033 -0.08617,-0.0082 -0.04066,-0.01155 -0.08635,-0.03294 -0.34666,-0.163459 -0.71302,-0.316868 -0.369304,-0.149429 -0.788929,-0.280647 -0.0083,-0.0059 -0.01197,-0.0088 -0.0072,8.9e-4 -0.01044,-0.0015 l -0.02783,-0.0205 q -0.01992,-0.01468 -0.02406,-0.04233 -0.0031,-0.02077 0.0053,-0.03268 0.07351,-0.216285 0.198553,-0.535938 0.12802,-0.323617 0.288154,-0.715762 0.16705,-0.393192 0.358434,-0.836061 0.191392,-0.442862 0.387605,-0.900609 0.196226,-0.457746 0.386568,-0.907526 0.197262,-0.450829 0.369133,-0.858907 0.01911,-0.08426 0.04446,-0.127046 0.0285,-0.04661 0.04889,-0.07462 0.04123,-0.05562 0.116525,-0.02472 0.3605,0.161379 0.747816,0.336389 0.390261,0.171029 0.774047,0.275814 0.01485,0.0049 0.03872,0.02243 0.05171,0.03823 0.02635,0.08093 l -1.586235,3.084218 z"
           style="font-size:15.5168px;line-height:1.25;font-family:'Carter One';-inkscape-font-specification:'Carter One';fill:#ffffff;stroke-width:0.172773"
           id="path525" /><path
           d="m -48.754651,54.515987 q -0.01573,0.01306 -0.02751,0.02889 -0.0085,0.01193 -0.01761,0.02391 -0.07337,0.09957 -0.09149,0.19072 -0.01522,0.08722 -0.01163,0.157435 0.01071,0.06923 0.02175,0.120548 0.01425,0.0474 -4.12e-4,0.06732 -0.04109,0.05576 -0.195806,0.01545 l -1.40878,-0.332074 q -0.007,10e-4 -0.03081,-0.0166 -0.03179,-0.02355 -0.0226,-0.102732 0.0093,-0.07921 0.04202,-0.190327 0.0338,-0.104167 0.07638,-0.22028 0.04953,-0.11717 0.09128,-0.215465 -0.465216,0.105622 -0.855727,0.0266 -0.390513,-0.07902 -0.677188,-0.290445 -0.334455,-0.246678 -0.544341,-0.628933 -0.209867,-0.382262 -0.257046,-0.835087 -0.04418,-0.456805 0.08933,-0.954618 0.137534,-0.494884 0.492866,-0.976664 0.419943,-0.569382 0.929726,-0.918808 0.513758,-0.346495 1.046073,-0.476439 0.532318,-0.129934 1.041691,-0.03704 0.51627,0.09185 0.938334,0.403134 0.298626,0.220252 0.474353,0.540441 0.17867,0.316207 0.276609,0.683528 0.111999,-0.101828 0.168839,-0.170559 0.05685,-0.06872 0.09816,-0.09974 0.04529,-0.0281 0.09391,-0.01062 0.05157,0.01347 0.149014,0.07302 0.316045,0.171625 0.622237,0.348276 0.313108,0.175609 0.635427,0.388738 z m -0.08341,-2.379147 q 0.207207,-0.197582 0.365986,-0.387857 0.165725,-0.191295 0.296978,-0.352695 -0.02849,-0.09477 -0.06596,-0.202322 -0.03351,-0.104618 -0.08877,-0.213029 -0.0484,-0.109448 -0.123378,-0.207806 -0.07098,-0.09541 -0.174538,-0.17177 -0.215012,-0.158577 -0.465112,-0.127886 -0.24613,0.03363 -0.487477,0.169159 -0.237321,0.138489 -0.444572,0.336047 -0.203248,0.200502 -0.332467,0.375691 -0.463969,0.629128 -0.518066,1.044147 -0.04712,0.414008 0.24749,0.631317 0.119471,0.08804 0.316691,0.129068 0.197258,0.04091 0.436652,0.03309 z"
           style="font-size:15.5168px;line-height:1.25;font-family:'Carter One';-inkscape-font-specification:'Carter One';fill:#ffffff;stroke-width:0.172773"
           id="path522" /><path
           d="m -45.242034,58.563726 q -0.05261,-0.02032 -0.1419,-0.04931 -0.09223,-0.02503 -0.159915,-0.07489 -0.05575,-0.04108 -0.07899,-0.101294 -0.01927,-0.05725 0.03066,-0.124931 l 0.0176,-0.02389 q 0.182472,-0.197387 0.307058,-0.332953 0.127496,-0.139582 0.227567,-0.250204 0.106967,-0.111684 0.203026,-0.225263 0.102993,-0.114605 0.236376,-0.262141 0.136295,-0.151525 0.317752,-0.355807 0.188343,-0.205354 0.463941,-0.512344 0.169678,-0.188382 0.34125,-0.387662 0.171595,-0.19926 0.303748,-0.378431 0.08813,-0.119428 0.141613,-0.233669 0.06043,-0.115272 0.06551,-0.222183 0.012,-0.107949 -0.03827,-0.206505 -0.05025,-0.09856 -0.173694,-0.189592 -0.0916,-0.06749 -0.284194,-0.148129 -0.188635,-0.07766 -0.415442,-0.103544 -0.226817,-0.02581 -0.461822,0.03464 -0.232092,0.05623 -0.409531,0.263541 -0.24121,0.277012 -0.416759,0.473361 -0.172613,0.192366 -0.297196,0.327944 -0.121627,0.131614 -0.201137,0.214356 -0.0755,0.08574 -0.126476,0.146472 -0.01573,0.01306 -0.07658,0.07876 -0.06083,0.06583 -0.146185,0.156534 -0.08135,0.09369 -0.175549,0.19635 -0.09016,0.105637 -0.175543,0.196343 -0.08135,0.09369 -0.142173,0.159497 -0.05685,0.06872 -0.06861,0.08466 -0.02354,0.03177 -0.0411,0.05578 -0.01067,0.0228 -0.02535,0.04284 -0.02353,0.03177 -0.07294,0.03233 -0.04256,-7.14e-4 -0.166638,-0.0491 l -1.322372,-0.415894 q -0.05554,-0.01642 -0.144838,-0.04536 -0.08927,-0.02899 -0.156981,-0.07886 -0.05576,-0.04109 -0.079,-0.101286 -0.01928,-0.05726 0.03069,-0.124934 l 3.363628,-3.802017 q 0.108871,-0.122575 0.160026,-0.158616 0.05809,-0.03704 0.141503,-1.33e-4 0.415192,0.195568 0.850292,0.405823 0.438036,0.206268 0.885531,0.358035 0.03189,0.0235 0.02703,0.03842 0.0021,0.01382 -0.01259,0.03372 -0.0059,0.0083 -0.02158,0.02101 -0.01172,0.01595 -0.06483,0.06282 -0.04908,0.04988 -0.154155,0.150649 -0.09816,0.09976 -0.27978,0.279313 0.392202,0.04338 0.701582,0.124006 0.316298,0.07957 0.565503,0.183479 0.25612,0.102841 0.455008,0.22493 0.201821,0.11812 0.36507,0.238527 0.561414,0.414071 0.563684,0.944435 0.0052,0.526388 -0.496964,1.207256 -0.07045,0.09561 -0.150859,0.196112 -0.07738,0.09658 -0.168661,0.195279 l -1.445928,1.577023 q -0.143251,0.152552 -0.252956,0.292951 -0.106755,0.13643 -0.2448,0.323547 -0.0235,0.03189 -0.0411,0.05577 -0.01067,0.0228 -0.02246,0.03874 -0.02642,0.03585 -0.07294,0.03233 -0.04256,-7.14e-4 -0.169573,-0.04513 z"
           style="font-size:15.5168px;line-height:1.25;font-family:'Carter One';-inkscape-font-specification:'Carter One';fill:#ffffff;stroke-width:0.172773"
           id="path519" /></g></g></g></svg>
