<?xml version="1.0" encoding="UTF-8" standalone="no"?>
<!-- Created with Inkscape (http://www.inkscape.org/) -->

<svg
   width="237.08359"
   height="146.19348"
   viewBox="0 0 62.728363 38.680359"
   version="1.1"
   id="svg5"
   inkscape:version="1.2 (dc2aedaf03, 2022-05-15)"
   sodipodi:docname="Scene 7.svg"
   xmlns:inkscape="http://www.inkscape.org/namespaces/inkscape"
   xmlns:sodipodi="http://sodipodi.sourceforge.net/DTD/sodipodi-0.dtd"
   xmlns="http://www.w3.org/2000/svg"
   xmlns:svg="http://www.w3.org/2000/svg">
  <sodipodi:namedview
     id="namedview7"
     pagecolor="#ffffff"
     bordercolor="#666666"
     borderopacity="1.0"
     inkscape:showpageshadow="2"
     inkscape:pageopacity="0.0"
     inkscape:pagecheckerboard="0"
     inkscape:deskcolor="#d1d1d1"
     inkscape:document-units="mm"
     showgrid="true"
     inkscape:zoom="1.4142136"
     inkscape:cx="1384.1615"
     inkscape:cy="492.49987"
     inkscape:window-width="1920"
     inkscape:window-height="991"
     inkscape:window-x="-9"
     inkscape:window-y="-9"
     inkscape:window-maximized="1"
     inkscape:current-layer="g6740">
    <inkscape:grid
       type="axonomgrid"
       id="grid1326"
       snapvisiblegridlinesonly="false"
       units="px"
       spacingy="2.6458333"
       originx="169.33333"
       originy="95.25" />
  </sodipodi:namedview>
  <defs
     id="defs2" />
  <g
     inkscape:groupmode="layer"
     id="layer3"
     inkscape:label="scene 3"
     transform="matrix(0.10379619,0,0,0.10379619,-201.9166,-114.21742)">
    <g
       id="g6740"
       transform="matrix(13.564821,0,0,13.564821,466.95107,-1367.1742)"
       inkscape:label="Computer">
      <g
         aria-label="Press Enter..."
         transform="matrix(0.87711176,0.47449975,-0.32331266,0.96519994,0,0)"
         id="text7233-7-6"
         style="font-size:6.25037px;font-family:'Nunito Sans';-inkscape-font-specification:'Nunito Sans, Normal';fill:#ffffff;stroke-width:0.334839">
        <path
           d="m 166.18616,109.63947 v 0.64396 h 0.63175 q 0.22584,0 0.32045,0.0885 0.0977,0.0855 0.0977,0.22585 0,0.13733 -0.0977,0.22584 -0.0946,0.0854 -0.32045,0.0854 h -1.35506 q -0.22585,0 -0.32351,-0.0854 -0.0946,-0.0885 -0.0946,-0.2289 0,-0.13733 0.0977,-0.22279 0.0977,-0.0885 0.32046,-0.0885 h 0.0977 v -2.44766 h -0.0977 q -0.22585,0 -0.32351,-0.0854 -0.0946,-0.0885 -0.0946,-0.2289 0,-0.14039 0.0946,-0.22584 0.0977,-0.0885 0.32351,-0.0885 l 1.44051,0.003 q 0.6348,0 1.00409,0.34792 0.37234,0.34487 0.37234,0.84234 0,0.27467 -0.12513,0.51883 -0.0946,0.18312 -0.31741,0.36318 -0.21974,0.17701 -0.45168,0.26857 -0.2289,0.0885 -0.60734,0.0885 z m 0,-0.62565 h 0.57986 q 0.40896,0 0.64701,-0.18312 0.24111,-0.18617 0.24111,-0.44558 0,-0.21974 -0.19533,-0.38454 -0.19227,-0.16481 -0.5524,-0.16481 h -0.72025 z"
           style="-inkscape-font-specification:'Courier New Bold';fill:#ff5555"
           id="path8149" />
        <path
           d="m 170.16893,108.13791 v 0.39065 q 0.3937,-0.28383 0.61955,-0.37844 0.22889,-0.0946 0.42727,-0.0946 0.30519,0 0.59208,0.22584 0.19532,0.1526 0.19532,0.3113 0,0.13429 -0.0946,0.2289 -0.0916,0.0916 -0.22279,0.0916 -0.11598,0 -0.24416,-0.11598 -0.12818,-0.11597 -0.22889,-0.11597 -0.13124,0 -0.3937,0.1648 -0.25942,0.16481 -0.65007,0.49442 v 0.94305 h 0.89117 q 0.22584,0 0.32045,0.0885 0.0977,0.0855 0.0977,0.22585 0,0.13733 -0.0977,0.22584 -0.0946,0.0854 -0.32045,0.0854 h -1.88915 q -0.22584,0 -0.3235,-0.0854 -0.0946,-0.0885 -0.0946,-0.2289 0,-0.13733 0.0946,-0.22279 0.0977,-0.0885 0.3235,-0.0885 h 0.37234 v -1.51987 h -0.22585 q -0.22584,0 -0.3235,-0.0854 -0.0946,-0.0885 -0.0946,-0.2289 0,-0.13734 0.0946,-0.22279 0.0977,-0.0885 0.3235,-0.0885 z"
           style="-inkscape-font-specification:'Courier New Bold';fill:#ff5555"
           id="path8151" />
        <path
           d="m 175.6197,109.84089 h -2.56668 q 0.0977,0.24416 0.34487,0.3937 0.25025,0.14955 0.67447,0.14955 0.34793,0 0.92474,-0.14955 0.23805,-0.061 0.32961,-0.061 0.12513,0 0.21058,0.0885 0.0855,0.0885 0.0855,0.22279 0,0.12208 -0.0916,0.20754 -0.12208,0.11292 -0.59513,0.21668 -0.47305,0.10072 -0.90947,0.10072 -0.75078,0 -1.20247,-0.42422 -0.44863,-0.42422 -0.44863,-1.04377 0,-0.65921 0.48525,-1.07123 0.48831,-0.41506 1.12312,-0.41506 0.38149,0 0.69889,0.13429 0.32046,0.13428 0.4761,0.28993 0.21974,0.22584 0.36318,0.5585 0.0977,0.23195 0.0977,0.53715 z m -0.69279,-0.62564 q -0.14344,-0.26857 -0.37539,-0.39981 -0.23195,-0.13428 -0.5524,-0.13428 -0.3174,0 -0.54935,0.13428 -0.23195,0.13124 -0.37844,0.39981 z"
           style="-inkscape-font-specification:'Courier New Bold';fill:#ff5555"
           id="path8153" />
        <path
           d="m 178.47631,108.87038 q -0.1526,-0.0946 -0.32045,-0.14039 -0.16786,-0.0488 -0.35098,-0.0488 -0.36318,0 -0.57681,0.11902 -0.0946,0.0519 -0.0946,0.11293 0,0.0702 0.12818,0.13733 0.0977,0.0488 0.43643,0.0946 0.62259,0.0855 0.86675,0.17091 0.32045,0.11292 0.49441,0.33571 0.17396,0.2228 0.17396,0.47 0,0.33572 -0.29604,0.56156 -0.42422,0.32656 -1.10175,0.32656 -0.27162,0 -0.50357,-0.0488 -0.22889,-0.0458 -0.42116,-0.13734 -0.0458,0.0397 -0.0977,0.061 -0.0519,0.0214 -0.10681,0.0214 -0.1465,0 -0.235,-0.0946 -0.0855,-0.0977 -0.0855,-0.3235 v -0.21059 q 0,-0.22584 0.0855,-0.32045 0.0885,-0.0977 0.22889,-0.0977 0.11292,0 0.18922,0.0641 0.0763,0.061 0.11903,0.21363 0.14344,0.12208 0.34487,0.18617 0.20143,0.061 0.46389,0.061 0.43033,0 0.66838,-0.13429 0.11292,-0.0671 0.11292,-0.14039 0,-0.12207 -0.16175,-0.20142 -0.16176,-0.0794 -0.66838,-0.13429 -0.75383,-0.0794 -1.00714,-0.30519 -0.25331,-0.22279 -0.25331,-0.54935 0,-0.33571 0.28383,-0.55851 0.38455,-0.30519 1.00714,-0.30519 0.21669,0 0.41506,0.0427 0.20143,0.0397 0.38455,0.12513 0.058,-0.0427 0.10682,-0.0641 0.0519,-0.0214 0.0946,-0.0214 0.12818,0 0.21363,0.0977 0.0855,0.0946 0.0855,0.32046 v 0.1526 q 0,0.20448 -0.0488,0.27772 -0.0977,0.14039 -0.26552,0.14039 -0.11292,0 -0.19838,-0.0702 -0.0855,-0.0702 -0.10987,-0.18617 z"
           style="-inkscape-font-specification:'Courier New Bold';fill:#ff5555"
           id="path8155" />
        <path
           d="m 182.22714,108.87038 q -0.15259,-0.0946 -0.32045,-0.14039 -0.16786,-0.0488 -0.35097,-0.0488 -0.36318,0 -0.57682,0.11902 -0.0946,0.0519 -0.0946,0.11293 0,0.0702 0.12818,0.13733 0.0977,0.0488 0.43643,0.0946 0.62259,0.0855 0.86675,0.17091 0.32045,0.11292 0.49441,0.33571 0.17396,0.2228 0.17396,0.47 0,0.33572 -0.29603,0.56156 -0.42422,0.32656 -1.10175,0.32656 -0.27163,0 -0.50357,-0.0488 -0.2289,-0.0458 -0.42117,-0.13734 -0.0458,0.0397 -0.0977,0.061 -0.0519,0.0214 -0.10682,0.0214 -0.14649,0 -0.235,-0.0946 -0.0854,-0.0977 -0.0854,-0.3235 v -0.21059 q 0,-0.22584 0.0854,-0.32045 0.0885,-0.0977 0.2289,-0.0977 0.11292,0 0.18922,0.0641 0.0763,0.061 0.11902,0.21363 0.14344,0.12208 0.34487,0.18617 0.20143,0.061 0.46389,0.061 0.43033,0 0.66838,-0.13429 0.11292,-0.0671 0.11292,-0.14039 0,-0.12207 -0.16175,-0.20142 -0.16175,-0.0794 -0.66838,-0.13429 -0.75382,-0.0794 -1.00714,-0.30519 -0.25331,-0.22279 -0.25331,-0.54935 0,-0.33571 0.28383,-0.55851 0.38455,-0.30519 1.00714,-0.30519 0.21669,0 0.41507,0.0427 0.20142,0.0397 0.38454,0.12513 0.058,-0.0427 0.10682,-0.0641 0.0519,-0.0214 0.0946,-0.0214 0.12818,0 0.21363,0.0977 0.0855,0.0946 0.0855,0.32046 v 0.1526 q 0,0.20448 -0.0488,0.27772 -0.0977,0.14039 -0.26552,0.14039 -0.11292,0 -0.19838,-0.0702 -0.0854,-0.0702 -0.10987,-0.18617 z"
           style="-inkscape-font-specification:'Courier New Bold';fill:#ff5555"
           id="path8157" />
        <path
           d="m 188.41037,109.36479 v 0.91864 h 1.59616 v -0.33877 q 0,-0.22584 0.0855,-0.32045 0.0885,-0.0977 0.22889,-0.0977 0.13734,0 0.2228,0.0977 0.0885,0.0946 0.0885,0.32045 v 0.96441 h -2.94512 q -0.22584,0 -0.3235,-0.0854 -0.0946,-0.0885 -0.0946,-0.2289 0,-0.13733 0.0977,-0.22279 0.0977,-0.0885 0.32045,-0.0885 h 0.0977 v -2.44766 h -0.0977 q -0.22584,0 -0.3235,-0.0854 -0.0946,-0.0885 -0.0946,-0.2289 0,-0.14039 0.0946,-0.22584 0.0977,-0.0885 0.3235,-0.0885 l 2.80778,0.003 v 0.95221 q 0,0.22279 -0.0855,0.32045 -0.0855,0.0946 -0.22584,0.0946 -0.14039,0 -0.2289,-0.0946 -0.0854,-0.0946 -0.0854,-0.32045 v -0.32656 h -1.45883 v 0.90337 h 0.54935 q 0,-0.24415 0.0458,-0.31435 0.0946,-0.14954 0.26857,-0.14954 0.13734,0 0.22279,0.0977 0.0885,0.0946 0.0885,0.32046 v 0.72025 q 0,0.20448 -0.0488,0.27468 -0.0977,0.14344 -0.26247,0.14344 -0.17396,0 -0.26857,-0.14955 -0.0458,-0.0702 -0.0458,-0.3174 z"
           style="-inkscape-font-specification:'Courier New Bold';fill:#ff5555"
           id="path8159" />
        <path
           d="m 192.17036,108.13791 v 0.21059 q 0.17091,-0.1465 0.37539,-0.21974 0.20753,-0.0733 0.44863,-0.0733 0.55546,0 0.87896,0.34487 0.25636,0.27467 0.25636,0.72026 v 1.16279 q 0.19838,0 0.29299,0.0885 0.0946,0.0855 0.0946,0.22585 0,0.13733 -0.0977,0.22584 -0.0946,0.0854 -0.32046,0.0854 h -0.5646 q -0.22585,0 -0.32351,-0.0854 -0.0946,-0.0885 -0.0946,-0.2289 0,-0.13733 0.0946,-0.22279 0.0946,-0.0885 0.29299,-0.0885 v -1.1811 q 0,-0.20448 -0.10987,-0.29909 -0.14344,-0.12208 -0.43033,-0.12208 -0.21668,0 -0.38149,0.0854 -0.16175,0.0824 -0.41201,0.35403 v 1.16279 q 0.2411,0 0.3113,0.0458 0.14954,0.0916 0.14954,0.26858 0,0.13733 -0.0977,0.22584 -0.0946,0.0854 -0.32045,0.0854 h -0.7111 q -0.22585,0 -0.32351,-0.0854 -0.0946,-0.0885 -0.0946,-0.2289 0,-0.17091 0.14649,-0.26552 0.0733,-0.0458 0.31435,-0.0458 v -1.51987 q -0.19837,0 -0.29298,-0.0885 -0.0946,-0.0885 -0.0946,-0.22584 0,-0.13734 0.0946,-0.22279 0.0977,-0.0885 0.3235,-0.0885 z"
           style="-inkscape-font-specification:'Courier New Bold';fill:#ff5555"
           id="path8161" />
        <path
           d="m 196.40035,108.76356 v 1.25435 q 0,0.20142 0.0824,0.26552 0.12818,0.10071 0.45779,0.10071 0.47915,0 0.88506,-0.20448 0.15565,-0.0794 0.24416,-0.0794 0.12207,0 0.21058,0.0916 0.0916,0.0916 0.0916,0.22279 0,0.12208 -0.0977,0.21058 -0.14955,0.14344 -0.59208,0.26552 -0.43948,0.11903 -0.74162,0.11903 -0.58292,0 -0.87591,-0.25026 -0.28993,-0.25331 -0.28993,-0.61955 v -1.37642 h -0.22585 q -0.22584,0 -0.3235,-0.0854 -0.0946,-0.0885 -0.0946,-0.2289 0,-0.13734 0.0946,-0.22279 0.0977,-0.0885 0.3235,-0.0885 h 0.22585 v -0.56461 q 0,-0.22584 0.0855,-0.32045 0.0885,-0.0977 0.2289,-0.0977 0.13734,0 0.22279,0.0977 0.0885,0.0946 0.0885,0.32045 v 0.56461 h 1.15668 q 0.22584,0 0.32045,0.0885 0.0977,0.0854 0.0977,0.22584 0,0.13734 -0.0977,0.22585 -0.0946,0.0854 -0.32045,0.0854 z"
           style="-inkscape-font-specification:'Courier New Bold';fill:#ff5555"
           id="path8163" />
        <path
           d="m 201.87552,109.84089 h -2.56668 q 0.0977,0.24416 0.34487,0.3937 0.25026,0.14955 0.67448,0.14955 0.34792,0 0.92474,-0.14955 0.23805,-0.061 0.32961,-0.061 0.12513,0 0.21058,0.0885 0.0855,0.0885 0.0855,0.22279 0,0.12208 -0.0916,0.20754 -0.12208,0.11292 -0.59513,0.21668 -0.47305,0.10072 -0.90948,0.10072 -0.75077,0 -1.20246,-0.42422 -0.44864,-0.42422 -0.44864,-1.04377 0,-0.65921 0.48526,-1.07123 0.48831,-0.41506 1.12312,-0.41506 0.38149,0 0.69889,0.13429 0.32045,0.13428 0.4761,0.28993 0.21974,0.22584 0.36318,0.5585 0.0977,0.23195 0.0977,0.53715 z m -0.69279,-0.62564 q -0.14344,-0.26857 -0.37538,-0.39981 -0.23195,-0.13428 -0.5524,-0.13428 -0.31741,0 -0.54935,0.13428 -0.23195,0.13124 -0.37844,0.39981 z"
           style="-inkscape-font-specification:'Courier New Bold';fill:#ff5555"
           id="path8165" />
        <path
           d="m 203.92643,108.13791 v 0.39065 q 0.3937,-0.28383 0.61954,-0.37844 0.2289,-0.0946 0.42727,-0.0946 0.3052,0 0.59208,0.22584 0.19532,0.1526 0.19532,0.3113 0,0.13429 -0.0946,0.2289 -0.0916,0.0916 -0.22279,0.0916 -0.11597,0 -0.24416,-0.11598 -0.12818,-0.11597 -0.22889,-0.11597 -0.13123,0 -0.3937,0.1648 -0.25942,0.16481 -0.65006,0.49442 v 0.94305 h 0.89116 q 0.22585,0 0.32046,0.0885 0.0977,0.0855 0.0977,0.22585 0,0.13733 -0.0977,0.22584 -0.0946,0.0854 -0.32046,0.0854 h -1.88915 q -0.22584,0 -0.3235,-0.0854 -0.0946,-0.0885 -0.0946,-0.2289 0,-0.13733 0.0946,-0.22279 0.0977,-0.0885 0.3235,-0.0885 h 0.37234 v -1.51987 h -0.22584 q -0.22585,0 -0.32351,-0.0854 -0.0946,-0.0885 -0.0946,-0.2289 0,-0.13734 0.0946,-0.22279 0.0977,-0.0885 0.32351,-0.0885 z"
           style="-inkscape-font-specification:'Courier New Bold';fill:#ff5555"
           id="path8167" />
        <path
           d="m 208.28459,110.59472 q 0,0.17702 -0.12513,0.29604 -0.12513,0.11903 -0.34486,0.11903 -0.21974,0 -0.34487,-0.11903 -0.12513,-0.11902 -0.12513,-0.29604 0,-0.17701 0.12513,-0.29603 0.12513,-0.11903 0.34487,-0.11903 0.21973,0 0.34486,0.11903 0.12513,0.11902 0.12513,0.29603 z"
           style="-inkscape-font-specification:'Courier New Bold';fill:#ff5555"
           id="path8169" />
        <path
           d="m 212.03543,110.59472 q 0,0.17702 -0.12513,0.29604 -0.12513,0.11903 -0.34487,0.11903 -0.21974,0 -0.34487,-0.11903 -0.12513,-0.11902 -0.12513,-0.29604 0,-0.17701 0.12513,-0.29603 0.12513,-0.11903 0.34487,-0.11903 0.21974,0 0.34487,0.11903 0.12513,0.11902 0.12513,0.29603 z"
           style="-inkscape-font-specification:'Courier New Bold';fill:#ff5555"
           id="path8171" />
        <path
           d="m 215.78626,110.59472 q 0,0.17702 -0.12513,0.29604 -0.12513,0.11903 -0.34487,0.11903 -0.21974,0 -0.34487,-0.11903 -0.12513,-0.11902 -0.12513,-0.29604 0,-0.17701 0.12513,-0.29603 0.12513,-0.11903 0.34487,-0.11903 0.21974,0 0.34487,0.11903 0.12513,0.11902 0.12513,0.29603 z"
           style="-inkscape-font-specification:'Courier New Bold';fill:#ff5555"
           id="path8173" />
      </g>
    </g>
  </g>
</svg>
