<?xml version="1.0" encoding="UTF-8" standalone="no"?>
<!-- Created with Inkscape (http://www.inkscape.org/) -->

<svg
   width="207.78639"
   height="197.3428"
   viewBox="0 0 54.976814 52.213617"
   version="1.1"
   id="svg5"
   inkscape:version="1.2 (dc2aedaf03, 2022-05-15)"
   sodipodi:docname="Scene 2.svg"
   xml:space="preserve"
   xmlns:inkscape="http://www.inkscape.org/namespaces/inkscape"
   xmlns:sodipodi="http://sodipodi.sourceforge.net/DTD/sodipodi-0.dtd"
   xmlns="http://www.w3.org/2000/svg"
   xmlns:svg="http://www.w3.org/2000/svg"><sodipodi:namedview
     id="namedview7"
     pagecolor="#ffffff"
     bordercolor="#666666"
     borderopacity="1.0"
     inkscape:showpageshadow="2"
     inkscape:pageopacity="0.0"
     inkscape:pagecheckerboard="0"
     inkscape:deskcolor="#d1d1d1"
     inkscape:document-units="mm"
     showgrid="true"
     inkscape:zoom="1.4324916"
     inkscape:cx="820.5982"
     inkscape:cy="427.57669"
     inkscape:window-width="1920"
     inkscape:window-height="991"
     inkscape:window-x="-9"
     inkscape:window-y="-9"
     inkscape:window-maximized="1"
     inkscape:current-layer="layer1"><inkscape:grid
       type="axonomgrid"
       id="grid1326"
       snapvisiblegridlinesonly="false"
       units="px"
       spacingy="2.6458333"
       originx="169.33333"
       originy="95.25" /></sodipodi:namedview><defs
     id="defs2" /><g
     inkscape:label="Layer 1"
     inkscape:groupmode="layer"
     id="layer1"
     transform="translate(-105.28836,-41.845901)"><g
       aria-label="I graduated with 
top marks 
from college."
       transform="skewY(-30)"
       id="text674"
       style="font-size:6.6865px;font-family:'Nunito Sans';-inkscape-font-specification:'Nunito Sans, Normal';stroke-width:0.114014"><path
         d="m 106.17799,133.09557 q 0.17385,0 0.27414,0.13373 0.1003,0.13373 0.14711,0.41456 0.0535,0.28752 0.0802,0.75558 0.0267,0.46805 0.0267,1.02303 0,0.48143 -0.0334,0.92274 -0.0268,0.44131 -0.0802,0.82244 -0.0535,0.38781 -0.16716,0.5416 -0.11367,0.15379 -0.30758,0.15379 -0.18722,0 -0.29421,-0.12035 -0.10029,-0.12036 -0.14041,-0.40788 -0.0401,-0.26077 -0.0669,-0.68202 -0.0201,-0.42125 -0.0201,-0.89599 0,-0.65528 0.0401,-1.1902 0.0401,-0.53492 0.10699,-0.88931 0.0602,-0.30089 0.15378,-0.4413 0.1003,-0.14042 0.28084,-0.14042 z"
         style="-inkscape-font-specification:DynaPuff;fill:#ffffff"
         id="path2405" /><path
         d="m 110.16984,137.97003 q -0.62854,0 -1.02304,-0.48143 -0.3945,-0.48812 -0.3945,-1.47772 0,-1.05646 0.38113,-1.54458 0.38113,-0.48811 1.00297,-0.48811 0.36776,0 0.64859,0.18722 0.28084,0.18722 0.48143,0.52823 l -0.0535,0.0936 q -0.0201,-0.0936 -0.0334,-0.20059 -0.0134,-0.10699 -0.0134,-0.16048 0,-0.27414 0.0869,-0.42125 0.0936,-0.15379 0.28752,-0.15379 0.21397,0 0.33432,0.17385 0.12705,0.17385 0.19391,0.4948 0.0869,0.32764 0.1471,0.83582 0.0602,0.50148 0.0602,1.01634 0,0.64191 -0.0468,1.07653 -0.0468,0.43462 -0.15379,0.72214 -0.10699,0.28752 -0.28084,0.50149 -0.28751,0.3477 -0.7422,0.52823 -0.44799,0.18723 -1.0364,0.18723 -0.42125,0 -0.67534,-0.0802 -0.25409,-0.0736 -0.36776,-0.20728 -0.10698,-0.12705 -0.10698,-0.28752 0,-0.16717 0.0936,-0.28084 0.0936,-0.10698 0.28083,-0.10698 0.16716,0 0.38782,0.0535 0.22734,0.0535 0.53492,0.0535 0.64859,0 0.91605,-0.30758 0.27415,-0.30089 0.27415,-0.86924 0,-0.15379 -0.0201,-0.36107 l 0.0936,0.0334 q -0.16717,0.42794 -0.4948,0.68871 -0.32764,0.25409 -0.76226,0.25409 z m 0.25408,-0.82244 q 0.21397,0 0.42794,-0.11367 0.21397,-0.11367 0.35438,-0.37445 0.14042,-0.26077 0.14042,-0.70208 0,-0.52823 -0.2474,-0.86256 -0.2474,-0.33432 -0.6954,-0.33432 -0.38781,0 -0.56835,0.2942 -0.18054,0.29421 -0.18054,0.88931 0,0.56835 0.18054,0.8893 0.18054,0.31427 0.58841,0.31427 z"
         style="-inkscape-font-specification:DynaPuff;fill:#ffffff"
         id="path2408" /><path
         d="m 113.09184,135.0614 q 0,-0.6419 0.12035,-0.92274 0.12036,-0.28752 0.34102,-0.28752 0.17384,0 0.27414,0.14711 0.1003,0.14041 0.14711,0.35438 0.0468,0.20728 0.0468,0.42125 l -0.0334,-0.0134 q 0.11367,-0.36107 0.3477,-0.62185 0.24071,-0.26077 0.57504,-0.26077 0.3945,0 0.58172,0.32764 0.18722,0.32095 0.18722,0.80238 0,0.6419 -0.1471,0.89599 -0.1471,0.25409 -0.3945,0.25409 -0.18054,0 -0.26746,-0.14711 -0.0802,-0.1471 -0.0535,-0.52154 0.0267,-0.39451 -0.0468,-0.5483 -0.0735,-0.15379 -0.23403,-0.15379 -0.19391,0 -0.32095,0.2474 -0.12036,0.24072 -0.12036,0.5951 0,0.14042 0.0334,0.35439 0.0334,0.21396 0.0736,0.46805 0.0401,0.2474 0.0735,0.4948 0.0334,0.2474 0.0334,0.45468 0,0.36776 -0.11367,0.52824 -0.11367,0.16047 -0.32095,0.16047 -0.23403,0 -0.36107,-0.1471 -0.12705,-0.15379 -0.19391,-0.4948 -0.0535,-0.30758 -0.10699,-0.72883 -0.0535,-0.42125 -0.0869,-0.86256 -0.0334,-0.44131 -0.0334,-0.79569 z"
         style="-inkscape-font-specification:DynaPuff;fill:#ffffff"
         id="path2410" /><path
         d="m 119.19661,138.14388 q -0.22734,0 -0.31426,-0.17385 -0.0802,-0.18054 -0.0936,-0.56836 l 0.0669,0.0334 q -0.37444,0.72883 -1.41754,0.72883 -0.47474,0 -0.78901,-0.16717 -0.31426,-0.17385 -0.46805,-0.45468 -0.1471,-0.28752 -0.1471,-0.62184 0,-0.57504 0.40119,-0.90937 0.40119,-0.34101 1.06315,-0.34101 0.43462,0 0.75557,0.12704 0.32096,0.12705 0.5483,0.35439 l -0.11367,-0.0134 q -0.0468,-0.67534 -0.29421,-0.96286 -0.24071,-0.29421 -0.68871,-0.29421 -0.26077,0 -0.48143,0.0802 -0.22065,0.0802 -0.40787,0.16716 -0.18054,0.0802 -0.34101,0.0802 -0.16048,0 -0.25409,-0.10698 -0.0869,-0.10699 -0.0869,-0.27415 0,-0.24071 0.22734,-0.45468 0.23403,-0.21397 0.61516,-0.3477 0.38113,-0.13373 0.82913,-0.13373 0.54161,0 0.92942,0.26078 0.38782,0.26077 0.58841,0.76226 0.17385,0.42793 0.2474,0.95617 0.0736,0.52823 0.0736,1.13001 0,0.45469 -0.0468,0.70209 -0.0468,0.2474 -0.1471,0.3477 -0.0936,0.0936 -0.25409,0.0936 z m -1.47772,-0.74889 q 0.22066,0 0.448,-0.0602 0.22734,-0.0669 0.38113,-0.19391 0.15379,-0.12704 0.15379,-0.31426 0,-0.16048 -0.13373,-0.26078 -0.12704,-0.10698 -0.34101,-0.16047 -0.20728,-0.0535 -0.448,-0.0535 -0.40787,0 -0.62184,0.14042 -0.20728,0.14042 -0.20728,0.37444 0,0.25409 0.19391,0.39451 0.20059,0.13373 0.57503,0.13373 z"
         style="-inkscape-font-specification:DynaPuff;fill:#ffffff"
         id="path2412" /><path
         d="m 121.71073,138.17062 q -0.65528,0 -1.02303,-0.48811 -0.36776,-0.4948 -0.36776,-1.50446 0,-1.00298 0.36107,-1.46435 0.36776,-0.46805 1.04978,-0.46805 0.38782,0 0.67534,0.16047 0.2942,0.16048 0.52154,0.45468 l -0.0535,0.0267 q -0.0602,-0.27415 -0.12036,-0.58172 -0.0602,-0.30758 -0.10029,-0.58173 -0.0334,-0.28083 -0.0334,-0.44131 0,-0.22734 0.0736,-0.3477 0.0735,-0.12704 0.23402,-0.12704 0.22734,0 0.36776,0.19391 0.14042,0.18722 0.23403,0.58172 0.0869,0.35439 0.15379,0.8425 0.0669,0.48143 0.10698,1.00966 0.0468,0.52155 0.0468,1.00298 0,0.66865 -0.0735,1.04309 -0.0669,0.36776 -0.19391,0.51486 -0.12036,0.14711 -0.28752,0.14711 -0.20728,0 -0.28083,-0.20729 -0.0736,-0.20728 -0.0602,-0.67533 h 0.10029 q -0.18053,0.41456 -0.52823,0.66196 -0.34101,0.2474 -0.80238,0.2474 z m 0.35439,-0.82912 q 0.24071,0 0.4413,-0.12036 0.20729,-0.12704 0.32764,-0.38782 0.12705,-0.26077 0.12705,-0.66196 0,-0.51486 -0.23403,-0.83581 -0.23403,-0.32764 -0.67534,-0.32764 -0.3477,0 -0.56835,0.28752 -0.21397,0.28752 -0.21397,0.86924 0,0.51486 0.21397,0.84919 0.22065,0.32764 0.58173,0.32764 z"
         style="-inkscape-font-specification:DynaPuff;fill:#ffffff"
         id="path2414" /><path
         d="m 127.66172,138.03689 q -0.18053,0 -0.28083,-0.12035 -0.0936,-0.12705 -0.12704,-0.32096 -0.0334,-0.20059 -0.0334,-0.42125 l 0.0334,-0.0267 q -0.0669,0.28752 -0.26078,0.4948 -0.19391,0.20728 -0.44799,0.32095 -0.25409,0.10698 -0.50818,0.10698 -0.34101,0 -0.62184,-0.16047 -0.28083,-0.16048 -0.43462,-0.4948 -0.15379,-0.35439 -0.24072,-0.88931 -0.0869,-0.5416 -0.0869,-1.10996 0,-0.30757 0.0267,-0.56835 0.0267,-0.26077 0.0869,-0.42793 0.0535,-0.17385 0.16047,-0.25409 0.10699,-0.0869 0.27415,-0.0869 0.19391,0 0.30089,0.15379 0.11367,0.14711 0.14042,0.41457 0.0268,0.22065 0.0334,0.54829 0.0134,0.32095 0.0201,0.64859 0.0134,0.32095 0.0334,0.54161 0.0401,0.40119 0.20729,0.5951 0.16716,0.18722 0.40787,0.18722 0.35439,0 0.54161,-0.26746 0.18722,-0.26746 0.18722,-0.74889 0,-0.24071 -0.0268,-0.54161 -0.0267,-0.30758 -0.0602,-0.5951 -0.0268,-0.28752 -0.0268,-0.47474 0,-0.31426 0.10698,-0.44799 0.10699,-0.14042 0.29421,-0.14042 0.16048,0 0.26746,0.0869 0.11367,0.0869 0.18054,0.24071 0.0936,0.20059 0.16047,0.54829 0.0669,0.3477 0.10699,0.78901 0.0401,0.44131 0.0401,0.92942 0,0.74889 -0.10029,1.12333 -0.1003,0.36776 -0.35439,0.36776 z"
         style="-inkscape-font-specification:DynaPuff;fill:#ffffff"
         id="path2416" /><path
         d="m 131.85415,138.14388 q -0.22734,0 -0.31426,-0.17385 -0.0802,-0.18054 -0.0936,-0.56836 l 0.0669,0.0334 q -0.37444,0.72883 -1.41754,0.72883 -0.47474,0 -0.789,-0.16717 -0.31427,-0.17385 -0.46806,-0.45468 -0.1471,-0.28752 -0.1471,-0.62184 0,-0.57504 0.40119,-0.90937 0.40119,-0.34101 1.06315,-0.34101 0.43463,0 0.75558,0.12704 0.32095,0.12705 0.54829,0.35439 l -0.11367,-0.0134 q -0.0468,-0.67534 -0.29421,-0.96286 -0.24071,-0.29421 -0.68871,-0.29421 -0.26077,0 -0.48142,0.0802 -0.22066,0.0802 -0.40788,0.16716 -0.18054,0.0802 -0.34101,0.0802 -0.16048,0 -0.25409,-0.10698 -0.0869,-0.10699 -0.0869,-0.27415 0,-0.24071 0.22734,-0.45468 0.23403,-0.21397 0.61516,-0.3477 0.38113,-0.13373 0.82912,-0.13373 0.54161,0 0.92943,0.26078 0.38781,0.26077 0.58841,0.76226 0.17385,0.42793 0.2474,0.95617 0.0736,0.52823 0.0736,1.13001 0,0.45469 -0.0468,0.70209 -0.0468,0.2474 -0.1471,0.3477 -0.0936,0.0936 -0.25409,0.0936 z m -1.47771,-0.74889 q 0.22065,0 0.44799,-0.0602 0.22734,-0.0669 0.38113,-0.19391 0.15379,-0.12704 0.15379,-0.31426 0,-0.16048 -0.13373,-0.26078 -0.12704,-0.10698 -0.34101,-0.16047 -0.20728,-0.0535 -0.44799,-0.0535 -0.40788,0 -0.62185,0.14042 -0.20728,0.14042 -0.20728,0.37444 0,0.25409 0.19391,0.39451 0.20059,0.13373 0.57504,0.13373 z"
         style="-inkscape-font-specification:DynaPuff;fill:#ffffff"
         id="path2418" /><path
         d="m 134.04732,134.05174 h -0.13373 q -0.0201,-0.29421 0.0134,-0.55498 0.0334,-0.26746 0.14042,-0.42794 0.11367,-0.16716 0.32095,-0.16716 0.18722,0 0.27415,0.12036 0.0869,0.12035 0.0869,0.33432 0,0.42125 -0.16048,0.72214 l -0.12035,-0.0134 q 0.36107,-0.12704 0.81575,-0.12704 0.28752,0 0.45468,0.11367 0.17385,0.10698 0.17385,0.36776 0,0.2474 -0.20059,0.37444 -0.2006,0.12704 -0.50149,0.12704 -0.18054,0 -0.38782,-0.0134 -0.20059,-0.0201 -0.3945,-0.0602 l 0.11367,-0.14041 q 0.0602,0.25408 0.11367,0.58172 0.0602,0.32095 0.10698,0.66865 0.0468,0.3477 0.0736,0.67534 0.0267,0.32764 0.0267,0.58841 0,0.42794 -0.13373,0.67534 -0.13373,0.2474 -0.3945,0.2474 -0.20728,0 -0.32764,-0.12705 -0.11367,-0.12704 -0.16716,-0.32095 -0.0468,-0.20059 -0.0602,-0.41456 -0.007,-0.21397 -0.007,-0.38782 0,-0.29421 0.0267,-0.66196 0.0267,-0.37445 0.0736,-0.76895 0.0535,-0.3945 0.12036,-0.76226 l 0.13373,0.11367 q -0.34102,0.17385 -0.8425,0.17385 -0.30758,0 -0.47475,-0.11367 -0.16716,-0.11367 -0.16716,-0.35439 0,-0.26077 0.18722,-0.40119 0.18723,-0.1471 0.50149,-0.1471 0.20728,0 0.38782,0.0268 0.18722,0.0201 0.32764,0.0535 z"
         style="-inkscape-font-specification:DynaPuff;fill:#ffffff"
         id="path2420" /><path
         d="m 138.25981,138.1305 q -0.74221,0 -1.18351,-0.22065 -0.44131,-0.22066 -0.63522,-0.63522 -0.19391,-0.41456 -0.19391,-0.9896 0,-0.72883 0.26746,-1.237 0.27415,-0.51486 0.74889,-0.78901 0.48143,-0.27415 1.0899,-0.27415 0.71545,0 1.04978,0.33433 0.33432,0.32764 0.33432,0.86256 0,0.42793 -0.22734,0.7422 -0.22065,0.30758 -0.61516,0.47474 -0.3945,0.16716 -0.90936,0.16716 -0.28752,0 -0.55498,-0.0735 -0.26746,-0.0736 -0.48143,-0.20059 l 0.16048,-0.29421 q -0.0201,0.16048 -0.0201,0.32095 0,0.46806 0.2942,0.67534 0.29421,0.20059 0.83582,0.20059 0.42125,0 0.67533,-0.0736 0.25409,-0.0735 0.42794,-0.14041 0.17385,-0.0736 0.34101,-0.0736 0.0936,0 0.16716,0.0535 0.0802,0.0468 0.12705,0.14041 0.0535,0.0936 0.0535,0.22734 0,0.2006 -0.2006,0.38782 -0.20059,0.18054 -0.59509,0.30089 -0.38782,0.11367 -0.95617,0.11367 z m -0.38782,-2.18648 q 0.47474,0 0.76226,-0.2006 0.28752,-0.20059 0.28752,-0.4948 0,-0.23403 -0.16048,-0.38113 -0.15379,-0.15379 -0.48811,-0.15379 -0.31427,0 -0.56835,0.12036 -0.2474,0.11367 -0.38782,0.30089 -0.14042,0.18722 -0.14042,0.40788 0,0.19391 0.18054,0.30089 0.18722,0.1003 0.51486,0.1003 z"
         style="-inkscape-font-specification:DynaPuff;fill:#ffffff"
         id="path2422" /><path
         d="m 141.85045,138.17062 q -0.65528,0 -1.02303,-0.48811 -0.36776,-0.4948 -0.36776,-1.50446 0,-1.00298 0.36107,-1.46435 0.36776,-0.46805 1.04978,-0.46805 0.38782,0 0.67534,0.16047 0.2942,0.16048 0.52154,0.45468 l -0.0535,0.0267 q -0.0602,-0.27415 -0.12035,-0.58172 -0.0602,-0.30758 -0.1003,-0.58173 -0.0334,-0.28083 -0.0334,-0.44131 0,-0.22734 0.0736,-0.3477 0.0736,-0.12704 0.23402,-0.12704 0.22735,0 0.36776,0.19391 0.14042,0.18722 0.23403,0.58172 0.0869,0.35439 0.15379,0.8425 0.0669,0.48143 0.10698,1.00966 0.0468,0.52155 0.0468,1.00298 0,0.66865 -0.0736,1.04309 -0.0669,0.36776 -0.19391,0.51486 -0.12036,0.14711 -0.28752,0.14711 -0.20728,0 -0.28083,-0.20729 -0.0736,-0.20728 -0.0602,-0.67533 h 0.1003 q -0.18054,0.41456 -0.52824,0.66196 -0.34101,0.2474 -0.80238,0.2474 z m 0.35439,-0.82912 q 0.24071,0 0.44131,-0.12036 0.20728,-0.12704 0.32763,-0.38782 0.12705,-0.26077 0.12705,-0.66196 0,-0.51486 -0.23403,-0.83581 -0.23403,-0.32764 -0.67534,-0.32764 -0.34769,0 -0.56835,0.28752 -0.21397,0.28752 -0.21397,0.86924 0,0.51486 0.21397,0.84919 0.22066,0.32764 0.58173,0.32764 z"
         style="-inkscape-font-specification:DynaPuff;fill:#ffffff"
         id="path2424" /><path
         d="m 145.88911,135.36229 q 0,-0.69539 0.16048,-1.00297 0.16716,-0.30758 0.43462,-0.30758 0.15379,0 0.23403,0.11367 0.0869,0.10698 0.12035,0.2942 0.0334,0.18054 0.0334,0.40788 0,0.28752 0,0.67534 0.007,0.38113 0.0134,0.789 0.0134,0.40119 0.0267,0.74889 h 0.0267 q 0.20728,-0.87593 0.41456,-1.43759 0.21397,-0.56167 0.43463,-0.82913 0.22734,-0.27415 0.45468,-0.27415 0.2474,0 0.46805,0.27415 0.22734,0.26746 0.44131,0.81575 0.22066,0.5483 0.448,1.38411 h 0.0267 q 0.0201,-0.57504 0.0267,-1.21026 0.007,-0.63522 0.007,-1.16345 0,-0.38113 0.12704,-0.56167 0.12704,-0.18053 0.35438,-0.18053 0.28752,0 0.41457,0.30089 0.13373,0.29421 0.13373,0.79569 0,0.36776 -0.0401,0.78901 -0.0334,0.41456 -0.1003,0.80238 -0.0669,0.38782 -0.16048,0.67534 -0.14041,0.42793 -0.31426,0.64859 -0.16716,0.22065 -0.44131,0.22065 -0.2474,0 -0.4948,-0.28752 -0.24072,-0.2942 -0.45468,-0.87593 -0.21397,-0.58172 -0.39451,-1.45097 h -0.0267 q -0.17385,0.82913 -0.41457,1.39079 -0.23402,0.55498 -0.50148,0.83582 -0.26078,0.28083 -0.52155,0.28083 -0.27415,0 -0.46137,-0.2474 -0.18053,-0.2474 -0.30089,-0.76226 -0.0535,-0.26078 -0.0936,-0.55498 -0.0401,-0.30089 -0.0602,-0.58841 -0.0201,-0.28752 -0.0201,-0.50818 z"
         style="-inkscape-font-specification:DynaPuff;fill:#ffffff"
         id="path2426" /><path
         d="m 151.85346,132.94847 q 0.26746,0 0.38113,0.1471 0.12036,0.1471 0.12036,0.34101 0,0.24071 -0.1471,0.37444 -0.14042,0.12705 -0.40119,0.12705 -0.25409,0 -0.38113,-0.14042 -0.12705,-0.1471 -0.12705,-0.34101 0,-0.25409 0.15379,-0.38113 0.15379,-0.12704 0.40119,-0.12704 z m 0.0401,1.49109 q 0.21397,0 0.33433,0.40119 0.12704,0.40119 0.12704,1.27712 0,1.07652 -0.15379,1.55126 -0.15379,0.47475 -0.46805,0.47475 -0.24072,0 -0.35439,-0.3477 -0.11367,-0.35439 -0.11367,-1.23032 0,-1.07652 0.17385,-1.59807 0.18053,-0.52823 0.45468,-0.52823 z"
         style="-inkscape-font-specification:DynaPuff;fill:#ffffff"
         id="path2428" /><path
         d="m 154.30072,134.05174 h -0.13373 q -0.0201,-0.29421 0.0134,-0.55498 0.0334,-0.26746 0.14042,-0.42794 0.11367,-0.16716 0.32095,-0.16716 0.18722,0 0.27415,0.12036 0.0869,0.12035 0.0869,0.33432 0,0.42125 -0.16047,0.72214 l -0.12036,-0.0134 q 0.36107,-0.12704 0.81575,-0.12704 0.28752,0 0.45468,0.11367 0.17385,0.10698 0.17385,0.36776 0,0.2474 -0.20059,0.37444 -0.2006,0.12704 -0.50149,0.12704 -0.18053,0 -0.38782,-0.0134 -0.20059,-0.0201 -0.3945,-0.0602 l 0.11367,-0.14041 q 0.0602,0.25408 0.11367,0.58172 0.0602,0.32095 0.10699,0.66865 0.0468,0.3477 0.0736,0.67534 0.0267,0.32764 0.0267,0.58841 0,0.42794 -0.13373,0.67534 -0.13373,0.2474 -0.3945,0.2474 -0.20728,0 -0.32764,-0.12705 -0.11367,-0.12704 -0.16716,-0.32095 -0.0468,-0.20059 -0.0602,-0.41456 -0.007,-0.21397 -0.007,-0.38782 0,-0.29421 0.0268,-0.66196 0.0267,-0.37445 0.0735,-0.76895 0.0535,-0.3945 0.12036,-0.76226 l 0.13373,0.11367 q -0.34101,0.17385 -0.8425,0.17385 -0.30758,0 -0.47474,-0.11367 -0.16716,-0.11367 -0.16716,-0.35439 0,-0.26077 0.18722,-0.40119 0.18722,-0.1471 0.50148,-0.1471 0.20729,0 0.38782,0.0268 0.18722,0.0201 0.32764,0.0535 z"
         style="-inkscape-font-specification:DynaPuff;fill:#ffffff"
         id="path2430" /><path
         d="m 157.39657,132.7813 q 0.21396,0 0.2942,0.16717 0.0869,0.16716 0.0869,0.50148 0,0.28752 -0.0334,0.72215 -0.0334,0.43462 -0.0869,0.83581 h -0.0401 q 0.22066,-0.41457 0.56835,-0.66865 0.3477,-0.25409 0.73552,-0.25409 0.34101,0 0.60847,0.16716 0.26746,0.16048 0.43462,0.50818 0.15379,0.31426 0.22734,0.74889 0.0736,0.42793 0.0736,0.81575 0,0.62184 -0.0869,0.9896 -0.0802,0.36776 -0.22734,0.53492 -0.1471,0.16048 -0.3477,0.16048 -0.42125,0 -0.42125,-0.68871 0,-0.33433 0.0334,-0.68871 0.0401,-0.35439 0.0401,-0.64859 0,-0.50149 -0.16047,-0.74889 -0.15379,-0.25409 -0.448,-0.25409 -0.36776,0 -0.5951,0.32764 -0.22734,0.32764 -0.22734,0.90268 0,0.30089 0.0535,0.66196 0.0535,0.35439 0.0535,0.64859 0,0.32764 -0.12705,0.47474 -0.12035,0.14042 -0.31426,0.14042 -0.14711,0 -0.26078,-0.0602 -0.10698,-0.0535 -0.18722,-0.22065 -0.0736,-0.17385 -0.12704,-0.51486 -0.0401,-0.26078 -0.0802,-0.60848 -0.0401,-0.34769 -0.0669,-0.72882 -0.0268,-0.38113 -0.0468,-0.74221 -0.0134,-0.36775 -0.0134,-0.66865 0,-0.94948 0.18053,-1.37741 0.18054,-0.43463 0.50818,-0.43463 z"
         style="-inkscape-font-specification:DynaPuff;fill:#ffffff"
         id="path2432" /><path
         d="m 106.69285,142.83087 h -0.13373 q -0.0201,-0.2942 0.0134,-0.55498 0.0334,-0.26746 0.14042,-0.42793 0.11367,-0.16716 0.32095,-0.16716 0.18722,0 0.27415,0.12035 0.0869,0.12036 0.0869,0.33433 0,0.42125 -0.16048,0.72214 l -0.12035,-0.0134 q 0.36107,-0.12705 0.81575,-0.12705 0.28752,0 0.45468,0.11367 0.17385,0.10699 0.17385,0.36776 0,0.2474 -0.20059,0.37445 -0.2006,0.12704 -0.50149,0.12704 -0.18054,0 -0.38782,-0.0134 -0.20059,-0.0201 -0.3945,-0.0602 l 0.11367,-0.14042 q 0.0602,0.25409 0.11367,0.58173 0.0602,0.32095 0.10698,0.66865 0.0468,0.34769 0.0736,0.67533 0.0267,0.32764 0.0267,0.58842 0,0.42793 -0.13373,0.67533 -0.13373,0.2474 -0.3945,0.2474 -0.20728,0 -0.32764,-0.12704 -0.11367,-0.12704 -0.16716,-0.32095 -0.0468,-0.2006 -0.0602,-0.41457 -0.007,-0.21396 -0.007,-0.38781 0,-0.29421 0.0267,-0.66197 0.0267,-0.37444 0.0736,-0.76894 0.0535,-0.39451 0.12036,-0.76227 l 0.13373,0.11368 q -0.34102,0.17384 -0.8425,0.17384 -0.30758,0 -0.47474,-0.11367 -0.16717,-0.11367 -0.16717,-0.35438 0,-0.26077 0.18723,-0.40119 0.18722,-0.1471 0.50148,-0.1471 0.20728,0 0.38782,0.0267 0.18722,0.0201 0.32764,0.0535 z"
         style="-inkscape-font-specification:DynaPuff;fill:#ffffff"
         id="path2434" /><path
         d="m 110.65794,146.87621 q -0.53492,0 -0.93611,-0.23403 -0.39451,-0.24071 -0.61516,-0.68202 -0.21397,-0.44131 -0.21397,-1.04978 0,-0.63522 0.22066,-1.10996 0.22065,-0.47474 0.62184,-0.7422 0.40788,-0.26746 0.9428,-0.26746 0.57504,0 0.99628,0.26077 0.42125,0.25409 0.65528,0.71545 0.23403,0.46137 0.23403,1.07653 0,0.62853 -0.23403,1.08321 -0.23403,0.45469 -0.66196,0.70209 -0.42794,0.2474 -1.00966,0.2474 z m 0.0936,-0.90268 q 0.41456,0 0.65527,-0.32764 0.24741,-0.33432 0.24741,-0.88262 0,-0.55498 -0.24741,-0.88262 -0.24071,-0.32763 -0.65527,-0.32763 -0.42794,0 -0.67534,0.32763 -0.2474,0.32764 -0.2474,0.88262 0,0.5483 0.2474,0.88262 0.2474,0.32764 0.67534,0.32764 z"
         style="-inkscape-font-specification:DynaPuff;fill:#ffffff"
         id="path2436" /><path
         d="m 113.69361,142.71052 q 0.18053,0 0.30089,0.21397 0.12036,0.20728 0.16716,0.66196 l -0.14042,0.12704 q 0.12036,-0.46805 0.448,-0.71545 0.32764,-0.2474 0.77563,-0.2474 0.41457,0 0.73552,0.21396 0.32095,0.21397 0.50149,0.64859 0.18722,0.42794 0.18722,1.07653 0,1.04978 -0.38113,1.55127 -0.37445,0.4948 -1.02304,0.4948 -0.46805,0 -0.73551,-0.20059 -0.26746,-0.2006 -0.37445,-0.48812 l 0.0802,-0.0401 q 0.0535,0.40119 0.0869,0.7957 0.0401,0.38781 0.0401,0.68202 0,0.30089 -0.10699,0.50817 -0.10698,0.20728 -0.34101,0.20728 -0.22734,0 -0.34101,-0.17385 -0.11367,-0.17384 -0.16716,-0.46136 -0.0401,-0.29421 -0.0802,-0.75558 -0.0401,-0.46137 -0.0669,-0.99629 -0.0201,-0.53492 -0.0201,-1.04309 0,-0.52155 0.0334,-0.97623 0.0401,-0.46137 0.0936,-0.74889 0.0468,-0.16716 0.12035,-0.2474 0.0802,-0.0869 0.20729,-0.0869 z m 1.27712,0.80906 q -0.36107,0 -0.58173,0.36107 -0.21397,0.35439 -0.21397,0.90937 0,0.56835 0.21397,0.84918 0.22066,0.28084 0.56835,0.28084 0.40119,0 0.57504,-0.31427 0.18054,-0.32095 0.18054,-0.82912 0,-0.64859 -0.22066,-0.94949 -0.22065,-0.30758 -0.52154,-0.30758 z"
         style="-inkscape-font-specification:DynaPuff;fill:#ffffff"
         id="path2438" /><path
         d="m 121.56362,143.79373 q 0.0669,-0.27415 0.23403,-0.4948 0.17385,-0.22066 0.41456,-0.3477 0.2474,-0.13373 0.54161,-0.13373 0.3477,0 0.61516,0.16716 0.26746,0.16717 0.42125,0.5483 0.16047,0.38113 0.16047,1.01634 0,0.32764 -0.0267,0.66197 -0.0267,0.33432 -0.0669,0.62184 -0.0401,0.28752 -0.0869,0.48143 -0.0669,0.26746 -0.20728,0.40788 -0.13373,0.14041 -0.34101,0.14041 -0.17385,0 -0.27415,-0.15379 -0.1003,-0.15379 -0.1003,-0.4413 0,-0.13373 0.0334,-0.34102 0.0334,-0.21396 0.0736,-0.46136 0.0401,-0.25409 0.0735,-0.51487 0.0334,-0.26077 0.0334,-0.4948 0,-0.34769 -0.14042,-0.53492 -0.14041,-0.1939 -0.3945,-0.1939 -0.28083,0 -0.46806,0.2942 -0.18053,0.28752 -0.21396,0.8425 -0.0267,0.4948 -0.0468,0.88262 -0.0201,0.38113 -0.1003,0.62853 -0.0535,0.17385 -0.15379,0.26077 -0.0936,0.0869 -0.25408,0.0869 -0.18054,0 -0.28752,-0.13373 -0.1003,-0.13373 -0.11367,-0.42125 -0.0134,-0.24072 -0.007,-0.56835 0.007,-0.32764 0.007,-0.6486 0.007,-0.32763 -0.007,-0.5416 -0.0268,-0.42794 -0.15379,-0.62853 -0.12036,-0.2006 -0.36776,-0.2006 -0.28752,0 -0.46136,0.26746 -0.16717,0.26746 -0.20729,0.7422 -0.0134,0.19391 -0.0134,0.48143 0.007,0.28083 0.0134,0.56167 0.007,0.28083 -0.007,0.46805 -0.007,0.40119 -0.12705,0.57504 -0.11367,0.17385 -0.32095,0.17385 -0.2474,0 -0.36107,-0.16048 -0.10698,-0.16047 -0.14042,-0.51486 -0.0267,-0.31426 -0.0401,-0.62184 -0.0134,-0.31427 -0.0134,-0.62184 0,-0.31427 0.0134,-0.68203 0.02,-0.36776 0.0535,-0.69539 0.0401,-0.33433 0.14041,-0.56167 0.1003,-0.22734 0.33433,-0.22734 0.19391,0 0.27415,0.19391 0.0802,0.18722 0.0802,0.58172 0,0.13373 -0.0201,0.2474 l -0.0201,-0.13373 q 0.13373,-0.43462 0.42794,-0.67533 0.29421,-0.2474 0.65528,-0.2474 0.47474,0 0.7422,0.30758 0.26746,0.30089 0.2942,0.83581 z"
         style="-inkscape-font-specification:DynaPuff;fill:#ffffff"
         id="path2440" /><path
         d="m 127.68846,146.92301 q -0.22734,0 -0.31427,-0.17385 -0.0802,-0.18053 -0.0936,-0.56835 l 0.0669,0.0334 q -0.37445,0.72883 -1.41754,0.72883 -0.47474,0 -0.78901,-0.16716 -0.31427,-0.17385 -0.46805,-0.45468 -0.14711,-0.28752 -0.14711,-0.62185 0,-0.57504 0.40119,-0.90936 0.40119,-0.34101 1.06316,-0.34101 0.43462,0 0.75557,0.12704 0.32095,0.12704 0.54829,0.35439 l -0.11367,-0.0134 q -0.0468,-0.67533 -0.2942,-0.96285 -0.24072,-0.29421 -0.68871,-0.29421 -0.26078,0 -0.48143,0.0802 -0.22066,0.0802 -0.40788,0.16716 -0.18053,0.0802 -0.34101,0.0802 -0.16047,0 -0.25409,-0.10699 -0.0869,-0.10698 -0.0869,-0.27414 0,-0.24072 0.22734,-0.45468 0.23403,-0.21397 0.61516,-0.3477 0.38113,-0.13373 0.82912,-0.13373 0.54161,0 0.92943,0.26077 0.38782,0.26078 0.58841,0.76226 0.17385,0.42794 0.2474,0.95617 0.0735,0.52824 0.0735,1.13002 0,0.45468 -0.0468,0.70208 -0.0468,0.2474 -0.14711,0.3477 -0.0936,0.0936 -0.25408,0.0936 z m -1.47772,-0.74889 q 0.22065,0 0.448,-0.0602 0.22734,-0.0669 0.38113,-0.19391 0.15379,-0.12705 0.15379,-0.31427 0,-0.16047 -0.13373,-0.26077 -0.12705,-0.10699 -0.34102,-0.16048 -0.20728,-0.0535 -0.44799,-0.0535 -0.40788,0 -0.62185,0.14042 -0.20728,0.14041 -0.20728,0.37444 0,0.25409 0.19391,0.3945 0.2006,0.13373 0.57504,0.13373 z"
         style="-inkscape-font-specification:DynaPuff;fill:#ffffff"
         id="path2442" /><path
         d="m 128.9522,143.84054 q 0,-0.64191 0.12036,-0.92274 0.12036,-0.28752 0.34101,-0.28752 0.17385,0 0.27415,0.1471 0.10029,0.14042 0.1471,0.35439 0.0468,0.20728 0.0468,0.42125 l -0.0334,-0.0134 q 0.11367,-0.36107 0.3477,-0.62184 0.24071,-0.26077 0.57504,-0.26077 0.3945,0 0.58172,0.32763 0.18723,0.32096 0.18723,0.80238 0,0.64191 -0.14711,0.89599 -0.1471,0.25409 -0.3945,0.25409 -0.18054,0 -0.26746,-0.1471 -0.0802,-0.1471 -0.0535,-0.52155 0.0267,-0.3945 -0.0468,-0.54829 -0.0735,-0.15379 -0.23402,-0.15379 -0.19391,0 -0.32096,0.2474 -0.12035,0.24071 -0.12035,0.5951 0,0.14041 0.0334,0.35438 0.0334,0.21397 0.0736,0.46806 0.0401,0.2474 0.0735,0.4948 0.0334,0.2474 0.0334,0.45468 0,0.36776 -0.11367,0.52823 -0.11367,0.16048 -0.32095,0.16048 -0.23403,0 -0.36107,-0.1471 -0.12704,-0.15379 -0.19391,-0.4948 -0.0535,-0.30758 -0.10698,-0.72883 -0.0535,-0.42125 -0.0869,-0.86256 -0.0334,-0.44131 -0.0334,-0.79569 z"
         style="-inkscape-font-specification:DynaPuff;fill:#ffffff"
         id="path2444" /><path
         d="m 132.58966,146.92301 q -0.12705,0 -0.20729,-0.0736 -0.0802,-0.0802 -0.11367,-0.22734 -0.0535,-0.2474 -0.0936,-0.71546 -0.0401,-0.46805 -0.0401,-1.0364 0,-0.70209 0.0468,-1.35068 0.0535,-0.64859 0.13373,-1.06315 0.0869,-0.448 0.21397,-0.65528 0.12704,-0.21396 0.33432,-0.21396 0.18722,0 0.28752,0.17384 0.1003,0.16717 0.1003,0.58173 0,0.41456 -0.0334,0.8893 -0.0267,0.47475 -0.0936,1.01635 h 0.0267 q 0.43462,-0.58841 0.80907,-0.94279 0.38113,-0.35439 0.69539,-0.51486 0.32096,-0.16048 0.56836,-0.16048 0.1939,0 0.28752,0.12036 0.0936,0.12035 0.0936,0.2942 0,0.34101 -0.5483,0.76226 -0.5416,0.42125 -1.56464,0.86256 l 0.007,-0.10698 q 0.63522,0.32764 1.0899,0.68871 0.46137,0.35438 0.70208,0.67533 0.2474,0.31427 0.2474,0.52824 0,0.17385 -0.11367,0.28752 -0.10698,0.10698 -0.31426,0.10698 -0.26078,0 -0.58173,-0.19391 -0.31427,-0.20059 -0.65528,-0.5951 -0.34101,-0.3945 -0.68202,-0.9896 h -0.0267 q -0.007,0.42125 -0.0535,0.82244 -0.0401,0.3945 -0.10698,0.64859 -0.0468,0.17385 -0.1471,0.28083 -0.0936,0.1003 -0.26746,0.1003 z"
         style="-inkscape-font-specification:DynaPuff;fill:#ffffff"
         id="path2446" /><path
         d="m 137.83856,142.6704 q 0.5951,0 0.85587,0.17385 0.26078,0.17385 0.26078,0.44799 0,0.16048 -0.11367,0.26746 -0.10699,0.1003 -0.30758,0.1003 -0.20728,0 -0.43463,-0.0602 -0.22065,-0.0602 -0.51486,-0.0602 -0.34101,0 -0.50817,0.13373 -0.16716,0.13373 -0.16716,0.34101 0,0.19391 0.1471,0.30758 0.15379,0.10699 0.58173,0.16048 0.47474,0.0535 0.78232,0.17385 0.31426,0.11367 0.46805,0.3477 0.15379,0.22734 0.15379,0.62853 0,0.63522 -0.44799,0.94279 -0.448,0.30758 -1.23701,0.30758 -0.50148,0 -0.79569,-0.0802 -0.29421,-0.0802 -0.42794,-0.22735 -0.12704,-0.1471 -0.12704,-0.34769 0,-0.17385 0.11367,-0.26746 0.12036,-0.1003 0.28083,-0.1003 0.15379,0 0.32764,0.0401 0.17385,0.0334 0.36776,0.0736 0.19391,0.0401 0.40119,0.0401 0.66865,0 0.66865,-0.41456 0,-0.14042 -0.0669,-0.22735 -0.0669,-0.0869 -0.24071,-0.14041 -0.17385,-0.0602 -0.50817,-0.0936 -0.40119,-0.0401 -0.6954,-0.13373 -0.29421,-0.1003 -0.45468,-0.32096 -0.16048,-0.22734 -0.16048,-0.62184 0,-0.62184 0.46806,-1.00297 0.46805,-0.38782 1.33061,-0.38782 z"
         style="-inkscape-font-specification:DynaPuff;fill:#ffffff"
         id="path2448" /><path
         d="m 106.71959,151.87747 h -0.0735 q -0.0602,-0.29421 -0.0602,-0.56835 0,-0.48812 0.25409,-0.76895 0.26077,-0.28083 0.87593,-0.28083 0.37445,0 0.53492,0.12035 0.16717,0.11367 0.16717,0.3477 0,0.42794 -0.48812,0.46806 -0.2474,0.0267 -0.38782,0.0936 -0.13373,0.0669 -0.20059,0.21397 -0.0602,0.14041 -0.0802,0.40119 l -0.12036,-0.0134 q 0.16717,-0.0602 0.38113,-0.0936 0.21397,-0.0334 0.42125,-0.0334 0.28752,0 0.46137,0.10698 0.18054,0.10699 0.18054,0.36107 0,0.24741 -0.18722,0.37445 -0.18723,0.12704 -0.46137,0.12704 -0.16717,0 -0.35439,-0.0267 -0.18053,-0.0268 -0.36107,-0.0736 l 0.0334,-0.10029 q 0.0669,0.34101 0.11367,0.74889 0.0468,0.40119 0.0736,0.80906 0.0267,0.40119 0.0267,0.75558 0,0.22734 -0.0602,0.42793 -0.0602,0.19391 -0.18722,0.31427 -0.12036,0.11367 -0.30758,0.11367 -0.28083,0 -0.40119,-0.22066 -0.12035,-0.22734 -0.12035,-0.56166 0,-0.32095 0.0267,-0.72214 0.0334,-0.40788 0.0936,-0.83582 0.0669,-0.43462 0.15379,-0.83581 l 0.0802,0.0602 q -0.34101,0.1471 -0.86924,0.1471 -0.28084,0 -0.43463,-0.10698 -0.15379,-0.10699 -0.15379,-0.32764 0,-0.24071 0.18723,-0.36776 0.18722,-0.13373 0.50148,-0.13373 0.21397,0 0.40119,0.0267 0.19391,0.0201 0.34101,0.0535 z"
         style="-inkscape-font-specification:DynaPuff;fill:#ffffff"
         id="path2450" /><path
         d="m 109.12674,152.61967 q 0,-0.6419 0.12036,-0.92274 0.12035,-0.28751 0.34101,-0.28751 0.17385,0 0.27415,0.1471 0.10029,0.14041 0.1471,0.35438 0.0468,0.20728 0.0468,0.42125 l -0.0334,-0.0134 q 0.11367,-0.36107 0.3477,-0.62185 0.24071,-0.26077 0.57504,-0.26077 0.3945,0 0.58172,0.32764 0.18723,0.32095 0.18723,0.80238 0,0.6419 -0.14711,0.89599 -0.1471,0.25409 -0.3945,0.25409 -0.18054,0 -0.26746,-0.14711 -0.0802,-0.1471 -0.0535,-0.52154 0.0267,-0.39451 -0.0468,-0.5483 -0.0735,-0.15378 -0.23403,-0.15378 -0.1939,0 -0.32095,0.2474 -0.12035,0.24071 -0.12035,0.59509 0,0.14042 0.0334,0.35439 0.0334,0.21397 0.0735,0.46805 0.0401,0.2474 0.0735,0.4948 0.0334,0.24741 0.0334,0.45469 0,0.36775 -0.11367,0.52823 -0.11367,0.16048 -0.32095,0.16048 -0.23403,0 -0.36107,-0.14711 -0.12704,-0.15379 -0.19391,-0.4948 -0.0535,-0.30758 -0.10698,-0.72883 -0.0535,-0.42125 -0.0869,-0.86255 -0.0334,-0.44131 -0.0334,-0.7957 z"
         style="-inkscape-font-specification:DynaPuff;fill:#ffffff"
         id="path2452" /><path
         d="m 113.93433,155.65534 q -0.53492,0 -0.93611,-0.23402 -0.3945,-0.24072 -0.61515,-0.68203 -0.21397,-0.44131 -0.21397,-1.04978 0,-0.63522 0.22065,-1.10996 0.22066,-0.47474 0.62185,-0.7422 0.40787,-0.26746 0.94279,-0.26746 0.57504,0 0.99629,0.26077 0.42125,0.25409 0.65528,0.71546 0.23403,0.46137 0.23403,1.07653 0,0.62853 -0.23403,1.08321 -0.23403,0.45468 -0.66197,0.70208 -0.42793,0.2474 -1.00966,0.2474 z m 0.0936,-0.90267 q 0.41457,0 0.65528,-0.32764 0.2474,-0.33433 0.2474,-0.88262 0,-0.55498 -0.2474,-0.88262 -0.24071,-0.32764 -0.65528,-0.32764 -0.42793,0 -0.67533,0.32764 -0.2474,0.32764 -0.2474,0.88262 0,0.54829 0.2474,0.88262 0.2474,0.32764 0.67533,0.32764 z"
         style="-inkscape-font-specification:DynaPuff;fill:#ffffff"
         id="path2454" /><path
         d="m 119.3972,152.57287 q 0.0669,-0.27415 0.23403,-0.4948 0.17385,-0.22066 0.41456,-0.3477 0.2474,-0.13373 0.54161,-0.13373 0.3477,0 0.61516,0.16716 0.26746,0.16716 0.42125,0.54829 0.16047,0.38113 0.16047,1.01635 0,0.32764 -0.0267,0.66196 -0.0268,0.33433 -0.0669,0.62185 -0.0401,0.28752 -0.0869,0.48143 -0.0669,0.26746 -0.20728,0.40787 -0.13373,0.14042 -0.34102,0.14042 -0.17385,0 -0.27414,-0.15379 -0.1003,-0.15379 -0.1003,-0.44131 0,-0.13373 0.0334,-0.34101 0.0334,-0.21397 0.0735,-0.46137 0.0401,-0.25409 0.0736,-0.51486 0.0334,-0.26077 0.0334,-0.4948 0,-0.3477 -0.14042,-0.53492 -0.14042,-0.19391 -0.3945,-0.19391 -0.28084,0 -0.46806,0.29421 -0.18053,0.28752 -0.21397,0.8425 -0.0267,0.4948 -0.0468,0.88261 -0.0201,0.38113 -0.1003,0.62854 -0.0535,0.17384 -0.15379,0.26077 -0.0936,0.0869 -0.25408,0.0869 -0.18054,0 -0.28752,-0.13373 -0.1003,-0.13373 -0.11367,-0.42125 -0.0134,-0.24071 -0.007,-0.56835 0.007,-0.32764 0.007,-0.64859 0.007,-0.32764 -0.007,-0.54161 -0.0268,-0.42793 -0.15379,-0.62853 -0.12036,-0.20059 -0.36776,-0.20059 -0.28752,0 -0.46137,0.26746 -0.16716,0.26746 -0.20728,0.7422 -0.0134,0.19391 -0.0134,0.48143 0.007,0.28083 0.0134,0.56166 0.007,0.28084 -0.007,0.46806 -0.007,0.40119 -0.12705,0.57504 -0.11367,0.17385 -0.32095,0.17385 -0.2474,0 -0.36107,-0.16048 -0.10699,-0.16048 -0.14042,-0.51486 -0.0267,-0.31427 -0.0401,-0.62184 -0.0134,-0.31427 -0.0134,-0.62185 0,-0.31426 0.0134,-0.68202 0.0201,-0.36776 0.0535,-0.6954 0.0401,-0.33432 0.14041,-0.56166 0.1003,-0.22734 0.33433,-0.22734 0.19391,0 0.27414,0.1939 0.0802,0.18723 0.0802,0.58173 0,0.13373 -0.0201,0.2474 l -0.0201,-0.13373 q 0.13373,-0.43462 0.42794,-0.67534 0.2942,-0.2474 0.65528,-0.2474 0.47474,0 0.7422,0.30758 0.26746,0.30089 0.2942,0.83581 z"
         style="-inkscape-font-specification:DynaPuff;fill:#ffffff"
         id="path2456" /><path
         d="m 125.58222,155.70883 q -0.92274,0 -1.35736,-0.48142 -0.42794,-0.48143 -0.42794,-1.3373 0,-0.66197 0.25409,-1.17014 0.26077,-0.51486 0.7422,-0.80238 0.48812,-0.29421 1.16345,-0.29421 0.60847,0 0.92274,0.2006 0.32095,0.19391 0.32095,0.50149 0,0.18722 -0.12036,0.30089 -0.11367,0.10698 -0.34101,0.10698 -0.12704,0 -0.26077,-0.0401 -0.12704,-0.0401 -0.28083,-0.0802 -0.15379,-0.0401 -0.36776,-0.0401 -0.55498,0 -0.83581,0.2942 -0.27415,0.29421 -0.27415,0.84919 0,0.52823 0.26746,0.76895 0.26746,0.23402 0.72883,0.23402 0.22734,0 0.3945,-0.0468 0.17385,-0.0535 0.32095,-0.1003 0.15379,-0.0535 0.30758,-0.0535 0.15379,0 0.25409,0.1003 0.1003,0.0936 0.1003,0.27414 0,0.20728 -0.16717,0.39451 -0.16716,0.18722 -0.50148,0.30757 -0.33433,0.11367 -0.8425,0.11367 z"
         style="-inkscape-font-specification:DynaPuff;fill:#ffffff"
         id="path2458" /><path
         d="m 129.26649,155.65534 q -0.53492,0 -0.93611,-0.23402 -0.39451,-0.24072 -0.61516,-0.68203 -0.21397,-0.44131 -0.21397,-1.04978 0,-0.63522 0.22065,-1.10996 0.22066,-0.47474 0.62185,-0.7422 0.40787,-0.26746 0.94279,-0.26746 0.57504,0 0.99629,0.26077 0.42125,0.25409 0.65528,0.71546 0.23403,0.46137 0.23403,1.07653 0,0.62853 -0.23403,1.08321 -0.23403,0.45468 -0.66196,0.70208 -0.42794,0.2474 -1.00966,0.2474 z m 0.0936,-0.90267 q 0.41456,0 0.65527,-0.32764 0.2474,-0.33433 0.2474,-0.88262 0,-0.55498 -0.2474,-0.88262 -0.24071,-0.32764 -0.65527,-0.32764 -0.42794,0 -0.67534,0.32764 -0.2474,0.32764 -0.2474,0.88262 0,0.54829 0.2474,0.88262 0.2474,0.32764 0.67534,0.32764 z"
         style="-inkscape-font-specification:DynaPuff;fill:#ffffff"
         id="path2460" /><path
         d="m 132.56961,155.64866 q -0.20728,0 -0.32763,-0.0936 -0.12036,-0.1003 -0.19391,-0.32764 -0.1003,-0.33433 -0.15379,-0.8425 -0.0468,-0.51486 -0.0468,-1.26375 0,-0.46137 0.0334,-0.92274 0.0401,-0.46805 0.10029,-0.84918 0.0602,-0.38782 0.12705,-0.60179 0.0736,-0.22734 0.17385,-0.31426 0.10029,-0.0869 0.22734,-0.0869 0.13373,0 0.21396,0.0936 0.0802,0.0869 0.12705,0.31427 0.0401,0.22065 0.0602,0.5416 0.0267,0.32096 0.0267,0.68871 0,0.50149 -0.0468,1.05647 -0.0468,0.55498 -0.12705,1.0899 -0.0736,0.53492 -0.18053,0.98292 l -0.18722,-0.0936 q 0.17384,-0.21397 0.3945,-0.33433 0.22734,-0.12036 0.41456,-0.12036 0.15379,0 0.23403,0.0869 0.0869,0.0802 0.0869,0.25408 0,0.17385 -0.15379,0.3477 -0.1471,0.17385 -0.36775,0.28752 -0.22066,0.10699 -0.43463,0.10699 z"
         style="-inkscape-font-specification:DynaPuff;fill:#ffffff"
         id="path2462" /><path
         d="m 134.85639,155.64866 q -0.20728,0 -0.32764,-0.0936 -0.12035,-0.1003 -0.1939,-0.32764 -0.1003,-0.33433 -0.15379,-0.8425 -0.0468,-0.51486 -0.0468,-1.26375 0,-0.46137 0.0334,-0.92274 0.0401,-0.46805 0.1003,-0.84918 0.0602,-0.38782 0.12704,-0.60179 0.0736,-0.22734 0.17385,-0.31426 0.1003,-0.0869 0.22734,-0.0869 0.13373,0 0.21397,0.0936 0.0802,0.0869 0.12705,0.31427 0.0401,0.22065 0.0602,0.5416 0.0268,0.32096 0.0268,0.68871 0,0.50149 -0.0468,1.05647 -0.0468,0.55498 -0.12704,1.0899 -0.0735,0.53492 -0.18053,0.98292 l -0.18723,-0.0936 q 0.17385,-0.21397 0.39451,-0.33433 0.22734,-0.12036 0.41456,-0.12036 0.15379,0 0.23403,0.0869 0.0869,0.0802 0.0869,0.25408 0,0.17385 -0.15379,0.3477 -0.1471,0.17385 -0.36776,0.28752 -0.22065,0.10699 -0.43462,0.10699 z"
         style="-inkscape-font-specification:DynaPuff;fill:#ffffff"
         id="path2464" /><path
         d="m 138.29325,155.68878 q -0.74221,0 -1.18351,-0.22066 -0.44131,-0.22065 -0.63522,-0.63522 -0.19391,-0.41456 -0.19391,-0.9896 0,-0.72883 0.26746,-1.237 0.27415,-0.51486 0.74889,-0.78901 0.48143,-0.27414 1.0899,-0.27414 0.71545,0 1.04978,0.33432 0.33432,0.32764 0.33432,0.86256 0,0.42793 -0.22734,0.7422 -0.22065,0.30758 -0.61516,0.47474 -0.3945,0.16716 -0.90936,0.16716 -0.28752,0 -0.55498,-0.0736 -0.26746,-0.0735 -0.48143,-0.20059 l 0.16048,-0.29421 q -0.0201,0.16048 -0.0201,0.32095 0,0.46806 0.2942,0.67534 0.29421,0.2006 0.83582,0.2006 0.42125,0 0.67533,-0.0736 0.25409,-0.0736 0.42794,-0.14041 0.17385,-0.0736 0.34101,-0.0736 0.0936,0 0.16716,0.0535 0.0802,0.0468 0.12705,0.14041 0.0535,0.0936 0.0535,0.22735 0,0.20059 -0.2006,0.38781 -0.20059,0.18054 -0.59509,0.30089 -0.38782,0.11368 -0.95617,0.11368 z m -0.38782,-2.18649 q 0.47474,0 0.76226,-0.2006 0.28752,-0.20059 0.28752,-0.4948 0,-0.23402 -0.16048,-0.38113 -0.15379,-0.15379 -0.48811,-0.15379 -0.31427,0 -0.56835,0.12036 -0.2474,0.11367 -0.38782,0.30089 -0.14042,0.18723 -0.14042,0.40788 0,0.19391 0.18054,0.30089 0.18722,0.1003 0.51486,0.1003 z"
         style="-inkscape-font-specification:DynaPuff;fill:#ffffff"
         id="path2466" /><path
         d="m 141.91064,155.5283 q -0.62853,0 -1.02304,-0.48143 -0.3945,-0.48811 -0.3945,-1.47772 0,-1.05646 0.38113,-1.54458 0.38113,-0.48811 1.00297,-0.48811 0.36776,0 0.6486,0.18722 0.28083,0.18722 0.48142,0.52823 l -0.0535,0.0936 q -0.0201,-0.0936 -0.0334,-0.2006 -0.0134,-0.10698 -0.0134,-0.16048 0,-0.27414 0.0869,-0.42125 0.0936,-0.15378 0.28752,-0.15378 0.21397,0 0.33432,0.17384 0.12705,0.17385 0.19391,0.49481 0.0869,0.32763 0.14711,0.83581 0.0602,0.50149 0.0602,1.01635 0,0.6419 -0.0468,1.07652 -0.0468,0.43462 -0.15379,0.72214 -0.10698,0.28752 -0.28083,0.50149 -0.28752,0.3477 -0.7422,0.52824 -0.448,0.18722 -1.03641,0.18722 -0.42125,0 -0.67534,-0.0802 -0.25409,-0.0736 -0.36776,-0.20728 -0.10698,-0.12705 -0.10698,-0.28752 0,-0.16716 0.0936,-0.28083 0.0936,-0.10699 0.28083,-0.10699 0.16717,0 0.38782,0.0535 0.22734,0.0535 0.53492,0.0535 0.64859,0 0.91605,-0.30758 0.27415,-0.3009 0.27415,-0.86925 0,-0.15379 -0.0201,-0.36107 l 0.0936,0.0334 q -0.16716,0.42794 -0.4948,0.68871 -0.32764,0.25409 -0.76226,0.25409 z m 0.25408,-0.82244 q 0.21397,0 0.42794,-0.11367 0.21397,-0.11367 0.35438,-0.37444 0.14042,-0.26078 0.14042,-0.70209 0,-0.52823 -0.2474,-0.86256 -0.2474,-0.33432 -0.6954,-0.33432 -0.38781,0 -0.56835,0.29421 -0.18053,0.2942 -0.18053,0.8893 0,0.56835 0.18053,0.8893 0.18054,0.31427 0.58841,0.31427 z"
         style="-inkscape-font-specification:DynaPuff;fill:#ffffff"
         id="path2468" /><path
         d="m 146.70486,155.68878 q -0.7422,0 -1.18351,-0.22066 -0.44131,-0.22065 -0.63522,-0.63522 -0.19391,-0.41456 -0.19391,-0.9896 0,-0.72883 0.26746,-1.237 0.27415,-0.51486 0.74889,-0.78901 0.48143,-0.27414 1.0899,-0.27414 0.71546,0 1.04978,0.33432 0.33433,0.32764 0.33433,0.86256 0,0.42793 -0.22735,0.7422 -0.22065,0.30758 -0.61515,0.47474 -0.39451,0.16716 -0.90937,0.16716 -0.28752,0 -0.55498,-0.0736 -0.26746,-0.0735 -0.48142,-0.20059 l 0.16047,-0.29421 q -0.0201,0.16048 -0.0201,0.32095 0,0.46806 0.29421,0.67534 0.2942,0.2006 0.83581,0.2006 0.42125,0 0.67534,-0.0736 0.25408,-0.0736 0.42793,-0.14041 0.17385,-0.0736 0.34101,-0.0736 0.0936,0 0.16717,0.0535 0.0802,0.0468 0.12704,0.14041 0.0535,0.0936 0.0535,0.22735 0,0.20059 -0.20059,0.38781 -0.2006,0.18054 -0.5951,0.30089 -0.38782,0.11368 -0.95617,0.11368 z m -0.38782,-2.18649 q 0.47474,0 0.76226,-0.2006 0.28752,-0.20059 0.28752,-0.4948 0,-0.23402 -0.16047,-0.38113 -0.15379,-0.15379 -0.48812,-0.15379 -0.31426,0 -0.56835,0.12036 -0.2474,0.11367 -0.38782,0.30089 -0.14041,0.18723 -0.14041,0.40788 0,0.19391 0.18053,0.30089 0.18722,0.1003 0.51486,0.1003 z"
         style="-inkscape-font-specification:DynaPuff;fill:#ffffff"
         id="path2470" /><path
         d="m 149.41289,154.19769 q 0.26746,0 0.42793,0.18722 0.16717,0.18053 0.16717,0.53492 0,0.32764 -0.16048,0.55498 -0.15379,0.22734 -0.50149,0.22734 -0.28083,0 -0.41456,-0.18722 -0.12704,-0.18723 -0.12704,-0.52824 0,-0.20059 0.0535,-0.38113 0.0535,-0.18053 0.18722,-0.2942 0.13373,-0.11367 0.36776,-0.11367 z"
         style="-inkscape-font-specification:DynaPuff;fill:#ffffff"
         id="path2472" /></g></g></svg>
