<?xml version="1.0" encoding="UTF-8" standalone="no"?>
<!-- Created with Inkscape (http://www.inkscape.org/) -->

<svg
   width="208.15454"
   height="207.4124"
   viewBox="0 0 55.07422 54.877864"
   version="1.1"
   id="svg5"
   inkscape:version="1.2 (dc2aedaf03, 2022-05-15)"
   sodipodi:docname="Scene 4.svg"
   xml:space="preserve"
   xmlns:inkscape="http://www.inkscape.org/namespaces/inkscape"
   xmlns:sodipodi="http://sodipodi.sourceforge.net/DTD/sodipodi-0.dtd"
   xmlns="http://www.w3.org/2000/svg"
   xmlns:svg="http://www.w3.org/2000/svg"><sodipodi:namedview
     id="namedview7"
     pagecolor="#ffffff"
     bordercolor="#666666"
     borderopacity="1.0"
     inkscape:showpageshadow="2"
     inkscape:pageopacity="0.0"
     inkscape:pagecheckerboard="0"
     inkscape:deskcolor="#d1d1d1"
     inkscape:document-units="mm"
     showgrid="true"
     inkscape:zoom="0.71624578"
     inkscape:cx="964.05455"
     inkscape:cy="624.78553"
     inkscape:window-width="1920"
     inkscape:window-height="991"
     inkscape:window-x="-9"
     inkscape:window-y="-9"
     inkscape:window-maximized="1"
     inkscape:current-layer="layer1"><inkscape:grid
       type="axonomgrid"
       id="grid1326"
       snapvisiblegridlinesonly="false"
       units="px"
       spacingy="2.6458333"
       originx="169.33333"
       originy="95.25" /></sodipodi:namedview><defs
     id="defs2" /><g
     inkscape:label="Layer 1"
     inkscape:groupmode="layer"
     id="layer1"
     transform="translate(-171.80402,-38.957066)"><g
       aria-label="Collaborating with
others to achieve 
    the impossible"
       transform="matrix(0.95577496,0.60406505,0,1.0462714,0,0)"
       id="text931"
       style="font-size:5.82045px;font-family:'Nunito Sans';-inkscape-font-specification:'Nunito Sans, Normal';fill:#ffffff;stroke-width:0.0992471"><path
         d="m 181.76751,-63.198094 q -0.65771,0 -1.09425,-0.244459 -0.43653,-0.25028 -0.65189,-0.698454 -0.21535,-0.448175 -0.21535,-1.047681 0,-0.663531 0.23863,-1.15827 0.24446,-0.500558 0.70428,-0.77412 0.45981,-0.273561 1.10588,-0.273561 0.60533,0 0.9662,0.215357 0.36087,0.209536 0.36087,0.535481 0,0.192075 -0.12223,0.308484 -0.12223,0.110589 -0.35505,0.110589 -0.15133,0 -0.29684,-0.06403 -0.14552,-0.06403 -0.31431,-0.12223 -0.16297,-0.06403 -0.38997,-0.06403 -0.29102,0 -0.5413,0.110589 -0.24446,0.110588 -0.39579,0.372509 -0.14551,0.2561 -0.14551,0.698454 0,0.669351 0.29102,0.948733 0.29684,0.279382 0.77994,0.279382 0.16879,0 0.35505,-0.0291 0.18625,-0.03492 0.34923,-0.06403 0.16297,-0.03492 0.26192,-0.03492 0.19789,0 0.3143,0.09895 0.11641,0.09313 0.11641,0.279382 0,0.267741 -0.33759,0.442354 -0.33758,0.174614 -0.98365,0.174614 z"
         style="-inkscape-font-specification:DynaPuff"
         id="path1503" /><path
         d="m 185.0677,-63.244658 q -0.46563,0 -0.81486,-0.203716 -0.34341,-0.209536 -0.53548,-0.593686 -0.18626,-0.384149 -0.18626,-0.91381 0,-0.552943 0.19208,-0.966195 0.19207,-0.413252 0.5413,-0.64607 0.35505,-0.232818 0.82068,-0.232818 0.50056,0 0.86725,0.226998 0.36669,0.221177 0.57041,0.622788 0.20371,0.401611 0.20371,0.937092 0,0.547123 -0.20371,0.942913 -0.20372,0.395791 -0.57623,0.611147 -0.37251,0.215357 -0.87889,0.215357 z m 0.0815,-0.785761 q 0.36087,0 0.5704,-0.285202 0.21536,-0.291022 0.21536,-0.768299 0,-0.483097 -0.21536,-0.768299 -0.20953,-0.285203 -0.5704,-0.285203 -0.37251,0 -0.58787,0.285203 -0.21535,0.285202 -0.21535,0.768299 0,0.477277 0.21535,0.768299 0.21536,0.285202 0.58787,0.285202 z"
         style="-inkscape-font-specification:DynaPuff"
         id="path1505" /><path
         d="m 187.943,-63.250478 q -0.18043,0 -0.2852,-0.08149 -0.10477,-0.08731 -0.16879,-0.285202 -0.0873,-0.291022 -0.13387,-0.733376 -0.0408,-0.448175 -0.0408,-1.100065 0,-0.401611 0.0291,-0.803223 0.0349,-0.407431 0.0873,-0.739197 0.0524,-0.337586 0.11059,-0.52384 0.064,-0.197895 0.15133,-0.273561 0.0873,-0.07567 0.1979,-0.07567 0.11641,0 0.18625,0.08149 0.0698,0.07567 0.11059,0.273561 0.0349,0.192075 0.0524,0.471457 0.0233,0.279381 0.0233,0.599506 0,0.436534 -0.0408,0.919631 -0.0407,0.483098 -0.11058,0.948733 -0.064,0.465636 -0.15716,0.855607 l -0.16297,-0.08149 q 0.15133,-0.186254 0.34341,-0.291022 0.19789,-0.104768 0.36087,-0.104768 0.13387,0 0.20371,0.07567 0.0757,0.06984 0.0757,0.221177 0,0.151331 -0.13387,0.302663 -0.12805,0.151332 -0.32013,0.250279 -0.19207,0.09313 -0.37833,0.09313 z"
         style="-inkscape-font-specification:DynaPuff"
         id="path1507" /><path
         d="m 189.93359,-63.250478 q -0.18043,0 -0.2852,-0.08149 -0.10477,-0.08731 -0.16879,-0.285202 -0.0873,-0.291022 -0.13387,-0.733376 -0.0408,-0.448175 -0.0408,-1.100065 0,-0.401611 0.0291,-0.803223 0.0349,-0.407431 0.0873,-0.739197 0.0524,-0.337586 0.11059,-0.52384 0.064,-0.197895 0.15133,-0.273561 0.0873,-0.07567 0.1979,-0.07567 0.11641,0 0.18625,0.08149 0.0699,0.07567 0.11059,0.273561 0.0349,0.192075 0.0524,0.471457 0.0233,0.279381 0.0233,0.599506 0,0.436534 -0.0407,0.919631 -0.0407,0.483098 -0.11059,0.948733 -0.064,0.465636 -0.15715,0.855607 l -0.16297,-0.08149 q 0.15133,-0.186254 0.34341,-0.291022 0.19789,-0.104768 0.36086,-0.104768 0.13388,0 0.20372,0.07567 0.0757,0.06984 0.0757,0.221177 0,0.151331 -0.13387,0.302663 -0.12805,0.151332 -0.32013,0.250279 -0.19207,0.09313 -0.37833,0.09313 z"
         style="-inkscape-font-specification:DynaPuff"
         id="path1509" /><path
         d="m 193.83911,-63.203915 q -0.1979,0 -0.27356,-0.151331 -0.0699,-0.157153 -0.0815,-0.494739 l 0.0582,0.0291 q -0.32595,0.634429 -1.23394,0.634429 -0.41325,0 -0.68681,-0.145512 -0.27356,-0.151331 -0.40743,-0.39579 -0.12805,-0.25028 -0.12805,-0.541302 0,-0.500559 0.34922,-0.791581 0.34923,-0.296843 0.92545,-0.296843 0.37833,0 0.65771,0.110588 0.27939,0.110589 0.47728,0.308484 l -0.099,-0.01164 q -0.0407,-0.587865 -0.2561,-0.838145 -0.20953,-0.256099 -0.5995,-0.256099 -0.227,0 -0.41907,0.06984 -0.19208,0.06985 -0.35505,0.145511 -0.15715,0.06985 -0.29684,0.06985 -0.1397,0 -0.22118,-0.09313 -0.0757,-0.09313 -0.0757,-0.238639 0,-0.209536 0.1979,-0.39579 0.20371,-0.186255 0.53548,-0.302664 0.33176,-0.116409 0.72173,-0.116409 0.47146,0 0.80905,0.226998 0.33758,0.226997 0.5122,0.663531 0.15133,0.372509 0.21535,0.832324 0.064,0.459816 0.064,0.983656 0,0.395791 -0.0407,0.611148 -0.0408,0.215356 -0.12805,0.302663 -0.0815,0.08149 -0.22118,0.08149 z m -1.28632,-0.65189 q 0.19207,0 0.38997,-0.05238 0.19789,-0.05821 0.33176,-0.168793 0.13387,-0.110589 0.13387,-0.273561 0,-0.139691 -0.1164,-0.226998 -0.11059,-0.09313 -0.29685,-0.139691 -0.18043,-0.04656 -0.38997,-0.04656 -0.35504,0 -0.5413,0.122229 -0.18043,0.12223 -0.18043,0.325945 0,0.221177 0.16879,0.343407 0.17461,0.116409 0.50056,0.116409 z"
         style="-inkscape-font-specification:DynaPuff"
         id="path1511" /><path
         d="m 195.38152,-63.203915 q -0.12805,0 -0.20953,-0.08731 -0.0757,-0.08731 -0.12223,-0.250279 -0.0466,-0.238638 -0.0815,-0.622788 -0.0291,-0.38997 -0.0291,-0.832324 0,-0.25028 0.0116,-0.564584 0.0116,-0.314304 0.0291,-0.634429 0.0233,-0.325945 0.0466,-0.605327 0.0291,-0.279381 0.0582,-0.453995 0.0466,-0.2561 0.13387,-0.401611 0.0931,-0.151332 0.29102,-0.151332 0.20372,0 0.29685,0.157153 0.0931,0.151331 0.0931,0.378329 0,0.2561 -0.0407,0.605327 -0.0349,0.349227 -0.11059,0.710094 l -0.11641,0.139691 q 0.064,-0.244459 0.20954,-0.448174 0.14551,-0.203716 0.36669,-0.320125 0.22117,-0.12223 0.5122,-0.12223 0.5704,0 0.90799,0.407432 0.3434,0.401611 0.3434,1.257217 0,0.599506 -0.18043,1.001117 -0.17461,0.401611 -0.4831,0.605327 -0.30266,0.197896 -0.69263,0.197896 -0.36669,0 -0.63443,-0.215357 -0.26192,-0.215357 -0.33759,-0.622788 l 0.0815,0.06403 q -0.0233,0.419072 -0.11641,0.616967 -0.0873,0.192075 -0.227,0.192075 z m 1.06515,-0.710095 q 0.29102,0 0.5122,-0.26192 0.22117,-0.26192 0.22117,-0.820683 0,-0.465636 -0.17461,-0.756659 -0.16879,-0.291022 -0.57041,-0.291022 -0.32594,0 -0.52384,0.26192 -0.19789,0.2561 -0.19789,0.77994 0,0.477277 0.19789,0.785761 0.1979,0.302663 0.53549,0.302663 z"
         style="-inkscape-font-specification:DynaPuff"
         id="path1513" /><path
         d="m 199.97386,-63.244658 q -0.46564,0 -0.81487,-0.203716 -0.3434,-0.209536 -0.53548,-0.593686 -0.18625,-0.384149 -0.18625,-0.91381 0,-0.552943 0.19207,-0.966195 0.19208,-0.413252 0.54131,-0.64607 0.35504,-0.232818 0.82068,-0.232818 0.50056,0 0.86725,0.226998 0.36668,0.221177 0.5704,0.622788 0.20372,0.401611 0.20372,0.937092 0,0.547123 -0.20372,0.942913 -0.20372,0.395791 -0.57622,0.611147 -0.37251,0.215357 -0.87889,0.215357 z m 0.0815,-0.785761 q 0.36087,0 0.57041,-0.285202 0.21535,-0.291022 0.21535,-0.768299 0,-0.483097 -0.21535,-0.768299 -0.20954,-0.285203 -0.57041,-0.285203 -0.3725,0 -0.58786,0.285203 -0.21536,0.285202 -0.21536,0.768299 0,0.477277 0.21536,0.768299 0.21536,0.285202 0.58786,0.285202 z"
         style="-inkscape-font-specification:DynaPuff"
         id="path1515" /><path
         d="m 202.22055,-65.887142 q 0,-0.558763 0.10477,-0.803222 0.10477,-0.25028 0.29684,-0.25028 0.15133,0 0.23864,0.12805 0.0873,0.12223 0.12805,0.308484 0.0407,0.180434 0.0407,0.366688 l -0.0291,-0.01164 q 0.0989,-0.314305 0.30266,-0.541302 0.20954,-0.226998 0.50056,-0.226998 0.34341,0 0.50638,0.285202 0.16297,0.279382 0.16297,0.698454 0,0.558763 -0.12805,0.779941 -0.12805,0.221177 -0.3434,0.221177 -0.15716,0 -0.23282,-0.12805 -0.0699,-0.12805 -0.0466,-0.453995 0.0233,-0.343407 -0.0407,-0.477277 -0.064,-0.133871 -0.20371,-0.133871 -0.1688,0 -0.27939,0.215357 -0.10476,0.209536 -0.10476,0.51802 0,0.12223 0.0291,0.308484 0.0291,0.186254 0.064,0.407431 0.0349,0.215357 0.064,0.430714 0.0291,0.215356 0.0291,0.39579 0,0.320125 -0.099,0.459816 -0.0989,0.139691 -0.27938,0.139691 -0.20371,0 -0.3143,-0.12805 -0.11059,-0.133871 -0.1688,-0.430714 -0.0466,-0.26774 -0.0931,-0.634429 -0.0466,-0.366688 -0.0757,-0.750838 -0.0291,-0.384149 -0.0291,-0.692633 z"
         style="-inkscape-font-specification:DynaPuff"
         id="path1517" /><path
         d="m 207.53462,-63.203915 q -0.1979,0 -0.27356,-0.151331 -0.0698,-0.157153 -0.0815,-0.494739 l 0.0582,0.0291 q -0.32595,0.634429 -1.23394,0.634429 -0.41325,0 -0.68681,-0.145512 -0.27356,-0.151331 -0.40743,-0.39579 -0.12805,-0.25028 -0.12805,-0.541302 0,-0.500559 0.34922,-0.791581 0.34923,-0.296843 0.92545,-0.296843 0.37833,0 0.65771,0.110588 0.27939,0.110589 0.47728,0.308484 l -0.099,-0.01164 q -0.0407,-0.587865 -0.2561,-0.838145 -0.20953,-0.256099 -0.5995,-0.256099 -0.227,0 -0.41907,0.06984 -0.19208,0.06985 -0.35505,0.145511 -0.15715,0.06985 -0.29685,0.06985 -0.13969,0 -0.22117,-0.09313 -0.0757,-0.09313 -0.0757,-0.238639 0,-0.209536 0.1979,-0.39579 0.20371,-0.186255 0.53548,-0.302664 0.33176,-0.116409 0.72173,-0.116409 0.47146,0 0.80905,0.226998 0.33758,0.226997 0.5122,0.663531 0.15133,0.372509 0.21535,0.832324 0.064,0.459816 0.064,0.983656 0,0.395791 -0.0407,0.611148 -0.0408,0.215356 -0.12805,0.302663 -0.0815,0.08149 -0.22118,0.08149 z m -1.28632,-0.65189 q 0.19207,0 0.38997,-0.05238 0.19789,-0.05821 0.33176,-0.168793 0.13387,-0.110589 0.13387,-0.273561 0,-0.139691 -0.1164,-0.226998 -0.11059,-0.09313 -0.29685,-0.139691 -0.18043,-0.04656 -0.38997,-0.04656 -0.35504,0 -0.5413,0.122229 -0.18043,0.12223 -0.18043,0.325945 0,0.221177 0.16879,0.343407 0.17461,0.116409 0.50056,0.116409 z"
         style="-inkscape-font-specification:DynaPuff"
         id="path1519" /><path
         d="m 209.44372,-66.76603 h -0.11641 q -0.0175,-0.2561 0.0116,-0.483097 0.0291,-0.232818 0.12223,-0.372509 0.0989,-0.145511 0.27938,-0.145511 0.16297,0 0.23864,0.104768 0.0757,0.104768 0.0757,0.291022 0,0.366688 -0.1397,0.628609 l -0.10476,-0.01164 q 0.3143,-0.110589 0.71009,-0.110589 0.25028,0 0.39579,0.09895 0.15133,0.09313 0.15133,0.320125 0,0.215356 -0.17461,0.325945 -0.17461,0.110588 -0.43653,0.110588 -0.15716,0 -0.33759,-0.01164 -0.17461,-0.01746 -0.34341,-0.05238 l 0.099,-0.122229 q 0.0524,0.221177 0.099,0.506379 0.0524,0.279382 0.0931,0.582045 0.0407,0.302664 0.064,0.587866 0.0233,0.285202 0.0233,0.512199 0,0.372509 -0.11641,0.587866 -0.1164,0.215356 -0.3434,0.215356 -0.18044,0 -0.2852,-0.110588 -0.099,-0.110589 -0.14552,-0.279382 -0.0407,-0.174613 -0.0524,-0.360868 -0.006,-0.186254 -0.006,-0.337586 0,-0.2561 0.0233,-0.576224 0.0233,-0.325946 0.064,-0.669352 0.0466,-0.343407 0.10476,-0.663531 l 0.11641,0.09895 q -0.29684,0.151332 -0.73337,0.151332 -0.26774,0 -0.41325,-0.09895 -0.14552,-0.09895 -0.14552,-0.308484 0,-0.226997 0.16298,-0.349227 0.16297,-0.128049 0.43653,-0.128049 0.18043,0 0.33759,0.02328 0.16297,0.01746 0.2852,0.04656 z"
         style="-inkscape-font-specification:DynaPuff"
         id="path1521" /><path
         d="m 212.05128,-67.726404 q 0.23281,0 0.33176,0.12805 0.10477,0.128049 0.10477,0.296843 0,0.209536 -0.12805,0.325945 -0.12223,0.110588 -0.34923,0.110588 -0.22117,0 -0.33176,-0.122229 -0.11059,-0.12805 -0.11059,-0.296843 0,-0.221177 0.13387,-0.331766 0.13387,-0.110588 0.34923,-0.110588 z m 0.0349,1.29796 q 0.18625,0 0.29102,0.349227 0.11059,0.349227 0.11059,1.111706 0,0.937092 -0.13387,1.350344 -0.13387,0.413252 -0.40743,0.413252 -0.20954,0 -0.30849,-0.302663 -0.0989,-0.308484 -0.0989,-1.070963 0,-0.937092 0.15133,-1.391087 0.15715,-0.459816 0.39579,-0.459816 z"
         style="-inkscape-font-specification:DynaPuff"
         id="path1523" /><path
         d="m 213.79159,-66.882439 q 0.18626,0 0.25028,0.151332 0.0699,0.151331 0.0699,0.448174 0,0.06985 -0.0117,0.151332 -0.006,0.07567 -0.0233,0.139691 l -0.0116,-0.116409 q 0.13969,-0.378329 0.43072,-0.587866 0.29102,-0.215356 0.61696,-0.215356 0.36087,0 0.59951,0.203715 0.24446,0.203716 0.36087,0.570404 0.12223,0.366689 0.12223,0.867248 0,0.308483 -0.0291,0.611147 -0.0233,0.296843 -0.0698,0.547122 -0.0407,0.244459 -0.0931,0.401611 -0.0698,0.197895 -0.18043,0.296843 -0.11059,0.09313 -0.26192,0.09313 -0.15133,0 -0.23282,-0.110588 -0.0815,-0.110589 -0.0815,-0.296843 0,-0.197896 0.0291,-0.477277 0.0291,-0.285202 0.0524,-0.576225 0.0291,-0.296843 0.0291,-0.535481 0,-0.814863 -0.53548,-0.814863 -0.2852,0 -0.47728,0.2561 -0.19207,0.250279 -0.2561,0.715915 -0.0175,0.157152 -0.0175,0.38997 0,0.232818 0,0.465636 0.006,0.226998 -0.0116,0.38415 -0.0233,0.349227 -0.13387,0.500559 -0.10477,0.151331 -0.29102,0.151331 -0.21536,0 -0.32595,-0.197895 -0.11059,-0.203716 -0.11059,-0.680993 0,-0.244459 0.0117,-0.547122 0.0116,-0.302663 0.0291,-0.605327 0.0233,-0.308484 0.0524,-0.558763 0.0582,-0.471456 0.1688,-0.745017 0.11058,-0.279382 0.33176,-0.279382 z"
         style="-inkscape-font-specification:DynaPuff"
         id="path1525" /><path
         d="m 218.01723,-63.355246 q -0.54712,0 -0.89053,-0.419073 -0.3434,-0.424893 -0.3434,-1.286319 0,-0.919631 0.33176,-1.344524 0.33177,-0.424893 0.87307,-0.424893 0.32013,0 0.56458,0.162973 0.24446,0.162972 0.41908,0.459815 l -0.0466,0.08149 q -0.0175,-0.08149 -0.0291,-0.174613 -0.0116,-0.09313 -0.0116,-0.139691 0,-0.238638 0.0757,-0.366688 0.0815,-0.133871 0.25028,-0.133871 0.18625,0 0.29102,0.151332 0.11059,0.151332 0.16879,0.430713 0.0757,0.285202 0.12805,0.727557 0.0524,0.436533 0.0524,0.884708 0,0.558763 -0.0407,0.937092 -0.0407,0.37833 -0.13387,0.628609 -0.0931,0.250279 -0.24446,0.436534 -0.25028,0.302663 -0.64607,0.459815 -0.38997,0.162973 -0.90217,0.162973 -0.36669,0 -0.58786,-0.06985 -0.22118,-0.06402 -0.32013,-0.180433 -0.0931,-0.110589 -0.0931,-0.25028 0,-0.145511 0.0815,-0.244459 0.0815,-0.09313 0.24446,-0.09313 0.14551,0 0.33759,0.04656 0.19789,0.04656 0.46563,0.04656 0.56459,0 0.7974,-0.26774 0.23864,-0.261921 0.23864,-0.756659 0,-0.13387 -0.0175,-0.314304 l 0.0815,0.0291 q -0.14551,0.372509 -0.43072,0.599506 -0.2852,0.221178 -0.66353,0.221178 z m 0.22118,-0.715916 q 0.18625,0 0.37251,-0.09895 0.18625,-0.09895 0.30848,-0.325946 0.12223,-0.226997 0.12223,-0.611147 0,-0.459815 -0.21535,-0.750838 -0.21536,-0.291022 -0.60533,-0.291022 -0.33759,0 -0.49474,0.256099 -0.15715,0.2561 -0.15715,0.77412 0,0.494738 0.15715,0.77412 0.15715,0.273561 0.5122,0.273561 z"
         style="-inkscape-font-specification:DynaPuff"
         id="path1527" /><path
         d="m 221.51533,-65.625222 q 0,-0.605327 0.13969,-0.873067 0.14551,-0.267741 0.37833,-0.267741 0.13387,0 0.20371,0.09895 0.0757,0.09313 0.10477,0.256099 0.0291,0.157152 0.0291,0.355048 0,0.250279 0,0.587865 0.006,0.331766 0.0116,0.686813 0.0116,0.349227 0.0233,0.651891 h 0.0233 q 0.18043,-0.762479 0.36087,-1.251397 0.18625,-0.488918 0.37832,-0.721736 0.1979,-0.238638 0.3958,-0.238638 0.21535,0 0.40743,0.238638 0.19789,0.232818 0.38415,0.710095 0.19207,0.477277 0.38997,1.204833 h 0.0233 q 0.0175,-0.500559 0.0233,-1.053501 0.006,-0.552943 0.006,-1.012759 0,-0.331765 0.11059,-0.488917 0.11059,-0.157152 0.30848,-0.157152 0.25028,0 0.36087,0.26192 0.11641,0.2561 0.11641,0.692633 0,0.320125 -0.0349,0.686813 -0.0291,0.360868 -0.0873,0.698454 -0.0582,0.337586 -0.13969,0.587866 -0.12223,0.372509 -0.27356,0.564583 -0.14551,0.192075 -0.38415,0.192075 -0.21536,0 -0.43071,-0.250279 -0.20954,-0.2561 -0.39579,-0.762479 -0.18626,-0.506379 -0.34341,-1.263038 h -0.0233 q -0.15133,0.721736 -0.36087,1.210654 -0.20372,0.483097 -0.43653,0.727556 -0.227,0.244459 -0.454,0.244459 -0.23864,0 -0.40161,-0.215357 -0.15715,-0.215356 -0.26192,-0.663531 -0.0466,-0.226997 -0.0815,-0.483097 -0.0349,-0.26192 -0.0524,-0.5122 -0.0175,-0.250279 -0.0175,-0.442354 z"
         style="-inkscape-font-specification:DynaPuff"
         id="path1529" /><path
         d="m 226.70717,-67.726404 q 0.23282,0 0.33176,0.12805 0.10477,0.128049 0.10477,0.296843 0,0.209536 -0.12805,0.325945 -0.12223,0.110588 -0.34923,0.110588 -0.22117,0 -0.33176,-0.122229 -0.11059,-0.12805 -0.11059,-0.296843 0,-0.221177 0.13387,-0.331766 0.13387,-0.110588 0.34923,-0.110588 z m 0.0349,1.29796 q 0.18625,0 0.29102,0.349227 0.11059,0.349227 0.11059,1.111706 0,0.937092 -0.13387,1.350344 -0.13387,0.413252 -0.40743,0.413252 -0.20954,0 -0.30848,-0.302663 -0.099,-0.308484 -0.099,-1.070963 0,-0.937092 0.15133,-1.391087 0.15715,-0.459816 0.39579,-0.459816 z"
         style="-inkscape-font-specification:DynaPuff"
         id="path1531" /><path
         d="m 228.83745,-66.76603 h -0.11641 q -0.0175,-0.2561 0.0116,-0.483097 0.0291,-0.232818 0.12223,-0.372509 0.099,-0.145511 0.27939,-0.145511 0.16297,0 0.23863,0.104768 0.0757,0.104768 0.0757,0.291022 0,0.366688 -0.13969,0.628609 l -0.10477,-0.01164 q 0.3143,-0.110589 0.7101,-0.110589 0.25027,0 0.39579,0.09895 0.15133,0.09313 0.15133,0.320125 0,0.215356 -0.17462,0.325945 -0.17461,0.110588 -0.43653,0.110588 -0.15715,0 -0.33759,-0.01164 -0.17461,-0.01746 -0.3434,-0.05238 l 0.099,-0.122229 q 0.0524,0.221177 0.0989,0.506379 0.0524,0.279382 0.0931,0.582045 0.0407,0.302664 0.064,0.587866 0.0233,0.285202 0.0233,0.512199 0,0.372509 -0.11641,0.587866 -0.11641,0.215356 -0.34341,0.215356 -0.18043,0 -0.2852,-0.110588 -0.099,-0.110589 -0.14551,-0.279382 -0.0407,-0.174613 -0.0524,-0.360868 -0.006,-0.186254 -0.006,-0.337586 0,-0.2561 0.0233,-0.576224 0.0233,-0.325946 0.064,-0.669352 0.0466,-0.343407 0.10477,-0.663531 l 0.11641,0.09895 q -0.29685,0.151332 -0.73338,0.151332 -0.26774,0 -0.41325,-0.09895 -0.14551,-0.09895 -0.14551,-0.308484 0,-0.226997 0.16297,-0.349227 0.16297,-0.128049 0.43653,-0.128049 0.18044,0 0.33759,0.02328 0.16297,0.01746 0.2852,0.04656 z"
         style="-inkscape-font-specification:DynaPuff"
         id="path1533" /><path
         d="m 231.53232,-67.871916 q 0.18625,0 0.2561,0.145512 0.0757,0.145511 0.0757,0.436533 0,0.25028 -0.0291,0.628609 -0.0291,0.378329 -0.0757,0.727556 h -0.0349 q 0.19208,-0.360868 0.49474,-0.582045 0.30266,-0.221177 0.64025,-0.221177 0.29684,0 0.52966,0.145511 0.23282,0.139691 0.37833,0.442355 0.13387,0.273561 0.19789,0.65189 0.064,0.372509 0.064,0.710095 0,0.541302 -0.0757,0.861426 -0.0698,0.320125 -0.19789,0.465636 -0.12805,0.139691 -0.30267,0.139691 -0.36668,0 -0.36668,-0.599506 0,-0.291023 0.0291,-0.599506 0.0349,-0.308484 0.0349,-0.564584 0,-0.436534 -0.13969,-0.65189 -0.13387,-0.221178 -0.38997,-0.221178 -0.32012,0 -0.51802,0.285202 -0.19789,0.285203 -0.19789,0.785761 0,0.26192 0.0466,0.576225 0.0466,0.308484 0.0466,0.564583 0,0.285202 -0.11059,0.413252 -0.10476,0.12223 -0.27356,0.12223 -0.12805,0 -0.22699,-0.05238 -0.0931,-0.04656 -0.16298,-0.192075 -0.064,-0.151332 -0.11059,-0.448175 -0.0349,-0.226997 -0.0698,-0.529661 -0.0349,-0.302663 -0.0582,-0.634429 -0.0233,-0.331765 -0.0407,-0.64607 -0.0116,-0.320124 -0.0116,-0.582045 0,-0.826504 0.15715,-1.199012 0.15715,-0.37833 0.44236,-0.37833 z"
         style="-inkscape-font-specification:DynaPuff"
         id="path1535" /><path
         d="m 181.29023,-55.602615 q -0.46564,0 -0.81486,-0.203716 -0.34341,-0.209536 -0.53548,-0.593686 -0.18626,-0.384149 -0.18626,-0.91381 0,-0.552943 0.19208,-0.966195 0.19207,-0.413252 0.5413,-0.64607 0.35505,-0.232818 0.82068,-0.232818 0.50056,0 0.86725,0.226998 0.36669,0.221177 0.5704,0.622788 0.20372,0.401611 0.20372,0.937092 0,0.547123 -0.20372,0.942913 -0.20371,0.395791 -0.57622,0.611147 -0.37251,0.215357 -0.87889,0.215357 z m 0.0815,-0.785761 q 0.36086,0 0.5704,-0.285202 0.21536,-0.291022 0.21536,-0.768299 0,-0.483097 -0.21536,-0.7683 -0.20954,-0.285202 -0.5704,-0.285202 -0.37251,0 -0.58787,0.285202 -0.21536,0.285203 -0.21536,0.7683 0,0.477277 0.21536,0.768299 0.21536,0.285202 0.58787,0.285202 z"
         style="-inkscape-font-specification:DynaPuff"
         id="path1537" /><path
         d="m 184.46237,-59.123987 h -0.11641 q -0.0175,-0.2561 0.0116,-0.483097 0.0291,-0.232818 0.12223,-0.372509 0.099,-0.145512 0.27938,-0.145512 0.16298,0 0.23864,0.104769 0.0757,0.104768 0.0757,0.291022 0,0.366688 -0.13969,0.628609 l -0.10477,-0.01164 q 0.3143,-0.110589 0.7101,-0.110589 0.25027,0 0.39579,0.09895 0.15133,0.09313 0.15133,0.320125 0,0.215356 -0.17462,0.325945 -0.17461,0.110588 -0.43653,0.110588 -0.15715,0 -0.33759,-0.01164 -0.17461,-0.01746 -0.3434,-0.05238 l 0.099,-0.122229 q 0.0524,0.221177 0.0989,0.506379 0.0524,0.279382 0.0931,0.582045 0.0407,0.302663 0.064,0.587865 0.0233,0.285203 0.0233,0.5122 0,0.372509 -0.11641,0.587866 -0.11641,0.215356 -0.34341,0.215356 -0.18043,0 -0.2852,-0.110588 -0.099,-0.110589 -0.14551,-0.279382 -0.0408,-0.174613 -0.0524,-0.360868 -0.006,-0.186254 -0.006,-0.337586 0,-0.2561 0.0233,-0.576224 0.0233,-0.325946 0.064,-0.669352 0.0466,-0.343407 0.10477,-0.663532 l 0.11641,0.09895 q -0.29685,0.151332 -0.73338,0.151332 -0.26774,0 -0.41325,-0.09895 -0.14551,-0.09895 -0.14551,-0.308484 0,-0.226997 0.16297,-0.349227 0.16297,-0.12805 0.43653,-0.12805 0.18044,0 0.33759,0.02328 0.16297,0.01746 0.2852,0.04656 z"
         style="-inkscape-font-specification:DynaPuff"
         id="path1539" /><path
         d="m 187.15724,-60.229873 q 0.18625,0 0.2561,0.145512 0.0757,0.145511 0.0757,0.436533 0,0.25028 -0.0291,0.628609 -0.0291,0.378329 -0.0757,0.727556 h -0.0349 q 0.19208,-0.360868 0.49474,-0.582045 0.30266,-0.221177 0.64025,-0.221177 0.29684,0 0.52966,0.145511 0.23282,0.139691 0.37833,0.442355 0.13387,0.273561 0.19789,0.65189 0.064,0.372509 0.064,0.710095 0,0.541302 -0.0757,0.861426 -0.0698,0.320125 -0.19789,0.465636 -0.12805,0.139691 -0.30267,0.139691 -0.36668,0 -0.36668,-0.599506 0,-0.291023 0.0291,-0.599507 0.0349,-0.308483 0.0349,-0.564583 0,-0.436534 -0.13969,-0.651891 -0.13387,-0.221177 -0.38997,-0.221177 -0.32012,0 -0.51802,0.285202 -0.19789,0.285202 -0.19789,0.785761 0,0.26192 0.0466,0.576225 0.0466,0.308484 0.0466,0.564583 0,0.285202 -0.11059,0.413252 -0.10476,0.12223 -0.27356,0.12223 -0.12805,0 -0.22699,-0.05238 -0.0931,-0.04656 -0.16298,-0.192075 -0.064,-0.151332 -0.11059,-0.448175 -0.0349,-0.226997 -0.0698,-0.529661 -0.0349,-0.302663 -0.0582,-0.634429 -0.0233,-0.331765 -0.0407,-0.64607 -0.0116,-0.320124 -0.0116,-0.582045 0,-0.826504 0.15715,-1.199012 0.15715,-0.37833 0.44236,-0.37833 z"
         style="-inkscape-font-specification:DynaPuff"
         id="path1541" /><path
         d="m 191.99403,-55.573513 q -0.64607,0 -1.03022,-0.192075 -0.38415,-0.192074 -0.55295,-0.552942 -0.16879,-0.360868 -0.16879,-0.861427 0,-0.634429 0.23282,-1.076783 0.23864,-0.448175 0.65189,-0.686813 0.41907,-0.238639 0.94873,-0.238639 0.62279,0 0.91381,0.291023 0.29103,0.285202 0.29103,0.750838 0,0.372509 -0.1979,0.64607 -0.19207,0.267741 -0.53548,0.413252 -0.34341,0.145511 -0.79158,0.145511 -0.25028,0 -0.4831,-0.06403 -0.23282,-0.06402 -0.41907,-0.174613 l 0.13969,-0.2561 q -0.0175,0.139691 -0.0175,0.279381 0,0.407432 0.2561,0.587866 0.2561,0.174613 0.72755,0.174613 0.36669,0 0.58787,-0.06403 0.22118,-0.06403 0.37251,-0.122229 0.15133,-0.06403 0.29684,-0.06403 0.0815,0 0.14551,0.04656 0.0699,0.04074 0.11059,0.122229 0.0466,0.08149 0.0466,0.197895 0,0.174614 -0.17461,0.337586 -0.17461,0.157153 -0.51802,0.261921 -0.33759,0.09895 -0.83232,0.09895 z m -0.33759,-1.903287 q 0.41325,0 0.66353,-0.174613 0.25028,-0.174614 0.25028,-0.430714 0,-0.203715 -0.13969,-0.331765 -0.13387,-0.133871 -0.42489,-0.133871 -0.27356,0 -0.49474,0.104768 -0.21536,0.09895 -0.33759,0.261921 -0.12223,0.162972 -0.12223,0.355047 0,0.168793 0.15716,0.26192 0.16297,0.08731 0.44817,0.08731 z"
         style="-inkscape-font-specification:DynaPuff"
         id="path1543" /><path
         d="m 194.03118,-58.245099 q 0,-0.558763 0.10477,-0.803222 0.10476,-0.25028 0.29684,-0.25028 0.15133,0 0.23864,0.12805 0.0873,0.12223 0.12805,0.308484 0.0407,0.180434 0.0407,0.366688 l -0.0291,-0.01164 q 0.099,-0.314305 0.30266,-0.541302 0.20954,-0.226998 0.50056,-0.226998 0.34341,0 0.50638,0.285202 0.16297,0.279382 0.16297,0.698454 0,0.558763 -0.12805,0.77994 -0.12805,0.221178 -0.3434,0.221178 -0.15716,0 -0.23282,-0.12805 -0.0699,-0.12805 -0.0466,-0.453995 0.0233,-0.343407 -0.0407,-0.477277 -0.064,-0.133871 -0.20371,-0.133871 -0.1688,0 -0.27939,0.215357 -0.10476,0.209536 -0.10476,0.51802 0,0.122229 0.0291,0.308484 0.0291,0.186254 0.064,0.407431 0.0349,0.215357 0.064,0.430714 0.0291,0.215356 0.0291,0.39579 0,0.320125 -0.099,0.459816 -0.0989,0.139691 -0.27938,0.139691 -0.20371,0 -0.3143,-0.12805 -0.11059,-0.133871 -0.1688,-0.430714 -0.0466,-0.26774 -0.0931,-0.634429 -0.0466,-0.366688 -0.0757,-0.750838 -0.0291,-0.384149 -0.0291,-0.692633 z"
         style="-inkscape-font-specification:DynaPuff"
         id="path1545" /><path
         d="m 198.27429,-59.263678 q 0.51802,0 0.74501,0.151332 0.227,0.151331 0.227,0.38997 0,0.139691 -0.099,0.232818 -0.0931,0.08731 -0.26774,0.08731 -0.18043,0 -0.37833,-0.05238 -0.19207,-0.05238 -0.44817,-0.05238 -0.29684,0 -0.44236,0.116409 -0.14551,0.116409 -0.14551,0.296842 0,0.168794 0.12805,0.267741 0.13387,0.09313 0.50638,0.139691 0.41325,0.04656 0.681,0.151332 0.27356,0.09895 0.40743,0.302663 0.13387,0.197895 0.13387,0.547122 0,0.552943 -0.38997,0.820684 -0.38997,0.26774 -1.07679,0.26774 -0.43653,0 -0.69263,-0.06985 -0.2561,-0.06985 -0.37251,-0.197895 -0.11059,-0.12805 -0.11059,-0.302664 0,-0.151331 0.0989,-0.232818 0.10477,-0.08731 0.24446,-0.08731 0.13387,0 0.2852,0.03492 0.15133,0.0291 0.32013,0.06403 0.16879,0.03492 0.34922,0.03492 0.58205,0 0.58205,-0.360868 0,-0.122229 -0.0582,-0.197895 -0.0582,-0.07567 -0.20953,-0.12223 -0.15133,-0.05238 -0.44236,-0.08149 -0.34922,-0.03492 -0.60532,-0.116409 -0.2561,-0.08731 -0.39579,-0.279382 -0.13969,-0.197895 -0.13969,-0.541301 0,-0.541302 0.40743,-0.873068 0.40743,-0.337586 1.15827,-0.337586 z"
         style="-inkscape-font-specification:DynaPuff"
         id="path1547" /><path
         d="m 202.05759,-59.123987 h -0.11641 q -0.0175,-0.2561 0.0116,-0.483097 0.0291,-0.232818 0.12223,-0.372509 0.0989,-0.145512 0.27938,-0.145512 0.16297,0 0.23864,0.104769 0.0757,0.104768 0.0757,0.291022 0,0.366688 -0.13969,0.628609 l -0.10477,-0.01164 q 0.31431,-0.110589 0.7101,-0.110589 0.25028,0 0.39579,0.09895 0.15133,0.09313 0.15133,0.320125 0,0.215356 -0.17461,0.325945 -0.17462,0.110588 -0.43654,0.110588 -0.15715,0 -0.33758,-0.01164 -0.17462,-0.01746 -0.34341,-0.05238 l 0.099,-0.122229 q 0.0524,0.221177 0.099,0.506379 0.0524,0.279382 0.0931,0.582045 0.0408,0.302663 0.064,0.587865 0.0233,0.285203 0.0233,0.5122 0,0.372509 -0.11641,0.587866 -0.11641,0.215356 -0.34341,0.215356 -0.18043,0 -0.2852,-0.110588 -0.099,-0.110589 -0.14551,-0.279382 -0.0407,-0.174613 -0.0524,-0.360868 -0.006,-0.186254 -0.006,-0.337586 0,-0.2561 0.0233,-0.576224 0.0233,-0.325946 0.064,-0.669352 0.0466,-0.343407 0.10477,-0.663532 l 0.11641,0.09895 q -0.29684,0.151332 -0.73338,0.151332 -0.26774,0 -0.41325,-0.09895 -0.14551,-0.09895 -0.14551,-0.308484 0,-0.226997 0.16297,-0.349227 0.16298,-0.12805 0.43654,-0.12805 0.18043,0 0.33758,0.02328 0.16298,0.01746 0.28521,0.04656 z"
         style="-inkscape-font-specification:DynaPuff"
         id="path1549" /><path
         d="m 205.50911,-55.602615 q -0.46564,0 -0.81487,-0.203716 -0.3434,-0.209536 -0.53548,-0.593686 -0.18625,-0.384149 -0.18625,-0.91381 0,-0.552943 0.19207,-0.966195 0.19208,-0.413252 0.5413,-0.64607 0.35505,-0.232818 0.82069,-0.232818 0.50056,0 0.86724,0.226998 0.36669,0.221177 0.57041,0.622788 0.20371,0.401611 0.20371,0.937092 0,0.547123 -0.20371,0.942913 -0.20372,0.395791 -0.57623,0.611147 -0.37251,0.215357 -0.87888,0.215357 z m 0.0815,-0.785761 q 0.36087,0 0.57041,-0.285202 0.21535,-0.291022 0.21535,-0.768299 0,-0.483097 -0.21535,-0.7683 -0.20954,-0.285202 -0.57041,-0.285202 -0.37251,0 -0.58786,0.285202 -0.21536,0.285203 -0.21536,0.7683 0,0.477277 0.21536,0.768299 0.21535,0.285202 0.58786,0.285202 z"
         style="-inkscape-font-specification:DynaPuff"
         id="path1551" /><path
         d="m 211.46343,-55.561872 q -0.1979,0 -0.27356,-0.151332 -0.0699,-0.157152 -0.0815,-0.494738 l 0.0582,0.0291 q -0.32595,0.63443 -1.23394,0.63443 -0.41325,0 -0.68681,-0.145512 -0.27356,-0.151331 -0.40743,-0.39579 -0.12805,-0.25028 -0.12805,-0.541302 0,-0.500559 0.34922,-0.791581 0.34923,-0.296843 0.92546,-0.296843 0.37833,0 0.65771,0.110588 0.27938,0.110589 0.47727,0.308484 l -0.0989,-0.01164 q -0.0408,-0.587865 -0.2561,-0.838145 -0.20954,-0.256099 -0.59951,-0.256099 -0.227,0 -0.41907,0.06985 -0.19208,0.06985 -0.35505,0.145511 -0.15715,0.06985 -0.29684,0.06985 -0.13969,0 -0.22118,-0.09313 -0.0757,-0.09313 -0.0757,-0.238638 0,-0.209536 0.1979,-0.395791 0.20372,-0.186254 0.53548,-0.302663 0.33177,-0.116409 0.72174,-0.116409 0.47145,0 0.80904,0.226998 0.33759,0.226997 0.5122,0.663531 0.15133,0.372509 0.21536,0.832324 0.064,0.459816 0.064,0.983656 0,0.395791 -0.0407,0.611147 -0.0408,0.215357 -0.12805,0.302664 -0.0815,0.08149 -0.22118,0.08149 z m -1.28632,-0.65189 q 0.19208,0 0.38997,-0.05238 0.1979,-0.05821 0.33177,-0.168793 0.13387,-0.110589 0.13387,-0.273561 0,-0.139691 -0.11641,-0.226998 -0.11059,-0.09313 -0.29685,-0.139691 -0.18043,-0.04656 -0.38997,-0.04656 -0.35504,0 -0.5413,0.122229 -0.18043,0.122229 -0.18043,0.325945 0,0.221177 0.16879,0.343407 0.17462,0.116409 0.50056,0.116409 z"
         style="-inkscape-font-specification:DynaPuff"
         id="path1553" /><path
         d="m 213.99532,-55.556051 q -0.80322,0 -1.18155,-0.419073 -0.37251,-0.419072 -0.37251,-1.16409 0,-0.576224 0.22118,-1.018578 0.227,-0.448175 0.64607,-0.698454 0.42489,-0.2561 1.01276,-0.2561 0.52966,0 0.80322,0.174613 0.27938,0.168793 0.27938,0.436534 0,0.162973 -0.10477,0.26192 -0.099,0.09313 -0.29684,0.09313 -0.11059,0 -0.227,-0.03492 -0.11059,-0.03492 -0.24446,-0.06985 -0.13387,-0.03492 -0.32012,-0.03492 -0.4831,0 -0.72756,0.256099 -0.23864,0.2561 -0.23864,0.739198 0,0.459815 0.23282,0.669351 0.23282,0.203716 0.63443,0.203716 0.1979,0 0.34341,-0.04074 0.15133,-0.04656 0.27938,-0.08731 0.13387,-0.04656 0.26774,-0.04656 0.13387,0 0.22118,0.08731 0.0873,0.08149 0.0873,0.238639 0,0.180434 -0.14551,0.343406 -0.14551,0.162973 -0.43653,0.267741 -0.29103,0.09895 -0.73338,0.09895 z"
         style="-inkscape-font-specification:DynaPuff"
         id="path1555" /><path
         d="m 216.38753,-60.229873 q 0.18626,0 0.2561,0.145512 0.0757,0.145511 0.0757,0.436533 0,0.25028 -0.0291,0.628609 -0.0291,0.378329 -0.0757,0.727556 h -0.0349 q 0.19207,-0.360868 0.49474,-0.582045 0.30266,-0.221177 0.64025,-0.221177 0.29684,0 0.52966,0.145511 0.23281,0.139691 0.37833,0.442355 0.13387,0.273561 0.19789,0.65189 0.064,0.372509 0.064,0.710095 0,0.541302 -0.0757,0.861426 -0.0698,0.320125 -0.19789,0.465636 -0.12805,0.139691 -0.30267,0.139691 -0.36669,0 -0.36669,-0.599506 0,-0.291023 0.0291,-0.599507 0.0349,-0.308483 0.0349,-0.564583 0,-0.436534 -0.13969,-0.651891 -0.13387,-0.221177 -0.38997,-0.221177 -0.32013,0 -0.51802,0.285202 -0.1979,0.285202 -0.1979,0.785761 0,0.26192 0.0466,0.576225 0.0466,0.308484 0.0466,0.564583 0,0.285202 -0.11059,0.413252 -0.10477,0.12223 -0.27356,0.12223 -0.12805,0 -0.227,-0.05238 -0.0931,-0.04656 -0.16297,-0.192075 -0.064,-0.151332 -0.11059,-0.448175 -0.0349,-0.226997 -0.0698,-0.529661 -0.0349,-0.302663 -0.0582,-0.634429 -0.0233,-0.331765 -0.0407,-0.64607 -0.0116,-0.320124 -0.0116,-0.582045 0,-0.826504 0.15715,-1.199012 0.15715,-0.37833 0.44235,-0.37833 z"
         style="-inkscape-font-specification:DynaPuff"
         id="path1557" /><path
         d="m 220.10679,-60.084361 q 0.23282,0 0.33177,0.12805 0.10477,0.128049 0.10477,0.296842 0,0.209537 -0.12805,0.325946 -0.12223,0.110588 -0.34923,0.110588 -0.22118,0 -0.33176,-0.122229 -0.11059,-0.12805 -0.11059,-0.296843 0,-0.221177 0.13387,-0.331766 0.13387,-0.110588 0.34922,-0.110588 z m 0.0349,1.29796 q 0.18625,0 0.29102,0.349227 0.11059,0.349227 0.11059,1.111706 0,0.937092 -0.13387,1.350344 -0.13387,0.413252 -0.40743,0.413252 -0.20954,0 -0.30849,-0.302663 -0.0989,-0.308484 -0.0989,-1.070963 0,-0.937092 0.15133,-1.391088 0.15715,-0.459815 0.39579,-0.459815 z"
         style="-inkscape-font-specification:DynaPuff"
         id="path1559" /><path
         d="m 222.88315,-55.573513 q -0.64607,0 -1.03022,-0.192075 -0.38415,-0.192074 -0.55294,-0.552942 -0.1688,-0.360868 -0.1688,-0.861427 0,-0.634429 0.23282,-1.076783 0.23864,-0.448175 0.65189,-0.686813 0.41908,-0.238639 0.94874,-0.238639 0.62278,0 0.91381,0.291023 0.29102,0.285202 0.29102,0.750838 0,0.372509 -0.1979,0.64607 -0.19207,0.267741 -0.53548,0.413252 -0.3434,0.145511 -0.79158,0.145511 -0.25028,0 -0.4831,-0.06403 -0.23281,-0.06402 -0.41907,-0.174613 l 0.13969,-0.2561 q -0.0175,0.139691 -0.0175,0.279381 0,0.407432 0.2561,0.587866 0.2561,0.174613 0.72756,0.174613 0.36669,0 0.58786,-0.06403 0.22118,-0.06403 0.37251,-0.122229 0.15133,-0.06403 0.29684,-0.06403 0.0815,0 0.14552,0.04656 0.0698,0.04074 0.11058,0.122229 0.0466,0.08149 0.0466,0.197895 0,0.174614 -0.17462,0.337586 -0.17461,0.157153 -0.51802,0.261921 -0.33758,0.09895 -0.83232,0.09895 z m -0.33759,-1.903287 q 0.41326,0 0.66354,-0.174613 0.25027,-0.174614 0.25027,-0.430714 0,-0.203715 -0.13969,-0.331765 -0.13387,-0.133871 -0.42489,-0.133871 -0.27356,0 -0.49474,0.104768 -0.21535,0.09895 -0.33758,0.261921 -0.12223,0.162972 -0.12223,0.355047 0,0.168793 0.15715,0.26192 0.16297,0.08731 0.44817,0.08731 z"
         style="-inkscape-font-specification:DynaPuff"
         id="path1561" /><path
         d="m 225.08909,-59.281139 q 0.227,0 0.33759,0.174613 0.11059,0.174614 0.18626,0.535482 0.064,0.308483 0.18043,0.715915 0.11641,0.401611 0.26192,0.826504 0.15133,0.424893 0.30848,0.814863 h 0.0233 q 0.13969,-0.360868 0.25609,-0.7683 0.12223,-0.407431 0.20372,-0.797401 0.0873,-0.395791 0.11641,-0.704275 0.0349,-0.378329 0.12223,-0.535481 0.0873,-0.162973 0.27938,-0.162973 0.20372,0 0.32013,0.162973 0.1164,0.162973 0.1164,0.506379 0,0.291023 -0.064,0.616968 -0.0582,0.325945 -0.16297,0.64607 -0.099,0.320124 -0.227,0.593686 -0.15133,0.325945 -0.30266,0.570404 -0.15134,0.238638 -0.33759,0.372508 -0.18043,0.133871 -0.44235,0.133871 -0.27939,0 -0.47728,-0.197895 -0.1979,-0.197896 -0.43654,-0.622789 -0.19789,-0.366688 -0.3434,-0.762479 -0.13969,-0.39579 -0.22118,-0.774119 -0.0757,-0.38415 -0.0757,-0.698454 0,-0.325946 0.0873,-0.483098 0.0931,-0.162972 0.29102,-0.162972 z"
         style="-inkscape-font-specification:DynaPuff"
         id="path1563" /><path
         d="m 229.9317,-55.573513 q -0.64607,0 -1.03022,-0.192075 -0.38415,-0.192074 -0.55294,-0.552942 -0.16879,-0.360868 -0.16879,-0.861427 0,-0.634429 0.23282,-1.076783 0.23863,-0.448175 0.65189,-0.686813 0.41907,-0.238639 0.94873,-0.238639 0.62279,0 0.91381,0.291023 0.29102,0.285202 0.29102,0.750838 0,0.372509 -0.19789,0.64607 -0.19208,0.267741 -0.53548,0.413252 -0.34341,0.145511 -0.79159,0.145511 -0.25027,0 -0.48309,-0.06403 -0.23282,-0.06402 -0.41907,-0.174613 l 0.13969,-0.2561 q -0.0175,0.139691 -0.0175,0.279381 0,0.407432 0.2561,0.587866 0.2561,0.174613 0.72756,0.174613 0.36669,0 0.58787,-0.06403 0.22117,-0.06403 0.3725,-0.122229 0.15134,-0.06403 0.29685,-0.06403 0.0815,0 0.14551,0.04656 0.0698,0.04074 0.11059,0.122229 0.0466,0.08149 0.0466,0.197895 0,0.174614 -0.17461,0.337586 -0.17462,0.157153 -0.51802,0.261921 -0.33759,0.09895 -0.83233,0.09895 z m -0.33758,-1.903287 q 0.41325,0 0.66353,-0.174613 0.25028,-0.174614 0.25028,-0.430714 0,-0.203715 -0.13969,-0.331765 -0.13387,-0.133871 -0.4249,-0.133871 -0.27356,0 -0.49473,0.104768 -0.21536,0.09895 -0.33759,0.261921 -0.12223,0.162972 -0.12223,0.355047 0,0.168793 0.15715,0.26192 0.16298,0.08731 0.44818,0.08731 z"
         style="-inkscape-font-specification:DynaPuff"
         id="path1565" /><path
         d="m 185.84238,-51.077857 h -0.0917 q -0.0282,-0.310445 0.0212,-0.585612 0.0494,-0.282222 0.21872,-0.451556 0.16933,-0.176389 0.47978,-0.176389 0.3175,0 0.45861,0.155223 0.14816,0.148166 0.14816,0.423333 0,0.388056 -0.16933,0.663223 l -0.0776,-0.01411 q 0.28222,-0.134056 0.62089,-0.134056 0.35278,0 0.56444,0.162278 0.21167,0.155222 0.21167,0.536223 0,0.352778 -0.24694,0.543278 -0.23989,0.183444 -0.60678,0.183444 -0.14817,0 -0.3175,-0.01411 -0.16228,-0.02117 -0.3175,-0.0635 l 0.0564,-0.09878 q 0.0847,0.225778 0.16228,0.515056 0.0776,0.282223 0.14111,0.585612 0.0635,0.303389 0.0988,0.599722 0.0353,0.289278 0.0353,0.515056 0,0.451556 -0.20461,0.712612 -0.19756,0.261056 -0.61384,0.261056 -0.26811,0 -0.4445,-0.105834 -0.16933,-0.112889 -0.26811,-0.296333 -0.0988,-0.183445 -0.14111,-0.423334 -0.0353,-0.239889 -0.0353,-0.493889 0,-0.261056 0.0353,-0.578556 0.0353,-0.324556 0.10583,-0.670278 0.0776,-0.352778 0.16934,-0.670279 l 0.0917,0.162278 q -0.26106,0.183445 -0.64911,0.183445 -0.37395,0 -0.58561,-0.176389 -0.20462,-0.176389 -0.20462,-0.536223 0,-0.381 0.22578,-0.585611 0.22578,-0.211667 0.61384,-0.211667 0.14816,0 0.28222,0.02822 0.13405,0.02117 0.23283,0.05644 z"
         style="-inkscape-font-specification:'DynaPuff Semi-Bold'"
         id="path1567" /><path
         d="m 189.52539,-52.418414 q 0.35277,0 0.48683,0.211667 0.13406,0.204611 0.13406,0.613834 0,0.296333 -0.0423,0.677334 -0.0353,0.381 -0.10583,0.684389 h -0.0423 q 0.22578,-0.359834 0.56445,-0.585612 0.34572,-0.225777 0.73378,-0.225777 0.37394,0 0.66322,0.183444 0.29633,0.183445 0.48683,0.564445 0.16228,0.324556 0.23284,0.769056 0.0776,0.4445 0.0776,0.846667 0,0.656167 -0.11995,1.044223 -0.11288,0.388056 -0.3175,0.564445 -0.20461,0.169333 -0.47977,0.169333 -0.66323,0 -0.66323,-0.846667 0,-0.324556 0.0353,-0.663223 0.0423,-0.345722 0.0423,-0.627944 0,-0.352778 -0.11994,-0.522112 -0.11289,-0.176389 -0.32456,-0.176389 -0.254,0 -0.41627,0.239889 -0.15523,0.239889 -0.15523,0.663223 0,0.254 0.0353,0.536222 0.0423,0.275167 0.0423,0.606779 0,0.493889 -0.20462,0.712611 -0.20461,0.211667 -0.52211,0.211667 -0.21166,0 -0.381,-0.0635 -0.16933,-0.07056 -0.28928,-0.275167 -0.11288,-0.211667 -0.17638,-0.620889 -0.0423,-0.254 -0.0776,-0.599723 -0.0353,-0.345722 -0.0635,-0.726723 -0.0212,-0.381 -0.0423,-0.733778 -0.0141,-0.359833 -0.0141,-0.642056 0,-1.037167 0.26106,-1.50989 0.26811,-0.479778 0.762,-0.479778 z"
         style="-inkscape-font-specification:'DynaPuff Semi-Bold'"
         id="path1569" /><path
         d="m 195.37444,-46.773966 q -0.84667,0 -1.34761,-0.232833 -0.50094,-0.232834 -0.72672,-0.670278 -0.22578,-0.437445 -0.22578,-1.044223 0,-0.769056 0.31044,-1.305279 0.3175,-0.543278 0.86078,-0.832556 0.55034,-0.289278 1.24178,-0.289278 0.8255,0 1.2065,0.338667 0.38806,0.338667 0.38806,0.889001 0,0.430389 -0.23989,0.754945 -0.23283,0.3175 -0.65617,0.493889 -0.41628,0.169333 -0.95955,0.169333 -0.26812,0 -0.52212,-0.04233 -0.24694,-0.04939 -0.4445,-0.127 l 0.16934,-0.373945 q -0.0212,0.169333 -0.0212,0.338667 0,0.352778 0.23989,0.500945 0.24694,0.148166 0.68439,0.148166 0.39511,0 0.66322,-0.07761 0.26811,-0.08467 0.46567,-0.162278 0.20461,-0.07761 0.38805,-0.07761 0.11995,0 0.23989,0.0635 0.11995,0.05644 0.19756,0.183445 0.0847,0.119944 0.0847,0.324556 0,0.289278 -0.22578,0.522111 -0.22578,0.232834 -0.67028,0.373945 -0.4445,0.134055 -1.10067,0.134055 z m -0.40922,-2.427112 q 0.381,0 0.64206,-0.176389 0.26105,-0.176389 0.26105,-0.430389 0,-0.183445 -0.127,-0.296334 -0.127,-0.112889 -0.35983,-0.112889 -0.24695,0 -0.45861,0.09878 -0.21167,0.09172 -0.33867,0.239889 -0.127,0.148167 -0.127,0.331611 0,0.169334 0.13405,0.261056 0.13406,0.08467 0.37395,0.08467 z"
         style="-inkscape-font-specification:'DynaPuff Semi-Bold'"
         id="path1571" /><path
         d="m 199.91823,-52.242025 q 0.39511,0 0.56445,0.1905 0.17639,0.190501 0.17639,0.444501 0,0.310444 -0.21167,0.479778 -0.21167,0.169333 -0.59972,0.169333 -0.36689,0 -0.55739,-0.183444 -0.18345,-0.1905 -0.18345,-0.437445 0,-0.331611 0.22578,-0.493889 0.22578,-0.169334 0.58561,-0.169334 z m 0.0635,1.57339 q 0.3175,0 0.49389,0.423334 0.18345,0.423333 0.18345,1.347612 0,1.135945 -0.22578,1.63689 -0.21872,0.500945 -0.67733,0.500945 -0.35278,0 -0.52212,-0.36689 -0.16227,-0.373944 -0.16227,-1.298223 0,-1.135945 0.254,-1.686279 0.254,-0.557389 0.65616,-0.557389 z"
         style="-inkscape-font-specification:'DynaPuff Semi-Bold'"
         id="path1573" /><path
         d="m 204.63135,-50.061857 q 0.0705,-0.289278 0.24694,-0.522111 0.18345,-0.232834 0.4445,-0.366889 0.26811,-0.141111 0.58561,-0.141111 0.37395,0 0.66323,0.176389 0.29633,0.176389 0.46566,0.578556 0.16934,0.402166 0.16934,1.072445 0,0.331611 -0.0282,0.670278 -0.0282,0.338667 -0.0705,0.627945 -0.0423,0.289278 -0.0917,0.486833 -0.0847,0.324556 -0.29634,0.49389 -0.20461,0.162277 -0.508,0.162277 -0.28222,0 -0.4445,-0.169333 -0.16228,-0.176389 -0.16228,-0.493889 0,-0.127 0.0353,-0.338667 0.0353,-0.211667 0.0776,-0.458611 0.0423,-0.246945 0.0776,-0.486834 0.0353,-0.239889 0.0353,-0.416278 0,-0.261056 -0.0988,-0.402167 -0.0988,-0.148167 -0.27516,-0.148167 -0.22578,0 -0.36689,0.268111 -0.13406,0.268112 -0.16228,0.776112 -0.0282,0.402167 -0.0564,0.719667 -0.0282,0.310445 -0.0988,0.515056 -0.0847,0.246945 -0.23989,0.366889 -0.15522,0.119945 -0.41628,0.119945 -0.28222,0 -0.45861,-0.169334 -0.16933,-0.169333 -0.18345,-0.536222 -0.007,-0.218723 -0.007,-0.522112 0.007,-0.303389 0.007,-0.599722 0.007,-0.296334 -0.007,-0.49389 -0.0141,-0.310444 -0.11289,-0.451555 -0.0988,-0.148167 -0.28928,-0.148167 -0.20461,0 -0.32455,0.211667 -0.11995,0.204611 -0.15523,0.578556 -0.007,0.176389 -0.007,0.430389 0,0.254 0,0.508 0.007,0.246945 0,0.416278 -0.0141,0.486834 -0.19756,0.698501 -0.17639,0.211666 -0.49389,0.211666 -0.35983,0 -0.53622,-0.204611 -0.16933,-0.211667 -0.21167,-0.670278 -0.0282,-0.289278 -0.0423,-0.5715 -0.0141,-0.289278 -0.0141,-0.578556 0,-0.289278 0.0212,-0.62089 0.0212,-0.331611 0.0494,-0.635 0.0564,-0.437445 0.21166,-0.733778 0.15522,-0.296334 0.508,-0.296334 0.3175,0 0.45156,0.204611 0.14111,0.197556 0.14111,0.613834 0,0.141111 -0.0212,0.261056 l -0.0212,-0.141111 q 0.14111,-0.458612 0.46566,-0.712612 0.32456,-0.261056 0.72673,-0.261056 0.508,0 0.79727,0.324556 0.28928,0.3175 0.3175,0.881945 z"
         style="-inkscape-font-specification:'DynaPuff Semi-Bold'"
         id="path1575" /><path
         d="m 208.32846,-51.204857 q 0.26811,0 0.43039,0.232833 0.16933,0.232834 0.24694,0.733778 l -0.14817,0.09172 q 0.127,-0.49389 0.47273,-0.754945 0.34572,-0.261056 0.81844,-0.261056 0.4445,0 0.79022,0.225778 0.34573,0.225778 0.54328,0.684389 0.19756,0.451556 0.19756,1.135945 0,1.107723 -0.40922,1.63689 -0.40923,0.522112 -1.10067,0.522112 -0.47978,0 -0.75495,-0.211667 -0.27516,-0.211667 -0.381,-0.515056 l 0.0847,-0.04233 q 0.0564,0.402167 0.0917,0.797278 0.0423,0.388056 0.0423,0.684389 0,0.345723 -0.16933,0.585612 -0.16228,0.246945 -0.52211,0.246945 -0.33161,0 -0.508,-0.225778 -0.17639,-0.218723 -0.24695,-0.606779 -0.0423,-0.289278 -0.0847,-0.747889 -0.0423,-0.458611 -0.0706,-0.987778 -0.0212,-0.536223 -0.0212,-1.051279 0,-0.515056 0.0353,-0.966612 0.0423,-0.451555 0.0988,-0.733778 0.0635,-0.239889 0.20461,-0.352778 0.14817,-0.119944 0.35984,-0.119944 z m 1.3335,1.135945 q -0.29634,0 -0.47273,0.289278 -0.16933,0.289278 -0.16933,0.747889 0,0.472723 0.16933,0.705556 0.17639,0.232834 0.45862,0.232834 0.33866,0 0.47977,-0.261056 0.14817,-0.268111 0.14817,-0.684389 0,-0.536223 -0.18344,-0.783168 -0.18345,-0.246944 -0.43039,-0.246944 z"
         style="-inkscape-font-specification:'DynaPuff Semi-Bold'"
         id="path1577" /><path
         d="m 214.00818,-46.809243 q -0.61383,0 -1.07244,-0.246945 -0.45861,-0.254 -0.71261,-0.719667 -0.24695,-0.465667 -0.24695,-1.107723 0,-0.670278 0.254,-1.171223 0.254,-0.500945 0.71967,-0.783167 0.46567,-0.282223 1.0795,-0.282223 0.66322,0 1.143,0.275167 0.48683,0.268112 0.75494,0.754945 0.26812,0.486834 0.26812,1.135945 0,0.663223 -0.27517,1.143001 -0.26811,0.479778 -0.75495,0.740834 -0.48683,0.261056 -1.15711,0.261056 z m 0.0988,-1.326446 q 0.3175,0 0.508,-0.246944 0.1905,-0.246945 0.1905,-0.656167 0,-0.409223 -0.1905,-0.656167 -0.1905,-0.246945 -0.508,-0.246945 -0.32456,0 -0.51506,0.246945 -0.18344,0.239889 -0.18344,0.656167 0,0.409222 0.18344,0.656167 0.1905,0.246944 0.51506,0.246944 z"
         style="-inkscape-font-specification:'DynaPuff Semi-Bold'"
         id="path1579" /><path
         d="m 218.58018,-51.247191 q 0.72672,0 1.04422,0.246945 0.32456,0.239889 0.32456,0.627945 0,0.232833 -0.16228,0.388056 -0.15522,0.155222 -0.43744,0.155222 -0.22578,0 -0.47978,-0.07056 -0.254,-0.07055 -0.57856,-0.07055 -0.20461,0 -0.31044,0.07761 -0.10584,0.07761 -0.10584,0.197556 0,0.119944 0.10584,0.197555 0.10583,0.07056 0.4445,0.112889 0.52916,0.04939 0.889,0.176389 0.35983,0.119945 0.54328,0.381 0.18344,0.261056 0.18344,0.712612 0,0.684389 -0.50094,1.00189 -0.50095,0.310444 -1.38995,0.310444 -0.60678,0 -0.97367,-0.112889 -0.35983,-0.112889 -0.52211,-0.3175 -0.16228,-0.211667 -0.16228,-0.479778 0,-0.254 0.16934,-0.395111 0.17639,-0.148167 0.40922,-0.148167 0.16228,0 0.34572,0.04233 0.18345,0.04233 0.38806,0.09172 0.20461,0.04939 0.41628,0.04939 0.38805,0 0.38805,-0.232833 0,-0.07761 -0.0423,-0.134056 -0.0423,-0.0635 -0.16228,-0.105833 -0.11994,-0.04233 -0.36689,-0.07056 -0.46567,-0.04939 -0.80433,-0.155222 -0.33161,-0.112889 -0.52211,-0.345723 -0.18345,-0.239889 -0.18345,-0.656167 0,-0.656167 0.53622,-1.065389 0.53623,-0.409223 1.51695,-0.409223 z"
         style="-inkscape-font-specification:'DynaPuff Semi-Bold'"
         id="path1581" /><path
         d="m 222.42546,-51.247191 q 0.72673,0 1.04423,0.246945 0.32455,0.239889 0.32455,0.627945 0,0.232833 -0.16228,0.388056 -0.15522,0.155222 -0.43744,0.155222 -0.22578,0 -0.47978,-0.07056 -0.254,-0.07055 -0.57856,-0.07055 -0.20461,0 -0.31044,0.07761 -0.10583,0.07761 -0.10583,0.197556 0,0.119944 0.10583,0.197555 0.10583,0.07056 0.4445,0.112889 0.52917,0.04939 0.889,0.176389 0.35983,0.119945 0.54328,0.381 0.18344,0.261056 0.18344,0.712612 0,0.684389 -0.50094,1.00189 -0.50095,0.310444 -1.38995,0.310444 -0.60677,0 -0.97366,-0.112889 -0.35984,-0.112889 -0.52211,-0.3175 -0.16228,-0.211667 -0.16228,-0.479778 0,-0.254 0.16933,-0.395111 0.17639,-0.148167 0.40922,-0.148167 0.16228,0 0.34573,0.04233 0.18344,0.04233 0.38805,0.09172 0.20461,0.04939 0.41628,0.04939 0.38806,0 0.38806,-0.232833 0,-0.07761 -0.0423,-0.134056 -0.0423,-0.0635 -0.16228,-0.105833 -0.11994,-0.04233 -0.36689,-0.07056 -0.46566,-0.04939 -0.80433,-0.155222 -0.33161,-0.112889 -0.52211,-0.345723 -0.18345,-0.239889 -0.18345,-0.656167 0,-0.656167 0.53623,-1.065389 0.53622,-0.409223 1.51694,-0.409223 z"
         style="-inkscape-font-specification:'DynaPuff Semi-Bold'"
         id="path1583" /><path
         d="m 225.09246,-52.242025 q 0.39512,0 0.56445,0.1905 0.17639,0.190501 0.17639,0.444501 0,0.310444 -0.21167,0.479778 -0.21167,0.169333 -0.59972,0.169333 -0.36689,0 -0.55739,-0.183444 -0.18345,-0.1905 -0.18345,-0.437445 0,-0.331611 0.22578,-0.493889 0.22578,-0.169334 0.58561,-0.169334 z m 0.0635,1.57339 q 0.3175,0 0.49389,0.423334 0.18345,0.423333 0.18345,1.347612 0,1.135945 -0.22578,1.63689 -0.21872,0.500945 -0.67733,0.500945 -0.35278,0 -0.52212,-0.36689 -0.16227,-0.373944 -0.16227,-1.298223 0,-1.135945 0.254,-1.686279 0.254,-0.557389 0.65616,-0.557389 z"
         style="-inkscape-font-specification:'DynaPuff Semi-Bold'"
         id="path1585" /><path
         d="m 226.96924,-46.759854 q -0.21872,0 -0.36689,-0.119945 -0.14816,-0.127 -0.21166,-0.366889 -0.0565,-0.282223 -0.0988,-0.726723 -0.0353,-0.451556 -0.0353,-0.959556 0,-0.282222 0.0141,-0.642056 0.0141,-0.359834 0.0353,-0.726723 0.0282,-0.366889 0.0564,-0.684389 0.0282,-0.324556 0.0565,-0.529167 0.0705,-0.381 0.23989,-0.599723 0.17639,-0.225778 0.508,-0.225778 0.35983,0 0.52211,0.232834 0.16933,0.232833 0.16933,0.5715 0,0.310445 -0.0494,0.733779 -0.0423,0.423333 -0.13405,0.860778 l -0.0988,0.01411 q 0.0776,-0.303389 0.23989,-0.543278 0.16933,-0.246945 0.42333,-0.388056 0.26106,-0.148167 0.61384,-0.148167 0.67733,0 1.07244,0.49389 0.39511,0.486833 0.39511,1.524001 0,0.726722 -0.21872,1.213556 -0.21872,0.486834 -0.59972,0.733778 -0.37395,0.239889 -0.85372,0.239889 -0.45156,0 -0.762,-0.261056 -0.30339,-0.261055 -0.39512,-0.754944 l 0.13406,0.07761 q -0.0706,0.508 -0.23283,0.747889 -0.16228,0.232834 -0.42334,0.232834 z m 1.31939,-1.135946 q 0.254,0 0.4445,-0.246944 0.19756,-0.254 0.19756,-0.783167 0,-0.423334 -0.15522,-0.691445 -0.14817,-0.268112 -0.50095,-0.268112 -0.28928,0 -0.46567,0.239889 -0.17639,0.232834 -0.17639,0.712612 0,0.451556 0.17639,0.747889 0.18345,0.289278 0.47978,0.289278 z"
         style="-inkscape-font-specification:'DynaPuff Semi-Bold'"
         id="path1587" /><path
         d="m 231.6612,-46.816299 q -0.29634,0 -0.47978,-0.119944 -0.17639,-0.119945 -0.28222,-0.402167 -0.11289,-0.310445 -0.16934,-0.846668 -0.0494,-0.536222 -0.0494,-1.298223 0,-0.458611 0.0353,-0.931334 0.0423,-0.472722 0.10584,-0.860778 0.0706,-0.395111 0.14816,-0.592667 0.11995,-0.296334 0.26811,-0.416278 0.14817,-0.127 0.35984,-0.127 0.22577,0 0.37394,0.127 0.14817,0.127 0.21872,0.423334 0.0565,0.232833 0.0847,0.564444 0.0353,0.324556 0.0353,0.691445 0,0.437445 -0.0494,0.917223 -0.0494,0.479778 -0.13406,0.945445 -0.0776,0.458612 -0.1905,0.846667 l -0.52916,0.02117 q 0.19755,-0.169333 0.4445,-0.261056 0.24694,-0.09878 0.45861,-0.09878 0.26105,0 0.40217,0.134056 0.14111,0.127 0.14111,0.402167 0,0.232834 -0.16228,0.437445 -0.16228,0.197555 -0.43039,0.324556 -0.26811,0.119944 -0.59972,0.119944 z"
         style="-inkscape-font-specification:'DynaPuff Semi-Bold'"
         id="path1589" /><path
         d="m 235.37948,-46.773966 q -0.84667,0 -1.34761,-0.232833 -0.50095,-0.232834 -0.72672,-0.670278 -0.22578,-0.437445 -0.22578,-1.044223 0,-0.769056 0.31044,-1.305279 0.3175,-0.543278 0.86078,-0.832556 0.55034,-0.289278 1.24178,-0.289278 0.8255,0 1.2065,0.338667 0.38806,0.338667 0.38806,0.889001 0,0.430389 -0.23989,0.754945 -0.23284,0.3175 -0.65617,0.493889 -0.41628,0.169333 -0.95956,0.169333 -0.26811,0 -0.52211,-0.04233 -0.24694,-0.04939 -0.4445,-0.127 l 0.16934,-0.373945 q -0.0212,0.169333 -0.0212,0.338667 0,0.352778 0.23989,0.500945 0.24694,0.148166 0.68439,0.148166 0.39511,0 0.66322,-0.07761 0.26811,-0.08467 0.46567,-0.162278 0.20461,-0.07761 0.38805,-0.07761 0.11995,0 0.23989,0.0635 0.11995,0.05644 0.19756,0.183445 0.0847,0.119944 0.0847,0.324556 0,0.289278 -0.22577,0.522111 -0.22578,0.232834 -0.67028,0.373945 -0.4445,0.134055 -1.10067,0.134055 z m -0.40922,-2.427112 q 0.381,0 0.64205,-0.176389 0.26106,-0.176389 0.26106,-0.430389 0,-0.183445 -0.127,-0.296334 -0.127,-0.112889 -0.35983,-0.112889 -0.24695,0 -0.45861,0.09878 -0.21167,0.09172 -0.33867,0.239889 -0.127,0.148167 -0.127,0.331611 0,0.169334 0.13405,0.261056 0.13406,0.08467 0.37395,0.08467 z"
         style="-inkscape-font-specification:'DynaPuff Semi-Bold'"
         id="path1591" /></g></g></svg>
