<?xml version="1.0" encoding="UTF-8" standalone="no"?>
<!-- Created with Inkscape (http://www.inkscape.org/) -->

<svg
   width="99.673172"
   height="117.85117"
   viewBox="0 0 26.371858 31.181454"
   version="1.1"
   id="svg5"
   inkscape:version="1.2 (dc2aedaf03, 2022-05-15)"
   sodipodi:docname="text-6.svg"
   xmlns:inkscape="http://www.inkscape.org/namespaces/inkscape"
   xmlns:sodipodi="http://sodipodi.sourceforge.net/DTD/sodipodi-0.dtd"
   xmlns="http://www.w3.org/2000/svg"
   xmlns:svg="http://www.w3.org/2000/svg">
  <sodipodi:namedview
     id="namedview7"
     pagecolor="#ffffff"
     bordercolor="#666666"
     borderopacity="1.0"
     inkscape:showpageshadow="2"
     inkscape:pageopacity="0.0"
     inkscape:pagecheckerboard="0"
     inkscape:deskcolor="#d1d1d1"
     inkscape:document-units="mm"
     showgrid="true"
     inkscape:zoom="2.025849"
     inkscape:cx="86.136726"
     inkscape:cy="38.995996"
     inkscape:window-width="1450"
     inkscape:window-height="1020"
     inkscape:window-x="221"
     inkscape:window-y="0"
     inkscape:window-maximized="0"
     inkscape:current-layer="text9599">
    <inkscape:grid
       type="axonomgrid"
       id="grid1326"
       snapvisiblegridlinesonly="false"
       units="px"
       spacingy="2.6458333"
       originx="169.33333"
       originy="95.25" />
  </sodipodi:namedview>
  <defs
     id="defs2">
    <filter
       inkscape:collect="always"
       style="color-interpolation-filters:sRGB"
       id="filter2321"
       x="-0.0025519819"
       y="-0.0039058826"
       width="1.005104"
       height="1.0078118">
      <feGaussianBlur
         inkscape:collect="always"
         stdDeviation="0.028041879"
         id="feGaussianBlur2323" />
    </filter>
  </defs>
  <g
     inkscape:label="Layer 1"
     inkscape:groupmode="layer"
     id="layer1"
     transform="translate(-197.26339,-55.548145)">
    <g
       aria-label="As well as the  ability to leave  a mark on  this world."
       transform="matrix(1,0.57735027,0,1,1.8470149,0.55410448)"
       id="text9599"
       style="font-size:4.49616px;font-family:'Nunito Sans';-inkscape-font-specification:'Nunito Sans, Normal';fill:#aaeeff;stroke-width:0.177;filter:url(#filter2321)">
      <g
         aria-label="And the  ability to  leave a mark"
         id="text434"
         style="font-size:5.20321px;font-family:Chewy;-inkscape-font-specification:Chewy;fill:#00ffff;fill-opacity:1;stroke-width:0.0157038"
         inkscape:export-filename="text-6.png"
         inkscape:export-xdpi="96"
         inkscape:export-ydpi="96">
        <path
           d="m 198.10942,-55.568383 q 0,0.101625 -0.0203,0.2439 -0.0152,0.142276 -0.066,0.274388 -0.0508,0.127032 -0.1372,0.218495 -0.0864,0.08638 -0.22865,0.08638 -0.18801,0 -0.28455,-0.137194 -0.0915,-0.137194 -0.13212,-0.325201 -0.0406,-0.193088 -0.0508,-0.391257 -0.005,-0.198169 -0.0102,-0.315038 -0.36585,0.06097 -0.72154,0.106707 -0.0102,0.116869 -0.0457,0.289632 -0.0305,0.172762 -0.10163,0.335363 -0.0661,0.157519 -0.17784,0.274388 -0.10671,0.116869 -0.26423,0.116869 -0.12195,0 -0.19308,-0.08638 -0.0661,-0.09146 -0.10163,-0.213413 -0.0356,-0.12195 -0.0457,-0.248981 -0.005,-0.132113 -0.005,-0.218495 0,-0.289631 0.0457,-0.569101 0.0457,-0.28455 0.10671,-0.564019 0.0305,-0.147357 0.0813,-0.345526 0.0508,-0.198169 0.12195,-0.406501 0.0762,-0.213413 0.17276,-0.416663 0.10162,-0.208332 0.22866,-0.370932 0.12703,-0.1626 0.28963,-0.264226 0.1626,-0.101625 0.36077,-0.101625 0.19308,0 0.33536,0.08638 0.14228,0.08638 0.24898,0.228656 0.10671,0.142276 0.17785,0.325201 0.0711,0.177844 0.11687,0.365851 0.0508,0.182925 0.0813,0.360769 0.0356,0.177844 0.061,0.315038 0.0661,0.330282 0.11179,0.670726 0.0457,0.335364 0.0457,0.675808 z m -0.98068,-1.234746 q 0,-0.06097 -0.0102,-0.198169 -0.005,-0.142276 -0.0305,-0.27947 -0.0254,-0.142275 -0.0813,-0.248981 -0.0508,-0.111788 -0.14228,-0.111788 -0.0508,0 -0.0965,0.07114 -0.0457,0.06606 -0.0813,0.172762 -0.0356,0.101626 -0.0661,0.228657 -0.0254,0.127032 -0.0457,0.243901 -0.0203,0.116869 -0.0305,0.213412 -0.0102,0.09146 -0.0152,0.132113 0.30487,-0.02541 0.59959,-0.07622 z"
           id="path1813"
           style="fill:#00ffff;fill-opacity:1" />
        <path
           d="m 199.88278,-54.674081 q -0.0864,0 -0.1372,-0.0813 -0.0508,-0.07622 -0.0762,-0.177844 -0.0254,-0.101625 -0.0356,-0.20325 -0.005,-0.106706 -0.005,-0.1626 0,-0.152438 0.0152,-0.304876 0.0203,-0.152438 0.0406,-0.304875 0.0254,-0.152438 0.0406,-0.304876 0.0203,-0.152438 0.0203,-0.304876 0,-0.06097 -0.005,-0.132112 -0.005,-0.07114 -0.0254,-0.132113 -0.0153,-0.06606 -0.0559,-0.106707 -0.0406,-0.04065 -0.1067,-0.04065 -0.0457,0 -0.10163,0.07622 -0.0559,0.07114 -0.1067,0.167682 -0.0457,0.09146 -0.0813,0.188006 -0.0305,0.09146 -0.0305,0.137194 0,0.111788 0,0.228657 0.005,0.111788 0.005,0.228657 v 0.294713 q -0.005,0.09146 -0.0152,0.188006 -0.0102,0.09654 -0.0305,0.188007 -0.0153,0.09146 -0.0457,0.177844 -0.0305,0.0813 -0.0813,0.147357 -0.0457,0.06098 -0.11179,0.101625 -0.0661,0.04065 -0.15752,0.04065 -0.10163,0 -0.16768,-0.06606 -0.0661,-0.06606 -0.10671,-0.167682 -0.0406,-0.106706 -0.061,-0.233738 -0.0152,-0.132113 -0.0254,-0.254063 -0.005,-0.127031 -0.005,-0.228657 0.005,-0.106706 0.005,-0.167681 v -0.238819 q 0,-0.193088 -0.0102,-0.381095 -0.005,-0.188006 -0.005,-0.376013 0,-0.101625 0,-0.259144 0.005,-0.157519 0.0406,-0.304876 0.0356,-0.152438 0.11687,-0.259144 0.0813,-0.106707 0.23881,-0.106707 0.0711,0 0.12704,0.04573 0.0559,0.04573 0.0965,0.111787 0.0457,0.06606 0.0711,0.142276 0.0305,0.07622 0.0457,0.132112 0.0508,-0.07114 0.11687,-0.137194 0.0711,-0.06606 0.15752,-0.116869 0.0864,-0.05081 0.19308,-0.0813 0.10671,-0.03049 0.24391,-0.03049 0.25914,0 0.40141,0.127031 0.14736,0.121951 0.21342,0.309957 0.0711,0.182925 0.0864,0.396338 0.0152,0.213413 0.0152,0.386176 0,0.08638 -0.0152,0.259144 -0.0152,0.167682 -0.0508,0.376014 -0.0305,0.20325 -0.0864,0.421744 -0.0559,0.213413 -0.13211,0.391257 -0.0762,0.177844 -0.18292,0.289632 -0.10163,0.111788 -0.23374,0.111788 z"
           id="path1815"
           style="fill:#00ffff;fill-opacity:1" />
        <path
           d="m 203.05857,-58.159826 q 0,0.370932 -0.0305,0.736783 -0.0254,0.365851 -0.0254,0.736783 0,0.299794 0.0153,0.594507 0.0203,0.294713 0.0203,0.594508 0,0.0813 -0.005,0.198169 -0.005,0.111787 -0.0356,0.218494 -0.0254,0.106706 -0.0915,0.182925 -0.061,0.07622 -0.17785,0.07622 -0.15243,0 -0.25406,-0.111788 -0.0965,-0.116869 -0.12195,-0.259144 -0.0965,0.182925 -0.27947,0.309957 -0.18292,0.127031 -0.39634,0.127031 -0.22865,0 -0.39633,-0.157519 -0.16261,-0.157519 -0.27439,-0.381094 -0.10671,-0.223575 -0.1626,-0.467476 -0.0508,-0.2439 -0.0508,-0.421745 0,-0.127031 0.0153,-0.289631 0.0152,-0.162601 0.0508,-0.330282 0.0406,-0.167682 0.10163,-0.325201 0.061,-0.1626 0.15243,-0.289632 0.0966,-0.127031 0.22358,-0.20325 0.13211,-0.07622 0.29979,-0.07622 0.18293,0 0.35061,0.106707 0.16768,0.106706 0.25406,0.264225 l 0.0457,-0.80792 q 0.005,-0.09654 0.0152,-0.223576 0.0102,-0.132112 0.0406,-0.248981 0.0356,-0.116869 0.10671,-0.198169 0.0711,-0.0813 0.20833,-0.0813 0.14735,0 0.22865,0.07114 0.0813,0.07114 0.11687,0.182925 0.0406,0.106707 0.0457,0.233738 0.0102,0.127032 0.0102,0.238819 z m -0.82825,2.25608 q 0,-0.116869 -0.005,-0.228657 -0.005,-0.111788 0,-0.228657 -0.0305,-0.06606 -0.0711,-0.142275 -0.0406,-0.0813 -0.10162,-0.147356 -0.0559,-0.07114 -0.12703,-0.116869 -0.0711,-0.04573 -0.15244,-0.04573 -0.0915,0 -0.14736,0.05589 -0.0559,0.05589 -0.0813,0.137194 -0.0254,0.07622 -0.0356,0.167682 -0.005,0.09146 -0.005,0.157519 0,0.06097 0.0102,0.182925 0.0102,0.116869 0.0356,0.238819 0.0305,0.121951 0.0813,0.213413 0.0508,0.09146 0.1372,0.09146 0.066,0 0.13211,-0.02541 0.0661,-0.03049 0.12195,-0.07114 0.061,-0.04573 0.11179,-0.09654 0.0559,-0.05589 0.0965,-0.101625 z"
           id="path1817"
           style="fill:#00ffff;fill-opacity:1" />
        <path
           d="m 205.80245,-54.633431 q -0.36077,0 -0.56402,-0.09654 -0.19817,-0.09146 -0.2998,-0.264226 -0.0965,-0.172763 -0.11687,-0.416663 -0.0203,-0.243901 -0.0203,-0.543695 0,-0.238819 0.0152,-0.477638 0.0153,-0.243901 0.0457,-0.518289 -0.0711,0 -0.11178,0.0051 -0.0406,0 -0.0661,0 -0.1626,0 -0.27947,-0.07114 -0.12195,-0.07114 -0.12195,-0.218494 0,-0.09146 0.0711,-0.162601 0.0661,-0.07114 0.17276,-0.12195 0.10671,-0.05081 0.22866,-0.0813 0.12703,-0.03049 0.23882,-0.04065 0,-0.142275 0.0203,-0.315038 0.0203,-0.172763 0.0711,-0.320119 0.0559,-0.152438 0.14736,-0.254063 0.0915,-0.101626 0.23373,-0.101626 0.0813,0 0.14228,0.05081 0.066,0.04573 0.1067,0.12195 0.0406,0.07114 0.061,0.1626 0.0203,0.09146 0.0203,0.177845 0,0.101625 -0.0152,0.208331 -0.0152,0.106707 -0.0559,0.264226 0.0864,-0.01016 0.11687,-0.01016 0.0305,-0.0051 0.0559,-0.0051 0.0864,0 0.17784,0.01524 0.0966,0.01524 0.17277,0.05081 0.0813,0.03557 0.13211,0.09654 0.0508,0.05589 0.0508,0.137194 0,0.09146 -0.0762,0.162601 -0.0711,0.07114 -0.18292,0.12195 -0.11179,0.05081 -0.23882,0.0813 -0.12703,0.02541 -0.23882,0.03557 -0.0305,0.208331 -0.0457,0.386176 -0.0102,0.172762 -0.0254,0.350606 -0.0102,0.08638 -0.0203,0.177845 -0.005,0.08638 -0.005,0.177844 0,0.06606 0.005,0.157519 0.005,0.08638 0.0356,0.167681 0.0305,0.0813 0.0965,0.142275 0.0661,0.05589 0.18293,0.05589 0.0711,0 0.14735,-0.01016 0.0762,-0.01524 0.15244,-0.01524 0.13211,0 0.18801,0.09146 0.061,0.09146 0.061,0.233738 0,0.106706 -0.0661,0.188006 -0.061,0.07622 -0.15751,0.12195 -0.0966,0.05081 -0.2185,0.07622 -0.11687,0.02541 -0.22357,0.02541 z"
           id="path1819"
           style="fill:#00ffff;fill-opacity:1" />
        <path
           d="m 208.87661,-56.132403 q 0,0.08638 -0.005,0.259144 0,0.167682 -0.0153,0.355689 -0.0102,0.182925 -0.0305,0.350606 -0.0203,0.162601 -0.0508,0.23882 -0.0406,0.09654 -0.1067,0.167681 -0.0661,0.07114 -0.17785,0.07114 -0.17276,0 -0.24898,-0.137194 -0.0762,-0.137194 -0.10162,-0.340445 -0.0254,-0.20325 -0.0203,-0.442069 0.005,-0.238819 -0.005,-0.44207 -0.0102,-0.20325 -0.0559,-0.340444 -0.0457,-0.137194 -0.16769,-0.137194 -0.16768,0 -0.25914,0.05589 -0.0864,0.05081 -0.12703,0.137194 -0.0356,0.08638 -0.0457,0.198169 -0.005,0.111788 -0.0153,0.233738 -0.0102,0.116869 -0.0152,0.315038 -0.005,0.198169 -0.0457,0.391257 -0.0406,0.193088 -0.1372,0.335363 -0.0915,0.137194 -0.27438,0.137194 -0.11179,0 -0.18293,-0.08638 -0.0661,-0.08638 -0.10671,-0.223576 -0.0406,-0.137194 -0.061,-0.304875 -0.0152,-0.167682 -0.0203,-0.325201 0,-0.1626 0,-0.294713 0.005,-0.132113 0.005,-0.198169 0,-0.101625 0.005,-0.335363 0.0102,-0.233738 0.0356,-0.518289 0.0254,-0.289632 0.066,-0.594507 0.0407,-0.304876 0.10671,-0.553858 0.0661,-0.254062 0.15752,-0.411582 0.0965,-0.157519 0.22357,-0.152437 0.0813,0.0051 0.1372,0.07114 0.061,0.06606 0.0965,0.172763 0.0406,0.101625 0.0661,0.223576 0.0254,0.12195 0.0356,0.2439 0.0152,0.116869 0.0152,0.218494 0.005,0.101625 0.005,0.157519 0,0.132113 -0.005,0.264226 -0.005,0.132112 -0.0152,0.264225 0.11687,-0.157519 0.30995,-0.259144 0.19817,-0.101625 0.39634,-0.101625 0.25406,0 0.3811,0.142275 0.13211,0.137194 0.188,0.345526 0.0559,0.20325 0.061,0.436988 0.005,0.228657 0.005,0.411582 z"
           id="path1821"
           style="fill:#00ffff;fill-opacity:1" />
        <path
           d="m 211.36643,-55.720821 q 0,0.172763 -0.11179,0.340445 -0.10671,0.1626 -0.27439,0.294713 -0.1626,0.127031 -0.35061,0.208331 -0.188,0.07622 -0.34552,0.07622 -0.26931,0 -0.48272,-0.132113 -0.20833,-0.137194 -0.35061,-0.345525 -0.14227,-0.208332 -0.21849,-0.457314 -0.0711,-0.254063 -0.0711,-0.492882 0,-0.254063 0.0711,-0.543695 0.0711,-0.289631 0.21341,-0.533532 0.14736,-0.2439 0.36585,-0.406501 0.22358,-0.1626 0.52845,-0.1626 0.17276,0 0.33028,0.06097 0.15752,0.05589 0.27439,0.1626 0.11687,0.106707 0.18801,0.254063 0.0711,0.147357 0.0711,0.330282 0,0.23882 -0.10163,0.447151 -0.10163,0.208332 -0.26931,0.36077 -0.16768,0.152437 -0.38617,0.248981 -0.2185,0.09146 -0.44715,0.101626 0.0203,0.147356 0.11687,0.213412 0.10162,0.06606 0.23881,0.06606 0.10163,0 0.19817,-0.05081 0.0966,-0.05081 0.18801,-0.111788 0.0915,-0.06606 0.17784,-0.116868 0.0915,-0.05081 0.18293,-0.05081 0.10163,0 0.18293,0.06606 0.0813,0.06606 0.0813,0.172763 z m -0.82317,-1.244908 q 0,-0.06606 -0.0356,-0.137194 -0.0356,-0.07114 -0.11179,-0.07114 -0.11178,0 -0.188,0.06097 -0.0762,0.05589 -0.12703,0.147357 -0.0508,0.08638 -0.0813,0.188006 -0.0254,0.101625 -0.0305,0.188007 0.0711,-0.01524 0.16768,-0.04065 0.10163,-0.02541 0.18801,-0.06606 0.0915,-0.04573 0.15244,-0.111787 0.066,-0.06606 0.066,-0.157519 z"
           id="path1823"
           style="fill:#00ffff;fill-opacity:1" />
        <path
           d="m 197.70292,-49.028802 q 0,0.09146 -0.0102,0.238819 -0.005,0.147357 -0.0406,0.289632 -0.0356,0.137194 -0.11179,0.238819 -0.0762,0.101625 -0.21341,0.101625 -0.18801,0 -0.28964,-0.12195 -0.10162,-0.12195 -0.0965,-0.304875 -0.1626,0.142275 -0.37093,0.223575 -0.20325,0.0813 -0.41667,0.0813 -0.14735,0 -0.27946,-0.07114 -0.13212,-0.07114 -0.23374,-0.182926 -0.10163,-0.111787 -0.1626,-0.248981 -0.061,-0.142276 -0.061,-0.27947 0,-0.2439 0.14736,-0.426826 0.15244,-0.182925 0.37093,-0.309956 0.21849,-0.132113 0.46239,-0.208332 0.24899,-0.07622 0.44207,-0.101625 0,-0.02541 0,-0.04573 0.005,-0.02032 0.005,-0.04573 0,-0.157519 -0.0864,-0.254063 -0.0864,-0.09654 -0.2439,-0.09654 -0.12703,0 -0.21849,0.04573 -0.0915,0.04065 -0.17276,0.09654 -0.0813,0.05081 -0.1626,0.09654 -0.0813,0.04065 -0.18293,0.04065 -0.11179,0 -0.19309,-0.07114 -0.0762,-0.07114 -0.0762,-0.182926 0,-0.167681 0.0966,-0.304875 0.10162,-0.137194 0.24898,-0.228657 0.15244,-0.09654 0.3252,-0.147356 0.17784,-0.05589 0.3252,-0.05589 0.1372,0 0.27439,0.03557 0.13719,0.03049 0.25914,0.101625 0.12195,0.06606 0.2185,0.167681 0.10162,0.09654 0.1626,0.228657 0.0915,0.188007 0.14735,0.40142 0.0559,0.208331 0.0864,0.431907 0.0305,0.218494 0.0406,0.442069 0.0102,0.218494 0.0102,0.426826 z m -0.813,-0.1626 -0.0152,-0.345526 q -0.0102,0 -0.0203,0 -0.0102,-0.0051 -0.0203,-0.0051 -0.0661,0 -0.16768,0.03557 -0.0965,0.03049 -0.18801,0.09146 -0.0915,0.05589 -0.15751,0.127032 -0.061,0.07114 -0.061,0.147356 0,0.07114 0.0508,0.09654 0.0508,0.02541 0.11687,0.02541 0.11179,0 0.23882,-0.05589 0.12703,-0.06097 0.22358,-0.116869 z"
           id="path1825"
           style="fill:#00ffff;fill-opacity:1" />
        <path
           d="m 200.41123,-49.98916 q 0,0.147357 -0.0254,0.335363 -0.0203,0.182925 -0.0711,0.376013 -0.0457,0.193088 -0.12704,0.376014 -0.0762,0.182925 -0.19308,0.330281 -0.11179,0.142276 -0.26423,0.228657 -0.14736,0.08638 -0.34552,0.08638 -0.20834,0 -0.3811,-0.09654 -0.16768,-0.09654 -0.28963,-0.264226 -0.0152,0.137194 -0.11179,0.243901 -0.0965,0.101625 -0.2439,0.101625 -0.0864,0 -0.14736,-0.08638 -0.0559,-0.08638 -0.0915,-0.218494 -0.0356,-0.137194 -0.0559,-0.299794 -0.0153,-0.1626 -0.0203,-0.315038 -0.005,-0.152438 -0.005,-0.274388 0,-0.12195 0,-0.172763 0,-0.172763 0,-0.345526 0.005,-0.172763 0.0102,-0.350607 0,-0.08638 -0.005,-0.259144 0,-0.172763 0.005,-0.381094 0.005,-0.213413 0.0203,-0.431907 0.0203,-0.223576 0.0661,-0.406501 0.0457,-0.182926 0.12703,-0.299795 0.0813,-0.116868 0.20833,-0.12195 0.10162,0 0.17276,0.07114 0.0711,0.07114 0.11687,0.188006 0.0508,0.116869 0.0762,0.264226 0.0305,0.142275 0.0406,0.289632 0.0152,0.142275 0.0152,0.274388 0.005,0.127031 0.005,0.208331 0,0.01524 -0.005,0.07114 0,0.05081 0,0.111788 0,0.06097 0,0.111788 0,0.04573 0,0.05081 0.0457,-0.09654 0.13212,-0.188007 0.0864,-0.09146 0.19308,-0.1626 0.10671,-0.07114 0.22358,-0.116869 0.11687,-0.04573 0.22357,-0.04573 0.21342,0 0.35569,0.111788 0.14736,0.106706 0.23374,0.274388 0.0864,0.167681 0.12195,0.36585 0.0356,0.193088 0.0356,0.365851 z m -0.74695,0.152438 q 0,-0.06097 -0.0102,-0.132113 -0.005,-0.07114 -0.0356,-0.132113 -0.0254,-0.06097 -0.0762,-0.101625 -0.0457,-0.04065 -0.12195,-0.04065 -0.0813,0 -0.1626,0.03557 -0.0762,0.03557 -0.14735,0.09146 -0.0711,0.05589 -0.13212,0.12195 -0.061,0.06097 -0.1067,0.12195 l -0.0508,0.452232 q 0.0813,0.116869 0.19816,0.188007 0.11687,0.06606 0.26423,0.06606 0.11179,0 0.18293,-0.07114 0.0762,-0.07114 0.11686,-0.172762 0.0457,-0.106707 0.061,-0.223576 0.0203,-0.116869 0.0203,-0.20325 z"
           id="path1827"
           style="fill:#00ffff;fill-opacity:1" />
        <path
           d="m 201.5596,-51.859064 q 0,0.07114 -0.0407,0.127032 -0.0356,0.05589 -0.0965,0.101625 -0.061,0.04065 -0.13211,0.06606 -0.0711,0.02032 -0.13211,0.02032 -0.10163,0 -0.17785,-0.05081 -0.0762,-0.05081 -0.0762,-0.157519 0,-0.07622 0.0356,-0.132113 0.0406,-0.06097 0.0965,-0.09654 0.0559,-0.04065 0.12703,-0.06097 0.0711,-0.02032 0.13719,-0.02032 0.0965,0 0.17784,0.04573 0.0813,0.04573 0.0813,0.157519 z m 0.0406,1.727629 q 0,0.07114 0,0.152438 0,0.07622 -0.005,0.147356 -0.005,0.08638 -0.005,0.233738 0,0.142275 -0.0102,0.309957 -0.0102,0.167681 -0.0356,0.340444 -0.0203,0.172763 -0.0711,0.315038 -0.0508,0.142276 -0.13719,0.233738 -0.0813,0.08638 -0.20833,0.09146 -0.0966,0.0051 -0.1626,-0.07622 -0.0661,-0.0813 -0.11179,-0.208332 -0.0406,-0.132112 -0.061,-0.289631 -0.0203,-0.162601 -0.0305,-0.309957 -0.0102,-0.152438 -0.0102,-0.27947 0,-0.127031 0,-0.188006 0,-0.0813 0,-0.228657 0,-0.152438 0.0102,-0.3252 0.0102,-0.172763 0.0356,-0.350607 0.0305,-0.177844 0.0813,-0.325201 0.0559,-0.147356 0.14227,-0.238819 0.0864,-0.09146 0.2185,-0.09146 0.13719,0 0.20833,0.137194 0.0711,0.137194 0.1067,0.32012 0.0356,0.182925 0.0406,0.36585 0.005,0.177844 0.005,0.264226 z"
           id="path1829"
           style="fill:#00ffff;fill-opacity:1" />
        <path
           d="m 202.91121,-51.391588 q 0,0.274388 -0.0254,0.553858 -0.0203,0.274388 -0.0203,0.553857 0,0.360769 0.0203,0.721539 0.0254,0.360769 0.0254,0.72662 0,0.09146 -0.0102,0.208332 -0.0102,0.111787 -0.0508,0.208331 -0.0356,0.09654 -0.11178,0.162601 -0.0762,0.06606 -0.20325,0.06606 -0.12195,0 -0.21342,-0.12195 -0.0864,-0.116869 -0.14735,-0.299795 -0.0559,-0.188006 -0.0966,-0.416663 -0.0356,-0.228657 -0.0559,-0.44207 -0.0152,-0.218494 -0.0254,-0.396338 -0.005,-0.182925 -0.005,-0.269307 0,-0.09654 0.005,-0.279469 0.0102,-0.182925 0.0356,-0.396338 0.0254,-0.213413 0.0661,-0.431907 0.0457,-0.223576 0.11687,-0.40142 0.0711,-0.182925 0.16768,-0.294713 0.10162,-0.116869 0.23882,-0.116869 0.11179,0 0.16768,0.07622 0.061,0.07114 0.0864,0.177844 0.0254,0.101626 0.0305,0.218494 0.005,0.111788 0.005,0.193088 z"
           id="path1831"
           style="fill:#00ffff;fill-opacity:1" />
        <path
           d="m 204.13579,-51.859064 q 0,0.07114 -0.0406,0.127032 -0.0356,0.05589 -0.0965,0.101625 -0.061,0.04065 -0.13211,0.06606 -0.0711,0.02032 -0.13212,0.02032 -0.10162,0 -0.17784,-0.05081 -0.0762,-0.05081 -0.0762,-0.157519 0,-0.07622 0.0356,-0.132113 0.0406,-0.06097 0.0965,-0.09654 0.0559,-0.04065 0.12704,-0.06097 0.0711,-0.02032 0.13719,-0.02032 0.0965,0 0.17784,0.04573 0.0813,0.04573 0.0813,0.157519 z m 0.0407,1.727629 q 0,0.07114 0,0.152438 0,0.07622 -0.005,0.147356 -0.005,0.08638 -0.005,0.233738 0,0.142275 -0.0102,0.309957 -0.0102,0.167681 -0.0356,0.340444 -0.0203,0.172763 -0.0711,0.315038 -0.0508,0.142276 -0.13719,0.233738 -0.0813,0.08638 -0.20833,0.09146 -0.0966,0.0051 -0.1626,-0.07622 -0.0661,-0.0813 -0.11179,-0.208332 -0.0406,-0.132112 -0.061,-0.289631 -0.0203,-0.162601 -0.0305,-0.309957 -0.0102,-0.152438 -0.0102,-0.27947 0,-0.127031 0,-0.188006 0,-0.0813 0,-0.228657 0,-0.152438 0.0102,-0.3252 0.0102,-0.172763 0.0356,-0.350607 0.0305,-0.177844 0.0813,-0.325201 0.0559,-0.147356 0.14228,-0.238819 0.0864,-0.09146 0.21849,-0.09146 0.1372,0 0.20834,0.137194 0.0711,0.137194 0.1067,0.32012 0.0356,0.182925 0.0406,0.36585 0.005,0.177844 0.005,0.264227 z"
           id="path1833"
           style="fill:#00ffff;fill-opacity:1" />
        <path
           d="m 205.72115,-48.129419 q -0.36077,0 -0.56402,-0.09654 -0.19817,-0.09146 -0.2998,-0.264225 -0.0965,-0.172763 -0.11687,-0.416664 -0.0203,-0.2439 -0.0203,-0.543694 0,-0.23882 0.0152,-0.477639 0.0153,-0.2439 0.0457,-0.518288 -0.0711,0 -0.11178,0.0051 -0.0406,0 -0.0661,0 -0.1626,0 -0.27947,-0.07114 -0.12195,-0.07114 -0.12195,-0.218494 0,-0.09146 0.0711,-0.1626 0.0661,-0.07114 0.17276,-0.12195 0.10671,-0.05081 0.22866,-0.0813 0.12703,-0.03049 0.23882,-0.04065 0,-0.142275 0.0203,-0.315038 0.0203,-0.172763 0.0711,-0.320119 0.0559,-0.152438 0.14736,-0.254063 0.0915,-0.101625 0.23373,-0.101625 0.0813,0 0.14228,0.05081 0.066,0.04573 0.10671,0.121951 0.0406,0.07114 0.061,0.1626 0.0203,0.09146 0.0203,0.177844 0,0.101625 -0.0153,0.208332 -0.0152,0.106706 -0.0559,0.264225 0.0864,-0.01016 0.11687,-0.01016 0.0305,-0.0051 0.0559,-0.0051 0.0864,0 0.17784,0.01524 0.0966,0.01524 0.17277,0.05081 0.0813,0.03557 0.13211,0.09654 0.0508,0.05589 0.0508,0.137194 0,0.09146 -0.0762,0.1626 -0.0711,0.07114 -0.18292,0.12195 -0.11179,0.05081 -0.23882,0.0813 -0.12703,0.02541 -0.23882,0.03557 -0.0305,0.208332 -0.0457,0.386176 -0.0102,0.172763 -0.0254,0.350607 -0.0102,0.08638 -0.0203,0.177844 -0.005,0.08638 -0.005,0.177844 0,0.06606 0.005,0.157519 0.005,0.08638 0.0356,0.167682 0.0305,0.0813 0.0965,0.142275 0.0661,0.05589 0.18293,0.05589 0.0711,0 0.14735,-0.01016 0.0762,-0.01524 0.15244,-0.01524 0.13211,0 0.18801,0.09146 0.061,0.09146 0.061,0.233738 0,0.106706 -0.066,0.188007 -0.061,0.07622 -0.15752,0.12195 -0.0966,0.05081 -0.2185,0.07622 -0.11687,0.02541 -0.22357,0.02541 z"
           id="path1835"
           style="fill:#00ffff;fill-opacity:1" />
        <path
           d="m 207.59105,-46.833698 q -0.12195,0 -0.27947,-0.04065 -0.15244,-0.03557 -0.28963,-0.106706 -0.13719,-0.07114 -0.23374,-0.172763 -0.0915,-0.101625 -0.0915,-0.233738 0,-0.05081 0.0254,-0.101625 0.0254,-0.05081 0.066,-0.09146 0.0457,-0.03557 0.0966,-0.06097 0.0508,-0.02032 0.1067,-0.02032 0.061,0 0.11687,0.01524 0.061,0.02032 0.12195,0.04573 0.0661,0.02541 0.12703,0.04573 0.0661,0.02032 0.1372,0.02032 0.12703,0 0.21849,-0.08638 0.0965,-0.08638 0.1626,-0.228657 0.0661,-0.137194 0.10671,-0.309957 0.0406,-0.167681 0.061,-0.335363 0.0254,-0.167681 0.0356,-0.315038 0.0102,-0.147356 0.0153,-0.238819 -0.17785,0.269307 -0.35569,0.416663 -0.17277,0.142276 -0.42683,0.142276 -0.19309,0 -0.34044,-0.0813 -0.14228,-0.0813 -0.2439,-0.213412 -0.10163,-0.132113 -0.16769,-0.299795 -0.066,-0.172763 -0.10162,-0.355688 -0.0305,-0.182925 -0.0406,-0.355688 -0.0102,-0.177844 0,-0.325201 0.005,-0.111787 0.0254,-0.289632 0.0254,-0.182925 0.0762,-0.355688 0.0508,-0.172763 0.14228,-0.289632 0.0915,-0.12195 0.23882,-0.111787 0.0965,0.0051 0.15752,0.08638 0.061,0.07622 0.0965,0.193088 0.0406,0.116869 0.0559,0.259144 0.0203,0.137194 0.0254,0.274388 0.005,0.137194 0,0.254063 0,0.111788 0,0.172763 0,0.08638 0.005,0.172763 0.005,0.08638 0.0356,0.157519 0.0305,0.06606 0.0915,0.106706 0.066,0.04065 0.18292,0.04065 0.13211,0 0.20833,-0.06606 0.0813,-0.06606 0.11687,-0.1626 0.0406,-0.101625 0.0508,-0.213413 0.0102,-0.116869 0.0102,-0.218494 0,-0.07114 0,-0.172763 0,-0.101625 0,-0.213413 0.005,-0.111788 0.0203,-0.218494 0.0203,-0.111788 0.0559,-0.198169 0.0406,-0.09146 0.10162,-0.147357 0.0661,-0.05589 0.16768,-0.05589 0.12703,0 0.2185,0.101626 0.0915,0.09654 0.15243,0.259144 0.0661,0.157519 0.10163,0.350607 0.0406,0.193088 0.061,0.386175 0.0203,0.188007 0.0254,0.350607 0.0102,0.157519 0.0102,0.248982 0,0.213413 -0.0152,0.487801 -0.0152,0.269307 -0.061,0.558939 -0.0406,0.28455 -0.12703,0.558938 -0.0864,0.279469 -0.22865,0.497964 -0.1372,0.218494 -0.34045,0.350606 -0.20325,0.132113 -0.4878,0.132113 z"
           id="path1837"
           style="fill:#00ffff;fill-opacity:1" />
        <path
           d="m 211.59,-48.129419 q -0.36077,0 -0.56402,-0.09654 -0.19817,-0.09146 -0.29979,-0.264225 -0.0966,-0.172763 -0.11687,-0.416664 -0.0203,-0.2439 -0.0203,-0.543694 0,-0.23882 0.0153,-0.477639 0.0152,-0.2439 0.0457,-0.518288 -0.0711,0 -0.11179,0.0051 -0.0406,0 -0.0661,0 -0.1626,0 -0.27947,-0.07114 -0.12195,-0.07114 -0.12195,-0.218494 0,-0.09146 0.0711,-0.1626 0.0661,-0.07114 0.17276,-0.12195 0.10671,-0.05081 0.22866,-0.0813 0.12703,-0.03049 0.23882,-0.04065 0,-0.142275 0.0203,-0.315038 0.0203,-0.172763 0.0711,-0.320119 0.0559,-0.152438 0.14736,-0.254063 0.0915,-0.101625 0.23374,-0.101625 0.0813,0 0.14227,0.05081 0.0661,0.04573 0.10671,0.121951 0.0406,0.07114 0.061,0.1626 0.0203,0.09146 0.0203,0.177844 0,0.101625 -0.0152,0.208332 -0.0153,0.106706 -0.0559,0.264225 0.0864,-0.01016 0.11687,-0.01016 0.0305,-0.0051 0.0559,-0.0051 0.0864,0 0.17785,0.01524 0.0965,0.01524 0.17276,0.05081 0.0813,0.03557 0.13211,0.09654 0.0508,0.05589 0.0508,0.137194 0,0.09146 -0.0762,0.1626 -0.0711,0.07114 -0.18293,0.12195 -0.11178,0.05081 -0.23882,0.0813 -0.12703,0.02541 -0.23882,0.03557 -0.0305,0.208332 -0.0457,0.386176 -0.0102,0.172763 -0.0254,0.350607 -0.0102,0.08638 -0.0203,0.177844 -0.005,0.08638 -0.005,0.177844 0,0.06606 0.005,0.157519 0.005,0.08638 0.0356,0.167682 0.0305,0.0813 0.0965,0.142275 0.0661,0.05589 0.18293,0.05589 0.0711,0 0.14736,-0.01016 0.0762,-0.01524 0.15243,-0.01524 0.13212,0 0.18801,0.09146 0.061,0.09146 0.061,0.233738 0,0.106706 -0.0661,0.188007 -0.061,0.07622 -0.15752,0.12195 -0.0965,0.05081 -0.21849,0.07622 -0.11687,0.02541 -0.22358,0.02541 z"
           id="path1839"
           style="fill:#00ffff;fill-opacity:1" />
        <path
           d="m 213.32271,-48.164988 q -0.25914,0 -0.45223,-0.137194 -0.19309,-0.137194 -0.3252,-0.350607 -0.13211,-0.213413 -0.19817,-0.472557 -0.0661,-0.264225 -0.0661,-0.518288 0,-0.269307 0.0661,-0.553858 0.0661,-0.289631 0.20325,-0.523369 0.13719,-0.23882 0.35061,-0.386176 0.21341,-0.152438 0.50812,-0.152438 0.28455,0 0.48272,0.157519 0.20325,0.152438 0.3252,0.386176 0.12195,0.228657 0.17277,0.503045 0.0508,0.274388 0.0356,0.518288 -0.0152,0.269307 -0.0864,0.543695 -0.066,0.274388 -0.19817,0.492882 -0.13211,0.218494 -0.33536,0.355688 -0.20325,0.137194 -0.48272,0.137194 z m 0.0508,-2.296729 q -0.0762,0 -0.13719,0.0813 -0.0559,0.0813 -0.0965,0.198169 -0.0356,0.116869 -0.0559,0.248982 -0.0203,0.127031 -0.0203,0.223575 0,0.121951 0.0203,0.264226 0.0254,0.142275 0.0661,0.264225 0.0406,0.116869 0.0965,0.198169 0.061,0.07622 0.1372,0.07622 0.0813,0 0.13719,-0.07622 0.061,-0.07622 0.0965,-0.193087 0.0356,-0.116869 0.0508,-0.254063 0.0152,-0.142276 0.0152,-0.264226 0,-0.111788 -0.0203,-0.2439 -0.0203,-0.137194 -0.061,-0.254063 -0.0356,-0.116869 -0.0965,-0.193088 -0.0559,-0.07622 -0.13212,-0.07622 z"
           id="path1841"
           style="fill:#00ffff;fill-opacity:1" />
        <path
           d="m 196.49358,-44.887575 q 0,0.274388 -0.0254,0.553857 -0.0203,0.274388 -0.0203,0.553857 0,0.36077 0.0203,0.721539 0.0254,0.36077 0.0254,0.72662 0,0.09146 -0.0102,0.208332 -0.0102,0.111788 -0.0508,0.208332 -0.0356,0.09654 -0.11178,0.1626 -0.0762,0.06606 -0.20325,0.06606 -0.12195,0 -0.21342,-0.12195 -0.0864,-0.116869 -0.14735,-0.299794 -0.0559,-0.188007 -0.0966,-0.416664 -0.0356,-0.228656 -0.0559,-0.442069 -0.0153,-0.218494 -0.0254,-0.396338 -0.005,-0.182926 -0.005,-0.269307 0,-0.09654 0.005,-0.279469 0.0102,-0.182926 0.0356,-0.396339 0.0254,-0.213413 0.0661,-0.431907 0.0457,-0.223575 0.11687,-0.401419 0.0711,-0.182926 0.16768,-0.294713 0.10162,-0.116869 0.23882,-0.116869 0.11178,0 0.16768,0.07622 0.061,0.07114 0.0864,0.177844 0.0254,0.101625 0.0305,0.218494 0.005,0.111788 0.005,0.193088 z"
           id="path1843"
           style="fill:#00ffff;fill-opacity:1" />
        <path
           d="m 199.0088,-42.712796 q 0,0.172763 -0.11179,0.340444 -0.1067,0.162601 -0.27438,0.294713 -0.1626,0.127032 -0.35061,0.208332 -0.18801,0.07622 -0.34553,0.07622 -0.2693,0 -0.48272,-0.132113 -0.20833,-0.137194 -0.3506,-0.345526 -0.14228,-0.208331 -0.2185,-0.457313 -0.0711,-0.254063 -0.0711,-0.492882 0,-0.254063 0.0711,-0.543695 0.0711,-0.289632 0.21342,-0.533532 0.14735,-0.243901 0.36585,-0.406501 0.22357,-0.1626 0.52845,-0.1626 0.17276,0 0.33028,0.06097 0.15752,0.05589 0.27439,0.1626 0.11687,0.106707 0.188,0.254063 0.0711,0.147357 0.0711,0.330282 0,0.238819 -0.10162,0.447151 -0.10163,0.208332 -0.26931,0.360769 -0.16768,0.152438 -0.38618,0.248982 -0.21849,0.09146 -0.44715,0.101625 0.0203,0.147357 0.11687,0.213413 0.10163,0.06606 0.23882,0.06606 0.10163,0 0.19817,-0.05081 0.0965,-0.05081 0.18801,-0.111788 0.0915,-0.06606 0.17784,-0.116869 0.0915,-0.05081 0.18293,-0.05081 0.10162,0 0.18292,0.06606 0.0813,0.06606 0.0813,0.172763 z m -0.82316,-1.244909 q 0,-0.06606 -0.0356,-0.137194 -0.0356,-0.07114 -0.11179,-0.07114 -0.11179,0 -0.188,0.06097 -0.0762,0.05589 -0.12704,0.147356 -0.0508,0.08638 -0.0813,0.188007 -0.0254,0.101625 -0.0305,0.188006 0.0711,-0.01524 0.16768,-0.04065 0.10162,-0.02541 0.188,-0.06606 0.0915,-0.04573 0.15244,-0.111788 0.0661,-0.06606 0.0661,-0.157519 z"
           id="path1845"
           style="fill:#00ffff;fill-opacity:1" />
        <path
           d="m 201.37159,-42.52479 q 0,0.09146 -0.0102,0.23882 -0.005,0.147356 -0.0406,0.289631 -0.0356,0.137194 -0.11179,0.23882 -0.0762,0.101625 -0.21341,0.101625 -0.18801,0 -0.28964,-0.12195 -0.10162,-0.121951 -0.0965,-0.304876 -0.1626,0.142275 -0.37093,0.223575 -0.20325,0.0813 -0.41667,0.0813 -0.14735,0 -0.27947,-0.07114 -0.13211,-0.07114 -0.23373,-0.182925 -0.10163,-0.111788 -0.1626,-0.248982 -0.061,-0.142275 -0.061,-0.279469 0,-0.243901 0.14736,-0.426826 0.15244,-0.182926 0.37093,-0.309957 0.21849,-0.132113 0.46239,-0.208332 0.24899,-0.07622 0.44207,-0.101625 0,-0.02541 0,-0.04573 0.005,-0.02032 0.005,-0.04573 0,-0.157519 -0.0864,-0.254063 -0.0864,-0.09654 -0.2439,-0.09654 -0.12703,0 -0.21849,0.04573 -0.0915,0.04065 -0.17276,0.09654 -0.0813,0.05081 -0.1626,0.09654 -0.0813,0.04065 -0.18293,0.04065 -0.11179,0 -0.19309,-0.07114 -0.0762,-0.07114 -0.0762,-0.182925 0,-0.167682 0.0966,-0.304876 0.10162,-0.137194 0.24898,-0.228656 0.15244,-0.09654 0.3252,-0.147357 0.17784,-0.05589 0.3252,-0.05589 0.1372,0 0.27439,0.03557 0.13719,0.03049 0.25914,0.101625 0.12195,0.06606 0.2185,0.167682 0.10162,0.09654 0.1626,0.228656 0.0915,0.188007 0.14735,0.40142 0.0559,0.208332 0.0864,0.431907 0.0305,0.218494 0.0406,0.44207 0.0102,0.218494 0.0102,0.426825 z m -0.813,-0.1626 -0.0153,-0.345526 q -0.0102,0 -0.0203,0 -0.0102,-0.0051 -0.0203,-0.0051 -0.066,0 -0.16768,0.03557 -0.0965,0.03049 -0.18801,0.09146 -0.0915,0.05589 -0.15751,0.127031 -0.061,0.07114 -0.061,0.147357 0,0.07114 0.0508,0.09654 0.0508,0.02541 0.11687,0.02541 0.11179,0 0.23882,-0.05589 0.12703,-0.06097 0.22358,-0.116869 z"
           id="path1847"
           style="fill:#00ffff;fill-opacity:1" />
        <path
           d="m 203.86649,-43.627423 q -0.13212,0.350607 -0.28964,0.731701 -0.15751,0.381095 -0.34044,0.711377 -0.11179,0.20325 -0.24898,0.340444 -0.1372,0.132113 -0.31504,0.132113 -0.14227,0 -0.27947,-0.142275 -0.13211,-0.147357 -0.24898,-0.345526 -0.11179,-0.20325 -0.19817,-0.406501 -0.0813,-0.208331 -0.12195,-0.330282 -0.0406,-0.137194 -0.0915,-0.294713 -0.0508,-0.157519 -0.0915,-0.320119 -0.0406,-0.1626 -0.0661,-0.320119 -0.0254,-0.162601 -0.0254,-0.304876 0,-0.198169 0.0711,-0.325201 0.0711,-0.127031 0.27947,-0.127031 0.0813,0 0.14736,0.05081 0.066,0.04573 0.12195,0.132112 0.0559,0.08638 0.1067,0.203251 0.0508,0.111787 0.0966,0.248981 0.0457,0.132113 0.0864,0.274388 0.0406,0.142276 0.0813,0.274388 0.0406,0.132113 0.0813,0.259145 0.0457,0.12195 0.11687,0.2439 0.0356,-0.09146 0.0813,-0.208332 0.0457,-0.116868 0.0965,-0.248981 0.0559,-0.132113 0.11687,-0.269307 0.061,-0.142275 0.13211,-0.274388 0.1372,-0.274388 0.28963,-0.467476 0.15752,-0.193088 0.30996,-0.193088 0.14228,0 0.20325,0.08638 0.061,0.08638 0.061,0.223575 0,0.137194 -0.0457,0.309957 -0.0457,0.172763 -0.11687,0.355688 z"
           id="path1849"
           style="fill:#00ffff;fill-opacity:1" />
        <path
           d="m 206.33598,-42.712796 q 0,0.172763 -0.11179,0.340444 -0.10671,0.162601 -0.27439,0.294713 -0.1626,0.127032 -0.3506,0.208332 -0.18801,0.07622 -0.34553,0.07622 -0.26931,0 -0.48272,-0.132113 -0.20833,-0.137194 -0.35061,-0.345526 -0.14227,-0.208331 -0.21849,-0.457313 -0.0711,-0.254063 -0.0711,-0.492882 0,-0.254063 0.0711,-0.543695 0.0711,-0.289632 0.21341,-0.533532 0.14736,-0.243901 0.36585,-0.406501 0.22358,-0.1626 0.52845,-0.1626 0.17277,0 0.33029,0.06097 0.15752,0.05589 0.27438,0.1626 0.11687,0.106707 0.18801,0.254063 0.0711,0.147357 0.0711,0.330282 0,0.238819 -0.10163,0.447151 -0.10162,0.208332 -0.2693,0.360769 -0.16769,0.152438 -0.38618,0.248982 -0.21849,0.09146 -0.44715,0.101625 0.0203,0.147357 0.11687,0.213413 0.10162,0.06606 0.23882,0.06606 0.10162,0 0.19817,-0.05081 0.0965,-0.05081 0.188,-0.111788 0.0915,-0.06606 0.17785,-0.116869 0.0915,-0.05081 0.18292,-0.05081 0.10163,0 0.18293,0.06606 0.0813,0.06606 0.0813,0.172763 z m -0.82317,-1.244909 q 0,-0.06606 -0.0356,-0.137194 -0.0356,-0.07114 -0.11179,-0.07114 -0.11179,0 -0.18801,0.06097 -0.0762,0.05589 -0.12703,0.147356 -0.0508,0.08638 -0.0813,0.188007 -0.0254,0.101625 -0.0305,0.188006 0.0711,-0.01524 0.16768,-0.04065 0.10163,-0.02541 0.18801,-0.06606 0.0915,-0.04573 0.15244,-0.111788 0.066,-0.06606 0.066,-0.157519 z"
           id="path1851"
           style="fill:#00ffff;fill-opacity:1" />
        <path
           d="m 209.92335,-42.52479 q 0,0.09146 -0.0102,0.23882 -0.005,0.147356 -0.0406,0.289631 -0.0356,0.137194 -0.11179,0.23882 -0.0762,0.101625 -0.21342,0.101625 -0.188,0 -0.28963,-0.12195 -0.10162,-0.121951 -0.0965,-0.304876 -0.1626,0.142275 -0.37093,0.223575 -0.20325,0.0813 -0.41667,0.0813 -0.14735,0 -0.27947,-0.07114 -0.13211,-0.07114 -0.23373,-0.182925 -0.10163,-0.111788 -0.1626,-0.248982 -0.061,-0.142275 -0.061,-0.279469 0,-0.243901 0.14736,-0.426826 0.15244,-0.182926 0.37093,-0.309957 0.21849,-0.132113 0.46239,-0.208332 0.24899,-0.07622 0.44207,-0.101625 0,-0.02541 0,-0.04573 0.005,-0.02032 0.005,-0.04573 0,-0.157519 -0.0864,-0.254063 -0.0864,-0.09654 -0.2439,-0.09654 -0.12703,0 -0.21849,0.04573 -0.0915,0.04065 -0.17276,0.09654 -0.0813,0.05081 -0.1626,0.09654 -0.0813,0.04065 -0.18293,0.04065 -0.11179,0 -0.19309,-0.07114 -0.0762,-0.07114 -0.0762,-0.182925 0,-0.167682 0.0966,-0.304876 0.10162,-0.137194 0.24898,-0.228656 0.15244,-0.09654 0.3252,-0.147357 0.17784,-0.05589 0.3252,-0.05589 0.13719,0 0.27439,0.03557 0.13719,0.03049 0.25914,0.101625 0.12195,0.06606 0.2185,0.167682 0.10162,0.09654 0.1626,0.228656 0.0915,0.188007 0.14735,0.40142 0.0559,0.208332 0.0864,0.431907 0.0305,0.218494 0.0406,0.44207 0.0102,0.218494 0.0102,0.426825 z m -0.813,-0.1626 -0.0153,-0.345526 q -0.0102,0 -0.0203,0 -0.0102,-0.0051 -0.0203,-0.0051 -0.066,0 -0.16768,0.03557 -0.0965,0.03049 -0.18801,0.09146 -0.0915,0.05589 -0.15751,0.127031 -0.061,0.07114 -0.061,0.147357 0,0.07114 0.0508,0.09654 0.0508,0.02541 0.11687,0.02541 0.11179,0 0.23882,-0.05589 0.12703,-0.06097 0.22358,-0.116869 z"
           id="path1853"
           style="fill:#00ffff;fill-opacity:1" />
        <path
           d="m 214.53713,-43.485148 q 0,0.09654 0,0.264226 0,0.1626 -0.0102,0.355688 -0.005,0.193088 -0.0305,0.391257 -0.0254,0.193088 -0.0813,0.350607 -0.0508,0.157519 -0.13211,0.259144 -0.0813,0.101625 -0.20833,0.101625 -0.11179,0 -0.17276,-0.09146 -0.0559,-0.09654 -0.0813,-0.223576 -0.0254,-0.127031 -0.0305,-0.259144 0,-0.132113 0,-0.208332 0,-0.228656 0.0152,-0.44715 0.0153,-0.218495 0.0153,-0.447151 0,-0.02541 0,-0.09146 0,-0.06606 -0.0102,-0.132113 -0.0102,-0.06606 -0.0356,-0.116869 -0.0203,-0.05081 -0.066,-0.05081 -0.0915,0 -0.14736,0.09654 -0.0559,0.09146 -0.0915,0.218494 -0.0356,0.127031 -0.0508,0.254063 -0.0153,0.12195 -0.0203,0.182925 -0.0102,0.06606 -0.0203,0.198169 -0.005,0.132113 -0.0203,0.289632 -0.0102,0.157519 -0.0406,0.325201 -0.0254,0.1626 -0.0711,0.299794 -0.0406,0.132113 -0.1067,0.218494 -0.0661,0.08638 -0.1626,0.08638 -0.12195,0 -0.18801,-0.106707 -0.0661,-0.106706 -0.0965,-0.248982 -0.0305,-0.142275 -0.0406,-0.289631 -0.005,-0.147357 -0.005,-0.228657 0,-0.08638 0,-0.167682 0.005,-0.0813 0.005,-0.167681 0,-0.03557 0,-0.116869 0,-0.0813 -0.005,-0.177844 0,-0.101625 -0.0102,-0.208332 -0.005,-0.106706 -0.0203,-0.193088 -0.0153,-0.09146 -0.0457,-0.147356 -0.0305,-0.05589 -0.0711,-0.05589 -0.0661,0 -0.12195,0.08638 -0.0559,0.0813 -0.0966,0.198169 -0.0406,0.111788 -0.066,0.223576 -0.0203,0.111787 -0.0203,0.1626 v 0.03049 q 0,0.2439 0.0305,0.477638 0.0305,0.233738 0.0305,0.477638 0,0.142276 -0.0915,0.264226 -0.0915,0.116869 -0.25406,0.116869 -0.11687,0 -0.19309,-0.08638 -0.0762,-0.09146 -0.12703,-0.233738 -0.0508,-0.142276 -0.0813,-0.309957 -0.0254,-0.172763 -0.0356,-0.335363 -0.0102,-0.167682 -0.0152,-0.299795 0,-0.137194 0,-0.20325 0,-0.07622 -0.005,-0.223576 0,-0.147356 0.005,-0.320119 0.0102,-0.172763 0.0305,-0.350607 0.0203,-0.182925 0.066,-0.330282 0.0457,-0.147356 0.11687,-0.238819 0.0762,-0.09654 0.19309,-0.09654 0.13211,0 0.21341,0.07114 0.0864,0.07114 0.0864,0.213413 0,0.03049 -0.005,0.06097 0,0.03049 -0.005,0.05589 0.0559,-0.0813 0.1372,-0.162601 0.0813,-0.08638 0.17276,-0.152437 0.0965,-0.07114 0.20325,-0.111788 0.10671,-0.04573 0.21341,-0.04573 0.10163,0 0.18293,0.05589 0.0813,0.05589 0.14227,0.142276 0.061,0.0813 0.10163,0.177844 0.0406,0.09654 0.0559,0.182925 0.0508,-0.09146 0.12195,-0.182925 0.0762,-0.09654 0.1626,-0.167682 0.0864,-0.07114 0.18801,-0.116869 0.10671,-0.04573 0.21849,-0.04573 0.10671,0 0.18293,0.07622 0.0762,0.07622 0.13211,0.198169 0.0559,0.116869 0.0864,0.269307 0.0305,0.147356 0.0508,0.294713 0.0203,0.142275 0.0254,0.269306 0.005,0.121951 0.005,0.193088 z"
           id="path1855"
           style="fill:#00ffff;fill-opacity:1" />
        <path
           d="m 217.03203,-42.52479 q 0,0.09146 -0.0102,0.23882 -0.005,0.147356 -0.0406,0.289631 -0.0356,0.137194 -0.11179,0.23882 -0.0762,0.101625 -0.21341,0.101625 -0.18801,0 -0.28963,-0.12195 -0.10163,-0.121951 -0.0966,-0.304876 -0.1626,0.142275 -0.37093,0.223575 -0.20325,0.0813 -0.41666,0.0813 -0.14736,0 -0.27947,-0.07114 -0.13211,-0.07114 -0.23374,-0.182925 -0.10163,-0.111788 -0.1626,-0.248982 -0.061,-0.142275 -0.061,-0.279469 0,-0.243901 0.14736,-0.426826 0.15244,-0.182926 0.37093,-0.309957 0.2185,-0.132113 0.4624,-0.208332 0.24898,-0.07622 0.44207,-0.101625 0,-0.02541 0,-0.04573 0.005,-0.02032 0.005,-0.04573 0,-0.157519 -0.0864,-0.254063 -0.0864,-0.09654 -0.2439,-0.09654 -0.12703,0 -0.2185,0.04573 -0.0915,0.04065 -0.17276,0.09654 -0.0813,0.05081 -0.1626,0.09654 -0.0813,0.04065 -0.18293,0.04065 -0.11178,0 -0.19308,-0.07114 -0.0762,-0.07114 -0.0762,-0.182925 0,-0.167682 0.0965,-0.304876 0.10163,-0.137194 0.24898,-0.228656 0.15244,-0.09654 0.3252,-0.147357 0.17785,-0.05589 0.3252,-0.05589 0.1372,0 0.27439,0.03557 0.1372,0.03049 0.25915,0.101625 0.12195,0.06606 0.21849,0.167682 0.10163,0.09654 0.1626,0.228656 0.0915,0.188007 0.14736,0.40142 0.0559,0.208332 0.0864,0.431907 0.0305,0.218494 0.0406,0.44207 0.0102,0.218494 0.0102,0.426825 z m -0.813,-0.1626 -0.0152,-0.345526 q -0.0102,0 -0.0203,0 -0.0102,-0.0051 -0.0203,-0.0051 -0.0661,0 -0.16769,0.03557 -0.0965,0.03049 -0.188,0.09146 -0.0915,0.05589 -0.15752,0.127031 -0.061,0.07114 -0.061,0.147357 0,0.07114 0.0508,0.09654 0.0508,0.02541 0.11687,0.02541 0.11178,0 0.23881,-0.05589 0.12704,-0.06097 0.22358,-0.116869 z"
           id="path1857"
           style="fill:#00ffff;fill-opacity:1" />
        <path
           d="m 219.1001,-43.708723 q -0.0711,0.0051 -0.12195,-0.01016 -0.0508,-0.02032 -0.10162,-0.04065 -0.0457,-0.02032 -0.0915,-0.03557 -0.0457,-0.02033 -0.10163,-0.01524 -0.10162,0.0051 -0.18292,0.05589 -0.0762,0.05081 -0.14228,0.127031 -0.061,0.07622 -0.10671,0.172763 -0.0457,0.09146 -0.0711,0.182925 -0.0152,0.06097 -0.0254,0.188007 -0.005,0.12195 -0.005,0.264225 -0.005,0.147357 -0.005,0.27947 0,0.132112 -0.0102,0.208331 -0.005,0.0813 -0.0254,0.193088 -0.0203,0.106707 -0.0661,0.203251 -0.0406,0.09654 -0.11179,0.1626 -0.0711,0.06606 -0.18292,0.06606 -0.0864,0 -0.15244,-0.05081 -0.061,-0.05081 -0.10671,-0.132113 -0.0406,-0.08638 -0.0711,-0.198169 -0.0254,-0.111788 -0.0406,-0.228657 -0.0152,-0.12195 -0.0254,-0.2439 -0.005,-0.121951 -0.0102,-0.228657 0,-0.111788 0,-0.20325 0.005,-0.09146 0.005,-0.147357 -0.005,-0.177844 -0.0203,-0.355688 -0.0102,-0.182926 -0.0102,-0.36077 0,-0.111787 0.0102,-0.248981 0.0102,-0.137194 0.0559,-0.254063 0.0457,-0.121951 0.13211,-0.203251 0.0915,-0.0813 0.24898,-0.0813 0.0864,0 0.14736,0.05589 0.061,0.05589 0.0965,0.137194 0.0406,0.0813 0.061,0.172763 0.0203,0.09146 0.0254,0.167681 0.12195,-0.198169 0.27439,-0.320119 0.15244,-0.127031 0.39634,-0.137194 0.12195,-0.0051 0.23882,0.02541 0.12195,0.02541 0.21849,0.09146 0.10163,0.06097 0.1626,0.1626 0.0661,0.101626 0.0711,0.23882 0.0102,0.1626 -0.0965,0.248981 -0.10671,0.08638 -0.25915,0.09146 z"
           id="path1859"
           style="fill:#00ffff;fill-opacity:1" />
        <path
           d="m 221.78809,-44.54205 q 0,0.142276 -0.0762,0.289632 -0.0711,0.147357 -0.17784,0.294713 -0.10163,0.142275 -0.2185,0.274388 -0.11179,0.127032 -0.19817,0.233738 0.0711,0.111788 0.17785,0.299794 0.1067,0.182926 0.20325,0.391257 0.0965,0.208332 0.1626,0.406501 0.0711,0.198169 0.0711,0.330282 0,0.106707 -0.0661,0.198169 -0.0661,0.08638 -0.18293,0.08638 -0.0864,0 -0.17784,-0.07114 -0.0864,-0.07622 -0.17784,-0.193088 -0.0864,-0.12195 -0.16769,-0.269307 -0.0813,-0.147356 -0.15243,-0.289631 -0.0661,-0.142276 -0.12195,-0.264226 -0.0508,-0.127031 -0.0813,-0.20325 -0.0661,0.06606 -0.14228,0.111787 -0.0711,0.04065 -0.14228,0.09654 0,0.106707 -0.0102,0.299795 -0.005,0.193088 -0.0457,0.381094 -0.0356,0.188007 -0.12195,0.330282 -0.0864,0.137194 -0.25406,0.137194 -0.13211,0 -0.20325,-0.12195 -0.0711,-0.116869 -0.10671,-0.274388 -0.0305,-0.162601 -0.0356,-0.325201 -0.005,-0.167681 -0.005,-0.254063 0,-0.376013 0.0203,-0.752026 0.0203,-0.376013 0.0254,-0.752027 0,-0.08638 0,-0.223575 0.005,-0.142275 0.0203,-0.304876 0.0152,-0.1626 0.0457,-0.330282 0.0305,-0.167681 0.0864,-0.299794 0.0559,-0.137194 0.14228,-0.218494 0.0915,-0.08638 0.21849,-0.08638 0.0915,0 0.15244,0.07114 0.066,0.06606 0.10162,0.172763 0.0406,0.106706 0.0559,0.238819 0.0203,0.132113 0.0254,0.264226 0.0102,0.127031 0.0102,0.238819 0,0.111788 0,0.177844 0,0.04573 -0.005,0.137194 0,0.08638 -0.005,0.182925 0,0.09654 0,0.177844 0,0.0813 0.0102,0.116869 0.0356,0 0.1067,-0.06606 0.0711,-0.07114 0.1626,-0.177844 0.0966,-0.106706 0.20325,-0.223575 0.11179,-0.121951 0.22358,-0.228657 0.11687,-0.106707 0.22865,-0.172763 0.11179,-0.07114 0.20834,-0.07114 0.10162,0 0.15752,0.07114 0.0559,0.07114 0.0559,0.1626 z"
           id="path1861"
           style="fill:#00ffff;fill-opacity:1" />
      </g>
    </g>
  </g>
</svg>
