<?xml version="1.0" encoding="UTF-8" standalone="no"?>
<!-- Created with Inkscape (http://www.inkscape.org/) -->

<svg
   width="151.11147"
   height="80.981407"
   viewBox="0 0 39.981573 21.426331"
   version="1.1"
   id="svg5"
   inkscape:version="1.2 (dc2aedaf03, 2022-05-15)"
   sodipodi:docname="Scene 4.svg"
   xml:space="preserve"
   xmlns:inkscape="http://www.inkscape.org/namespaces/inkscape"
   xmlns:sodipodi="http://sodipodi.sourceforge.net/DTD/sodipodi-0.dtd"
   xmlns="http://www.w3.org/2000/svg"
   xmlns:svg="http://www.w3.org/2000/svg"><sodipodi:namedview
     id="namedview7"
     pagecolor="#ffffff"
     bordercolor="#666666"
     borderopacity="1.0"
     inkscape:showpageshadow="2"
     inkscape:pageopacity="0.0"
     inkscape:pagecheckerboard="0"
     inkscape:deskcolor="#d1d1d1"
     inkscape:document-units="mm"
     showgrid="true"
     inkscape:zoom="0.71624578"
     inkscape:cx="964.05455"
     inkscape:cy="624.78553"
     inkscape:window-width="1920"
     inkscape:window-height="991"
     inkscape:window-x="-9"
     inkscape:window-y="-9"
     inkscape:window-maximized="1"
     inkscape:current-layer="layer1"><inkscape:grid
       type="axonomgrid"
       id="grid1326"
       snapvisiblegridlinesonly="false"
       units="px"
       spacingy="2.6458333"
       originx="169.33333"
       originy="95.25" /></sodipodi:namedview><defs
     id="defs2" /><g
     inkscape:label="Layer 1"
     inkscape:groupmode="layer"
     id="layer1"
     transform="translate(-31.66518,-197.77527)"><g
       aria-label="I love 
project-based 
            work"
       transform="matrix(1.0795054,-0.40987988,-0.16002961,0.98711218,0,0)"
       id="text927"
       style="font-size:6.57482px;font-family:'Nunito Sans';-inkscape-font-specification:'Nunito Sans, Normal';fill:#3771c8;stroke-width:0.11211"><path
         d="m 68.389564,235.17643 q 0,0.122 -0.05779,0.21831 -0.05137,0.0963 -0.141256,0.16693 -0.08989,0.0642 -0.199043,0.10916 -0.109152,0.0449 -0.211884,0.0642 -0.01284,0.72555 -0.05779,1.39972 -0.03852,0.67418 -0.128415,1.3933 h 0.03852 q 0.102731,0 0.199042,0.0257 0.102732,0.0193 0.17978,0.077 0.08347,0.0514 0.128415,0.13484 0.05137,0.077 0.05137,0.19262 0,0.14767 -0.09631,0.25683 -0.08989,0.10915 -0.243988,0.1862 -0.147676,0.077 -0.333877,0.12841 -0.186201,0.0514 -0.372402,0.077 -0.186201,0.0321 -0.35314,0.045 -0.166939,0.0128 -0.26967,0.0128 -0.07705,0 -0.192622,-0.006 -0.109152,-0.006 -0.211884,-0.0385 -0.09631,-0.0321 -0.166939,-0.0963 -0.07063,-0.0642 -0.07063,-0.17336 0,-0.13483 0.05779,-0.23757 0.05137,-0.10915 0.141256,-0.19262 0.08989,-0.0835 0.199042,-0.13483 0.115573,-0.0514 0.231146,-0.077 0.04494,-0.35314 0.08347,-0.69986 0.03852,-0.35314 0.05137,-0.7127 0.01284,-0.36598 0.02568,-0.71912 0.01284,-0.35956 0.02568,-0.71912 -0.04494,0.006 -0.08347,0.0128 -0.03852,0 -0.07063,0 -0.08989,0 -0.192622,-0.0193 -0.102731,-0.0193 -0.192621,-0.0642 -0.08989,-0.0514 -0.154098,-0.12199 -0.05779,-0.0706 -0.05779,-0.17978 0,-0.21831 0.17978,-0.35956 0.186201,-0.14126 0.436609,-0.21831 0.256829,-0.077 0.520079,-0.10273 0.263249,-0.0321 0.423767,-0.0321 0.08989,0 0.237567,0.0128 0.147677,0.0128 0.288933,0.0578 0.147676,0.045 0.250408,0.122 0.109152,0.077 0.109152,0.21188 z"
         style="-inkscape-font-specification:Chewy"
         id="path1100" /><path
         d="m 71.227523,235.64514 q 0,0.34672 -0.0321,0.69986 -0.02568,0.34672 -0.02568,0.69986 0,0.45587 0.02568,0.91174 0.0321,0.45588 0.0321,0.91817 0,0.11557 -0.01284,0.26325 -0.01284,0.14125 -0.06421,0.26325 -0.04494,0.12199 -0.141256,0.20546 -0.09631,0.0835 -0.256829,0.0835 -0.154097,0 -0.26967,-0.1541 -0.109153,-0.14767 -0.186201,-0.37882 -0.07063,-0.23757 -0.121994,-0.5265 -0.04494,-0.28893 -0.07063,-0.5586 -0.01926,-0.27609 -0.0321,-0.50082 -0.0064,-0.23114 -0.0064,-0.3403 0,-0.12199 0.0064,-0.35314 0.01284,-0.23114 0.04494,-0.50081 0.0321,-0.26967 0.08347,-0.54576 0.05779,-0.28252 0.147676,-0.50724 0.08989,-0.23115 0.211884,-0.3724 0.128415,-0.14768 0.301774,-0.14768 0.141256,0 0.211884,0.0963 0.07705,0.0899 0.109152,0.22473 0.0321,0.12841 0.03852,0.27609 0.0064,0.14125 0.0064,0.24398 z"
         style="-inkscape-font-specification:Chewy"
         id="path1102" /><path
         d="m 72.935436,239.7223 q -0.327457,0 -0.571445,-0.17336 -0.243987,-0.17336 -0.410926,-0.44303 -0.166939,-0.26967 -0.250408,-0.59712 -0.08347,-0.33388 -0.08347,-0.65492 0,-0.3403 0.08347,-0.69986 0.08347,-0.36598 0.256829,-0.66133 0.173359,-0.30177 0.44303,-0.48798 0.26967,-0.19262 0.642072,-0.19262 0.35956,0 0.609969,0.19905 0.256829,0.19262 0.410926,0.48797 0.154097,0.28893 0.218304,0.63565 0.06421,0.34672 0.04495,0.65492 -0.01926,0.34029 -0.109153,0.68701 -0.08347,0.34672 -0.250408,0.62281 -0.166939,0.27609 -0.423768,0.44945 -0.256829,0.17336 -0.609968,0.17336 z m 0.06421,-2.90216 q -0.09631,0 -0.17336,0.10273 -0.07063,0.10273 -0.121993,0.25041 -0.04494,0.14767 -0.07063,0.31461 -0.02568,0.16052 -0.02568,0.28251 0,0.1541 0.02568,0.33388 0.0321,0.17978 0.08347,0.33388 0.05137,0.14768 0.121994,0.25041 0.07705,0.0963 0.173359,0.0963 0.102732,0 0.17336,-0.0963 0.07705,-0.0963 0.121994,-0.24399 0.04494,-0.14768 0.06421,-0.32104 0.01926,-0.17978 0.01926,-0.33387 0,-0.14126 -0.02568,-0.3082 -0.02568,-0.17336 -0.07705,-0.32104 -0.04494,-0.14767 -0.121993,-0.24398 -0.07063,-0.0963 -0.166939,-0.0963 z"
         style="-inkscape-font-specification:Chewy"
         id="path1104" /><path
         d="m 77.423521,237.23748 q -0.166939,0.44303 -0.365981,0.92459 -0.199043,0.48155 -0.430189,0.8989 -0.141256,0.25683 -0.314615,0.43019 -0.17336,0.16694 -0.398085,0.16694 -0.17978,0 -0.35314,-0.17978 -0.166938,-0.18621 -0.314615,-0.43661 -0.141256,-0.25683 -0.250408,-0.51366 -0.102732,-0.26325 -0.154098,-0.41735 -0.05136,-0.17336 -0.115573,-0.3724 -0.06421,-0.19904 -0.115573,-0.40451 -0.05137,-0.20546 -0.08347,-0.4045 -0.0321,-0.20546 -0.0321,-0.38524 0,-0.25041 0.08989,-0.41093 0.08989,-0.16052 0.35314,-0.16052 0.102732,0 0.186201,0.0642 0.08347,0.0578 0.154098,0.16694 0.07063,0.10915 0.134835,0.25683 0.06421,0.14125 0.121993,0.31461 0.05779,0.16694 0.109153,0.34672 0.05137,0.17978 0.102731,0.34672 0.05137,0.16694 0.102732,0.32746 0.05779,0.15409 0.147676,0.30819 0.04495,-0.11557 0.102732,-0.26325 0.05779,-0.14768 0.121994,-0.31461 0.07063,-0.16694 0.147676,-0.3403 0.07705,-0.17978 0.166939,-0.34672 0.17336,-0.34672 0.365981,-0.59071 0.199043,-0.24399 0.391664,-0.24399 0.179781,0 0.256829,0.10916 0.07705,0.10915 0.07705,0.28251 0,0.17336 -0.05779,0.39166 -0.05779,0.21831 -0.147677,0.44945 z"
         style="-inkscape-font-specification:Chewy"
         id="path1106" /><path
         d="m 80.543992,238.39321 q 0,0.21831 -0.141255,0.43019 -0.134836,0.20547 -0.346719,0.3724 -0.205464,0.16052 -0.44303,0.26325 -0.237567,0.0963 -0.436609,0.0963 -0.340299,0 -0.609969,-0.16693 -0.26325,-0.17336 -0.44303,-0.43661 -0.17978,-0.26325 -0.276091,-0.57787 -0.08989,-0.32103 -0.08989,-0.62281 0,-0.32103 0.08989,-0.68702 0.08989,-0.36598 0.26967,-0.67417 0.186201,-0.3082 0.462292,-0.51366 0.282512,-0.20546 0.667755,-0.20546 0.218305,0 0.417347,0.0771 0.199043,0.0706 0.346719,0.20546 0.147677,0.13483 0.237567,0.32104 0.08989,0.1862 0.08989,0.41734 0,0.30178 -0.128414,0.56503 -0.128415,0.26325 -0.340298,0.45587 -0.211884,0.19262 -0.487975,0.31461 -0.276091,0.11558 -0.565024,0.12842 0.02568,0.1862 0.147677,0.26967 0.128414,0.0835 0.301774,0.0835 0.128414,0 0.250408,-0.0642 0.121994,-0.0642 0.237567,-0.14126 0.115573,-0.0835 0.224725,-0.14767 0.115573,-0.0642 0.231146,-0.0642 0.128414,0 0.231146,0.0835 0.102731,0.0835 0.102731,0.2183 z m -1.040157,-1.57307 q 0,-0.0835 -0.04494,-0.17336 -0.04494,-0.0899 -0.141256,-0.0899 -0.141255,0 -0.237566,0.077 -0.09631,0.0706 -0.160518,0.1862 -0.06421,0.10915 -0.102732,0.23756 -0.0321,0.12842 -0.03852,0.23757 0.08989,-0.0193 0.211884,-0.0514 0.128414,-0.0321 0.237566,-0.0835 0.115573,-0.0578 0.192622,-0.14125 0.08347,-0.0835 0.08347,-0.19904 z"
         style="-inkscape-font-specification:Chewy"
         id="path1108" /><path
         d="m 69.108685,245.96571 q 0,0.28252 -0.06421,0.62281 -0.05779,0.33388 -0.205463,0.62281 -0.141256,0.28894 -0.378823,0.48156 -0.231146,0.19262 -0.584286,0.19262 -0.08989,0 -0.186201,-0.0128 -0.09631,-0.0128 -0.186201,-0.045 -0.08347,-0.0321 -0.154097,-0.0835 -0.07063,-0.0578 -0.109152,-0.14767 l -0.05779,0.92458 q -0.0064,0.14768 -0.01284,0.35314 0,0.20546 -0.05137,0.39166 -0.04494,0.18621 -0.160518,0.31462 -0.109152,0.13484 -0.321036,0.13484 -0.121994,0 -0.205463,-0.12842 -0.08347,-0.12199 -0.134836,-0.31461 -0.04494,-0.19263 -0.07063,-0.43019 -0.02568,-0.23757 -0.0321,-0.45587 -0.0064,-0.21831 -0.0064,-0.39809 0,-0.17978 0,-0.26325 0,-0.43019 -0.0064,-0.85395 -0.0064,-0.43019 -0.0064,-0.86038 0,-0.0771 0,-0.23757 0,-0.16694 0.01284,-0.35956 0.01284,-0.19262 0.03852,-0.39808 0.0321,-0.20547 0.08989,-0.37241 0.05779,-0.17335 0.147676,-0.27609 0.08989,-0.10915 0.218305,-0.10915 0.08347,0 0.147676,0.0514 0.07063,0.0449 0.115573,0.12199 0.05137,0.0706 0.08347,0.1541 0.0321,0.0835 0.05137,0.1541 0.199042,-0.22473 0.455871,-0.3403 0.26325,-0.11558 0.558603,-0.11558 0.308194,0 0.500816,0.17336 0.199043,0.17336 0.308195,0.43019 0.115573,0.25683 0.160518,0.55218 0.04494,0.28894 0.04494,0.5265 z m -0.918163,-0.0514 q 0,-0.0963 -0.01926,-0.19262 -0.01284,-0.10274 -0.05779,-0.1862 -0.03852,-0.0899 -0.115573,-0.14126 -0.07705,-0.0578 -0.192622,-0.0578 -0.154097,0 -0.327457,0.10273 -0.166938,0.0963 -0.250408,0.22473 -0.0321,0.0514 -0.03852,0.16694 -0.0064,0.11557 -0.0064,0.17336 0,0.0449 0,0.12199 0.0064,0.0706 0.01284,0.14768 0.0064,0.077 0.01284,0.14767 0.01284,0.0706 0.0321,0.10916 0.01926,0.0578 0.08347,0.10915 0.06421,0.0449 0.141256,0.0835 0.07705,0.0385 0.154097,0.0578 0.08347,0.0193 0.141256,0.0193 0.134835,0 0.218305,-0.10273 0.08347,-0.10274 0.128414,-0.24399 0.05137,-0.14126 0.06421,-0.28893 0.01926,-0.1541 0.01926,-0.25041 z"
         style="-inkscape-font-specification:Chewy"
         id="path1110" /><path
         d="m 71.72834,245.47774 q -0.08989,0.006 -0.154098,-0.0128 -0.06421,-0.0257 -0.128414,-0.0514 -0.05779,-0.0257 -0.115573,-0.0449 -0.05779,-0.0257 -0.128414,-0.0193 -0.128415,0.006 -0.231146,0.0706 -0.09631,0.0642 -0.179781,0.16052 -0.07705,0.0963 -0.134835,0.2183 -0.05779,0.11558 -0.08989,0.23115 -0.01926,0.077 -0.0321,0.23757 -0.0064,0.15409 -0.0064,0.33388 -0.0064,0.1862 -0.0064,0.35313 0,0.16694 -0.01284,0.26325 -0.0064,0.10274 -0.0321,0.24399 -0.02568,0.13484 -0.08347,0.25683 -0.05137,0.12199 -0.141255,0.20546 -0.08989,0.0835 -0.231146,0.0835 -0.109153,0 -0.192622,-0.0642 -0.07705,-0.0642 -0.134835,-0.16694 -0.05137,-0.10915 -0.08989,-0.25041 -0.0321,-0.14126 -0.05137,-0.28893 -0.01926,-0.1541 -0.0321,-0.3082 -0.0064,-0.1541 -0.01284,-0.28893 0,-0.14126 0,-0.25683 0.0064,-0.11557 0.0064,-0.1862 -0.0064,-0.22473 -0.02568,-0.44945 -0.01284,-0.23115 -0.01284,-0.45587 0,-0.14126 0.01284,-0.31462 0.01284,-0.17336 0.07063,-0.32103 0.05779,-0.1541 0.166938,-0.25683 0.115573,-0.10273 0.314616,-0.10273 0.109152,0 0.186201,0.0706 0.07705,0.0706 0.121993,0.17336 0.05137,0.10273 0.07705,0.21831 0.02568,0.11557 0.0321,0.21188 0.154097,-0.25041 0.346719,-0.4045 0.192621,-0.16052 0.500816,-0.17336 0.154097,-0.006 0.301774,0.0321 0.154097,0.0321 0.276091,0.11557 0.128415,0.077 0.205463,0.20547 0.08347,0.12841 0.08989,0.30177 0.01284,0.20546 -0.121993,0.31462 -0.134836,0.10915 -0.327457,0.11557 z"
         style="-inkscape-font-specification:Chewy"
         id="path1112" /><path
         d="m 73.494039,248.06529 q -0.327457,0 -0.571445,-0.17336 -0.243987,-0.17336 -0.410926,-0.44303 -0.166939,-0.26967 -0.250408,-0.59713 -0.08347,-0.33387 -0.08347,-0.65491 0,-0.3403 0.08347,-0.69986 0.08347,-0.36598 0.256829,-0.66133 0.173359,-0.30178 0.44303,-0.48798 0.26967,-0.19262 0.642072,-0.19262 0.35956,0 0.609968,0.19904 0.256829,0.19262 0.410927,0.48798 0.154097,0.28893 0.218304,0.63565 0.06421,0.34672 0.04494,0.65491 -0.01926,0.3403 -0.109152,0.68702 -0.08347,0.34672 -0.250408,0.62281 -0.166939,0.27609 -0.423768,0.44945 -0.256829,0.17336 -0.609968,0.17336 z m 0.06421,-2.90217 q -0.09631,0 -0.17336,0.10273 -0.07063,0.10274 -0.121993,0.25041 -0.04495,0.14768 -0.07063,0.31462 -0.02568,0.16052 -0.02568,0.28251 0,0.1541 0.02568,0.33388 0.0321,0.17978 0.08347,0.33388 0.05137,0.14767 0.121994,0.2504 0.07705,0.0963 0.173359,0.0963 0.102732,0 0.17336,-0.0963 0.07705,-0.0963 0.121993,-0.24398 0.04495,-0.14768 0.06421,-0.32104 0.01926,-0.17978 0.01926,-0.33388 0,-0.14125 -0.02568,-0.30819 -0.02568,-0.17336 -0.07705,-0.32104 -0.04494,-0.14768 -0.121993,-0.24399 -0.07063,-0.0963 -0.166939,-0.0963 z"
         style="-inkscape-font-specification:Chewy"
         id="path1114" /><path
         d="m 76.306316,243.46163 q 0,0.0899 -0.05137,0.16694 -0.05137,0.0706 -0.128415,0.12199 -0.07705,0.0514 -0.166938,0.0835 -0.08989,0.0257 -0.166939,0.0257 -0.128415,0 -0.224726,-0.0642 -0.09631,-0.0642 -0.09631,-0.19904 0,-0.0963 0.04494,-0.16694 0.05137,-0.077 0.121993,-0.122 0.07705,-0.0514 0.160518,-0.077 0.08989,-0.0257 0.17336,-0.0257 0.121994,0 0.224725,0.0642 0.109153,0.0578 0.109153,0.19262 z m 0.121993,2.7866 q 0,0.30177 -0.01926,0.67417 -0.01284,0.36598 -0.07705,0.73838 -0.05779,0.37241 -0.186201,0.70628 -0.128414,0.33388 -0.35956,0.55861 -0.128414,0.12199 -0.301774,0.25683 -0.173359,0.13483 -0.372402,0.2504 -0.192622,0.11558 -0.391664,0.1862 -0.199042,0.077 -0.378823,0.077 -0.205463,0 -0.301774,-0.11557 -0.102731,-0.10915 -0.102731,-0.30819 0,-0.20547 0.109152,-0.3082 0.109152,-0.10273 0.269671,-0.17978 0.160518,-0.0771 0.353139,-0.17336 0.186201,-0.0899 0.346719,-0.27609 0.160518,-0.1862 0.269671,-0.50082 0.109152,-0.32103 0.109152,-0.84111 0,-0.32746 -0.01284,-0.64207 -0.01284,-0.31462 -0.03852,-0.64208 -0.01284,-0.1862 -0.02568,-0.3724 -0.01284,-0.19262 -0.01284,-0.37882 0,-0.11557 0.0321,-0.24399 0.0321,-0.12841 0.09631,-0.23114 0.06421,-0.10916 0.160518,-0.17336 0.102732,-0.0706 0.243988,-0.0706 0.160518,0 0.263249,0.12199 0.109153,0.122 0.17336,0.31462 0.07063,0.1862 0.09631,0.42377 0.0321,0.23114 0.04494,0.45587 0.01284,0.2183 0.01284,0.4045 0,0.1862 0,0.28894 z"
         style="-inkscape-font-specification:Chewy"
         id="path1116" /><path
         d="m 79.63867,246.7362 q 0,0.2183 -0.141255,0.43019 -0.134836,0.20546 -0.34672,0.3724 -0.205463,0.16052 -0.443029,0.26325 -0.237567,0.0963 -0.43661,0.0963 -0.340298,0 -0.609968,-0.16694 -0.26325,-0.17336 -0.44303,-0.43661 -0.17978,-0.26325 -0.276091,-0.57786 -0.08989,-0.32104 -0.08989,-0.62281 0,-0.32104 0.08989,-0.68702 0.08989,-0.36598 0.26967,-0.67418 0.186201,-0.30819 0.462292,-0.51365 0.282512,-0.20547 0.667755,-0.20547 0.218305,0 0.417347,0.077 0.199043,0.0706 0.346719,0.20547 0.147677,0.13483 0.237567,0.32103 0.08989,0.1862 0.08989,0.41735 0,0.30177 -0.128414,0.56502 -0.128415,0.26325 -0.340298,0.45587 -0.211884,0.19263 -0.487975,0.31462 -0.276091,0.11557 -0.565024,0.12841 0.02568,0.1862 0.147677,0.26967 0.128414,0.0835 0.301774,0.0835 0.128414,0 0.250408,-0.0642 0.121994,-0.0642 0.237567,-0.14126 0.115573,-0.0835 0.224725,-0.14768 0.115573,-0.0642 0.231146,-0.0642 0.128414,0 0.231146,0.0835 0.102731,0.0835 0.102731,0.2183 z m -1.040157,-1.57308 q 0,-0.0835 -0.04494,-0.17336 -0.04494,-0.0899 -0.141256,-0.0899 -0.141256,0 -0.237566,0.0771 -0.09631,0.0706 -0.160518,0.1862 -0.06421,0.10916 -0.102732,0.23757 -0.0321,0.12841 -0.03852,0.23757 0.08989,-0.0193 0.211884,-0.0514 0.128414,-0.0321 0.237566,-0.0835 0.115573,-0.0578 0.192622,-0.14125 0.08347,-0.0835 0.08347,-0.19905 z"
         style="-inkscape-font-specification:Chewy"
         id="path1118" /><path
         d="m 82.277587,245.41353 q 0,0.0321 -0.0064,0.0706 -0.0064,0.0321 -0.01926,0.0642 -0.05779,0.14767 -0.17978,0.2504 -0.121994,0.0963 -0.288933,0.0963 -0.250408,0 -0.340298,-0.25041 -0.01284,-0.0321 -0.01284,-0.0706 0,-0.045 -0.0064,-0.0899 v -0.1862 q -0.01284,-0.0899 -0.04494,-0.14126 -0.0321,-0.0514 -0.109153,-0.0514 -0.109152,0 -0.211883,0.14125 -0.09631,0.13484 -0.17336,0.32746 -0.07063,0.1862 -0.115573,0.38524 -0.04494,0.19905 -0.04494,0.32104 0,0.0963 0.01284,0.23757 0.01284,0.13483 0.05137,0.26325 0.03852,0.12841 0.102732,0.22472 0.07063,0.0899 0.17978,0.0899 0.109152,0 0.199042,-0.0642 0.09631,-0.0706 0.186201,-0.16051 0.08347,-0.077 0.179781,-0.16052 0.102731,-0.0835 0.231146,-0.0835 0.160518,0 0.250408,0.11557 0.09631,0.11557 0.09631,0.26325 0,0.21831 -0.115573,0.41093 -0.115573,0.1862 -0.288933,0.32745 -0.173359,0.13484 -0.385243,0.21189 -0.211884,0.0835 -0.404506,0.0835 -0.346719,0 -0.590706,-0.17336 -0.237567,-0.17336 -0.385244,-0.43661 -0.147676,-0.26967 -0.211884,-0.58429 -0.06421,-0.31461 -0.06421,-0.59712 0,-0.32746 0.08989,-0.70628 0.08989,-0.38525 0.276091,-0.7127 0.186201,-0.32746 0.475134,-0.54577 0.295353,-0.2183 0.699859,-0.2183 0.250408,0 0.430188,0.10915 0.186201,0.10915 0.301774,0.28893 0.121994,0.17336 0.17978,0.39167 0.06421,0.2183 0.06421,0.43019 0,0.0321 0,0.0642 0,0.0321 -0.0064,0.0642 z"
         style="-inkscape-font-specification:Chewy"
         id="path1120" /><path
         d="m 84.133177,248.11023 q -0.455872,0 -0.7127,-0.12199 -0.250409,-0.11557 -0.378823,-0.33388 -0.121994,-0.2183 -0.147677,-0.5265 -0.02568,-0.30819 -0.02568,-0.68701 0,-0.30178 0.01926,-0.60355 0.01926,-0.3082 0.05779,-0.65491 -0.08989,0 -0.141256,0.006 -0.05137,0 -0.08347,0 -0.205463,0 -0.35314,-0.0899 -0.154097,-0.0899 -0.154097,-0.2761 0,-0.11557 0.08989,-0.20546 0.08347,-0.0899 0.218304,-0.1541 0.134836,-0.0642 0.288933,-0.10273 0.160518,-0.0385 0.301774,-0.0514 0,-0.17978 0.02568,-0.39809 0.02568,-0.2183 0.08989,-0.4045 0.07063,-0.19262 0.186201,-0.32104 0.115573,-0.12841 0.295353,-0.12841 0.102732,0 0.17978,0.0642 0.08347,0.0578 0.134835,0.1541 0.05137,0.0899 0.07705,0.20546 0.02568,0.11558 0.02568,0.22473 0,0.12841 -0.01926,0.26325 -0.01926,0.13483 -0.07063,0.33388 0.109152,-0.0129 0.147677,-0.0129 0.03852,-0.006 0.07063,-0.006 0.109153,0 0.224726,0.0193 0.121993,0.0193 0.218304,0.0642 0.102732,0.045 0.166939,0.122 0.06421,0.0706 0.06421,0.17336 0,0.11557 -0.09631,0.20546 -0.08989,0.0899 -0.231147,0.1541 -0.141255,0.0642 -0.301773,0.10273 -0.160519,0.0321 -0.301774,0.0449 -0.03852,0.26325 -0.05779,0.48798 -0.01284,0.2183 -0.0321,0.44303 -0.01284,0.10915 -0.02568,0.22472 -0.0064,0.10916 -0.0064,0.22473 0,0.0835 0.0064,0.19904 0.0064,0.10915 0.04494,0.21189 0.03852,0.10273 0.121993,0.17978 0.08347,0.0706 0.231146,0.0706 0.08989,0 0.186201,-0.0128 0.09631,-0.0193 0.192622,-0.0193 0.166939,0 0.237567,0.11557 0.07705,0.11558 0.07705,0.29536 0,0.13483 -0.08347,0.23756 -0.07705,0.0963 -0.199042,0.1541 -0.121994,0.0642 -0.276091,0.0963 -0.147677,0.0321 -0.282512,0.0321 z"
         style="-inkscape-font-specification:Chewy"
         id="path1122" /><path
         d="m 87.728781,246.2418 q 0,0.0578 -0.09631,0.0963 -0.08989,0.0321 -0.237567,0.0578 -0.147676,0.0257 -0.327456,0.045 -0.17336,0.0128 -0.333878,0.0193 -0.160518,0.006 -0.288933,0.0128 -0.128414,0 -0.17978,0 -0.06421,0 -0.263249,0 -0.199043,-0.006 -0.417347,-0.0257 -0.211884,-0.0193 -0.378823,-0.0642 -0.166939,-0.0514 -0.166939,-0.14126 0,-0.10915 0.17978,-0.17335 0.186201,-0.0642 0.423768,-0.0899 0.243988,-0.0321 0.475134,-0.0385 0.237566,-0.006 0.346719,-0.006 0.06421,0 0.17978,0.006 0.121994,0.006 0.256829,0.0257 0.141256,0.0128 0.288932,0.0385 0.147677,0.0257 0.26325,0.0578 0.121994,0.0321 0.199042,0.0771 0.07705,0.045 0.07705,0.10273 z"
         style="-inkscape-font-specification:Chewy"
         id="path1124" /><path
         d="m 91.09324,245.76025 q 0,0.1862 -0.0321,0.42377 -0.02568,0.23114 -0.08989,0.47513 -0.05779,0.24399 -0.160518,0.47514 -0.09631,0.23114 -0.243988,0.41734 -0.141256,0.17978 -0.333877,0.28893 -0.186201,0.10916 -0.43661,0.10916 -0.263249,0 -0.481554,-0.122 -0.211884,-0.12199 -0.365981,-0.33387 -0.01926,0.17336 -0.141256,0.30819 -0.121994,0.12841 -0.308195,0.12841 -0.109152,0 -0.1862,-0.10915 -0.07063,-0.10915 -0.115573,-0.27609 -0.04495,-0.17336 -0.07063,-0.37882 -0.01926,-0.20546 -0.02568,-0.39809 -0.0064,-0.19262 -0.0064,-0.34672 0,-0.15409 0,-0.2183 0,-0.2183 0,-0.43661 0.0064,-0.2183 0.01284,-0.44303 0,-0.10915 -0.0064,-0.32746 0,-0.2183 0.0064,-0.48155 0.0064,-0.26967 0.02568,-0.54576 0.02568,-0.28251 0.08347,-0.51366 0.05779,-0.23115 0.160518,-0.37882 0.102731,-0.14768 0.263249,-0.1541 0.128415,0 0.218305,0.0899 0.08989,0.0899 0.147677,0.23757 0.06421,0.14767 0.09631,0.33388 0.03852,0.17978 0.05137,0.36598 0.01926,0.17978 0.01926,0.34672 0.0064,0.16051 0.0064,0.26325 0,0.0193 -0.0064,0.0899 0,0.0642 0,0.14125 0,0.0771 0,0.14126 0,0.0578 0,0.0642 0.05779,-0.12199 0.166939,-0.23756 0.109152,-0.11558 0.243988,-0.20547 0.134835,-0.0899 0.282511,-0.14767 0.147677,-0.0578 0.282512,-0.0578 0.269671,0 0.449451,0.14126 0.186201,0.13483 0.295353,0.34672 0.109152,0.21188 0.154097,0.46229 0.04494,0.24399 0.04494,0.46229 z m -0.943846,0.19262 q 0,-0.077 -0.01284,-0.16694 -0.0064,-0.0899 -0.04495,-0.16694 -0.0321,-0.077 -0.09631,-0.12841 -0.05779,-0.0514 -0.154097,-0.0514 -0.102732,0 -0.205464,0.045 -0.09631,0.0449 -0.186201,0.11557 -0.08989,0.0706 -0.166938,0.1541 -0.07705,0.0771 -0.134836,0.1541 l -0.06421,0.57144 q 0.102732,0.14768 0.250408,0.23757 0.147677,0.0835 0.333878,0.0835 0.141256,0 0.231146,-0.0899 0.09631,-0.0899 0.147677,-0.21831 0.05779,-0.13483 0.07705,-0.28251 0.02568,-0.14768 0.02568,-0.25683 z"
         style="-inkscape-font-specification:Chewy"
         id="path1126" /><path
         d="m 94.213711,246.97377 q 0,0.11557 -0.01284,0.30177 -0.0064,0.1862 -0.05137,0.36598 -0.04494,0.17336 -0.141256,0.30178 -0.09631,0.12841 -0.269671,0.12841 -0.237566,0 -0.365981,-0.1541 -0.128414,-0.15409 -0.121993,-0.38524 -0.205464,0.17978 -0.468713,0.28251 -0.256829,0.10273 -0.526499,0.10273 -0.186201,0 -0.35314,-0.0899 -0.166939,-0.0899 -0.295353,-0.23114 -0.128415,-0.14126 -0.205464,-0.31462 -0.07705,-0.17978 -0.07705,-0.35314 0,-0.30819 0.186201,-0.53934 0.192621,-0.23114 0.468712,-0.39166 0.276092,-0.16694 0.584286,-0.26325 0.314616,-0.0963 0.558603,-0.12842 0,-0.0321 0,-0.0578 0.0064,-0.0257 0.0064,-0.0578 0,-0.19904 -0.109152,-0.32104 -0.109153,-0.12199 -0.308195,-0.12199 -0.160518,0 -0.276091,0.0578 -0.115573,0.0514 -0.218305,0.12199 -0.102731,0.0642 -0.205463,0.12199 -0.102732,0.0514 -0.231146,0.0514 -0.141256,0 -0.243987,-0.0899 -0.09631,-0.0899 -0.09631,-0.23115 0,-0.21188 0.121993,-0.38524 0.128415,-0.17336 0.314616,-0.28893 0.192622,-0.122 0.410926,-0.1862 0.224725,-0.0706 0.410926,-0.0706 0.17336,0 0.346719,0.0449 0.17336,0.0385 0.327457,0.12842 0.154098,0.0835 0.276091,0.21188 0.128415,0.122 0.205463,0.28893 0.115573,0.23757 0.186201,0.50724 0.07063,0.26325 0.109153,0.54576 0.03852,0.27609 0.05137,0.55861 0.01284,0.27609 0.01284,0.53934 z m -1.027316,-0.20547 -0.01926,-0.43661 q -0.01284,0 -0.02568,0 -0.01284,-0.006 -0.02568,-0.006 -0.08347,0 -0.211883,0.045 -0.121994,0.0385 -0.237567,0.11557 -0.115573,0.0706 -0.199043,0.16052 -0.07705,0.0899 -0.07705,0.1862 0,0.0899 0.06421,0.12199 0.06421,0.0321 0.147677,0.0321 0.141255,0 0.301774,-0.0706 0.160518,-0.077 0.282511,-0.14768 z"
         style="-inkscape-font-specification:Chewy"
         id="path1128" /><path
         d="m 96.480225,244.34769 q 0,0.1862 -0.128414,0.27609 -0.121994,0.0899 -0.276091,0.17336 -0.154097,0.077 -0.282512,0.1862 -0.121994,0.10916 -0.121994,0.32746 0,0.11557 0.05137,0.19904 0.05779,0.0835 0.134835,0.1541 0.08347,0.0642 0.179781,0.13483 0.09631,0.0706 0.173359,0.16052 0.08347,0.0899 0.134835,0.21831 0.05779,0.12841 0.05779,0.31461 0,0.26967 -0.141256,0.53292 -0.134835,0.25683 -0.35314,0.46229 -0.211884,0.19905 -0.481554,0.32104 -0.26967,0.12199 -0.53292,0.12199 -0.109152,0 -0.218305,-0.0193 -0.109152,-0.0128 -0.199042,-0.0578 -0.08347,-0.045 -0.141256,-0.122 -0.05779,-0.0835 -0.05779,-0.21188 0,-0.17978 0.07063,-0.27609 0.07063,-0.10273 0.17978,-0.16052 0.109152,-0.0578 0.231146,-0.0899 0.128414,-0.0321 0.237567,-0.0771 0.109152,-0.0514 0.17978,-0.12841 0.07063,-0.077 0.07063,-0.21831 0,-0.13483 -0.109153,-0.27609 -0.102731,-0.14768 -0.231146,-0.30819 -0.128414,-0.16694 -0.237566,-0.35314 -0.102732,-0.18621 -0.102732,-0.41093 0,-0.27609 0.109152,-0.50724 0.115573,-0.23756 0.301774,-0.41092 0.192622,-0.17336 0.436609,-0.26967 0.243988,-0.10274 0.513658,-0.10274 0.102732,0 0.199043,0.0193 0.102731,0.0193 0.17978,0.0706 0.07705,0.045 0.121994,0.12842 0.05137,0.077 0.05137,0.19904 z"
         style="-inkscape-font-specification:Chewy"
         id="path1130" /><path
         d="m 99.427338,246.7362 q 0,0.2183 -0.141256,0.43019 -0.134835,0.20546 -0.346719,0.3724 -0.205463,0.16052 -0.44303,0.26325 -0.237566,0.0963 -0.436609,0.0963 -0.340298,0 -0.609969,-0.16694 -0.263249,-0.17336 -0.443029,-0.43661 -0.179781,-0.26325 -0.276091,-0.57786 -0.08989,-0.32104 -0.08989,-0.62281 0,-0.32104 0.08989,-0.68702 0.08989,-0.36598 0.26967,-0.67418 0.186201,-0.30819 0.462292,-0.51365 0.282512,-0.20547 0.667755,-0.20547 0.218305,0 0.417347,0.077 0.199042,0.0706 0.346719,0.20547 0.147677,0.13483 0.237567,0.32103 0.08989,0.1862 0.08989,0.41735 0,0.30177 -0.128414,0.56502 -0.128415,0.26325 -0.340299,0.45587 -0.211884,0.19263 -0.487975,0.31462 -0.276091,0.11557 -0.565023,0.12841 0.02568,0.1862 0.147676,0.26967 0.128415,0.0835 0.301774,0.0835 0.128415,0 0.250408,-0.0642 0.121994,-0.0642 0.237567,-0.14126 0.115573,-0.0835 0.224725,-0.14768 0.115573,-0.0642 0.231147,-0.0642 0.128414,0 0.231146,0.0835 0.102731,0.0835 0.102731,0.2183 z m -1.040157,-1.57308 q 0,-0.0835 -0.04494,-0.17336 -0.04494,-0.0899 -0.141256,-0.0899 -0.141256,0 -0.237567,0.0771 -0.09631,0.0706 -0.160518,0.1862 -0.06421,0.10916 -0.102731,0.23757 -0.0321,0.12841 -0.03853,0.23757 0.08989,-0.0193 0.211884,-0.0514 0.128415,-0.0321 0.237567,-0.0835 0.115573,-0.0578 0.192622,-0.14125 0.08347,-0.0835 0.08347,-0.19905 z"
         style="-inkscape-font-specification:Chewy"
         id="path1132" /><path
         d="m 102.4515,243.65425 q 0,0.46872 -0.0385,0.93101 -0.0321,0.46229 -0.0321,0.931 0,0.37883 0.0193,0.75123 0.0257,0.3724 0.0257,0.75122 0,0.10273 -0.006,0.25041 -0.006,0.14126 -0.045,0.27609 -0.0321,0.13484 -0.11557,0.23115 -0.077,0.0963 -0.22473,0.0963 -0.19262,0 -0.32103,-0.14126 -0.122,-0.14767 -0.1541,-0.32745 -0.12199,0.23114 -0.35314,0.39166 -0.23115,0.16052 -0.50082,0.16052 -0.28893,0 -0.50081,-0.19904 -0.205466,-0.19905 -0.346722,-0.48156 -0.134835,-0.28251 -0.205463,-0.59071 -0.06421,-0.30819 -0.06421,-0.53292 0,-0.16051 0.01926,-0.36598 0.01926,-0.20546 0.06421,-0.41734 0.05137,-0.21189 0.128414,-0.41093 0.07705,-0.20546 0.192622,-0.36598 0.121999,-0.16052 0.282509,-0.25683 0.16694,-0.0963 0.37883,-0.0963 0.23114,0 0.44303,0.13483 0.21188,0.13484 0.32103,0.33388 l 0.0578,-1.02089 q 0.006,-0.122 0.0193,-0.28251 0.0128,-0.16694 0.0514,-0.31462 0.0449,-0.14768 0.13483,-0.25041 0.0899,-0.10273 0.26325,-0.10273 0.1862,0 0.28894,0.0899 0.10273,0.0899 0.14767,0.23115 0.0514,0.13483 0.0578,0.29535 0.0128,0.16052 0.0128,0.30177 z m -1.04658,2.8508 q 0,-0.14767 -0.006,-0.28893 -0.006,-0.14125 0,-0.28893 -0.0385,-0.0835 -0.0899,-0.17978 -0.0514,-0.10273 -0.12841,-0.1862 -0.0706,-0.0899 -0.16052,-0.14768 -0.0899,-0.0578 -0.19262,-0.0578 -0.11558,0 -0.1862,0.0706 -0.0706,0.0706 -0.10274,0.17336 -0.0321,0.0963 -0.0449,0.21189 -0.006,0.11557 -0.006,0.19904 0,0.077 0.0128,0.23114 0.0128,0.14768 0.045,0.30178 0.0385,0.1541 0.10273,0.26967 0.0642,0.11557 0.17336,0.11557 0.0835,0 0.16694,-0.0321 0.0835,-0.0385 0.15409,-0.0899 0.077,-0.0578 0.14126,-0.122 0.0706,-0.0706 0.12199,-0.12841 z"
         style="-inkscape-font-specification:Chewy"
         id="path1134" /><path
         d="m 87.934243,256.30554 q -0.205463,0 -0.372402,-0.2183 -0.160518,-0.2183 -0.282511,-0.52008 -0.121994,-0.30819 -0.205464,-0.62923 -0.07705,-0.32104 -0.115573,-0.53292 -0.05137,0.12842 -0.141255,0.31462 -0.08347,0.1862 -0.199043,0.39166 -0.109152,0.20546 -0.237567,0.41735 -0.128414,0.20546 -0.26967,0.3724 -0.134835,0.16694 -0.276091,0.26967 -0.134835,0.10273 -0.26325,0.10273 -0.173359,0 -0.308194,-0.16694 -0.128415,-0.16694 -0.218305,-0.43661 -0.08989,-0.26967 -0.154097,-0.59712 -0.05779,-0.32746 -0.08989,-0.65492 -0.0321,-0.32745 -0.04495,-0.60997 -0.01284,-0.28251 -0.01284,-0.45587 0,-0.16052 0.01284,-0.30819 0.01926,-0.14768 0.06421,-0.26325 0.05137,-0.11557 0.141256,-0.17978 0.09631,-0.0706 0.250408,-0.0706 0.147676,0 0.250408,0.10915 0.109152,0.10915 0.17978,0.28893 0.07063,0.17336 0.115573,0.39809 0.04495,0.2183 0.07063,0.44945 0.02568,0.22473 0.0321,0.44303 0.01284,0.21188 0.01926,0.36598 0.03852,-0.13483 0.109152,-0.32746 0.07063,-0.19904 0.154098,-0.41734 0.08347,-0.22473 0.17978,-0.44303 0.102731,-0.21831 0.199042,-0.39167 0.102732,-0.17336 0.199043,-0.28251 0.09631,-0.10915 0.186201,-0.10915 h 0.0064 q 0.115573,0 0.224726,0.10915 0.109152,0.10915 0.211884,0.28251 0.102731,0.17336 0.192621,0.39809 0.08989,0.2183 0.166939,0.44945 0.07705,0.22472 0.134835,0.44303 0.05779,0.21188 0.09631,0.36598 0.0064,-0.1862 0.01926,-0.41735 0.01284,-0.23756 0.04494,-0.47513 0.03853,-0.23757 0.09631,-0.46229 0.06421,-0.22473 0.154097,-0.39809 0.08989,-0.17978 0.218305,-0.28251 0.134835,-0.10915 0.308195,-0.10915 0.17978,0 0.263249,0.12841 0.08989,0.122 0.08989,0.30178 0,0.19262 -0.05137,0.51365 -0.04494,0.32104 -0.128415,0.69986 -0.08347,0.37241 -0.199042,0.75765 -0.109152,0.37882 -0.243988,0.68702 -0.134835,0.30819 -0.282511,0.50723 -0.147677,0.19262 -0.295354,0.19262 z"
         style="-inkscape-font-specification:Chewy"
         id="path1136" /><path
         d="m 90.643787,256.40828 q -0.327457,0 -0.571444,-0.17336 -0.243988,-0.17336 -0.410927,-0.44303 -0.166938,-0.26967 -0.250408,-0.59713 -0.08347,-0.33388 -0.08347,-0.65491 0,-0.3403 0.08347,-0.69986 0.08347,-0.36598 0.256829,-0.66134 0.17336,-0.30177 0.44303,-0.48797 0.26967,-0.19262 0.642072,-0.19262 0.359561,0 0.609969,0.19904 0.256829,0.19262 0.410926,0.48797 0.154097,0.28894 0.218305,0.63566 0.06421,0.34671 0.04494,0.65491 -0.01926,0.3403 -0.109153,0.68702 -0.08347,0.34672 -0.250408,0.62281 -0.166939,0.27609 -0.423767,0.44945 -0.256829,0.17336 -0.609969,0.17336 z m 0.06421,-2.90217 q -0.09631,0 -0.173359,0.10273 -0.07063,0.10273 -0.121994,0.25041 -0.04494,0.14768 -0.07063,0.31461 -0.02568,0.16052 -0.02568,0.28252 0,0.15409 0.02568,0.33387 0.0321,0.17978 0.08347,0.33388 0.05137,0.14768 0.121994,0.25041 0.07705,0.0963 0.17336,0.0963 0.102731,0 0.173359,-0.0963 0.07705,-0.0963 0.121994,-0.24399 0.04494,-0.14767 0.06421,-0.32103 0.01926,-0.17978 0.01926,-0.33388 0,-0.14126 -0.02568,-0.3082 -0.02568,-0.17336 -0.07705,-0.32103 -0.04494,-0.14768 -0.121994,-0.24399 -0.07063,-0.0963 -0.166939,-0.0963 z"
         style="-inkscape-font-specification:Chewy"
         id="path1138" /><path
         d="m 94.592533,253.82073 q -0.08989,0.006 -0.154097,-0.0128 -0.06421,-0.0257 -0.128415,-0.0514 -0.05779,-0.0257 -0.115573,-0.045 -0.05779,-0.0257 -0.128414,-0.0193 -0.128414,0.006 -0.231146,0.0706 -0.09631,0.0642 -0.17978,0.16052 -0.07705,0.0963 -0.134835,0.2183 -0.05779,0.11557 -0.08989,0.23115 -0.01926,0.0771 -0.0321,0.23756 -0.0064,0.1541 -0.0064,0.33388 -0.0064,0.1862 -0.0064,0.35314 0,0.16694 -0.01284,0.26325 -0.0064,0.10273 -0.0321,0.24399 -0.02568,0.13483 -0.08347,0.25683 -0.05137,0.12199 -0.141256,0.20546 -0.08989,0.0835 -0.231146,0.0835 -0.109152,0 -0.192622,-0.0642 -0.07705,-0.0642 -0.134835,-0.16694 -0.05137,-0.10915 -0.08989,-0.2504 -0.0321,-0.14126 -0.05137,-0.28894 -0.01926,-0.15409 -0.0321,-0.30819 -0.0064,-0.1541 -0.01284,-0.28893 0,-0.14126 0,-0.25683 0.0064,-0.11558 0.0064,-0.1862 -0.0064,-0.22473 -0.02568,-0.44945 -0.01284,-0.23115 -0.01284,-0.45588 0,-0.14125 0.01284,-0.31461 0.01284,-0.17336 0.07063,-0.32104 0.05779,-0.15409 0.166939,-0.25683 0.115573,-0.10273 0.314615,-0.10273 0.109152,0 0.186201,0.0706 0.07705,0.0706 0.121994,0.17336 0.05137,0.10273 0.07705,0.2183 0.02568,0.11558 0.0321,0.21189 0.154097,-0.25041 0.346719,-0.40451 0.192622,-0.16052 0.500817,-0.17336 0.154097,-0.006 0.301774,0.0321 0.154097,0.0321 0.276091,0.11557 0.128414,0.0771 0.205463,0.20546 0.08347,0.12842 0.08989,0.30178 0.01284,0.20546 -0.121994,0.31461 -0.134835,0.10915 -0.327457,0.11558 z"
         style="-inkscape-font-specification:Chewy"
         id="path1140" /><path
         d="m 97.989096,252.76773 q 0,0.17978 -0.09631,0.36598 -0.08989,0.1862 -0.224726,0.3724 -0.128414,0.17978 -0.276091,0.34672 -0.141256,0.16052 -0.250408,0.29535 0.08989,0.14126 0.224725,0.37882 0.134836,0.23115 0.256829,0.4944 0.121994,0.26325 0.205463,0.51366 0.08989,0.25041 0.08989,0.41735 0,0.13483 -0.08347,0.2504 -0.08347,0.10916 -0.231146,0.10916 -0.109152,0 -0.224725,-0.0899 -0.109152,-0.0963 -0.224725,-0.24399 -0.109153,-0.1541 -0.211884,-0.3403 -0.102732,-0.1862 -0.192622,-0.36598 -0.08347,-0.17978 -0.154097,-0.33388 -0.06421,-0.16052 -0.102732,-0.25683 -0.08347,0.0835 -0.17978,0.14126 -0.08989,0.0514 -0.17978,0.12199 0,0.13484 -0.01284,0.37882 -0.0064,0.24399 -0.05779,0.48156 -0.04494,0.23757 -0.154098,0.41735 -0.109152,0.17335 -0.321036,0.17335 -0.166939,0 -0.256829,-0.15409 -0.08989,-0.14768 -0.134835,-0.34672 -0.03852,-0.20546 -0.04495,-0.41093 -0.0064,-0.21188 -0.0064,-0.32103 0,-0.47514 0.02568,-0.95027 0.02568,-0.47513 0.0321,-0.95027 0,-0.10915 0,-0.28251 0.0064,-0.17978 0.02568,-0.38524 0.01926,-0.20547 0.05779,-0.41735 0.03852,-0.21188 0.109153,-0.37882 0.07063,-0.17336 0.17978,-0.27609 0.115573,-0.10916 0.276091,-0.10916 0.115573,0 0.192622,0.0899 0.08347,0.0835 0.128414,0.21831 0.05137,0.13483 0.07063,0.30177 0.02568,0.16694 0.0321,0.33388 0.01284,0.16052 0.01284,0.30177 0,0.14126 0,0.22473 0,0.0578 -0.0064,0.17336 0,0.10915 -0.0064,0.23115 0,0.12199 0,0.22472 0,0.10273 0.01284,0.14768 0.04494,0 0.134835,-0.0835 0.08989,-0.0899 0.205463,-0.22473 0.121994,-0.13483 0.256829,-0.28251 0.141256,-0.1541 0.282512,-0.28893 0.147677,-0.13484 0.288933,-0.21831 0.141255,-0.0899 0.263249,-0.0899 0.128415,0 0.199043,0.0899 0.07063,0.0899 0.07063,0.20547 z"
         style="-inkscape-font-specification:Chewy"
         id="path1142" /></g></g></svg>
