<?xml version="1.0" encoding="UTF-8" standalone="no"?>
<!-- Created with Inkscape (http://www.inkscape.org/) -->

<svg
   width="154.85072"
   height="74.858131"
   viewBox="0 0 40.970919 19.806214"
   version="1.1"
   id="svg5"
   inkscape:version="1.2 (dc2aedaf03, 2022-05-15)"
   sodipodi:docname="Scene 2.svg"
   xml:space="preserve"
   xmlns:inkscape="http://www.inkscape.org/namespaces/inkscape"
   xmlns:sodipodi="http://sodipodi.sourceforge.net/DTD/sodipodi-0.dtd"
   xmlns="http://www.w3.org/2000/svg"
   xmlns:svg="http://www.w3.org/2000/svg"><sodipodi:namedview
     id="namedview7"
     pagecolor="#ffffff"
     bordercolor="#666666"
     borderopacity="1.0"
     inkscape:showpageshadow="2"
     inkscape:pageopacity="0.0"
     inkscape:pagecheckerboard="0"
     inkscape:deskcolor="#d1d1d1"
     inkscape:document-units="mm"
     showgrid="true"
     inkscape:zoom="1.4324916"
     inkscape:cx="820.5982"
     inkscape:cy="427.57669"
     inkscape:window-width="1920"
     inkscape:window-height="991"
     inkscape:window-x="-9"
     inkscape:window-y="-9"
     inkscape:window-maximized="1"
     inkscape:current-layer="layer1"><inkscape:grid
       type="axonomgrid"
       id="grid1326"
       snapvisiblegridlinesonly="false"
       units="px"
       spacingy="2.6458333"
       originx="169.33333"
       originy="95.25" /></sodipodi:namedview><defs
     id="defs2" /><g
     inkscape:label="Layer 1"
     inkscape:groupmode="layer"
     id="layer1"
     transform="translate(-185.43643,-96.75647)"><g
       aria-label="But I didn't want
 a career in 
my major
(finance)."
       transform="matrix(0.73449373,0.41549397,-1.0977617,0.74049186,0,0)"
       id="text678"
       style="font-size:3.78408px;font-family:'Nunito Sans';-inkscape-font-specification:'Nunito Sans, Normal';stroke-width:0.0645239"><path
         d="m 257.24121,-11.278918 q -0.037,-0.0092 -0.0499,-0.02772 -0.0129,-0.02032 -0.0129,-0.04434 0,-0.0055 0,-0.0074 0.002,-0.0018 0.002,-0.0074 0.0148,-0.199551 0.0314,-0.417579 0.0185,-0.219876 0.0388,-0.445295 0.0203,-0.227266 0.0406,-0.452685 0.0203,-0.225419 0.0407,-0.437904 h -0.002 q -0.007,0 -0.0425,0.01293 -0.0333,0.01109 -0.0776,0.02587 -0.0425,0.01293 -0.0868,0.02402 -0.0443,0.01109 -0.0721,0.01109 -0.024,0 -0.0351,-0.01848 -0.009,-0.01848 -0.009,-0.04065 0,-0.01663 0.006,-0.03141 0.0499,-0.14412 0.10347,-0.269763 0.0536,-0.125644 0.10716,-0.258678 0.14043,-0.07575 0.29194,-0.131186 0.15151,-0.05728 0.30487,-0.09423 0.1552,-0.0388 0.30856,-0.05728 0.15336,-0.02032 0.29748,-0.02032 0.2014,0 0.37878,0.0425 0.17923,0.0425 0.31041,0.129339 0.13304,0.08499 0.20879,0.21618 0.0776,0.129339 0.0776,0.30487 0,0.07575 -0.0333,0.145968 -0.0333,0.07021 -0.0868,0.134882 -0.0517,0.06282 -0.11641,0.118252 -0.0647,0.05358 -0.12749,0.09793 0.0887,0.06467 0.1589,0.118252 0.0721,0.05174 0.12195,0.109015 0.0499,0.05728 0.0758,0.129338 0.0259,0.07021 0.0259,0.171836 0,0.155206 -0.0554,0.297479 -0.0536,0.140425 -0.14966,0.262373 -0.0942,0.1201 -0.22542,0.218028 -0.12934,0.09793 -0.2827,0.16814 -0.15151,0.06837 -0.3215,0.105318 -0.16814,0.0388 -0.33997,0.0388 -0.0628,0 -0.16814,-0.01293 -0.10532,-0.01293 -0.22173,-0.03141 -0.11455,-0.01663 -0.22726,-0.0388 -0.11086,-0.02033 -0.18662,-0.03695 z m 0.85179,-2.026922 q -0.0351,0.218028 -0.0591,0.443447 -0.024,0.223571 -0.0425,0.436056 -0.0166,0.210637 -0.0296,0.40095 -0.0129,0.190313 -0.0259,0.339976 0.0739,0 0.1589,-0.0074 0.0869,-0.0092 0.17184,-0.02956 0.085,-0.02032 0.16445,-0.05174 0.0813,-0.03326 0.14227,-0.0813 0.061,-0.04804 0.0979,-0.112709 0.0369,-0.06652 0.0369,-0.151511 0,-0.05174 -0.0314,-0.09054 -0.0314,-0.04065 -0.0813,-0.06836 -0.048,-0.02956 -0.10717,-0.04804 -0.0591,-0.02032 -0.1164,-0.03141 -0.0554,-0.01293 -0.10347,-0.01848 -0.0462,-0.0074 -0.0702,-0.01109 -0.0259,-0.0037 -0.0333,-0.01848 -0.007,-0.01478 -0.007,-0.03695 0,-0.02402 0.0296,-0.07206 0.0296,-0.04804 0.0813,-0.131187 l 0.0776,-0.123795 q 0.0499,-0.01848 0.10717,-0.04619 0.0591,-0.02772 0.10901,-0.06282 0.0499,-0.03695 0.0831,-0.0813 0.0333,-0.04619 0.0333,-0.09977 0,-0.151511 -0.0665,-0.230962 -0.0647,-0.0813 -0.18847,-0.0813 -0.14042,0 -0.33073,0.06652 z"
         style="-inkscape-font-specification:'Carter One'"
         id="path3413" /><path
         d="m 261.59253,-11.484012 q -0.006,0.06097 -0.0148,0.08499 -0.009,0.02217 -0.0406,0.02956 -0.15705,0.04434 -0.32889,0.09054 -0.16999,0.04435 -0.33074,0.118252 -0.006,0.0018 -0.0166,0.0018 -0.0148,0 -0.0185,-0.0074 -0.002,-0.0074 -0.002,-0.01663 0,-0.0037 0,-0.01293 0.002,-0.0092 0.006,-0.03511 0.004,-0.02402 0.009,-0.06837 0.007,-0.04434 0.0185,-0.118252 -0.20694,0.134881 -0.36769,0.195855 -0.1589,0.06282 -0.2827,0.06282 -0.30857,0 -0.45084,-0.147816 -0.14042,-0.149663 -0.14042,-0.445294 0,-0.05358 0.002,-0.109014 0.002,-0.05728 0.0111,-0.116405 0.0203,-0.218028 0.0351,-0.373234 0.0148,-0.157055 0.024,-0.266069 0.009,-0.109014 0.0148,-0.177378 0.007,-0.07021 0.0111,-0.116405 0.006,-0.04619 0.007,-0.07576 0.004,-0.03141 0.007,-0.06097 0.007,-0.05913 0.0129,-0.08315 0.007,-0.02402 0.0425,-0.03141 0.0868,-0.01663 0.16444,-0.02956 0.0794,-0.01478 0.15521,-0.02956 0.0776,-0.01663 0.15705,-0.03511 0.0795,-0.01848 0.16814,-0.04434 0.004,0 0.007,0 0.004,-0.0018 0.007,-0.0018 0.0222,0 0.0222,0.01478 v 0.0037 q -0.007,0.06282 -0.0129,0.118253 -0.006,0.05543 -0.0111,0.114557 -0.006,0.05728 -0.0129,0.123796 -0.006,0.06652 -0.0148,0.155206 -0.009,0.08684 -0.0222,0.201399 -0.0129,0.114557 -0.0314,0.266068 -0.0111,0.110862 -0.0222,0.221723 -0.0111,0.109014 -0.0111,0.203247 0,0.05174 0.007,0.09608 0.007,0.0425 0.0259,0.07391 0.0203,0.02956 0.0517,0.04619 0.0314,0.01663 0.0813,0.01663 0.0388,0 0.10532,-0.01663 0.0665,-0.01848 0.13304,-0.06097 0.0665,-0.04434 0.1164,-0.114557 0.0517,-0.07206 0.0591,-0.181074 0.0129,-0.182922 0.0222,-0.30487 0.0111,-0.123795 0.0185,-0.206942 0.007,-0.08499 0.0129,-0.142272 0.006,-0.05728 0.009,-0.109014 0.006,-0.05358 0.009,-0.11271 0.004,-0.06097 0.007,-0.151511 0.006,-0.06097 0.0129,-0.08315 0.009,-0.02402 0.0425,-0.03141 0.16814,-0.03326 0.34367,-0.06652 0.17553,-0.03511 0.34367,-0.08869 0.0148,0 0.0166,0.0055 0.004,0.0037 0.004,0.01293 z"
         style="-inkscape-font-specification:'Carter One'"
         id="path3415" /><path
         d="m 263.00048,-12.679471 q -0.0259,0.194008 -0.0499,0.388016 -0.0222,0.19216 -0.0277,0.3603 0,0.07206 0.0111,0.120101 0.0111,0.04804 0.0314,0.07576 0.0222,0.02772 0.0517,0.04065 0.0296,0.01109 0.0665,0.01109 0.0591,0 0.12934,-0.01663 0.0702,-0.01848 0.14043,-0.04619 0.0222,-0.0092 0.0369,-0.01293 0.0166,-0.0055 0.0277,-0.0055 0.0185,0 0.024,0.01663 0.007,0.01663 0.0129,0.05913 0.007,0.04065 0.0203,0.110861 0.0129,0.07021 0.0425,0.177379 0.002,0.0092 0.002,0.01663 0.002,0.0055 0.002,0.01109 0,0.02587 -0.0203,0.03695 -0.0185,0.01109 -0.0628,0.02587 -0.0758,0.02587 -0.16075,0.05358 -0.0831,0.02587 -0.16629,0.04804 -0.0813,0.02217 -0.15706,0.03511 -0.0757,0.01478 -0.13303,0.01478 -0.30857,0 -0.45084,-0.153359 -0.14042,-0.153358 -0.14042,-0.467467 0,-0.05358 0.004,-0.109014 0.004,-0.05728 0.009,-0.118252 0.0185,-0.18477 0.0314,-0.349214 0.0148,-0.166293 0.0296,-0.317804 h -0.194 q -0.0998,0 -0.14412,-0.0074 -0.0444,-0.0092 -0.0444,-0.03511 0,-0.0074 0.0185,-0.0388 0.0185,-0.03326 0.0462,-0.0776 0.0296,-0.04619 0.0628,-0.09793 0.0333,-0.05173 0.0628,-0.09608 0.0314,-0.04619 0.0536,-0.07945 0.0222,-0.03326 0.0277,-0.04065 h 0.13119 q 0.0166,-0.140425 0.0259,-0.234657 0.0111,-0.09608 0.0166,-0.158902 0.007,-0.06282 0.0129,-0.09608 0.006,-0.03511 0.0111,-0.05174 0.007,-0.01663 0.0166,-0.02032 0.0111,-0.0055 0.0277,-0.0092 0.0831,-0.01663 0.16075,-0.02956 0.0776,-0.01478 0.15521,-0.02956 0.0776,-0.01478 0.15705,-0.03326 0.0813,-0.02032 0.16814,-0.04619 0.006,0 0.007,0 0.002,-0.0018 0.007,-0.0018 0.0222,0 0.0222,0.01478 v 0.0037 q -0.009,0.101623 -0.0296,0.282698 -0.0185,0.181074 -0.0425,0.410188 h 0.49518 q 0.0148,0 0.0277,0.01109 0.0148,0.0092 0.0148,0.03326 0,0.0092 -0.0222,0.06652 -0.0222,0.05728 -0.0628,0.149663 l -0.0665,0.149663 q -0.0129,0.02772 -0.0277,0.04065 -0.0129,0.01293 -0.0554,0.01663 z"
         style="-inkscape-font-specification:'Carter One'"
         id="path3417" /><path
         d="m 264.57841,-11.195772 0.0924,-1.263823 q 0.0462,-0.635608 0.0684,-0.933087 0.0222,-0.297479 0.0222,-0.295631 0.002,-0.03326 0.004,-0.05543 0.002,-0.02217 0.007,-0.03695 0.006,-0.01478 0.0148,-0.02217 0.009,-0.0074 0.0277,-0.01109 l 0.63931,-0.153359 q 0.024,-0.0074 0.0499,-0.0074 0.0259,0 0.0351,0.01663 0.009,0.01478 0.009,0.06282 -0.0129,0.114557 -0.0203,0.214333 -0.007,0.09978 -0.0129,0.190313 -0.004,0.09054 -0.007,0.175531 -0.004,0.08315 -0.009,0.166292 -0.0111,0.09054 -0.0203,0.181074 -0.007,0.09054 -0.0148,0.188465 -0.007,0.09608 -0.0166,0.205094 -0.007,0.107167 -0.0185,0.234658 l -0.0813,0.973735 q -0.002,0.01663 -0.007,0.03326 -0.004,0.01478 -0.024,0.02402 -0.002,0 -0.0222,0.0074 -0.0203,0.0074 -0.0536,0.02032 -0.0333,0.01109 -0.0776,0.02402 -0.0444,0.01293 -0.0942,0.02402 -0.0832,0.01848 -0.14597,0.03695 -0.061,0.01848 -0.10902,0.03326 -0.048,0.01663 -0.0887,0.02587 -0.0406,0.0092 -0.0813,0.0092 -0.0277,0 -0.0462,-0.01478 -0.0185,-0.01478 -0.0185,-0.05358 z"
         style="-inkscape-font-specification:'Carter One'"
         id="path3419" /><path
         d="m 267.98925,-12.306237 q 0.006,-0.05913 0.0111,-0.123795 0.007,-0.06467 0.0166,-0.134882 -0.0425,-0.110862 -0.1201,-0.179227 -0.0776,-0.07021 -0.19401,-0.07021 -0.11456,0 -0.19401,0.06652 -0.0795,0.06467 -0.12749,0.16075 -0.048,0.09608 -0.0702,0.203246 -0.0203,0.105319 -0.0203,0.186617 0,0.09978 0.0111,0.197704 0.0129,0.09793 0.0388,0.177378 0.0277,0.07945 0.0721,0.129339 0.0443,0.04804 0.11086,0.04804 0.1626,-0.0055 0.26422,-0.07391 0.10163,-0.06836 0.1626,-0.166292 z m 0.64485,0.864722 q 0,0.0037 -0.002,0.0092 0,0.0037 0,0.0074 0,0.0092 0,0.01478 0.002,0.0055 0.002,0.01109 0,0.01663 -0.0129,0.02772 -0.0111,0.0092 -0.061,0.02217 l -0.49518,0.16075 q -0.0203,0.0074 -0.0536,0.01848 -0.0333,0.01109 -0.0647,0.01109 -0.0259,0 -0.0462,-0.01293 -0.0185,-0.01293 -0.0185,-0.04804 0,-0.03326 0,-0.05358 0.002,-0.02032 0.002,-0.03695 0.002,-0.01848 0.004,-0.0388 0.004,-0.02032 0.007,-0.05358 -0.13858,0.110862 -0.28639,0.177379 -0.14597,0.06652 -0.30857,0.06652 -0.17738,0 -0.31595,-0.08499 -0.13673,-0.08315 -0.23096,-0.223571 -0.0942,-0.142273 -0.14412,-0.323347 -0.048,-0.182922 -0.048,-0.380625 0,-0.25683 0.0831,-0.467467 0.085,-0.212485 0.22912,-0.362148 0.14412,-0.151511 0.33628,-0.23281 0.19216,-0.08315 0.40834,-0.08315 0.1164,0 0.22172,0.06097 0.10717,0.06097 0.2014,0.157054 0.006,-0.09054 0.0129,-0.195856 0.007,-0.107166 0.0148,-0.21618 0.007,-0.110862 0.0148,-0.218028 0.007,-0.107166 0.0129,-0.195856 0,-0.01663 0.0111,-0.02587 0.0129,-0.01109 0.0628,-0.02402 l 0.5192,-0.123795 q 0.0203,-0.0037 0.0536,-0.01663 0.0333,-0.01293 0.0647,-0.01293 0.024,0 0.0444,0.01109 0.0222,0.01109 0.0222,0.0425 0,0.0037 -0.002,0.01663 0,0.01109 0,0.01478 z"
         style="-inkscape-font-specification:'Carter One'"
         id="path3421" /><path
         d="m 269.09417,-12.038321 q 0.024,-0.253134 0.048,-0.500725 0.024,-0.247591 0.0425,-0.508117 0.004,-0.06097 0.0111,-0.08315 0.009,-0.02402 0.0425,-0.03141 0.15705,-0.03141 0.32888,-0.06467 0.17184,-0.03511 0.33259,-0.08869 0.006,-0.0018 0.0166,-0.0018 0.0203,0 0.0203,0.01478 l -0.16629,1.799655 q -0.006,0.06097 -0.0129,0.08499 -0.007,0.02217 -0.0406,0.02956 -0.15706,0.04804 -0.31781,0.107166 -0.16074,0.05913 -0.33997,0.1201 -0.006,0.0018 -0.0166,0.0018 -0.0203,0 -0.0203,-0.01848 0,-0.0018 0.004,-0.04989 0.004,-0.04804 0.009,-0.123795 0.007,-0.07576 0.0148,-0.169988 0.007,-0.09423 0.0148,-0.188465 0.009,-0.09423 0.0166,-0.181074 0.007,-0.08684 0.0129,-0.147816 z m 0.13858,-1.474461 q 0.006,-0.07945 0.007,-0.121948 0.004,-0.0425 0.006,-0.06282 0.002,-0.02217 0.002,-0.02772 0,-0.0055 0,-0.0074 0.002,-0.0037 0.002,-0.01109 0.002,-0.0092 0.004,-0.03511 0.002,-0.02772 0.006,-0.07945 0.004,-0.05173 0.0111,-0.142272 0.004,-0.06097 0.0111,-0.08315 0.009,-0.02402 0.0425,-0.03141 0.15705,-0.03141 0.32889,-0.06467 0.17183,-0.03511 0.33258,-0.08869 0.006,-0.0018 0.0166,-0.0018 0.006,0.01109 0.0148,0.01478 l 0.006,0.0037 -0.0407,0.506269 q -0.006,0.06097 -0.0148,0.08499 -0.007,0.02402 -0.0388,0.02956 -0.15706,0.02956 -0.31781,0.06467 -0.16075,0.03511 -0.33997,0.07021 -0.006,0.0018 -0.0166,0.0018 -0.0203,0 -0.0203,-0.01848 z"
         style="-inkscape-font-specification:'Carter One'"
         id="path3423" /><path
         d="m 271.57563,-12.306237 q 0.006,-0.05913 0.0111,-0.123795 0.007,-0.06467 0.0166,-0.134882 -0.0425,-0.110862 -0.1201,-0.179227 -0.0776,-0.07021 -0.19401,-0.07021 -0.11456,0 -0.19401,0.06652 -0.0795,0.06467 -0.12749,0.16075 -0.048,0.09608 -0.0702,0.203246 -0.0203,0.105319 -0.0203,0.186617 0,0.09978 0.0111,0.197704 0.0129,0.09793 0.0388,0.177378 0.0277,0.07945 0.0721,0.129339 0.0443,0.04804 0.11086,0.04804 0.1626,-0.0055 0.26422,-0.07391 0.10162,-0.06836 0.1626,-0.166292 z m 0.64485,0.864722 q 0,0.0037 -0.002,0.0092 0,0.0037 0,0.0074 0,0.0092 0,0.01478 0.002,0.0055 0.002,0.01109 0,0.01663 -0.0129,0.02772 -0.0111,0.0092 -0.061,0.02217 l -0.49518,0.16075 q -0.0203,0.0074 -0.0536,0.01848 -0.0333,0.01109 -0.0647,0.01109 -0.0259,0 -0.0462,-0.01293 -0.0185,-0.01293 -0.0185,-0.04804 0,-0.03326 0,-0.05358 0.002,-0.02032 0.002,-0.03695 0.002,-0.01848 0.004,-0.0388 0.004,-0.02032 0.007,-0.05358 -0.13858,0.110862 -0.2864,0.177379 -0.14596,0.06652 -0.30856,0.06652 -0.17738,0 -0.31596,-0.08499 -0.13673,-0.08315 -0.23096,-0.223571 -0.0942,-0.142273 -0.14412,-0.323347 -0.048,-0.182922 -0.048,-0.380625 0,-0.25683 0.0831,-0.467467 0.085,-0.212485 0.22911,-0.362148 0.14412,-0.151511 0.33628,-0.23281 0.19216,-0.08315 0.40834,-0.08315 0.11641,0 0.22173,0.06097 0.10716,0.06097 0.2014,0.157054 0.006,-0.09054 0.0129,-0.195856 0.007,-0.107166 0.0148,-0.21618 0.007,-0.110862 0.0148,-0.218028 0.007,-0.107166 0.0129,-0.195856 0,-0.01663 0.0111,-0.02587 0.0129,-0.01109 0.0628,-0.02402 l 0.51921,-0.123795 q 0.0203,-0.0037 0.0536,-0.01663 0.0333,-0.01293 0.0647,-0.01293 0.024,0 0.0443,0.01109 0.0222,0.01109 0.0222,0.0425 0,0.0037 -0.002,0.01663 0,0.01109 0,0.01478 z"
         style="-inkscape-font-specification:'Carter One'"
         id="path3425" /><path
         d="m 274.1661,-11.188381 q -0.0203,0.0055 -0.0536,0.01663 -0.0333,0.01293 -0.0647,0.01293 -0.0259,0 -0.0462,-0.01293 -0.0185,-0.01293 -0.0185,-0.04434 v -0.01109 q 0.0111,-0.09977 0.0185,-0.16814 0.007,-0.07021 0.0129,-0.125643 0.007,-0.05728 0.0111,-0.11271 0.006,-0.05728 0.0129,-0.131186 0.007,-0.07575 0.0166,-0.177379 0.0111,-0.103471 0.0259,-0.256829 0.009,-0.09423 0.0166,-0.192161 0.007,-0.09793 0.007,-0.181074 0,-0.05543 -0.009,-0.101623 -0.007,-0.04804 -0.0296,-0.0813 -0.0203,-0.03511 -0.0573,-0.05358 -0.037,-0.01848 -0.0942,-0.01848 -0.0425,0 -0.11825,0.01848 -0.0739,0.01848 -0.14782,0.06097 -0.0739,0.0425 -0.13118,0.11271 -0.0573,0.06836 -0.0647,0.169987 -0.0111,0.13673 -0.0203,0.234658 -0.009,0.09608 -0.0166,0.164445 -0.007,0.06652 -0.0129,0.109014 -0.004,0.0425 -0.006,0.07206 -0.002,0.0074 -0.006,0.04065 -0.004,0.03326 -0.009,0.07945 -0.004,0.04619 -0.009,0.09793 -0.004,0.05173 -0.009,0.09793 -0.004,0.04619 -0.007,0.07945 -0.002,0.03326 -0.002,0.04065 0,0.01478 0,0.02587 0.002,0.0092 0.002,0.01848 0,0.01478 -0.0148,0.02587 -0.0129,0.0092 -0.061,0.02217 l -0.48964,0.16814 q -0.0203,0.0074 -0.0536,0.01848 -0.0333,0.01109 -0.0647,0.01109 -0.0259,0 -0.0462,-0.01293 -0.0185,-0.01293 -0.0185,-0.04434 l 0.16814,-1.888345 q 0.006,-0.06097 0.0129,-0.08315 0.009,-0.02402 0.0425,-0.03141 0.16814,-0.03326 0.34552,-0.06652 0.17738,-0.03511 0.34552,-0.08869 0.0148,0 0.0166,0.0055 0.004,0.0037 0.004,0.01293 0,0.0037 -0.002,0.01109 0,0.0074 -0.006,0.03326 -0.004,0.02587 -0.0129,0.07945 -0.007,0.05174 -0.0222,0.145968 0.12749,-0.07391 0.23835,-0.118253 0.11271,-0.04619 0.21064,-0.07021 0.0998,-0.02587 0.18662,-0.03326 0.0868,-0.0092 0.16259,-0.0092 0.26053,0 0.37878,0.158902 0.11825,0.157054 0.11825,0.47301 0,0.04434 -0.002,0.09239 -0.002,0.04619 -0.007,0.09608 l -0.085,0.794509 q -0.009,0.0776 -0.0111,0.14412 -0.002,0.06467 -0.002,0.151511 0,0.01478 0,0.02587 0.002,0.0092 0.002,0.01663 0,0.01663 -0.0148,0.02587 -0.0129,0.0092 -0.061,0.02402 z"
         style="-inkscape-font-specification:'Carter One'"
         id="path3427" /><path
         d="m 275.18972,-12.703491 q -0.0129,-0.260525 -0.024,-0.546918 -0.0111,-0.286393 -0.024,-0.565395 v -0.02402 q 0,-0.04804 0.0111,-0.06467 0.0111,-0.01848 0.0425,-0.02402 0.0887,0 0.18477,0 0.0961,-0.0018 0.19216,-0.0018 0.0979,0 0.19217,0 0.0942,-0.0018 0.17922,-0.0018 0.0166,0 0.0277,0.0092 0.0111,0.0092 0.0111,0.03511 v 0.01109 l -0.28824,1.176982 q -0.007,0.02956 -0.0129,0.05174 -0.004,0.02032 -0.0111,0.03326 -0.006,0.01293 -0.0166,0.02032 -0.009,0.0055 -0.0259,0.0055 -0.0998,0 -0.19401,0.0018 -0.0942,0.0018 -0.2051,0.0018 -0.0148,0 -0.0222,-0.01478 -0.007,-0.01478 -0.0111,-0.03326 -0.004,-0.02032 -0.006,-0.04065 0,-0.02032 0,-0.02956 z"
         style="-inkscape-font-specification:'Carter One'"
         id="path3429" /><path
         d="m 277.05035,-12.679471 q -0.0259,0.194008 -0.0499,0.388016 -0.0222,0.19216 -0.0277,0.3603 0,0.07206 0.0111,0.120101 0.0111,0.04804 0.0314,0.07576 0.0222,0.02772 0.0517,0.04065 0.0296,0.01109 0.0665,0.01109 0.0591,0 0.12934,-0.01663 0.0702,-0.01848 0.14042,-0.04619 0.0222,-0.0092 0.0369,-0.01293 0.0166,-0.0055 0.0277,-0.0055 0.0185,0 0.024,0.01663 0.007,0.01663 0.0129,0.05913 0.007,0.04065 0.0203,0.110861 0.0129,0.07021 0.0425,0.177379 0.002,0.0092 0.002,0.01663 0.002,0.0055 0.002,0.01109 0,0.02587 -0.0203,0.03695 -0.0185,0.01109 -0.0628,0.02587 -0.0757,0.02587 -0.16074,0.05358 -0.0832,0.02587 -0.1663,0.04804 -0.0813,0.02217 -0.15705,0.03511 -0.0758,0.01478 -0.13304,0.01478 -0.30856,0 -0.45083,-0.153359 -0.14043,-0.153358 -0.14043,-0.467467 0,-0.05358 0.004,-0.109014 0.004,-0.05728 0.009,-0.118252 0.0185,-0.18477 0.0314,-0.349214 0.0148,-0.166293 0.0296,-0.317804 h -0.19401 q -0.0998,0 -0.14412,-0.0074 -0.0443,-0.0092 -0.0443,-0.03511 0,-0.0074 0.0185,-0.0388 0.0185,-0.03326 0.0462,-0.0776 0.0296,-0.04619 0.0628,-0.09793 0.0333,-0.05173 0.0628,-0.09608 0.0314,-0.04619 0.0536,-0.07945 0.0222,-0.03326 0.0277,-0.04065 h 0.13118 q 0.0166,-0.140425 0.0259,-0.234657 0.0111,-0.09608 0.0166,-0.158902 0.007,-0.06282 0.0129,-0.09608 0.006,-0.03511 0.0111,-0.05174 0.007,-0.01663 0.0166,-0.02032 0.0111,-0.0055 0.0277,-0.0092 0.0831,-0.01663 0.16075,-0.02956 0.0776,-0.01478 0.1552,-0.02956 0.0776,-0.01478 0.15706,-0.03326 0.0813,-0.02032 0.16814,-0.04619 0.006,0 0.007,0 0.002,-0.0018 0.007,-0.0018 0.0222,0 0.0222,0.01478 v 0.0037 q -0.009,0.101623 -0.0296,0.282698 -0.0185,0.181074 -0.0425,0.410188 h 0.49518 q 0.0148,0 0.0277,0.01109 0.0148,0.0092 0.0148,0.03326 0,0.0092 -0.0222,0.06652 -0.0222,0.05728 -0.0628,0.149663 l -0.0665,0.149663 q -0.0129,0.02772 -0.0277,0.04065 -0.0129,0.01293 -0.0554,0.01663 z"
         style="-inkscape-font-specification:'Carter One'"
         id="path3431" /><path
         d="m 279.74244,-13.135852 q 0.006,-0.02032 0.0314,-0.02587 0.14967,-0.03326 0.30672,-0.06836 0.15706,-0.03511 0.30118,-0.08684 0.0259,0 0.0259,0.01848 l 0.18847,1.260128 0.35291,-1.260128 q 0.007,-0.01848 0.0277,-0.01848 0.006,0 0.007,0.0018 0.002,0 0.007,0 0.13857,0.05358 0.28454,0.08869 0.14597,0.03326 0.29009,0.06467 0.0351,0.0074 0.0351,0.04065 0,0.02402 -0.0222,0.07391 l -0.59495,1.648145 q -0.0148,0.03141 -0.0259,0.05358 -0.0111,0.02032 -0.0222,0.03326 -0.0111,0.01109 -0.024,0.01848 -0.0129,0.0055 -0.0314,0.0092 -0.14042,0.02956 -0.28454,0.06467 -0.14412,0.03511 -0.29933,0.08869 -0.004,0 -0.006,0 -0.002,0.0018 -0.004,0.0018 h -0.0129 q -0.009,0 -0.0148,-0.0074 -0.006,-0.0055 -0.007,-0.01109 -0.0203,-0.07945 -0.0462,-0.197703 -0.0259,-0.118253 -0.0554,-0.262373 -0.0296,-0.14412 -0.0628,-0.308565 -0.0333,-0.164445 -0.0684,-0.338128 l -0.23466,0.82592 q -0.009,0.03326 -0.0203,0.05543 -0.009,0.02032 -0.0222,0.03326 -0.0129,0.01109 -0.0277,0.01663 -0.0148,0.0055 -0.0333,0.0092 -0.14042,0.02772 -0.28454,0.06282 -0.14413,0.03695 -0.29933,0.09054 -0.004,0 -0.006,0 -0.002,0.0018 -0.004,0.0018 h -0.0129 q -0.009,0 -0.0166,-0.0074 -0.006,-0.0055 -0.006,-0.01109 -0.0259,-0.0813 -0.0591,-0.205094 -0.0333,-0.125643 -0.0721,-0.279002 -0.037,-0.155206 -0.0776,-0.330738 -0.0407,-0.175531 -0.0831,-0.356605 -0.0425,-0.181074 -0.085,-0.358453 -0.0406,-0.179226 -0.0794,-0.339976 -0.0129,-0.02956 -0.0148,-0.04804 -0.002,-0.02032 -0.002,-0.03326 0,-0.02587 0.0296,-0.03326 0.14412,-0.03141 0.29932,-0.06467 0.15521,-0.03511 0.29379,-0.08869 0.006,-0.0018 0.0166,-0.0018 0.024,0 0.0259,0.01848 l 0.20695,1.278605 z"
         style="-inkscape-font-specification:'Carter One'"
         id="path3433" /><path
         d="m 283.57826,-11.626285 q -0.002,0.0074 -0.002,0.01478 0,0.0055 0,0.01109 0,0.04619 0.0148,0.0776 0.0148,0.02956 0.0314,0.04989 0.0185,0.01848 0.0333,0.03141 0.0148,0.01109 0.0148,0.02032 0,0.02587 -0.0554,0.04804 l -0.49703,0.212485 q -0.002,0.0018 -0.0129,0.0018 -0.0148,0 -0.0296,-0.02587 -0.0148,-0.02587 -0.0296,-0.06652 -0.0129,-0.0388 -0.0259,-0.08315 -0.0111,-0.04619 -0.0203,-0.08499 -0.1164,0.134882 -0.25129,0.197703 -0.13488,0.06282 -0.26791,0.06282 -0.15521,0 -0.30302,-0.06837 -0.14782,-0.06836 -0.26238,-0.194008 -0.11455,-0.127491 -0.18477,-0.306717 -0.0684,-0.179227 -0.0684,-0.402798 0,-0.26422 0.0758,-0.482248 0.0776,-0.218028 0.20878,-0.375082 0.13119,-0.157054 0.30487,-0.242048 0.17554,-0.08684 0.37139,-0.08684 0.13858,0 0.26237,0.05728 0.1238,0.05543 0.23466,0.144121 0.0111,-0.05543 0.0129,-0.08869 0.002,-0.03326 0.007,-0.05174 0.007,-0.01848 0.0259,-0.02402 0.0185,-0.0074 0.061,-0.01109 0.13303,-0.01848 0.26422,-0.03326 0.13303,-0.01663 0.27715,-0.02402 z m -0.55246,-0.696581 q 0.0185,-0.105319 0.024,-0.197703 0.007,-0.09423 0.0111,-0.171836 -0.0296,-0.02217 -0.0647,-0.04619 -0.0333,-0.02402 -0.0739,-0.04434 -0.0388,-0.02217 -0.0831,-0.03511 -0.0425,-0.01293 -0.0905,-0.01293 -0.0998,0 -0.16814,0.06467 -0.0665,0.06467 -0.10901,0.158902 -0.0407,0.09423 -0.0591,0.199551 -0.0166,0.105319 -0.0166,0.186617 0,0.291936 0.0758,0.428666 0.0776,0.134881 0.21433,0.134881 0.0554,0 0.1238,-0.03141 0.0684,-0.03141 0.13858,-0.08684 z"
         style="-inkscape-font-specification:'Carter One'"
         id="path3435" /><path
         d="m 285.53127,-11.188381 q -0.0203,0.0055 -0.0536,0.01663 -0.0333,0.01293 -0.0647,0.01293 -0.0259,0 -0.0462,-0.01293 -0.0185,-0.01293 -0.0185,-0.04434 v -0.01109 q 0.0111,-0.09977 0.0185,-0.16814 0.007,-0.07021 0.0129,-0.125643 0.007,-0.05728 0.0111,-0.11271 0.006,-0.05728 0.0129,-0.131186 0.007,-0.07575 0.0166,-0.177379 0.0111,-0.103471 0.0259,-0.256829 0.009,-0.09423 0.0166,-0.192161 0.007,-0.09793 0.007,-0.181074 0,-0.05543 -0.009,-0.101623 -0.007,-0.04804 -0.0296,-0.0813 -0.0203,-0.03511 -0.0573,-0.05358 -0.0369,-0.01848 -0.0942,-0.01848 -0.0425,0 -0.11826,0.01848 -0.0739,0.01848 -0.14781,0.06097 -0.0739,0.0425 -0.13119,0.11271 -0.0573,0.06836 -0.0647,0.169987 -0.0111,0.13673 -0.0203,0.234658 -0.009,0.09608 -0.0166,0.164445 -0.007,0.06652 -0.0129,0.109014 -0.004,0.0425 -0.006,0.07206 -0.002,0.0074 -0.006,0.04065 -0.004,0.03326 -0.009,0.07945 -0.004,0.04619 -0.009,0.09793 -0.004,0.05173 -0.009,0.09793 -0.004,0.04619 -0.007,0.07945 -0.002,0.03326 -0.002,0.04065 0,0.01478 0,0.02587 0.002,0.0092 0.002,0.01848 0,0.01478 -0.0148,0.02587 -0.0129,0.0092 -0.061,0.02217 l -0.48964,0.16814 q -0.0203,0.0074 -0.0536,0.01848 -0.0333,0.01109 -0.0647,0.01109 -0.0259,0 -0.0462,-0.01293 -0.0185,-0.01293 -0.0185,-0.04434 l 0.16814,-1.888345 q 0.006,-0.06097 0.0129,-0.08315 0.009,-0.02402 0.0425,-0.03141 0.16814,-0.03326 0.34552,-0.06652 0.17738,-0.03511 0.34552,-0.08869 0.0148,0 0.0166,0.0055 0.004,0.0037 0.004,0.01293 0,0.0037 -0.002,0.01109 0,0.0074 -0.006,0.03326 -0.004,0.02587 -0.0129,0.07945 -0.007,0.05174 -0.0222,0.145968 0.12749,-0.07391 0.23836,-0.118253 0.11271,-0.04619 0.21063,-0.07021 0.0998,-0.02587 0.18662,-0.03326 0.0868,-0.0092 0.1626,-0.0092 0.26052,0 0.37877,0.158902 0.11826,0.157054 0.11826,0.47301 0,0.04434 -0.002,0.09239 -0.002,0.04619 -0.007,0.09608 l -0.085,0.794509 q -0.009,0.0776 -0.0111,0.14412 -0.002,0.06467 -0.002,0.151511 0,0.01478 0,0.02587 0.002,0.0092 0.002,0.01663 0,0.01663 -0.0148,0.02587 -0.0129,0.0092 -0.061,0.02402 z"
         style="-inkscape-font-specification:'Carter One'"
         id="path3437" /><path
         d="m 287.43625,-12.679471 q -0.0259,0.194008 -0.0499,0.388016 -0.0222,0.19216 -0.0277,0.3603 0,0.07206 0.0111,0.120101 0.0111,0.04804 0.0314,0.07576 0.0222,0.02772 0.0517,0.04065 0.0296,0.01109 0.0665,0.01109 0.0591,0 0.12934,-0.01663 0.0702,-0.01848 0.14043,-0.04619 0.0222,-0.0092 0.037,-0.01293 0.0166,-0.0055 0.0277,-0.0055 0.0185,0 0.024,0.01663 0.007,0.01663 0.0129,0.05913 0.007,0.04065 0.0203,0.110861 0.0129,0.07021 0.0425,0.177379 0.002,0.0092 0.002,0.01663 0.002,0.0055 0.002,0.01109 0,0.02587 -0.0203,0.03695 -0.0185,0.01109 -0.0628,0.02587 -0.0757,0.02587 -0.16075,0.05358 -0.0831,0.02587 -0.16629,0.04804 -0.0813,0.02217 -0.15705,0.03511 -0.0758,0.01478 -0.13304,0.01478 -0.30856,0 -0.45084,-0.153359 -0.14042,-0.153358 -0.14042,-0.467467 0,-0.05358 0.004,-0.109014 0.004,-0.05728 0.009,-0.118252 0.0185,-0.18477 0.0314,-0.349214 0.0148,-0.166293 0.0296,-0.317804 h -0.19401 q -0.0998,0 -0.14412,-0.0074 -0.0444,-0.0092 -0.0444,-0.03511 0,-0.0074 0.0185,-0.0388 0.0185,-0.03326 0.0462,-0.0776 0.0296,-0.04619 0.0628,-0.09793 0.0333,-0.05173 0.0628,-0.09608 0.0314,-0.04619 0.0536,-0.07945 0.0222,-0.03326 0.0277,-0.04065 h 0.13119 q 0.0166,-0.140425 0.0259,-0.234657 0.0111,-0.09608 0.0166,-0.158902 0.007,-0.06282 0.0129,-0.09608 0.006,-0.03511 0.0111,-0.05174 0.007,-0.01663 0.0166,-0.02032 0.0111,-0.0055 0.0277,-0.0092 0.0831,-0.01663 0.16075,-0.02956 0.0776,-0.01478 0.15521,-0.02956 0.0776,-0.01478 0.15705,-0.03326 0.0813,-0.02032 0.16814,-0.04619 0.006,0 0.007,0 0.002,-0.0018 0.007,-0.0018 0.0222,0 0.0222,0.01478 v 0.0037 q -0.009,0.101623 -0.0296,0.282698 -0.0185,0.181074 -0.0425,0.410188 h 0.49518 q 0.0148,0 0.0277,0.01109 0.0148,0.0092 0.0148,0.03326 0,0.0092 -0.0222,0.06652 -0.0222,0.05728 -0.0628,0.149663 l -0.0665,0.149663 q -0.0129,0.02772 -0.0277,0.04065 -0.0129,0.01293 -0.0554,0.01663 z"
         style="-inkscape-font-specification:'Carter One'"
         id="path3439" /><path
         d="m 259.69495,-6.807699 q -0.002,0.00739 -0.002,0.014782 0,0.00554 0,0.011086 0,0.046192 0.0148,0.077603 0.0148,0.029563 0.0314,0.049888 0.0185,0.018477 0.0333,0.031411 0.0148,0.011086 0.0148,0.020325 0,0.025868 -0.0554,0.04804 l -0.49703,0.2124849 q -0.002,0.00185 -0.0129,0.00185 -0.0148,0 -0.0296,-0.025868 -0.0148,-0.025868 -0.0296,-0.066517 -0.0129,-0.038802 -0.0259,-0.083146 -0.0111,-0.046192 -0.0203,-0.084994 -0.1164,0.1348817 -0.25129,0.1977034 -0.13488,0.062822 -0.26791,0.062822 -0.15521,0 -0.30302,-0.068365 -0.14782,-0.068365 -0.26238,-0.194008 -0.11455,-0.127491 -0.18477,-0.3067174 -0.0684,-0.1792265 -0.0684,-0.4027976 0,-0.2642204 0.0758,-0.4822485 0.0776,-0.218028 0.20879,-0.3750821 0.13119,-0.1570542 0.30487,-0.2420481 0.17553,-0.086842 0.37139,-0.086842 0.13858,0 0.26237,0.057278 0.1238,0.055431 0.23466,0.1441203 0.0111,-0.055431 0.0129,-0.088689 0.002,-0.033259 0.007,-0.051736 0.007,-0.018477 0.0259,-0.02402 0.0185,-0.00739 0.061,-0.011086 0.13303,-0.018477 0.26422,-0.033259 0.13303,-0.016629 0.27715,-0.02402 z m -0.55246,-0.6965811 q 0.0185,-0.1053187 0.024,-0.1977034 0.007,-0.094233 0.0111,-0.1718357 -0.0296,-0.022172 -0.0647,-0.046192 -0.0332,-0.02402 -0.0739,-0.044345 -0.0388,-0.022172 -0.0831,-0.035106 -0.0425,-0.012934 -0.0905,-0.012934 -0.0998,0 -0.16814,0.064669 -0.0665,0.064669 -0.10901,0.1589018 -0.0407,0.094232 -0.0591,0.1995511 -0.0166,0.1053186 -0.0166,0.1866172 0,0.2919359 0.0758,0.4286653 0.0776,0.1348818 0.21433,0.1348818 0.0554,0 0.1238,-0.031411 0.0684,-0.031411 0.13857,-0.086842 z"
         style="-inkscape-font-specification:'Carter One'"
         id="path3441" /><path
         d="m 260.89041,-7.3379876 q 0,-0.242048 0.0887,-0.4526853 0.0905,-0.212485 0.24759,-0.3695391 0.1589,-0.1570541 0.37323,-0.2475911 0.21618,-0.090537 0.46932,-0.090537 0.17183,0 0.29378,0.027715 0.12195,0.027715 0.19955,0.062822 0.0776,0.033259 0.11271,0.062822 0.037,0.027715 0.037,0.029563 0,0.011086 -0.009,0.062822 -0.007,0.049888 -0.0185,0.1182525 -0.009,0.066517 -0.0185,0.1385771 -0.007,0.070212 -0.007,0.1219479 0,0.00924 -0.006,0.020325 -0.006,0.011086 -0.0296,0.011086 -0.0222,0 -0.0647,-0.014781 -0.0425,-0.016629 -0.10532,-0.035106 -0.061,-0.018477 -0.14227,-0.033259 -0.0795,-0.016629 -0.17738,-0.016629 -0.12195,0 -0.21988,0.044345 -0.0979,0.042497 -0.16814,0.1201002 -0.0702,0.075756 -0.10901,0.1810741 -0.037,0.1053186 -0.037,0.2272665 0,0.127491 0.0388,0.2180281 0.0407,0.088689 0.10717,0.1459679 0.0665,0.055431 0.15336,0.081299 0.0868,0.025868 0.18292,0.025868 0.11086,0 0.22357,-0.029563 0.11271,-0.031411 0.21249,-0.086842 0.004,-0.00185 0.0148,-0.00185 0.009,0 0.0129,0.00924 0.006,0.00924 0.006,0.035106 0,0.059126 0,0.1441203 0,0.083146 -0.002,0.1607495 0,0.075756 -0.002,0.1293386 -0.002,0.053583 -0.004,0.053583 -0.0665,0.044345 -0.14412,0.07206 -0.0776,0.027715 -0.16075,0.044345 -0.0813,0.016629 -0.16445,0.022172 -0.0831,0.00554 -0.16075,0.00554 -0.21618,0 -0.4028,-0.07206 -0.18661,-0.07206 -0.32519,-0.2032465 -0.13673,-0.1311863 -0.21618,-0.3141082 -0.0795,-0.1847695 -0.0795,-0.4083407 z"
         style="-inkscape-font-specification:'Carter One'"
         id="path3443" /><path
         d="m 264.73916,-6.807699 q -0.002,0.00739 -0.002,0.014782 0,0.00554 0,0.011086 0,0.046192 0.0148,0.077603 0.0148,0.029563 0.0314,0.049888 0.0185,0.018477 0.0333,0.031411 0.0148,0.011086 0.0148,0.020325 0,0.025868 -0.0554,0.04804 l -0.49703,0.2124849 q -0.002,0.00185 -0.0129,0.00185 -0.0148,0 -0.0296,-0.025868 -0.0148,-0.025868 -0.0296,-0.066517 -0.0129,-0.038802 -0.0259,-0.083146 -0.0111,-0.046192 -0.0203,-0.084994 -0.11641,0.1348817 -0.25129,0.1977034 -0.13488,0.062822 -0.26791,0.062822 -0.15521,0 -0.30303,-0.068365 -0.14781,-0.068365 -0.26237,-0.194008 -0.11456,-0.127491 -0.18477,-0.3067174 -0.0684,-0.1792265 -0.0684,-0.4027976 0,-0.2642204 0.0757,-0.4822485 0.0776,-0.218028 0.20879,-0.3750821 0.13119,-0.1570542 0.30487,-0.2420481 0.17553,-0.086842 0.37139,-0.086842 0.13858,0 0.26237,0.057278 0.1238,0.055431 0.23466,0.1441203 0.0111,-0.055431 0.0129,-0.088689 0.002,-0.033259 0.007,-0.051736 0.007,-0.018477 0.0259,-0.02402 0.0185,-0.00739 0.061,-0.011086 0.13304,-0.018477 0.26423,-0.033259 0.13303,-0.016629 0.27715,-0.02402 z m -0.55246,-0.6965811 q 0.0185,-0.1053187 0.024,-0.1977034 0.007,-0.094233 0.0111,-0.1718357 -0.0296,-0.022172 -0.0647,-0.046192 -0.0333,-0.02402 -0.0739,-0.044345 -0.0388,-0.022172 -0.0831,-0.035106 -0.0425,-0.012934 -0.0905,-0.012934 -0.0998,0 -0.16814,0.064669 -0.0665,0.064669 -0.10901,0.1589018 -0.0406,0.094232 -0.0591,0.1995511 -0.0166,0.1053186 -0.0166,0.1866172 0,0.2919359 0.0758,0.4286653 0.0776,0.1348818 0.21433,0.1348818 0.0554,0 0.1238,-0.031411 0.0684,-0.031411 0.13857,-0.086842 z"
         style="-inkscape-font-specification:'Carter One'"
         id="path3445" /><path
         d="m 266.67,-7.9403362 q -0.0388,-0.0037 -0.0868,-0.00739 -0.048,-0.00554 -0.10163,-0.00554 -0.0813,0 -0.16629,0.014782 -0.0831,0.012934 -0.1552,0.053583 -0.0721,0.040649 -0.1238,0.1127094 -0.0517,0.070213 -0.0665,0.1829219 -0.0129,0.1367294 -0.0222,0.2254188 -0.007,0.086842 -0.0111,0.1441202 -0.004,0.055431 -0.007,0.090537 -0.002,0.033258 -0.004,0.062822 0,0.00739 -0.004,0.040649 -0.002,0.033258 -0.007,0.077603 -0.006,0.044345 -0.0111,0.09608 -0.004,0.051736 -0.009,0.09608 -0.006,0.044345 -0.009,0.077603 -0.002,0.033258 -0.002,0.040649 0,0.014782 0,0.025868 0.002,0.00924 0.002,0.018477 0,0.014781 -0.0148,0.025868 -0.0129,0.00924 -0.061,0.022172 l -0.48964,0.1755311 q -0.0203,0.00739 -0.0536,0.018477 -0.0333,0.011086 -0.0647,0.011086 -0.0259,0 -0.0462,-0.012934 -0.0185,-0.012934 -0.0185,-0.044345 l 0.1589,-1.8310661 q 0.006,-0.060974 0.0129,-0.083146 0.009,-0.02402 0.0425,-0.031411 0.16815,-0.033258 0.34737,-0.066517 0.17923,-0.035106 0.34737,-0.088689 0.0148,0 0.0166,0.00554 0.004,0.0037 0.004,0.012934 0,0.0037 -0.002,0.011086 0,0.00739 -0.006,0.033259 -0.004,0.025868 -0.0129,0.079451 -0.007,0.051736 -0.0222,0.145968 0.085,-0.066517 0.18661,-0.1219479 0.10347,-0.055431 0.20694,-0.094233 0.10348,-0.040649 0.19956,-0.062822 0.0961,-0.02402 0.16814,-0.02402 z"
         style="-inkscape-font-specification:'Carter One'"
         id="path3447" /><path
         d="m 267.89133,-8.4983402 q 0.17553,0 0.3178,0.066517 0.14412,0.064669 0.24574,0.169988 0.10347,0.1034709 0.1589,0.2328096 0.0554,0.1293387 0.0554,0.2586773 0,0.1145572 -0.0702,0.230962 -0.0702,0.1145571 -0.1977,0.2069418 -0.12564,0.092385 -0.30302,0.1496634 -0.17738,0.057278 -0.38987,0.057278 -0.11086,0 -0.23281,-0.022172 0.007,0.079451 0.0462,0.1367294 0.0388,0.057279 0.0979,0.094233 0.0591,0.036954 0.13304,0.055431 0.0758,0.016629 0.1552,0.016629 0.0887,0 0.16999,-0.014782 0.0831,-0.016629 0.1589,-0.042497 0.0758,-0.025868 0.14597,-0.057278 0.0702,-0.031411 0.13304,-0.062822 0.0166,-0.0037 0.0277,-0.00554 0.0129,-0.0037 0.024,-0.0037 0,0 -0.002,0.029563 0,0.029563 0,0.083146 0,0.053583 -0.002,0.1293387 0,0.075755 -0.002,0.1681402 0.006,0.00924 0.007,0.018477 0.002,0.00924 0.002,0.014782 0,0.022172 -0.0407,0.04804 -0.0406,0.025868 -0.10717,0.053583 -0.0647,0.027715 -0.14966,0.053583 -0.0831,0.025868 -0.16999,0.046192 -0.0868,0.022172 -0.16814,0.033259 -0.0813,0.012934 -0.14227,0.012934 -0.19955,0 -0.38802,-0.070212 -0.18662,-0.068365 -0.33258,-0.1977034 -0.14412,-0.1293387 -0.23097,-0.3141082 -0.0868,-0.1847695 -0.0868,-0.4157315 0,-0.242048 0.0831,-0.4526853 0.0831,-0.212485 0.23281,-0.3695391 0.15151,-0.1570541 0.3603,-0.2475911 0.20879,-0.090537 0.46008,-0.090537 z m -0.0222,0.4914869 q -0.0757,0 -0.14042,0.033259 -0.0628,0.031411 -0.11641,0.092385 -0.0517,0.059126 -0.0905,0.1441203 -0.0388,0.083146 -0.0628,0.1847695 0.19032,-0.033259 0.31596,-0.070212 0.12564,-0.036954 0.2014,-0.073908 0.0758,-0.038802 0.10717,-0.075756 0.0314,-0.038802 0.0314,-0.073908 0,-0.033259 -0.0259,-0.062822 -0.024,-0.029563 -0.061,-0.051735 -0.0369,-0.022172 -0.0813,-0.033259 -0.0425,-0.012934 -0.0776,-0.012934 z"
         style="-inkscape-font-specification:'Carter One'"
         id="path3449" /><path
         d="m 270.00139,-8.4983402 q 0.17553,0 0.31781,0.066517 0.14412,0.064669 0.24574,0.169988 0.10347,0.1034709 0.1589,0.2328096 0.0554,0.1293387 0.0554,0.2586773 0,0.1145572 -0.0702,0.230962 -0.0702,0.1145571 -0.1977,0.2069418 -0.12565,0.092385 -0.30302,0.1496634 -0.17738,0.057278 -0.38987,0.057278 -0.11086,0 -0.23281,-0.022172 0.007,0.079451 0.0462,0.1367294 0.0388,0.057279 0.0979,0.094233 0.0591,0.036954 0.13304,0.055431 0.0758,0.016629 0.1552,0.016629 0.0887,0 0.16999,-0.014782 0.0831,-0.016629 0.1589,-0.042497 0.0758,-0.025868 0.14597,-0.057278 0.0702,-0.031411 0.13303,-0.062822 0.0166,-0.0037 0.0277,-0.00554 0.0129,-0.0037 0.024,-0.0037 0,0 -0.002,0.029563 0,0.029563 0,0.083146 0,0.053583 -0.002,0.1293387 0,0.075755 -0.002,0.1681402 0.006,0.00924 0.007,0.018477 0.002,0.00924 0.002,0.014782 0,0.022172 -0.0407,0.04804 -0.0406,0.025868 -0.10717,0.053583 -0.0647,0.027715 -0.14966,0.053583 -0.0831,0.025868 -0.16999,0.046192 -0.0868,0.022172 -0.16814,0.033259 -0.0813,0.012934 -0.14227,0.012934 -0.19956,0 -0.38802,-0.070212 -0.18662,-0.068365 -0.33259,-0.1977034 -0.14412,-0.1293387 -0.23096,-0.3141082 -0.0868,-0.1847695 -0.0868,-0.4157315 0,-0.242048 0.0831,-0.4526853 0.0831,-0.212485 0.23281,-0.3695391 0.15151,-0.1570541 0.3603,-0.2475911 0.20879,-0.090537 0.46007,-0.090537 z m -0.0222,0.4914869 q -0.0757,0 -0.14042,0.033259 -0.0628,0.031411 -0.11641,0.092385 -0.0517,0.059126 -0.0905,0.1441203 -0.0388,0.083146 -0.0628,0.1847695 0.19032,-0.033259 0.31596,-0.070212 0.12564,-0.036954 0.2014,-0.073908 0.0758,-0.038802 0.10716,-0.075756 0.0314,-0.038802 0.0314,-0.073908 0,-0.033259 -0.0259,-0.062822 -0.024,-0.029563 -0.061,-0.051735 -0.0369,-0.022172 -0.0813,-0.033259 -0.0425,-0.012934 -0.0776,-0.012934 z"
         style="-inkscape-font-specification:'Carter One'"
         id="path3451" /><path
         d="m 272.52165,-7.9403362 q -0.0388,-0.0037 -0.0868,-0.00739 -0.048,-0.00554 -0.10163,-0.00554 -0.0813,0 -0.16629,0.014782 -0.0831,0.012934 -0.1552,0.053583 -0.0721,0.040649 -0.1238,0.1127094 -0.0517,0.070213 -0.0665,0.1829219 -0.0129,0.1367294 -0.0222,0.2254188 -0.007,0.086842 -0.0111,0.1441202 -0.004,0.055431 -0.007,0.090537 -0.002,0.033258 -0.004,0.062822 0,0.00739 -0.004,0.040649 -0.002,0.033258 -0.007,0.077603 -0.006,0.044345 -0.0111,0.09608 -0.004,0.051736 -0.009,0.09608 -0.006,0.044345 -0.009,0.077603 -0.002,0.033258 -0.002,0.040649 0,0.014782 0,0.025868 0.002,0.00924 0.002,0.018477 0,0.014781 -0.0148,0.025868 -0.0129,0.00924 -0.061,0.022172 l -0.48964,0.1755311 q -0.0203,0.00739 -0.0536,0.018477 -0.0333,0.011086 -0.0647,0.011086 -0.0259,0 -0.0462,-0.012934 -0.0185,-0.012934 -0.0185,-0.044345 l 0.1589,-1.8310661 q 0.006,-0.060974 0.0129,-0.083146 0.009,-0.02402 0.0425,-0.031411 0.16814,-0.033258 0.34736,-0.066517 0.17923,-0.035106 0.34737,-0.088689 0.0148,0 0.0166,0.00554 0.004,0.0037 0.004,0.012934 0,0.0037 -0.002,0.011086 0,0.00739 -0.006,0.033259 -0.004,0.025868 -0.0129,0.079451 -0.007,0.051736 -0.0222,0.145968 0.085,-0.066517 0.18661,-0.1219479 0.10347,-0.055431 0.20695,-0.094233 0.10347,-0.040649 0.19955,-0.062822 0.0961,-0.02402 0.16814,-0.02402 z"
         style="-inkscape-font-specification:'Carter One'"
         id="path3453" /><path
         d="m 273.54158,-7.2197351 q 0.024,-0.2531342 0.048,-0.5007254 0.024,-0.2475912 0.0425,-0.5081162 0.004,-0.060974 0.0111,-0.083146 0.009,-0.02402 0.0425,-0.031411 0.15705,-0.031411 0.32889,-0.064669 0.17183,-0.035106 0.33258,-0.088689 0.006,-0.00185 0.0166,-0.00185 0.0203,0 0.0203,0.014781 l -0.1663,1.7996553 q -0.006,0.060974 -0.0129,0.084994 -0.007,0.022172 -0.0407,0.029563 -0.15705,0.04804 -0.3178,0.1071663 -0.16075,0.059126 -0.33998,0.1201002 -0.006,0.00185 -0.0166,0.00185 -0.0203,0 -0.0203,-0.018477 0,-0.00185 0.004,-0.049888 0.004,-0.04804 0.009,-0.1237956 0.007,-0.075755 0.0148,-0.169988 0.007,-0.094232 0.0148,-0.1884649 0.009,-0.094232 0.0166,-0.1810741 0.007,-0.086842 0.0129,-0.1478157 z m 0.13858,-1.4744608 q 0.006,-0.079451 0.007,-0.1219479 0.004,-0.042497 0.006,-0.062822 0.002,-0.022172 0.002,-0.027715 0,-0.00554 0,-0.00739 0.002,-0.0037 0.002,-0.011086 0.002,-0.00924 0.004,-0.035106 0.002,-0.027715 0.006,-0.079451 0.004,-0.051735 0.0111,-0.1422726 0.004,-0.060974 0.0111,-0.083146 0.009,-0.02402 0.0425,-0.031411 0.15706,-0.031411 0.32889,-0.064669 0.17184,-0.035106 0.33259,-0.088689 0.006,-0.00185 0.0166,-0.00185 0.006,0.011086 0.0148,0.014782 l 0.006,0.0037 -0.0406,0.5062686 q -0.006,0.060974 -0.0148,0.084994 -0.007,0.02402 -0.0388,0.029563 -0.15706,0.029563 -0.31781,0.064669 -0.16074,0.035106 -0.33997,0.070212 -0.006,0.00185 -0.0166,0.00185 -0.0203,0 -0.0203,-0.018477 z"
         style="-inkscape-font-specification:'Carter One'"
         id="path3455" /><path
         d="m 276.15791,-6.3697952 q -0.0203,0.00554 -0.0536,0.016629 -0.0333,0.012934 -0.0647,0.012934 -0.0259,0 -0.0462,-0.012934 -0.0185,-0.012934 -0.0185,-0.044345 v -0.011086 q 0.0111,-0.099776 0.0185,-0.1681403 0.007,-0.070212 0.0129,-0.1256433 0.007,-0.057278 0.0111,-0.1127094 0.006,-0.057278 0.0129,-0.1311863 0.007,-0.075756 0.0166,-0.1773788 0.0111,-0.1034709 0.0259,-0.2568296 0.009,-0.094233 0.0166,-0.1921604 0.007,-0.097928 0.007,-0.1810741 0,-0.055431 -0.009,-0.1016232 -0.007,-0.04804 -0.0296,-0.081299 -0.0203,-0.035106 -0.0573,-0.053583 -0.0369,-0.018477 -0.0942,-0.018477 -0.0425,0 -0.11826,0.018477 -0.0739,0.018477 -0.14781,0.060974 -0.0739,0.042497 -0.13119,0.1127095 -0.0573,0.068365 -0.0647,0.1699879 -0.0111,0.1367295 -0.0203,0.2346573 -0.009,0.09608 -0.0166,0.1644449 -0.007,0.066517 -0.0129,0.109014 -0.004,0.042497 -0.006,0.07206 -0.002,0.00739 -0.006,0.040649 -0.004,0.033258 -0.009,0.079451 -0.004,0.046192 -0.009,0.097928 -0.004,0.051735 -0.009,0.097928 -0.004,0.046192 -0.007,0.079451 -0.002,0.033258 -0.002,0.040649 0,0.014781 0,0.025868 0.002,0.00924 0.002,0.018477 0,0.014782 -0.0148,0.025868 -0.0129,0.00924 -0.061,0.022172 l -0.48964,0.1681403 q -0.0203,0.00739 -0.0536,0.018477 -0.0333,0.011086 -0.0647,0.011086 -0.0259,0 -0.0462,-0.012934 -0.0185,-0.012934 -0.0185,-0.044345 l 0.16814,-1.8883447 q 0.006,-0.060974 0.0129,-0.083146 0.009,-0.02402 0.0425,-0.031411 0.16814,-0.033258 0.34552,-0.066517 0.17738,-0.035106 0.34552,-0.088689 0.0148,0 0.0166,0.00554 0.004,0.0037 0.004,0.012934 0,0.0037 -0.002,0.011086 0,0.00739 -0.006,0.033258 -0.004,0.025868 -0.0129,0.079451 -0.007,0.051735 -0.0222,0.1459679 0.12749,-0.073908 0.23836,-0.1182525 0.11271,-0.046192 0.21063,-0.070212 0.0998,-0.025868 0.18662,-0.033259 0.0868,-0.00924 0.1626,-0.00924 0.26052,0 0.37878,0.1589018 0.11825,0.1570541 0.11825,0.47301 0,0.044345 -0.002,0.092385 -0.002,0.046192 -0.007,0.09608 l -0.085,0.794509 q -0.009,0.077603 -0.0111,0.1441202 -0.002,0.064669 -0.002,0.1515111 0,0.014781 0,0.025868 0.002,0.00924 0.002,0.016629 0,0.016629 -0.0148,0.025868 -0.0129,0.00924 -0.061,0.02402 z"
         style="-inkscape-font-specification:'Carter One'"
         id="path3457" /><path
         d="m 259.68386,-1.5512094 q -0.0203,0.00554 -0.0536,0.016629 -0.0333,0.012934 -0.0647,0.012934 -0.0259,0 -0.0462,-0.012934 -0.0185,-0.012934 -0.0185,-0.044345 v -0.011086 q 0.0129,-0.1348817 0.0222,-0.218028 0.009,-0.084994 0.0148,-0.1367295 0.006,-0.051735 0.009,-0.077603 0.004,-0.027715 0.007,-0.049888 0.004,-0.02402 0.006,-0.051735 0.004,-0.027715 0.009,-0.077603 0.006,-0.051735 0.0129,-0.1348818 0.009,-0.084994 0.0222,-0.2217234 0.007,-0.073908 0.0148,-0.1459679 0.009,-0.073908 0.009,-0.1348818 0,-0.077603 -0.009,-0.1404248 -0.007,-0.064669 -0.0296,-0.1090141 -0.0203,-0.046192 -0.0573,-0.07206 -0.0369,-0.025868 -0.0942,-0.025868 -0.0351,0 -0.0924,0.014782 -0.0554,0.014782 -0.1127,0.053583 -0.0573,0.036954 -0.10348,0.099776 -0.0462,0.060974 -0.0591,0.1552064 v 0.00739 q -0.0222,0.2106373 -0.0406,0.3658437 -0.0166,0.1533587 -0.0296,0.2642204 -0.0129,0.1108618 -0.0222,0.1847696 -0.007,0.073908 -0.0129,0.1256433 -0.006,0.049888 -0.009,0.083146 -0.002,0.033259 -0.002,0.062822 0,0.014782 0,0.025868 0.002,0.00924 0.002,0.016629 0,0.014782 -0.0148,0.025868 -0.0129,0.00924 -0.061,0.02402 l -0.43421,0.1256432 q -0.0203,0.00554 -0.0536,0.016629 -0.0333,0.012934 -0.0647,0.012934 -0.0259,0 -0.0462,-0.012934 -0.0185,-0.012934 -0.0185,-0.044345 v -0.011086 q 0.0129,-0.1348817 0.0203,-0.218028 0.009,-0.084994 0.0148,-0.1367295 0.007,-0.051735 0.0111,-0.077603 0.004,-0.027715 0.006,-0.049888 0.004,-0.02402 0.007,-0.051735 0.004,-0.027715 0.007,-0.077603 0.006,-0.051735 0.0129,-0.1348818 0.009,-0.084994 0.0222,-0.2217234 0.007,-0.073908 0.0148,-0.1459679 0.009,-0.073908 0.009,-0.1348818 0,-0.077603 -0.007,-0.1404248 -0.007,-0.064669 -0.0277,-0.1090141 -0.0185,-0.046192 -0.0517,-0.07206 -0.0333,-0.025868 -0.085,-0.025868 -0.0369,0 -0.10162,0.018477 -0.0628,0.018477 -0.12749,0.060974 -0.0628,0.042497 -0.11271,0.1127094 -0.048,0.068365 -0.0554,0.169988 -0.0148,0.1367294 -0.024,0.2254188 -0.009,0.086842 -0.0148,0.1441202 -0.006,0.055431 -0.009,0.090537 -0.002,0.033259 -0.004,0.062822 -0.002,0.00739 -0.006,0.042497 -0.004,0.033259 -0.009,0.081299 -0.004,0.046192 -0.009,0.1016233 -0.004,0.053583 -0.007,0.1016232 -0.004,0.046192 -0.007,0.081299 -0.002,0.033258 -0.002,0.040649 v 0.033259 q 0,0.018477 -0.002,0.031411 -0.002,0.012934 -0.0111,0.02402 -0.009,0.011086 -0.0277,0.020325 -0.0166,0.00924 -0.048,0.020325 l -0.48409,0.1718356 q -0.0203,0.00739 -0.0536,0.018477 -0.0333,0.011086 -0.0647,0.011086 -0.0259,0 -0.0462,-0.012934 -0.0185,-0.012934 -0.0185,-0.044345 l 0.16629,-1.8846492 q 0.006,-0.060974 0.0129,-0.083146 0.009,-0.02402 0.0425,-0.031411 0.16814,-0.033259 0.34367,-0.066517 0.17553,-0.035106 0.34367,-0.088689 0.0148,0 0.0166,0.00554 0.004,0.0037 0.004,0.012934 l -0.024,0.2697635 q 0.0684,-0.035106 0.15336,-0.075756 0.085,-0.042497 0.17737,-0.077603 0.0942,-0.035106 0.19032,-0.057279 0.0979,-0.02402 0.19031,-0.02402 0.12749,0 0.23466,0.059126 0.10901,0.057278 0.17922,0.1921603 0.0832,-0.053583 0.17553,-0.099776 0.0942,-0.046192 0.19032,-0.079451 0.0979,-0.033259 0.19585,-0.051735 0.0979,-0.018477 0.19032,-0.018477 0.1164,0 0.21987,0.033259 0.10347,0.033259 0.17923,0.1090141 0.0776,0.075755 0.12195,0.1977034 0.0443,0.1201002 0.0443,0.2937835 0,0.044345 -0.002,0.092385 -0.002,0.046192 -0.007,0.09608 l -0.085,0.7908136 q -0.009,0.077603 -0.0111,0.1441203 -0.002,0.064669 -0.002,0.151511 0,0.014782 0,0.025868 0.002,0.00924 0.002,0.016629 0,0.016629 -0.0148,0.025868 -0.0129,0.00924 -0.061,0.02402 z"
         style="-inkscape-font-specification:'Carter One'"
         id="path3459" /><path
         d="m 261.35233,-0.77517732 q -0.004,0.007391 -0.009,0.0110862 -0.004,0.005543 -0.0148,0.005543 -0.0111,0 -0.0166,-0.001848 -0.0665,-0.02402 -0.12564,-0.0406493 -0.0591,-0.0166293 -0.11825,-0.0314108 -0.0573,-0.0129339 -0.11826,-0.0258677 -0.061,-0.0110862 -0.12933,-0.0258677 -0.0185,-0.003695 -0.0296,-0.0129339 -0.009,-0.007391 -0.009,-0.0277154 0,-0.005543 0.006,-0.0277154 0.007,-0.0203246 0.0333,-0.0868417 0.0259,-0.064669 0.0795,-0.1903126 0.0536,-0.1237956 0.14781,-0.3344328 -0.0277,-0.092385 -0.0628,-0.2217235 -0.0351,-0.1293386 -0.0758,-0.2826974 -0.0388,-0.1533587 -0.0813,-0.3233466 -0.0425,-0.1718357 -0.0868,-0.3455191 -0.0425,-0.175531 -0.0868,-0.345519 -0.0425,-0.1718357 -0.0831,-0.3270421 -0.0129,-0.029563 -0.0148,-0.04804 -0.002,-0.020325 -0.002,-0.033259 0,-0.025868 0.0296,-0.033258 0.14412,-0.031411 0.29933,-0.064669 0.1552,-0.035106 0.29378,-0.088689 0.006,-0.00185 0.0166,-0.00185 0.024,0 0.0259,0.018477 l 0.22542,1.2416512 q 0.007,-0.022172 0.0277,-0.079451 0.0222,-0.059126 0.0499,-0.1404248 0.0296,-0.081299 0.0647,-0.1792265 0.0351,-0.097928 0.0721,-0.199551 0.037,-0.1016233 0.0721,-0.2013988 0.0369,-0.1016233 0.0684,-0.188465 0.0314,-0.086842 0.0536,-0.1533587 0.024,-0.066517 0.0369,-0.099775 0.007,-0.018477 0.0277,-0.018477 0.006,0 0.007,0.00185 0.002,0 0.007,0 0.13858,0.053583 0.28454,0.088689 0.14597,0.033259 0.29009,0.064669 0.0351,0.00739 0.0351,0.040649 0,0.02402 -0.0222,0.073908 l -0.76126,1.7202044 z"
         style="-inkscape-font-specification:'Carter One'"
         id="path3461" /><path
         d="m 266.14525,-1.5512094 q -0.0203,0.00554 -0.0536,0.016629 -0.0333,0.012934 -0.0647,0.012934 -0.0259,0 -0.0462,-0.012934 -0.0185,-0.012934 -0.0185,-0.044345 v -0.011086 q 0.0129,-0.1348817 0.0222,-0.218028 0.009,-0.084994 0.0148,-0.1367295 0.006,-0.051735 0.009,-0.077603 0.004,-0.027715 0.007,-0.049888 0.004,-0.02402 0.006,-0.051735 0.004,-0.027715 0.009,-0.077603 0.006,-0.051735 0.0129,-0.1348818 0.009,-0.084994 0.0222,-0.2217234 0.007,-0.073908 0.0148,-0.1459679 0.009,-0.073908 0.009,-0.1348818 0,-0.077603 -0.009,-0.1404248 -0.007,-0.064669 -0.0296,-0.1090141 -0.0203,-0.046192 -0.0573,-0.07206 -0.0369,-0.025868 -0.0942,-0.025868 -0.0351,0 -0.0924,0.014782 -0.0554,0.014782 -0.11271,0.053583 -0.0573,0.036954 -0.10348,0.099776 -0.0462,0.060974 -0.0591,0.1552064 v 0.00739 q -0.0222,0.2106373 -0.0406,0.3658437 -0.0166,0.1533587 -0.0296,0.2642204 -0.0129,0.1108618 -0.0222,0.1847696 -0.007,0.073908 -0.0129,0.1256433 -0.006,0.049888 -0.009,0.083146 -0.002,0.033259 -0.002,0.062822 0,0.014782 0,0.025868 0.002,0.00924 0.002,0.016629 0,0.014782 -0.0148,0.025868 -0.0129,0.00924 -0.061,0.02402 l -0.43421,0.1256432 q -0.0203,0.00554 -0.0536,0.016629 -0.0332,0.012934 -0.0647,0.012934 -0.0259,0 -0.0462,-0.012934 -0.0185,-0.012934 -0.0185,-0.044345 v -0.011086 q 0.0129,-0.1348817 0.0203,-0.218028 0.009,-0.084994 0.0148,-0.1367295 0.007,-0.051735 0.0111,-0.077603 0.004,-0.027715 0.006,-0.049888 0.004,-0.02402 0.007,-0.051735 0.004,-0.027715 0.007,-0.077603 0.006,-0.051735 0.0129,-0.1348818 0.009,-0.084994 0.0222,-0.2217234 0.007,-0.073908 0.0148,-0.1459679 0.009,-0.073908 0.009,-0.1348818 0,-0.077603 -0.007,-0.1404248 -0.007,-0.064669 -0.0277,-0.1090141 -0.0185,-0.046192 -0.0517,-0.07206 -0.0333,-0.025868 -0.085,-0.025868 -0.0369,0 -0.10162,0.018477 -0.0628,0.018477 -0.12749,0.060974 -0.0628,0.042497 -0.11271,0.1127094 -0.048,0.068365 -0.0554,0.169988 -0.0148,0.1367294 -0.024,0.2254188 -0.009,0.086842 -0.0148,0.1441202 -0.006,0.055431 -0.009,0.090537 -0.002,0.033259 -0.004,0.062822 -0.002,0.00739 -0.006,0.042497 -0.004,0.033259 -0.009,0.081299 -0.004,0.046192 -0.009,0.1016233 -0.004,0.053583 -0.007,0.1016232 -0.004,0.046192 -0.007,0.081299 -0.002,0.033258 -0.002,0.040649 v 0.033259 q 0,0.018477 -0.002,0.031411 -0.002,0.012934 -0.0111,0.02402 -0.009,0.011086 -0.0277,0.020325 -0.0166,0.00924 -0.048,0.020325 l -0.48409,0.1718356 q -0.0203,0.00739 -0.0536,0.018477 -0.0333,0.011086 -0.0647,0.011086 -0.0259,0 -0.0462,-0.012934 -0.0185,-0.012934 -0.0185,-0.044345 l 0.16629,-1.8846492 q 0.006,-0.060974 0.0129,-0.083146 0.009,-0.02402 0.0425,-0.031411 0.16814,-0.033259 0.34367,-0.066517 0.17553,-0.035106 0.34367,-0.088689 0.0148,0 0.0166,0.00554 0.004,0.0037 0.004,0.012934 l -0.024,0.2697635 q 0.0684,-0.035106 0.15336,-0.075756 0.085,-0.042497 0.17737,-0.077603 0.0942,-0.035106 0.19032,-0.057279 0.0979,-0.02402 0.19031,-0.02402 0.12749,0 0.23466,0.059126 0.10901,0.057278 0.17922,0.1921603 0.0831,-0.053583 0.17553,-0.099776 0.0942,-0.046192 0.19032,-0.079451 0.0979,-0.033259 0.19585,-0.051735 0.0979,-0.018477 0.19032,-0.018477 0.1164,0 0.21987,0.033259 0.10347,0.033259 0.17923,0.1090141 0.0776,0.075755 0.12195,0.1977034 0.0443,0.1201002 0.0443,0.2937835 0,0.044345 -0.002,0.092385 -0.002,0.046192 -0.007,0.09608 l -0.085,0.7908136 q -0.009,0.077603 -0.0111,0.1441203 -0.002,0.064669 -0.002,0.151511 0,0.014782 0,0.025868 0.002,0.00924 0.002,0.016629 0,0.016629 -0.0148,0.025868 -0.0129,0.00924 -0.061,0.02402 z"
         style="-inkscape-font-specification:'Carter One'"
         id="path3463" /><path
         d="m 268.94636,-1.9891132 q -0.002,0.00739 -0.002,0.014782 0,0.00554 0,0.011086 0,0.046192 0.0148,0.077603 0.0148,0.029563 0.0314,0.049888 0.0185,0.018477 0.0333,0.031411 0.0148,0.011086 0.0148,0.020325 0,0.025868 -0.0554,0.04804 l -0.49703,0.212485 q -0.002,0.00185 -0.0129,0.00185 -0.0148,0 -0.0296,-0.025868 -0.0148,-0.025868 -0.0296,-0.066517 -0.0129,-0.038802 -0.0259,-0.083146 -0.0111,-0.046192 -0.0203,-0.084994 -0.1164,0.1348818 -0.25129,0.1977034 -0.13488,0.062822 -0.26791,0.062822 -0.15521,0 -0.30302,-0.068365 -0.14782,-0.068365 -0.26238,-0.194008 -0.11455,-0.1274909 -0.18477,-0.3067174 -0.0684,-0.1792264 -0.0684,-0.4027976 0,-0.2642204 0.0758,-0.4822485 0.0776,-0.218028 0.20878,-0.3750821 0.13119,-0.1570541 0.30487,-0.2420481 0.17554,-0.086842 0.37139,-0.086842 0.13858,0 0.26237,0.057279 0.1238,0.055431 0.23466,0.1441202 0.0111,-0.055431 0.0129,-0.088689 0.002,-0.033259 0.007,-0.051735 0.007,-0.018477 0.0259,-0.02402 0.0185,-0.00739 0.061,-0.011086 0.13303,-0.018477 0.26422,-0.033259 0.13303,-0.016629 0.27715,-0.02402 z m -0.55246,-0.6965811 q 0.0185,-0.1053186 0.024,-0.1977034 0.007,-0.094232 0.0111,-0.1718357 -0.0296,-0.022172 -0.0647,-0.046192 -0.0333,-0.02402 -0.0739,-0.044345 -0.0388,-0.022172 -0.0831,-0.035106 -0.0425,-0.012934 -0.0905,-0.012934 -0.0998,0 -0.16814,0.064669 -0.0665,0.064669 -0.10901,0.1589018 -0.0406,0.094232 -0.0591,0.1995511 -0.0166,0.1053187 -0.0166,0.1866173 0,0.2919358 0.0758,0.4286653 0.0776,0.1348817 0.21433,0.1348817 0.0554,0 0.1238,-0.031411 0.0684,-0.031411 0.13858,-0.086842 z"
         style="-inkscape-font-specification:'Carter One'"
         id="path3465" /><path
         d="m 269.55795,-3.8756101 q 0.006,-0.079451 0.007,-0.1219479 0.004,-0.042497 0.006,-0.062822 0.002,-0.022172 0.002,-0.027715 0,-0.00554 0,-0.00739 0.002,-0.0037 0.002,-0.011086 0.002,-0.00924 0.004,-0.035106 0.002,-0.027715 0.006,-0.079451 0.004,-0.051736 0.0111,-0.1422725 0.004,-0.060974 0.0111,-0.083146 0.009,-0.02402 0.0425,-0.031411 0.15706,-0.031411 0.32889,-0.064669 0.17184,-0.035106 0.33259,-0.088689 0.006,-0.00185 0.0166,-0.00185 0.006,0.011086 0.0148,0.014782 l 0.006,0.0037 -0.0406,0.5062685 q -0.006,0.060974 -0.0148,0.084994 -0.007,0.02402 -0.0388,0.029563 -0.15705,0.029563 -0.3178,0.064669 -0.16075,0.035106 -0.33998,0.070212 -0.006,0.00185 -0.0166,0.00185 -0.0203,0 -0.0203,-0.018477 z m -0.2051,2.0934388 q 0.0166,-0.1478156 0.037,-0.3399759 0.0203,-0.194008 0.0406,-0.4083407 0.0222,-0.2143326 0.0425,-0.4397515 0.0203,-0.2254188 0.037,-0.4397515 0.004,-0.060974 0.0111,-0.083146 0.009,-0.02402 0.0425,-0.031411 0.15705,-0.031411 0.32889,-0.064669 0.17184,-0.035106 0.33258,-0.088689 0.006,-0.00185 0.0166,-0.00185 0.0203,0 0.0203,0.014782 l -0.13673,1.5132625 -0.0369,0.2937835 q -0.048,0.4286653 -0.24575,0.6374549 -0.19585,0.2106373 -0.57094,0.2106373 -0.0351,0 -0.0979,-0.011086 -0.0628,-0.00924 -0.13489,-0.027715 -0.0721,-0.016629 -0.14596,-0.038802 -0.0758,-0.022172 -0.13489,-0.044345 -0.061,-0.022172 -0.0998,-0.044345 -0.0388,-0.020325 -0.0388,-0.036954 0,-0.014782 0.0129,-0.038802 0.0554,-0.1071663 0.085,-0.1773788 0.0277,-0.070212 0.0443,-0.1127094 0.0166,-0.040649 0.0277,-0.057279 0.009,-0.016629 0.0296,-0.016629 0.0166,0 0.0591,0.018477 0.0647,0.025868 0.12934,0.044345 0.0628,0.018477 0.12565,0.018477 0.037,0 0.0721,-0.011086 0.0369,-0.011086 0.0665,-0.040649 0.0296,-0.027715 0.0499,-0.075755 0.0222,-0.04804 0.0314,-0.1200994 z"
         style="-inkscape-font-specification:'Carter One'"
         id="path3467" /><path
         d="m 271.52759,-1.5216462 q -0.26053,0 -0.45823,-0.084994 -0.19585,-0.084994 -0.32889,-0.2254189 -0.13303,-0.1422725 -0.19955,-0.3251943 -0.0665,-0.1847696 -0.0665,-0.382473 0,-0.1977034 0.0647,-0.3750821 0.0647,-0.1792265 0.18108,-0.3196513 0.1164,-0.1422725 0.279,-0.236505 0.1626,-0.09608 0.35845,-0.1293387 0.0296,-0.00185 0.0296,-0.012934 0,-0.020325 -0.006,-0.036954 -0.004,-0.018477 -0.004,-0.031411 0,-0.020325 0.007,-0.027715 0.007,-0.00739 0.0166,-0.00739 0.35291,0 0.6005,0.081299 0.24759,0.079451 0.40279,0.2180281 0.15521,0.1385771 0.22542,0.327042 0.0702,0.188465 0.0702,0.4046453 0,0.2753066 -0.0924,0.491487 -0.0924,0.2161803 -0.25313,0.3658436 -0.1589,0.1496634 -0.37324,0.2272666 -0.21248,0.079451 -0.45453,0.079451 z m -0.34182,-1.0384048 q 0,0.099776 0.0203,0.1977034 0.0222,0.097928 0.0702,0.1773787 0.0499,0.079451 0.12934,0.1293387 0.0795,0.04804 0.19771,0.04804 0.085,-0.0037 0.14781,-0.036954 0.0647,-0.035106 0.11086,-0.088689 0.0462,-0.055431 0.0758,-0.1237956 0.0314,-0.068365 0.048,-0.1404248 0.0185,-0.073908 0.0259,-0.1441203 0.007,-0.070212 0.007,-0.1274909 0,-0.09608 -0.0296,-0.188465 -0.0277,-0.092385 -0.0831,-0.1625971 -0.0554,-0.070213 -0.13858,-0.1127095 -0.0813,-0.044345 -0.18846,-0.044345 -0.11087,0 -0.18662,0.066517 -0.0758,0.064669 -0.12195,0.1607495 -0.0443,0.09608 -0.0647,0.2032465 -0.0203,0.1053186 -0.0203,0.1866172 z"
         style="-inkscape-font-specification:'Carter One'"
         id="path3469" /><path
         d="m 274.4488,-3.1217504 q -0.0388,-0.0037 -0.0869,-0.00739 -0.048,-0.00554 -0.10162,-0.00554 -0.0813,0 -0.16629,0.014782 -0.0831,0.012934 -0.15521,0.053583 -0.0721,0.040649 -0.12379,0.1127094 -0.0517,0.070212 -0.0665,0.1829218 -0.0129,0.1367295 -0.0222,0.2254189 -0.007,0.086842 -0.0111,0.1441202 -0.004,0.055431 -0.007,0.090537 -0.002,0.033259 -0.004,0.062822 0,0.00739 -0.004,0.040649 -0.002,0.033259 -0.007,0.077603 -0.006,0.044345 -0.0111,0.09608 -0.004,0.051735 -0.009,0.09608 -0.006,0.044345 -0.009,0.077603 -0.002,0.033259 -0.002,0.040649 0,0.014782 0,0.025868 0.002,0.00924 0.002,0.018477 0,0.014782 -0.0148,0.025868 -0.0129,0.00924 -0.061,0.022172 l -0.48964,0.175531 q -0.0203,0.00739 -0.0536,0.018477 -0.0333,0.011086 -0.0647,0.011086 -0.0259,0 -0.0462,-0.012934 -0.0185,-0.012934 -0.0185,-0.044345 l 0.1589,-1.8310661 q 0.006,-0.060974 0.0129,-0.083146 0.009,-0.02402 0.0425,-0.031411 0.16814,-0.033259 0.34737,-0.066517 0.17923,-0.035106 0.34737,-0.088689 0.0148,0 0.0166,0.00554 0.004,0.0037 0.004,0.012934 0,0.0037 -0.002,0.011086 0,0.00739 -0.006,0.033259 -0.004,0.025868 -0.0129,0.079451 -0.007,0.051735 -0.0222,0.1459679 0.085,-0.066517 0.18662,-0.1219479 0.10347,-0.055431 0.20694,-0.094232 0.10347,-0.040649 0.19955,-0.062822 0.0961,-0.02402 0.16814,-0.02402 z"
         style="-inkscape-font-specification:'Carter One'"
         id="path3471" /><path
         d="m 258.20201,3.0290238 q -0.0111,0.077603 -0.024,0.1385771 -0.0111,0.059126 -0.024,0.1145571 -0.0129,0.057279 -0.0259,0.1164048 -0.0129,0.059126 -0.0277,0.1367295 -0.007,0.035106 -0.0388,0.035106 -0.004,0 -0.006,-0.00185 -0.002,0 -0.006,0 -0.28824,-0.044345 -0.49518,-0.1681403 -0.20694,-0.1219478 -0.33998,-0.2993266 -0.13303,-0.1792264 -0.19585,-0.4009499 -0.061,-0.2217234 -0.061,-0.4637715 0,-0.109014 0.0166,-0.254982 0.0166,-0.1478156 0.0591,-0.3085651 0.0443,-0.1607495 0.11825,-0.3251944 0.0758,-0.1644448 0.19401,-0.3085651 0.0721,-0.0886894 0.17922,-0.18846491 0.10717,-0.0997756 0.24021,-0.18661723 0.13303,-0.0868417 0.28824,-0.14966332 0.15705,-0.0628216 0.32704,-0.0794509 0.009,0 0.0203,0.0110862 0.0129,0.009238 0.0166,0.0443447 0,0 0.006,0.0591262 0.006,0.0572786 0.0111,0.13857715 0.007,0.0794509 0.0129,0.16629258 0.006,0.0868417 0.006,0.14596793 0,0.031411 -0.0129,0.042497 -0.0129,0.011086 -0.0425,0.020325 -0.14412,0.040649 -0.26607,0.151511 -0.12195,0.109014 -0.21064,0.2623727 -0.0887,0.151511 -0.14042,0.3362806 -0.0499,0.1829218 -0.0499,0.3713867 0,0.1256433 0.024,0.2457435 0.024,0.1201002 0.0758,0.2217234 0.0536,0.1016233 0.13673,0.1773788 0.0831,0.073908 0.19955,0.109014 0.0148,0.0037 0.0259,0.016629 0.0111,0.012934 0.0111,0.044345 0,0.00739 0,0.014781 0,0.00554 -0.002,0.014782 z"
         style="-inkscape-font-specification:'Carter One'"
         id="path3473" /><path
         d="m 258.66024,3.2285749 q 0.002,-0.020325 0.007,-0.086842 0.007,-0.068365 0.0166,-0.1718357 0.009,-0.1034709 0.0203,-0.236505 0.0129,-0.1348817 0.0277,-0.2882404 0.0148,-0.1552064 0.0296,-0.3233467 0.0166,-0.1681403 0.0333,-0.339976 H 258.549 q -0.0998,0 -0.14412,-0.00739 -0.0444,-0.00924 -0.0444,-0.035106 0,-0.00739 0.0185,-0.038802 0.0185,-0.033258 0.0462,-0.077603 0.0296,-0.046192 0.0628,-0.097928 0.0333,-0.051735 0.0628,-0.09608 0.0314,-0.046192 0.0536,-0.079451 0.0222,-0.033259 0.0277,-0.040649 h 0.22542 l 0.037,-0.2937835 q 0.0259,-0.23280964 0.0924,-0.39171143 0.0684,-0.1589018 0.16814,-0.25682965 0.10163,-0.0979279 0.23096,-0.14042485 0.12934,-0.042497 0.27716,-0.042497 0.14781,0 0.30672,0.0369539 0.16075,0.0351062 0.32334,0.0979279 0.0351,0.0147816 0.0517,0.0258677 0.0185,0.009238 0.0185,0.0258677 0,0.0147816 -0.0129,0.0388016 -0.0591,0.11455711 -0.0887,0.18476953 -0.0277,0.0702124 -0.0443,0.11086172 -0.0166,0.0406493 -0.0277,0.0554309 -0.0111,0.0129339 -0.0333,0.0129339 -0.0111,0 -0.024,-0.005543 -0.0111,-0.005543 -0.0277,-0.0129339 -0.0647,-0.02402 -0.13119,-0.042497 -0.0647,-0.0203247 -0.12379,-0.0203247 -0.0831,0 -0.14412,0.0517355 -0.0591,0.0517355 -0.0942,0.19585571 -0.0203,0.0831463 -0.0333,0.17922647 -0.0129,0.09608 -0.0222,0.1903126 h 0.48225 q 0.0148,0 0.0277,0.011086 0.0148,0.00924 0.0148,0.033259 0,0.00924 -0.0222,0.066517 -0.0222,0.057279 -0.0628,0.1496633 l -0.0665,0.1496633 q -0.0129,0.027715 -0.0277,0.040649 -0.0129,0.012934 -0.0554,0.016629 h -0.31965 q -0.0203,0.1921603 -0.0388,0.3806252 -0.0185,0.1884649 -0.0351,0.3547575 -0.0166,0.1644449 -0.0296,0.2937835 -0.0129,0.127491 -0.0203,0.1977034 -0.002,0.00554 -0.002,0.020325 0,0.00739 0,0.012934 0.002,0.00554 0.002,0.00924 0,0.016629 -0.0129,0.027715 -0.0111,0.00924 -0.061,0.022172 l -0.48595,0.1718357 q -0.0203,0.00739 -0.0536,0.018477 -0.0333,0.011086 -0.0647,0.011086 -0.0314,0 -0.048,-0.014782 -0.0166,-0.014781 -0.0166,-0.053583 z"
         style="-inkscape-font-specification:'Carter One'"
         id="path3475" /><path
         d="m 260.18274,2.4174366 q 0.024,-0.2531342 0.048,-0.5007254 0.024,-0.2475912 0.0425,-0.5081162 0.004,-0.060974 0.0111,-0.083146 0.009,-0.02402 0.0425,-0.031411 0.15706,-0.031411 0.32889,-0.064669 0.17184,-0.035106 0.33259,-0.088689 0.006,-0.00185 0.0166,-0.00185 0.0203,0 0.0203,0.014782 L 260.859,2.9532683 q -0.006,0.060974 -0.0129,0.084994 -0.007,0.022172 -0.0407,0.029563 -0.15705,0.04804 -0.3178,0.1071663 -0.16075,0.059126 -0.33998,0.1201002 -0.006,0.00185 -0.0166,0.00185 -0.0203,0 -0.0203,-0.018477 0,-0.00185 0.004,-0.049888 0.004,-0.04804 0.009,-0.1237956 0.007,-0.075756 0.0148,-0.169988 0.007,-0.094232 0.0148,-0.1884649 0.009,-0.094232 0.0166,-0.1810741 0.007,-0.086842 0.0129,-0.1478157 z m 0.13858,-1.47446084 q 0.006,-0.0794509 0.007,-0.12194789 0.004,-0.042497 0.006,-0.0628216 0.002,-0.0221723 0.002,-0.0277154 0,-0.005543 0,-0.007391 0.002,-0.003695 0.002,-0.0110862 0.002,-0.009238 0.004,-0.0351062 0.002,-0.0277154 0.006,-0.0794509 0.004,-0.0517355 0.0111,-0.14227254 0.004,-0.0609739 0.0111,-0.0831463 0.009,-0.02402 0.0425,-0.0314108 0.15706,-0.0314108 0.32889,-0.0646693 0.17184,-0.0351062 0.33259,-0.0886894 0.006,-0.001848 0.0166,-0.001848 0.006,0.0110862 0.0148,0.0147816 l 0.006,0.003695 -0.0406,0.50626852 q -0.006,0.0609739 -0.0148,0.084994 -0.007,0.02402 -0.0388,0.0295631 -0.15705,0.0295631 -0.3178,0.0646693 -0.16075,0.0351062 -0.33998,0.0702124 -0.006,0.001848 -0.0166,0.001848 -0.0203,0 -0.0203,-0.0184769 z"
         style="-inkscape-font-specification:'Carter One'"
         id="path3477" /><path
         d="m 262.79908,3.2673765 q -0.0203,0.00554 -0.0536,0.016629 -0.0333,0.012934 -0.0647,0.012934 -0.0259,0 -0.0462,-0.012934 -0.0185,-0.012934 -0.0185,-0.044345 v -0.011086 q 0.0111,-0.099776 0.0185,-0.1681403 0.007,-0.070212 0.0129,-0.1256433 0.007,-0.057279 0.0111,-0.1127094 0.006,-0.057279 0.0129,-0.1311864 0.007,-0.075756 0.0166,-0.1773787 0.0111,-0.103471 0.0259,-0.2568297 0.009,-0.094232 0.0166,-0.1921603 0.007,-0.097928 0.007,-0.1810741 0,-0.055431 -0.009,-0.1016233 -0.007,-0.04804 -0.0296,-0.081299 -0.0203,-0.035106 -0.0573,-0.053583 -0.0369,-0.018477 -0.0942,-0.018477 -0.0425,0 -0.11825,0.018477 -0.0739,0.018477 -0.14782,0.060974 -0.0739,0.042497 -0.13118,0.1127094 -0.0573,0.068365 -0.0647,0.169988 -0.0111,0.1367295 -0.0203,0.2346573 -0.009,0.09608 -0.0166,0.1644449 -0.007,0.066517 -0.0129,0.109014 -0.004,0.042497 -0.006,0.07206 -0.002,0.00739 -0.006,0.040649 -0.004,0.033259 -0.009,0.079451 -0.004,0.046192 -0.009,0.097928 -0.004,0.051735 -0.009,0.097928 -0.004,0.046192 -0.007,0.079451 -0.002,0.033259 -0.002,0.040649 0,0.014782 0,0.025868 0.002,0.00924 0.002,0.018477 0,0.014782 -0.0148,0.025868 -0.0129,0.00924 -0.061,0.022172 l -0.48964,0.1681403 q -0.0203,0.00739 -0.0536,0.018477 -0.0333,0.011086 -0.0647,0.011086 -0.0259,0 -0.0462,-0.012934 -0.0185,-0.012934 -0.0185,-0.044345 l 0.16814,-1.8883446 q 0.006,-0.060974 0.0129,-0.083146 0.009,-0.02402 0.0425,-0.031411 0.16814,-0.033258 0.34552,-0.066517 0.17738,-0.035106 0.34552,-0.088689 0.0148,0 0.0166,0.00554 0.004,0.0037 0.004,0.012934 0,0.0037 -0.002,0.011086 0,0.00739 -0.006,0.033259 -0.004,0.025868 -0.0129,0.079451 -0.007,0.051736 -0.0222,0.145968 0.12749,-0.073908 0.23835,-0.1182525 0.11271,-0.046192 0.21064,-0.070212 0.0998,-0.025868 0.18661,-0.033259 0.0868,-0.00924 0.1626,-0.00924 0.26053,0 0.37878,0.1589018 0.11825,0.1570541 0.11825,0.47301 0,0.044345 -0.002,0.092385 -0.002,0.046192 -0.007,0.09608 l -0.085,0.794509 q -0.009,0.077603 -0.0111,0.1441202 -0.002,0.064669 -0.002,0.151511 0,0.014782 0,0.025868 0.002,0.00924 0.002,0.016629 0,0.016629 -0.0148,0.025868 -0.0129,0.00924 -0.061,0.02402 z"
         style="-inkscape-font-specification:'Carter One'"
         id="path3479" /><path
         d="m 265.59464,2.8294727 q -0.002,0.00739 -0.002,0.014781 0,0.00554 0,0.011086 0,0.046192 0.0148,0.077603 0.0148,0.029563 0.0314,0.049888 0.0185,0.018477 0.0333,0.031411 0.0148,0.011086 0.0148,0.020325 0,0.025868 -0.0554,0.04804 l -0.49703,0.212485 q -0.002,0.00185 -0.0129,0.00185 -0.0148,0 -0.0296,-0.025868 -0.0148,-0.025868 -0.0296,-0.066517 -0.0129,-0.038802 -0.0259,-0.083146 -0.0111,-0.046192 -0.0203,-0.084994 -0.1164,0.1348817 -0.25129,0.1977034 -0.13488,0.062822 -0.26791,0.062822 -0.15521,0 -0.30302,-0.068365 -0.14782,-0.068365 -0.26238,-0.194008 -0.11455,-0.127491 -0.18477,-0.3067175 -0.0684,-0.1792264 -0.0684,-0.4027975 0,-0.2642205 0.0758,-0.4822485 0.0776,-0.2180281 0.20879,-0.3750822 0.13118,-0.1570541 0.30486,-0.2420481 0.17554,-0.086842 0.37139,-0.086842 0.13858,0 0.26237,0.057279 0.1238,0.055431 0.23466,0.1441203 0.0111,-0.055431 0.0129,-0.088689 0.002,-0.033258 0.007,-0.051735 0.007,-0.018477 0.0259,-0.02402 0.0185,-0.00739 0.061,-0.011086 0.13303,-0.018477 0.26422,-0.033259 0.13303,-0.016629 0.27715,-0.02402 z m -0.55246,-0.6965812 q 0.0185,-0.1053186 0.024,-0.1977034 0.007,-0.094232 0.0111,-0.1718356 -0.0296,-0.022172 -0.0647,-0.046192 -0.0333,-0.02402 -0.0739,-0.044345 -0.0388,-0.022172 -0.0831,-0.035106 -0.0425,-0.012934 -0.0905,-0.012934 -0.0998,0 -0.16814,0.064669 -0.0665,0.064669 -0.10901,0.1589018 -0.0406,0.094232 -0.0591,0.1995511 -0.0166,0.1053186 -0.0166,0.1866172 0,0.2919359 0.0757,0.4286653 0.0776,0.1348818 0.21433,0.1348818 0.0554,0 0.1238,-0.031411 0.0684,-0.031411 0.13858,-0.086842 z"
         style="-inkscape-font-specification:'Carter One'"
         id="path3481" /><path
         d="m 267.54765,3.2673765 q -0.0203,0.00554 -0.0536,0.016629 -0.0333,0.012934 -0.0647,0.012934 -0.0259,0 -0.0462,-0.012934 -0.0185,-0.012934 -0.0185,-0.044345 v -0.011086 q 0.0111,-0.099776 0.0185,-0.1681403 0.007,-0.070212 0.0129,-0.1256433 0.007,-0.057279 0.0111,-0.1127094 0.006,-0.057279 0.0129,-0.1311864 0.007,-0.075756 0.0166,-0.1773787 0.0111,-0.103471 0.0259,-0.2568297 0.009,-0.094232 0.0166,-0.1921603 0.007,-0.097928 0.007,-0.1810741 0,-0.055431 -0.009,-0.1016233 -0.007,-0.04804 -0.0296,-0.081299 -0.0203,-0.035106 -0.0573,-0.053583 -0.0369,-0.018477 -0.0942,-0.018477 -0.0425,0 -0.11826,0.018477 -0.0739,0.018477 -0.14781,0.060974 -0.0739,0.042497 -0.13119,0.1127094 -0.0573,0.068365 -0.0647,0.169988 -0.0111,0.1367295 -0.0203,0.2346573 -0.009,0.09608 -0.0166,0.1644449 -0.007,0.066517 -0.0129,0.109014 -0.004,0.042497 -0.006,0.07206 -0.002,0.00739 -0.006,0.040649 -0.004,0.033259 -0.009,0.079451 -0.004,0.046192 -0.009,0.097928 -0.004,0.051735 -0.009,0.097928 -0.004,0.046192 -0.007,0.079451 -0.002,0.033259 -0.002,0.040649 0,0.014782 0,0.025868 0.002,0.00924 0.002,0.018477 0,0.014782 -0.0148,0.025868 -0.0129,0.00924 -0.061,0.022172 l -0.48964,0.1681403 q -0.0203,0.00739 -0.0536,0.018477 -0.0333,0.011086 -0.0647,0.011086 -0.0259,0 -0.0462,-0.012934 -0.0185,-0.012934 -0.0185,-0.044345 l 0.16814,-1.8883446 q 0.006,-0.060974 0.0129,-0.083146 0.009,-0.02402 0.0425,-0.031411 0.16814,-0.033258 0.34552,-0.066517 0.17738,-0.035106 0.34552,-0.088689 0.0148,0 0.0166,0.00554 0.004,0.0037 0.004,0.012934 0,0.0037 -0.002,0.011086 0,0.00739 -0.006,0.033259 -0.004,0.025868 -0.0129,0.079451 -0.007,0.051736 -0.0222,0.145968 0.12749,-0.073908 0.23836,-0.1182525 0.11271,-0.046192 0.21063,-0.070212 0.0998,-0.025868 0.18662,-0.033259 0.0868,-0.00924 0.1626,-0.00924 0.26052,0 0.37878,0.1589018 0.11825,0.1570541 0.11825,0.47301 0,0.044345 -0.002,0.092385 -0.002,0.046192 -0.007,0.09608 l -0.085,0.794509 q -0.009,0.077603 -0.0111,0.1441202 -0.002,0.064669 -0.002,0.151511 0,0.014782 0,0.025868 0.002,0.00924 0.002,0.016629 0,0.016629 -0.0148,0.025868 -0.0129,0.00924 -0.061,0.02402 z"
         style="-inkscape-font-specification:'Carter One'"
         id="path3483" /><path
         d="m 268.41977,2.2991841 q 0,-0.2420481 0.0887,-0.4526853 0.0905,-0.212485 0.24759,-0.3695391 0.1589,-0.1570541 0.37323,-0.2475912 0.21618,-0.090537 0.46932,-0.090537 0.17183,0 0.29378,0.027715 0.12195,0.027715 0.19955,0.062822 0.0776,0.033258 0.11271,0.062822 0.0369,0.027715 0.0369,0.029563 0,0.011086 -0.009,0.062822 -0.007,0.049888 -0.0185,0.1182525 -0.009,0.066517 -0.0185,0.1385772 -0.007,0.070212 -0.007,0.1219479 0,0.00924 -0.006,0.020325 -0.006,0.011086 -0.0296,0.011086 -0.0222,0 -0.0647,-0.014782 -0.0425,-0.016629 -0.10532,-0.035106 -0.061,-0.018477 -0.14228,-0.033259 -0.0795,-0.016629 -0.17737,-0.016629 -0.12195,0 -0.21988,0.044345 -0.0979,0.042497 -0.16814,0.1201002 -0.0702,0.075755 -0.10901,0.1810742 -0.037,0.1053186 -0.037,0.2272665 0,0.127491 0.0388,0.2180281 0.0407,0.088689 0.10717,0.1459679 0.0665,0.055431 0.15336,0.081299 0.0868,0.025868 0.18292,0.025868 0.11086,0 0.22357,-0.029563 0.11271,-0.031411 0.21249,-0.086842 0.004,-0.00185 0.0148,-0.00185 0.009,0 0.0129,0.00924 0.006,0.00924 0.006,0.035106 0,0.059126 0,0.1441202 0,0.083146 -0.002,0.1607495 0,0.075756 -0.002,0.1293387 -0.002,0.053583 -0.004,0.053583 -0.0665,0.044345 -0.14412,0.07206 -0.0776,0.027715 -0.16075,0.044345 -0.0813,0.016629 -0.16444,0.022172 -0.0831,0.00554 -0.16075,0.00554 -0.21618,0 -0.4028,-0.07206 -0.18662,-0.07206 -0.32519,-0.2032465 -0.13673,-0.1311864 -0.21618,-0.3141082 -0.0794,-0.1847695 -0.0794,-0.4083407 z"
         style="-inkscape-font-specification:'Carter One'"
         id="path3485" /><path
         d="m 271.47955,1.1388315 q 0.17553,0 0.3178,0.066517 0.14412,0.064669 0.24575,0.169988 0.10347,0.1034709 0.1589,0.2328096 0.0554,0.1293386 0.0554,0.2586773 0,0.1145571 -0.0702,0.2309619 -0.0702,0.1145571 -0.19771,0.2069419 -0.12564,0.092385 -0.30302,0.1496633 -0.17738,0.057279 -0.38986,0.057279 -0.11086,0 -0.23281,-0.022172 0.007,0.079451 0.0462,0.1367295 0.0388,0.057279 0.0979,0.094232 0.0591,0.036954 0.13303,0.055431 0.0758,0.016629 0.15521,0.016629 0.0887,0 0.16999,-0.014782 0.0831,-0.016629 0.1589,-0.042497 0.0758,-0.025868 0.14597,-0.057278 0.0702,-0.031411 0.13303,-0.062822 0.0166,-0.0037 0.0277,-0.00554 0.0129,-0.0037 0.024,-0.0037 0,0 -0.002,0.029563 0,0.029563 0,0.083146 0,0.053583 -0.002,0.1293386 0,0.075755 -0.002,0.1681403 0.006,0.00924 0.007,0.018477 0.002,0.00924 0.002,0.014781 0,0.022172 -0.0406,0.04804 -0.0407,0.025868 -0.10716,0.053583 -0.0647,0.027715 -0.14967,0.053583 -0.0831,0.025868 -0.16999,0.046192 -0.0868,0.022172 -0.16814,0.033258 -0.0813,0.012934 -0.14227,0.012934 -0.19955,0 -0.38801,-0.070212 -0.18662,-0.068365 -0.33259,-0.1977034 -0.14412,-0.1293387 -0.23096,-0.3141082 -0.0868,-0.1847696 -0.0868,-0.4157315 0,-0.2420481 0.0831,-0.4526853 0.0831,-0.212485 0.23281,-0.3695391 0.15151,-0.1570541 0.3603,-0.2475912 0.20879,-0.090537 0.46008,-0.090537 z m -0.0222,0.4914869 q -0.0758,0 -0.14043,0.033259 -0.0628,0.031411 -0.1164,0.092385 -0.0517,0.059126 -0.0905,0.1441202 -0.0388,0.083146 -0.0628,0.1847696 0.19031,-0.033259 0.31596,-0.070213 0.12564,-0.036954 0.20139,-0.073908 0.0758,-0.038802 0.10717,-0.075756 0.0314,-0.038802 0.0314,-0.073908 0,-0.033259 -0.0259,-0.062822 -0.024,-0.029563 -0.061,-0.051735 -0.0369,-0.022172 -0.0813,-0.033258 -0.0425,-0.012934 -0.0776,-0.012934 z"
         style="-inkscape-font-specification:'Carter One'"
         id="path3487" /><path
         d="m 272.42372,3.0290238 q 0.002,-0.049888 0.0166,-0.066517 0.0148,-0.018477 0.0333,-0.02402 0.14966,-0.044345 0.25868,-0.1459679 0.11086,-0.1016233 0.18107,-0.236505 0.0721,-0.1367295 0.10717,-0.2937836 0.0351,-0.1570541 0.0351,-0.3122605 0,-0.1570541 -0.0351,-0.3011743 -0.0333,-0.145968 -0.0979,-0.2642205 -0.0647,-0.1182525 -0.15705,-0.2013987 -0.0924,-0.084994 -0.20695,-0.1201002 -0.024,-0.00739 -0.0351,-0.014782 -0.0111,-0.00739 -0.0111,-0.027715 0,-0.014782 0.002,-0.020325 0.0111,-0.0591262 0.0296,-0.14596792 0.0203,-0.0868417 0.0388,-0.16629258 0.0203,-0.0812986 0.0351,-0.13857715 0.0166,-0.0572785 0.0166,-0.0591262 0.009,-0.0351062 0.024,-0.0443447 0.0148,-0.0110862 0.024,-0.0110862 0.16814,0.0166293 0.31226,0.0794509 0.14597,0.0628216 0.26422,0.14966332 0.11825,0.0868417 0.20694,0.18661723 0.0905,0.0997755 0.14782,0.1884649 0.061,0.09608 0.10162,0.2013988 0.0425,0.1053186 0.0665,0.2143327 0.0259,0.1071663 0.0369,0.2161803 0.0111,0.1071663 0.0111,0.2069419 0,0.194008 -0.0351,0.3843206 -0.0333,0.1903126 -0.10532,0.3676914 -0.0702,0.175531 -0.17922,0.3307375 -0.10902,0.1552064 -0.25868,0.2790019 -0.14966,0.1237956 -0.34182,0.2087896 -0.19032,0.084994 -0.42497,0.1201002 -0.004,0 -0.006,0 -0.002,0.00185 -0.006,0.00185 -0.0333,0 -0.0333,-0.035106 0,-0.062822 -0.004,-0.1145571 -0.002,-0.051736 -0.006,-0.099776 -0.002,-0.046192 -0.006,-0.092385 -0.002,-0.046192 -0.002,-0.099776 v -0.099775 z"
         style="-inkscape-font-specification:'Carter One'"
         id="path3489" /><path
         d="m 273.98318,3.2710719 q 0.004,-0.086842 0.006,-0.1367295 0.002,-0.051735 0.002,-0.079451 0.002,-0.027715 0.002,-0.038802 0,-0.011086 0,-0.020325 0,-0.011086 0,-0.025868 0.002,-0.014782 0.004,-0.04804 0.002,-0.035106 0.006,-0.094233 0.004,-0.060974 0.009,-0.1607495 0.004,-0.060974 0.0111,-0.083146 0.009,-0.02402 0.0425,-0.029563 0.16259,0 0.33997,0 0.17738,-0.00185 0.33443,-0.0037 0.0166,0 0.0277,0.00924 0.0111,0.00924 0.0111,0.035106 l -0.0517,0.5801763 q -0.007,0.060974 -0.0148,0.083146 -0.006,0.02402 -0.0406,0.027715 -0.15705,0.00185 -0.32335,0.0037 -0.16444,0.00185 -0.34367,0.00185 -0.0111,0 -0.0166,-0.00185 -0.004,-0.00185 -0.004,-0.011086 z"
         style="-inkscape-font-specification:'Carter One'"
         id="path3491" /></g></g></svg>
