<?xml version="1.0" encoding="UTF-8" standalone="no"?>
<!-- Created with Inkscape (http://www.inkscape.org/) -->

<svg
   width="195.21365"
   height="184.69626"
   viewBox="0 0 51.650277 48.867552"
   version="1.1"
   id="svg5"
   inkscape:version="1.2 (dc2aedaf03, 2022-05-15)"
   sodipodi:docname="Scene 5.svg.2022_08_24_03_31_35.0.svg"
   xmlns:inkscape="http://www.inkscape.org/namespaces/inkscape"
   xmlns:sodipodi="http://sodipodi.sourceforge.net/DTD/sodipodi-0.dtd"
   xmlns="http://www.w3.org/2000/svg"
   xmlns:svg="http://www.w3.org/2000/svg">
  <sodipodi:namedview
     id="namedview7"
     pagecolor="#ffffff"
     bordercolor="#666666"
     borderopacity="1.0"
     inkscape:showpageshadow="2"
     inkscape:pageopacity="0.0"
     inkscape:pagecheckerboard="0"
     inkscape:deskcolor="#d1d1d1"
     inkscape:document-units="mm"
     showgrid="true"
     inkscape:zoom="1.0129245"
     inkscape:cx="305.55091"
     inkscape:cy="298.64022"
     inkscape:window-width="1920"
     inkscape:window-height="991"
     inkscape:window-x="-9"
     inkscape:window-y="-9"
     inkscape:window-maximized="1"
     inkscape:current-layer="layer1">
    <inkscape:grid
       type="axonomgrid"
       id="grid1326"
       snapvisiblegridlinesonly="false"
       units="px"
       spacingy="2.6458333"
       originx="169.33333"
       originy="95.25" />
  </sodipodi:namedview>
  <defs
     id="defs2" />
  <g
     inkscape:label="Layer 1"
     inkscape:groupmode="layer"
     id="layer1"
     transform="translate(57.807086,-33.894695)">
    <g
       aria-label="To fill the shoes of 
the person I 
longed to be..."
       transform="skewY(-30)"
       id="text704"
       style="font-size:5.83839px;font-family:'Carter One';-inkscape-font-specification:'Carter One';fill:#ffffff;stroke-width:0.31277">
      <path
         d="m -57.000403,34.822613 q 0.01425,-0.208107 0.02851,-0.40196 0.01425,-0.193852 0.02566,-0.376302 l 0.102628,-1.345566 q 0.0171,-0.153942 0.02851,-0.279376 0.0114,-0.128285 0.0171,-0.248018 0.0086,-0.122583 0.01425,-0.245167 0.0086,-0.125434 0.01711,-0.276525 -0.09408,-0.0029 -0.199555,-0.0029 -0.102628,0 -0.216659,0 h -0.550199 q -0.03136,0 -0.03991,-0.02281 -0.0057,-0.02566 -0.0057,-0.04561 v -0.01995 l 0.313586,-0.823874 -0.0029,-0.0114 q 0,-0.01425 0.0171,-0.02281 0.01996,-0.0114 0.08552,-0.0171 0.393407,-0.02281 0.761157,-0.04276 0.370601,-0.02281 0.729799,-0.03991 0.362048,-0.0171 0.721246,-0.03421 0.362049,-0.0171 0.744053,-0.03136 0.03421,0 0.07127,0.0086 0.03991,0.0086 0.03991,0.06272 0,0.0057 -0.0029,0.0114 -0.0029,0.0057 -0.0029,0.0114 -0.04561,0.116882 -0.08552,0.222361 -0.03706,0.105478 -0.07412,0.208106 -0.03706,0.102628 -0.07697,0.208107 -0.03706,0.105479 -0.08267,0.22236 -0.0029,0.0029 -0.0114,0.02851 -0.0086,0.02281 -0.02566,0.05417 -0.0171,0.02851 -0.04561,0.05416 -0.02851,0.02566 -0.07127,0.02851 -0.01425,-0.0028 -0.02851,-0.0028 -0.01425,0 -0.03136,0 h -0.761157 q -0.01425,0.145389 -0.02851,0.307884 -0.0114,0.162494 -0.02851,0.316436 l -0.208106,2.226456 q -0.0029,0.02566 -0.0114,0.05131 -0.0057,0.02566 -0.03706,0.03706 l -0.80677,0.290779 q -0.03136,0.0114 -0.08267,0.02851 -0.05131,0.01711 -0.09978,0.01711 -0.03991,0 -0.07127,-0.01996 -0.02851,-0.01995 -0.02851,-0.07412 z"
         id="path2534" />
      <path
         d="m -53.322901,34.879628 q -0.40196,0 -0.706993,-0.131135 -0.302182,-0.131136 -0.507438,-0.347795 -0.205256,-0.21951 -0.307884,-0.501737 -0.102628,-0.285077 -0.102628,-0.59011 0,-0.305033 0.09978,-0.578708 0.09978,-0.276525 0.279376,-0.493184 0.179599,-0.21951 0.430468,-0.3649 0.250868,-0.14824 0.55305,-0.199554 0.04561,-0.0029 0.04561,-0.01995 0,-0.03136 -0.0086,-0.05702 -0.0057,-0.02851 -0.0057,-0.04846 0,-0.03136 0.0114,-0.04276 0.0114,-0.0114 0.02566,-0.0114 0.544498,0 0.926502,0.125434 0.382004,0.122584 0.621469,0.336392 0.239465,0.213808 0.347795,0.504587 0.108329,0.29078 0.108329,0.62432 0,0.424766 -0.142538,0.758307 -0.142539,0.333541 -0.390557,0.564454 -0.245166,0.230912 -0.575857,0.350645 -0.327839,0.122583 -0.70129,0.122583 z m -0.527394,-1.602136 q 0,0.153942 0.03136,0.305033 0.03421,0.151091 0.10833,0.273675 0.07697,0.122583 0.199554,0.199554 0.122584,0.07412 0.305033,0.07412 0.131136,-0.0057 0.228062,-0.05701 0.09978,-0.05416 0.171047,-0.136837 0.07127,-0.08552 0.116882,-0.191003 0.04846,-0.105478 0.07412,-0.216659 0.02851,-0.114031 0.03991,-0.22236 0.0114,-0.10833 0.0114,-0.196704 0,-0.14824 -0.04561,-0.290779 -0.04276,-0.142539 -0.128285,-0.250868 -0.08552,-0.10833 -0.213809,-0.173897 -0.125434,-0.06842 -0.290779,-0.06842 -0.171046,0 -0.287928,0.102628 -0.116882,0.09978 -0.188151,0.248017 -0.06842,0.148241 -0.09978,0.313586 -0.03136,0.162494 -0.03136,0.287928 z"
         id="path2536" />
      <path
         d="m -49.574131,34.77415 q 0.0029,-0.03136 0.0114,-0.133987 0.0114,-0.105478 0.02566,-0.265122 0.01425,-0.159643 0.03136,-0.364899 0.01996,-0.208107 0.04276,-0.444721 0.02281,-0.239466 0.04561,-0.498886 0.02566,-0.259421 0.05131,-0.524543 h -0.379153 q -0.153942,0 -0.222361,-0.0114 -0.06842,-0.01425 -0.06842,-0.05416 0,-0.0114 0.02851,-0.05987 0.02851,-0.05131 0.07127,-0.119733 0.04561,-0.07127 0.09693,-0.151091 0.05131,-0.07982 0.09693,-0.14824 0.04846,-0.07127 0.08267,-0.122584 0.03421,-0.05131 0.04276,-0.06272 h 0.347794 l 0.05702,-0.453273 q 0.03991,-0.359198 0.142539,-0.604365 0.105478,-0.245167 0.25942,-0.396258 0.156793,-0.151091 0.356347,-0.216659 0.199555,-0.06557 0.427617,-0.06557 0.228062,0 0.473229,0.05702 0.248017,0.05417 0.498886,0.151091 0.05416,0.02281 0.07982,0.03991 0.02851,0.01425 0.02851,0.03991 0,0.02281 -0.01996,0.05987 -0.09122,0.176748 -0.136838,0.285078 -0.04276,0.108329 -0.06842,0.171046 -0.02566,0.06272 -0.04276,0.08552 -0.01711,0.01995 -0.05131,0.01995 -0.01711,0 -0.03706,-0.0086 -0.01711,-0.0086 -0.04276,-0.01996 -0.09978,-0.03706 -0.202405,-0.06557 -0.09978,-0.03136 -0.191002,-0.03136 -0.128285,0 -0.22236,0.07982 -0.09123,0.07982 -0.14539,0.302182 -0.03136,0.128285 -0.05131,0.276525 -0.01996,0.148241 -0.03421,0.29363 h 0.744052 q 0.02281,0 0.04276,0.01711 0.02281,0.01425 0.02281,0.05131 0,0.01425 -0.03421,0.102628 -0.03421,0.08837 -0.09693,0.230913 l -0.102628,0.230912 q -0.01996,0.04276 -0.04276,0.06272 -0.01996,0.01995 -0.08552,0.02566 h -0.493185 q -0.03136,0.29648 -0.05987,0.587259 -0.02851,0.29078 -0.05417,0.54735 -0.02566,0.253719 -0.04561,0.453273 -0.01996,0.196704 -0.03136,0.305033 -0.0028,0.0086 -0.0028,0.03136 0,0.0114 0,0.01995 0.0028,0.0086 0.0028,0.01425 0,0.02566 -0.01995,0.04276 -0.01711,0.01425 -0.09408,0.03421 l -0.749754,0.265122 q -0.03136,0.0114 -0.08267,0.02851 -0.05131,0.0171 -0.09978,0.0171 -0.04846,0 -0.07412,-0.02281 -0.02566,-0.02281 -0.02566,-0.08267 z"
         id="path2538" />
      <path
         d="m -47.225091,33.522659 q 0.03706,-0.390556 0.07412,-0.77256 0.03706,-0.382004 0.06557,-0.783964 0.0057,-0.09408 0.01711,-0.128285 0.01425,-0.03706 0.06557,-0.04846 0.242316,-0.04846 0.507438,-0.09978 0.265122,-0.05416 0.51314,-0.136837 0.0086,-0.0029 0.02566,-0.0029 0.03136,0 0.03136,0.02281 l -0.25657,2.776656 q -0.0086,0.09408 -0.01995,0.131136 -0.0114,0.03421 -0.06272,0.04561 -0.242316,0.07412 -0.490334,0.165345 -0.248017,0.09123 -0.524542,0.185301 -0.0086,0.0028 -0.02566,0.0028 -0.03136,0 -0.03136,-0.02851 0,-0.0029 0.0057,-0.07697 0.0057,-0.07412 0.01425,-0.191002 0.0114,-0.116882 0.02281,-0.262272 0.0114,-0.145389 0.02281,-0.290779 0.01425,-0.145389 0.02566,-0.279376 0.0114,-0.133986 0.01996,-0.228062 z m 0.213809,-2.27492 q 0.0086,-0.122583 0.0114,-0.188151 0.0057,-0.06557 0.0086,-0.09693 0.0029,-0.03421 0.0029,-0.04276 0,-0.0086 0,-0.0114 0.0029,-0.0057 0.0029,-0.01711 0.0029,-0.01425 0.0057,-0.05416 0.0029,-0.04276 0.0086,-0.122584 0.0057,-0.07982 0.01711,-0.219509 0.0057,-0.09408 0.01711,-0.128285 0.01425,-0.03706 0.06557,-0.04846 0.242316,-0.04846 0.507438,-0.09978 0.265122,-0.05417 0.51314,-0.136837 0.0086,-0.0029 0.02566,-0.0029 0.0086,0.0171 0.02281,0.02281 l 0.0086,0.0057 -0.06272,0.781113 q -0.0086,0.09408 -0.02281,0.131135 -0.0114,0.03706 -0.05987,0.04561 -0.242316,0.04561 -0.490333,0.09978 -0.248018,0.05417 -0.524543,0.108329 -0.0086,0.0029 -0.02566,0.0029 -0.03136,0 -0.03136,-0.02851 z"
         id="path2540" />
      <path
         d="m -45.357833,32.319631 q 0.03421,-0.390556 0.05416,-0.77256 0.02281,-0.382004 0.04846,-0.783964 0.0057,-0.09408 0.0171,-0.128284 0.01425,-0.03706 0.06557,-0.04846 0.265122,-0.04846 0.530244,-0.09693 0.267973,-0.05131 0.535946,-0.133987 0.0086,-0.0029 0.02566,-0.0029 0.03136,0 0.03136,0.02851 l -0.370601,4.070909 v 0.04846 q 0,0.02566 -0.01996,0.04276 -0.01995,0.01425 -0.09407,0.03421 l -0.746904,0.273675 q -0.03136,0.01425 -0.08267,0.02851 -0.05131,0.01711 -0.09978,0.01711 -0.03991,0 -0.07127,-0.01995 -0.02851,-0.01996 -0.02851,-0.06842 v -0.01711 q 0.02281,-0.287928 0.04276,-0.561603 0.02281,-0.276525 0.04561,-0.570155 0.02566,-0.29363 0.05416,-0.621469 0.02851,-0.327839 0.06272,-0.718396 z"
         id="path2542" />
      <path
         d="m -43.58465,32.319631 q 0.03421,-0.390556 0.05417,-0.77256 0.02281,-0.382004 0.04846,-0.783964 0.0057,-0.09408 0.01711,-0.128284 0.01425,-0.03706 0.06557,-0.04846 0.265122,-0.04846 0.530244,-0.09693 0.267973,-0.05131 0.535946,-0.133987 0.0086,-0.0029 0.02566,-0.0029 0.03136,0 0.03136,0.02851 l -0.370601,4.070909 v 0.04846 q 0,0.02566 -0.01996,0.04276 -0.01996,0.01425 -0.09408,0.03421 l -0.746904,0.273675 q -0.03136,0.01425 -0.08267,0.02851 -0.05131,0.01711 -0.09978,0.01711 -0.03991,0 -0.07127,-0.01995 -0.02851,-0.01996 -0.02851,-0.06842 v -0.01711 q 0.02281,-0.287928 0.04276,-0.561603 0.02281,-0.276525 0.04561,-0.570155 0.02566,-0.29363 0.05416,-0.621469 0.02851,-0.327839 0.06272,-0.718396 z"
         id="path2544" />
      <path
         d="m -39.217261,32.53344 q -0.03991,0.299331 -0.07697,0.598663 -0.03421,0.29648 -0.04276,0.555901 0,0.11118 0.0171,0.1853 0.01711,0.07412 0.04846,0.116882 0.03421,0.04276 0.07982,0.06272 0.04561,0.01711 0.102628,0.01711 0.09123,0 0.199554,-0.02566 0.10833,-0.02851 0.216659,-0.07127 0.03421,-0.01425 0.05702,-0.01996 0.02566,-0.0086 0.04276,-0.0086 0.02851,0 0.03706,0.02566 0.0114,0.02566 0.01995,0.09123 0.0114,0.06272 0.03136,0.171046 0.01996,0.10833 0.06557,0.273675 0.0029,0.01425 0.0029,0.02566 0.0029,0.0086 0.0029,0.0171 0,0.03991 -0.03136,0.05702 -0.02851,0.01711 -0.09693,0.03991 -0.116882,0.03991 -0.248017,0.08267 -0.128285,0.03991 -0.25657,0.07412 -0.125434,0.03421 -0.242316,0.05416 -0.116882,0.02281 -0.205256,0.02281 -0.47608,0 -0.69559,-0.236614 -0.216659,-0.236614 -0.216659,-0.721246 0,-0.08267 0.0057,-0.168196 0.0057,-0.08837 0.01425,-0.18245 0.02851,-0.285077 0.04846,-0.538797 0.02281,-0.256569 0.04561,-0.490333 h -0.299331 q -0.153942,0 -0.222361,-0.0114 -0.06842,-0.01425 -0.06842,-0.05416 0,-0.0114 0.02851,-0.05987 0.02851,-0.05131 0.07127,-0.119733 0.04561,-0.07127 0.09693,-0.151091 0.05131,-0.07982 0.09693,-0.14824 0.04846,-0.07127 0.08267,-0.122584 0.03421,-0.05131 0.04276,-0.06272 h 0.202405 q 0.02566,-0.216659 0.03991,-0.362048 0.01711,-0.148241 0.02566,-0.245167 0.0114,-0.09693 0.01995,-0.148241 0.0086,-0.05416 0.01711,-0.07982 0.0114,-0.02566 0.02566,-0.03136 0.01711,-0.0086 0.04276,-0.01425 0.128284,-0.02566 0.248017,-0.04561 0.119733,-0.02281 0.239465,-0.04561 0.119733,-0.02281 0.242316,-0.05131 0.125434,-0.03136 0.259421,-0.07127 0.0086,0 0.0114,0 0.0029,-0.0029 0.0114,-0.0029 0.03421,0 0.03421,0.02281 v 0.0057 q -0.01425,0.156793 -0.04561,0.436169 -0.02851,0.279376 -0.06557,0.632872 h 0.764008 q 0.02281,0 0.04276,0.01711 0.02281,0.01425 0.02281,0.05131 0,0.01425 -0.03421,0.102628 -0.03421,0.08837 -0.09693,0.230913 l -0.102628,0.230912 q -0.01996,0.04276 -0.04276,0.06272 -0.01996,0.01995 -0.08552,0.02566 z"
         id="path2546" />
      <path
         d="m -37.766215,30.586359 q 0,-0.0171 -0.0028,-0.03136 0,-0.01425 0,-0.02851 0,-0.02566 0.01995,-0.04276 0.01996,-0.01995 0.09693,-0.03991 l 0.801068,-0.191002 q 0.03136,-0.0057 0.08267,-0.02566 0.05131,-0.01996 0.09978,-0.01996 0.09978,0 0.09978,0.09123 0,0.0057 -0.0086,0.116882 -0.0086,0.11118 -0.02281,0.276525 -0.01425,0.165345 -0.03136,0.362049 -0.0171,0.193852 -0.03421,0.370601 -0.01711,0.176748 -0.03136,0.310734 -0.01425,0.131136 -0.02281,0.171047 0.133987,-0.07412 0.279376,-0.139688 0.14539,-0.06557 0.29078,-0.114031 0.14824,-0.04846 0.29363,-0.07412 0.14824,-0.02851 0.285077,-0.02851 0.173898,0 0.324989,0.05131 0.151091,0.04846 0.262271,0.165345 0.114031,0.114031 0.176748,0.302182 0.06557,0.1853 0.06557,0.456124 0,0.06842 -0.0029,0.142539 -0.0029,0.07127 -0.0114,0.14824 l -0.122583,1.165968 q -0.01425,0.119733 -0.01711,0.250868 -0.0029,0.128285 -0.0029,0.265122 0,0.02281 0,0.03991 0.0029,0.01425 0.0029,0.02566 0,0.02566 -0.02281,0.03991 -0.01995,0.01425 -0.09408,0.03706 l -0.69844,0.193853 q -0.03136,0.0086 -0.08267,0.02566 -0.05131,0.01995 -0.09978,0.01995 -0.04846,0 -0.07412,-0.02281 -0.02566,-0.01996 -0.02566,-0.08267 0.01996,-0.213808 0.03136,-0.344944 0.01425,-0.131136 0.01995,-0.208107 0.0086,-0.07982 0.01425,-0.119732 0.0057,-0.04276 0.0086,-0.07412 0.0029,-0.03421 0.0086,-0.07412 0.0057,-0.04276 0.0114,-0.122583 0.0086,-0.07982 0.01995,-0.210958 0.01425,-0.131135 0.03421,-0.344944 0.0114,-0.114031 0.02281,-0.225211 0.01425,-0.114031 0.01425,-0.208107 0,-0.119732 -0.01425,-0.216659 -0.0114,-0.09978 -0.04561,-0.168195 -0.03136,-0.07127 -0.08837,-0.111181 -0.05701,-0.03991 -0.145389,-0.03991 -0.06557,0 -0.179599,0.02851 -0.11118,0.02851 -0.225211,0.09408 -0.111181,0.06557 -0.199555,0.173897 -0.08552,0.105479 -0.09693,0.262272 -0.02281,0.219509 -0.03706,0.359197 -0.0114,0.139688 -0.01996,0.230913 -0.0086,0.09123 -0.01425,0.14539 -0.0029,0.05417 -0.0057,0.09978 -0.0029,0.01425 -0.0086,0.07127 -0.0057,0.05416 -0.01425,0.131136 -0.0086,0.07697 -0.01711,0.165345 -0.0086,0.08552 -0.01711,0.162494 -0.0057,0.07697 -0.0114,0.133987 -0.0029,0.05416 -0.0029,0.06842 0,0.02281 0,0.03991 0.0029,0.01425 0.0029,0.02851 0,0.02281 -0.02281,0.03991 -0.01996,0.01425 -0.09408,0.03421 l -0.744052,0.259421 q -0.03136,0.0114 -0.08267,0.02851 -0.05131,0.0171 -0.09978,0.0171 -0.04276,0 -0.07127,-0.02566 -0.02851,-0.02281 -0.02851,-0.07982 z"
         id="path2548" />
      <path
         d="m -32.606311,31.549922 q 0.270824,0 0.490334,0.102628 0.22236,0.09978 0.379153,0.262271 0.159643,0.159644 0.245167,0.359198 0.08552,0.199554 0.08552,0.399109 0,0.176748 -0.108329,0.356347 -0.10833,0.176748 -0.305034,0.319287 -0.193852,0.142538 -0.467527,0.230912 -0.273674,0.08838 -0.601514,0.08838 -0.171046,0 -0.359197,-0.03421 0.0114,0.122584 0.07127,0.210958 0.05987,0.08837 0.151091,0.145389 0.09122,0.05702 0.205256,0.08552 0.116882,0.02566 0.239465,0.02566 0.136837,0 0.262272,-0.02281 0.128285,-0.02566 0.245166,-0.06557 0.116882,-0.03991 0.225212,-0.08837 0.108329,-0.04846 0.205256,-0.09693 0.02566,-0.0057 0.04276,-0.0086 0.01996,-0.0057 0.03706,-0.0057 0,0 -0.0029,0.04561 0,0.04561 0,0.128284 0,0.08267 -0.0029,0.199555 0,0.116882 -0.0029,0.25942 0.0086,0.01425 0.0114,0.02851 0.0029,0.01425 0.0029,0.02281 0,0.03421 -0.06272,0.07412 -0.06272,0.03991 -0.165345,0.08267 -0.09978,0.04276 -0.230913,0.08267 -0.128285,0.03991 -0.262272,0.07127 -0.133986,0.03421 -0.25942,0.05131 -0.125434,0.01995 -0.21951,0.01995 -0.307884,0 -0.598663,-0.108329 -0.287928,-0.105479 -0.51314,-0.305033 -0.22236,-0.199554 -0.356347,-0.484632 -0.133986,-0.285078 -0.133986,-0.641425 0,-0.373451 0.128285,-0.69844 0.128285,-0.327839 0.359197,-0.570155 0.233764,-0.242316 0.555902,-0.382004 0.322138,-0.139688 0.709843,-0.139688 z m -0.03421,0.758306 q -0.116882,0 -0.216659,0.05131 -0.09693,0.04846 -0.179599,0.142539 -0.07982,0.09123 -0.139688,0.222361 -0.05987,0.128285 -0.09693,0.285077 0.293629,-0.05131 0.487482,-0.108329 0.193853,-0.05702 0.310735,-0.114031 0.116882,-0.05987 0.165345,-0.116882 0.04846,-0.05987 0.04846,-0.114031 0,-0.05131 -0.03991,-0.09693 -0.03706,-0.04561 -0.09407,-0.07982 -0.05702,-0.03421 -0.125435,-0.05131 -0.06557,-0.01996 -0.119732,-0.01996 z"
         id="path2550" />
      <path
         d="m -29.78119,33.944574 q 0,-0.0029 -0.0029,-0.0029 0,-0.0029 0,-0.0057 0,-0.03706 0.03991,-0.03706 0.02566,0 0.04561,0.01996 0.114031,0.108329 0.25942,0.176748 0.148241,0.06842 0.319287,0.06842 0.04561,0 0.105479,-0.0086 0.05987,-0.0114 0.114031,-0.03421 0.05417,-0.02281 0.08837,-0.05987 0.03706,-0.03991 0.03706,-0.09693 0,-0.06272 -0.03136,-0.114031 -0.03136,-0.05417 -0.08267,-0.08837 -0.02851,-0.01996 -0.09978,-0.06842 -0.07127,-0.05131 -0.153942,-0.10833 -0.07982,-0.05702 -0.153942,-0.108329 -0.07127,-0.05131 -0.09978,-0.07412 -0.128285,-0.09693 -0.205256,-0.196703 -0.07412,-0.09978 -0.114031,-0.205256 -0.03991,-0.10833 -0.05131,-0.225211 -0.0114,-0.116882 -0.0114,-0.248018 0,-0.199554 0.105479,-0.376302 0.105478,-0.176749 0.276525,-0.310735 0.173897,-0.133987 0.393407,-0.210958 0.21951,-0.07982 0.447572,-0.07982 0.188151,0 0.370601,0.05701 0.182449,0.05702 0.339242,0.193853 0.01425,0.179599 0.01996,0.353496 0.0057,0.173898 0.0171,0.3649 0,0.03706 -0.0171,0.05131 -0.01711,0.0114 -0.03991,0.0114 -0.01996,0 -0.03421,-0.01425 -0.06557,-0.06272 -0.133986,-0.122584 -0.06842,-0.06272 -0.14539,-0.108329 -0.07412,-0.04846 -0.159643,-0.07697 -0.08552,-0.03136 -0.18245,-0.03136 -0.05987,0 -0.119732,0.0114 -0.05987,0.0086 -0.10833,0.03706 -0.04846,0.02566 -0.07982,0.07127 -0.02851,0.04561 -0.02851,0.116882 0,0.08267 0.01996,0.142539 0.01995,0.05987 0.09408,0.116882 l 0.530244,0.359197 q 0.14539,0.09978 0.233764,0.196704 0.09123,0.09408 0.142538,0.188151 0.05131,0.09408 0.06842,0.188151 0.01996,0.09123 0.01996,0.18245 0,0.25657 -0.119733,0.453274 -0.116882,0.193852 -0.305033,0.324988 -0.188151,0.128285 -0.427617,0.193853 -0.236614,0.06842 -0.476079,0.06842 -0.18245,0 -0.353496,-0.03991 -0.168196,-0.03706 -0.313586,-0.116882 z"
         id="path2552" />
      <path
         d="m -27.015938,30.586359 q 0,-0.0171 -0.0029,-0.03136 0,-0.01425 0,-0.02851 0,-0.02566 0.01996,-0.04276 0.01995,-0.01995 0.09693,-0.03991 l 0.801068,-0.191002 q 0.03136,-0.0057 0.08267,-0.02566 0.05131,-0.01996 0.09978,-0.01996 0.09978,0 0.09978,0.09123 0,0.0057 -0.0086,0.116882 -0.0086,0.11118 -0.02281,0.276525 -0.01425,0.165345 -0.03136,0.362049 -0.01711,0.193852 -0.03421,0.370601 -0.0171,0.176748 -0.03136,0.310734 -0.01425,0.131136 -0.02281,0.171047 0.133986,-0.07412 0.279376,-0.139688 0.14539,-0.06557 0.290779,-0.114031 0.148241,-0.04846 0.29363,-0.07412 0.148241,-0.02851 0.285078,-0.02851 0.173897,0 0.324988,0.05131 0.151091,0.04846 0.262272,0.165345 0.114031,0.114031 0.176748,0.302182 0.06557,0.1853 0.06557,0.456124 0,0.06842 -0.0029,0.142539 -0.0029,0.07127 -0.0114,0.14824 l -0.122584,1.165968 q -0.01425,0.119733 -0.0171,0.250868 -0.0029,0.128285 -0.0029,0.265122 0,0.02281 0,0.03991 0.0029,0.01425 0.0029,0.02566 0,0.02566 -0.02281,0.03991 -0.01996,0.01425 -0.09408,0.03706 l -0.69844,0.193853 q -0.03136,0.0086 -0.08267,0.02566 -0.05131,0.01995 -0.09978,0.01995 -0.04846,0 -0.07412,-0.02281 -0.02566,-0.01996 -0.02566,-0.08267 0.01995,-0.213808 0.03136,-0.344944 0.01425,-0.131136 0.01996,-0.208107 0.0086,-0.07982 0.01425,-0.119732 0.0057,-0.04276 0.0086,-0.07412 0.0029,-0.03421 0.0086,-0.07412 0.0057,-0.04276 0.0114,-0.122583 0.0086,-0.07982 0.01996,-0.210958 0.01425,-0.131135 0.03421,-0.344944 0.0114,-0.114031 0.02281,-0.225211 0.01425,-0.114031 0.01425,-0.208107 0,-0.119732 -0.01425,-0.216659 -0.0114,-0.09978 -0.04561,-0.168195 -0.03136,-0.07127 -0.08837,-0.111181 -0.05702,-0.03991 -0.14539,-0.03991 -0.06557,0 -0.179599,0.02851 -0.11118,0.02851 -0.225211,0.09408 -0.11118,0.06557 -0.199554,0.173897 -0.08552,0.105479 -0.09693,0.262272 -0.02281,0.219509 -0.03706,0.359197 -0.0114,0.139688 -0.01995,0.230913 -0.0086,0.09123 -0.01425,0.14539 -0.0029,0.05417 -0.0057,0.09978 -0.0029,0.01425 -0.0086,0.07127 -0.0057,0.05416 -0.01425,0.131136 -0.0086,0.07697 -0.0171,0.165345 -0.0086,0.08552 -0.0171,0.162494 -0.0057,0.07697 -0.0114,0.133987 -0.0029,0.05416 -0.0029,0.06842 0,0.02281 0,0.03991 0.0029,0.01425 0.0029,0.02851 0,0.02281 -0.02281,0.03991 -0.01996,0.01425 -0.09408,0.03421 l -0.744053,0.259421 q -0.03136,0.0114 -0.08267,0.02851 -0.05131,0.0171 -0.09978,0.0171 -0.04276,0 -0.07127,-0.02566 -0.02851,-0.02281 -0.02851,-0.07982 z"
         id="path2554" />
      <path
         d="m -21.98717,34.879628 q -0.401959,0 -0.706992,-0.131135 -0.302183,-0.131136 -0.507439,-0.347795 -0.205256,-0.21951 -0.307884,-0.501737 -0.102627,-0.285077 -0.102627,-0.59011 0,-0.305033 0.09978,-0.578708 0.09978,-0.276525 0.279376,-0.493184 0.179599,-0.21951 0.430467,-0.3649 0.250868,-0.14824 0.553051,-0.199554 0.04561,-0.0029 0.04561,-0.01995 0,-0.03136 -0.0086,-0.05702 -0.0057,-0.02851 -0.0057,-0.04846 0,-0.03136 0.0114,-0.04276 0.0114,-0.0114 0.02566,-0.0114 0.544499,0 0.926503,0.125434 0.382004,0.122584 0.621469,0.336392 0.239465,0.213808 0.347794,0.504587 0.10833,0.29078 0.10833,0.62432 0,0.424766 -0.142539,0.758307 -0.142539,0.333541 -0.390556,0.564454 -0.245167,0.230912 -0.575857,0.350645 -0.327839,0.122583 -0.701291,0.122583 z m -0.527394,-1.602136 q 0,0.153942 0.03136,0.305033 0.03421,0.151091 0.108329,0.273675 0.07697,0.122583 0.199555,0.199554 0.122583,0.07412 0.305033,0.07412 0.131136,-0.0057 0.228062,-0.05701 0.09978,-0.05416 0.171047,-0.136837 0.07127,-0.08552 0.116881,-0.191003 0.04846,-0.105478 0.07412,-0.216659 0.02851,-0.114031 0.03991,-0.22236 0.0114,-0.10833 0.0114,-0.196704 0,-0.14824 -0.04561,-0.290779 -0.04276,-0.142539 -0.128285,-0.250868 -0.08552,-0.10833 -0.213808,-0.173897 -0.125434,-0.06842 -0.290779,-0.06842 -0.171047,0 -0.287929,0.102628 -0.116881,0.09978 -0.188151,0.248017 -0.06842,0.148241 -0.09978,0.313586 -0.03136,0.162494 -0.03136,0.287928 z"
         id="path2556" />
      <path
         d="m -18.112962,31.549922 q 0.270824,0 0.490334,0.102628 0.22236,0.09978 0.379153,0.262271 0.159643,0.159644 0.245167,0.359198 0.08552,0.199554 0.08552,0.399109 0,0.176748 -0.108329,0.356347 -0.10833,0.176748 -0.305033,0.319287 -0.193853,0.142538 -0.467528,0.230912 -0.273674,0.08838 -0.601514,0.08838 -0.171046,0 -0.359197,-0.03421 0.0114,0.122584 0.07127,0.210958 0.05987,0.08837 0.151091,0.145389 0.09122,0.05702 0.205256,0.08552 0.116882,0.02566 0.239465,0.02566 0.136837,0 0.262272,-0.02281 0.128285,-0.02566 0.245166,-0.06557 0.116882,-0.03991 0.225212,-0.08837 0.108329,-0.04846 0.205256,-0.09693 0.02566,-0.0057 0.04276,-0.0086 0.01996,-0.0057 0.03706,-0.0057 0,0 -0.0028,0.04561 0,0.04561 0,0.128284 0,0.08267 -0.0029,0.199555 0,0.116882 -0.0029,0.25942 0.0086,0.01425 0.0114,0.02851 0.0029,0.01425 0.0029,0.02281 0,0.03421 -0.06272,0.07412 -0.06272,0.03991 -0.165345,0.08267 -0.09978,0.04276 -0.230913,0.08267 -0.128285,0.03991 -0.262271,0.07127 -0.133987,0.03421 -0.259421,0.05131 -0.125434,0.01995 -0.21951,0.01995 -0.307884,0 -0.598663,-0.108329 -0.287928,-0.105479 -0.51314,-0.305033 -0.22236,-0.199554 -0.356347,-0.484632 -0.133986,-0.285078 -0.133986,-0.641425 0,-0.373451 0.128285,-0.69844 0.128285,-0.327839 0.359198,-0.570155 0.233763,-0.242316 0.555901,-0.382004 0.322138,-0.139688 0.709843,-0.139688 z m -0.03421,0.758306 q -0.116882,0 -0.216659,0.05131 -0.09693,0.04846 -0.179599,0.142539 -0.07982,0.09123 -0.139688,0.222361 -0.05987,0.128285 -0.09693,0.285077 0.29363,-0.05131 0.487482,-0.108329 0.193853,-0.05702 0.310735,-0.114031 0.116882,-0.05987 0.165345,-0.116882 0.04846,-0.05987 0.04846,-0.114031 0,-0.05131 -0.03991,-0.09693 -0.03706,-0.04561 -0.09408,-0.07982 -0.05702,-0.03421 -0.125434,-0.05131 -0.06557,-0.01996 -0.119733,-0.01996 z"
         id="path2558" />
      <path
         d="m -16.542186,33.944574 q 0,-0.0029 -0.0029,-0.0029 0,-0.0029 0,-0.0057 0,-0.03706 0.03991,-0.03706 0.02566,0 0.04561,0.01996 0.114031,0.108329 0.25942,0.176748 0.148241,0.06842 0.319287,0.06842 0.04561,0 0.105479,-0.0086 0.05987,-0.0114 0.114031,-0.03421 0.05416,-0.02281 0.08837,-0.05987 0.03706,-0.03991 0.03706,-0.09693 0,-0.06272 -0.03136,-0.114031 -0.03136,-0.05417 -0.08267,-0.08837 -0.02851,-0.01996 -0.09978,-0.06842 -0.07127,-0.05131 -0.153942,-0.10833 -0.07982,-0.05702 -0.153942,-0.108329 -0.07127,-0.05131 -0.09978,-0.07412 -0.128285,-0.09693 -0.205256,-0.196703 -0.07412,-0.09978 -0.114031,-0.205256 -0.03991,-0.10833 -0.05131,-0.225211 -0.0114,-0.116882 -0.0114,-0.248018 0,-0.199554 0.105479,-0.376302 0.105478,-0.176749 0.276525,-0.310735 0.173897,-0.133987 0.393407,-0.210958 0.21951,-0.07982 0.447572,-0.07982 0.188151,0 0.370601,0.05701 0.18245,0.05702 0.339242,0.193853 0.01425,0.179599 0.01996,0.353496 0.0057,0.173898 0.0171,0.3649 0,0.03706 -0.0171,0.05131 -0.0171,0.0114 -0.03991,0.0114 -0.01996,0 -0.03421,-0.01425 -0.06557,-0.06272 -0.133987,-0.122584 -0.06842,-0.06272 -0.14539,-0.108329 -0.07412,-0.04846 -0.159643,-0.07697 -0.08552,-0.03136 -0.18245,-0.03136 -0.05987,0 -0.119732,0.0114 -0.05987,0.0086 -0.10833,0.03706 -0.04846,0.02566 -0.07982,0.07127 -0.02851,0.04561 -0.02851,0.116882 0,0.08267 0.01995,0.142539 0.01996,0.05987 0.09408,0.116882 l 0.530244,0.359197 q 0.14539,0.09978 0.233764,0.196704 0.09122,0.09408 0.142539,0.188151 0.05131,0.09408 0.06842,0.188151 0.01996,0.09123 0.01996,0.18245 0,0.25657 -0.119733,0.453274 -0.116882,0.193852 -0.305033,0.324988 -0.188151,0.128285 -0.427616,0.193853 -0.236615,0.06842 -0.47608,0.06842 -0.18245,0 -0.353496,-0.03991 -0.168196,-0.03706 -0.313586,-0.116882 z"
         id="path2560" />
      <path
         d="m -11.279654,34.879628 q -0.40196,0 -0.706993,-0.131135 -0.302182,-0.131136 -0.507438,-0.347795 -0.205256,-0.21951 -0.307884,-0.501737 -0.102628,-0.285077 -0.102628,-0.59011 0,-0.305033 0.09978,-0.578708 0.09978,-0.276525 0.279377,-0.493184 0.179598,-0.21951 0.430467,-0.3649 0.250868,-0.14824 0.55305,-0.199554 0.04561,-0.0029 0.04561,-0.01995 0,-0.03136 -0.0086,-0.05702 -0.0057,-0.02851 -0.0057,-0.04846 0,-0.03136 0.0114,-0.04276 0.0114,-0.0114 0.02566,-0.0114 0.544498,0 0.926502,0.125434 0.382004,0.122584 0.6214695,0.336392 0.2394652,0.213808 0.3477947,0.504587 0.1083295,0.29078 0.1083295,0.62432 0,0.424766 -0.1425388,0.758307 -0.1425388,0.333541 -0.3905559,0.564454 -0.245167,0.230912 -0.575857,0.350645 -0.32784,0.122583 -0.701291,0.122583 z m -0.527394,-1.602136 q 0,0.153942 0.03136,0.305033 0.03421,0.151091 0.108329,0.273675 0.07697,0.122583 0.199555,0.199554 0.122583,0.07412 0.305033,0.07412 0.131135,-0.0057 0.228062,-0.05701 0.09978,-0.05416 0.171046,-0.136837 0.07127,-0.08552 0.116882,-0.191003 0.04846,-0.105478 0.07412,-0.216659 0.02851,-0.114031 0.03991,-0.22236 0.0114,-0.10833 0.0114,-0.196704 0,-0.14824 -0.04561,-0.290779 -0.04276,-0.142539 -0.128285,-0.250868 -0.08552,-0.10833 -0.213808,-0.173897 -0.125434,-0.06842 -0.29078,-0.06842 -0.171046,0 -0.287928,0.102628 -0.116882,0.09978 -0.188151,0.248017 -0.06842,0.148241 -0.09978,0.313586 -0.03136,0.162494 -0.03136,0.287928 z"
         id="path2562" />
      <path
         d="m -8.7852218,34.77415 q 0.00285,-0.03136 0.011403,-0.133987 0.011403,-0.105478 0.025657,-0.265122 0.014254,-0.159643 0.031359,-0.364899 0.019955,-0.208107 0.042762,-0.444721 0.022806,-0.239466 0.045612,-0.498886 0.025657,-0.259421 0.051314,-0.524543 H -8.956268 q -0.153942,0 -0.2223606,-0.0114 -0.068419,-0.01425 -0.068419,-0.05416 0,-0.0114 0.028508,-0.05987 0.028508,-0.05131 0.071269,-0.119733 0.045613,-0.07127 0.096926,-0.151091 0.051314,-0.07982 0.096926,-0.14824 0.048463,-0.07127 0.082672,-0.122584 0.034209,-0.05131 0.042762,-0.06272 h 0.3477947 l 0.057015,-0.453273 q 0.039911,-0.359198 0.1425388,-0.604365 0.1054788,-0.245167 0.2594207,-0.396258 0.1567927,-0.151091 0.356347,-0.216659 0.1995544,-0.06557 0.4276165,-0.06557 0.2280621,0 0.4732288,0.05702 0.2480176,0.05417 0.4988859,0.151091 0.054165,0.02281 0.079822,0.03991 0.028508,0.01425 0.028508,0.03991 0,0.02281 -0.019955,0.05987 -0.091225,0.176748 -0.1368373,0.285078 -0.042762,0.108329 -0.068419,0.171046 -0.025657,0.06272 -0.042762,0.08552 -0.017105,0.01995 -0.051314,0.01995 -0.017105,0 -0.03706,-0.0086 -0.017105,-0.0086 -0.042762,-0.01996 -0.099777,-0.03706 -0.2024051,-0.06557 -0.099777,-0.03136 -0.191002,-0.03136 -0.128285,0 -0.2223606,0.07982 -0.091225,0.07982 -0.1453896,0.302182 -0.031359,0.128285 -0.051314,0.276525 -0.019956,0.148241 -0.034209,0.29363 h 0.7440527 q 0.022806,0 0.042762,0.01711 0.022806,0.01425 0.022806,0.05131 0,0.01425 -0.034209,0.102628 -0.034209,0.08837 -0.096926,0.230913 l -0.1026279,0.230912 q -0.019956,0.04276 -0.042762,0.06272 -0.019955,0.01995 -0.085523,0.02566 h -0.4931843 q -0.031358,0.29648 -0.059866,0.587259 -0.028508,0.29078 -0.054165,0.54735 -0.025657,0.253719 -0.045612,0.453273 -0.019955,0.196704 -0.031359,0.305033 -0.00285,0.0086 -0.00285,0.03136 0,0.0114 0,0.01995 0.00285,0.0086 0.00285,0.01425 0,0.02566 -0.019955,0.04276 -0.017105,0.01425 -0.094076,0.03421 l -0.7497542,0.265122 q -0.031359,0.0114 -0.082673,0.02851 -0.051314,0.0171 -0.099777,0.0171 -0.048463,0 -0.07412,-0.02281 -0.025657,-0.02281 -0.025657,-0.08267 z"
         id="path2564" />
      <path
         d="m -56.142319,39.831427 q -0.03991,0.299331 -0.07697,0.598663 -0.03421,0.296481 -0.04276,0.555901 0,0.111181 0.0171,0.185301 0.0171,0.07412 0.04846,0.116882 0.03421,0.04276 0.07982,0.06272 0.04561,0.0171 0.102628,0.0171 0.09123,0 0.199554,-0.02566 0.10833,-0.02851 0.216659,-0.07127 0.03421,-0.01425 0.05702,-0.01995 0.02566,-0.0086 0.04276,-0.0086 0.02851,0 0.03706,0.02566 0.0114,0.02566 0.01996,0.09123 0.0114,0.06272 0.03136,0.171047 0.01996,0.108329 0.06557,0.273674 0.0029,0.01425 0.0029,0.02566 0.0029,0.0086 0.0029,0.01711 0,0.03991 -0.03136,0.05701 -0.02851,0.0171 -0.09693,0.03991 -0.116882,0.03991 -0.248018,0.08267 -0.128285,0.03991 -0.25657,0.07412 -0.125434,0.03421 -0.242316,0.05416 -0.116881,0.02281 -0.205256,0.02281 -0.476079,0 -0.695589,-0.236615 -0.216659,-0.236614 -0.216659,-0.721246 0,-0.08267 0.0057,-0.168196 0.0057,-0.08837 0.01425,-0.18245 0.02851,-0.285077 0.04846,-0.538796 0.02281,-0.25657 0.04561,-0.490334 h -0.299331 q -0.153942,0 -0.222361,-0.0114 -0.06842,-0.01425 -0.06842,-0.05416 0,-0.0114 0.02851,-0.05987 0.02851,-0.05131 0.07127,-0.119733 0.04561,-0.07127 0.09693,-0.151091 0.05131,-0.07982 0.09693,-0.14824 0.04846,-0.07127 0.08267,-0.122583 0.03421,-0.05131 0.04276,-0.06272 h 0.202405 q 0.02566,-0.216659 0.03991,-0.362048 0.01711,-0.14824 0.02566,-0.245167 0.0114,-0.09693 0.01996,-0.14824 0.0086,-0.05417 0.01711,-0.07982 0.0114,-0.02566 0.02566,-0.03136 0.0171,-0.0086 0.04276,-0.01425 0.128285,-0.02566 0.248018,-0.04561 0.119732,-0.02281 0.239465,-0.04561 0.119733,-0.02281 0.242316,-0.05131 0.125434,-0.03136 0.259421,-0.07127 0.0086,0 0.0114,0 0.0029,-0.0028 0.0114,-0.0028 0.03421,0 0.03421,0.02281 v 0.0057 q -0.01425,0.156793 -0.04561,0.436169 -0.02851,0.279376 -0.06557,0.632872 h 0.764008 q 0.02281,0 0.04276,0.01711 0.02281,0.01425 0.02281,0.05131 0,0.01425 -0.03421,0.102628 -0.03421,0.08837 -0.09693,0.230913 l -0.102628,0.230913 q -0.01996,0.04276 -0.04276,0.06272 -0.01995,0.01995 -0.08552,0.02566 z"
         id="path2566" />
      <path
         d="m -54.691274,37.884347 q 0,-0.01711 -0.0029,-0.03136 0,-0.01425 0,-0.02851 0,-0.02566 0.01996,-0.04276 0.01995,-0.01996 0.09693,-0.03991 l 0.801068,-0.191002 q 0.03136,-0.0057 0.08267,-0.02566 0.05131,-0.01996 0.09978,-0.01996 0.09978,0 0.09978,0.09123 0,0.0057 -0.0086,0.116882 -0.0086,0.11118 -0.02281,0.276525 -0.01425,0.165345 -0.03136,0.362049 -0.01711,0.193853 -0.03421,0.370601 -0.01711,0.176748 -0.03136,0.310735 -0.01425,0.131135 -0.02281,0.171046 0.133986,-0.07412 0.279376,-0.139688 0.145389,-0.06557 0.290779,-0.114031 0.14824,-0.04846 0.29363,-0.07412 0.14824,-0.02851 0.285078,-0.02851 0.173897,0 0.324988,0.05131 0.151091,0.04846 0.262272,0.165345 0.114031,0.114031 0.176748,0.302182 0.06557,0.185301 0.06557,0.456125 0,0.06842 -0.0029,0.142538 -0.0029,0.07127 -0.0114,0.148241 l -0.122584,1.165967 q -0.01425,0.119733 -0.0171,0.250869 -0.0029,0.128285 -0.0029,0.265122 0,0.02281 0,0.03991 0.0029,0.01425 0.0029,0.02566 0,0.02566 -0.02281,0.03991 -0.01995,0.01425 -0.09407,0.03706 l -0.69844,0.193852 q -0.03136,0.0086 -0.08267,0.02566 -0.05131,0.01996 -0.09978,0.01996 -0.04846,0 -0.07412,-0.02281 -0.02566,-0.01996 -0.02566,-0.08267 0.01995,-0.213808 0.03136,-0.344944 0.01425,-0.131136 0.01996,-0.208107 0.0086,-0.07982 0.01425,-0.119732 0.0057,-0.04276 0.0086,-0.07412 0.0029,-0.03421 0.0086,-0.07412 0.0057,-0.04276 0.0114,-0.122584 0.0086,-0.07982 0.01996,-0.210957 0.01425,-0.131136 0.03421,-0.344944 0.0114,-0.114031 0.02281,-0.225212 0.01425,-0.114031 0.01425,-0.208106 0,-0.119733 -0.01425,-0.216659 -0.0114,-0.09978 -0.04561,-0.168196 -0.03136,-0.07127 -0.08837,-0.11118 -0.05702,-0.03991 -0.14539,-0.03991 -0.06557,0 -0.179599,0.02851 -0.11118,0.02851 -0.225211,0.09408 -0.11118,0.06557 -0.199554,0.173898 -0.08552,0.105478 -0.09693,0.262271 -0.02281,0.21951 -0.03706,0.359198 -0.0114,0.139688 -0.01995,0.230913 -0.0086,0.09122 -0.01425,0.145389 -0.0029,0.05417 -0.0057,0.09978 -0.0029,0.01425 -0.0086,0.07127 -0.0057,0.05417 -0.01425,0.131136 -0.0086,0.07697 -0.01711,0.165345 -0.0086,0.08552 -0.0171,0.162494 -0.0057,0.07697 -0.0114,0.133986 -0.0029,0.05416 -0.0029,0.06842 0,0.02281 0,0.03991 0.0029,0.01425 0.0029,0.02851 0,0.02281 -0.02281,0.03991 -0.01996,0.01425 -0.09408,0.03421 l -0.744053,0.25942 q -0.03136,0.0114 -0.08267,0.02851 -0.05131,0.01711 -0.09978,0.01711 -0.04276,0 -0.07127,-0.02566 -0.02851,-0.02281 -0.02851,-0.07982 z"
         id="path2568" />
      <path
         d="m -49.531369,38.847909 q 0.270824,0 0.490333,0.102628 0.222361,0.09978 0.379154,0.262271 0.159643,0.159644 0.245166,0.359198 0.08552,0.199555 0.08552,0.399109 0,0.176748 -0.10833,0.356347 -0.108329,0.176748 -0.305033,0.319287 -0.193853,0.142539 -0.467527,0.230913 -0.273675,0.08837 -0.601514,0.08837 -0.171047,0 -0.359198,-0.03421 0.0114,0.122583 0.07127,0.210957 0.05987,0.08837 0.151091,0.14539 0.09122,0.05701 0.205256,0.08552 0.116881,0.02566 0.239465,0.02566 0.136837,0 0.262271,-0.02281 0.128285,-0.02566 0.245167,-0.06557 0.116882,-0.03991 0.225211,-0.08837 0.10833,-0.04846 0.205256,-0.09693 0.02566,-0.0057 0.04276,-0.0086 0.01995,-0.0057 0.03706,-0.0057 0,0 -0.0029,0.04561 0,0.04561 0,0.128285 0,0.08267 -0.0029,0.199554 0,0.116882 -0.0028,0.259421 0.0086,0.01425 0.0114,0.02851 0.0029,0.01425 0.0029,0.02281 0,0.03421 -0.06272,0.07412 -0.06272,0.03991 -0.165345,0.08267 -0.09978,0.04276 -0.230912,0.08267 -0.128285,0.03991 -0.262272,0.07127 -0.133986,0.03421 -0.259421,0.05131 -0.125434,0.01996 -0.219509,0.01996 -0.307884,0 -0.598663,-0.10833 -0.287929,-0.105478 -0.51314,-0.305033 -0.222361,-0.199554 -0.356347,-0.484632 -0.133987,-0.285077 -0.133987,-0.641424 0,-0.373452 0.128285,-0.698441 0.128285,-0.327839 0.359198,-0.570155 0.233764,-0.242316 0.555902,-0.382004 0.322137,-0.139688 0.709843,-0.139688 z m -0.03421,0.758307 q -0.116881,0 -0.216659,0.05131 -0.09693,0.04846 -0.179598,0.142538 -0.07982,0.09122 -0.139688,0.222361 -0.05987,0.128285 -0.09693,0.285078 0.29363,-0.05131 0.487483,-0.10833 0.193853,-0.05701 0.310735,-0.114031 0.116881,-0.05987 0.165345,-0.116882 0.04846,-0.05987 0.04846,-0.114031 0,-0.05131 -0.03991,-0.09693 -0.03706,-0.04561 -0.09408,-0.07982 -0.05701,-0.03421 -0.125434,-0.05131 -0.06557,-0.01995 -0.119733,-0.01995 z"
         id="path2570" />
      <path
         d="m -45.446206,40.039534 q -0.01711,0.273674 -0.03136,0.444721 -0.0114,0.171046 -0.01996,0.279376 -0.0086,0.105478 -0.01425,0.168196 -0.0057,0.05987 -0.0086,0.114031 0.06557,0.171046 0.193852,0.279376 0.128285,0.105478 0.307884,0.105478 0.156793,0 0.273675,-0.09693 0.119732,-0.09978 0.196703,-0.25657 0.07982,-0.156793 0.119733,-0.350645 0.03991,-0.193853 0.03991,-0.384855 0,-0.156793 -0.02851,-0.290779 -0.02566,-0.133987 -0.07982,-0.230913 -0.05416,-0.09978 -0.136837,-0.153942 -0.07982,-0.05702 -0.191002,-0.05702 -0.09123,0 -0.18245,0.03706 -0.08837,0.03421 -0.171046,0.09122 -0.08267,0.05417 -0.151091,0.125434 -0.06557,0.06842 -0.10833,0.133987 z m 0.05701,-0.835278 q 0.239466,-0.162494 0.501737,-0.259421 0.262271,-0.09693 0.547349,-0.09693 0.267973,0 0.461826,0.11118 0.196703,0.10833 0.324988,0.296481 0.128285,0.185301 0.188152,0.427617 0.06272,0.242316 0.06272,0.507438 0,0.230913 -0.04561,0.467527 -0.04561,0.236614 -0.133986,0.458975 -0.08837,0.21951 -0.21951,0.413363 -0.131136,0.193852 -0.302182,0.339242 -0.168196,0.142539 -0.376303,0.225211 -0.208106,0.08267 -0.450422,0.08267 -0.213809,0 -0.410512,-0.08552 -0.193853,-0.08552 -0.3649,-0.222361 0,0.01425 -0.0086,0.105479 -0.0057,0.08837 -0.01711,0.216659 -0.0114,0.128285 -0.02566,0.273674 -0.01425,0.148241 -0.02566,0.276526 -0.0114,0.128284 -0.01996,0.216659 -0.0057,0.09122 -0.0057,0.105478 0,0.02281 0,0.03706 0.0029,0.01711 0.0029,0.03136 0,0.02281 -0.02281,0.03706 -0.01995,0.01711 -0.09408,0.03706 l -0.749754,0.191002 q -0.03136,0.0086 -0.08267,0.02566 -0.05131,0.01995 -0.09978,0.01995 -0.03991,0 -0.07127,-0.01995 -0.02851,-0.01996 -0.02851,-0.07412 l 0.347795,-4.173537 q 0.0086,-0.09407 0.01996,-0.128285 0.01425,-0.03706 0.06557,-0.04846 0.259421,-0.05131 0.533096,-0.102628 0.273674,-0.05416 0.533095,-0.136837 0.02281,0 0.02566,0.0086 0.0057,0.0057 0.0057,0.01996 0,0.0057 -0.0029,0.0171 0,0.0114 -0.0086,0.05131 -0.0057,0.03991 -0.01996,0.122584 -0.0114,0.07982 -0.03421,0.225211 z"
         id="path2572" />
      <path
         d="m -41.244163,38.847909 q 0.270824,0 0.490334,0.102628 0.222361,0.09978 0.379153,0.262271 0.159644,0.159644 0.245167,0.359198 0.08552,0.199555 0.08552,0.399109 0,0.176748 -0.108329,0.356347 -0.10833,0.176748 -0.305033,0.319287 -0.193853,0.142539 -0.467528,0.230913 -0.273674,0.08837 -0.601513,0.08837 -0.171047,0 -0.359198,-0.03421 0.0114,0.122583 0.07127,0.210957 0.05987,0.08837 0.151091,0.14539 0.09123,0.05701 0.205256,0.08552 0.116882,0.02566 0.239465,0.02566 0.136838,0 0.262272,-0.02281 0.128285,-0.02566 0.245167,-0.06557 0.116881,-0.03991 0.225211,-0.08837 0.108329,-0.04846 0.205256,-0.09693 0.02566,-0.0057 0.04276,-0.0086 0.01996,-0.0057 0.03706,-0.0057 0,0 -0.0029,0.04561 0,0.04561 0,0.128285 0,0.08267 -0.0029,0.199554 0,0.116882 -0.0029,0.259421 0.0086,0.01425 0.0114,0.02851 0.0029,0.01425 0.0029,0.02281 0,0.03421 -0.06272,0.07412 -0.06272,0.03991 -0.165345,0.08267 -0.09978,0.04276 -0.230913,0.08267 -0.128285,0.03991 -0.262271,0.07127 -0.133987,0.03421 -0.259421,0.05131 -0.125434,0.01996 -0.21951,0.01996 -0.307884,0 -0.598663,-0.10833 -0.287928,-0.105478 -0.513139,-0.305033 -0.222361,-0.199554 -0.356347,-0.484632 -0.133987,-0.285077 -0.133987,-0.641424 0,-0.373452 0.128285,-0.698441 0.128285,-0.327839 0.359198,-0.570155 0.233763,-0.242316 0.555901,-0.382004 0.322138,-0.139688 0.709843,-0.139688 z m -0.03421,0.758307 q -0.116882,0 -0.216659,0.05131 -0.09693,0.04846 -0.179599,0.142538 -0.07982,0.09122 -0.139688,0.222361 -0.05987,0.128285 -0.09693,0.285078 0.29363,-0.05131 0.487483,-0.10833 0.193852,-0.05701 0.310734,-0.114031 0.116882,-0.05987 0.165345,-0.116882 0.04846,-0.05987 0.04846,-0.114031 0,-0.05131 -0.03991,-0.09693 -0.03706,-0.04561 -0.09408,-0.07982 -0.05702,-0.03421 -0.125434,-0.05131 -0.06557,-0.01995 -0.119733,-0.01995 z"
         id="path2574" />
      <path
         d="m -37.355704,39.708844 q -0.05987,-0.0057 -0.133986,-0.0114 -0.07412,-0.0086 -0.156793,-0.0086 -0.125434,0 -0.25657,0.02281 -0.128285,0.01996 -0.239465,0.08267 -0.11118,0.06272 -0.191002,0.173897 -0.07982,0.10833 -0.102628,0.282227 -0.01995,0.210957 -0.03421,0.347795 -0.0114,0.133986 -0.01711,0.22236 -0.0057,0.08552 -0.0114,0.139688 -0.0029,0.05131 -0.0057,0.09693 0,0.0114 -0.0057,0.06272 -0.0029,0.05131 -0.0114,0.119732 -0.0086,0.06842 -0.01711,0.148241 -0.0057,0.07982 -0.01425,0.14824 -0.0086,0.06842 -0.01425,0.119733 -0.0029,0.05131 -0.0029,0.06272 0,0.02281 0,0.03991 0.0029,0.01425 0.0029,0.02851 0,0.02281 -0.02281,0.03991 -0.01996,0.01425 -0.09408,0.03421 l -0.755456,0.270823 q -0.03136,0.0114 -0.08267,0.02851 -0.05131,0.01711 -0.09978,0.01711 -0.03991,0 -0.07127,-0.01996 -0.02851,-0.01996 -0.02851,-0.06842 l 0.245167,-2.82512 q 0.0086,-0.09408 0.01995,-0.128285 0.01425,-0.03706 0.06557,-0.04846 0.259421,-0.05131 0.535946,-0.102628 0.276525,-0.05416 0.535946,-0.136837 0.02281,0 0.02566,0.0086 0.0057,0.0057 0.0057,0.01996 0,0.0057 -0.0029,0.0171 0,0.0114 -0.0086,0.05131 -0.0057,0.03991 -0.01995,0.122584 -0.0114,0.07982 -0.03421,0.225211 0.131135,-0.102628 0.287928,-0.188151 0.159644,-0.08552 0.319287,-0.14539 0.159644,-0.06272 0.307884,-0.09693 0.14824,-0.03706 0.259421,-0.03706 z"
         id="path2576" />
      <path
         d="m -37.096282,41.242561 q 0,-0.0029 -0.0029,-0.0029 0,-0.0029 0,-0.0057 0,-0.03706 0.03991,-0.03706 0.02566,0 0.04561,0.01996 0.114032,0.10833 0.259421,0.176748 0.14824,0.06842 0.319287,0.06842 0.04561,0 0.105479,-0.0086 0.05987,-0.0114 0.114031,-0.03421 0.05417,-0.02281 0.08837,-0.05987 0.03706,-0.03991 0.03706,-0.09693 0,-0.06272 -0.03136,-0.114031 -0.03136,-0.05416 -0.08267,-0.08837 -0.02851,-0.01995 -0.09978,-0.06842 -0.07127,-0.05131 -0.153942,-0.10833 -0.07982,-0.05701 -0.153942,-0.108329 -0.07127,-0.05131 -0.09978,-0.07412 -0.128285,-0.09693 -0.205256,-0.196704 -0.07412,-0.09978 -0.114031,-0.205256 -0.03991,-0.108329 -0.05131,-0.225211 -0.0114,-0.116882 -0.0114,-0.248018 0,-0.199554 0.105478,-0.376302 0.105479,-0.176748 0.276526,-0.310735 0.173897,-0.133986 0.393407,-0.210957 0.21951,-0.07982 0.447572,-0.07982 0.188151,0 0.370601,0.05702 0.182449,0.05701 0.339242,0.193852 0.01425,0.179599 0.01995,0.353497 0.0057,0.173897 0.01711,0.364899 0,0.03706 -0.01711,0.05131 -0.0171,0.0114 -0.03991,0.0114 -0.01996,0 -0.03421,-0.01425 -0.06557,-0.06272 -0.133986,-0.122583 -0.06842,-0.06272 -0.14539,-0.10833 -0.07412,-0.04846 -0.159643,-0.07697 -0.08552,-0.03136 -0.18245,-0.03136 -0.05987,0 -0.119733,0.0114 -0.05987,0.0086 -0.108329,0.03706 -0.04846,0.02566 -0.07982,0.07127 -0.02851,0.04561 -0.02851,0.116882 0,0.08267 0.01996,0.142539 0.01996,0.05987 0.09408,0.116882 l 0.530244,0.359198 q 0.14539,0.09978 0.233764,0.196703 0.09122,0.09408 0.142538,0.188152 0.05131,0.09407 0.06842,0.188151 0.01996,0.09123 0.01996,0.182449 0,0.25657 -0.119732,0.453274 -0.116882,0.193853 -0.305033,0.324988 -0.188151,0.128285 -0.427617,0.193853 -0.236614,0.06842 -0.476079,0.06842 -0.18245,0 -0.353497,-0.03991 -0.168195,-0.03706 -0.313585,-0.116882 z"
         id="path2578" />
      <path
         d="m -33.088092,42.177616 q -0.401959,0 -0.706992,-0.131136 -0.302182,-0.131136 -0.507438,-0.347795 -0.205256,-0.219509 -0.307884,-0.501736 -0.102628,-0.285078 -0.102628,-0.590111 0,-0.305033 0.09978,-0.578708 0.09978,-0.276525 0.279376,-0.493184 0.179599,-0.21951 0.430467,-0.364899 0.250869,-0.148241 0.553051,-0.199555 0.04561,-0.0029 0.04561,-0.01996 0,-0.03136 -0.0086,-0.05702 -0.0057,-0.02851 -0.0057,-0.04846 0,-0.03136 0.0114,-0.04276 0.0114,-0.0114 0.02566,-0.0114 0.544498,0 0.926502,0.125434 0.382004,0.122583 0.621469,0.336391 0.239465,0.213809 0.347795,0.504588 0.108329,0.290779 0.108329,0.62432 0,0.424765 -0.142538,0.758306 -0.142539,0.333541 -0.390557,0.564454 -0.245167,0.230913 -0.575857,0.350645 -0.327839,0.122584 -0.701291,0.122584 z m -0.527393,-1.602136 q 0,0.153941 0.03136,0.305033 0.03421,0.151091 0.10833,0.273674 0.07697,0.122583 0.199554,0.199554 0.122584,0.07412 0.305033,0.07412 0.131136,-0.0057 0.228062,-0.05702 0.09978,-0.05416 0.171047,-0.136837 0.07127,-0.08552 0.116882,-0.191002 0.04846,-0.105479 0.07412,-0.216659 0.02851,-0.114031 0.03991,-0.222361 0.0114,-0.108329 0.0114,-0.196703 0,-0.148241 -0.04561,-0.290779 -0.04276,-0.142539 -0.128284,-0.250869 -0.08552,-0.108329 -0.213809,-0.173897 -0.125434,-0.06842 -0.290779,-0.06842 -0.171046,0 -0.287928,0.102628 -0.116882,0.09978 -0.188152,0.248018 -0.06842,0.14824 -0.09978,0.313585 -0.03136,0.162494 -0.03136,0.287929 z"
         id="path2580" />
      <path
         d="m -28.546806,42.132003 q -0.03136,0.0086 -0.08267,0.02566 -0.05131,0.01996 -0.09978,0.01996 -0.03991,0 -0.07127,-0.01996 -0.02851,-0.01996 -0.02851,-0.06842 v -0.01711 q 0.0171,-0.153942 0.02851,-0.259421 0.0114,-0.108329 0.01996,-0.193852 0.0114,-0.08837 0.0171,-0.173898 0.0086,-0.08837 0.01996,-0.202405 0.0114,-0.116882 0.02566,-0.273674 0.01711,-0.159644 0.03991,-0.396258 0.01425,-0.14539 0.02566,-0.296481 0.0114,-0.151091 0.0114,-0.279376 0,-0.08552 -0.01425,-0.156793 -0.0114,-0.07412 -0.04561,-0.125434 -0.03136,-0.05416 -0.08837,-0.08267 -0.05701,-0.02851 -0.145389,-0.02851 -0.06557,0 -0.18245,0.02851 -0.114031,0.02851 -0.228062,0.09408 -0.114031,0.06557 -0.202405,0.173898 -0.08837,0.105478 -0.09978,0.262271 -0.01711,0.210957 -0.03136,0.362049 -0.01425,0.14824 -0.02566,0.253719 -0.0114,0.102628 -0.01995,0.168195 -0.0057,0.06557 -0.0086,0.111181 -0.0029,0.0114 -0.0086,0.06272 -0.0057,0.05131 -0.01425,0.122583 -0.0057,0.07127 -0.01425,0.151091 -0.0057,0.07982 -0.01425,0.151091 -0.0057,0.07127 -0.0114,0.122584 -0.0029,0.05131 -0.0029,0.06272 0,0.02281 0,0.03991 0.0029,0.01425 0.0029,0.02851 0,0.02281 -0.02281,0.03991 -0.01995,0.01425 -0.09408,0.03421 l -0.755456,0.25942 q -0.03136,0.0114 -0.08267,0.02851 -0.05131,0.01711 -0.09978,0.01711 -0.03991,0 -0.07127,-0.01996 -0.02851,-0.01996 -0.02851,-0.06842 l 0.259421,-2.913494 q 0.0086,-0.09407 0.01995,-0.128285 0.01425,-0.03706 0.06557,-0.04846 0.259421,-0.05131 0.533095,-0.102628 0.273675,-0.05416 0.533095,-0.136837 0.02281,0 0.02566,0.0086 0.0057,0.0057 0.0057,0.01996 0,0.0057 -0.0029,0.0171 0,0.0114 -0.0086,0.05131 -0.0057,0.03991 -0.01996,0.122584 -0.0114,0.07982 -0.03421,0.225211 0.196704,-0.114031 0.36775,-0.18245 0.173897,-0.07127 0.324989,-0.108329 0.153942,-0.03991 0.287928,-0.05131 0.133987,-0.01425 0.250868,-0.01425 0.40196,0 0.584409,0.245167 0.18245,0.242316 0.18245,0.729799 0,0.06842 -0.0029,0.142538 -0.0028,0.07127 -0.0114,0.148241 l -0.131135,1.225834 q -0.01425,0.119732 -0.01711,0.22236 -0.0029,0.09978 -0.0029,0.233764 0,0.02281 0,0.03991 0.0029,0.01425 0.0029,0.02566 0,0.02566 -0.02281,0.03991 -0.01996,0.01425 -0.09408,0.03706 z"
         id="path2582" />
      <path
         d="m -25.835716,42.1206 0.142539,-1.949931 q 0.07127,-0.980667 0.105479,-1.439642 0.03421,-0.458975 0.03421,-0.456124 0.0029,-0.05131 0.0057,-0.08552 0.0028,-0.03421 0.0114,-0.05702 0.0086,-0.02281 0.02281,-0.03421 0.01425,-0.0114 0.04276,-0.01711 l 0.986368,-0.236614 q 0.03706,-0.0114 0.07697,-0.0114 0.03991,0 0.05417,0.02566 0.01425,0.02281 0.01425,0.09693 -0.01996,0.176748 -0.03136,0.33069 -0.0114,0.153942 -0.01995,0.29363 -0.0057,0.139688 -0.0114,0.270824 -0.0057,0.128285 -0.01425,0.25657 -0.0171,0.139688 -0.03136,0.279376 -0.0114,0.139688 -0.02281,0.290779 -0.0114,0.14824 -0.02566,0.316436 -0.0114,0.165345 -0.02851,0.362049 l -0.125434,1.502359 q -0.0029,0.02566 -0.0114,0.05131 -0.0057,0.02281 -0.03706,0.03706 -0.0029,0 -0.03421,0.0114 -0.03136,0.0114 -0.08267,0.03136 -0.05131,0.0171 -0.119732,0.03706 -0.06842,0.01996 -0.14539,0.03706 -0.128285,0.02851 -0.225211,0.05701 -0.09408,0.02851 -0.168196,0.05131 -0.07412,0.02566 -0.136837,0.03991 -0.06272,0.01425 -0.125435,0.01425 -0.04276,0 -0.07127,-0.02281 -0.02851,-0.02281 -0.02851,-0.08267 z"
         id="path2584" />
      <path
         d="m -57.482184,46.915606 q 0.03421,-0.390556 0.05416,-0.77256 0.02281,-0.382004 0.04846,-0.783964 0.0057,-0.09408 0.0171,-0.128285 0.01425,-0.03706 0.06557,-0.04846 0.265123,-0.04846 0.530245,-0.09693 0.267973,-0.05131 0.535946,-0.133987 0.0086,-0.0029 0.02566,-0.0029 0.03136,0 0.03136,0.02851 l -0.370601,4.070909 v 0.04846 q 0,0.02566 -0.01995,0.04276 -0.01996,0.01425 -0.09408,0.03421 l -0.746903,0.273674 q -0.03136,0.01425 -0.08267,0.02851 -0.05131,0.01711 -0.09978,0.01711 -0.03991,0 -0.07127,-0.01996 -0.02851,-0.01996 -0.02851,-0.06842 v -0.01711 q 0.02281,-0.287928 0.04276,-0.561603 0.02281,-0.276525 0.04561,-0.570155 0.02566,-0.29363 0.05416,-0.621469 0.02851,-0.32784 0.06272,-0.718396 z"
         id="path2586" />
      <path
         d="m -54.337778,49.475603 q -0.401959,0 -0.706992,-0.131136 -0.302183,-0.131135 -0.507439,-0.347794 -0.205255,-0.21951 -0.307883,-0.501737 -0.102628,-0.285078 -0.102628,-0.590111 0,-0.305033 0.09978,-0.578707 0.09978,-0.276525 0.279376,-0.493184 0.179599,-0.21951 0.430467,-0.3649 0.250868,-0.14824 0.553051,-0.199554 0.04561,-0.0029 0.04561,-0.01996 0,-0.03136 -0.0086,-0.05701 -0.0057,-0.02851 -0.0057,-0.04846 0,-0.03136 0.0114,-0.04276 0.0114,-0.0114 0.02566,-0.0114 0.544499,0 0.926503,0.125434 0.382004,0.122583 0.621469,0.336392 0.239465,0.213808 0.347795,0.504587 0.108329,0.290779 0.108329,0.62432 0,0.424766 -0.142539,0.758307 -0.142539,0.33354 -0.390556,0.564453 -0.245167,0.230913 -0.575857,0.350646 -0.327839,0.122583 -0.701291,0.122583 z m -0.527393,-1.602136 q 0,0.153942 0.03136,0.305033 0.03421,0.151091 0.10833,0.273674 0.07697,0.122584 0.199554,0.199555 0.122583,0.07412 0.305033,0.07412 0.131136,-0.0057 0.228062,-0.05702 0.09978,-0.05416 0.171047,-0.136837 0.07127,-0.08552 0.116881,-0.191002 0.04846,-0.105479 0.07412,-0.216659 0.02851,-0.114031 0.03991,-0.22236 0.0114,-0.10833 0.0114,-0.196704 0,-0.14824 -0.04561,-0.290779 -0.04276,-0.142539 -0.128285,-0.250868 -0.08552,-0.10833 -0.213808,-0.173898 -0.125434,-0.06842 -0.290779,-0.06842 -0.171047,0 -0.287929,0.102628 -0.116881,0.09978 -0.188151,0.248017 -0.06842,0.14824 -0.09978,0.313585 -0.03136,0.162495 -0.03136,0.287929 z"
         id="path2588" />
      <path
         d="m -49.796491,49.429991 q -0.03136,0.0086 -0.08267,0.02566 -0.05131,0.01996 -0.09978,0.01996 -0.03991,0 -0.07127,-0.01996 -0.02851,-0.01996 -0.02851,-0.06842 v -0.01711 q 0.0171,-0.153942 0.02851,-0.25942 0.0114,-0.10833 0.01996,-0.193853 0.0114,-0.08837 0.0171,-0.173897 0.0086,-0.08837 0.01996,-0.202405 0.0114,-0.116882 0.02566,-0.273675 0.01711,-0.159643 0.03991,-0.396258 0.01425,-0.14539 0.02566,-0.296481 0.0114,-0.151091 0.0114,-0.279376 0,-0.08552 -0.01425,-0.156792 -0.0114,-0.07412 -0.04561,-0.125435 -0.03136,-0.05416 -0.08837,-0.08267 -0.05702,-0.02851 -0.14539,-0.02851 -0.06557,0 -0.18245,0.02851 -0.114031,0.02851 -0.228062,0.09408 -0.114031,0.06557 -0.202405,0.173897 -0.08837,0.105479 -0.09978,0.262271 -0.01711,0.210958 -0.03136,0.362049 -0.01425,0.14824 -0.02566,0.253719 -0.0114,0.102628 -0.01996,0.168196 -0.0057,0.06557 -0.0086,0.11118 -0.0029,0.0114 -0.0086,0.06272 -0.0057,0.05131 -0.01425,0.122584 -0.0057,0.07127 -0.01425,0.151091 -0.0057,0.07982 -0.01425,0.151091 -0.0057,0.07127 -0.0114,0.122583 -0.0029,0.05131 -0.0029,0.06272 0,0.02281 0,0.03991 0.0029,0.01425 0.0029,0.02851 0,0.02281 -0.02281,0.03991 -0.01996,0.01425 -0.09408,0.03421 l -0.755456,0.259421 q -0.03136,0.0114 -0.08267,0.02851 -0.05131,0.01711 -0.09978,0.01711 -0.03991,0 -0.07127,-0.01996 -0.02851,-0.01996 -0.02851,-0.06842 l 0.259421,-2.913493 q 0.0086,-0.09408 0.01996,-0.128285 0.01425,-0.03706 0.06557,-0.04846 0.259421,-0.05131 0.533095,-0.102628 0.273675,-0.05417 0.533096,-0.136838 0.02281,0 0.02566,0.0086 0.0057,0.0057 0.0057,0.01996 0,0.0057 -0.0029,0.01711 0,0.0114 -0.0086,0.05131 -0.0057,0.03991 -0.01996,0.122583 -0.0114,0.07982 -0.03421,0.225211 0.196704,-0.114031 0.36775,-0.182449 0.173898,-0.07127 0.324989,-0.10833 0.153942,-0.03991 0.287928,-0.05131 0.133987,-0.01425 0.250869,-0.01425 0.401959,0 0.584409,0.245167 0.182449,0.242316 0.182449,0.729799 0,0.06842 -0.0029,0.142539 -0.0029,0.07127 -0.0114,0.14824 l -0.131136,1.225834 q -0.01425,0.119733 -0.01711,0.22236 -0.0029,0.09978 -0.0029,0.233764 0,0.02281 0,0.03991 0.0029,0.01425 0.0029,0.02566 0,0.02566 -0.02281,0.03991 -0.01995,0.01425 -0.09408,0.03706 z"
         id="path2590" />
      <path
         d="m -46.315693,47.294759 q -0.02851,-0.06557 -0.07982,-0.133986 -0.04846,-0.06842 -0.114031,-0.125434 -0.06557,-0.05702 -0.142538,-0.09123 -0.07697,-0.03706 -0.162495,-0.03706 -0.116882,0 -0.21951,0.09693 -0.102627,0.09693 -0.179598,0.259421 -0.07697,0.159643 -0.122584,0.36775 -0.04276,0.205256 -0.04276,0.427616 0,0.136838 0.02281,0.259421 0.02566,0.119733 0.07697,0.210957 0.05131,0.09123 0.131135,0.14539 0.08267,0.05417 0.196704,0.05417 0.171047,0 0.313585,-0.105479 0.142539,-0.108329 0.242316,-0.279376 0.0029,-0.05987 0.0086,-0.142539 0.0057,-0.08267 0.01425,-0.199554 0.0086,-0.119733 0.01996,-0.279376 0.01425,-0.162495 0.03421,-0.384855 z m 0.943607,1.721869 q -0.02851,0.282227 -0.128285,0.527394 -0.09978,0.245167 -0.253719,0.447572 -0.151091,0.205256 -0.347795,0.364899 -0.193852,0.162494 -0.413362,0.273675 -0.216659,0.11118 -0.447572,0.168195 -0.230913,0.05987 -0.456124,0.05987 -0.119733,0 -0.245167,-0.0086 -0.125434,-0.0086 -0.245167,-0.03421 -0.119732,-0.02281 -0.228062,-0.06842 -0.108329,-0.04276 -0.193853,-0.11118 v -0.0029 q 0,-0.01425 0.01996,-0.09978 0.02281,-0.08552 0.05131,-0.202405 0.03136,-0.114031 0.06272,-0.236614 0.03421,-0.122584 0.05701,-0.210958 0.0114,-0.03991 0.02281,-0.05416 0.0114,-0.01425 0.02566,-0.01425 0.01711,0 0.01996,0.0028 0.08267,0.05417 0.153942,0.08837 0.07412,0.03706 0.153942,0.05702 0.08267,0.02281 0.179599,0.03136 0.09693,0.0086 0.225211,0.0086 0.199554,0 0.353496,-0.07697 0.153942,-0.07697 0.265122,-0.199555 0.111181,-0.122583 0.176749,-0.270823 0.06842,-0.14539 0.09408,-0.287929 -0.205256,0.136838 -0.416213,0.222361 -0.210958,0.08552 -0.424766,0.08552 -0.29363,0 -0.507438,-0.119732 -0.213808,-0.116882 -0.353496,-0.316437 -0.139688,-0.199554 -0.208107,-0.456124 -0.06557,-0.25942 -0.06557,-0.541647 0,-0.222361 0.03991,-0.447572 0.04276,-0.228062 0.122583,-0.43902 0.08267,-0.210957 0.202406,-0.393407 0.119732,-0.1853 0.276525,-0.322138 0.156793,-0.136837 0.347795,-0.213808 0.191002,-0.07982 0.416213,-0.07982 0.245167,0 0.453273,0.10833 0.210958,0.108329 0.382004,0.267973 0.0057,-0.05131 0.0086,-0.07982 0.0029,-0.03136 0.01425,-0.04846 0.0114,-0.01711 0.03706,-0.02566 0.02851,-0.0086 0.07982,-0.01996 0.03136,-0.0057 0.114031,-0.02281 0.08267,-0.01995 0.196704,-0.04561 0.114031,-0.02566 0.250868,-0.05416 0.136838,-0.02851 0.276526,-0.05987 0.03421,-0.0086 0.06272,-0.0086 0.08837,0 0.08837,0.114031 0,0.01425 0,0.02851 0,0.0114 -0.0029,0.02566 z"
         id="path2592" />
      <path
         d="m -43.003091,46.145896 q 0.270824,0 0.490334,0.102628 0.22236,0.09978 0.379153,0.262272 0.159643,0.159643 0.245167,0.359198 0.08552,0.199554 0.08552,0.399108 0,0.176748 -0.10833,0.356347 -0.108329,0.176748 -0.305033,0.319287 -0.193852,0.142539 -0.467527,0.230913 -0.273674,0.08837 -0.601514,0.08837 -0.171046,0 -0.359198,-0.03421 0.0114,0.122583 0.07127,0.210957 0.05987,0.08837 0.151091,0.14539 0.09122,0.05701 0.205256,0.08552 0.116882,0.02566 0.239465,0.02566 0.136837,0 0.262272,-0.02281 0.128285,-0.02566 0.245166,-0.06557 0.116882,-0.03991 0.225212,-0.08837 0.108329,-0.04846 0.205256,-0.09693 0.02566,-0.0057 0.04276,-0.0086 0.01996,-0.0057 0.03706,-0.0057 0,0 -0.0028,0.04561 0,0.04561 0,0.128285 0,0.08267 -0.0029,0.199555 0,0.116881 -0.0029,0.25942 0.0086,0.01425 0.0114,0.02851 0.0029,0.01425 0.0029,0.02281 0,0.03421 -0.06272,0.07412 -0.06272,0.03991 -0.165345,0.08267 -0.09978,0.04276 -0.230913,0.08267 -0.128285,0.03991 -0.262272,0.07127 -0.133986,0.03421 -0.25942,0.05131 -0.125434,0.01996 -0.21951,0.01996 -0.307884,0 -0.598663,-0.108329 -0.287928,-0.105479 -0.51314,-0.305033 -0.22236,-0.199555 -0.356347,-0.484632 -0.133986,-0.285078 -0.133986,-0.641425 0,-0.373452 0.128285,-0.69844 0.128285,-0.32784 0.359197,-0.570156 0.233764,-0.242316 0.555902,-0.382004 0.322138,-0.139688 0.709843,-0.139688 z m -0.03421,0.758307 q -0.116882,0 -0.216659,0.05131 -0.09693,0.04846 -0.179599,0.142539 -0.07982,0.09123 -0.139688,0.22236 -0.05987,0.128285 -0.09693,0.285078 0.293629,-0.05131 0.487482,-0.10833 0.193853,-0.05701 0.310735,-0.114031 0.116882,-0.05987 0.165345,-0.116881 0.04846,-0.05987 0.04846,-0.114032 0,-0.05131 -0.03991,-0.09693 -0.03706,-0.04561 -0.09407,-0.07982 -0.05702,-0.03421 -0.125435,-0.05131 -0.06557,-0.01995 -0.119732,-0.01995 z"
         id="path2594" />
      <path
         d="m -39.288529,47.705271 q 0.0086,-0.09123 0.0171,-0.191002 0.0114,-0.09978 0.02566,-0.208107 -0.06557,-0.171046 -0.1853,-0.276525 -0.119733,-0.108329 -0.299332,-0.108329 -0.176748,0 -0.299331,0.102628 -0.122583,0.09978 -0.196704,0.248017 -0.07412,0.14824 -0.108329,0.313585 -0.03136,0.162495 -0.03136,0.287929 0,0.153942 0.01711,0.305033 0.01996,0.151091 0.05987,0.273674 0.04276,0.122584 0.111181,0.199555 0.06842,0.07412 0.171046,0.07412 0.250868,-0.0086 0.407661,-0.114031 0.156793,-0.105479 0.250868,-0.25657 z m 0.994921,1.334163 q 0,0.0057 -0.0029,0.01425 0,0.0057 0,0.0114 0,0.01425 0,0.02281 0.0029,0.0086 0.0029,0.0171 0,0.02566 -0.01996,0.04276 -0.0171,0.01425 -0.09408,0.03421 l -0.764008,0.248018 q -0.03136,0.0114 -0.08267,0.02851 -0.05131,0.01711 -0.09978,0.01711 -0.03991,0 -0.07127,-0.01996 -0.02851,-0.01996 -0.02851,-0.07412 0,-0.05131 0,-0.08267 0.0029,-0.03136 0.0029,-0.05702 0.0029,-0.02851 0.0057,-0.05987 0.0057,-0.03136 0.0114,-0.08267 -0.213808,0.171046 -0.44187,0.273674 -0.225211,0.102628 -0.47608,0.102628 -0.273674,0 -0.487483,-0.131136 -0.210957,-0.128285 -0.356347,-0.344943 -0.145389,-0.21951 -0.22236,-0.498886 -0.07412,-0.282227 -0.07412,-0.58726 0,-0.396258 0.128285,-0.721247 0.131135,-0.327839 0.353496,-0.558752 0.22236,-0.233763 0.518841,-0.359198 0.296481,-0.128285 0.630022,-0.128285 0.179599,0 0.342093,0.09408 0.165345,0.09408 0.310735,0.242316 0.0086,-0.139688 0.01995,-0.302182 0.0114,-0.165345 0.02281,-0.333541 0.0114,-0.171047 0.02281,-0.336392 0.0114,-0.165345 0.01996,-0.302182 0,-0.02566 0.0171,-0.03991 0.01996,-0.01711 0.09693,-0.03706 l 0.801068,-0.191002 q 0.03136,-0.0057 0.08267,-0.02566 0.05131,-0.01996 0.09978,-0.01996 0.03706,0 0.06842,0.0171 0.03421,0.01711 0.03421,0.06557 0,0.0057 -0.0029,0.02566 0,0.01711 0,0.02281 z"
         id="path2596" />
      <path
         d="m -34.866976,47.129414 q -0.03991,0.299332 -0.07697,0.598663 -0.03421,0.296481 -0.04276,0.555902 0,0.11118 0.01711,0.1853 0.0171,0.07412 0.04846,0.116882 0.03421,0.04276 0.07982,0.06272 0.04561,0.0171 0.102628,0.0171 0.09122,0 0.199554,-0.02566 0.108329,-0.02851 0.216659,-0.07127 0.03421,-0.01425 0.05701,-0.01996 0.02566,-0.0086 0.04276,-0.0086 0.02851,0 0.03706,0.02566 0.0114,0.02566 0.01996,0.09122 0.0114,0.06272 0.03136,0.171047 0.01996,0.108329 0.06557,0.273674 0.0029,0.01425 0.0029,0.02566 0.0029,0.0086 0.0029,0.01711 0,0.03991 -0.03136,0.05702 -0.02851,0.0171 -0.09693,0.03991 -0.116882,0.03991 -0.248018,0.08267 -0.128285,0.03991 -0.25657,0.07412 -0.125434,0.03421 -0.242316,0.05416 -0.116882,0.02281 -0.205256,0.02281 -0.476079,0 -0.695589,-0.236614 -0.216659,-0.236615 -0.216659,-0.721247 0,-0.08267 0.0057,-0.168195 0.0057,-0.08837 0.01425,-0.18245 0.02851,-0.285078 0.04846,-0.538797 0.02281,-0.25657 0.04561,-0.490333 h -0.299331 q -0.153942,0 -0.222361,-0.0114 -0.06842,-0.01425 -0.06842,-0.05416 0,-0.0114 0.02851,-0.05987 0.02851,-0.05131 0.07127,-0.119732 0.04561,-0.07127 0.09693,-0.151091 0.05131,-0.07982 0.09693,-0.148241 0.04846,-0.07127 0.08267,-0.122583 0.03421,-0.05131 0.04276,-0.06272 h 0.202406 q 0.02566,-0.216659 0.03991,-0.362049 0.01711,-0.14824 0.02566,-0.245167 0.0114,-0.09693 0.01996,-0.14824 0.0086,-0.05416 0.01711,-0.07982 0.0114,-0.02566 0.02566,-0.03136 0.01711,-0.0086 0.04276,-0.01425 0.128285,-0.02566 0.248018,-0.04561 0.119732,-0.02281 0.239465,-0.04561 0.119732,-0.02281 0.242316,-0.05131 0.125434,-0.03136 0.259421,-0.07127 0.0086,0 0.0114,0 0.0029,-0.0029 0.0114,-0.0029 0.03421,0 0.03421,0.02281 v 0.0057 q -0.01425,0.156792 -0.04561,0.436168 -0.02851,0.279377 -0.06557,0.632873 h 0.764008 q 0.02281,0 0.04276,0.0171 0.02281,0.01425 0.02281,0.05131 0,0.01425 -0.03421,0.102628 -0.03421,0.08837 -0.09693,0.230913 l -0.102628,0.230913 q -0.01996,0.04276 -0.04276,0.06272 -0.01995,0.01996 -0.08552,0.02566 z"
         id="path2598" />
      <path
         d="m -32.218604,49.475603 q -0.401959,0 -0.706992,-0.131136 -0.302183,-0.131135 -0.507439,-0.347794 -0.205255,-0.21951 -0.307883,-0.501737 -0.102628,-0.285078 -0.102628,-0.590111 0,-0.305033 0.09978,-0.578707 0.09978,-0.276525 0.279376,-0.493184 0.179599,-0.21951 0.430467,-0.3649 0.250868,-0.14824 0.553051,-0.199554 0.04561,-0.0029 0.04561,-0.01996 0,-0.03136 -0.0086,-0.05701 -0.0057,-0.02851 -0.0057,-0.04846 0,-0.03136 0.0114,-0.04276 0.0114,-0.0114 0.02566,-0.0114 0.544499,0 0.926503,0.125434 0.382004,0.122583 0.621469,0.336392 0.239465,0.213808 0.347795,0.504587 0.108329,0.290779 0.108329,0.62432 0,0.424766 -0.142539,0.758307 -0.142539,0.33354 -0.390556,0.564453 -0.245167,0.230913 -0.575857,0.350646 -0.327839,0.122583 -0.701291,0.122583 z m -0.527393,-1.602136 q 0,0.153942 0.03136,0.305033 0.03421,0.151091 0.10833,0.273674 0.07697,0.122584 0.199554,0.199555 0.122583,0.07412 0.305033,0.07412 0.131136,-0.0057 0.228062,-0.05702 0.09978,-0.05416 0.171047,-0.136837 0.07127,-0.08552 0.116882,-0.191002 0.04846,-0.105479 0.07412,-0.216659 0.02851,-0.114031 0.03991,-0.22236 0.0114,-0.10833 0.0114,-0.196704 0,-0.14824 -0.04561,-0.290779 -0.04276,-0.142539 -0.128285,-0.250868 -0.08552,-0.10833 -0.213808,-0.173898 -0.125434,-0.06842 -0.290779,-0.06842 -0.171047,0 -0.287929,0.102628 -0.116881,0.09978 -0.188151,0.248017 -0.06842,0.14824 -0.09978,0.313585 -0.03136,0.162495 -0.03136,0.287929 z"
         id="path2600" />
      <path
         d="m -27.586093,48.39801 q 0.02851,0.05701 0.07982,0.116882 0.05416,0.05701 0.122584,0.105478 0.07127,0.04846 0.153942,0.07982 0.08267,0.02851 0.171046,0.02851 0.122584,0 0.230913,-0.09408 0.10833,-0.09693 0.188151,-0.25657 0.08267,-0.162494 0.128285,-0.36775 0.04561,-0.208107 0.04561,-0.430467 0,-0.136837 -0.02566,-0.259421 -0.02281,-0.122583 -0.07412,-0.213808 -0.05131,-0.09123 -0.133987,-0.14539 -0.07982,-0.05416 -0.193853,-0.05416 -0.1853,0 -0.339242,0.108329 -0.153942,0.10833 -0.259421,0.276525 z m -1.060489,1.069041 q -0.03991,0.0086 -0.06272,0.0086 -0.09122,0 -0.09122,-0.108329 0,-0.01425 0,-0.02851 0.0029,-0.01425 0.0057,-0.03136 l 0.330691,-4.033848 q 0,-0.0086 0,-0.01711 0.0028,-0.0086 0.0028,-0.01425 0,-0.0114 -0.0028,-0.01995 0,-0.0086 0,-0.01425 0,-0.02566 0.0171,-0.03991 0.01996,-0.01711 0.09693,-0.03706 l 0.801068,-0.191002 q 0.03136,-0.0057 0.08267,-0.02566 0.05131,-0.01996 0.09978,-0.01996 0.03706,0 0.06842,0.0171 0.03421,0.01711 0.03421,0.06557 0,0.0057 -0.0028,0.0114 0,0.0057 0,0.0114 -0.0029,0.01425 -0.01425,0.125435 -0.0114,0.11118 -0.02566,0.270823 -0.01425,0.156793 -0.03136,0.339243 -0.01711,0.179599 -0.03136,0.339242 -0.01425,0.156793 -0.02566,0.267973 -0.0114,0.11118 -0.01425,0.125434 0.208106,-0.136837 0.430467,-0.228062 0.222361,-0.09408 0.444721,-0.09408 0.29363,0 0.507438,0.122584 0.213808,0.119732 0.353497,0.322138 0.139688,0.199554 0.205255,0.461825 0.06842,0.262272 0.06842,0.541648 0,0.225211 -0.04276,0.453273 -0.03991,0.225212 -0.119732,0.433318 -0.07697,0.208107 -0.196704,0.390557 -0.116882,0.182449 -0.270824,0.316436 -0.151091,0.133986 -0.339242,0.210957 -0.188151,0.07697 -0.407661,0.07697 -0.265122,0 -0.484632,-0.116882 -0.21951,-0.116882 -0.407661,-0.302182 -0.0057,0.06842 -0.0086,0.10833 -0.0029,0.03991 -0.01996,0.06272 -0.01425,0.01995 -0.04561,0.03421 -0.03136,0.0114 -0.09408,0.02566 -0.03136,0.0086 -0.11118,0.02851 -0.07697,0.0171 -0.188151,0.03991 -0.10833,0.02566 -0.242316,0.05416 -0.131136,0.02851 -0.267973,0.05702 z"
         id="path2602" />
      <path
         d="m -23.329885,46.145896 q 0.270824,0 0.490334,0.102628 0.222361,0.09978 0.379153,0.262272 0.159644,0.159643 0.245167,0.359198 0.08552,0.199554 0.08552,0.399108 0,0.176748 -0.108329,0.356347 -0.10833,0.176748 -0.305033,0.319287 -0.193853,0.142539 -0.467528,0.230913 -0.273674,0.08837 -0.601513,0.08837 -0.171047,0 -0.359198,-0.03421 0.0114,0.122583 0.07127,0.210957 0.05987,0.08837 0.151091,0.14539 0.09122,0.05701 0.205256,0.08552 0.116882,0.02566 0.239465,0.02566 0.136838,0 0.262272,-0.02281 0.128285,-0.02566 0.245167,-0.06557 0.116881,-0.03991 0.225211,-0.08837 0.108329,-0.04846 0.205256,-0.09693 0.02566,-0.0057 0.04276,-0.0086 0.01995,-0.0057 0.03706,-0.0057 0,0 -0.0029,0.04561 0,0.04561 0,0.128285 0,0.08267 -0.0029,0.199555 0,0.116881 -0.0029,0.25942 0.0086,0.01425 0.0114,0.02851 0.0029,0.01425 0.0029,0.02281 0,0.03421 -0.06272,0.07412 -0.06272,0.03991 -0.165345,0.08267 -0.09978,0.04276 -0.230913,0.08267 -0.128285,0.03991 -0.262271,0.07127 -0.133987,0.03421 -0.259421,0.05131 -0.125434,0.01996 -0.21951,0.01996 -0.307883,0 -0.598663,-0.108329 -0.287928,-0.105479 -0.513139,-0.305033 -0.222361,-0.199555 -0.356347,-0.484632 -0.133987,-0.285078 -0.133987,-0.641425 0,-0.373452 0.128285,-0.69844 0.128285,-0.32784 0.359198,-0.570156 0.233763,-0.242316 0.555901,-0.382004 0.322138,-0.139688 0.709843,-0.139688 z m -0.03421,0.758307 q -0.116882,0 -0.216659,0.05131 -0.09693,0.04846 -0.179599,0.142539 -0.07982,0.09123 -0.139688,0.22236 -0.05987,0.128285 -0.09693,0.285078 0.29363,-0.05131 0.487483,-0.10833 0.193852,-0.05701 0.310734,-0.114031 0.116882,-0.05987 0.165345,-0.116881 0.04846,-0.05987 0.04846,-0.114032 0,-0.05131 -0.03991,-0.09693 -0.03706,-0.04561 -0.09408,-0.07982 -0.05702,-0.03421 -0.125434,-0.05131 -0.06557,-0.01995 -0.119733,-0.01995 z"
         id="path2604" />
      <path
         d="m -21.858882,49.435692 q 0.0057,-0.133986 0.0086,-0.210957 0.0029,-0.07982 0.0029,-0.122584 0.0029,-0.04276 0.0029,-0.05987 0,-0.01711 0,-0.03136 0,-0.01711 0,-0.03991 0.0029,-0.02281 0.0057,-0.07412 0.0029,-0.05416 0.0086,-0.14539 0.0057,-0.09408 0.01425,-0.248018 0.0057,-0.09407 0.0171,-0.128285 0.01425,-0.03706 0.06557,-0.04561 0.250869,0 0.524543,0 0.273675,-0.0029 0.515991,-0.0057 0.02566,0 0.04276,0.01425 0.01711,0.01425 0.01711,0.05416 l -0.07982,0.895144 q -0.0114,0.09408 -0.02281,0.128285 -0.0086,0.03706 -0.06272,0.04276 -0.242316,0.0029 -0.498886,0.0057 -0.253719,0.0029 -0.530244,0.0029 -0.01711,0 -0.02566,-0.0029 -0.0057,-0.0029 -0.0057,-0.01711 z"
         id="path2606" />
      <path
         d="m -20.225387,49.435692 q 0.0057,-0.133986 0.0086,-0.210957 0.0028,-0.07982 0.0028,-0.122584 0.0029,-0.04276 0.0029,-0.05987 0,-0.01711 0,-0.03136 0,-0.01711 0,-0.03991 0.0029,-0.02281 0.0057,-0.07412 0.0029,-0.05416 0.0086,-0.14539 0.0057,-0.09408 0.01425,-0.248018 0.0057,-0.09407 0.01711,-0.128285 0.01425,-0.03706 0.06557,-0.04561 0.250868,0 0.524542,0 0.273675,-0.0029 0.515991,-0.0057 0.02566,0 0.04276,0.01425 0.0171,0.01425 0.0171,0.05416 l -0.07982,0.895144 q -0.0114,0.09408 -0.02281,0.128285 -0.0086,0.03706 -0.06272,0.04276 -0.242316,0.0029 -0.498886,0.0057 -0.253719,0.0029 -0.530244,0.0029 -0.01711,0 -0.02566,-0.0029 -0.0057,-0.0029 -0.0057,-0.01711 z"
         id="path2608" />
      <path
         d="m -18.591895,49.435692 q 0.0057,-0.133986 0.0086,-0.210957 0.0029,-0.07982 0.0029,-0.122584 0.0029,-0.04276 0.0029,-0.05987 0,-0.01711 0,-0.03136 0,-0.01711 0,-0.03991 0.0029,-0.02281 0.0057,-0.07412 0.0029,-0.05416 0.0086,-0.14539 0.0057,-0.09408 0.01425,-0.248018 0.0057,-0.09407 0.0171,-0.128285 0.01425,-0.03706 0.06557,-0.04561 0.250868,0 0.524543,0 0.273674,-0.0029 0.51599,-0.0057 0.02566,0 0.04276,0.01425 0.01711,0.01425 0.01711,0.05416 l -0.07982,0.895144 q -0.0114,0.09408 -0.02281,0.128285 -0.0086,0.03706 -0.06272,0.04276 -0.242316,0.0029 -0.498886,0.0057 -0.253719,0.0029 -0.530245,0.0029 -0.0171,0 -0.02566,-0.0029 -0.0057,-0.0029 -0.0057,-0.01711 z"
         id="path2610" />
    </g>
  </g>
</svg>
