<?xml version="1.0" encoding="UTF-8" standalone="no"?>
<!-- Created with Inkscape (http://www.inkscape.org/) -->

<svg
   width="189.53mm"
   height="88.178543mm"
   viewBox="0 0 189.53 88.178543"
   version="1.1"
   id="svg5"
   inkscape:version="1.2 (dc2aedaf03, 2022-05-15)"
   sodipodi:docname="logo-main.svg"
   inkscape:export-filename="logo-main.png"
   inkscape:export-xdpi="96"
   inkscape:export-ydpi="96"
   xmlns:inkscape="http://www.inkscape.org/namespaces/inkscape"
   xmlns:sodipodi="http://sodipodi.sourceforge.net/DTD/sodipodi-0.dtd"
   xmlns="http://www.w3.org/2000/svg"
   xmlns:svg="http://www.w3.org/2000/svg">
  <sodipodi:namedview
     id="namedview7"
     pagecolor="#ffffff"
     bordercolor="#666666"
     borderopacity="1.0"
     inkscape:showpageshadow="2"
     inkscape:pageopacity="0.0"
     inkscape:pagecheckerboard="0"
     inkscape:deskcolor="#d1d1d1"
     inkscape:document-units="mm"
     showgrid="true"
     inkscape:zoom="0.5"
     inkscape:cx="-97"
     inkscape:cy="537"
     inkscape:window-width="1920"
     inkscape:window-height="991"
     inkscape:window-x="-9"
     inkscape:window-y="-9"
     inkscape:window-maximized="1"
     inkscape:current-layer="text190" />
  <defs
     id="defs2" />
  <g
     inkscape:label="Layer 1"
     inkscape:groupmode="layer"
     id="layer1"
     transform="translate(-12.873116,-78.486341)">
    <g
       id="g14380"
       transform="translate(1.0583333,-55.033333)"
       inkscape:export-filename="logo-main.svg"
       inkscape:export-xdpi="96"
       inkscape:export-ydpi="96">
      <path
         id="path12772"
         style="font-weight:bold;font-size:83.9422px;line-height:1.25;font-family:'Josefin Sans';-inkscape-font-specification:'Josefin Sans, Bold';fill:#004e68;fill-opacity:1;stroke-width:2.09856"
         d="m 160.08584,171.56783 -5.04569,5.22913 v 24.01766 l 6.35155,-6.53552 z" />
      <path
         id="path14061"
         style="font-weight:bold;font-size:83.9422px;line-height:1.25;font-family:'Josefin Sans';-inkscape-font-specification:'Josefin Sans, Bold';fill:#804134;fill-opacity:1;stroke-width:2.09856"
         d="m 159.78043,166.25239 -4.74028,4.91236 v 5.63221 l 5.04569,-5.22913 z" />
      <path
         id="path14058"
         style="font-weight:bold;font-size:83.9422px;line-height:1.25;font-family:'Josefin Sans';-inkscape-font-specification:'Josefin Sans, Bold';fill:#4c1208;fill-opacity:1;stroke-width:2.09856"
         d="m 159.27814,157.52062 -4.23799,4.3925 v 9.25163 l 4.74028,-4.91236 z" />
      <path
         id="path14055"
         style="font-weight:bold;font-size:83.9422px;line-height:1.25;font-family:'Josefin Sans';-inkscape-font-specification:'Josefin Sans, Bold';fill:#004e68;fill-opacity:1;stroke-width:2.09856"
         d="m 158.03842,135.95501 -2.99827,3.17345 v 22.78466 l 4.23799,-4.3925 z" />
      <path
         id="path12990"
         style="font-weight:bold;font-size:83.9422px;line-height:1.25;font-family:'Josefin Sans';-inkscape-font-specification:'Josefin Sans, Bold';fill:#003c4a;fill-opacity:1;stroke-width:2.09856"
         d="m 167.46213,152.73642 -5.9495,6.14536 -0.31678,35.34823 -6.16138,6.53242 0.006,0.14779 h 43.31415 l 2.9714,-3.16466 -34.11368,-8.58708 v -13.34699 h 26.52551 l 2.9869,-3.16208 h -26.52551 z" />
      <path
         id="path14066"
         style="font-weight:bold;font-size:83.9422px;line-height:1.25;font-family:'Josefin Sans';-inkscape-font-specification:'Josefin Sans, Bold';fill:#003c4a;fill-opacity:1;stroke-width:2.09856"
         d="m 177.64295,142.71256 -15.95307,-3.5717 -0.17725,19.74092 5.9495,-6.14536 -0.25321,-1.8433 1.9095,-0.11693 z"
         sodipodi:nodetypes="ccccccc" />
      <path
         id="path14064"
         style="font-weight:bold;font-size:83.9422px;line-height:1.25;font-family:'Josefin Sans';-inkscape-font-specification:'Josefin Sans, Bold';fill:#330c05;fill-opacity:1;stroke-width:2.09856"
         d="m 187.78337,144.94568 -10.19889,-2.22143 -8.4076,7.9584 12.52779,0.21047 z"
         sodipodi:nodetypes="ccccc" />
      <path
         id="path14069"
         style="font-weight:bold;font-size:83.9422px;line-height:1.25;font-family:'Josefin Sans';-inkscape-font-specification:'Josefin Sans, Bold';fill:#663429;fill-opacity:1;stroke-width:2.09856"
         d="m 193.22904,146.15852 -5.44567,-1.23765 -6.0787,5.97225 h 6.94067 l 3.19175,-3.40713 z"
         sodipodi:nodetypes="cccccc" />
      <path
         id="path14072"
         style="font-weight:bold;font-size:83.9422px;line-height:1.25;font-family:'Josefin Sans';-inkscape-font-specification:'Josefin Sans, Bold';fill:#003c4a;fill-opacity:1;stroke-width:2.09856"
         d="m 193.16289,146.05103 -4.51755,4.84209 h 8.53074 l 2.9962,-3.18947 z"
         sodipodi:nodetypes="ccccc" />
      <path
         id="path905-7-0"
         style="font-weight:bold;font-size:83.9422px;line-height:1.25;font-family:'Josefin Sans';-inkscape-font-specification:'Josefin Sans, Bold';fill:#003c4a;fill-opacity:1;stroke-width:2.09856"
         d="m 89.177324,197.03115 -3.619334,3.87907 h 12.335777 l 2.955263,-3.15871 z"
         sodipodi:nodetypes="ccccc" />
      <path
         id="path12781"
         style="font-weight:bold;font-size:83.9422px;line-height:1.25;font-family:'Josefin Sans';-inkscape-font-specification:'Josefin Sans, Bold';fill:#4c1208;fill-opacity:1;stroke-width:2.09856"
         d="m 136.21701,167.05182 -7.03523,7.20421 0.008,1.25161 8.82737,4.66638 z" />
      <path
         id="path13749"
         style="font-weight:bold;font-size:83.9422px;line-height:1.25;font-family:'Josefin Sans';-inkscape-font-specification:'Josefin Sans, Bold';fill:#004e68;fill-opacity:1;stroke-width:2.09856"
         d="m 131.95009,135.95398 -2.99775,3.17448 0.22944,35.12757 7.03523,-7.20421 z" />
      <path
         id="path12788"
         style="font-weight:bold;font-size:83.9422px;line-height:1.25;font-family:'Josefin Sans';-inkscape-font-specification:'Josefin Sans, Bold';fill:#330c05;fill-opacity:1;stroke-width:2.09856"
         d="m 129.1668,176.32516 -1.58595,-1.66863 -6.23425,-3.29593 -6.33915,6.68538 6.72724,6.11643 z" />
      <path
         id="path13649"
         style="font-weight:bold;font-size:83.9422px;line-height:1.25;font-family:'Josefin Sans';-inkscape-font-specification:'Josefin Sans, Bold';fill:#003c4a;fill-opacity:1;stroke-width:2.09856"
         d="m 129.48047,175.99391 -0.29042,-0.48627 0.006,0.78651 z" />
      <path
         id="path13647"
         style="font-weight:bold;font-size:83.9422px;line-height:1.25;font-family:'Josefin Sans';-inkscape-font-specification:'Josefin Sans, Bold';fill:#663429;fill-opacity:1;stroke-width:2.09856"
         d="m 132.6379,181.28351 -3.15743,-5.2896 -0.28474,0.30024 5.2e-4,0.062 -0.0294,-0.031 -7.43211,7.83725 4.3894,3.99097 z" />
      <path
         id="path13652"
         style="font-weight:bold;font-size:83.9422px;line-height:1.25;font-family:'Josefin Sans';-inkscape-font-specification:'Josefin Sans, Bold';fill:#003c4a;fill-opacity:1;stroke-width:2.09856"
         d="m 132.6379,181.28351 -6.51381,6.86987 16.03985,14.58309 c 0.0476,-0.0931 1.99161,-2.15543 1.99161,-2.15543 z" />
      <path
         id="path13644"
         style="font-weight:bold;font-size:83.9422px;line-height:1.25;font-family:'Josefin Sans';-inkscape-font-specification:'Josefin Sans, Bold';fill:#003c4a;fill-opacity:1;stroke-width:2.09856"
         d="m 94.493974,157.16405 3.13831,5.0705 1.034045,0.95446 16.341121,14.85697 6.33915,-6.68538 z" />
      <path
         id="path12786"
         style="font-weight:bold;font-size:83.9422px;line-height:1.25;font-family:'Josefin Sans';-inkscape-font-specification:'Josefin Sans, Bold';fill:#804134;fill-opacity:1;stroke-width:2.09856"
         d="m 90.750017,191.23174 1.785937,-6.94738 -6.981486,7.17682 v 5.11132 z" />
      <path
         id="path13417"
         style="font-weight:bold;font-size:83.9422px;line-height:1.25;font-family:'Josefin Sans';-inkscape-font-specification:'Josefin Sans, Bold';fill:#004e68;fill-opacity:1;stroke-width:2.09856"
         d="m 90.750017,191.23174 -5.195549,5.34076 v 4.33772 h 0.04393 l 3.675745,-3.93671 z" />
      <path
         id="path13414"
         style="font-weight:bold;font-size:83.9422px;line-height:1.25;font-family:'Josefin Sans';-inkscape-font-specification:'Josefin Sans, Bold';fill:#4c1208;fill-opacity:1;stroke-width:2.09856"
         d="m 95.041744,174.53715 -9.487276,9.75238 v 7.17165 l 6.981486,-7.17682 z" />
      <path
         id="path13411"
         style="font-weight:bold;font-size:83.9422px;line-height:1.25;font-family:'Josefin Sans';-inkscape-font-specification:'Josefin Sans, Bold';fill:#004e68;fill-opacity:1;stroke-width:2.09856"
         d="m 88.528447,133.55464 -2.973979,3.13986 v 47.59503 l 9.487276,-9.75238 2.498039,-9.71672 -3.045809,-7.65638 33.086876,17.49248 z" />
      <path
         id="path905-6"
         style="font-weight:bold;font-size:83.9422px;line-height:1.25;font-family:'Josefin Sans';-inkscape-font-specification:'Josefin Sans, Bold';fill:#804134;fill-opacity:1;stroke-width:2.09856"
         d="m 28.703158,182.67929 c -1.16005,-1.4759 -2.116902,-3.09234 -2.870109,-4.84983 -0.336807,-0.85193 -0.612913,-1.7255 -0.83044,-2.61948 l -9.54257,9.69347 c 1.262987,2.38778 2.797455,4.57815 4.601786,6.5722 z" />
      <path
         id="path13297"
         style="font-weight:bold;font-size:83.9422px;line-height:1.25;font-family:'Josefin Sans';-inkscape-font-specification:'Josefin Sans, Bold';fill:#004e68;fill-opacity:1;stroke-width:2.09856"
         d="m 28.703158,182.67929 -8.641333,8.79636 c 0.294091,0.32502 0.594297,0.64561 0.902787,0.96015 2.909982,2.85403 6.267406,5.0925 10.07277,6.71535 3.805368,1.62288 7.890599,2.43396 12.255583,2.43396 4.30901,0 8.366503,-0.81108 12.171867,-2.43396 3.805364,-1.62285 7.162782,-3.86132 10.07277,-6.71535 2.965948,-2.90996 5.260425,-6.26794 6.883301,-10.07328 0.406236,-0.92081 0.762279,-1.85815 1.070219,-2.81172 l -18.145146,12.27057 -4.050915,-3.62975 c -0.09358,0.0429 -0.184424,0.0892 -0.279053,0.13074 -2.238452,1.0073 -4.673255,1.51102 -7.30343,1.51102 -2.742105,0 -5.287922,-0.50372 -7.638294,-1.51102 -2.294412,-1.00731 -4.337032,-2.4064 -6.127791,-4.19716 -0.437609,-0.46584 -0.851991,-0.94801 -1.243335,-1.44591 z" />
      <path
         id="path13294"
         style="font-weight:bold;font-size:83.9422px;line-height:1.25;font-family:'Josefin Sans';-inkscape-font-specification:'Josefin Sans, Bold';fill:#4c1208;fill-opacity:1;stroke-width:2.09856"
         d="m 23.47092,160.83153 -11.469585,12.83384 c 0.324819,3.04536 1.074045,5.94459 2.247924,8.69715 0.371236,0.87047 0.775123,1.71728 1.21078,2.54093 l 9.54257,-9.69347 c -0.396903,-1.63116 -0.596346,-3.33174 -0.596346,-5.10305 0,-1.89615 0.218888,-3.70201 0.655773,-5.41827 l -0.725509,-1.76393 z"
         sodipodi:nodetypes="ccsccsccc" />
      <path
         id="path13291"
         style="font-weight:bold;font-size:83.9422px;line-height:1.25;font-family:'Josefin Sans';-inkscape-font-specification:'Josefin Sans, Bold';fill:#004e68;fill-opacity:1;stroke-width:2.09856"
         d="m 32.945793,140.21832 c -0.643443,0.23139 -1.280218,0.48353 -1.908411,0.76068 -3.805372,1.67883 -7.162782,4.00106 -10.07277,6.96701 -2.854027,2.91 -5.092469,6.26791 -6.715353,10.07329 -1.622876,3.80536 -2.434476,7.83457 -2.434476,12.08763 0,1.20765 0.06231,2.39363 0.186552,3.55844 l 12.027812,-12.40624 z"
         sodipodi:nodetypes="cscssccc" />
      <path
         id="path12916"
         style="font-weight:bold;font-size:83.9422px;line-height:1.25;font-family:'Josefin Sans';-inkscape-font-specification:'Josefin Sans, Bold';fill:#003c4a;fill-opacity:1;stroke-width:2.09856"
         d="m 32.945793,140.21832 -9.553422,22.97431 1.669665,1.49603 c 0.207807,-0.81635 0.464362,-1.61284 0.771013,-2.38849 0.951346,-2.40633 2.294413,-4.50497 4.029211,-6.29574 1.734805,-1.84673 3.749658,-3.27357 6.044076,-4.28087 2.294417,-1.00731 4.784711,-1.51102 7.470862,-1.51102 2.686144,0 5.176444,0.50371 7.470861,1.51102 2.294418,1.0073 4.280998,2.43414 5.959843,4.28087 1.734805,1.79077 3.077866,3.88941 4.029212,6.29574 1.007299,2.40635 1.511019,5.00869 1.511019,7.80676 0,2.74211 -0.475964,5.31618 -1.427303,7.72253 -0.951346,2.35038 -2.266134,4.44901 -3.944979,6.29574 -1.609598,1.71691 -3.505343,3.06968 -5.68079,4.06642 l 4.050915,3.62975 18.145146,-12.27057 c 0.964666,-2.98721 1.447973,-6.1351 1.447973,-9.44387 0,-4.25307 -0.839347,-8.28226 -2.518192,-12.08763 -1.622879,-3.80538 -3.917344,-7.16329 -6.883301,-10.07329 -2.909997,-2.96595 -6.267394,-5.28817 -10.07277,-6.96701 -3.805376,-1.67884 -7.862845,-2.5182 -12.171867,-2.5182 -3.64442,0 -7.092857,0.58722 -10.347172,1.75752 z" />
      <path
         id="path905-7"
         style="font-weight:bold;font-size:83.9422px;line-height:1.25;font-family:'Josefin Sans';-inkscape-font-specification:'Josefin Sans, Bold';fill:#007298;fill-opacity:1;stroke-width:2.09856"
         d="m 88.544945,133.51968 v 64.21572 h 12.339295 l -0.2434,-36.52077 43.22166,39.03896 0.30325,0.32651 0.0327,-64.62646 h -12.25559 l 0.2434,37.2277 -43.645874,-39.66166 z m -41.701335,1.76268 c -4.36499,0 -8.450207,0.83936 -12.255583,2.5182 -3.805376,1.67884 -7.162777,4.00106 -10.07277,6.96701 -2.854032,2.91 -5.092471,6.26791 -6.715352,10.07329 -1.622881,3.80537 -2.434477,7.83456 -2.434477,12.08763 0,4.36499 0.811596,8.45021 2.434477,12.25559 1.622881,3.80537 3.86132,7.16329 6.715352,10.07328 2.909993,2.85403 6.267394,5.09247 10.07277,6.71535 3.805376,1.62288 7.890593,2.43396 12.255583,2.43396 4.309028,0 8.366491,-0.81108 12.171867,-2.43396 3.805376,-1.62288 7.162777,-3.86132 10.07277,-6.71535 2.965958,-2.90999 5.260418,-6.26791 6.883298,-10.07328 1.67885,-3.80538 2.5182,-7.8906 2.5182,-12.25559 0,-4.25307 -0.83935,-8.28226 -2.5182,-12.08763 -1.62288,-3.80538 -3.91734,-7.16329 -6.883298,-10.07329 -2.909993,-2.96595 -6.267394,-5.28817 -10.07277,-6.96701 -3.805376,-1.67884 -7.862839,-2.5182 -12.171867,-2.5182 z m 111.18702,0.67128 v 61.78176 h 43.31415 v -11.75174 h -31.14229 v -13.34699 h 26.52552 v -11.75174 h -26.52552 v -13.17904 h 29.96717 V 135.95364 Z M 46.927843,147.0341 c 2.686148,0 5.176444,0.50371 7.470861,1.51102 2.294418,1.0073 4.281001,2.43466 5.959843,4.28139 1.734804,1.79077 3.077867,3.88889 4.029212,6.29522 1.007305,2.40635 1.511019,5.00869 1.511019,7.80676 0,2.74211 -0.47596,5.31618 -1.427303,7.72253 -0.951344,2.35038 -2.266137,4.44901 -3.944979,6.29574 -1.678842,1.79076 -3.665941,3.18985 -5.96036,4.19716 -2.238456,1.0073 -4.672727,1.51102 -7.302913,1.51102 -2.74211,0 -5.288432,-0.50372 -7.638811,-1.51102 -2.294417,-1.00731 -4.337025,-2.4064 -6.127791,-4.19716 -1.734803,-1.84673 -3.105621,-3.94536 -4.112927,-6.29574 -0.951344,-2.40635 -1.426786,-4.98042 -1.426786,-7.72253 0,-2.79807 0.475442,-5.40041 1.426786,-7.80676 0.951344,-2.40633 2.294408,-4.50445 4.029211,-6.29522 1.734804,-1.84673 3.749658,-3.27409 6.044076,-4.28139 2.294418,-1.00731 4.784714,-1.51102 7.470862,-1.51102 z"
         sodipodi:nodetypes="cccccccccccsscssscsssccsccsscccccccccccccssccscccscccsscss" />
      <path
         id="path905-7-04"
         style="font-weight:bold;font-size:83.9422px;line-height:1.25;font-family:'Josefin Sans';-inkscape-font-specification:'Josefin Sans, Bold';fill:#99250b;fill-opacity:1;stroke-width:2.09856"
         d="m 183.19812,135.95346 c -3.25231,4.10894 -6.8054,8.0304 -10.82414,11.75226 h 13.81569 c 3.44555,-3.78796 6.5563,-7.71543 9.4387,-11.75226 z m -12.99559,13.70408 c -3.64398,3.17551 -7.66083,6.20066 -12.17186,9.06146 v 11.43703 c 5.10586,-2.91895 9.70736,-6.01886 13.90302,-9.27127 h -1.73116 z m -26.00409,16.56539 c -3.72162,1.72542 -7.72811,3.36954 -12.02563,4.93769 l 0.0134,2.02054 -1.57871,-1.45159 c -4.2301,1.49849 -8.76248,2.91854 -13.60331,4.26434 l 8.70645,7.86464 c 6.71528,-2.08102 12.8524,-4.35689 18.48776,-6.80682 z m -128.688792,3.81941 c 0.297395,3.20792 1.059493,6.25553 2.290299,9.14156 0.484154,1.13525 1.029949,2.22586 1.623674,3.28145 15.526264,6.3999 31.561477,9.04909 46.396134,9.59321 1.144967,-0.85753 2.236206,-1.7889 3.268535,-2.80137 2.210979,-2.16926 4.047681,-4.58797 5.512325,-7.25486 -4.749444,0.0773 -9.667362,-0.0442 -14.684892,-0.43563 -1.544134,1.49642 -3.327305,2.68922 -5.349544,3.57704 -2.238454,1.0073 -4.67273,1.51102 -7.302914,1.51102 -2.742107,0 -5.288433,-0.50372 -7.63881,-1.51102 -2.294415,-1.00731 -4.337027,-2.4064 -6.127791,-4.19716 -1.480225,-1.57573 -2.693178,-3.33633 -3.643705,-5.27875 -4.294605,-1.43253 -8.546743,-3.14464 -12.707752,-5.18314 a 5,5 0 0 0 -1.635559,-0.44235 z m 85.253712,9.54929 c -3.760737,0.63098 -7.855734,1.19339 -12.218377,1.6185 v 10.14512 c 4.354082,-0.41547 8.470258,-0.96237 12.286067,-1.58543 z" />
      <path
         id="path905-7-7"
         style="font-weight:bold;font-size:83.9422px;line-height:1.25;font-family:'Josefin Sans';-inkscape-font-specification:'Josefin Sans, Bold';fill:#f57b66;fill-opacity:1;stroke-width:2.09856"
         d="m 194.75297,135.95346 c -2.7939,3.82424 -5.98822,7.78006 -9.79216,11.75226 h 6.67142 c 3.26482,-3.6771 6.06648,-7.29768 8.53747,-10.76472 v -0.98754 z m -24.55044,24.53442 c -3.64201,2.61528 -7.68486,5.1773 -12.17186,7.65431 v 5.60948 c 7.68806,-4.08181 14.17499,-8.42843 19.72386,-12.86691 h -7.552 z m -26.00409,14.33866 c -5.76126,2.4355 -12.09352,4.73789 -19.11977,6.85333 -0.43995,0.13246 -0.89779,0.26041 -1.34668,0.39067 l 4.34133,3.92173 c 5.80336,-1.7955 11.16325,-3.72853 16.12512,-5.76864 z m -125.337575,6.59443 c 1.255544,2.43345 2.782241,4.66983 4.592484,6.69985 12.754662,3.69562 26.07522,5.55003 39.125777,6.06785 2.367303,-1.36277 4.5362,-2.99867 6.497278,-4.92012 -16.761774,-0.11012 -34.186324,-2.36154 -50.215539,-7.84758 z m 81.952105,5.58157 c -3.958336,0.59305 -8.064525,1.07996 -12.267987,1.45418 v 5.08031 c 4.210518,-0.37157 8.322731,-0.85936 12.301577,-1.44901 z" />
    </g>
    <g
       aria-label="PREMIUM"
       id="text190"
       style="font-weight:bold;font-size:21.2964px;font-family:'Josefin Sans';-inkscape-font-specification:'Josefin Sans, Bold';stroke-width:0.532412">
      <path
         d="m 69.195469,150.82036 q 1.937973,0 3.279646,0.66018 1.341673,0.6389 2.044454,1.8315 0.702781,1.1713 0.702781,2.78982 0,0.95834 -0.298149,1.93798 -0.276853,0.95833 -0.915745,1.7463 -0.617596,0.78797 -1.682416,1.27778 -1.043524,0.46853 -2.576864,0.46853 H 67.53435 v 4.96206 h -3.087978 v -15.67415 z m 0.53241,7.70929 q 0.702781,0 1.171302,-0.23426 0.468521,-0.25555 0.724078,-0.61759 0.276853,-0.38334 0.383335,-0.78797 0.127778,-0.40463 0.127778,-0.70278 0,-0.23426 -0.08518,-0.6176 -0.06389,-0.40463 -0.29815,-0.80926 -0.23426,-0.40463 -0.724077,-0.68148 -0.468521,-0.27686 -1.277784,-0.27686 H 67.53435 v 4.7278 z"
         id="path265" />
      <path
         d="m 82.739972,150.82036 q 1.469452,0 2.619458,0.38333 1.150005,0.36204 1.916676,1.06482 0.787966,0.68149 1.192598,1.66112 0.404632,0.95834 0.404632,2.17223 0,0.95834 -0.29815,1.91668 -0.276853,0.95834 -0.937042,1.7463 -0.638892,0.78797 -1.703712,1.27779 -1.06482,0.46852 -2.640753,0.46852 h -2.214826 v 4.98336 h -3.087978 v -15.67415 z m 0.53241,7.70929 q 0.702782,0 1.171302,-0.23426 0.468521,-0.23426 0.724078,-0.5963 0.276853,-0.36204 0.383335,-0.74537 0.127779,-0.40463 0.127779,-0.74537 0,-0.25556 -0.08519,-0.6389 -0.06389,-0.40463 -0.29815,-0.80926 -0.23426,-0.40463 -0.724077,-0.68148 -0.468521,-0.27686 -1.277784,-0.27686 h -2.214826 v 4.7278 z m 2.896311,1.91668 3.875945,6.04818 h -3.599092 l -3.96113,-5.963 z"
         id="path267" />
      <path
         d="m 92.600223,150.82036 h 10.690797 v 2.98149 h -7.602819 v 3.34354 h 6.729659 v 2.98149 h -6.729659 v 3.38613 h 7.900959 v 2.9815 H 92.600223 Z"
         id="path269" />
      <path
         d="m 106.78363,166.49451 v -16.31305 h 0.0213 l 8.71023,12.35192 -1.32038,-0.29815 8.68893,-12.05377 h 0.0426 v 16.31305 h -3.08797 v -9.34912 l 0.19166,1.59723 -5.3028,7.53892 h -0.0426 l -5.45188,-7.53892 0.53241,-1.46945 v 9.22134 z"
         id="path271" />
      <path
         d="m 126.97262,150.82036 h 3.08798 v 15.67415 h -3.08798 z"
         id="path273" />
      <path
         d="m 136.87543,160.70189 q 0,0.74537 0.44722,1.42685 0.44723,0.68149 1.1713,1.10742 0.74538,0.42593 1.61853,0.42593 0.95834,0 1.70371,-0.42593 0.74538,-0.42593 1.1713,-1.10742 0.44723,-0.68148 0.44723,-1.42685 v -9.88153 h 3.04538 v 9.94542 q 0,1.725 -0.85185,3.06668 -0.85186,1.32037 -2.30001,2.08704 -1.44816,0.74538 -3.21576,0.74538 v 0 q -1.74631,0 -3.19446,-0.74538 -1.42686,-0.76667 -2.27872,-2.08704 -0.85185,-1.34168 -0.85185,-3.06668 v -9.94542 h 3.08798 z"
         id="path275" />
      <path
         d="m 150.20698,166.49451 v -16.31305 h 0.0213 l 8.71023,12.35192 -1.32038,-0.29815 8.68893,-12.05377 h 0.0426 v 16.31305 h -3.08798 v -9.34912 l 0.19167,1.59723 -5.30281,7.53892 h -0.0426 l -5.45188,-7.53892 0.53241,-1.46945 v 9.22134 z"
         id="path277" />
    </g>
  </g>
</svg>
