<?xml version="1.0" encoding="UTF-8" standalone="no"?>
<!-- Created with Inkscape (http://www.inkscape.org/) -->

<svg
   width="82.092239"
   height="97.944992"
   viewBox="0 0 21.720238 25.914612"
   version="1.1"
   id="svg5"
   xml:space="preserve"
   sodipodi:docname="nav-cert-ch.svg"
   inkscape:version="1.2 (dc2aedaf03, 2022-05-15)"
   xmlns:inkscape="http://www.inkscape.org/namespaces/inkscape"
   xmlns:sodipodi="http://sodipodi.sourceforge.net/DTD/sodipodi-0.dtd"
   xmlns="http://www.w3.org/2000/svg"
   xmlns:svg="http://www.w3.org/2000/svg"><sodipodi:namedview
     id="namedview457"
     pagecolor="#ffffff"
     bordercolor="#666666"
     borderopacity="1.0"
     inkscape:showpageshadow="2"
     inkscape:pageopacity="0.0"
     inkscape:pagecheckerboard="0"
     inkscape:deskcolor="#d1d1d1"
     showgrid="false"
     inkscape:zoom="4"
     inkscape:cx="43.125"
     inkscape:cy="8.875"
     inkscape:window-width="1920"
     inkscape:window-height="991"
     inkscape:window-x="2391"
     inkscape:window-y="-9"
     inkscape:window-maximized="1"
     inkscape:current-layer="layer3" /><defs
     id="defs2" /><g
     id="layer3"
     transform="matrix(0.10379619,0,0,0.10379619,-72.656295,58.889339)"><g
       id="g865"
       transform="translate(107.24648,-220.80157)"><path
         id="rect2469-6"
         style="fill:#d5bdad;fill-opacity:1;stroke:#99e4ff;stroke-width:0;stroke-linecap:round;stroke-miterlimit:18.1;stroke-dashoffset:5.07364;paint-order:markers fill stroke"
         d="m 592.74353,-346.55393 209.2585,122.34245 -0.1426,127.325804 -208.5795,-122.169794 z" /><ellipse
         style="fill:#d4aa00;fill-opacity:1;stroke:#c8c8c8;stroke-width:0.77445;stroke-linecap:round;stroke-miterlimit:18.1;stroke-dasharray:none;stroke-dashoffset:5.07364;stroke-opacity:1;paint-order:markers fill stroke"
         id="path80646"
         cx="765.86139"
         cy="161.69215"
         rx="20.818909"
         ry="22.997736"
         transform="rotate(-23.223533)" /><g
         aria-label="Project ManagementData AnalyticsUX Design"
         transform="matrix(1.0679055,0.6194659,0.02110079,0.94865249,0,0)"
         id="text81170-4"
         style="font-size:16.8525px;font-family:'Nunito Sans';-inkscape-font-specification:'Nunito Sans, Normal';stroke-width:0.556195"><path
           d="m 579.08871,-682.70434 q 1.53358,0 2.59528,0.52242 1.06171,0.50558 1.61784,1.44932 0.55614,0.92689 0.55614,2.20768 0,0.75836 -0.23594,1.53357 -0.21908,0.75837 -0.72466,1.38191 -0.48872,0.62354 -1.33134,1.01115 -0.82578,0.37075 -2.03916,0.37075 h -1.75266 v 3.92664 h -2.44361 v -12.40344 z m 0.42131,6.1006 q 0.55613,0 0.92689,-0.18538 0.37075,-0.20223 0.57298,-0.48872 0.21909,-0.30334 0.30335,-0.62354 0.10111,-0.3202 0.10111,-0.55613 0,-0.18538 -0.0674,-0.48873 -0.0506,-0.32019 -0.23593,-0.64039 -0.18538,-0.3202 -0.57299,-0.53928 -0.37075,-0.21908 -1.01115,-0.21908 h -1.75266 v 3.74125 z"
           style="-inkscape-font-specification:'Josefin Sans Bold';fill:#707070"
           id="path1023" /><path
           d="m 587.78459,-677.66545 0.21909,2.0223 -0.0506,-0.30334 q 0.3202,-0.65725 0.87633,-1.11227 0.55613,-0.47187 1.09541,-0.72465 0.55614,-0.25279 0.84263,-0.25279 l -0.11797,2.35935 q -0.82577,-0.10112 -1.41561,0.26964 -0.58984,0.37075 -0.91004,0.97744 -0.32019,0.60669 -0.32019,1.24709 v 2.88178 h -2.3425 v -7.36455 z"
           style="-inkscape-font-specification:'Josefin Sans Bold';fill:#707070"
           id="path1025" /><path
           d="m 591.66066,-674.07586 q 0,-1.12912 0.52243,-2.0223 0.53928,-0.89319 1.49987,-1.39876 0.96059,-0.52243 2.20768,-0.52243 1.26393,0 2.19082,0.52243 0.92689,0.50557 1.41561,1.39876 0.50558,0.89318 0.50558,2.0223 0,1.12911 -0.50558,2.03915 -0.48872,0.89318 -1.41561,1.41561 -0.92689,0.52243 -2.22453,0.52243 -1.21338,0 -2.17397,-0.47187 -0.94374,-0.47187 -1.48302,-1.36506 -0.53928,-0.89318 -0.53928,-2.14026 z m 2.3762,0.0169 q 0,0.57298 0.23594,1.04485 0.23593,0.45502 0.64039,0.72466 0.40446,0.26964 0.91004,0.26964 0.55613,0 0.96059,-0.26964 0.40446,-0.26964 0.62354,-0.72466 0.21908,-0.47187 0.21908,-1.04485 0,-0.58984 -0.21908,-1.04486 -0.21908,-0.45501 -0.62354,-0.72465 -0.40446,-0.26964 -0.96059,-0.26964 -0.50558,0 -0.91004,0.26964 -0.40446,0.26964 -0.64039,0.72465 -0.23594,0.45502 -0.23594,1.04486 z"
           style="-inkscape-font-specification:'Josefin Sans Bold';fill:#707070"
           id="path1027" /><path
           d="m 602.34513,-666.74503 -1.36505,-1.46616 q 0.50557,-0.37076 0.77521,-0.91004 0.2865,-0.53928 0.2865,-1.31449 v -7.22973 h 2.35935 v 7.36455 q 0,1.31449 -0.47187,2.17397 -0.47187,0.87633 -1.58414,1.3819 z m -0.38761,-13.53255 q 0,-0.52243 0.40446,-0.85948 0.42132,-0.33705 0.89319,-0.33705 0.47187,0 0.85947,0.33705 0.40446,0.33705 0.40446,0.85948 0,0.52242 -0.40446,0.85947 -0.3876,0.3202 -0.85947,0.3202 -0.47187,0 -0.89319,-0.3202 -0.40446,-0.33705 -0.40446,-0.85947 z"
           style="-inkscape-font-specification:'Josefin Sans Bold';fill:#707070"
           id="path1029" /><path
           d="m 610.45118,-670.09867 q -1.3482,0 -2.29194,-0.50558 -0.92688,-0.50557 -1.41561,-1.39876 -0.48872,-0.89318 -0.48872,-2.056 0,-1.11227 0.57299,-2.00545 0.57298,-0.89318 1.53357,-1.41561 0.9606,-0.53928 2.14027,-0.53928 1.58414,0 2.59529,0.92689 1.028,0.91003 1.33135,2.64584 l -5.72986,1.82007 -0.52242,-1.28079 4.14571,-1.39876 -0.48872,0.21909 q -0.13482,-0.43817 -0.48872,-0.75837 -0.33705,-0.33705 -1.02801,-0.33705 -0.52242,0 -0.92688,0.25279 -0.38761,0.23594 -0.60669,0.69095 -0.20223,0.43817 -0.20223,1.04486 0,0.69095 0.25278,1.16282 0.25279,0.45502 0.69096,0.69095 0.43816,0.23594 0.97744,0.23594 0.38761,0 0.74151,-0.13482 0.37076,-0.13482 0.72466,-0.3539 l 1.04486,1.75266 q -0.58984,0.33705 -1.28079,0.53928 -0.6741,0.20223 -1.2808,0.20223 z"
           style="-inkscape-font-specification:'Josefin Sans Bold';fill:#707070"
           id="path1031" /><path
           d="m 622.3996,-670.95815 q -0.48872,0.38761 -1.23023,0.62354 -0.72466,0.23594 -1.43247,0.23594 -1.26393,0 -2.20767,-0.45502 -0.92689,-0.47187 -1.44932,-1.33135 -0.50557,-0.87633 -0.50557,-2.10656 0,-1.23023 0.55613,-2.08971 0.55613,-0.87633 1.44931,-1.33135 0.91004,-0.45502 1.90434,-0.45502 0.99429,0 1.71895,0.26964 0.74151,0.26964 1.26394,0.70781 l -1.14597,1.51672 q -0.23594,-0.18537 -0.65725,-0.37075 -0.40446,-0.20223 -0.96059,-0.20223 -0.48872,0 -0.89318,0.25279 -0.40446,0.25278 -0.6404,0.69095 -0.23593,0.43816 -0.23593,1.01115 0,0.53928 0.25278,0.9943 0.25279,0.45501 0.69096,0.72465 0.45501,0.25279 1.0617,0.25279 0.38761,0 0.70781,-0.10111 0.33705,-0.11797 0.57298,-0.3202 z"
           style="-inkscape-font-specification:'Josefin Sans Bold';fill:#707070"
           id="path1033" /><path
           d="m 624.91062,-680.90113 h 2.35935 v 3.20198 h 1.78637 v 1.83692 h -1.78637 v 5.56133 h -2.35935 v -5.56133 h -1.14597 v -1.83692 h 1.14597 z"
           style="-inkscape-font-specification:'Josefin Sans Bold';fill:#707070"
           id="path1035" /><path
           d="m 636.72423,-670.3009 v -12.90902 h 0.0168 l 6.89267,9.77445 -1.04485,-0.23593 6.87582,-9.53852 h 0.0337 v 12.90902 h -2.44361 v -7.39825 l 0.15167,1.26394 -4.19627,5.96578 h -0.0337 l -4.31424,-5.96578 0.42132,-1.16283 v 7.29714 z"
           style="-inkscape-font-specification:'Josefin Sans Bold';fill:#707070"
           id="path1037" /><path
           d="m 655.41365,-670.09867 q -1.028,0 -1.87063,-0.40446 -0.82577,-0.42132 -1.31449,-1.28079 -0.48872,-0.85948 -0.48872,-2.19083 0,-1.24708 0.50557,-2.15712 0.50558,-0.91003 1.33135,-1.39876 0.82577,-0.50557 1.75266,-0.50557 1.09541,0 1.65154,0.37075 0.57299,0.35391 0.94374,0.79207 l -0.10111,0.28649 0.21908,-1.07856 h 2.19083 v 7.36455 h -2.35935 v -1.60099 l 0.18537,0.50557 q -0.0337,0 -0.20223,0.20223 -0.16852,0.18538 -0.50557,0.45502 -0.3202,0.25279 -0.80892,0.43817 -0.47187,0.20223 -1.12912,0.20223 z m 0.6741,-1.92119 q 0.42131,0 0.75836,-0.11797 0.33705,-0.13482 0.58984,-0.37075 0.25279,-0.25279 0.43817,-0.62354 v -1.80322 q -0.13482,-0.37076 -0.40446,-0.62354 -0.26964,-0.26964 -0.6404,-0.40446 -0.37075,-0.15168 -0.82577,-0.15168 -0.50558,0 -0.94374,0.26964 -0.42131,0.25279 -0.6741,0.70781 -0.25279,0.45502 -0.25279,1.04485 0,0.58984 0.26964,1.06171 0.26964,0.47187 0.70781,0.74151 0.45501,0.26964 0.97744,0.26964 z"
           style="-inkscape-font-specification:'Josefin Sans Bold';fill:#707070"
           id="path1039" /><path
           d="m 664.80049,-677.66545 0.18538,1.3145 -0.0337,-0.11797 q 0.3876,-0.69095 1.09541,-1.11226 0.7078,-0.43817 1.73581,-0.43817 1.04485,0 1.7358,0.62354 0.70781,0.60669 0.72466,1.58414 v 5.51077 h -2.35935 v -4.63444 q -0.0168,-0.48872 -0.26964,-0.77522 -0.23593,-0.30334 -0.80892,-0.30334 -0.53928,0 -0.94374,0.3539 -0.40446,0.3539 -0.62354,0.96059 -0.21908,0.60669 -0.21908,1.39876 v 2.99975 h -2.35935 v -7.36455 z"
           style="-inkscape-font-specification:'Josefin Sans Bold';fill:#707070"
           id="path1041" /><path
           d="m 675.77147,-670.09867 q -1.028,0 -1.87063,-0.40446 -0.82577,-0.42132 -1.31449,-1.28079 -0.48873,-0.85948 -0.48873,-2.19083 0,-1.24708 0.50558,-2.15712 0.50557,-0.91003 1.33135,-1.39876 0.82577,-0.50557 1.75266,-0.50557 1.09541,0 1.65154,0.37075 0.57299,0.35391 0.94374,0.79207 l -0.10111,0.28649 0.21908,-1.07856 h 2.19083 v 7.36455 h -2.35936 v -1.60099 l 0.18538,0.50557 q -0.0337,0 -0.20223,0.20223 -0.16852,0.18538 -0.50557,0.45502 -0.3202,0.25279 -0.80892,0.43817 -0.47187,0.20223 -1.12912,0.20223 z m 0.6741,-1.92119 q 0.42131,0 0.75836,-0.11797 0.33705,-0.13482 0.58984,-0.37075 0.25279,-0.25279 0.43816,-0.62354 v -1.80322 q -0.13482,-0.37076 -0.40446,-0.62354 -0.26964,-0.26964 -0.64039,-0.40446 -0.37076,-0.15168 -0.82577,-0.15168 -0.50558,0 -0.94374,0.26964 -0.42132,0.25279 -0.6741,0.70781 -0.25279,0.45502 -0.25279,1.04485 0,0.58984 0.26964,1.06171 0.26964,0.47187 0.7078,0.74151 0.45502,0.26964 0.97745,0.26964 z"
           style="-inkscape-font-specification:'Josefin Sans Bold';fill:#707070"
           id="path1043" /><path
           d="m 686.82672,-666.59335 q -0.9943,0 -1.68525,-0.23594 -0.6741,-0.23593 -1.14597,-0.57298 -0.47187,-0.33705 -0.84263,-0.6404 l 1.38191,-1.61784 q 0.3876,0.3539 0.89318,0.6741 0.52243,0.33705 1.36505,0.33705 0.55614,0 1.02801,-0.20223 0.48872,-0.18538 0.77521,-0.55613 0.30335,-0.37076 0.30335,-0.92689 v -1.61784 l 0.0843,0.42131 q -0.26964,0.57299 -0.97745,1.01115 -0.7078,0.42132 -1.85377,0.42132 -0.9943,0 -1.85378,-0.50558 -0.84262,-0.52243 -1.3482,-1.39876 -0.50557,-0.89318 -0.50557,-2.0223 0,-1.16282 0.53928,-2.056 0.53928,-0.91004 1.39875,-1.43246 0.85948,-0.52243 1.82007,-0.52243 0.9606,0 1.65155,0.28649 0.70781,0.26964 1.06171,0.6741 l -0.0843,0.21908 0.25278,-0.80892 h 2.17398 v 7.36455 q 0,1.07856 -0.60669,1.90433 -0.60669,0.84262 -1.61784,1.31449 -0.9943,0.48873 -2.20768,0.48873 z m -2.00545,-7.49937 q 0,0.58984 0.26964,1.06171 0.26964,0.47187 0.72466,0.74151 0.47187,0.26964 1.04485,0.26964 0.48873,0 0.85948,-0.11797 0.38761,-0.13482 0.6741,-0.37075 0.30335,-0.25279 0.50558,-0.62354 v -1.80322 q -0.15168,-0.37076 -0.45502,-0.62354 -0.30335,-0.26964 -0.70781,-0.40446 -0.3876,-0.15168 -0.87633,-0.15168 -0.57298,0 -1.04485,0.26964 -0.45502,0.25279 -0.72466,0.70781 -0.26964,0.45502 -0.26964,1.04485 z"
           style="-inkscape-font-specification:'Josefin Sans Bold';fill:#707070"
           id="path1045" /><path
           d="m 697.30897,-670.09867 q -1.3482,0 -2.29194,-0.50558 -0.92689,-0.50557 -1.41561,-1.39876 -0.48873,-0.89318 -0.48873,-2.056 0,-1.11227 0.57299,-2.00545 0.57298,-0.89318 1.53358,-1.41561 0.96059,-0.53928 2.14026,-0.53928 1.58414,0 2.59529,0.92689 1.028,0.91003 1.33135,2.64584 l -5.72985,1.82007 -0.52243,-1.28079 4.14571,-1.39876 -0.48872,0.21909 q -0.13482,-0.43817 -0.48872,-0.75837 -0.33705,-0.33705 -1.028,-0.33705 -0.52243,0 -0.92689,0.25279 -0.38761,0.23594 -0.60669,0.69095 -0.20223,0.43817 -0.20223,1.04486 0,0.69095 0.25279,1.16282 0.25278,0.45502 0.69095,0.69095 0.43816,0.23594 0.97744,0.23594 0.38761,0 0.74151,-0.13482 0.37076,-0.13482 0.72466,-0.3539 l 1.04486,1.75266 q -0.58984,0.33705 -1.28079,0.53928 -0.6741,0.20223 -1.28079,0.20223 z"
           style="-inkscape-font-specification:'Josefin Sans Bold';fill:#707070"
           id="path1047" /><path
           d="m 705.14537,-677.66545 0.18537,1.29765 -0.0337,-0.10112 q 0.43816,-0.74151 1.09541,-1.14597 0.65725,-0.42131 1.58414,-0.42131 0.60669,0 1.0617,0.16852 0.47187,0.16853 0.79207,0.50558 0.3202,0.3202 0.43817,0.84262 l -0.0843,0.0169 q 0.47187,-0.69096 1.12912,-1.11227 0.6741,-0.42131 1.39876,-0.42131 1.09541,0 1.73581,0.62354 0.65724,0.60669 0.6741,1.58414 v 5.52762 h -2.3425 v -4.55018 q -0.0168,-0.48872 -0.15167,-0.79207 -0.13482,-0.32019 -0.62355,-0.3539 -0.57298,0 -0.97744,0.40446 -0.38761,0.38761 -0.58984,1.01115 -0.18538,0.60669 -0.18538,1.26394 v 3.0166 h -2.35935 v -4.55018 q -0.0169,-0.48872 -0.18537,-0.79207 -0.15168,-0.32019 -0.6404,-0.3539 -0.55613,0 -0.94374,0.40446 -0.37075,0.38761 -0.57298,0.9943 -0.18538,0.60669 -0.18538,1.24708 v 3.05031 h -2.35935 v -7.36455 z"
           style="-inkscape-font-specification:'Josefin Sans Bold';fill:#707070"
           id="path1049" /><path
           d="m 721.17212,-670.09867 q -1.3482,0 -2.29194,-0.50558 -0.92689,-0.50557 -1.41561,-1.39876 -0.48873,-0.89318 -0.48873,-2.056 0,-1.11227 0.57299,-2.00545 0.57298,-0.89318 1.53358,-1.41561 0.96059,-0.53928 2.14026,-0.53928 1.58414,0 2.59529,0.92689 1.028,0.91003 1.33135,2.64584 l -5.72985,1.82007 -0.52243,-1.28079 4.14571,-1.39876 -0.48872,0.21909 q -0.13482,-0.43817 -0.48872,-0.75837 -0.33705,-0.33705 -1.028,-0.33705 -0.52243,0 -0.92689,0.25279 -0.38761,0.23594 -0.60669,0.69095 -0.20223,0.43817 -0.20223,1.04486 0,0.69095 0.25279,1.16282 0.25278,0.45502 0.69095,0.69095 0.43816,0.23594 0.97744,0.23594 0.38761,0 0.74151,-0.13482 0.37076,-0.13482 0.72466,-0.3539 l 1.04486,1.75266 q -0.58984,0.33705 -1.28079,0.53928 -0.6741,0.20223 -1.28079,0.20223 z"
           style="-inkscape-font-specification:'Josefin Sans Bold';fill:#707070"
           id="path1051" /><path
           d="m 729.00851,-677.66545 0.18538,1.3145 -0.0337,-0.11797 q 0.38761,-0.69095 1.09541,-1.11226 0.70781,-0.43817 1.73581,-0.43817 1.04486,0 1.73581,0.62354 0.7078,0.60669 0.72466,1.58414 v 5.51077 h -2.35935 v -4.63444 q -0.0169,-0.48872 -0.26964,-0.77522 -0.23594,-0.30334 -0.80892,-0.30334 -0.53928,0 -0.94374,0.3539 -0.40446,0.3539 -0.62355,0.96059 -0.21908,0.60669 -0.21908,1.39876 v 2.99975 h -2.35935 v -7.36455 z"
           style="-inkscape-font-specification:'Josefin Sans Bold';fill:#707070"
           id="path1053" /><path
           d="m 737.56959,-680.90113 h 2.35935 v 3.20198 h 1.78636 v 1.83692 h -1.78636 v 5.56133 h -2.35935 v -5.56133 h -1.14597 v -1.83692 h 1.14597 z"
           style="-inkscape-font-specification:'Josefin Sans Bold';fill:#707070"
           id="path1055" /><path
           d="m 575.3306,-654.14276 v -12.40344 h 3.70755 q 1.87063,0 3.18512,0.55613 1.3145,0.55613 2.10657,1.48302 0.80892,0.92689 1.17967,2.07286 0.37076,1.14597 0.37076,2.30879 0,1.38191 -0.50558,2.49417 -0.48872,1.09541 -1.3482,1.88748 -0.85948,0.77522 -1.98859,1.19653 -1.12912,0.40446 -2.39306,0.40446 z m 2.44361,-2.35935 h 1.44932 q 0.92689,0 1.68525,-0.23594 0.75836,-0.25278 1.29764,-0.72465 0.55613,-0.47187 0.84263,-1.17968 0.30334,-0.72466 0.30334,-1.65154 0,-1.21338 -0.40446,-1.97175 -0.38761,-0.77521 -0.97744,-1.19652 -0.57299,-0.42132 -1.17968,-0.57299 -0.60669,-0.16852 -1.028,-0.16852 h -1.9886 z"
           style="-inkscape-font-specification:'Josefin Sans Bold';fill:#707070"
           id="path1057" /><path
           d="m 591.03713,-653.94053 q -1.028,0 -1.87063,-0.40446 -0.82577,-0.42131 -1.31449,-1.28079 -0.48872,-0.85948 -0.48872,-2.19083 0,-1.24708 0.50557,-2.15712 0.50558,-0.91003 1.33135,-1.39875 0.82577,-0.50558 1.75266,-0.50558 1.09541,0 1.65154,0.37076 0.57299,0.3539 0.94374,0.79206 l -0.10111,0.2865 0.21908,-1.07856 h 2.19083 v 7.36454 h -2.35935 v -1.60099 l 0.18537,0.50558 q -0.0337,0 -0.20223,0.20223 -0.16852,0.18537 -0.50557,0.45501 -0.3202,0.25279 -0.80892,0.43817 -0.47187,0.20223 -1.12912,0.20223 z m 0.6741,-1.92119 q 0.42131,0 0.75836,-0.11796 0.33705,-0.13482 0.58984,-0.37076 0.25279,-0.25279 0.43817,-0.62354 v -1.80322 q -0.13482,-0.37075 -0.40446,-0.62354 -0.26964,-0.26964 -0.6404,-0.40446 -0.37075,-0.15167 -0.82577,-0.15167 -0.50558,0 -0.94374,0.26964 -0.42131,0.25278 -0.6741,0.7078 -0.25279,0.45502 -0.25279,1.04486 0,0.58983 0.26964,1.0617 0.26964,0.47187 0.70781,0.74151 0.45501,0.26964 0.97744,0.26964 z"
           style="-inkscape-font-specification:'Josefin Sans Bold';fill:#707070"
           id="path1059" /><path
           d="m 598.97466,-664.74298 h 2.35935 v 3.20197 h 1.78637 v 1.83692 h -1.78637 v 5.56133 h -2.35935 v -5.56133 h -1.14597 v -1.83692 h 1.14597 z"
           style="-inkscape-font-specification:'Josefin Sans Bold';fill:#707070"
           id="path1061" /><path
           d="m 608.02444,-653.94053 q -1.028,0 -1.87063,-0.40446 -0.82577,-0.42131 -1.31449,-1.28079 -0.48872,-0.85948 -0.48872,-2.19083 0,-1.24708 0.50557,-2.15712 0.50558,-0.91003 1.33135,-1.39875 0.82577,-0.50558 1.75266,-0.50558 1.09541,0 1.65154,0.37076 0.57299,0.3539 0.94374,0.79206 l -0.10111,0.2865 0.21908,-1.07856 h 2.19083 v 7.36454 h -2.35935 v -1.60099 l 0.18537,0.50558 q -0.0337,0 -0.20223,0.20223 -0.16852,0.18537 -0.50557,0.45501 -0.3202,0.25279 -0.80892,0.43817 -0.47187,0.20223 -1.12912,0.20223 z m 0.6741,-1.92119 q 0.42131,0 0.75836,-0.11796 0.33705,-0.13482 0.58984,-0.37076 0.25279,-0.25279 0.43817,-0.62354 v -1.80322 q -0.13482,-0.37075 -0.40446,-0.62354 -0.26964,-0.26964 -0.6404,-0.40446 -0.37075,-0.15167 -0.82577,-0.15167 -0.50558,0 -0.94374,0.26964 -0.42131,0.25278 -0.6741,0.7078 -0.25279,0.45502 -0.25279,1.04486 0,0.58983 0.26964,1.0617 0.26964,0.47187 0.70781,0.74151 0.45501,0.26964 0.97744,0.26964 z"
           style="-inkscape-font-specification:'Josefin Sans Bold';fill:#707070"
           id="path1063" /><path
           d="m 619.73695,-654.14276 5.59503,-12.89216 h 0.13482 l 5.59503,12.89216 h -2.83122 l -3.57273,-9.06665 1.76951,-1.21338 -4.28053,10.28003 z m 3.82552,-4.48277 h 3.7244 l 0.85948,2.05601 h -5.34225 z"
           style="-inkscape-font-specification:'Josefin Sans Bold';fill:#707070"
           id="path1065" /><path
           d="m 634.61769,-661.5073 0.18538,1.31449 -0.0337,-0.11797 q 0.3876,-0.69095 1.09541,-1.11226 0.7078,-0.43817 1.73581,-0.43817 1.04485,0 1.7358,0.62355 0.70781,0.60669 0.72466,1.58413 v 5.51077 h -2.35935 v -4.63444 q -0.0168,-0.48872 -0.26964,-0.77521 -0.23593,-0.30335 -0.80892,-0.30335 -0.53928,0 -0.94374,0.3539 -0.40446,0.35391 -0.62354,0.9606 -0.21908,0.60669 -0.21908,1.39875 v 2.99975 h -2.35935 v -7.36454 z"
           style="-inkscape-font-specification:'Josefin Sans Bold';fill:#707070"
           id="path1067" /><path
           d="m 645.58867,-653.94053 q -1.028,0 -1.87063,-0.40446 -0.82577,-0.42131 -1.31449,-1.28079 -0.48873,-0.85948 -0.48873,-2.19083 0,-1.24708 0.50558,-2.15712 0.50557,-0.91003 1.33135,-1.39875 0.82577,-0.50558 1.75266,-0.50558 1.09541,0 1.65154,0.37076 0.57299,0.3539 0.94374,0.79206 l -0.10111,0.2865 0.21908,-1.07856 h 2.19082 v 7.36454 h -2.35935 v -1.60099 l 0.18538,0.50558 q -0.0337,0 -0.20223,0.20223 -0.16852,0.18537 -0.50557,0.45501 -0.3202,0.25279 -0.80892,0.43817 -0.47187,0.20223 -1.12912,0.20223 z m 0.6741,-1.92119 q 0.42131,0 0.75836,-0.11796 0.33705,-0.13482 0.58984,-0.37076 0.25279,-0.25279 0.43816,-0.62354 v -1.80322 q -0.13482,-0.37075 -0.40446,-0.62354 -0.26964,-0.26964 -0.64039,-0.40446 -0.37076,-0.15167 -0.82577,-0.15167 -0.50558,0 -0.94374,0.26964 -0.42132,0.25278 -0.6741,0.7078 -0.25279,0.45502 -0.25279,1.04486 0,0.58983 0.26964,1.0617 0.26964,0.47187 0.7078,0.74151 0.45502,0.26964 0.97745,0.26964 z"
           style="-inkscape-font-specification:'Josefin Sans Bold';fill:#707070"
           id="path1069" /><path
           d="m 652.83525,-667.43938 h 2.35935 v 13.29662 h -2.35935 z"
           style="-inkscape-font-specification:'Josefin Sans Bold';fill:#707070"
           id="path1071" /><path
           d="m 658.21121,-650.60374 4.90407,-10.90356 h 2.12342 l -4.75241,10.90356 z m 1.97174,-3.50532 -3.60644,-7.39824 h 2.64585 l 2.78066,6.21857 z"
           style="-inkscape-font-specification:'Josefin Sans Bold';fill:#707070"
           id="path1073" /><path
           d="m 667.31156,-664.74298 h 2.35935 v 3.20197 h 1.78636 v 1.83692 h -1.78636 v 5.56133 h -2.35935 v -5.56133 h -1.14597 v -1.83692 h 1.14597 z"
           style="-inkscape-font-specification:'Josefin Sans Bold';fill:#707070"
           id="path1075" /><path
           d="m 673.26048,-661.5073 h 2.35935 v 7.36454 h -2.35935 z m -0.0506,-2.61214 q 0,-0.52243 0.40446,-0.85948 0.42131,-0.33705 0.89318,-0.33705 0.47187,0 0.85948,0.33705 0.40446,0.33705 0.40446,0.85948 0,0.52243 -0.40446,0.85948 -0.38761,0.32019 -0.85948,0.32019 -0.47187,0 -0.89318,-0.32019 -0.40446,-0.33705 -0.40446,-0.85948 z"
           style="-inkscape-font-specification:'Josefin Sans Bold';fill:#707070"
           id="path1077" /><path
           d="m 684.29887,-654.80001 q -0.48872,0.38761 -1.23023,0.62354 -0.72466,0.23594 -1.43246,0.23594 -1.26394,0 -2.20768,-0.45502 -0.92689,-0.47187 -1.44932,-1.33135 -0.50557,-0.87633 -0.50557,-2.10656 0,-1.23023 0.55613,-2.08971 0.55613,-0.87633 1.44932,-1.33135 0.91003,-0.45501 1.90433,-0.45501 0.9943,0 1.71895,0.26964 0.74151,0.26964 1.26394,0.7078 l -1.14597,1.51673 q -0.23593,-0.18538 -0.65725,-0.37076 -0.40446,-0.20223 -0.96059,-0.20223 -0.48872,0 -0.89318,0.25279 -0.40446,0.25279 -0.6404,0.69095 -0.23593,0.43817 -0.23593,1.01115 0,0.53928 0.25279,0.9943 0.25278,0.45502 0.69095,0.72466 0.45502,0.25278 1.06171,0.25278 0.3876,0 0.7078,-0.10111 0.33705,-0.11797 0.57299,-0.3202 z"
           style="-inkscape-font-specification:'Josefin Sans Bold';fill:#707070"
           id="path1079" /><path
           d="m 688.512,-653.99109 q -0.91004,0 -1.7021,-0.3202 -0.77522,-0.32019 -1.3145,-0.89318 l 0.97745,-1.29764 q 0.53928,0.48872 0.99429,0.7078 0.47187,0.20223 0.84263,0.20223 0.28649,0 0.50557,-0.0506 0.23594,-0.0674 0.37076,-0.18538 0.13482,-0.13482 0.13482,-0.33705 0,-0.28649 -0.23594,-0.45502 -0.21908,-0.16852 -0.57298,-0.26964 -0.3539,-0.11797 -0.75836,-0.23593 -1.01115,-0.3202 -1.46617,-0.92689 -0.43817,-0.62354 -0.43817,-1.3482 0,-0.55613 0.2865,-1.11227 0.30334,-0.57298 0.94374,-0.94374 0.65724,-0.3876 1.68525,-0.3876 0.92688,0 1.56728,0.18537 0.64039,0.18538 1.21338,0.60669 l -0.89318,1.38191 q -0.3202,-0.25279 -0.72466,-0.42131 -0.38761,-0.18538 -0.72466,-0.20223 -0.30334,-0.0169 -0.52243,0.0674 -0.20223,0.0843 -0.32019,0.21908 -0.11797,0.13482 -0.11797,0.28649 -0.0168,0.3202 0.23593,0.50558 0.26964,0.18537 0.6741,0.28649 0.40446,0.10111 0.79207,0.23593 0.53928,0.16853 0.92689,0.45502 0.38761,0.28649 0.58984,0.69095 0.21908,0.38761 0.21908,0.94374 0,0.6741 -0.3539,1.28079 -0.33705,0.58984 -1.04486,0.9606 -0.69095,0.37075 -1.76951,0.37075 z"
           style="-inkscape-font-specification:'Josefin Sans Bold';fill:#707070"
           id="path1081" /><path
           d="m 577.52143,-642.5685 q 0,0.58984 0.3539,1.12912 0.3539,0.53928 0.92689,0.87633 0.58983,0.33705 1.28079,0.33705 0.75836,0 1.3482,-0.33705 0.58983,-0.33705 0.92688,-0.87633 0.35391,-0.53928 0.35391,-1.12912 v -7.81956 h 2.4099 v 7.87012 q 0,1.36505 -0.6741,2.42676 -0.6741,1.04485 -1.82007,1.65154 -1.14597,0.58984 -2.54472,0.58984 v 0 q -1.38191,0 -2.52788,-0.58984 -1.12912,-0.60669 -1.80322,-1.65154 -0.6741,-1.06171 -0.6741,-2.42676 v -7.87012 h 2.44362 z"
           style="-inkscape-font-specification:'Josefin Sans Bold';fill:#707070"
           id="path1083" /><path
           d="m 587.05995,-650.38806 h 3.11771 l 8.0892,12.40344 h -3.15141 z m -0.16852,12.40344 4.41535,-6.94323 1.14597,2.46047 -2.52787,4.48276 z m 5.72985,-7.85326 2.56158,-4.55018 h 2.96604 l -4.26369,6.65674 z"
           style="-inkscape-font-specification:'Josefin Sans Bold';fill:#707070"
           id="path1085" /><path
           d="m 605.76625,-637.98462 v -12.40344 h 3.70755 q 1.87063,0 3.18512,0.55613 1.3145,0.55614 2.10656,1.48302 0.80892,0.92689 1.17968,2.07286 0.37075,1.14597 0.37075,2.30879 0,1.38191 -0.50557,2.49417 -0.48872,1.09542 -1.3482,1.88748 -0.85948,0.77522 -1.9886,1.19653 -1.12911,0.40446 -2.39305,0.40446 z m 2.44361,-2.35935 h 1.44932 q 0.92688,0 1.68525,-0.23593 0.75836,-0.25279 1.29764,-0.72466 0.55613,-0.47187 0.84262,-1.17968 0.30335,-0.72465 0.30335,-1.65154 0,-1.21338 -0.40446,-1.97174 -0.38761,-0.77522 -0.97745,-1.19653 -0.57298,-0.42131 -1.17967,-0.57299 -0.60669,-0.16852 -1.028,-0.16852 h -1.9886 z"
           style="-inkscape-font-specification:'Josefin Sans Bold';fill:#707070"
           id="path1087" /><path
           d="m 621.9952,-637.78239 q -1.3482,0 -2.29194,-0.50557 -0.92688,-0.50558 -1.41561,-1.39876 -0.48872,-0.89318 -0.48872,-2.05601 0,-1.11226 0.57299,-2.00544 0.57298,-0.89319 1.53357,-1.41561 0.9606,-0.53928 2.14027,-0.53928 1.58414,0 2.59529,0.92688 1.028,0.91004 1.33134,2.64585 l -5.72985,1.82007 -0.52242,-1.28079 4.14571,-1.39876 -0.48872,0.21908 q -0.13482,-0.43816 -0.48872,-0.75836 -0.33705,-0.33705 -1.02801,-0.33705 -0.52242,0 -0.92688,0.25279 -0.38761,0.23593 -0.60669,0.69095 -0.20223,0.43816 -0.20223,1.04485 0,0.69096 0.25278,1.16283 0.25279,0.45501 0.69096,0.69095 0.43816,0.23593 0.97744,0.23593 0.38761,0 0.74151,-0.13482 0.37076,-0.13482 0.72466,-0.3539 l 1.04485,1.75266 q -0.58983,0.33705 -1.28079,0.53928 -0.6741,0.20223 -1.28079,0.20223 z"
           style="-inkscape-font-specification:'Josefin Sans Bold';fill:#707070"
           id="path1089" /><path
           d="m 630.08439,-637.83295 q -0.91003,0 -1.7021,-0.32019 -0.77521,-0.3202 -1.31449,-0.89319 l 0.97744,-1.29764 q 0.53928,0.48872 0.9943,0.70781 0.47187,0.20223 0.84262,0.20223 0.2865,0 0.50558,-0.0506 0.23593,-0.0674 0.37075,-0.18538 0.13482,-0.13482 0.13482,-0.33705 0,-0.28649 -0.23593,-0.45502 -0.21908,-0.16852 -0.57299,-0.26964 -0.3539,-0.11796 -0.75836,-0.23593 -1.01115,-0.3202 -1.46617,-0.92689 -0.43816,-0.62354 -0.43816,-1.3482 0,-0.55613 0.28649,-1.11226 0.30335,-0.57299 0.94374,-0.94374 0.65725,-0.38761 1.68525,-0.38761 0.92689,0 1.56728,0.18538 0.6404,0.18537 1.21338,0.60669 l -0.89318,1.3819 q -0.3202,-0.25279 -0.72466,-0.42131 -0.3876,-0.18538 -0.72465,-0.20223 -0.30335,-0.0169 -0.52243,0.0674 -0.20223,0.0843 -0.3202,0.21908 -0.11797,0.13482 -0.11797,0.28649 -0.0168,0.3202 0.23594,0.50558 0.26964,0.18538 0.6741,0.28649 0.40446,0.10112 0.79207,0.23594 0.53928,0.16852 0.92688,0.45501 0.38761,0.2865 0.58984,0.69096 0.21908,0.3876 0.21908,0.94374 0,0.6741 -0.3539,1.28079 -0.33705,0.58983 -1.04485,0.96059 -0.69096,0.37075 -1.76952,0.37075 z"
           style="-inkscape-font-specification:'Josefin Sans Bold';fill:#707070"
           id="path1091" /><path
           d="m 635.22442,-645.34916 h 2.35935 v 7.36454 h -2.35935 z m -0.0506,-2.61214 q 0,-0.52243 0.40446,-0.85948 0.42131,-0.33705 0.89318,-0.33705 0.47187,0 0.85948,0.33705 0.40446,0.33705 0.40446,0.85948 0,0.52243 -0.40446,0.85948 -0.38761,0.3202 -0.85948,0.3202 -0.47187,0 -0.89318,-0.3202 -0.40446,-0.33705 -0.40446,-0.85948 z"
           style="-inkscape-font-specification:'Josefin Sans Bold';fill:#707070"
           id="path1093" /><path
           d="m 643.8192,-634.27707 q -0.99429,0 -1.68525,-0.23593 -0.6741,-0.23594 -1.14597,-0.57299 -0.47187,-0.33705 -0.84262,-0.64039 l 1.3819,-1.61784 q 0.38761,0.3539 0.89318,0.6741 0.52243,0.33705 1.36506,0.33705 0.55613,0 1.028,-0.20223 0.48872,-0.18538 0.77522,-0.55614 0.30334,-0.37075 0.30334,-0.92688 v -1.61784 l 0.0843,0.42131 q -0.26964,0.57298 -0.97744,1.01115 -0.70781,0.42131 -1.85378,0.42131 -0.9943,0 -1.85377,-0.50557 -0.84263,-0.52243 -1.3482,-1.39876 -0.50558,-0.89318 -0.50558,-2.0223 0,-1.16282 0.53928,-2.05601 0.53928,-0.91003 1.39876,-1.43246 0.85948,-0.52243 1.82007,-0.52243 0.96059,0 1.65155,0.2865 0.7078,0.26964 1.0617,0.6741 l -0.0843,0.21908 0.25279,-0.80892 h 2.17397 v 7.36454 q 0,1.07856 -0.60669,1.90433 -0.60669,0.84263 -1.61784,1.3145 -0.9943,0.48872 -2.20768,0.48872 z m -2.00545,-7.49936 q 0,0.58984 0.26964,1.06171 0.26964,0.47187 0.72466,0.74151 0.47187,0.26964 1.04486,0.26964 0.48872,0 0.85948,-0.11797 0.3876,-0.13482 0.6741,-0.37076 0.30334,-0.25278 0.50557,-0.62354 v -1.80322 q -0.15167,-0.37075 -0.45502,-0.62354 -0.30334,-0.26964 -0.7078,-0.40446 -0.38761,-0.15167 -0.87633,-0.15167 -0.57299,0 -1.04486,0.26964 -0.45502,0.25279 -0.72466,0.7078 -0.26964,0.45502 -0.26964,1.04486 z"
           style="-inkscape-font-specification:'Josefin Sans Bold';fill:#707070"
           id="path1095" /><path
           d="m 652.81842,-645.34916 0.18538,1.31449 -0.0337,-0.11796 q 0.3876,-0.69096 1.09541,-1.11227 0.7078,-0.43816 1.73581,-0.43816 1.04485,0 1.7358,0.62354 0.70781,0.60669 0.72466,1.58413 v 5.51077 h -2.35935 v -4.63444 q -0.0168,-0.48872 -0.26964,-0.77521 -0.23593,-0.30335 -0.80892,-0.30335 -0.53928,0 -0.94374,0.35391 -0.40446,0.3539 -0.62354,0.96059 -0.21908,0.60669 -0.21908,1.39876 v 2.99974 h -2.35935 v -7.36454 z"
           style="-inkscape-font-specification:'Josefin Sans Bold';fill:#707070"
           id="path1097" /></g></g><g
       aria-label="證照獎狀"
       transform="skewY(30)"
       id="text287"
       style="font-size:31.534px;line-height:1.25;font-family:'Nunito Sans';-inkscape-font-specification:'Nunito Sans, Normal';fill:#1a1a1a;stroke-width:0.537702"><path
         d="m 734.42474,-956.76143 q 0.6159,0.36954 -0.36953,0.6159 l -2.58678,2.46359 q 0.49272,0.49272 1.10862,1.10862 l 2.95631,-2.95631 1.47816,0.98543 q 0.98544,0.6159 -0.24636,0.6159 l -2.70995,2.58678 q 1.47815,1.35497 3.94175,2.46359 l -1.60134,1.97088 q -1.72452,-0.98544 -3.44903,-2.4636 v 1.72452 h -9.48484 v -1.60134 q -1.84769,1.97088 -3.57221,3.07949 l -1.35497,-2.09405 q 2.09405,-1.10862 3.94175,-3.07949 -1.10862,-1.35498 -2.70996,-2.34042 l 1.2318,-1.60133 q 1.47816,0.86225 3.07949,2.46359 1.35498,-1.47816 2.09406,-2.95631 h -3.81857 v -2.34042 h 4.68082 l 0.36954,-0.6159 2.09406,0.73908 q 0.73908,0.24636 -0.12318,0.73908 l -0.36954,0.49272 q 0.36954,0.73908 1.35498,1.72452 l 2.46359,-2.83314 z m -10.10073,18.23059 q 1.35498,1.72452 2.09406,3.32586 l -1.97088,1.10861 q -0.86226,-1.84769 -1.97087,-3.32585 z m -4.68083,6.89807 v -2.34042 h 8.99212 l 1.60134,-4.55765 2.21723,0.6159 q 1.2318,0.36954 -0.12318,0.73908 l -1.60134,3.20267 h 6.15899 v 2.34042 z m -7.14442,-2.95632 h 4.06493 v -4.31129 h -4.06493 z m -1.72452,-10.83981 h 7.39079 v 2.34042 h -7.39079 z m 5.78945,14.04249 v -1.2318 h -4.06493 v 1.47816 h -2.09405 v -9.7312 h 8.25303 v 9.48484 z m -5.78945,-18.35378 h 7.26761 v 2.34042 h -7.26761 z m -1.47815,-4.43447 h 9.85437 v 2.34042 h -9.85437 z m 1.47815,-4.18811 h 7.39079 v 2.34042 h -7.39079 z m 10.71664,19.58557 v -7.02124 h 12.93386 v 7.02124 z m 10.71663,-11.20935 q -2.34041,-2.09405 -4.31129,-4.92718 -1.84769,3.07949 -3.81857,4.92718 z m 0.12318,9.23848 v -3.07949 h -8.74576 v 3.07949 z"
         id="path331" /><path
         d="m 765.34285,-955.28327 h -5.41991 q -1.10862,5.66626 -5.17355,7.51396 h 12.56433 v 8.4994 h -2.46359 v -0.86226 h -8.00668 v 1.23179 h -2.4636 v -8.62257 l -1.23179,0.73907 -1.60134,-2.21723 q 4.68083,-1.97087 5.66627,-6.28216 h -4.68083 v -2.34042 h 15.52064 l -0.6159,5.78945 q -0.24636,2.58677 -2.34041,2.58677 h -3.94175 l -0.24636,-2.34041 h 2.70995 q 1.10862,0 1.2318,-0.98544 z m -15.27428,23.52732 q 0,-3.32585 -0.49272,-5.54309 l 2.70995,-0.24636 q 0.86226,1.97088 0.86226,5.66627 z m -3.0795,-5.05037 q -0.98543,3.32585 -3.07949,5.91262 l -2.83313,-1.35497 q 1.97087,-2.4636 3.20267,-5.41991 z m 11.45571,-0.98544 q 1.60134,1.8477 2.58678,5.29673 l -3.07949,0.98544 q -0.6159,-3.0795 -1.97088,-5.54309 z m 5.91263,-0.24636 q 2.95631,2.21724 4.43447,5.41991 l -2.58678,1.47816 q -1.72451,-3.0795 -3.94175,-5.41991 z m -19.33921,-17.36833 v 5.54308 h 3.81857 v -5.54308 z m 0,13.05704 h 3.81857 v -5.54308 h -3.81857 z m 19.83193,0.24636 v -3.69539 h -8.00668 v 3.69539 z m -16.01336,1.72452 h -3.81857 v 1.72451 h -2.4636 v -18.72331 h 8.74576 v 17.98424 h -2.46359 z"
         id="path333" /><path
         d="m 773.34953,-933.23411 q 8.86893,-0.86226 10.34709,-4.80401 h -10.47027 v -2.34041 h 11.08617 l 0.36954,-2.95631 h 2.46359 q 1.10862,0.12318 0.12318,0.86225 l -0.36954,2.09406 h 13.18023 v 2.34041 h -11.45571 q 3.44903,3.20267 11.45571,4.31129 l -0.73908,2.70996 q -8.74576,-1.10862 -13.18023,-6.40535 -2.34041,5.91263 -11.94843,6.6517 z m 15.02792,-10.34709 q -1.35498,-1.47816 -2.95631,-2.58678 l 1.72451,-1.60133 q 1.72452,0.86226 3.07949,2.34041 z m -4.80401,-4.31129 v -1.97088 h 10.71663 v -1.97087 h 2.34042 q 0.98544,0.12318 0.12318,0.73908 v 1.23179 h 3.94175 v 1.97088 h -3.94175 v 3.20267 q 0,1.97087 -1.72452,1.97087 h -1.97087 l -0.36954,-1.97087 h 1.10862 q 0.49271,0 0.49271,-0.49272 v -2.70995 z m -0.36954,-7.02124 q 4.68083,-1.8477 6.40535,-3.94175 l 1.97087,0.24635 q 1.10862,0.24636 -0.24636,0.73908 l -0.86226,0.73908 h 6.89807 l 0.24636,-0.24636 1.23179,0.86226 q 1.35498,0.6159 -0.24636,0.86226 -5.4199,4.18811 -14.04248,5.54308 l -0.98544,-1.72451 q 1.8477,-0.24636 3.44903,-0.6159 l -1.35497,-1.47816 -1.47816,0.6159 z m 7.51396,10.71663 q 1.60134,0.73908 2.83314,1.97087 l -1.72452,1.72452 q -1.10862,-1.10862 -2.70995,-2.09406 z m -16.50608,-13.42659 h 2.34042 q 0.98544,0.12318 0.12318,0.73908 v 2.70995 h 3.44903 v -4.55765 h 2.34041 q 0.98544,0.12318 0.12318,0.73908 v 15.52064 h -2.46359 v -5.4199 h -2.09406 q 0,4.68083 -4.31128,6.0358 l -1.10862,-2.09405 q 3.20267,-1.10862 3.20267,-3.94175 h -2.70995 v -1.97088 h 7.02124 v -2.34041 h -3.44903 v 0.98544 h -2.4636 z m 17.73788,3.57221 q 1.60134,-0.49272 3.32585,-1.60133 h -5.54308 z m -1.8477,0.73908 -1.97087,-1.72451 -0.98544,0.49271 1.72452,1.60134 z"
         id="path335" /><path
         d="m 813.38293,-958.36277 q 0.98544,0.12318 0.12318,0.73908 v 26.48364 h -2.46359 v -10.83982 h -1.97088 v 3.69539 q 0,4.92719 -3.44903,7.26761 l -1.47816,-2.21724 q 2.4636,-1.72452 2.4636,-5.54309 v -3.20267 h -1.97088 v -2.34041 h 6.40535 v -3.69539 h -3.0795 v 0.86226 h -2.46359 v -9.48484 h 2.46359 v 6.28216 h 3.0795 v -8.00668 z m 17.49152,26.97636 q -6.89807,-4.31129 -8.74576,-12.19479 -0.6159,8.4994 -7.02124,12.44115 l -1.35498,-2.58678 q 6.40534,-3.69539 6.40534,-14.28884 h -5.78944 v -2.34042 h 5.91262 v -8.37622 h 2.34042 q 0.98543,0.12318 0.12318,0.73908 v 7.63714 h 8.74575 v 2.34042 h -8.12986 q 1.2318,9.23847 8.86894,13.54976 z m -4.68083,-25.74456 q 2.46359,1.35498 3.44903,3.32585 l -1.97088,1.97088 q -1.23179,-1.97088 -3.32585,-3.44903 z"
         id="path337" /></g></g></svg>
