<?xml version="1.0" encoding="UTF-8" standalone="no"?>
<!-- Created with Inkscape (http://www.inkscape.org/) -->

<svg
   width="69.457199"
   height="175.2751"
   viewBox="0 0 18.377216 46.37487"
   version="1.1"
   id="svg5"
   inkscape:version="1.2 (dc2aedaf03, 2022-05-15)"
   sodipodi:docname="nav-portfolio-ch.svg"
   xml:space="preserve"
   xmlns:inkscape="http://www.inkscape.org/namespaces/inkscape"
   xmlns:sodipodi="http://sodipodi.sourceforge.net/DTD/sodipodi-0.dtd"
   xmlns="http://www.w3.org/2000/svg"
   xmlns:svg="http://www.w3.org/2000/svg"><sodipodi:namedview
     id="namedview7"
     pagecolor="#ffffff"
     bordercolor="#666666"
     borderopacity="1.0"
     inkscape:showpageshadow="2"
     inkscape:pageopacity="0.0"
     inkscape:pagecheckerboard="0"
     inkscape:deskcolor="#d1d1d1"
     inkscape:document-units="mm"
     showgrid="true"
     inkscape:zoom="4.0000001"
     inkscape:cx="97.624997"
     inkscape:cy="49.874999"
     inkscape:window-width="1920"
     inkscape:window-height="991"
     inkscape:window-x="2391"
     inkscape:window-y="-9"
     inkscape:window-maximized="1"
     inkscape:current-layer="g1022"><inkscape:grid
       type="axonomgrid"
       id="grid1326"
       snapvisiblegridlinesonly="false"
       units="px"
       spacingy="2.6458333"
       originx="169.33333"
       originy="95.25" /></sodipodi:namedview><defs
     id="defs2" /><g
     inkscape:label="Layer 1"
     inkscape:groupmode="layer"
     id="layer1"
     transform="translate(-37.156862,-39.637978)"><g
       id="g1022"><path
         id="path464"
         style="fill:#333333;fill-opacity:1;stroke:#99e4ff;stroke-width:0;stroke-linecap:round;stroke-miterlimit:18.1;stroke-dashoffset:5.07364;paint-order:markers fill stroke"
         d="M 55.258875,53.572645 37.4306,73.547281 37.576951,86.012841 55.534079,75.459155 Z" /><path
         id="path104109"
         style="fill:#ba1111;fill-opacity:1;stroke:#99e4ff;stroke-width:0;stroke-linecap:round;stroke-miterlimit:18.1;stroke-dashoffset:5.07364;paint-order:markers fill stroke"
         d="M 55.083576,39.63798 37.156861,50.24142 37.4306,73.547281 55.258875,53.572645 Z" /><path
         id="path106290"
         style="fill:none;fill-opacity:1;stroke:#ffffff;stroke-width:0.214022;stroke-linecap:round;stroke-miterlimit:18.1;stroke-dasharray:none;stroke-dashoffset:5.07364;stroke-opacity:1;paint-order:markers fill stroke"
         d="m 38.263979,84.497594 -0.315071,-33.591675 16.299237,-9.640807 0.34282,33.636941 z"
         sodipodi:nodetypes="ccccc" /><path
         d="m 45.373637,60.772804 q -0.129604,1.092704 -0.271649,1.726941 0.374654,0.194055 0.695322,-0.05263 0.151749,-0.113582 0.01741,-0.58105 l 0.398286,-0.15776 q 0.188327,0.908211 -0.191051,1.192154 -0.565459,0.436581 -1.076441,0.190861 -0.277625,0.936188 -0.681627,1.779848 l -0.305994,-0.272174 q 0.556747,-1.165142 0.678891,-1.717658 -0.38809,-0.444619 -0.727176,-1.447156 l -0.841096,0.956959 0.281369,0.831894 q 0.297281,-0.456391 0.597298,-0.974969 l 0.181359,0.325361 q -0.3443,0.598501 -0.634365,1.07622 l 0.454519,1.343827 q 0.115433,0.341289 -0.159212,0.653766 l -0.463461,0.527305 -0.227383,-0.391153 0.394801,-0.449185 q 0.06866,-0.07812 0.0398,-0.163445 l -0.3463,-1.023867 q -0.280116,0.436862 -0.683124,1.072618 -0.04528,0.287824 -0.122894,0.198897 L 42.09483,65.064514 q 0.458983,-0.610826 0.940604,-1.365565 l -0.310228,-0.917216 -0.944088,1.07414 -0.137077,-0.405281 0.944089,-1.07414 -0.25251,-0.746566 -0.746314,1.026355 -0.222902,-0.307632 q 0.986626,-1.299772 1.500834,-2.239282 l 0.343061,0.170924 q 0.0704,0.0676 -0.09851,0.200699 l -0.461718,0.673017 0.281368,0.831893 0.841096,-0.95696 -0.454518,-1.343827 0.326139,-0.371066 q 0.144538,-0.134906 0.06046,0.108452 l 0.411231,1.215843 1.235897,-1.406146 0.137078,0.40528 -1.235898,1.406146 q 0.26694,0.789233 0.550296,1.205319 0.143039,-0.842141 0.190302,-1.545771 l 0.405499,-0.13643 q 0.124635,-0.05319 -0.02538,0.206104 z M 44.64721,59.679263 q -0.226634,-0.03753 -0.602281,-0.02369 l 0.18359,-0.651965 q 0.392813,-0.03338 0.602282,0.02369 z"
         id="path984"
         style="font-size:6.28146px;line-height:1.25;font-family:'Nunito Sans';-inkscape-font-specification:'Nunito Sans, Normal';fill:#ffffff;stroke-width:0.0982933" /><path
         d="m 48.353908,55.66873 q 0.03036,0.792553 -0.166915,1.755474 l -0.38734,-0.09101 q 0.338321,-1.389252 0.03829,-2.908847 l 0.410972,-0.260813 q 0.183345,-0.09044 0.02612,0.147516 0.04951,0.357217 0.07912,0.796157 l 1.235898,-1.406147 0.895357,2.998609 q 0.271416,0.872754 -0.260705,1.478177 l -0.480626,0.546834 -0.188572,-0.346693 0.446296,-0.507775 q 0.240313,-0.273417 0.127616,-0.676897 l -0.779935,-2.657317 z m 0.876939,1.749386 Q 48.846242,57.264922 48.439,57.25564 l 0.161947,-0.715958 q 0.473167,-0.0066 0.801797,0.121617 z m -2.833532,-0.0845 q -0.03408,-0.522461 -0.128623,-1.153373 l 0.476896,-0.276741 q 0.09752,0.0072 -0.01542,0.165242 0.0423,0.335885 0.02762,0.854745 l 0.635114,-0.722603 1.190407,3.519546 -0.343305,0.390597 -0.08658,-0.255967 -0.755271,0.859311 0.144291,0.426612 -0.343304,0.390595 -1.248123,-3.690189 z m 0.789357,-0.336852 -0.755271,0.859311 0.317442,0.938546 0.755271,-0.859312 z m 0.454519,1.343827 -0.755271,0.859311 0.375158,1.10919 0.755271,-0.859312 z"
         id="path986"
         style="font-size:6.28146px;line-height:1.25;font-family:'Nunito Sans';-inkscape-font-specification:'Nunito Sans, Normal';fill:#ffffff;stroke-width:0.0982933" /><path
         d="m 46.129985,66.311222 0.137078,0.40528 -1.235898,1.406147 0.26694,0.789231 1.08141,-1.230377 0.137078,0.405281 -1.081411,1.230378 0.238082,0.703909 1.150071,-1.308498 0.137076,0.405282 -1.150071,1.308497 0.404017,1.194512 -0.343304,0.390596 -1.183192,-3.498215 -0.171653,0.195298 q -0.02935,1.037717 -0.20846,1.773204 l -0.427144,0.07243 q 0.383597,-1.677076 0.144019,-3.088217 l 0.403757,-0.282142 q 0.124635,-0.05319 0.01891,0.126186 0.03782,0.252361 0.052,0.856545 z m -3.339992,5.867817 q 0.387326,-1.947171 0.201979,-3.479093 l 0.428138,-0.280342 q 0.13185,-0.03185 0.0189,0.126185 0.04577,0.627313 0.01743,1.457125 l 0.117419,-0.07452 q 0.09752,0.0072 -0.01542,0.165242 l 1.111045,3.284909 -0.343305,0.390596 -0.937896,-2.772975 q -0.05895,0.598778 -0.201,1.233014 z"
         id="path988"
         style="font-size:6.28146px;line-height:1.25;font-family:'Nunito Sans';-inkscape-font-specification:'Nunito Sans, Normal';fill:#ffffff;stroke-width:0.0982933" /><path
         d="m 49.756589,63.750611 -1.510541,1.718622 0.0505,0.149314 -0.343304,0.390595 -0.670957,-1.983743 2.197151,-2.499814 0.656528,1.941082 -0.343306,0.390596 z m -1.647618,1.313341 1.510541,-1.718623 -0.3463,-1.023867 -1.510541,1.718622 z m 3.13231,0.335352 -0.823932,0.93743 0.129863,0.38395 -0.343305,0.390597 -0.764746,-2.261043 1.510541,-1.718622 0.743103,2.19705 -0.343304,0.390597 z m -1.321738,-0.53438 0.36073,1.066529 0.823931,-0.937431 -0.360729,-1.066528 z m -1.956837,2.226398 0.360729,1.066528 0.823932,-0.93743 -0.360729,-1.066528 z m 1.321738,0.534379 -0.823931,0.93743 0.129862,0.38395 -0.343305,0.390597 -0.764745,-2.261042 1.51054,-1.718622 0.743102,2.197051 -0.343304,0.390596 z"
         id="path990"
         style="font-size:6.28146px;line-height:1.25;font-family:'Nunito Sans';-inkscape-font-specification:'Nunito Sans, Normal';fill:#ffffff;stroke-width:0.0982933" /></g></g></svg>
