<?xml version="1.0" encoding="UTF-8" standalone="no"?>
<!-- Created with Inkscape (http://www.inkscape.org/) -->

<svg
   width="82.092239"
   height="97.944992"
   viewBox="0 0 21.720238 25.914612"
   version="1.1"
   id="svg5"
   xml:space="preserve"
   sodipodi:docname="nav-main.svg"
   inkscape:version="1.2 (dc2aedaf03, 2022-05-15)"
   xmlns:inkscape="http://www.inkscape.org/namespaces/inkscape"
   xmlns:sodipodi="http://sodipodi.sourceforge.net/DTD/sodipodi-0.dtd"
   xmlns="http://www.w3.org/2000/svg"
   xmlns:svg="http://www.w3.org/2000/svg"><sodipodi:namedview
     id="namedview457"
     pagecolor="#ffffff"
     bordercolor="#666666"
     borderopacity="1.0"
     inkscape:showpageshadow="2"
     inkscape:pageopacity="0.0"
     inkscape:pagecheckerboard="0"
     inkscape:deskcolor="#d1d1d1"
     showgrid="false"
     inkscape:zoom="1"
     inkscape:cx="71.5"
     inkscape:cy="420.5"
     inkscape:window-width="1920"
     inkscape:window-height="991"
     inkscape:window-x="-9"
     inkscape:window-y="-9"
     inkscape:window-maximized="1"
     inkscape:current-layer="layer3" /><defs
     id="defs2" /><g
     id="layer3"
     transform="matrix(0.10379619,0,0,0.10379619,-72.656295,58.889339)"><g
       id="g865"
       transform="translate(107.24648,-220.80157)"><path
         id="rect2469-6"
         style="fill:#d5bdad;fill-opacity:1;stroke:#99e4ff;stroke-width:0;stroke-linecap:round;stroke-miterlimit:18.1;stroke-dashoffset:5.07364;paint-order:markers fill stroke"
         d="m 592.74353,-346.55393 209.2585,122.34245 -0.1426,127.325804 -208.5795,-122.169794 z" /><ellipse
         style="fill:#d4aa00;fill-opacity:1;stroke:#c8c8c8;stroke-width:0.77445;stroke-linecap:round;stroke-miterlimit:18.1;stroke-dasharray:none;stroke-dashoffset:5.07364;stroke-opacity:1;paint-order:markers fill stroke"
         id="path80646"
         cx="765.86139"
         cy="161.69215"
         rx="20.818909"
         ry="22.997736"
         transform="rotate(-23.223533)" /><g
         aria-label="CERTIFICATE"
         transform="matrix(1.0063103,0.61181123,-0.0931608,0.93708986,0,0)"
         id="text81170"
         style="font-size:28.9795px;font-family:'Nunito Sans';-inkscape-font-specification:'Nunito Sans, Normal';stroke-width:0.494141"><path
           d="m 554.62382,-683.57488 q -0.34775,0.2898 -1.30408,0.78245 -0.92734,0.49265 -2.28938,0.86938 -1.36203,0.37674 -3.01387,0.34776 -2.52121,-0.058 -4.5208,-0.89837 -1.9706,-0.86938 -3.36162,-2.34734 -1.36204,-1.47795 -2.08652,-3.3906 -0.72449,-1.91265 -0.72449,-4.08611 0,-2.43428 0.72449,-4.46284 0.75346,-2.02857 2.1155,-3.50652 1.39102,-1.47795 3.30366,-2.28938 1.91265,-0.81143 4.23101,-0.81143 2.14448,0 3.79631,0.57959 1.65184,0.57959 2.6951,1.24612 l -1.65183,3.97019 q -0.72449,-0.55061 -1.94163,-1.1302 -1.18816,-0.60857 -2.75305,-0.60857 -1.21714,0 -2.34734,0.52163 -1.10122,0.49266 -1.97061,1.42 -0.8404,0.92734 -1.33305,2.17346 -0.49266,1.21714 -0.49266,2.66612 0,1.53591 0.4347,2.81101 0.46367,1.2751 1.30407,2.20244 0.84041,0.89836 1.99959,1.39102 1.18816,0.49265 2.66611,0.49265 1.70979,0 2.92693,-0.55061 1.21714,-0.55061 1.85469,-1.15918 z"
           style="-inkscape-font-specification:'Josefin Sans Bold'"
           id="path1176" /><path
           d="m 558.82586,-703.13604 h 14.54771 v 4.05713 h -10.34568 v 4.54978 h 9.15752 v 4.05713 h -9.15752 v 4.60774 h 10.7514 v 4.05713 h -14.95343 z"
           style="-inkscape-font-specification:'Josefin Sans Bold'"
           id="path1178" /><path
           d="m 584.58865,-703.13604 q 1.99959,0 3.56448,0.52163 1.56489,0.49265 2.60815,1.44898 1.07224,0.92734 1.62286,2.2604 0.55061,1.30407 0.55061,2.95591 0,1.30407 -0.40572,2.60815 -0.37673,1.30408 -1.2751,2.37632 -0.86938,1.07224 -2.31836,1.73877 -1.44897,0.63755 -3.59345,0.63755 h -3.01387 v 6.7812 h -4.20203 v -21.32891 z m 0.72449,10.49058 q 0.95632,0 1.59387,-0.31878 0.63755,-0.31877 0.9853,-0.81142 0.37674,-0.49265 0.52163,-1.01428 0.17388,-0.55062 0.17388,-1.01429 0,-0.34775 -0.11592,-0.86938 -0.0869,-0.55061 -0.40571,-1.10122 -0.31877,-0.55061 -0.9853,-0.92735 -0.63755,-0.37673 -1.73877,-0.37673 h -3.01387 v 6.43345 z m 3.94121,2.60815 5.27427,8.23018 h -4.89754 l -5.39018,-8.11426 z"
           style="-inkscape-font-specification:'Josefin Sans Bold'"
           id="path1180" /><path
           d="m 596.12253,-703.13604 h 14.37383 v 4.05713 h -5.18733 v 17.27178 h -4.20202 v -17.27178 h -4.98448 z"
           style="-inkscape-font-specification:'Josefin Sans Bold'"
           id="path1182" /><path
           d="m 614.55351,-703.13604 h 4.20202 v 21.32891 h -4.20202 z"
           style="-inkscape-font-specification:'Josefin Sans Bold'"
           id="path1184" /><path
           d="m 624.26161,-703.13604 h 13.33057 v 4.05713 h -9.12854 v 4.83958 h 7.9114 v 4.05713 h -7.9114 v 8.37507 h -4.20203 z"
           style="-inkscape-font-specification:'Josefin Sans Bold'"
           id="path1186" /><path
           d="m 641.64932,-703.13604 h 4.20203 v 21.32891 h -4.20203 z"
           style="-inkscape-font-specification:'Josefin Sans Bold'"
           id="path1188" /><path
           d="m 667.35411,-683.57488 q -0.34775,0.2898 -1.30407,0.78245 -0.92735,0.49265 -2.28938,0.86938 -1.36204,0.37674 -3.01387,0.34776 -2.52122,-0.058 -4.5208,-0.89837 -1.97061,-0.86938 -3.36163,-2.34734 -1.36203,-1.47795 -2.08652,-3.3906 -0.72449,-1.91265 -0.72449,-4.08611 0,-2.43428 0.72449,-4.46284 0.75347,-2.02857 2.1155,-3.50652 1.39102,-1.47795 3.30367,-2.28938 1.91264,-0.81143 4.231,-0.81143 2.14449,0 3.79632,0.57959 1.65183,0.57959 2.69509,1.24612 l -1.65183,3.97019 q -0.72449,-0.55061 -1.94163,-1.1302 -1.18816,-0.60857 -2.75305,-0.60857 -1.21714,0 -2.34734,0.52163 -1.10122,0.49266 -1.9706,1.42 -0.84041,0.92734 -1.33306,2.17346 -0.49265,1.21714 -0.49265,2.66612 0,1.53591 0.43469,2.81101 0.46367,1.2751 1.30408,2.20244 0.8404,0.89836 1.99958,1.39102 1.18816,0.49265 2.66612,0.49265 1.70979,0 2.92693,-0.55061 1.21714,-0.55061 1.85468,-1.15918 z"
           style="-inkscape-font-specification:'Josefin Sans Bold'"
           id="path1190" /><path
           d="m 669.15085,-681.80713 9.6212,-22.16932 h 0.23183 l 9.6212,22.16932 h -4.86856 l -6.14365,-15.59097 3.04285,-2.08652 -7.3608,17.67749 z m 6.57835,-7.70855 h 6.40447 l 1.47795,3.5355 h -9.1865 z"
           style="-inkscape-font-specification:'Josefin Sans Bold'"
           id="path1192" /><path
           d="m 688.53813,-703.13604 h 14.37383 v 4.05713 h -5.18733 v 17.27178 h -4.20202 v -17.27178 h -4.98448 z"
           style="-inkscape-font-specification:'Josefin Sans Bold'"
           id="path1194" /><path
           d="m 706.96912,-703.13604 h 14.54771 v 4.05713 h -10.34569 v 4.54978 h 9.15753 v 4.05713 h -9.15753 v 4.60774 h 10.7514 v 4.05713 h -14.95342 z"
           style="-inkscape-font-specification:'Josefin Sans Bold'"
           id="path1196" /></g><g
         aria-label="Project ManagementData AnalyticsUX Design"
         transform="matrix(1.0679055,0.6194659,0.02110079,0.94865249,0,0)"
         id="text81170-4"
         style="font-size:16.8525px;font-family:'Nunito Sans';-inkscape-font-specification:'Nunito Sans, Normal';stroke-width:0.556195"><path
           d="m 579.08871,-682.70434 q 1.53358,0 2.59528,0.52242 1.06171,0.50558 1.61784,1.44932 0.55614,0.92689 0.55614,2.20768 0,0.75836 -0.23594,1.53357 -0.21908,0.75837 -0.72466,1.38191 -0.48872,0.62354 -1.33134,1.01115 -0.82578,0.37075 -2.03916,0.37075 h -1.75266 v 3.92664 h -2.44361 v -12.40344 z m 0.42131,6.1006 q 0.55613,0 0.92689,-0.18538 0.37075,-0.20223 0.57298,-0.48872 0.21909,-0.30334 0.30335,-0.62354 0.10111,-0.3202 0.10111,-0.55613 0,-0.18538 -0.0674,-0.48873 -0.0506,-0.32019 -0.23593,-0.64039 -0.18538,-0.3202 -0.57299,-0.53928 -0.37075,-0.21908 -1.01115,-0.21908 h -1.75266 v 3.74125 z"
           style="-inkscape-font-specification:'Josefin Sans Bold';fill:#707070"
           id="path1023" /><path
           d="m 587.78459,-677.66545 0.21909,2.0223 -0.0506,-0.30334 q 0.3202,-0.65725 0.87633,-1.11227 0.55613,-0.47187 1.09541,-0.72465 0.55614,-0.25279 0.84263,-0.25279 l -0.11797,2.35935 q -0.82577,-0.10112 -1.41561,0.26964 -0.58984,0.37075 -0.91004,0.97744 -0.32019,0.60669 -0.32019,1.24709 v 2.88178 h -2.3425 v -7.36455 z"
           style="-inkscape-font-specification:'Josefin Sans Bold';fill:#707070"
           id="path1025" /><path
           d="m 591.66066,-674.07586 q 0,-1.12912 0.52243,-2.0223 0.53928,-0.89319 1.49987,-1.39876 0.96059,-0.52243 2.20768,-0.52243 1.26393,0 2.19082,0.52243 0.92689,0.50557 1.41561,1.39876 0.50558,0.89318 0.50558,2.0223 0,1.12911 -0.50558,2.03915 -0.48872,0.89318 -1.41561,1.41561 -0.92689,0.52243 -2.22453,0.52243 -1.21338,0 -2.17397,-0.47187 -0.94374,-0.47187 -1.48302,-1.36506 -0.53928,-0.89318 -0.53928,-2.14026 z m 2.3762,0.0169 q 0,0.57298 0.23594,1.04485 0.23593,0.45502 0.64039,0.72466 0.40446,0.26964 0.91004,0.26964 0.55613,0 0.96059,-0.26964 0.40446,-0.26964 0.62354,-0.72466 0.21908,-0.47187 0.21908,-1.04485 0,-0.58984 -0.21908,-1.04486 -0.21908,-0.45501 -0.62354,-0.72465 -0.40446,-0.26964 -0.96059,-0.26964 -0.50558,0 -0.91004,0.26964 -0.40446,0.26964 -0.64039,0.72465 -0.23594,0.45502 -0.23594,1.04486 z"
           style="-inkscape-font-specification:'Josefin Sans Bold';fill:#707070"
           id="path1027" /><path
           d="m 602.34513,-666.74503 -1.36505,-1.46616 q 0.50557,-0.37076 0.77521,-0.91004 0.2865,-0.53928 0.2865,-1.31449 v -7.22973 h 2.35935 v 7.36455 q 0,1.31449 -0.47187,2.17397 -0.47187,0.87633 -1.58414,1.3819 z m -0.38761,-13.53255 q 0,-0.52243 0.40446,-0.85948 0.42132,-0.33705 0.89319,-0.33705 0.47187,0 0.85947,0.33705 0.40446,0.33705 0.40446,0.85948 0,0.52242 -0.40446,0.85947 -0.3876,0.3202 -0.85947,0.3202 -0.47187,0 -0.89319,-0.3202 -0.40446,-0.33705 -0.40446,-0.85947 z"
           style="-inkscape-font-specification:'Josefin Sans Bold';fill:#707070"
           id="path1029" /><path
           d="m 610.45118,-670.09867 q -1.3482,0 -2.29194,-0.50558 -0.92688,-0.50557 -1.41561,-1.39876 -0.48872,-0.89318 -0.48872,-2.056 0,-1.11227 0.57299,-2.00545 0.57298,-0.89318 1.53357,-1.41561 0.9606,-0.53928 2.14027,-0.53928 1.58414,0 2.59529,0.92689 1.028,0.91003 1.33135,2.64584 l -5.72986,1.82007 -0.52242,-1.28079 4.14571,-1.39876 -0.48872,0.21909 q -0.13482,-0.43817 -0.48872,-0.75837 -0.33705,-0.33705 -1.02801,-0.33705 -0.52242,0 -0.92688,0.25279 -0.38761,0.23594 -0.60669,0.69095 -0.20223,0.43817 -0.20223,1.04486 0,0.69095 0.25278,1.16282 0.25279,0.45502 0.69096,0.69095 0.43816,0.23594 0.97744,0.23594 0.38761,0 0.74151,-0.13482 0.37076,-0.13482 0.72466,-0.3539 l 1.04486,1.75266 q -0.58984,0.33705 -1.28079,0.53928 -0.6741,0.20223 -1.2808,0.20223 z"
           style="-inkscape-font-specification:'Josefin Sans Bold';fill:#707070"
           id="path1031" /><path
           d="m 622.3996,-670.95815 q -0.48872,0.38761 -1.23023,0.62354 -0.72466,0.23594 -1.43247,0.23594 -1.26393,0 -2.20767,-0.45502 -0.92689,-0.47187 -1.44932,-1.33135 -0.50557,-0.87633 -0.50557,-2.10656 0,-1.23023 0.55613,-2.08971 0.55613,-0.87633 1.44931,-1.33135 0.91004,-0.45502 1.90434,-0.45502 0.99429,0 1.71895,0.26964 0.74151,0.26964 1.26394,0.70781 l -1.14597,1.51672 q -0.23594,-0.18537 -0.65725,-0.37075 -0.40446,-0.20223 -0.96059,-0.20223 -0.48872,0 -0.89318,0.25279 -0.40446,0.25278 -0.6404,0.69095 -0.23593,0.43816 -0.23593,1.01115 0,0.53928 0.25278,0.9943 0.25279,0.45501 0.69096,0.72465 0.45501,0.25279 1.0617,0.25279 0.38761,0 0.70781,-0.10111 0.33705,-0.11797 0.57298,-0.3202 z"
           style="-inkscape-font-specification:'Josefin Sans Bold';fill:#707070"
           id="path1033" /><path
           d="m 624.91062,-680.90113 h 2.35935 v 3.20198 h 1.78637 v 1.83692 h -1.78637 v 5.56133 h -2.35935 v -5.56133 h -1.14597 v -1.83692 h 1.14597 z"
           style="-inkscape-font-specification:'Josefin Sans Bold';fill:#707070"
           id="path1035" /><path
           d="m 636.72423,-670.3009 v -12.90902 h 0.0168 l 6.89267,9.77445 -1.04485,-0.23593 6.87582,-9.53852 h 0.0337 v 12.90902 h -2.44361 v -7.39825 l 0.15167,1.26394 -4.19627,5.96578 h -0.0337 l -4.31424,-5.96578 0.42132,-1.16283 v 7.29714 z"
           style="-inkscape-font-specification:'Josefin Sans Bold';fill:#707070"
           id="path1037" /><path
           d="m 655.41365,-670.09867 q -1.028,0 -1.87063,-0.40446 -0.82577,-0.42132 -1.31449,-1.28079 -0.48872,-0.85948 -0.48872,-2.19083 0,-1.24708 0.50557,-2.15712 0.50558,-0.91003 1.33135,-1.39876 0.82577,-0.50557 1.75266,-0.50557 1.09541,0 1.65154,0.37075 0.57299,0.35391 0.94374,0.79207 l -0.10111,0.28649 0.21908,-1.07856 h 2.19083 v 7.36455 h -2.35935 v -1.60099 l 0.18537,0.50557 q -0.0337,0 -0.20223,0.20223 -0.16852,0.18538 -0.50557,0.45502 -0.3202,0.25279 -0.80892,0.43817 -0.47187,0.20223 -1.12912,0.20223 z m 0.6741,-1.92119 q 0.42131,0 0.75836,-0.11797 0.33705,-0.13482 0.58984,-0.37075 0.25279,-0.25279 0.43817,-0.62354 v -1.80322 q -0.13482,-0.37076 -0.40446,-0.62354 -0.26964,-0.26964 -0.6404,-0.40446 -0.37075,-0.15168 -0.82577,-0.15168 -0.50558,0 -0.94374,0.26964 -0.42131,0.25279 -0.6741,0.70781 -0.25279,0.45502 -0.25279,1.04485 0,0.58984 0.26964,1.06171 0.26964,0.47187 0.70781,0.74151 0.45501,0.26964 0.97744,0.26964 z"
           style="-inkscape-font-specification:'Josefin Sans Bold';fill:#707070"
           id="path1039" /><path
           d="m 664.80049,-677.66545 0.18538,1.3145 -0.0337,-0.11797 q 0.3876,-0.69095 1.09541,-1.11226 0.7078,-0.43817 1.73581,-0.43817 1.04485,0 1.7358,0.62354 0.70781,0.60669 0.72466,1.58414 v 5.51077 h -2.35935 v -4.63444 q -0.0168,-0.48872 -0.26964,-0.77522 -0.23593,-0.30334 -0.80892,-0.30334 -0.53928,0 -0.94374,0.3539 -0.40446,0.3539 -0.62354,0.96059 -0.21908,0.60669 -0.21908,1.39876 v 2.99975 h -2.35935 v -7.36455 z"
           style="-inkscape-font-specification:'Josefin Sans Bold';fill:#707070"
           id="path1041" /><path
           d="m 675.77147,-670.09867 q -1.028,0 -1.87063,-0.40446 -0.82577,-0.42132 -1.31449,-1.28079 -0.48873,-0.85948 -0.48873,-2.19083 0,-1.24708 0.50558,-2.15712 0.50557,-0.91003 1.33135,-1.39876 0.82577,-0.50557 1.75266,-0.50557 1.09541,0 1.65154,0.37075 0.57299,0.35391 0.94374,0.79207 l -0.10111,0.28649 0.21908,-1.07856 h 2.19083 v 7.36455 h -2.35936 v -1.60099 l 0.18538,0.50557 q -0.0337,0 -0.20223,0.20223 -0.16852,0.18538 -0.50557,0.45502 -0.3202,0.25279 -0.80892,0.43817 -0.47187,0.20223 -1.12912,0.20223 z m 0.6741,-1.92119 q 0.42131,0 0.75836,-0.11797 0.33705,-0.13482 0.58984,-0.37075 0.25279,-0.25279 0.43816,-0.62354 v -1.80322 q -0.13482,-0.37076 -0.40446,-0.62354 -0.26964,-0.26964 -0.64039,-0.40446 -0.37076,-0.15168 -0.82577,-0.15168 -0.50558,0 -0.94374,0.26964 -0.42132,0.25279 -0.6741,0.70781 -0.25279,0.45502 -0.25279,1.04485 0,0.58984 0.26964,1.06171 0.26964,0.47187 0.7078,0.74151 0.45502,0.26964 0.97745,0.26964 z"
           style="-inkscape-font-specification:'Josefin Sans Bold';fill:#707070"
           id="path1043" /><path
           d="m 686.82672,-666.59335 q -0.9943,0 -1.68525,-0.23594 -0.6741,-0.23593 -1.14597,-0.57298 -0.47187,-0.33705 -0.84263,-0.6404 l 1.38191,-1.61784 q 0.3876,0.3539 0.89318,0.6741 0.52243,0.33705 1.36505,0.33705 0.55614,0 1.02801,-0.20223 0.48872,-0.18538 0.77521,-0.55613 0.30335,-0.37076 0.30335,-0.92689 v -1.61784 l 0.0843,0.42131 q -0.26964,0.57299 -0.97745,1.01115 -0.7078,0.42132 -1.85377,0.42132 -0.9943,0 -1.85378,-0.50558 -0.84262,-0.52243 -1.3482,-1.39876 -0.50557,-0.89318 -0.50557,-2.0223 0,-1.16282 0.53928,-2.056 0.53928,-0.91004 1.39875,-1.43246 0.85948,-0.52243 1.82007,-0.52243 0.9606,0 1.65155,0.28649 0.70781,0.26964 1.06171,0.6741 l -0.0843,0.21908 0.25278,-0.80892 h 2.17398 v 7.36455 q 0,1.07856 -0.60669,1.90433 -0.60669,0.84262 -1.61784,1.31449 -0.9943,0.48873 -2.20768,0.48873 z m -2.00545,-7.49937 q 0,0.58984 0.26964,1.06171 0.26964,0.47187 0.72466,0.74151 0.47187,0.26964 1.04485,0.26964 0.48873,0 0.85948,-0.11797 0.38761,-0.13482 0.6741,-0.37075 0.30335,-0.25279 0.50558,-0.62354 v -1.80322 q -0.15168,-0.37076 -0.45502,-0.62354 -0.30335,-0.26964 -0.70781,-0.40446 -0.3876,-0.15168 -0.87633,-0.15168 -0.57298,0 -1.04485,0.26964 -0.45502,0.25279 -0.72466,0.70781 -0.26964,0.45502 -0.26964,1.04485 z"
           style="-inkscape-font-specification:'Josefin Sans Bold';fill:#707070"
           id="path1045" /><path
           d="m 697.30897,-670.09867 q -1.3482,0 -2.29194,-0.50558 -0.92689,-0.50557 -1.41561,-1.39876 -0.48873,-0.89318 -0.48873,-2.056 0,-1.11227 0.57299,-2.00545 0.57298,-0.89318 1.53358,-1.41561 0.96059,-0.53928 2.14026,-0.53928 1.58414,0 2.59529,0.92689 1.028,0.91003 1.33135,2.64584 l -5.72985,1.82007 -0.52243,-1.28079 4.14571,-1.39876 -0.48872,0.21909 q -0.13482,-0.43817 -0.48872,-0.75837 -0.33705,-0.33705 -1.028,-0.33705 -0.52243,0 -0.92689,0.25279 -0.38761,0.23594 -0.60669,0.69095 -0.20223,0.43817 -0.20223,1.04486 0,0.69095 0.25279,1.16282 0.25278,0.45502 0.69095,0.69095 0.43816,0.23594 0.97744,0.23594 0.38761,0 0.74151,-0.13482 0.37076,-0.13482 0.72466,-0.3539 l 1.04486,1.75266 q -0.58984,0.33705 -1.28079,0.53928 -0.6741,0.20223 -1.28079,0.20223 z"
           style="-inkscape-font-specification:'Josefin Sans Bold';fill:#707070"
           id="path1047" /><path
           d="m 705.14537,-677.66545 0.18537,1.29765 -0.0337,-0.10112 q 0.43816,-0.74151 1.09541,-1.14597 0.65725,-0.42131 1.58414,-0.42131 0.60669,0 1.0617,0.16852 0.47187,0.16853 0.79207,0.50558 0.3202,0.3202 0.43817,0.84262 l -0.0843,0.0169 q 0.47187,-0.69096 1.12912,-1.11227 0.6741,-0.42131 1.39876,-0.42131 1.09541,0 1.73581,0.62354 0.65724,0.60669 0.6741,1.58414 v 5.52762 h -2.3425 v -4.55018 q -0.0168,-0.48872 -0.15167,-0.79207 -0.13482,-0.32019 -0.62355,-0.3539 -0.57298,0 -0.97744,0.40446 -0.38761,0.38761 -0.58984,1.01115 -0.18538,0.60669 -0.18538,1.26394 v 3.0166 h -2.35935 v -4.55018 q -0.0169,-0.48872 -0.18537,-0.79207 -0.15168,-0.32019 -0.6404,-0.3539 -0.55613,0 -0.94374,0.40446 -0.37075,0.38761 -0.57298,0.9943 -0.18538,0.60669 -0.18538,1.24708 v 3.05031 h -2.35935 v -7.36455 z"
           style="-inkscape-font-specification:'Josefin Sans Bold';fill:#707070"
           id="path1049" /><path
           d="m 721.17212,-670.09867 q -1.3482,0 -2.29194,-0.50558 -0.92689,-0.50557 -1.41561,-1.39876 -0.48873,-0.89318 -0.48873,-2.056 0,-1.11227 0.57299,-2.00545 0.57298,-0.89318 1.53358,-1.41561 0.96059,-0.53928 2.14026,-0.53928 1.58414,0 2.59529,0.92689 1.028,0.91003 1.33135,2.64584 l -5.72985,1.82007 -0.52243,-1.28079 4.14571,-1.39876 -0.48872,0.21909 q -0.13482,-0.43817 -0.48872,-0.75837 -0.33705,-0.33705 -1.028,-0.33705 -0.52243,0 -0.92689,0.25279 -0.38761,0.23594 -0.60669,0.69095 -0.20223,0.43817 -0.20223,1.04486 0,0.69095 0.25279,1.16282 0.25278,0.45502 0.69095,0.69095 0.43816,0.23594 0.97744,0.23594 0.38761,0 0.74151,-0.13482 0.37076,-0.13482 0.72466,-0.3539 l 1.04486,1.75266 q -0.58984,0.33705 -1.28079,0.53928 -0.6741,0.20223 -1.28079,0.20223 z"
           style="-inkscape-font-specification:'Josefin Sans Bold';fill:#707070"
           id="path1051" /><path
           d="m 729.00851,-677.66545 0.18538,1.3145 -0.0337,-0.11797 q 0.38761,-0.69095 1.09541,-1.11226 0.70781,-0.43817 1.73581,-0.43817 1.04486,0 1.73581,0.62354 0.7078,0.60669 0.72466,1.58414 v 5.51077 h -2.35935 v -4.63444 q -0.0169,-0.48872 -0.26964,-0.77522 -0.23594,-0.30334 -0.80892,-0.30334 -0.53928,0 -0.94374,0.3539 -0.40446,0.3539 -0.62355,0.96059 -0.21908,0.60669 -0.21908,1.39876 v 2.99975 h -2.35935 v -7.36455 z"
           style="-inkscape-font-specification:'Josefin Sans Bold';fill:#707070"
           id="path1053" /><path
           d="m 737.56959,-680.90113 h 2.35935 v 3.20198 h 1.78636 v 1.83692 h -1.78636 v 5.56133 h -2.35935 v -5.56133 h -1.14597 v -1.83692 h 1.14597 z"
           style="-inkscape-font-specification:'Josefin Sans Bold';fill:#707070"
           id="path1055" /><path
           d="m 575.3306,-654.14276 v -12.40344 h 3.70755 q 1.87063,0 3.18512,0.55613 1.3145,0.55613 2.10657,1.48302 0.80892,0.92689 1.17967,2.07286 0.37076,1.14597 0.37076,2.30879 0,1.38191 -0.50558,2.49417 -0.48872,1.09541 -1.3482,1.88748 -0.85948,0.77522 -1.98859,1.19653 -1.12912,0.40446 -2.39306,0.40446 z m 2.44361,-2.35935 h 1.44932 q 0.92689,0 1.68525,-0.23594 0.75836,-0.25278 1.29764,-0.72465 0.55613,-0.47187 0.84263,-1.17968 0.30334,-0.72466 0.30334,-1.65154 0,-1.21338 -0.40446,-1.97175 -0.38761,-0.77521 -0.97744,-1.19652 -0.57299,-0.42132 -1.17968,-0.57299 -0.60669,-0.16852 -1.028,-0.16852 h -1.9886 z"
           style="-inkscape-font-specification:'Josefin Sans Bold';fill:#707070"
           id="path1057" /><path
           d="m 591.03713,-653.94053 q -1.028,0 -1.87063,-0.40446 -0.82577,-0.42131 -1.31449,-1.28079 -0.48872,-0.85948 -0.48872,-2.19083 0,-1.24708 0.50557,-2.15712 0.50558,-0.91003 1.33135,-1.39875 0.82577,-0.50558 1.75266,-0.50558 1.09541,0 1.65154,0.37076 0.57299,0.3539 0.94374,0.79206 l -0.10111,0.2865 0.21908,-1.07856 h 2.19083 v 7.36454 h -2.35935 v -1.60099 l 0.18537,0.50558 q -0.0337,0 -0.20223,0.20223 -0.16852,0.18537 -0.50557,0.45501 -0.3202,0.25279 -0.80892,0.43817 -0.47187,0.20223 -1.12912,0.20223 z m 0.6741,-1.92119 q 0.42131,0 0.75836,-0.11796 0.33705,-0.13482 0.58984,-0.37076 0.25279,-0.25279 0.43817,-0.62354 v -1.80322 q -0.13482,-0.37075 -0.40446,-0.62354 -0.26964,-0.26964 -0.6404,-0.40446 -0.37075,-0.15167 -0.82577,-0.15167 -0.50558,0 -0.94374,0.26964 -0.42131,0.25278 -0.6741,0.7078 -0.25279,0.45502 -0.25279,1.04486 0,0.58983 0.26964,1.0617 0.26964,0.47187 0.70781,0.74151 0.45501,0.26964 0.97744,0.26964 z"
           style="-inkscape-font-specification:'Josefin Sans Bold';fill:#707070"
           id="path1059" /><path
           d="m 598.97466,-664.74298 h 2.35935 v 3.20197 h 1.78637 v 1.83692 h -1.78637 v 5.56133 h -2.35935 v -5.56133 h -1.14597 v -1.83692 h 1.14597 z"
           style="-inkscape-font-specification:'Josefin Sans Bold';fill:#707070"
           id="path1061" /><path
           d="m 608.02444,-653.94053 q -1.028,0 -1.87063,-0.40446 -0.82577,-0.42131 -1.31449,-1.28079 -0.48872,-0.85948 -0.48872,-2.19083 0,-1.24708 0.50557,-2.15712 0.50558,-0.91003 1.33135,-1.39875 0.82577,-0.50558 1.75266,-0.50558 1.09541,0 1.65154,0.37076 0.57299,0.3539 0.94374,0.79206 l -0.10111,0.2865 0.21908,-1.07856 h 2.19083 v 7.36454 h -2.35935 v -1.60099 l 0.18537,0.50558 q -0.0337,0 -0.20223,0.20223 -0.16852,0.18537 -0.50557,0.45501 -0.3202,0.25279 -0.80892,0.43817 -0.47187,0.20223 -1.12912,0.20223 z m 0.6741,-1.92119 q 0.42131,0 0.75836,-0.11796 0.33705,-0.13482 0.58984,-0.37076 0.25279,-0.25279 0.43817,-0.62354 v -1.80322 q -0.13482,-0.37075 -0.40446,-0.62354 -0.26964,-0.26964 -0.6404,-0.40446 -0.37075,-0.15167 -0.82577,-0.15167 -0.50558,0 -0.94374,0.26964 -0.42131,0.25278 -0.6741,0.7078 -0.25279,0.45502 -0.25279,1.04486 0,0.58983 0.26964,1.0617 0.26964,0.47187 0.70781,0.74151 0.45501,0.26964 0.97744,0.26964 z"
           style="-inkscape-font-specification:'Josefin Sans Bold';fill:#707070"
           id="path1063" /><path
           d="m 619.73695,-654.14276 5.59503,-12.89216 h 0.13482 l 5.59503,12.89216 h -2.83122 l -3.57273,-9.06665 1.76951,-1.21338 -4.28053,10.28003 z m 3.82552,-4.48277 h 3.7244 l 0.85948,2.05601 h -5.34225 z"
           style="-inkscape-font-specification:'Josefin Sans Bold';fill:#707070"
           id="path1065" /><path
           d="m 634.61769,-661.5073 0.18538,1.31449 -0.0337,-0.11797 q 0.3876,-0.69095 1.09541,-1.11226 0.7078,-0.43817 1.73581,-0.43817 1.04485,0 1.7358,0.62355 0.70781,0.60669 0.72466,1.58413 v 5.51077 h -2.35935 v -4.63444 q -0.0168,-0.48872 -0.26964,-0.77521 -0.23593,-0.30335 -0.80892,-0.30335 -0.53928,0 -0.94374,0.3539 -0.40446,0.35391 -0.62354,0.9606 -0.21908,0.60669 -0.21908,1.39875 v 2.99975 h -2.35935 v -7.36454 z"
           style="-inkscape-font-specification:'Josefin Sans Bold';fill:#707070"
           id="path1067" /><path
           d="m 645.58867,-653.94053 q -1.028,0 -1.87063,-0.40446 -0.82577,-0.42131 -1.31449,-1.28079 -0.48873,-0.85948 -0.48873,-2.19083 0,-1.24708 0.50558,-2.15712 0.50557,-0.91003 1.33135,-1.39875 0.82577,-0.50558 1.75266,-0.50558 1.09541,0 1.65154,0.37076 0.57299,0.3539 0.94374,0.79206 l -0.10111,0.2865 0.21908,-1.07856 h 2.19082 v 7.36454 h -2.35935 v -1.60099 l 0.18538,0.50558 q -0.0337,0 -0.20223,0.20223 -0.16852,0.18537 -0.50557,0.45501 -0.3202,0.25279 -0.80892,0.43817 -0.47187,0.20223 -1.12912,0.20223 z m 0.6741,-1.92119 q 0.42131,0 0.75836,-0.11796 0.33705,-0.13482 0.58984,-0.37076 0.25279,-0.25279 0.43816,-0.62354 v -1.80322 q -0.13482,-0.37075 -0.40446,-0.62354 -0.26964,-0.26964 -0.64039,-0.40446 -0.37076,-0.15167 -0.82577,-0.15167 -0.50558,0 -0.94374,0.26964 -0.42132,0.25278 -0.6741,0.7078 -0.25279,0.45502 -0.25279,1.04486 0,0.58983 0.26964,1.0617 0.26964,0.47187 0.7078,0.74151 0.45502,0.26964 0.97745,0.26964 z"
           style="-inkscape-font-specification:'Josefin Sans Bold';fill:#707070"
           id="path1069" /><path
           d="m 652.83525,-667.43938 h 2.35935 v 13.29662 h -2.35935 z"
           style="-inkscape-font-specification:'Josefin Sans Bold';fill:#707070"
           id="path1071" /><path
           d="m 658.21121,-650.60374 4.90407,-10.90356 h 2.12342 l -4.75241,10.90356 z m 1.97174,-3.50532 -3.60644,-7.39824 h 2.64585 l 2.78066,6.21857 z"
           style="-inkscape-font-specification:'Josefin Sans Bold';fill:#707070"
           id="path1073" /><path
           d="m 667.31156,-664.74298 h 2.35935 v 3.20197 h 1.78636 v 1.83692 h -1.78636 v 5.56133 h -2.35935 v -5.56133 h -1.14597 v -1.83692 h 1.14597 z"
           style="-inkscape-font-specification:'Josefin Sans Bold';fill:#707070"
           id="path1075" /><path
           d="m 673.26048,-661.5073 h 2.35935 v 7.36454 h -2.35935 z m -0.0506,-2.61214 q 0,-0.52243 0.40446,-0.85948 0.42131,-0.33705 0.89318,-0.33705 0.47187,0 0.85948,0.33705 0.40446,0.33705 0.40446,0.85948 0,0.52243 -0.40446,0.85948 -0.38761,0.32019 -0.85948,0.32019 -0.47187,0 -0.89318,-0.32019 -0.40446,-0.33705 -0.40446,-0.85948 z"
           style="-inkscape-font-specification:'Josefin Sans Bold';fill:#707070"
           id="path1077" /><path
           d="m 684.29887,-654.80001 q -0.48872,0.38761 -1.23023,0.62354 -0.72466,0.23594 -1.43246,0.23594 -1.26394,0 -2.20768,-0.45502 -0.92689,-0.47187 -1.44932,-1.33135 -0.50557,-0.87633 -0.50557,-2.10656 0,-1.23023 0.55613,-2.08971 0.55613,-0.87633 1.44932,-1.33135 0.91003,-0.45501 1.90433,-0.45501 0.9943,0 1.71895,0.26964 0.74151,0.26964 1.26394,0.7078 l -1.14597,1.51673 q -0.23593,-0.18538 -0.65725,-0.37076 -0.40446,-0.20223 -0.96059,-0.20223 -0.48872,0 -0.89318,0.25279 -0.40446,0.25279 -0.6404,0.69095 -0.23593,0.43817 -0.23593,1.01115 0,0.53928 0.25279,0.9943 0.25278,0.45502 0.69095,0.72466 0.45502,0.25278 1.06171,0.25278 0.3876,0 0.7078,-0.10111 0.33705,-0.11797 0.57299,-0.3202 z"
           style="-inkscape-font-specification:'Josefin Sans Bold';fill:#707070"
           id="path1079" /><path
           d="m 688.512,-653.99109 q -0.91004,0 -1.7021,-0.3202 -0.77522,-0.32019 -1.3145,-0.89318 l 0.97745,-1.29764 q 0.53928,0.48872 0.99429,0.7078 0.47187,0.20223 0.84263,0.20223 0.28649,0 0.50557,-0.0506 0.23594,-0.0674 0.37076,-0.18538 0.13482,-0.13482 0.13482,-0.33705 0,-0.28649 -0.23594,-0.45502 -0.21908,-0.16852 -0.57298,-0.26964 -0.3539,-0.11797 -0.75836,-0.23593 -1.01115,-0.3202 -1.46617,-0.92689 -0.43817,-0.62354 -0.43817,-1.3482 0,-0.55613 0.2865,-1.11227 0.30334,-0.57298 0.94374,-0.94374 0.65724,-0.3876 1.68525,-0.3876 0.92688,0 1.56728,0.18537 0.64039,0.18538 1.21338,0.60669 l -0.89318,1.38191 q -0.3202,-0.25279 -0.72466,-0.42131 -0.38761,-0.18538 -0.72466,-0.20223 -0.30334,-0.0169 -0.52243,0.0674 -0.20223,0.0843 -0.32019,0.21908 -0.11797,0.13482 -0.11797,0.28649 -0.0168,0.3202 0.23593,0.50558 0.26964,0.18537 0.6741,0.28649 0.40446,0.10111 0.79207,0.23593 0.53928,0.16853 0.92689,0.45502 0.38761,0.28649 0.58984,0.69095 0.21908,0.38761 0.21908,0.94374 0,0.6741 -0.3539,1.28079 -0.33705,0.58984 -1.04486,0.9606 -0.69095,0.37075 -1.76951,0.37075 z"
           style="-inkscape-font-specification:'Josefin Sans Bold';fill:#707070"
           id="path1081" /><path
           d="m 577.52143,-642.5685 q 0,0.58984 0.3539,1.12912 0.3539,0.53928 0.92689,0.87633 0.58983,0.33705 1.28079,0.33705 0.75836,0 1.3482,-0.33705 0.58983,-0.33705 0.92688,-0.87633 0.35391,-0.53928 0.35391,-1.12912 v -7.81956 h 2.4099 v 7.87012 q 0,1.36505 -0.6741,2.42676 -0.6741,1.04485 -1.82007,1.65154 -1.14597,0.58984 -2.54472,0.58984 v 0 q -1.38191,0 -2.52788,-0.58984 -1.12912,-0.60669 -1.80322,-1.65154 -0.6741,-1.06171 -0.6741,-2.42676 v -7.87012 h 2.44362 z"
           style="-inkscape-font-specification:'Josefin Sans Bold';fill:#707070"
           id="path1083" /><path
           d="m 587.05995,-650.38806 h 3.11771 l 8.0892,12.40344 h -3.15141 z m -0.16852,12.40344 4.41535,-6.94323 1.14597,2.46047 -2.52787,4.48276 z m 5.72985,-7.85326 2.56158,-4.55018 h 2.96604 l -4.26369,6.65674 z"
           style="-inkscape-font-specification:'Josefin Sans Bold';fill:#707070"
           id="path1085" /><path
           d="m 605.76625,-637.98462 v -12.40344 h 3.70755 q 1.87063,0 3.18512,0.55613 1.3145,0.55614 2.10656,1.48302 0.80892,0.92689 1.17968,2.07286 0.37075,1.14597 0.37075,2.30879 0,1.38191 -0.50557,2.49417 -0.48872,1.09542 -1.3482,1.88748 -0.85948,0.77522 -1.9886,1.19653 -1.12911,0.40446 -2.39305,0.40446 z m 2.44361,-2.35935 h 1.44932 q 0.92688,0 1.68525,-0.23593 0.75836,-0.25279 1.29764,-0.72466 0.55613,-0.47187 0.84262,-1.17968 0.30335,-0.72465 0.30335,-1.65154 0,-1.21338 -0.40446,-1.97174 -0.38761,-0.77522 -0.97745,-1.19653 -0.57298,-0.42131 -1.17967,-0.57299 -0.60669,-0.16852 -1.028,-0.16852 h -1.9886 z"
           style="-inkscape-font-specification:'Josefin Sans Bold';fill:#707070"
           id="path1087" /><path
           d="m 621.9952,-637.78239 q -1.3482,0 -2.29194,-0.50557 -0.92688,-0.50558 -1.41561,-1.39876 -0.48872,-0.89318 -0.48872,-2.05601 0,-1.11226 0.57299,-2.00544 0.57298,-0.89319 1.53357,-1.41561 0.9606,-0.53928 2.14027,-0.53928 1.58414,0 2.59529,0.92688 1.028,0.91004 1.33134,2.64585 l -5.72985,1.82007 -0.52242,-1.28079 4.14571,-1.39876 -0.48872,0.21908 q -0.13482,-0.43816 -0.48872,-0.75836 -0.33705,-0.33705 -1.02801,-0.33705 -0.52242,0 -0.92688,0.25279 -0.38761,0.23593 -0.60669,0.69095 -0.20223,0.43816 -0.20223,1.04485 0,0.69096 0.25278,1.16283 0.25279,0.45501 0.69096,0.69095 0.43816,0.23593 0.97744,0.23593 0.38761,0 0.74151,-0.13482 0.37076,-0.13482 0.72466,-0.3539 l 1.04485,1.75266 q -0.58983,0.33705 -1.28079,0.53928 -0.6741,0.20223 -1.28079,0.20223 z"
           style="-inkscape-font-specification:'Josefin Sans Bold';fill:#707070"
           id="path1089" /><path
           d="m 630.08439,-637.83295 q -0.91003,0 -1.7021,-0.32019 -0.77521,-0.3202 -1.31449,-0.89319 l 0.97744,-1.29764 q 0.53928,0.48872 0.9943,0.70781 0.47187,0.20223 0.84262,0.20223 0.2865,0 0.50558,-0.0506 0.23593,-0.0674 0.37075,-0.18538 0.13482,-0.13482 0.13482,-0.33705 0,-0.28649 -0.23593,-0.45502 -0.21908,-0.16852 -0.57299,-0.26964 -0.3539,-0.11796 -0.75836,-0.23593 -1.01115,-0.3202 -1.46617,-0.92689 -0.43816,-0.62354 -0.43816,-1.3482 0,-0.55613 0.28649,-1.11226 0.30335,-0.57299 0.94374,-0.94374 0.65725,-0.38761 1.68525,-0.38761 0.92689,0 1.56728,0.18538 0.6404,0.18537 1.21338,0.60669 l -0.89318,1.3819 q -0.3202,-0.25279 -0.72466,-0.42131 -0.3876,-0.18538 -0.72465,-0.20223 -0.30335,-0.0169 -0.52243,0.0674 -0.20223,0.0843 -0.3202,0.21908 -0.11797,0.13482 -0.11797,0.28649 -0.0168,0.3202 0.23594,0.50558 0.26964,0.18538 0.6741,0.28649 0.40446,0.10112 0.79207,0.23594 0.53928,0.16852 0.92688,0.45501 0.38761,0.2865 0.58984,0.69096 0.21908,0.3876 0.21908,0.94374 0,0.6741 -0.3539,1.28079 -0.33705,0.58983 -1.04485,0.96059 -0.69096,0.37075 -1.76952,0.37075 z"
           style="-inkscape-font-specification:'Josefin Sans Bold';fill:#707070"
           id="path1091" /><path
           d="m 635.22442,-645.34916 h 2.35935 v 7.36454 h -2.35935 z m -0.0506,-2.61214 q 0,-0.52243 0.40446,-0.85948 0.42131,-0.33705 0.89318,-0.33705 0.47187,0 0.85948,0.33705 0.40446,0.33705 0.40446,0.85948 0,0.52243 -0.40446,0.85948 -0.38761,0.3202 -0.85948,0.3202 -0.47187,0 -0.89318,-0.3202 -0.40446,-0.33705 -0.40446,-0.85948 z"
           style="-inkscape-font-specification:'Josefin Sans Bold';fill:#707070"
           id="path1093" /><path
           d="m 643.8192,-634.27707 q -0.99429,0 -1.68525,-0.23593 -0.6741,-0.23594 -1.14597,-0.57299 -0.47187,-0.33705 -0.84262,-0.64039 l 1.3819,-1.61784 q 0.38761,0.3539 0.89318,0.6741 0.52243,0.33705 1.36506,0.33705 0.55613,0 1.028,-0.20223 0.48872,-0.18538 0.77522,-0.55614 0.30334,-0.37075 0.30334,-0.92688 v -1.61784 l 0.0843,0.42131 q -0.26964,0.57298 -0.97744,1.01115 -0.70781,0.42131 -1.85378,0.42131 -0.9943,0 -1.85377,-0.50557 -0.84263,-0.52243 -1.3482,-1.39876 -0.50558,-0.89318 -0.50558,-2.0223 0,-1.16282 0.53928,-2.05601 0.53928,-0.91003 1.39876,-1.43246 0.85948,-0.52243 1.82007,-0.52243 0.96059,0 1.65155,0.2865 0.7078,0.26964 1.0617,0.6741 l -0.0843,0.21908 0.25279,-0.80892 h 2.17397 v 7.36454 q 0,1.07856 -0.60669,1.90433 -0.60669,0.84263 -1.61784,1.3145 -0.9943,0.48872 -2.20768,0.48872 z m -2.00545,-7.49936 q 0,0.58984 0.26964,1.06171 0.26964,0.47187 0.72466,0.74151 0.47187,0.26964 1.04486,0.26964 0.48872,0 0.85948,-0.11797 0.3876,-0.13482 0.6741,-0.37076 0.30334,-0.25278 0.50557,-0.62354 v -1.80322 q -0.15167,-0.37075 -0.45502,-0.62354 -0.30334,-0.26964 -0.7078,-0.40446 -0.38761,-0.15167 -0.87633,-0.15167 -0.57299,0 -1.04486,0.26964 -0.45502,0.25279 -0.72466,0.7078 -0.26964,0.45502 -0.26964,1.04486 z"
           style="-inkscape-font-specification:'Josefin Sans Bold';fill:#707070"
           id="path1095" /><path
           d="m 652.81842,-645.34916 0.18538,1.31449 -0.0337,-0.11796 q 0.3876,-0.69096 1.09541,-1.11227 0.7078,-0.43816 1.73581,-0.43816 1.04485,0 1.7358,0.62354 0.70781,0.60669 0.72466,1.58413 v 5.51077 h -2.35935 v -4.63444 q -0.0168,-0.48872 -0.26964,-0.77521 -0.23593,-0.30335 -0.80892,-0.30335 -0.53928,0 -0.94374,0.35391 -0.40446,0.3539 -0.62354,0.96059 -0.21908,0.60669 -0.21908,1.39876 v 2.99974 h -2.35935 v -7.36454 z"
           style="-inkscape-font-specification:'Josefin Sans Bold';fill:#707070"
           id="path1097" /></g></g></g></svg>
