<?xml version="1.0" encoding="UTF-8" standalone="no"?>
<!-- Created with Inkscape (http://www.inkscape.org/) -->

<svg
   width="69.45697"
   height="175.27504"
   viewBox="0 0 18.377156 46.374854"
   version="1.1"
   id="svg5"
   inkscape:version="1.2 (dc2aedaf03, 2022-05-15)"
   sodipodi:docname="nav-blog.svg"
   xml:space="preserve"
   xmlns:inkscape="http://www.inkscape.org/namespaces/inkscape"
   xmlns:sodipodi="http://sodipodi.sourceforge.net/DTD/sodipodi-0.dtd"
   xmlns="http://www.w3.org/2000/svg"
   xmlns:svg="http://www.w3.org/2000/svg"><sodipodi:namedview
     id="namedview7"
     pagecolor="#ffffff"
     bordercolor="#666666"
     borderopacity="1.0"
     inkscape:showpageshadow="2"
     inkscape:pageopacity="0.0"
     inkscape:pagecheckerboard="0"
     inkscape:deskcolor="#d1d1d1"
     inkscape:document-units="mm"
     showgrid="true"
     inkscape:zoom="1.4142136"
     inkscape:cx="343.65389"
     inkscape:cy="66.114482"
     inkscape:window-width="1920"
     inkscape:window-height="991"
     inkscape:window-x="-9"
     inkscape:window-y="-9"
     inkscape:window-maximized="1"
     inkscape:current-layer="g1126"><inkscape:grid
       type="axonomgrid"
       id="grid1326"
       snapvisiblegridlinesonly="false"
       units="px"
       spacingy="2.6458333"
       originx="169.33333"
       originy="95.25" /></sodipodi:namedview><defs
     id="defs2" /><g
     inkscape:label="Layer 1"
     inkscape:groupmode="layer"
     id="layer1"
     transform="translate(-57.368758,-45.335945)"><g
       id="g1126"
       inkscape:export-filename="..\..\Project-One-Premium\public\navigation\g1126.svg"
       inkscape:export-xdpi="96"
       inkscape:export-ydpi="96"><path
         id="path466"
         style="fill:#6f8a91;fill-opacity:1;stroke:#99e4ff;stroke-width:0;stroke-linecap:round;stroke-miterlimit:18.1;stroke-dashoffset:5.07364;paint-order:markers fill stroke"
         d="M 57.788691,91.710804 57.368756,55.939376 75.295471,45.335944 75.745919,81.157147 Z"
         sodipodi:nodetypes="ccccc" /><g
         aria-label="B
L
O
G"
         transform="skewY(-28.322339)"
         id="text92732"
         style="font-size:5.52575px;font-family:'Nunito Sans';-inkscape-font-specification:'Nunito Sans, Normal';stroke-width:0.0941552"><path
           d="m 71.699248,94.260448 q 0.635461,0 1.011212,0.25971 0.375751,0.254185 0.375751,0.762554 0,0.375751 -0.187875,0.629935 -0.18235,0.248659 -0.502843,0.375751 -0.314968,0.121567 -0.723874,0.121567 l -0.127092,-0.431009 q 0.502843,0 0.889646,0.138144 0.392328,0.138144 0.618884,0.397854 0.226556,0.254185 0.226556,0.613358 0,0.331545 -0.121567,0.563627 -0.116041,0.226556 -0.320493,0.370225 -0.198927,0.138144 -0.453112,0.204453 -0.254184,0.06078 -0.524946,0.06078 h -1.353809 v -4.066952 z m 0.09394,1.663251 q 0.237607,0 0.348122,-0.14367 0.116041,-0.143669 0.116041,-0.326019 0,-0.209978 -0.14367,-0.314968 -0.138143,-0.104989 -0.375751,-0.104989 H 71.30692 v 0.889646 z m 0.02763,1.657725 q 0.176824,0 0.320493,-0.04421 0.14367,-0.04973 0.226556,-0.149195 0.08289,-0.10499 0.08289,-0.259711 0,-0.176824 -0.09946,-0.265236 -0.09946,-0.09394 -0.259711,-0.127092 -0.154721,-0.03868 -0.326019,-0.03868 H 71.30692 v 0.88412 z"
           style="-inkscape-font-specification:'Josefin Sans Bold';fill:#ffffff"
           id="path391" /><path
           d="m 70.522259,99.558524 h 0.801234 v 3.293346 h 1.91191 v 0.77361 h -2.713144 z"
           style="-inkscape-font-specification:'Josefin Sans Bold';fill:#ffffff"
           id="path393" /><path
           d="m 69.690638,106.8956 q 0,-0.41995 0.160247,-0.79571 0.160247,-0.37575 0.44206,-0.66309 0.287339,-0.29286 0.66309,-0.45863 0.375751,-0.16578 0.806759,-0.16578 0.425483,0 0.801234,0.16578 0.375751,0.16577 0.66309,0.45863 0.292865,0.28734 0.453112,0.66309 0.165772,0.37576 0.165772,0.79571 0,0.43101 -0.165772,0.80676 -0.160247,0.37575 -0.453112,0.66309 -0.287339,0.28182 -0.66309,0.44206 -0.375751,0.16025 -0.801234,0.16025 -0.431008,0 -0.806759,-0.16025 -0.375751,-0.16024 -0.66309,-0.44206 -0.281813,-0.28734 -0.44206,-0.66309 -0.160247,-0.37575 -0.160247,-0.80676 z m 0.828863,0 q 0,0.27076 0.09394,0.50837 0.09946,0.23208 0.270762,0.41443 0.176824,0.17683 0.40338,0.27629 0.232081,0.0995 0.502843,0.0995 0.25971,0 0.48074,-0.0995 0.226556,-0.0995 0.392329,-0.27629 0.165772,-0.18235 0.25971,-0.41443 0.09394,-0.23761 0.09394,-0.50837 0,-0.27629 -0.09946,-0.51389 -0.09394,-0.23761 -0.265236,-0.41443 -0.165772,-0.18235 -0.392328,-0.28182 -0.226556,-0.0995 -0.491792,-0.0995 -0.265236,0 -0.491792,0.0995 -0.226555,0.0995 -0.397854,0.28182 -0.171298,0.17682 -0.265236,0.41443 -0.09394,0.2376 -0.09394,0.51389 z"
           style="-inkscape-font-specification:'Josefin Sans Bold';fill:#ffffff"
           id="path395" /><path
           d="m 73.486829,113.81272 q -0.07184,0.0774 -0.226556,0.16025 -0.154721,0.0774 -0.359174,0.14367 -0.198927,0.0663 -0.408905,0.10499 -0.209979,0.0442 -0.397854,0.0442 -0.497318,0 -0.895172,-0.14366 -0.397854,-0.1492 -0.679667,-0.40891 -0.281813,-0.26524 -0.431008,-0.62441 -0.149196,-0.35917 -0.149196,-0.78466 0,-0.5581 0.165773,-0.967 0.171298,-0.41443 0.458637,-0.6852 0.292865,-0.27628 0.668616,-0.4089 0.381277,-0.13262 0.795708,-0.13262 0.392328,0 0.718347,0.0884 0.32602,0.0829 0.552575,0.20998 l -0.25971,0.74598 q -0.09946,-0.0553 -0.265236,-0.11052 -0.165772,-0.0553 -0.337071,-0.0884 -0.171298,-0.0387 -0.303916,-0.0387 -0.331545,0 -0.585729,0.0829 -0.254185,0.0829 -0.431009,0.24866 -0.171298,0.16577 -0.25971,0.41443 -0.08841,0.24313 -0.08841,0.56915 0,0.28734 0.09946,0.51942 0.09946,0.22656 0.276288,0.3868 0.18235,0.16025 0.425483,0.24313 0.248658,0.0829 0.547049,0.0829 0.171298,0 0.314968,-0.0221 0.143669,-0.0276 0.243133,-0.0829 v -0.49179 h -0.701771 v -0.7736 h 1.514056 z"
           style="-inkscape-font-specification:'Josefin Sans Bold';fill:#ffffff"
           id="path397" /></g><g
         id="g109551"
         transform="matrix(0.1624846,-0.08529335,0,0.1624846,59.475408,60.253537)"><g
           id="g107440"
           transform="matrix(0.90125937,0,0,0.90125937,-3.453062,116.98371)"><g
             id="layer3-7"
             inkscape:label="Layer 1"
             transform="translate(-21.283801,-49.938017)"><ellipse
               style="display:inline;fill:#58a86e;fill-opacity:1;stroke-width:0.22679"
               id="path806"
               cx="54.135227"
               cy="88.483994"
               rx="32.063202"
               ry="8.6851444"
               inkscape:export-filename="skills.svg"
               inkscape:export-xdpi="43.542854"
               inkscape:export-ydpi="43.542854" /></g><g
             id="g8348"
             transform="matrix(1.4328433,0,0,1.4328433,-44.435928,-88.666584)"><path
               style="fill:#373748;stroke:none;stroke-width:0.264583px;stroke-linecap:butt;stroke-linejoin:miter;stroke-opacity:1"
               d="M 35.62995,87.370367 52.253086,88.801805 44.81885,63.451526 Z"
               id="path6379" /><path
               style="fill:#2c89a0;stroke:none;stroke-width:0.264583px;stroke-linecap:butt;stroke-linejoin:miter;stroke-opacity:1"
               d="m 32.842113,87.139492 -1.8297,-4.709888 4.525187,-5.356344 2.909049,-3.878731 2.67817,-3.832555 2.262595,-3.601681 1.431261,-2.30764 -1.015682,6.001671 -1.154385,5.771922 -1.10821,4.155781 -1.385261,3.601681 -1.10821,1.754663 -1.523785,2.077892 -0.953879,0.639052 z"
               id="path6375"
               sodipodi:nodetypes="ccccccccccccccc" /><path
               style="fill:#2c89a0;stroke:none;stroke-width:0.264583px;stroke-linecap:butt;stroke-linejoin:miter;stroke-opacity:1"
               d="m 44.819454,63.455404 6.331195,10.495246 4.011485,5.200502 4.525185,5.125466 -2.213857,4.982058 -6.513287,-0.562748 -1.616138,-0.540579 -1.616139,-1.154385 -0.784981,-1.523786 -0.784982,-2.724348 -0.646454,-4.47901 -0.415578,-7.157183 -0.265509,-7.480411 z"
               id="path6377"
               sodipodi:nodetypes="cccccccccccccc" /><path
               style="fill:#216778;stroke:none;stroke-width:0.264583px;stroke-linecap:butt;stroke-linejoin:miter;stroke-opacity:1"
               d="m 44.807148,63.478362 11.832597,-1.596799 5.818097,9.050371 2.678171,3.370803 3.093752,3.740205 1.754664,2.031717 -10.346268,4.201959 -4.401094,-4.968682 -4.170704,-5.360167 -1.616491,-2.809536 -1.793326,-2.930047 z"
               id="path6382"
               sodipodi:nodetypes="cccccccccccc" /><path
               style="fill:#004455;stroke:none;stroke-width:0.264583px;stroke-linecap:butt;stroke-linejoin:miter;stroke-opacity:1"
               d="m 57.456226,89.253654 10.681186,-4.977036 1.83328,-4.19916 -10.326746,4.17232 z"
               id="path6384"
               sodipodi:nodetypes="ccccc" /></g><g
             id="g8341"
             transform="matrix(1.4625793,0,0,1.4625793,-49.383066,-89.26305)"><path
               style="fill:#d38d5f;fill-opacity:1;stroke:none;stroke-width:0.264583px;stroke-linecap:butt;stroke-linejoin:miter;stroke-opacity:1"
               d="m 68.824729,79.090642 0.753762,-8.33189 0.980274,0.06217 -0.822456,8.274641 z"
               id="path6392"
               sodipodi:nodetypes="ccccc" /><path
               style="fill:#d38d5f;fill-opacity:1;stroke:none;stroke-width:0.264583px;stroke-linecap:butt;stroke-linejoin:miter;stroke-opacity:1"
               d="m 75.458124,79.202629 0.778611,-8.42422 0.96693,-0.0018 -0.775496,8.477666 z"
               id="path6394"
               sodipodi:nodetypes="ccccc" /><path
               style="fill:#d38d5f;stroke:none;stroke-width:0.264583px;stroke-linecap:butt;stroke-linejoin:miter;stroke-opacity:1"
               d="m 69.083119,87.191942 -0.608027,-0.214123 0.241034,-6.157382 0.62618,-0.153346 z"
               id="path6414-4-5"
               sodipodi:nodetypes="ccccc" /><path
               style="fill:#5aa02c;stroke:none;stroke-width:0.264583px;stroke-linecap:butt;stroke-linejoin:miter;stroke-opacity:1"
               d="m 69.202003,71.113142 -0.421464,4.690994 8.306879,0.166815 0.433405,-4.793551 z"
               id="path6396" /><path
               style="fill:#ff9955;stroke:none;stroke-width:0.264583px;stroke-linecap:butt;stroke-linejoin:miter;stroke-opacity:1"
               d="m 69.944016,80.792003 -0.293644,5.956907 -0.571537,0.441771 0.244852,-6.353767 z"
               id="path6412-3-9"
               sodipodi:nodetypes="ccccc" /><path
               style="fill:none;stroke:none;stroke-width:0.264583px;stroke-linecap:butt;stroke-linejoin:miter;stroke-opacity:1"
               d="M 70.152093,81.254827 Z"
               id="path6398" /><path
               style="fill:#a05a2c;stroke:none;stroke-width:0.264583px;stroke-linecap:butt;stroke-linejoin:miter;stroke-opacity:1"
               d="m 70.297382,82.42426 6.617499,-1.812056 0.07904,-1.003637 -6.598403,1.595335 z"
               id="path6402"
               sodipodi:nodetypes="ccccc" /><path
               style="fill:#d38d5f;stroke:none;stroke-width:0.264583px;stroke-linecap:butt;stroke-linejoin:miter;stroke-opacity:1"
               d="m 63.563909,80.756956 -0.111338,1.224027 0.64509,0.02683 0.106886,-1.217838 z"
               id="path6400-3"
               sodipodi:nodetypes="ccccc" /><path
               style="fill:#a05a2c;stroke:none;stroke-width:0.264583px;stroke-linecap:butt;stroke-linejoin:miter;stroke-opacity:1"
               d="M 64.094931,82.008926 68.714116,81.081661 67.527295,80.941383 64.201338,80.8051 Z"
               id="path6402-8"
               sodipodi:nodetypes="ccccc" /><path
               style="fill:#ff9955;stroke:none;stroke-width:0.264583px;stroke-linecap:butt;stroke-linejoin:miter;stroke-opacity:1"
               d="m 71.86378,81.996055 -0.173755,5.729531 -0.625281,0.354955 0.178706,-5.919685 z"
               id="path6412"
               sodipodi:nodetypes="ccccc" /><path
               style="fill:#d38d5f;stroke:none;stroke-width:0.264583px;stroke-linecap:butt;stroke-linejoin:miter;stroke-opacity:1"
               d="m 71.064894,88.085936 -0.61216,-0.123173 0.174889,-5.640618 0.626179,-0.161613 z"
               id="path6414"
               sodipodi:nodetypes="ccccc" /><path
               style="fill:#ff9955;stroke:none;stroke-width:0.264583px;stroke-linecap:butt;stroke-linejoin:miter;stroke-opacity:1"
               d="m 65.541407,81.710994 -0.285373,5.989979 -0.575671,0.441772 0.286193,-6.312425 z"
               id="path6412-4"
               sodipodi:nodetypes="ccccc" /><path
               style="fill:#d38d5f;stroke:none;stroke-width:0.264583px;stroke-linecap:butt;stroke-linejoin:miter;stroke-opacity:1"
               d="m 69.778762,81.155755 -0.111338,1.224026 0.636822,0.05163 0.115154,-1.242643 z"
               id="path6400"
               sodipodi:nodetypes="ccccc" /><path
               style="fill:#165016;stroke:none;stroke-width:0.264583px;stroke-linecap:butt;stroke-linejoin:miter;stroke-opacity:1"
               d="m 63.072751,80.097897 5.492142,-1.0133 1.030851,-0.0151 5.648439,0.05478 2.049761,0.07235 -6.392335,1.334676 z"
               id="path6386" /><path
               style="fill:#d38d5f;stroke:none;stroke-width:0.264583px;stroke-linecap:butt;stroke-linejoin:miter;stroke-opacity:1"
               d="m 64.68051,88.144007 -0.599758,-0.193453 0.274107,-5.992018 0.613777,-0.132674 z"
               id="path6414-1"
               sodipodi:nodetypes="ccccc" /><path
               style="fill:#ff9955;stroke:none;stroke-width:0.264583px;stroke-linecap:butt;stroke-linejoin:miter;stroke-opacity:1"
               d="m 76.485459,80.727307 -0.205407,5.883288 -0.615128,0.471592 0.208856,-6.193088 z"
               id="path6412-3"
               sodipodi:nodetypes="ccccc" /><path
               style="fill:#d38d5f;stroke:none;stroke-width:0.264583px;stroke-linecap:butt;stroke-linejoin:miter;stroke-opacity:1"
               d="m 75.664245,87.078433 -0.547311,-0.143844 0.157141,-5.876799 0.60371,-0.17205 z"
               id="path6414-4"
               sodipodi:nodetypes="ccccc" /><path
               style="fill:#5aa02c;fill-opacity:1;stroke:none;stroke-width:0.264583px;stroke-linecap:butt;stroke-linejoin:miter;stroke-opacity:1"
               d="m 63.094366,80.087407 -0.07609,0.638268 7.813914,0.508923 0.101382,-0.709972 z"
               id="path6388"
               sodipodi:nodetypes="ccccc" /><path
               style="fill:#71c837;fill-opacity:1;stroke:none;stroke-width:0.264583px;stroke-linecap:butt;stroke-linejoin:miter;stroke-opacity:1"
               d="m 70.90925,80.502526 6.381672,-1.303365 -0.03823,0.498971 -6.414791,1.513406 z"
               id="path6390"
               sodipodi:nodetypes="ccccc" /></g></g><g
           id="layer3-2"
           inkscape:label="Layer 1"
           transform="matrix(0.90125937,0,0,0.90125937,-23.496332,14.873838)"><ellipse
             style="display:inline;fill:#de9e36;fill-opacity:1;stroke-width:0.22679"
             id="path806-8"
             cx="54.135227"
             cy="88.483994"
             rx="32.063202"
             ry="8.6851444"
             inkscape:export-filename="travel.svg"
             inkscape:export-xdpi="43.542854"
             inkscape:export-ydpi="43.542854" /><g
             id="g5218"
             transform="matrix(0.90758961,0,0,0.90758961,9.5457239,4.7134784)"><g
               id="g3705"><path
                 style="fill:#00ad00;fill-opacity:1;stroke:none;stroke-width:0.264583px;stroke-linecap:butt;stroke-linejoin:miter;stroke-opacity:1"
                 d="m 15.672441,65.040631 0.522415,5.615958 1.167511,3.513172 1.813285,3.073829 1.382544,0.843603 2.174766,0.383889 -1.052752,-3.76578 -2.220262,-3.918109 -0.653019,-7.183202 -1.567244,-4.96294 z"
                 id="path3377"
                 sodipodi:nodetypes="ccccccccccc" /><path
                 style="fill:#5eec5e;fill-opacity:1;stroke:none;stroke-width:0.264583px;stroke-linecap:butt;stroke-linejoin:miter;stroke-opacity:1"
                 d="m 18.752152,68.582773 0.244683,-9.824924 2.683375,-2.990078 1.436641,6.13837 -0.130604,3.918112 -0.914226,3.265093 1.567244,5.615956 -0.686067,3.957044 -2.579025,-3.304024 z"
                 id="path3379"
                 sodipodi:nodetypes="cccccccccc" /><path
                 style="fill:#008000;fill-opacity:1;stroke:none;stroke-width:0.264583px;stroke-linecap:butt;stroke-linejoin:miter;stroke-opacity:1"
                 d="m 21.810814,59.032862 3.526299,-6.399581 0.522415,5.746562 -1.697848,12.146143 -0.138526,8.237992 -1.742664,-0.277052 -1.645109,-12.793277 z"
                 id="path3387"
                 sodipodi:nodetypes="cccccccc" /><path
                 style="fill:#5eec5e;fill-opacity:1;stroke:none;stroke-width:0.264583px;stroke-linecap:butt;stroke-linejoin:miter;stroke-opacity:1"
                 d="m 28.340997,77.578584 1.650994,-0.390452 0.699874,-8.621201 2.511119,-6.053265 -0.02965,-5.048048 -2.823708,2.388439 -1.486215,4.664159 -1.306036,5.093544 1.306036,5.354749 z"
                 id="path3381"
                 sodipodi:nodetypes="cccccccccc" /><path
                 style="fill:#00ad00;fill-opacity:1;stroke:none;stroke-width:0.264583px;stroke-linecap:butt;stroke-linejoin:miter;stroke-opacity:1"
                 d="m 23.746102,78.301545 2.404964,0.969683 -0.944556,-10.965507 -0.905624,-3.162777 -1.967657,-2.583782 -0.251927,3.56455 0.213674,6.020896 z"
                 id="path3383"
                 sodipodi:nodetypes="cccccccc" /><path
                 style="fill:#5eec5e;fill-opacity:1;stroke:none;stroke-width:0.264583px;stroke-linecap:butt;stroke-linejoin:miter;stroke-opacity:1"
                 d="m 24.030396,66.569622 2.090339,-6.361328 1.828451,4.832337 0.522414,3.26509 v 4.440526 l -1.236773,5.53289 -2.158921,-0.308742 z"
                 id="path3385"
                 sodipodi:nodetypes="cccccccc" /><path
                 style="fill:#00ad00;fill-opacity:1;stroke:none;stroke-width:0.264583px;stroke-linecap:butt;stroke-linejoin:miter;stroke-opacity:1"
                 d="m 27.426771,54.200525 3.265094,9.664673 -0.783622,8.881049 -1.175435,4.832337 -2.220262,0.522415 -0.569269,-10.95463 z"
                 id="path3389"
                 sodipodi:nodetypes="ccccccc" /><path
                 style="fill:#008000;stroke:none;stroke-width:0.264583px;stroke-linecap:butt;stroke-linejoin:miter;stroke-opacity:1"
                 d="m 28.424745,71.68105 4.462934,-6.648341 -0.08783,3.428063 -0.801271,4.118658 -2.053445,3.311266 -1.565887,2.067253 -1.959733,0.428704 z"
                 id="path3391"
                 sodipodi:nodetypes="cccccccc" /><path
                 style="fill:#a05a2c;stroke:none;stroke-width:0.264583px;stroke-linecap:butt;stroke-linejoin:miter;stroke-opacity:1"
                 d="m 18.676326,77.709188 0.20711,5.032203 0.86805,2.896368 1.083081,1.505903 2.060689,0.515171 6.551913,-3.656902 0.461074,-2.766446 0.315305,-4.471533 -2.92738,0.945236 -3.91811,0.130603 -2.220263,-0.261207 -2.435294,-0.782942 z"
                 id="path3319"
                 sodipodi:nodetypes="ccccccccccccc" /></g><path
               style="fill:#c8b7b7;stroke:none;stroke-width:0.264583px;stroke-linecap:butt;stroke-linejoin:miter;stroke-opacity:1"
               d="m 52.845512,73.138058 0.17958,8.489241 6.00777,0.391811 0.130603,-8.472916 z"
               id="path3303"
               sodipodi:nodetypes="ccccc" /><path
               style="fill:#e3dbdb;stroke:none;stroke-width:0.264583px;stroke-linecap:butt;stroke-linejoin:miter;stroke-opacity:1"
               d="m 61.791863,73.644147 0.244885,8.505566 -3.13449,-0.39181 0.17958,-8.228035 z"
               id="path3307"
               sodipodi:nodetypes="ccccc" /><path
               style="fill:#b3b3b3;stroke:none;stroke-width:0.264583px;stroke-linecap:butt;stroke-linejoin:miter;stroke-opacity:1"
               d="M 38.528085,42.054383 39.050499,72.48504 71.962626,74.574698 71.701418,42.5768 Z"
               id="path3293" /><path
               style="fill:#9bc0c0;fill-opacity:1;stroke:none;stroke-width:0.264583px;stroke-linecap:butt;stroke-linejoin:miter;stroke-opacity:1"
               d="m 41.53989,45.240251 0.353559,24.520675 26.8609,1.12926 -0.308742,-25.041733 z"
               id="path3291"
               sodipodi:nodetypes="ccccc" /><path
               style="fill:#808080;stroke:none;stroke-width:0.264583px;stroke-linecap:butt;stroke-linejoin:miter;stroke-opacity:1"
               d="m 38.560736,42.054383 3.493647,-1.43664 33.555865,0.684028 -4.039433,1.275029 z"
               id="path3295"
               sodipodi:nodetypes="ccccc" /><path
               style="fill:#e6e6e6;stroke:none;stroke-width:0.264583px;stroke-linecap:butt;stroke-linejoin:miter;stroke-opacity:1"
               d="m 71.663166,42.538547 0.230197,32.043393 3.347481,-2.342941 0.391132,-30.875207 z"
               id="path3297"
               sodipodi:nodetypes="ccccc" /><path
               style="fill:#b3b3b3;stroke:none;stroke-width:0.264583px;stroke-linecap:butt;stroke-linejoin:miter;stroke-opacity:1"
               d="M 35.132388,80.190656 20.635381,88.41869 64.387613,92.467402 78.100999,82.933335 Z"
               id="path3309" /><path
               style="fill:#e6e6e6;stroke:none;stroke-width:0.264583px;stroke-linecap:butt;stroke-linejoin:miter;stroke-opacity:1"
               d="m 78.008648,82.91749 0.184021,6.276219 -12.923482,5.624561 -0.979526,-2.44882 z"
               id="path3311"
               sodipodi:nodetypes="ccccc" /><path
               style="fill:#666666;stroke:none;stroke-width:0.264583px;stroke-linecap:butt;stroke-linejoin:miter;stroke-opacity:1"
               d="m 64.354961,92.4021 0.881575,2.41617 -44.053613,-4.12658 -0.598922,-2.358788 z"
               id="path3313"
               sodipodi:nodetypes="ccccc" /><path
               style="fill:#916f6f;stroke:none;stroke-width:0.264583px;stroke-linecap:butt;stroke-linejoin:miter;stroke-opacity:1"
               d="m 35.493869,81.231409 -1.451126,1.143743 3.203074,0.26913 1.321881,-1.13718 z"
               id="path3315"
               sodipodi:nodetypes="ccccc" /><path
               style="fill:#916f6f;stroke:none;stroke-width:0.264583px;stroke-linecap:butt;stroke-linejoin:miter;stroke-opacity:1"
               d="m 39.926236,81.578073 -1.451126,1.143743 3.203074,0.26913 1.321881,-1.13718 z"
               id="path3315-9"
               sodipodi:nodetypes="ccccc" /><path
               style="fill:#916f6f;stroke:none;stroke-width:0.264583px;stroke-linecap:butt;stroke-linejoin:miter;stroke-opacity:1"
               d="m 44.959586,81.958845 -1.451126,1.143743 3.203074,0.26913 1.321881,-1.13718 z"
               id="path3315-3"
               sodipodi:nodetypes="ccccc" /><path
               style="fill:#916f6f;stroke:none;stroke-width:0.264583px;stroke-linecap:butt;stroke-linejoin:miter;stroke-opacity:1"
               d="m 49.946057,82.305509 -1.451126,1.143743 3.203074,0.26913 1.321881,-1.13718 z"
               id="path3315-9-8"
               sodipodi:nodetypes="ccccc" /><path
               style="fill:#916f6f;stroke:none;stroke-width:0.264583px;stroke-linecap:butt;stroke-linejoin:miter;stroke-opacity:1"
               d="m 54.979759,82.726424 -1.451126,1.143743 3.203074,0.26913 1.321881,-1.13718 z"
               id="path3315-5"
               sodipodi:nodetypes="ccccc" /><path
               style="fill:#916f6f;stroke:none;stroke-width:0.264583px;stroke-linecap:butt;stroke-linejoin:miter;stroke-opacity:1"
               d="m 59.781529,83.073088 -1.451126,1.143743 3.203074,0.26913 1.321881,-1.13718 z"
               id="path3315-9-3"
               sodipodi:nodetypes="ccccc" /><path
               style="fill:#916f6f;stroke:none;stroke-width:0.264583px;stroke-linecap:butt;stroke-linejoin:miter;stroke-opacity:1"
               d="m 64.122248,83.407685 -1.451126,1.143743 3.203074,0.26913 1.321881,-1.13718 z"
               id="path3315-3-9"
               sodipodi:nodetypes="ccccc" /><path
               style="fill:#916f6f;stroke:none;stroke-width:0.264583px;stroke-linecap:butt;stroke-linejoin:miter;stroke-opacity:1"
               d="m 68.554615,83.754349 -1.451126,1.143743 3.203074,0.26913 1.321881,-1.13718 z"
               id="path3315-9-8-7"
               sodipodi:nodetypes="ccccc" /><path
               style="fill:#916f6f;stroke:none;stroke-width:0.264583px;stroke-linecap:butt;stroke-linejoin:miter;stroke-opacity:1"
               d="m 31.153326,85.349719 -1.451126,1.143743 3.203074,0.26913 1.321881,-1.13718 z"
               id="path3315-6"
               sodipodi:nodetypes="ccccc" /><path
               style="fill:#916f6f;stroke:none;stroke-width:0.264583px;stroke-linecap:butt;stroke-linejoin:miter;stroke-opacity:1"
               d="m 35.585693,85.696383 -1.451126,1.143743 3.203074,0.26913 1.321881,-1.13718 z"
               id="path3315-9-83"
               sodipodi:nodetypes="ccccc" /><path
               style="fill:#916f6f;stroke:none;stroke-width:0.264583px;stroke-linecap:butt;stroke-linejoin:miter;stroke-opacity:1"
               d="m 40.619043,86.077155 -1.451126,1.143743 3.203074,0.26913 1.321881,-1.13718 z"
               id="path3315-3-0"
               sodipodi:nodetypes="ccccc" /><path
               style="fill:#916f6f;stroke:none;stroke-width:0.264583px;stroke-linecap:butt;stroke-linejoin:miter;stroke-opacity:1"
               d="m 45.605514,86.423819 -1.451126,1.143743 3.203074,0.26913 1.321881,-1.13718 z"
               id="path3315-9-8-9"
               sodipodi:nodetypes="ccccc" /><path
               style="fill:#916f6f;stroke:none;stroke-width:0.264583px;stroke-linecap:butt;stroke-linejoin:miter;stroke-opacity:1"
               d="m 50.639216,86.844734 -1.451126,1.143743 3.203074,0.26913 1.321881,-1.13718 z"
               id="path3315-5-2"
               sodipodi:nodetypes="ccccc" /><path
               style="fill:#916f6f;stroke:none;stroke-width:0.264583px;stroke-linecap:butt;stroke-linejoin:miter;stroke-opacity:1"
               d="m 55.440986,87.191398 -1.451126,1.143743 3.203074,0.26913 1.321881,-1.13718 z"
               id="path3315-9-3-7"
               sodipodi:nodetypes="ccccc" /><path
               style="fill:#916f6f;stroke:none;stroke-width:0.264583px;stroke-linecap:butt;stroke-linejoin:miter;stroke-opacity:1"
               d="m 59.781705,87.525995 -1.451126,1.143743 3.203074,0.26913 1.321881,-1.13718 z"
               id="path3315-3-9-6"
               sodipodi:nodetypes="ccccc" /><path
               style="fill:#916f6f;stroke:none;stroke-width:0.264583px;stroke-linecap:butt;stroke-linejoin:miter;stroke-opacity:1"
               d="m 64.214072,87.872659 -1.451126,1.143743 3.203074,0.26913 1.321881,-1.13718 z"
               id="path3315-9-8-7-7"
               sodipodi:nodetypes="ccccc" /><path
               style="fill:#916f6f;stroke:none;stroke-width:0.264583px;stroke-linecap:butt;stroke-linejoin:miter;stroke-opacity:1"
               d="m 31.476554,83.087126 -1.451126,1.143743 3.203074,0.26913 1.321881,-1.13718 z"
               id="path3315-2"
               sodipodi:nodetypes="ccccc" /><path
               style="fill:#916f6f;stroke:none;stroke-width:0.264583px;stroke-linecap:butt;stroke-linejoin:miter;stroke-opacity:1"
               d="m 35.908921,83.43379 -1.451126,1.143743 3.203074,0.26913 1.321881,-1.13718 z"
               id="path3315-9-5"
               sodipodi:nodetypes="ccccc" /><path
               style="fill:#916f6f;stroke:none;stroke-width:0.264583px;stroke-linecap:butt;stroke-linejoin:miter;stroke-opacity:1"
               d="m 40.942271,83.814562 -1.451126,1.143743 3.203074,0.26913 1.321881,-1.13718 z"
               id="path3315-3-1"
               sodipodi:nodetypes="ccccc" /><path
               style="fill:#916f6f;stroke:none;stroke-width:0.264583px;stroke-linecap:butt;stroke-linejoin:miter;stroke-opacity:1"
               d="m 45.928742,84.161226 -1.451126,1.143743 3.203074,0.26913 1.321881,-1.13718 z"
               id="path3315-9-8-2"
               sodipodi:nodetypes="ccccc" /><path
               style="fill:#916f6f;stroke:none;stroke-width:0.264583px;stroke-linecap:butt;stroke-linejoin:miter;stroke-opacity:1"
               d="m 50.962444,84.582141 -1.451126,1.143743 3.203074,0.26913 1.321881,-1.13718 z"
               id="path3315-5-7"
               sodipodi:nodetypes="ccccc" /><path
               style="fill:#916f6f;stroke:none;stroke-width:0.264583px;stroke-linecap:butt;stroke-linejoin:miter;stroke-opacity:1"
               d="m 55.764214,84.928805 -1.451126,1.143743 3.203074,0.26913 1.321881,-1.13718 z"
               id="path3315-9-3-0"
               sodipodi:nodetypes="ccccc" /><path
               style="fill:#916f6f;stroke:none;stroke-width:0.264583px;stroke-linecap:butt;stroke-linejoin:miter;stroke-opacity:1"
               d="m 60.104933,85.263402 -1.451126,1.143743 3.203074,0.26913 1.321881,-1.13718 z"
               id="path3315-3-9-0"
               sodipodi:nodetypes="ccccc" /><path
               style="fill:#916f6f;stroke:none;stroke-width:0.264583px;stroke-linecap:butt;stroke-linejoin:miter;stroke-opacity:1"
               d="m 64.5373,85.610066 -1.451126,1.143743 3.203074,0.26913 1.321881,-1.13718 z"
               id="path3315-9-8-7-8"
               sodipodi:nodetypes="ccccc" /><path
               style="fill:#916f6f;stroke:none;stroke-width:0.264583px;stroke-linecap:butt;stroke-linejoin:miter;stroke-opacity:1"
               d="m 68.970546,85.918559 -1.451126,1.143743 3.203074,0.26913 1.321881,-1.13718 z"
               id="path3315-9-8-7-8-5"
               sodipodi:nodetypes="ccccc" /><path
               style="fill:#ac9393;stroke:none;stroke-width:0.264583px;stroke-linecap:butt;stroke-linejoin:miter;stroke-opacity:1"
               d="m 38.276159,87.95037 -1.576525,1.121338 12.929764,0.914226 1.543476,-1.028985 z"
               id="path3317"
               sodipodi:nodetypes="ccccc" /></g></g><g
           id="g109091"
           transform="matrix(0.90125937,0,0,0.90125937,-4.4467895,-10.626229)"><ellipse
             style="fill:#750d37;fill-opacity:1;stroke-width:0.22679"
             id="path806-0"
             cx="32.063202"
             cy="54.564743"
             rx="32.063202"
             ry="8.6851444"
             inkscape:export-filename="travel.svg"
             inkscape:export-xdpi="43.542854"
             inkscape:export-ydpi="43.542854" /><g
             id="layer2"
             inkscape:label="Layer 2"
             transform="translate(-22.072026,-33.919252)"><g
               id="g827"
               transform="matrix(0.7718318,0,0,0.7718318,13.953085,20.874592)"
               style="stroke:none"><path
                 style="fill:#ffaaaa;stroke:none;stroke-width:0.236042px;stroke-linecap:butt;stroke-linejoin:miter;stroke-opacity:1"
                 d="m 23.494154,85.518445 22.720437,2.79636 0.349546,-39.032542 -22.370893,-1.281665 z"
                 id="path756" /><path
                 style="fill:#d35f5f;stroke:none;stroke-width:0.236042px;stroke-linecap:butt;stroke-linejoin:miter;stroke-opacity:1"
                 d="M 46.214591,88.309701 52.448146,85.227158 52.215117,47.825825 46.547612,49.29131 Z"
                 id="path758"
                 sodipodi:nodetypes="ccccc" /><path
                 style="fill:#ff5555;stroke:none;stroke-width:0.236042px;stroke-linecap:butt;stroke-linejoin:miter;stroke-opacity:1"
                 d="m 24.199155,48.008076 5.761586,-1.813463 22.249672,1.640259 -5.63132,1.453301 z"
                 id="path760"
                 sodipodi:nodetypes="ccccc" /><path
                 style="fill:#c8beb7;stroke:none;stroke-width:0.236042px;stroke-linecap:butt;stroke-linejoin:miter;stroke-opacity:1"
                 d="M 34.796116,47.476278 34.621343,36.979673 h 1.281665 l 0.129903,10.624943 z"
                 id="path762"
                 sodipodi:nodetypes="ccccc" /><path
                 style="fill:#c8beb7;stroke:none;stroke-width:0.236042px;stroke-linecap:butt;stroke-linejoin:miter;stroke-opacity:1"
                 d="M 40.243025,47.726531 40.068252,37.065406 h 1.281665 l 0.174772,10.864245 z"
                 id="path762-9"
                 sodipodi:nodetypes="ccccc" /><path
                 style="fill:#280b0b;stroke:none;stroke-width:0.236042px;stroke-linecap:butt;stroke-linejoin:miter;stroke-opacity:1"
                 d="m 35.663705,36.994629 -0.02991,1.295053 4.643233,0.08503 -0.02991,-1.281666 z"
                 id="path788"
                 sodipodi:nodetypes="ccccc" /><path
                 style="fill:#c8beb7;stroke:none;stroke-width:0.236042px;stroke-linecap:butt;stroke-linejoin:miter;stroke-opacity:1"
                 d="m 48.602816,66.3666 0.162955,-2.509054 1.609981,-0.506225 0.63613,0.536138 0.04487,0.800652 -0.537707,0.231461 -0.104695,-0.788831 -1.043931,0.27947 -0.121217,1.865082 z"
                 id="path790"
                 sodipodi:nodetypes="cccccccccc" /><path
                 style="fill:#c8beb7;stroke:none;stroke-width:0.236042px;stroke-linecap:butt;stroke-linejoin:miter;stroke-opacity:1"
                 d="m 48.657937,68.851169 0.55423,-0.156679 0.203118,1.554862 1.255614,-0.336159 0.06224,-0.714047 0.479449,-0.09999 -0.0016,1.371407 -1.867377,0.528297 -0.551094,-0.333021 z"
                 id="path792"
                 sodipodi:nodetypes="cccccccccc" /><path
                 style="fill:#280b0b;stroke:none;stroke-width:0.236042px;stroke-linecap:butt;stroke-linejoin:miter;stroke-opacity:1"
                 d="m 50.347405,64.947917 0.873865,-0.349545 0.174772,4.485827 -0.990379,0.233031 z"
                 id="path794" /></g><path
               style="fill:#ffb380;stroke:none;stroke-width:0.203179px;stroke-linecap:butt;stroke-linejoin:miter;stroke-opacity:1"
               d="m 54.982598,39.739596 8.677142,0.85613 0.06146,4.412904 -9.096002,-1.392519 -1.572939,-2.195594 z"
               id="path802"
               sodipodi:nodetypes="cccccc" /><path
               style="fill:#c87137;stroke:none;stroke-width:0.216673px;stroke-linecap:butt;stroke-linejoin:miter;stroke-opacity:1"
               d="m 63.841626,88.832994 1.92518,0.427819 -0.106955,-54.546803 -2.139089,-0.427818 z"
               id="path796" /><path
               style="fill:#aa4400;stroke:none;stroke-width:0.216673px;stroke-linecap:butt;stroke-linejoin:miter;stroke-opacity:1"
               d="m 65.760931,89.265321 0.854008,-0.6122 -0.07563,-54.301095 -0.881968,0.365896 z"
               id="path798"
               sodipodi:nodetypes="ccccc" /><path
               style="fill:#d45500;stroke:none;stroke-width:0.216673px;stroke-linecap:butt;stroke-linejoin:miter;stroke-opacity:1"
               d="m 63.515386,34.289354 0.855316,-0.370101 2.167774,0.435526 -0.879092,0.369266 z"
               id="path800"
               sodipodi:nodetypes="ccccc" /><path
               style="fill:#ff7f2a;stroke:none;stroke-width:0.216673px;stroke-linecap:butt;stroke-linejoin:miter;stroke-opacity:1"
               d="M 66.16117,46.717246 66.123357,51.4062 76.333174,53.523791 79.358303,51.4062 76.711316,48.683582 Z"
               id="path804" /></g></g></g></g></g></svg>
