<?xml version="1.0" encoding="UTF-8" standalone="no"?>
<!-- Created with Inkscape (http://www.inkscape.org/) -->

<svg
   width="69.457047"
   height="175.27509"
   viewBox="0 0 18.377176 46.374866"
   version="1.1"
   id="svg5"
   inkscape:version="1.2 (dc2aedaf03, 2022-05-15)"
   sodipodi:docname="nav-about-ch.svg"
   xml:space="preserve"
   xmlns:inkscape="http://www.inkscape.org/namespaces/inkscape"
   xmlns:sodipodi="http://sodipodi.sourceforge.net/DTD/sodipodi-0.dtd"
   xmlns="http://www.w3.org/2000/svg"
   xmlns:svg="http://www.w3.org/2000/svg"><sodipodi:namedview
     id="namedview7"
     pagecolor="#ffffff"
     bordercolor="#666666"
     borderopacity="1.0"
     inkscape:showpageshadow="2"
     inkscape:pageopacity="0.0"
     inkscape:pagecheckerboard="0"
     inkscape:deskcolor="#d1d1d1"
     inkscape:document-units="mm"
     showgrid="true"
     inkscape:zoom="4.0000001"
     inkscape:cx="85.124998"
     inkscape:cy="78.874998"
     inkscape:window-width="1920"
     inkscape:window-height="991"
     inkscape:window-x="2391"
     inkscape:window-y="-9"
     inkscape:window-maximized="1"
     inkscape:current-layer="text369"><inkscape:grid
       type="axonomgrid"
       id="grid1326"
       snapvisiblegridlinesonly="false"
       units="px"
       spacingy="2.6458333"
       originx="169.33333"
       originy="95.25" /></sodipodi:namedview><defs
     id="defs2" /><g
     inkscape:label="Layer 1"
     inkscape:groupmode="layer"
     id="layer1"
     transform="translate(-16.718627,-57.227322)"><g
       id="g1014"><path
         id="rect2469-3-8-3-9-5-9-2-8"
         style="fill:#deaa87;fill-opacity:1;stroke:#99e4ff;stroke-width:0;stroke-linecap:round;stroke-miterlimit:18.1;stroke-dashoffset:5.07364;paint-order:markers fill stroke"
         d="M 17.138562,103.60219 16.718627,67.830761 34.645353,57.227321 35.095801,93.048532 Z"
         sodipodi:nodetypes="ccccc" /><g
         id="g94559"
         inkscape:label="dog"
         style="stroke:none"
         transform="matrix(0.29964501,-0.09331727,0.09331727,0.29964501,44.190241,-3.3676852)"><path
           style="fill:#bd8032;fill-opacity:1;stroke:none;stroke-width:0.238458px;stroke-linecap:butt;stroke-linejoin:miter;stroke-opacity:1"
           d="m -135.69596,222.15638 c -2.13313,1.02629 -3.13411,3.29233 -3.51712,4.52412 -1.74855,3.97546 -2.34088,10.31009 -4.86713,14.55189 -1.26661,2.12674 -1.61484,4.74772 -3.07677,6.63584 -3.07916,3.97681 -3.82931,7.34398 -5.02415,9.41597 -1.96362,3.98443 -2.88418,8.1551 -2.94052,12.61635 0.0129,0.70526 0.0364,1.40579 0.74854,1.80027 5.82318,-0.38106 11.47783,-2.16194 14.92246,-5.64862 1.7702,-2.38943 2.97772,-6.30613 5.31139,-7.16615 2.07959,-3.68144 2.76901,-5.38016 5.46377,-9.88183 0.88894,-1.95258 0.77228,-3.45555 0.91379,-5.93134 -0.47313,-0.60242 -0.827,-1.26448 -1.53288,-1.71173 -0.29491,-2.44689 0.26985,-4.63433 0.70155,-6.84426 0.42232,-2.1619 0.54573,-4.39937 0.60823,-6.65608 1.39781,-2.13632 3.566,-2.46258 5.60346,-3.46173 1.73672,-1.48944 2.6512,-2.05485 4.23409,-3.54429 0.98063,-0.89323 1.05163,-2.39289 1.36515,-3.73087 l 0.1559,-0.79792 c -1.27859,0.2537 -3.61908,0.35082 -4.95123,0.069 -0.82438,-0.26687 -2.04776,-2.24729 -2.10768,-2.59246 0.17593,-1.0195 0.24046,-2.03517 0.0843,-2.88754 -0.83911,0.33345 -1.75933,1.55577 -2.44491,2.95077 -0.40826,0.1551 -0.69038,0.7365 -2.02339,-0.0843 -0.25119,-0.85888 -0.0303,-1.81218 0.27401,-2.78215 l 0.23183,-2.61354 c 0.23693,-0.85864 -0.041,-1.70034 -0.33723,-2.44492 -0.30632,-0.002 -1.26751,2.07834 -1.98123,3.9203 -0.46003,1.56328 -1.19592,2.61198 -2.14984,3.83601 -1.096,1.88288 -1.73373,3.31371 -2.94778,4.96049 -0.44341,1.02728 -0.8297,2.08192 -0.7166,3.49876 z"
           id="path92823"
           sodipodi:nodetypes="ccssccccccccsccccccccccccccccc"
           transform="translate(1.0702455e-5)" /><path
           style="fill:#000000;stroke:none;stroke-width:0.238458px;stroke-linecap:butt;stroke-linejoin:miter;stroke-opacity:1"
           d="m -125.83495,217.19588 c -0.2469,-0.37088 0.89652,-1.74893 1.43323,-1.43322 0.35063,0.57183 0.69989,1.14376 0.33722,1.77046 -0.7976,0.21856 -1.02704,0.32287 -1.77045,-0.33724 z"
           id="path92805"
           sodipodi:nodetypes="cccc" /><path
           style="fill:#dda968;fill-opacity:1;stroke:none;stroke-width:0.238458px;stroke-linecap:butt;stroke-linejoin:miter;stroke-opacity:1"
           d="m -131.39926,218.12327 c -0.49658,-0.71662 -0.57933,-1.43323 -0.75877,-2.14985 0.0536,-1.63107 1.16164,-2.81022 1.93907,-4.13107 0.83816,-1.48338 1.39909,-2.9975 2.192,-5.26923 -0.0252,1.24187 0.0188,2.7609 -0.0421,3.54092 -0.15759,1.0438 -0.77473,1.62804 -0.84307,2.82431 0.21698,0.9551 0.038,1.03915 0,1.43323 -0.0634,0.85168 -0.45042,1.29877 -0.71662,1.89692 -0.35859,0.77263 -0.90674,1.41888 -1.77045,1.85477 z"
           id="path92807"
           sodipodi:nodetypes="ccccccccc" /><path
           style="fill:#dda968;fill-opacity:1;stroke:none;stroke-width:0.238458px;stroke-linecap:butt;stroke-linejoin:miter;stroke-opacity:1"
           d="m -125.20266,213.78142 c 0.13422,-0.82806 0.837,-1.58504 1.3911,-2.36061 -0.0654,0.79177 -0.0247,1.68956 -0.2951,2.27631 -0.44743,0.27441 -0.7537,0.12532 -1.096,0.0843 z"
           id="path92809"
           sodipodi:nodetypes="cccc" /><path
           style="fill:#4d4d4d;stroke:none;stroke-width:0.238458px;stroke-linecap:butt;stroke-linejoin:miter;stroke-opacity:1"
           d="m -125.06418,221.19583 c 2.23003,0.41809 4.77387,0.61071 7.15415,-1.04918 0.66719,-0.2098 0.18462,0.37827 -0.28997,0.7937 -2.57327,1.52333 -5.19554,1.32302 -7.23699,0.85245 -0.34541,-0.003 -0.24022,-0.59109 0.37281,-0.59697 z"
           id="path92811"
           sodipodi:nodetypes="ccccc" /><path
           style="fill:#a36c25;fill-opacity:1;stroke:none;stroke-width:0.238458px;stroke-linecap:butt;stroke-linejoin:miter;stroke-opacity:1"
           d="m -147.20696,256.77835 c -1.15377,2.59515 -0.91791,4.8815 -0.67446,7.16616 0.70148,1.2644 1.34426,2.51706 1.26462,3.62523 l 0.50584,3.37231 3.79385,0.0843 c -0.11465,-1.30398 -0.0343,-2.85169 0.16861,-4.55262 0.1284,-1.42401 -0.16949,-2.39804 1.30203,-5.23978 1.62905,-1.90274 4.69675,-6.26333 4.34659,-7.49068 -1.7151,-1.54906 -3.25752,-1.98869 -10.70708,3.03508 z"
           id="path92819"
           sodipodi:nodetypes="ccccccccc" /><path
           style="fill:#a36c25;fill-opacity:1;stroke:none;stroke-width:0.238458px;stroke-linecap:butt;stroke-linejoin:miter;stroke-opacity:1"
           d="m -133.28684,252.2402 c -1.4601,3.63994 -2.41417,6.95282 -2.87581,10.69262 0.66477,3.37742 1.3911,4.76295 2.61353,6.74461 l 3.62523,-1.01169 c -0.33735,-2.92613 -0.85159,-5.78594 -0.59014,-8.93662 0.54035,-3.60918 2.57775,-10.51804 2.02337,-10.79138 -2.12756,-1.96124 -3.68779,0.24627 -4.79618,3.30246 z"
           id="path92821"
           sodipodi:nodetypes="ccccccc" /><path
           style="fill:#333333;stroke:none;stroke-width:0.238458px;stroke-linecap:butt;stroke-linejoin:miter;stroke-opacity:1"
           d="m -118.0218,216.97638 c 0.66637,-0.81991 0.86388,-0.53662 1.22246,-0.6323 0.38946,-0.0526 0.53688,0.11485 0.71661,0.25292 0.0961,0.36533 0.16501,0.73067 0.0843,1.096 -0.10355,0.65993 -0.4621,0.89656 -1.18031,1.33838 -0.70063,0.0931 -1.18237,-0.7028 -1.12762,-1.42269 z"
           id="path92813"
           sodipodi:nodetypes="ccccccc" /><path
           style="fill:#1a1a1a;stroke:none;stroke-width:0.21678px;stroke-linecap:butt;stroke-linejoin:miter;stroke-opacity:1"
           d="m -117.92975,217.61292 c 0.002,0.76267 0.42904,0.46023 0.68977,0.57483 0.24793,-0.16087 0.44029,-0.36521 0.42155,-0.65146 0.1571,-0.0573 0.0425,-0.22315 0.0384,-0.3449 0.0501,-0.23308 0.25548,-0.20889 0.53649,-0.30658 -0.14012,-0.1965 -0.3655,-0.25092 -0.61314,-0.26824 -0.41603,0.15718 -0.85952,0.29891 -0.99637,0.61314 z"
           id="path92815"
           sodipodi:nodetypes="cccccccc" /><path
           style="fill:#ffffff;stroke:none;stroke-width:0.0581869px;stroke-linecap:butt;stroke-linejoin:miter;stroke-opacity:1"
           d="m -124.6514,216.82395 c -0.0602,-0.0905 0.21877,-0.42676 0.34973,-0.34972 0.0856,0.13953 0.17078,0.27909 0.0823,0.43201 -0.19462,0.0533 -0.25061,0.0788 -0.43201,-0.0823 z"
           id="path101878"
           sodipodi:nodetypes="cccc" /></g><g
         aria-label="關於"
         transform="skewY(-30)"
         id="text369"
         style="font-size:4.44838px;line-height:1.25;font-family:'Nunito Sans';-inkscape-font-specification:'Nunito Sans, Normal';stroke-width:0.0758511"><path
           d="m 23.999119,79.802783 h 1.007836 v -0.24327 h -1.007836 z m -1.025212,-0.24327 h -1.007836 v 0.24327 h 1.007836 z m 0,-0.208518 v -0.243271 h -1.007836 v 0.243271 z m 1.025212,0 h 1.007836 v -0.243271 h -1.007836 z m -0.677682,-0.451789 v 1.112095 h -1.355366 v 2.797614 h -0.34753 v -3.909709 z m 1.616013,3.544803 q 0.06951,0 0.06951,-0.06951 V 80.011301 H 24.329273 23.65159 v -1.112095 h 1.702895 v 3.631685 q 0,0.243271 -0.225894,0.243271 h -0.330153 l -0.06951,-0.330153 z M 24.381402,82.04435 h -0.382283 v 0.608177 h -0.2954 v -1.216354 h 0.278024 q 0.139012,0.01738 0.01738,0.104259 v 0.225894 h 0.382283 v -0.278024 h 0.278024 q 0.139012,0.01738 0.01738,0.104259 v 0.608177 h -0.2954 z m -0.382283,-0.973083 0.521295,-0.01738 -0.121635,-0.225894 0.24327,-0.104259 q 0.191142,0.278024 0.295401,0.573424 l -0.243271,0.104259 -0.06951,-0.139012 -1.042589,0.06951 0.05213,0.104259 -0.243271,0.08688 -0.121635,-0.243271 -1.042589,0.06951 q -0.06951,0.139012 -0.121635,0 l -0.06951,-0.278023 h 0.399659 l 0.156388,-0.173765 -0.469165,-0.330153 0.156388,-0.225895 0.156389,0.104259 0.278024,-0.399659 0.225894,0.121636 q 0.121635,0.05213 -0.03475,0.104258 l -0.260647,0.312777 0.139011,0.104259 0.330154,-0.382283 0.208518,0.104259 q 0.156388,0.08688 -0.01738,0.104259 l -0.521295,0.556048 0.39966,-0.01738 -0.104259,-0.208518 0.243271,-0.08688 0.156388,0.312777 h 0.173765 l 0.191141,-0.191142 -0.399659,-0.2954 0.173765,-0.208518 0.06951,0.05213 0.278023,-0.382283 0.225895,0.121636 q 0.121635,0.08688 -0.03475,0.104258 l -0.260648,0.295401 0.139012,0.104259 0.382283,-0.451789 0.225894,0.139012 q 0.121636,0.104259 -0.03475,0.08688 z m -1.424871,0.695059 h 0.399659 v -0.330153 h 0.278024 q 0.139011,0.01738 0.01738,0.104259 v 0.469165 q 0,0.503918 -0.729812,0.747189 l -0.139012,-0.243271 q 0.556047,-0.191141 0.573424,-0.469165 h -0.399659 v 0.156388 h -0.295401 v -0.712436 h 0.278024 q 0.139012,0.01738 0.01738,0.104259 z"
           style="fill:#ffffff"
           id="path1008" /><path
           d="M 26.536086,79.854913 H 25.962662 V 79.52476 h 0.660307 v -0.764566 h 0.330153 q 0.156388,0 0.01738,0.104259 v 0.660307 h 0.834071 v 0.330153 h -0.920953 v 0.538671 h 0.712436 v 1.998295 q 0,0.278024 -0.278024,0.278024 h -0.399659 l -0.06951,-0.330153 h 0.330153 q 0.06951,0 0.06951,-0.06951 v -1.546507 h -0.382283 q -0.01738,1.28586 -0.660306,1.998296 l -0.260647,-0.260648 q 0.5908,-0.538671 0.5908,-1.998295 z m 2.397955,-0.747189 q 0.469165,0.834071 1.025213,1.129471 l -0.208518,0.34753 q -0.625554,-0.451788 -1.007836,-1.181601 -0.34753,0.799318 -0.868825,1.320613 l -0.208517,-0.2954 q 0.660306,-0.69506 0.8862,-1.546507 l 0.399659,0.104259 q 0.121636,0.05213 -0.01738,0.121635 z m 0.417036,2.22419 Q 28.673394,80.897502 28.325864,80.75849 l 0.191141,-0.278024 q 0.64293,0.278024 1.025213,0.521295 z m -1.094719,0.243271 q 0.851448,0.330153 1.390119,0.712436 l -0.191142,0.382282 Q 28.7429,82.183362 28.065217,81.887961 Z"
           style="fill:#ffffff"
           id="path1010" /></g><g
         aria-label="聯絡"
         transform="skewY(-30)"
         id="text369-5"
         style="font-size:4.4px;line-height:1.25;font-family:'Nunito Sans';-inkscape-font-specification:'Nunito Sans, Normal';stroke-width:0.0750261"><path
           d="m 25.074554,109.38892 q 0.120312,0.30937 0.171875,0.51562 h 0.05156 l 0.309375,-0.56718 -0.498437,-0.32657 0.1375,-0.24062 0.103125,0.0688 0.34375,-0.72188 0.257812,0.15469 q 0.08594,0.0687 -0.03438,0.0687 l -0.360937,0.61875 0.189062,0.1375 0.34375,-0.60156 0.257813,0.15469 q 0.08594,0.0687 -0.03438,0.0687 l -0.704688,1.15156 0.446875,-0.0344 q -0.03438,-0.15468 -0.1375,-0.36093 l 0.240625,-0.10313 q 0.20625,0.36094 0.309375,0.825 l -0.275,0.10313 -0.06875,-0.25782 -0.825,0.0859 0.03438,0.1375 -0.275,0.0516 -0.05156,-0.22343 -0.89375,0.0688 q -0.01719,0.12031 -0.08594,0.0516 l -0.05156,-0.34375 h 0.189062 l 0.292188,-0.51563 -0.464063,-0.32656 0.103125,-0.24062 0.1375,0.0687 0.378125,-0.77344 0.257813,0.15469 q 0.08594,0.0688 -0.03437,0.0688 l -0.4125,0.6875 0.171875,0.10312 0.360937,-0.61875 0.257813,0.15469 q 0.08594,0.0687 -0.03437,0.0687 l -0.721875,1.16875 0.498437,-0.0172 -0.120312,-0.39531 z m 0,0.97969 q 0.1375,0.0172 0.01719,0.10312 v 0.79063 q 0,0.61875 -0.807812,0.825 l -0.08594,-0.275 q 0.601563,-0.1375 0.601563,-0.58438 h -0.326563 v 0.20625 h -0.292187 v -0.9625 h 0.275 q 0.1375,0.0172 0.01719,0.10313 v 0.37812 h 0.326563 v -0.58437 z m -1.495313,1.66718 v -0.73906 l -0.928125,0.24063 q -0.01719,0.12031 -0.08594,0.0516 l -0.103125,-0.36094 0.34375,-0.0688 v -2.59531 h -0.257813 v -0.275 h 1.58125 v 0.275 h -0.257812 v 3.47187 z m -0.48125,-2.78437 h 0.48125 v -0.6875 h -0.48125 z m 0,0.89375 h 0.48125 v -0.61875 h -0.48125 z m 0,0.9625 0.48125,-0.10313 v -0.58437 h -0.48125 z m 2.26875,-0.75625 h 0.275 q 0.1375,0.0172 0.01719,0.10312 v 0.49844 h 0.326562 v -0.51562 h 0.275 q 0.1375,0.0172 0.01719,0.10312 v 0.87656 h -0.292188 v -0.18906 h -0.326562 v 0.79063 h -0.292188 z"
           style="fill:#ffffff"
           id="path1003" /><path
           d="m 28.529241,109.28579 q 0.464063,-0.48125 0.670313,-1.22031 l 0.34375,0.0688 q 0.06875,0.0687 -0.05156,0.0859 l -0.08594,0.22344 h 0.773437 l 0.05156,-0.0859 0.292187,0.17187 q 0.06875,0.0688 -0.05156,0.0859 -0.189063,0.46406 -0.567188,0.94531 0.4125,0.4125 1.014063,0.63594 l -0.120313,0.32656 q -0.584375,-0.20625 -1.117187,-0.72187 -0.4125,0.46406 -1.048438,0.80781 l -0.171875,-0.29219 q 0.584375,-0.275 1.014063,-0.75625 -0.20625,-0.25781 -0.34375,-0.51562 -0.171875,0.25781 -0.395313,0.49844 z m -1.082812,1.40938 q -0.03437,0.49844 -0.20625,0.97969 l -0.292188,-0.15469 q 0.171875,-0.44688 0.20625,-0.97969 l 0.326563,0.0516 q 0.05156,0.0516 -0.03438,0.10313 z m 1.048437,-1.7875 q -0.275,0.4125 -0.842187,1.03125 l 0.6875,-0.0687 -0.154688,-0.24063 0.240625,-0.15468 q 0.257813,0.30937 0.326563,0.55 l -0.257813,0.18906 -0.05156,-0.10313 -0.429688,0.0688 v 1.85625 h -0.292187 v -1.82187 l -0.670313,0.0859 q -0.01719,0.12031 -0.08594,0.0516 l -0.06875,-0.39531 h 0.378125 l 0.292187,-0.36094 q -0.292187,-0.30938 -0.653125,-0.51563 l 0.189063,-0.25781 0.20625,0.1375 q 0.240625,-0.32656 0.48125,-0.84219 l 0.292187,0.18907 q 0.05156,0.0859 -0.05156,0.0687 -0.171875,0.34375 -0.515625,0.75625 l 0.257812,0.20625 q 0.34375,-0.44688 0.48125,-0.70469 l 0.292188,0.20625 q 0.05156,0.0859 -0.05156,0.0687 z m 0.464063,1.52969 h 1.5125 v 1.5125 h -0.292188 v -0.15469 h -0.928125 v 0.22344 h -0.292187 z m 0.292187,1.08281 h 0.928125 v -0.80781 h -0.928125 z m -0.790625,-1.04844 q 0.154688,0.34375 0.20625,0.87656 l -0.326562,0.0687 q -0.03438,-0.46406 -0.171875,-0.87656 z m 0.842188,-1.75312 q 0.120312,0.36093 0.378125,0.60156 0.257812,-0.34375 0.378125,-0.60156 z"
           style="fill:#ffffff"
           id="path1005" /></g></g></g></svg>
