<?xml version="1.0" encoding="UTF-8" standalone="no"?>
<!-- Created with Inkscape (http://www.inkscape.org/) -->

<svg
   width="46.77869"
   height="61.974655"
   viewBox="0 0 12.376861 16.397461"
   version="1.1"
   id="svg5"
   inkscape:version="1.2 (dc2aedaf03, 2022-05-15)"
   sodipodi:docname="Navigation.svg"
   xml:space="preserve"
   xmlns:inkscape="http://www.inkscape.org/namespaces/inkscape"
   xmlns:sodipodi="http://sodipodi.sourceforge.net/DTD/sodipodi-0.dtd"
   xmlns="http://www.w3.org/2000/svg"
   xmlns:svg="http://www.w3.org/2000/svg"><sodipodi:namedview
     id="namedview7"
     pagecolor="#ffffff"
     bordercolor="#666666"
     borderopacity="1.0"
     inkscape:showpageshadow="2"
     inkscape:pageopacity="0.0"
     inkscape:pagecheckerboard="0"
     inkscape:deskcolor="#d1d1d1"
     inkscape:document-units="mm"
     showgrid="true"
     inkscape:zoom="1.4142136"
     inkscape:cx="771.4535"
     inkscape:cy="348.25009"
     inkscape:window-width="1920"
     inkscape:window-height="991"
     inkscape:window-x="-9"
     inkscape:window-y="-9"
     inkscape:window-maximized="1"
     inkscape:current-layer="layer3"><inkscape:grid
       type="axonomgrid"
       id="grid1326"
       snapvisiblegridlinesonly="false"
       units="px"
       spacingy="2.6458333"
       originx="169.33333"
       originy="95.25" /></sodipodi:namedview><defs
     id="defs2" /><g
     inkscape:groupmode="layer"
     id="layer3"
     inkscape:label="scene 3"
     transform="matrix(0.10379619,0,0,0.10379619,-96.003172,-143.96576)"><g
       id="g128836"
       inkscape:label="Girlfriend"
       transform="matrix(0.05127771,0.02691731,0,0.05127771,854.49998,1348.6927)"><rect
         style="fill:#e6e6e6;fill-opacity:1;stroke:none;stroke-width:6.16499;stroke-linecap:round;stroke-miterlimit:18.1;stroke-dasharray:none;stroke-dashoffset:5.07364;stroke-opacity:1;paint-order:markers fill stroke"
         id="rect128820"
         width="2325.4146"
         height="1860.1406"
         x="1373.3059"
         y="26.245256" /><rect
         style="fill:#7eb1f0;fill-opacity:1;stroke:none;stroke-width:5.4726;stroke-linecap:round;stroke-miterlimit:18.1;stroke-dasharray:none;stroke-dashoffset:5.07364;stroke-opacity:1;paint-order:markers fill stroke"
         id="rect128890"
         width="2087.251"
         height="1633.0304"
         x="1492.2684"
         y="152.41757"
         transform="translate(9.0321228e-6,1.0637834e-5)" /><path
         style="fill:#cb957d;fill-opacity:1;stroke:none;stroke-width:2.54907px;stroke-linecap:butt;stroke-linejoin:miter;stroke-opacity:1"
         d="m 1737.6258,1416.7158 -29.8421,212.3191 67.9074,156.5175 187.1803,0.874 -79.0741,-148.0169 22.9416,-163.8117 z"
         id="path128822"
         sodipodi:nodetypes="ccccccc" /><path
         style="fill:#d6aca2;fill-opacity:1;stroke:none;stroke-width:2.54907px;stroke-linecap:butt;stroke-linejoin:miter;stroke-opacity:1"
         d="m 2666.4136,534.48281 -89.2173,94.31544 -25.4906,186.08181 107.0607,152.94395 -12.7453,71.37389 -17.8434,128.7278 15.2943,65.0012 201.3762,-1.2746 95.59,-206.4743 -77.7465,-47.15772 -25.4907,-53.53039 48.4323,-104.5117 V 695.07396 l -66.2757,-91.76637 -68.8248,-66.27571 z"
         id="path128824"
         sodipodi:nodetypes="cccccccccccccccc" /><path
         style="fill:#cb957d;fill-opacity:1;stroke:none;stroke-width:2.54907px;stroke-linecap:butt;stroke-linejoin:miter;stroke-opacity:1"
         d="m 2086.4106,1029.47 80.3861,-145.76516 -10.1963,-107.06077 -63.7266,-35.68692 8.9217,-71.37384 70.0993,30.58878 35.687,-168.23835 237.0631,-12.74533 86.6682,117.25704 -45.8832,234.51406 -33.2393,79.2022 -99.9306,24.43024 -84.9719,171.84785 z"
         id="path128826"
         sodipodi:nodetypes="cccccccccccccc" /><path
         style="fill:#3b4054;fill-opacity:1;stroke:none;stroke-width:2.54907px;stroke-linecap:butt;stroke-linejoin:miter;stroke-opacity:1"
         d="m 2100.3289,970.89002 -246.7314,94.91198 -155.3385,386.0884 227.9977,73.8698 51.9091,-213.8123 7.6472,472.7177 579.3939,0.7267 -26.5027,-414.8158 -75.7254,-196.15 -58.7832,-58.1381 -80.0018,-47.8138 -47.3765,22.9901 -88.7296,-4.3022 -70.7571,-64.0587 z"
         id="path128828"
         sodipodi:nodetypes="ccccccccccccccc" /><path
         style="fill:#f5f6eb;fill-opacity:1;stroke:none;stroke-width:2.54907px;stroke-linecap:butt;stroke-linejoin:miter;stroke-opacity:1"
         d="m 2435.7231,442.71643 570.9908,-96.86449 161.8657,660.20806 58.6285,553.1473 -34.1167,226.4298 -638.5266,-0.2178 -23.6038,-30.425 -7.2951,-379.3197 -71.3738,-186.0818 201.3762,-114.708 73.1543,96.5022 147.4836,-51.5248 44.465,-138.01833 58.6285,-35.68692 -73.923,-467.75359 -155.493,-7.6472 -91.7663,12.74533 -149.1204,31.86333 z"
         id="path128830"
         sodipodi:nodetypes="ccccccccccccccccccc" /><path
         style="fill:#192330;fill-opacity:1;stroke:none;stroke-width:2.54907px;stroke-linecap:butt;stroke-linejoin:miter;stroke-opacity:1"
         d="m 2179.5421,716.74102 -63.7267,-22.94159 17.8434,-243.43579 183.5328,-81.57011 175.8855,76.47197 68.8248,151.66942 -48.4322,38.23599 -73.923,-101.96263 -225.5923,21.66706 z"
         id="path128832"
         sodipodi:nodetypes="cccccccccc" /><path
         style="fill:#292929;fill-opacity:1;stroke:none;stroke-width:2.54907px;stroke-linecap:butt;stroke-linejoin:miter;stroke-opacity:1"
         d="m 2611.6087,470.75616 121.0806,-2.54906 142.7477,99.41357 35.6869,127.45329 -19.1179,321.18234 -52.2559,-26.76523 -21.6671,-63.72665 44.6087,-114.70796 -30.5888,-169.51288 -137.6496,-114.70797 -104.5117,107.06077 -11.4707,186.08181 93.0409,145.29676 6.3726,130.00245 -100.688,45.8832 -104.5118,-219.21977 22.9416,-355.59469 z"
         id="path128834"
         sodipodi:nodetypes="cccccccccccccccccc" /></g></g></svg>
