<?xml version="1.0" encoding="UTF-8" standalone="no"?>
<!-- Created with Inkscape (http://www.inkscape.org/) -->

<svg
   width="69.457047"
   height="175.27509"
   viewBox="0 0 18.377176 46.374866"
   version="1.1"
   id="svg5"
   inkscape:version="1.2 (dc2aedaf03, 2022-05-15)"
   sodipodi:docname="nav-about.svg"
   xml:space="preserve"
   xmlns:inkscape="http://www.inkscape.org/namespaces/inkscape"
   xmlns:sodipodi="http://sodipodi.sourceforge.net/DTD/sodipodi-0.dtd"
   xmlns="http://www.w3.org/2000/svg"
   xmlns:svg="http://www.w3.org/2000/svg"><sodipodi:namedview
     id="namedview7"
     pagecolor="#ffffff"
     bordercolor="#666666"
     borderopacity="1.0"
     inkscape:showpageshadow="2"
     inkscape:pageopacity="0.0"
     inkscape:pagecheckerboard="0"
     inkscape:deskcolor="#d1d1d1"
     inkscape:document-units="mm"
     showgrid="true"
     inkscape:zoom="1.4142136"
     inkscape:cx="343.65389"
     inkscape:cy="54.800774"
     inkscape:window-width="1920"
     inkscape:window-height="991"
     inkscape:window-x="-9"
     inkscape:window-y="-9"
     inkscape:window-maximized="1"
     inkscape:current-layer="g1014"><inkscape:grid
       type="axonomgrid"
       id="grid1326"
       snapvisiblegridlinesonly="false"
       units="px"
       spacingy="2.6458333"
       originx="169.33333"
       originy="95.25" /></sodipodi:namedview><defs
     id="defs2" /><g
     inkscape:label="Layer 1"
     inkscape:groupmode="layer"
     id="layer1"
     transform="translate(-16.718627,-57.227322)"><g
       id="g1014"><path
         id="rect2469-3-8-3-9-5-9-2-8"
         style="fill:#deaa87;fill-opacity:1;stroke:#99e4ff;stroke-width:0;stroke-linecap:round;stroke-miterlimit:18.1;stroke-dashoffset:5.07364;paint-order:markers fill stroke"
         d="M 17.138562,103.60219 16.718627,67.830761 34.645353,57.227321 35.095801,93.048532 Z"
         sodipodi:nodetypes="ccccc" /><g
         aria-label="ABOUT"
         transform="skewY(-28.322339)"
         id="text92676"
         style="font-size:3.25372px;font-family:'Nunito Sans';-inkscape-font-specification:'Nunito Sans, Normal';text-align:center;text-anchor:middle;stroke-width:0.0554411"><path
           d="M 18.353928,81.438606 19.77437,78.1656 h 0.03423 l 1.420442,3.273006 h -0.718778 l -0.907029,-2.3018 0.449236,-0.308048 -1.086724,2.609848 z m 0.971206,-1.138065 h 0.945535 l 0.218201,0.52197 h -1.356266 z"
           style="-inkscape-font-specification:'Josefin Sans Bold';fill:#ffffff"
           id="path305" /><path
           d="m 22.610972,78.289674 q 0.492021,0 0.782955,0.201087 0.290934,0.196808 0.290934,0.590425 0,0.290934 -0.145467,0.487742 -0.141189,0.19253 -0.389338,0.290934 -0.243871,0.09413 -0.560476,0.09413 l -0.0984,-0.333719 q 0.389338,0 0.688829,0.106961 0.303769,0.106961 0.479185,0.308048 0.175416,0.196808 0.175416,0.474907 0,0.256706 -0.09413,0.436401 -0.08985,0.175416 -0.248149,0.286655 -0.154024,0.106961 -0.350832,0.158302 -0.196809,0.04706 -0.406452,0.04706 h -1.048218 v -3.148932 z m 0.07273,1.287811 q 0.183973,0 0.269541,-0.11124 0.08985,-0.111239 0.08985,-0.252428 0,-0.16258 -0.11124,-0.243871 -0.106961,-0.08129 -0.290934,-0.08129 h -0.333718 v 0.688829 z m 0.02139,1.283532 q 0.13691,0 0.248149,-0.03423 0.11124,-0.03851 0.175416,-0.115518 0.06418,-0.08129 0.06418,-0.201086 0,-0.13691 -0.07701,-0.205365 -0.07701,-0.07273 -0.201087,-0.0984 -0.119796,-0.02995 -0.252428,-0.02995 h -0.35511 v 0.684551 z"
           style="-inkscape-font-specification:'Josefin Sans Bold';fill:#ffffff"
           id="path307" /><path
           d="m 24.262447,79.868419 q 0,-0.325162 0.124075,-0.616096 0.124075,-0.290933 0.342275,-0.513412 0.222479,-0.226758 0.513413,-0.355111 0.290934,-0.128353 0.624652,-0.128353 0.32944,0 0.620374,0.128353 0.290934,0.128353 0.513413,0.355111 0.226757,0.222479 0.350832,0.513412 0.128353,0.290934 0.128353,0.616096 0,0.333718 -0.128353,0.624652 -0.124075,0.290934 -0.350832,0.513413 -0.222479,0.2182 -0.513413,0.342275 -0.290934,0.124075 -0.620374,0.124075 -0.333718,0 -0.624652,-0.124075 -0.290934,-0.124075 -0.513413,-0.342275 -0.2182,-0.222479 -0.342275,-0.513413 -0.124075,-0.290934 -0.124075,-0.624652 z m 0.641766,0 q 0,0.209643 0.07273,0.393616 0.07701,0.179695 0.209643,0.320883 0.13691,0.13691 0.312326,0.213922 0.179695,0.07701 0.389338,0.07701 0.201087,0 0.372225,-0.07701 0.175416,-0.07701 0.303769,-0.213922 0.128353,-0.141188 0.201086,-0.320883 0.07273,-0.183973 0.07273,-0.393616 0,-0.213922 -0.07701,-0.397895 -0.07273,-0.183973 -0.205365,-0.320883 -0.128353,-0.141189 -0.303769,-0.218201 -0.175416,-0.07701 -0.380782,-0.07701 -0.205365,0 -0.380781,0.07701 -0.175416,0.07701 -0.308047,0.218201 -0.132632,0.13691 -0.205365,0.320883 -0.07273,0.183973 -0.07273,0.397895 z"
           style="-inkscape-font-specification:'Josefin Sans Bold';fill:#ffffff"
           id="path309" /><path
           d="m 28.656402,80.274871 q 0,0.149745 0.08985,0.286655 0.08985,0.13691 0.235314,0.222479 0.149745,0.08557 0.325161,0.08557 0.19253,0 0.342276,-0.08557 0.149745,-0.08557 0.235314,-0.222479 0.08985,-0.13691 0.08985,-0.286655 v -1.985197 h 0.611817 v 1.998032 q 0,0.346554 -0.171138,0.616095 -0.171137,0.265264 -0.462071,0.419287 -0.290934,0.149746 -0.646045,0.149746 v 0 q -0.350832,0 -0.641766,-0.149746 -0.286655,-0.154023 -0.457793,-0.419287 -0.171137,-0.269541 -0.171137,-0.616095 v -1.998032 h 0.620373 z"
           style="-inkscape-font-specification:'Josefin Sans Bold';fill:#ffffff"
           id="path311" /><path
           d="m 31.120786,78.289674 h 2.122106 v 0.598982 h -0.76584 v 2.54995 h -0.620374 v -2.54995 h -0.735892 z"
           style="-inkscape-font-specification:'Josefin Sans Bold';fill:#ffffff"
           id="path313" /></g><g
         aria-label="CONTACT"
         transform="matrix(0.99620576,-0.54100027,0,1.0038087,0,0)"
         id="text92791"
         style="font-size:3.49909px;font-family:'Nunito Sans';-inkscape-font-specification:'Nunito Sans, Normal';text-align:center;text-anchor:middle;stroke-width:0.0642347"><path
           d="m 19.945855,110.02575 q -0.04199,0.035 -0.15746,0.0945 -0.11197,0.0595 -0.276428,0.10497 -0.164457,0.0455 -0.363905,0.042 -0.304421,-0.007 -0.545858,-0.10847 -0.237938,-0.10497 -0.405894,-0.28343 -0.164458,-0.17845 -0.251935,-0.40939 -0.08748,-0.23094 -0.08748,-0.49337 0,-0.29393 0.08748,-0.53886 0.09098,-0.24494 0.255434,-0.42339 0.167956,-0.17846 0.398896,-0.27643 0.23094,-0.098 0.510867,-0.098 0.258933,0 0.458381,0.07 0.199448,0.07 0.325415,0.15046 l -0.199448,0.47937 q -0.08748,-0.0665 -0.234439,-0.13646 -0.143463,-0.0735 -0.332414,-0.0735 -0.146961,0 -0.283426,0.063 -0.132965,0.0595 -0.237938,0.17146 -0.101474,0.11197 -0.160958,0.26243 -0.05949,0.14696 -0.05949,0.32191 0,0.18546 0.05249,0.33942 0.05598,0.15396 0.157459,0.26593 0.101473,0.10847 0.241437,0.16795 0.143463,0.0595 0.321916,0.0595 0.206447,0 0.353408,-0.0665 0.146962,-0.0665 0.223942,-0.13996 z"
           style="-inkscape-font-specification:'Josefin Sans Bold';fill:#ffffff"
           id="path428" /><path
           d="m 20.295765,108.95503 q 0,-0.26593 0.101474,-0.50387 0.101474,-0.23794 0.279927,-0.41989 0.181953,-0.18545 0.419891,-0.29042 0.237938,-0.10498 0.510867,-0.10498 0.26943,0 0.507368,0.10498 0.237938,0.10497 0.419891,0.29042 0.185452,0.18195 0.286925,0.41989 0.104973,0.23794 0.104973,0.50387 0,0.27293 -0.104973,0.51087 -0.101473,0.23794 -0.286925,0.41989 -0.181953,0.17845 -0.419891,0.27993 -0.237938,0.10147 -0.507368,0.10147 -0.272929,0 -0.510867,-0.10147 -0.237938,-0.10148 -0.419891,-0.27993 -0.178453,-0.18195 -0.279927,-0.41989 -0.101474,-0.23794 -0.101474,-0.51087 z m 0.524864,0 q 0,0.17146 0.05948,0.32192 0.06298,0.14696 0.171456,0.26243 0.111971,0.11197 0.255433,0.17495 0.146962,0.063 0.318418,0.063 0.164457,0 0.30442,-0.063 0.143463,-0.063 0.248436,-0.17495 0.104972,-0.11547 0.164457,-0.26243 0.05949,-0.15046 0.05949,-0.32192 0,-0.17495 -0.06298,-0.32541 -0.05949,-0.15047 -0.167956,-0.26244 -0.104973,-0.11547 -0.248436,-0.17845 -0.143462,-0.063 -0.311419,-0.063 -0.167956,0 -0.311419,0.063 -0.143462,0.063 -0.251934,0.17845 -0.108472,0.11197 -0.167957,0.26244 -0.05948,0.15046 -0.05948,0.32541 z"
           style="-inkscape-font-specification:'Josefin Sans Bold';fill:#ffffff"
           id="path430" /><path
           d="m 25.740347,110.34417 -1.952492,-1.76354 0.150461,0.084 0.0105,1.57459 h -0.514366 v -2.67681 h 0.02099 l 1.910503,1.75655 -0.111971,-0.049 -0.0105,-1.60608 h 0.510867 v 2.6803 z"
           style="-inkscape-font-specification:'Josefin Sans Bold';fill:#ffffff"
           id="path432" /><path
           d="m 26.244218,107.66387 h 1.735549 v 0.48987 H 27.35343 v 2.08546 h -0.507368 v -2.08546 h -0.601844 z"
           style="-inkscape-font-specification:'Josefin Sans Bold';fill:#ffffff"
           id="path434" /><path
           d="m 27.969273,110.2392 1.161698,-2.67681 h 0.02799 l 1.161698,2.67681 h -0.587847 l -0.741807,-1.88251 0.367404,-0.25194 -0.888768,2.13445 z m 0.794293,-0.93076 h 0.773299 l 0.178454,0.42689 h -1.109212 z"
           style="-inkscape-font-specification:'Josefin Sans Bold';fill:#ffffff"
           id="path436" /><path
           d="m 32.451607,110.02575 q -0.04199,0.035 -0.157459,0.0945 -0.111971,0.0595 -0.276428,0.10497 -0.164457,0.0455 -0.363905,0.042 -0.304421,-0.007 -0.545858,-0.10847 -0.237939,-0.10497 -0.405895,-0.28343 -0.164457,-0.17845 -0.251934,-0.40939 -0.08748,-0.23094 -0.08748,-0.49337 0,-0.29393 0.08748,-0.53886 0.09098,-0.24494 0.255433,-0.42339 0.167957,-0.17846 0.398896,-0.27643 0.23094,-0.098 0.510868,-0.098 0.258932,0 0.45838,0.07 0.199448,0.07 0.325416,0.15046 l -0.199448,0.47937 q -0.08748,-0.0665 -0.234439,-0.13646 -0.143463,-0.0735 -0.332414,-0.0735 -0.146962,0 -0.283426,0.063 -0.132966,0.0595 -0.237938,0.17146 -0.101474,0.11197 -0.160959,0.26243 -0.05948,0.14696 -0.05948,0.32191 0,0.18546 0.05249,0.33942 0.05599,0.15396 0.157459,0.26593 0.101474,0.10847 0.241438,0.16795 0.143462,0.0595 0.321916,0.0595 0.206446,0 0.353408,-0.0665 0.146962,-0.0665 0.223942,-0.13996 z"
           style="-inkscape-font-specification:'Josefin Sans Bold';fill:#ffffff"
           id="path438" /><path
           d="m 32.784022,107.66387 h 1.735549 v 0.48987 h -0.626337 v 2.08546 h -0.507368 v -2.08546 h -0.601844 z"
           style="-inkscape-font-specification:'Josefin Sans Bold';fill:#ffffff"
           id="path440" /></g><g
         id="g94559"
         inkscape:label="dog"
         style="stroke:none"
         transform="matrix(0.29964501,-0.09331727,0.09331727,0.29964501,44.190241,-3.3676852)"><path
           style="fill:#bd8032;fill-opacity:1;stroke:none;stroke-width:0.238458px;stroke-linecap:butt;stroke-linejoin:miter;stroke-opacity:1"
           d="m -135.69596,222.15638 c -2.13313,1.02629 -3.13411,3.29233 -3.51712,4.52412 -1.74855,3.97546 -2.34088,10.31009 -4.86713,14.55189 -1.26661,2.12674 -1.61484,4.74772 -3.07677,6.63584 -3.07916,3.97681 -3.82931,7.34398 -5.02415,9.41597 -1.96362,3.98443 -2.88418,8.1551 -2.94052,12.61635 0.0129,0.70526 0.0364,1.40579 0.74854,1.80027 5.82318,-0.38106 11.47783,-2.16194 14.92246,-5.64862 1.7702,-2.38943 2.97772,-6.30613 5.31139,-7.16615 2.07959,-3.68144 2.76901,-5.38016 5.46377,-9.88183 0.88894,-1.95258 0.77228,-3.45555 0.91379,-5.93134 -0.47313,-0.60242 -0.827,-1.26448 -1.53288,-1.71173 -0.29491,-2.44689 0.26985,-4.63433 0.70155,-6.84426 0.42232,-2.1619 0.54573,-4.39937 0.60823,-6.65608 1.39781,-2.13632 3.566,-2.46258 5.60346,-3.46173 1.73672,-1.48944 2.6512,-2.05485 4.23409,-3.54429 0.98063,-0.89323 1.05163,-2.39289 1.36515,-3.73087 l 0.1559,-0.79792 c -1.27859,0.2537 -3.61908,0.35082 -4.95123,0.069 -0.82438,-0.26687 -2.04776,-2.24729 -2.10768,-2.59246 0.17593,-1.0195 0.24046,-2.03517 0.0843,-2.88754 -0.83911,0.33345 -1.75933,1.55577 -2.44491,2.95077 -0.40826,0.1551 -0.69038,0.7365 -2.02339,-0.0843 -0.25119,-0.85888 -0.0303,-1.81218 0.27401,-2.78215 l 0.23183,-2.61354 c 0.23693,-0.85864 -0.041,-1.70034 -0.33723,-2.44492 -0.30632,-0.002 -1.26751,2.07834 -1.98123,3.9203 -0.46003,1.56328 -1.19592,2.61198 -2.14984,3.83601 -1.096,1.88288 -1.73373,3.31371 -2.94778,4.96049 -0.44341,1.02728 -0.8297,2.08192 -0.7166,3.49876 z"
           id="path92823"
           sodipodi:nodetypes="ccssccccccccsccccccccccccccccc"
           transform="translate(1.0702455e-5)" /><path
           style="fill:#000000;stroke:none;stroke-width:0.238458px;stroke-linecap:butt;stroke-linejoin:miter;stroke-opacity:1"
           d="m -125.83495,217.19588 c -0.2469,-0.37088 0.89652,-1.74893 1.43323,-1.43322 0.35063,0.57183 0.69989,1.14376 0.33722,1.77046 -0.7976,0.21856 -1.02704,0.32287 -1.77045,-0.33724 z"
           id="path92805"
           sodipodi:nodetypes="cccc" /><path
           style="fill:#dda968;fill-opacity:1;stroke:none;stroke-width:0.238458px;stroke-linecap:butt;stroke-linejoin:miter;stroke-opacity:1"
           d="m -131.39926,218.12327 c -0.49658,-0.71662 -0.57933,-1.43323 -0.75877,-2.14985 0.0536,-1.63107 1.16164,-2.81022 1.93907,-4.13107 0.83816,-1.48338 1.39909,-2.9975 2.192,-5.26923 -0.0252,1.24187 0.0188,2.7609 -0.0421,3.54092 -0.15759,1.0438 -0.77473,1.62804 -0.84307,2.82431 0.21698,0.9551 0.038,1.03915 0,1.43323 -0.0634,0.85168 -0.45042,1.29877 -0.71662,1.89692 -0.35859,0.77263 -0.90674,1.41888 -1.77045,1.85477 z"
           id="path92807"
           sodipodi:nodetypes="ccccccccc" /><path
           style="fill:#dda968;fill-opacity:1;stroke:none;stroke-width:0.238458px;stroke-linecap:butt;stroke-linejoin:miter;stroke-opacity:1"
           d="m -125.20266,213.78142 c 0.13422,-0.82806 0.837,-1.58504 1.3911,-2.36061 -0.0654,0.79177 -0.0247,1.68956 -0.2951,2.27631 -0.44743,0.27441 -0.7537,0.12532 -1.096,0.0843 z"
           id="path92809"
           sodipodi:nodetypes="cccc" /><path
           style="fill:#4d4d4d;stroke:none;stroke-width:0.238458px;stroke-linecap:butt;stroke-linejoin:miter;stroke-opacity:1"
           d="m -125.06418,221.19583 c 2.23003,0.41809 4.77387,0.61071 7.15415,-1.04918 0.66719,-0.2098 0.18462,0.37827 -0.28997,0.7937 -2.57327,1.52333 -5.19554,1.32302 -7.23699,0.85245 -0.34541,-0.003 -0.24022,-0.59109 0.37281,-0.59697 z"
           id="path92811"
           sodipodi:nodetypes="ccccc" /><path
           style="fill:#a36c25;fill-opacity:1;stroke:none;stroke-width:0.238458px;stroke-linecap:butt;stroke-linejoin:miter;stroke-opacity:1"
           d="m -147.20696,256.77835 c -1.15377,2.59515 -0.91791,4.8815 -0.67446,7.16616 0.70148,1.2644 1.34426,2.51706 1.26462,3.62523 l 0.50584,3.37231 3.79385,0.0843 c -0.11465,-1.30398 -0.0343,-2.85169 0.16861,-4.55262 0.1284,-1.42401 -0.16949,-2.39804 1.30203,-5.23978 1.62905,-1.90274 4.69675,-6.26333 4.34659,-7.49068 -1.7151,-1.54906 -3.25752,-1.98869 -10.70708,3.03508 z"
           id="path92819"
           sodipodi:nodetypes="ccccccccc" /><path
           style="fill:#a36c25;fill-opacity:1;stroke:none;stroke-width:0.238458px;stroke-linecap:butt;stroke-linejoin:miter;stroke-opacity:1"
           d="m -133.28684,252.2402 c -1.4601,3.63994 -2.41417,6.95282 -2.87581,10.69262 0.66477,3.37742 1.3911,4.76295 2.61353,6.74461 l 3.62523,-1.01169 c -0.33735,-2.92613 -0.85159,-5.78594 -0.59014,-8.93662 0.54035,-3.60918 2.57775,-10.51804 2.02337,-10.79138 -2.12756,-1.96124 -3.68779,0.24627 -4.79618,3.30246 z"
           id="path92821"
           sodipodi:nodetypes="ccccccc" /><path
           style="fill:#333333;stroke:none;stroke-width:0.238458px;stroke-linecap:butt;stroke-linejoin:miter;stroke-opacity:1"
           d="m -118.0218,216.97638 c 0.66637,-0.81991 0.86388,-0.53662 1.22246,-0.6323 0.38946,-0.0526 0.53688,0.11485 0.71661,0.25292 0.0961,0.36533 0.16501,0.73067 0.0843,1.096 -0.10355,0.65993 -0.4621,0.89656 -1.18031,1.33838 -0.70063,0.0931 -1.18237,-0.7028 -1.12762,-1.42269 z"
           id="path92813"
           sodipodi:nodetypes="ccccccc" /><path
           style="fill:#1a1a1a;stroke:none;stroke-width:0.21678px;stroke-linecap:butt;stroke-linejoin:miter;stroke-opacity:1"
           d="m -117.92975,217.61292 c 0.002,0.76267 0.42904,0.46023 0.68977,0.57483 0.24793,-0.16087 0.44029,-0.36521 0.42155,-0.65146 0.1571,-0.0573 0.0425,-0.22315 0.0384,-0.3449 0.0501,-0.23308 0.25548,-0.20889 0.53649,-0.30658 -0.14012,-0.1965 -0.3655,-0.25092 -0.61314,-0.26824 -0.41603,0.15718 -0.85952,0.29891 -0.99637,0.61314 z"
           id="path92815"
           sodipodi:nodetypes="cccccccc" /><path
           style="fill:#ffffff;stroke:none;stroke-width:0.0581869px;stroke-linecap:butt;stroke-linejoin:miter;stroke-opacity:1"
           d="m -124.6514,216.82395 c -0.0602,-0.0905 0.21877,-0.42676 0.34973,-0.34972 0.0856,0.13953 0.17078,0.27909 0.0823,0.43201 -0.19462,0.0533 -0.25061,0.0788 -0.43201,-0.0823 z"
           id="path101878"
           sodipodi:nodetypes="cccc" /></g></g></g></svg>
