<?xml version="1.0" encoding="UTF-8" standalone="no"?>
<!-- Created with Inkscape (http://www.inkscape.org/) -->

<svg
   width="83.211258"
   height="103.16981"
   viewBox="0 0 22.016311 27.297012"
   version="1.1"
   id="svg5"
   inkscape:version="1.2 (dc2aedaf03, 2022-05-15)"
   sodipodi:docname="nav-home-ch.svg"
   xml:space="preserve"
   xmlns:inkscape="http://www.inkscape.org/namespaces/inkscape"
   xmlns:sodipodi="http://sodipodi.sourceforge.net/DTD/sodipodi-0.dtd"
   xmlns="http://www.w3.org/2000/svg"
   xmlns:svg="http://www.w3.org/2000/svg"><sodipodi:namedview
     id="namedview7"
     pagecolor="#ffffff"
     bordercolor="#666666"
     borderopacity="1.0"
     inkscape:showpageshadow="2"
     inkscape:pageopacity="0.0"
     inkscape:pagecheckerboard="0"
     inkscape:deskcolor="#d1d1d1"
     inkscape:document-units="mm"
     showgrid="true"
     inkscape:zoom="2.8284272"
     inkscape:cx="124.27401"
     inkscape:cy="67.705472"
     inkscape:window-width="1920"
     inkscape:window-height="991"
     inkscape:window-x="2391"
     inkscape:window-y="-9"
     inkscape:window-maximized="1"
     inkscape:current-layer="g1240"><inkscape:grid
       type="axonomgrid"
       id="grid1326"
       snapvisiblegridlinesonly="false"
       units="px"
       spacingy="2.6458333"
       originx="169.33333"
       originy="95.25" /></sodipodi:namedview><defs
     id="defs2" /><g
     inkscape:groupmode="layer"
     id="layer3"
     inkscape:label="scene 3"
     transform="matrix(0.10379619,0,0,0.10379619,-9.3671205,-144.56955)"><g
       id="g1240"><path
         id="path130581"
         style="fill:#f9f9f9;fill-opacity:1;stroke:#99e4ff;stroke-width:0;stroke-linecap:round;stroke-miterlimit:18.1;stroke-dashoffset:5.07364;paint-order:markers fill stroke"
         d="m 112.08602,1392.8213 190.2703,110.4379 -21.4058,152.5487 -190.705091,-109.4938 z"
         sodipodi:nodetypes="ccccc"
         inkscape:transform-center-x="3.8260865" /><g
         aria-label="回到
首頁"
         transform="skewY(30)"
         id="text252"
         style="font-size:40.6926px;line-height:1.25;font-family:'Nunito Sans';-inkscape-font-specification:'Nunito Sans, Normal';stroke-width:0.693867"><path
           d="m 166.53851,1386.5424 h 8.9015 v -8.4246 h -8.9015 z m 8.9015,4.6098 v -1.5896 h -8.9015 v 1.7485 h -3.17911 v -16.2134 h 15.25972 v 16.0545 z m -17.32614,4.4507 h 25.59183 v -25.9097 h -25.59183 z m 25.59183,4.4508 v -1.4306 h -25.59183 v 2.2253 h -3.17911 v -34.1754 h 31.95005 v 33.3807 z"
           style="fill:#006680"
           id="path1392" /><path
           d="m 228.05427,1366.0372 q 1.27165,0.1589 0.15896,0.9537 v 30.9963 q 0,2.5433 -2.54329,2.5433 h -3.17911 l -0.47686,-3.0201 h 2.38433 q 0.63582,0 0.63582,-0.6358 v -30.8374 z m -10.49106,26.7045 v -23.0485 h 3.02016 q 1.27164,0.1589 0.15895,0.9537 v 22.0948 z m -21.93585,-6.3582 h 7.31195 v -4.6097 h 3.02015 q 1.27165,0.1589 0.15896,0.9537 v 3.656 h 7.47091 v 3.0201 h -7.47091 v 5.5635 l 8.58359,-1.2717 0.47687,2.7023 -19.07466,3.497 q -0.15895,1.1127 -0.79477,0.4769 l -1.27165,-3.815 8.90151,-1.1126 v -6.0404 h -7.31195 z m 0.47686,-5.0866 q -0.15895,1.1127 -0.79477,0.4769 l -0.95374,-3.8149 4.13285,-0.159 3.02015,-7.9478 h -6.99404 v -3.0201 h 20.02839 v 3.0201 h -9.37837 l -3.49702,7.7888 7.62986,-0.6358 q -1.11269,-1.5895 -3.02016,-3.497 l 2.54329,-1.7485 q 3.81493,3.497 6.19926,7.6299 l -2.86119,2.0664 -1.27165,-1.9075 z"
           style="fill:#006680"
           id="path1394" /><path
           d="m 179.4139,1422.3475 q -1.11269,2.0664 -2.06642,3.656 h 11.28584 v 3.0201 h -16.21346 l -0.79478,3.9739 h 11.4448 v 23.0486 h -3.17911 v -0.9538 h -18.12093 v 1.4306 h -3.17911 v -23.5254 h 9.53733 l 0.79478,-3.9739 H 153.3452 v -3.0201 h 10.80897 q -1.58955,-2.3843 -2.86119,-3.8149 l 3.02015,-1.7485 q 2.38433,2.8612 3.97389,5.5634 h 5.40448 q 1.74851,-2.8612 2.8612,-6.0403 l 3.49702,1.4306 q 0.63582,0.7948 -0.63582,0.9537 z m 0.47687,13.1933 h -18.12093 v 3.815 h 18.12093 z m 0,6.3582 h -18.12093 v 3.815 h 18.12093 z m -18.12093,10.6501 h 18.12093 v -4.2918 h -18.12093 z"
           style="fill:#006680"
           id="path1396" /><path
           d="m 199.60124,1449.8468 v -21.1411 h 9.37838 l 0.47686,-3.6559 H 195.4684 v -3.0202 h 32.42692 v 3.0202 h -14.62391 l -0.95373,3.6559 h 11.76271 v 20.6642 h -3.17911 v -0.9537 h -18.12093 v 1.4306 z m 3.17911,-7.153 v 3.1791 h 18.12093 v -3.1791 z m 18.12093,-2.5433 v -3.1791 h -18.12093 v 3.1791 z m -18.12093,-8.9015 v 3.1791 h 18.12093 v -3.1791 z m -7.94777,22.4127 q 5.88135,-0.7947 12.08062,-4.4507 l 2.06642,2.5433 q 0.63582,0.7948 -0.95374,0.6358 -6.0403,3.497 -12.23957,4.7687 z m 21.93586,-4.6097 q 4.92761,2.8612 12.08061,4.2918 l -1.27164,3.3381 q -6.99404,-1.2716 -12.71644,-5.0866 z"
           style="fill:#006680"
           id="path1398" /></g></g></g></svg>
