<?xml version="1.0" encoding="UTF-8" standalone="no"?>
<!-- Created with Inkscape (http://www.inkscape.org/) -->

<svg
   width="83.211258"
   height="103.16981"
   viewBox="0 0 22.016311 27.297012"
   version="1.1"
   id="svg5"
   inkscape:version="1.2 (dc2aedaf03, 2022-05-15)"
   sodipodi:docname="nav-home.svg"
   xml:space="preserve"
   xmlns:inkscape="http://www.inkscape.org/namespaces/inkscape"
   xmlns:sodipodi="http://sodipodi.sourceforge.net/DTD/sodipodi-0.dtd"
   xmlns="http://www.w3.org/2000/svg"
   xmlns:svg="http://www.w3.org/2000/svg"><sodipodi:namedview
     id="namedview7"
     pagecolor="#ffffff"
     bordercolor="#666666"
     borderopacity="1.0"
     inkscape:showpageshadow="2"
     inkscape:pageopacity="0.0"
     inkscape:pagecheckerboard="0"
     inkscape:deskcolor="#d1d1d1"
     inkscape:document-units="mm"
     showgrid="true"
     inkscape:zoom="2.8284272"
     inkscape:cx="160.86679"
     inkscape:cy="67.351919"
     inkscape:window-width="1920"
     inkscape:window-height="991"
     inkscape:window-x="-9"
     inkscape:window-y="-9"
     inkscape:window-maximized="1"
     inkscape:current-layer="g1240"><inkscape:grid
       type="axonomgrid"
       id="grid1326"
       snapvisiblegridlinesonly="false"
       units="px"
       spacingy="2.6458333"
       originx="169.33333"
       originy="95.25" /></sodipodi:namedview><defs
     id="defs2" /><g
     inkscape:groupmode="layer"
     id="layer3"
     inkscape:label="scene 3"
     transform="matrix(0.10379619,0,0,0.10379619,-9.3671205,-144.56955)"><g
       id="g1240"><path
         id="path130581"
         style="fill:#f9f9f9;fill-opacity:1;stroke:#99e4ff;stroke-width:0;stroke-linecap:round;stroke-miterlimit:18.1;stroke-dashoffset:5.07364;paint-order:markers fill stroke"
         d="m 112.08602,1392.8213 190.2703,110.4379 -21.4058,152.5487 -190.705091,-109.4938 z"
         sodipodi:nodetypes="ccccc"
         inkscape:transform-center-x="3.8260865" /><g
         aria-label="Back to
Animation"
         transform="matrix(0.86602541,0.5,-0.04539555,1.1284914,0,0)"
         id="text1182"
         style="font-size:41.7452px;font-family:'Nunito Sans';-inkscape-font-specification:'Nunito Sans, Normal';fill:#006680;stroke-width:0.711814"><path
           d="m 217.42987,1214.5336 v -29.4304 h 12.85752 q 4.63372,0 7.18017,2.0455 2.54646,2.0038 2.54646,5.5939 0,2.3795 -1.21061,4.091 -1.21061,1.7116 -3.33961,2.5047 2.50471,0.7097 3.8823,2.5047 1.41934,1.7533 1.41934,4.4668 0,3.924 -2.6717,6.0948 -2.62994,2.129 -7.34715,2.129 z m 5.13466,-16.9486 h 6.80447 q 5.46862,0 5.46862,-4.2162 0,-4.2163 -5.46862,-4.2163 h -6.80447 z m 0,12.8993 h 7.51413 q 5.51037,0 5.51037,-4.425 0,-4.425 -5.51037,-4.425 h -7.51413 z"
           style="-inkscape-font-specification:'Nunito Sans Bold'"
           id="path293" /><path
           d="m 252.37059,1214.951 q -2.2125,0 -3.96579,-0.8349 -1.71156,-0.8766 -2.71344,-2.3377 -0.96014,-1.4611 -0.96014,-3.2979 0,-2.2542 1.16886,-3.5483 1.16887,-1.3359 3.79882,-1.9203 2.62994,-0.5844 7.05494,-0.5844 h 1.46108 v -0.8767 q 0,-2.0872 -0.9184,-3.0056 -0.91839,-0.9184 -3.08914,-0.9184 -1.71156,0 -3.5066,0.5427 -1.79504,0.5009 -3.63183,1.5863 l -1.50283,-3.5484 q 1.08538,-0.7514 2.54646,-1.2941 1.50283,-0.5844 3.13089,-0.8766 1.66981,-0.334 3.13089,-0.334 4.46674,0 6.63749,2.0873 2.17075,2.0455 2.17075,6.387 v 12.3566 h -4.88419 v -3.2562 q -0.70967,1.7116 -2.25424,2.7135 -1.54458,0.9601 -3.67358,0.9601 z m 1.08537,-3.5901 q 2.04552,0 3.38137,-1.4193 1.37759,-1.4193 1.37759,-3.5901 v -0.9184 h -1.41934 q -3.92405,0 -5.46862,0.6262 -1.50283,0.5844 -1.50283,2.1707 0,1.3776 0.96014,2.2543 0.96014,0.8766 2.67169,0.8766 z"
           style="-inkscape-font-specification:'Nunito Sans Bold'"
           id="path295" /><path
           d="m 277.91869,1214.951 q -3.21438,0 -5.59386,-1.2941 -2.37947,-1.3358 -3.67358,-3.757 -1.2941,-2.4213 -1.2941,-5.6774 0,-3.2561 1.2941,-5.5939 1.29411,-2.3794 3.67358,-3.6318 2.37948,-1.2941 5.59386,-1.2941 1.96202,0 3.8823,0.6262 1.92028,0.6262 3.17264,1.7533 l -1.54457,3.6318 q -1.08538,-0.9601 -2.46297,-1.4611 -1.33585,-0.5009 -2.5882,-0.5009 -2.71344,0 -4.21627,1.7116 -1.46108,1.6698 -1.46108,4.8006 0,3.0892 1.46108,4.8842 1.50283,1.7533 4.21627,1.7533 1.21061,0 2.5882,-0.5009 1.37759,-0.5009 2.46297,-1.5028 l 1.54457,3.6735 q -1.25236,1.0854 -3.21438,1.7533 -1.92028,0.6262 -3.84056,0.6262 z"
           style="-inkscape-font-specification:'Nunito Sans Bold'"
           id="path297" /><path
           d="m 288.18801,1214.5336 v -29.4304 h 5.21815 v 17.7 h 0.0835 l 8.22381,-8.683 h 6.30352 l -9.26743,9.7683 9.85187,10.6451 h -6.38702 l -8.72475,-9.1005 h -0.0835 v 9.1005 z"
           style="-inkscape-font-specification:'Nunito Sans Bold'"
           id="path299" /><path
           d="m 331.18556,1214.951 q -8.09857,0 -8.09857,-8.0151 v -8.8917 h -3.92405 v -3.924 h 3.92405 v -6.0948 h 5.21815 v 6.0948 h 6.17829 v 3.924 h -6.17829 v 8.5995 q 0,2.0038 0.87665,3.0057 0.87665,1.0019 2.83867,1.0019 0.58444,0 1.21061,-0.1253 0.62618,-0.167 1.29411,-0.3339 l 0.79315,3.8405 q -0.75141,0.4175 -1.92027,0.668 -1.12713,0.2504 -2.2125,0.2504 z"
           style="-inkscape-font-specification:'Nunito Sans Bold'"
           id="path301" /><path
           d="m 346.96531,1214.951 q -3.17264,0 -5.51037,-1.2941 -2.33773,-1.2941 -3.63183,-3.6736 -1.2941,-2.4212 -1.2941,-5.6773 0,-3.2561 1.2941,-5.6356 1.2941,-2.3795 3.63183,-3.6736 2.33773,-1.2941 5.51037,-1.2941 3.17263,0 5.51037,1.2941 2.33773,1.2941 3.63183,3.6736 1.2941,2.3795 1.2941,5.6356 0,3.2561 -1.2941,5.6773 -1.2941,2.3795 -3.63183,3.6736 -2.33774,1.2941 -5.51037,1.2941 z m 0,-3.9658 q 2.33773,0 3.75707,-1.6698 1.41933,-1.7115 1.41933,-5.0094 0,-3.3396 -1.41933,-4.9677 -1.41934,-1.6698 -3.75707,-1.6698 -2.33773,0 -3.75707,1.6698 -1.41934,1.6281 -1.41934,4.9677 0,3.2979 1.41934,5.0094 1.41934,1.6698 3.75707,1.6698 z"
           style="-inkscape-font-specification:'Nunito Sans Bold'"
           id="path303" /><path
           d="m 186.28802,1258.366 13.31672,-29.4303 h 4.38325 l 13.31672,29.4303 h -5.42688 l -2.92216,-6.8044 h -14.36035 l -2.88042,6.8044 z m 15.44573,-23.6278 -5.30164,12.5654 h 10.68677 l -5.30164,-12.5654 z"
           style="-inkscape-font-specification:'Nunito Sans Bold'"
           id="path305" /><path
           d="m 220.01813,1258.366 v -20.4134 h 5.09291 v 3.1727 q 1.04363,-1.7533 2.79693,-2.6717 1.79504,-0.9184 4.00754,-0.9184 7.22192,0 7.22192,8.3908 v 12.44 h -5.21815 v -12.1896 q 0,-2.3794 -0.9184,-3.4648 -0.87665,-1.0854 -2.75518,-1.0854 -2.29599,0 -3.67358,1.4611 -1.33584,1.4193 -1.33584,3.7988 v 11.4799 z"
           style="-inkscape-font-specification:'Nunito Sans Bold'"
           id="path307" /><path
           d="m 244.10507,1233.5694 v -5.0929 h 5.84433 v 5.0929 z m 0.33396,24.7966 v -20.4134 h 5.21815 v 20.4134 z"
           style="-inkscape-font-specification:'Nunito Sans Bold'"
           id="path309" /><path
           d="m 255.16751,1258.366 v -20.4134 h 5.09292 v 3.1309 q 0.91839,-1.6698 2.54646,-2.5882 1.62806,-0.9601 3.75706,-0.9601 4.59198,0 6.01131,4.0075 0.96014,-1.8785 2.75519,-2.9222 1.79504,-1.0853 4.09103,-1.0853 6.88795,0 6.88795,8.3908 v 12.44 h -5.21815 v -12.2313 q 0,-2.3377 -0.79316,-3.4231 -0.75141,-1.0854 -2.5882,-1.0854 -2.04551,0 -3.21438,1.4611 -1.16886,1.4193 -1.16886,3.9658 v 11.3129 h -5.21815 v -12.2313 q 0,-2.3377 -0.79316,-3.4231 -0.75142,-1.0854 -2.54646,-1.0854 -2.04551,0 -3.21438,1.4611 -1.16887,1.4193 -1.16887,3.9658 v 11.3129 z"
           style="-inkscape-font-specification:'Nunito Sans Bold'"
           id="path311" /><path
           d="m 298.41557,1258.7835 q -2.21249,0 -3.96579,-0.8349 -1.71155,-0.8767 -2.71344,-2.3378 -0.96014,-1.461 -0.96014,-3.2978 0,-2.2543 1.16887,-3.5484 1.16886,-1.3358 3.79881,-1.9202 2.62995,-0.5845 7.05494,-0.5845 h 1.46108 v -0.8766 q 0,-2.0873 -0.91839,-3.0057 -0.9184,-0.9184 -3.08915,-0.9184 -1.71155,0 -3.50659,0.5427 -1.79505,0.501 -3.63184,1.5863 l -1.50282,-3.5483 q 1.08537,-0.7514 2.54645,-1.2941 1.50283,-0.5844 3.13089,-0.8767 1.66981,-0.3339 3.13089,-0.3339 4.46674,0 6.63749,2.0872 2.17075,2.0455 2.17075,6.387 v 12.3566 h -4.88419 v -3.2561 q -0.70967,1.7116 -2.25424,2.7134 -1.54457,0.9602 -3.67358,0.9602 z m 1.08538,-3.5901 q 2.04551,0 3.38136,-1.4193 1.37759,-1.4194 1.37759,-3.5901 v -0.9184 h -1.41934 q -3.92404,0 -5.46862,0.6262 -1.50282,0.5844 -1.50282,2.1707 0,1.3776 0.96014,2.2542 0.96014,0.8767 2.67169,0.8767 z"
           style="-inkscape-font-specification:'Nunito Sans Bold'"
           id="path313" /><path
           d="m 323.88018,1258.7835 q -8.09856,0 -8.09856,-8.0151 v -8.8917 h -3.92405 v -3.9241 h 3.92405 v -6.0948 h 5.21815 v 6.0948 h 6.17829 v 3.9241 h -6.17829 v 8.5995 q 0,2.0038 0.87665,3.0056 0.87664,1.0019 2.83867,1.0019 0.58443,0 1.21061,-0.1252 0.62618,-0.167 1.2941,-0.334 l 0.79316,3.8406 q -0.75141,0.4174 -1.92028,0.6679 -1.12712,0.2505 -2.2125,0.2505 z"
           style="-inkscape-font-specification:'Nunito Sans Bold'"
           id="path315" /><path
           d="m 330.22549,1233.5694 v -5.0929 h 5.84433 v 5.0929 z m 0.33396,24.7966 v -20.4134 h 5.21815 v 20.4134 z"
           style="-inkscape-font-specification:'Nunito Sans Bold'"
           id="path317" /><path
           d="m 350.51362,1258.7835 q -3.17264,0 -5.51037,-1.2941 -2.33773,-1.2941 -3.63183,-3.6736 -1.2941,-2.4212 -1.2941,-5.6773 0,-3.2562 1.2941,-5.6356 1.2941,-2.3795 3.63183,-3.6736 2.33773,-1.2941 5.51037,-1.2941 3.17263,0 5.51036,1.2941 2.33774,1.2941 3.63184,3.6736 1.2941,2.3794 1.2941,5.6356 0,3.2561 -1.2941,5.6773 -1.2941,2.3795 -3.63184,3.6736 -2.33773,1.2941 -5.51036,1.2941 z m 0,-3.9658 q 2.33773,0 3.75707,-1.6698 1.41933,-1.7116 1.41933,-5.0094 0,-3.3397 -1.41933,-4.9677 -1.41934,-1.6698 -3.75707,-1.6698 -2.33773,0 -3.75707,1.6698 -1.41934,1.628 -1.41934,4.9677 0,3.2978 1.41934,5.0094 1.41934,1.6698 3.75707,1.6698 z"
           style="-inkscape-font-specification:'Nunito Sans Bold'"
           id="path319" /><path
           d="m 365.24968,1258.366 v -20.4134 h 5.09292 v 3.1727 q 1.04363,-1.7533 2.79692,-2.6717 1.79505,-0.9184 4.00754,-0.9184 7.22192,0 7.22192,8.3908 v 12.44 h -5.21815 v -12.1896 q 0,-2.3794 -0.91839,-3.4648 -0.87665,-1.0854 -2.75519,-1.0854 -2.29598,0 -3.67357,1.4611 -1.33585,1.4193 -1.33585,3.7988 v 11.4799 z"
           style="-inkscape-font-specification:'Nunito Sans Bold'"
           id="path321" /></g></g></g></svg>
