<?xml version="1.0" encoding="UTF-8" standalone="no"?>
<!-- Created with Inkscape (http://www.inkscape.org/) -->

<svg
   width="69.457199"
   height="175.2751"
   viewBox="0 0 18.377216 46.37487"
   version="1.1"
   id="svg5"
   inkscape:version="1.2 (dc2aedaf03, 2022-05-15)"
   sodipodi:docname="nav-portfolio.svg"
   xml:space="preserve"
   xmlns:inkscape="http://www.inkscape.org/namespaces/inkscape"
   xmlns:sodipodi="http://sodipodi.sourceforge.net/DTD/sodipodi-0.dtd"
   xmlns="http://www.w3.org/2000/svg"
   xmlns:svg="http://www.w3.org/2000/svg"><sodipodi:namedview
     id="namedview7"
     pagecolor="#ffffff"
     bordercolor="#666666"
     borderopacity="1.0"
     inkscape:showpageshadow="2"
     inkscape:pageopacity="0.0"
     inkscape:pagecheckerboard="0"
     inkscape:deskcolor="#d1d1d1"
     inkscape:document-units="mm"
     showgrid="true"
     inkscape:zoom="1.4142136"
     inkscape:cx="346.83587"
     inkscape:cy="122.68302"
     inkscape:window-width="1920"
     inkscape:window-height="991"
     inkscape:window-x="-9"
     inkscape:window-y="-9"
     inkscape:window-maximized="1"
     inkscape:current-layer="g1022"><inkscape:grid
       type="axonomgrid"
       id="grid1326"
       snapvisiblegridlinesonly="false"
       units="px"
       spacingy="2.6458333"
       originx="169.33333"
       originy="95.25" /></sodipodi:namedview><defs
     id="defs2" /><g
     inkscape:label="Layer 1"
     inkscape:groupmode="layer"
     id="layer1"
     transform="translate(-37.156862,-39.637978)"><g
       id="g1022"><path
         id="path464"
         style="fill:#333333;fill-opacity:1;stroke:#99e4ff;stroke-width:0;stroke-linecap:round;stroke-miterlimit:18.1;stroke-dashoffset:5.07364;paint-order:markers fill stroke"
         d="M 55.258875,53.572645 37.4306,73.547281 37.576951,86.012841 55.534079,75.459155 Z" /><path
         id="path104109"
         style="fill:#ba1111;fill-opacity:1;stroke:#99e4ff;stroke-width:0;stroke-linecap:round;stroke-miterlimit:18.1;stroke-dashoffset:5.07364;paint-order:markers fill stroke"
         d="M 55.083576,39.63798 37.156861,50.24142 37.4306,73.547281 55.258875,53.572645 Z" /><g
         aria-label="PORT-
-FOLIO"
         transform="matrix(0.74478572,-0.85776377,0.35364269,0.9353806,0,0)"
         id="text92676-3"
         style="font-size:4.53012px;font-family:'Nunito Sans';-inkscape-font-specification:'Nunito Sans, Normal';stroke-width:0.0554411"><path
           d="m 14.777888,83.253631 q 0.412241,0 0.697638,0.140434 0.285398,0.135903 0.434892,0.38959 0.149494,0.249156 0.149494,0.593446 0,0.203855 -0.06342,0.41224 -0.05889,0.203856 -0.194795,0.37147 -0.131373,0.167615 -0.357879,0.271807 -0.221976,0.09966 -0.548145,0.09966 h -0.471132 v 1.055518 h -0.656868 v -3.334168 z m 0.113253,1.639903 q 0.149494,0 0.249157,-0.04983 0.09966,-0.05436 0.154024,-0.131374 0.05889,-0.08154 0.08154,-0.167614 0.02718,-0.08607 0.02718,-0.149494 0,-0.04983 -0.01812,-0.131373 -0.01359,-0.08607 -0.06342,-0.172145 -0.04983,-0.08607 -0.154024,-0.144964 -0.09966,-0.05889 -0.271807,-0.05889 h -0.471132 v 1.005686 z"
           style="-inkscape-font-specification:'Josefin Sans Bold';fill:#ffffff"
           id="path295" /><path
           d="m 16.444971,84.925245 q 0,-0.344289 0.131373,-0.652337 0.131374,-0.308048 0.36241,-0.543615 0.235566,-0.240096 0.543614,-0.376 0.308048,-0.135903 0.661398,-0.135903 0.348819,0 0.656867,0.135903 0.308048,0.135904 0.543614,0.376 0.240097,0.235567 0.37147,0.543615 0.135904,0.308048 0.135904,0.652337 0,0.353349 -0.135904,0.661398 -0.131373,0.308048 -0.37147,0.543614 -0.235566,0.231036 -0.543614,0.36241 -0.308048,0.131373 -0.656867,0.131373 -0.35335,0 -0.661398,-0.131373 -0.308048,-0.131374 -0.543614,-0.36241 -0.231036,-0.235566 -0.36241,-0.543614 -0.131373,-0.308049 -0.131373,-0.661398 z m 0.679518,0 q 0,0.221976 0.07701,0.416771 0.08154,0.190265 0.221976,0.339759 0.144963,0.144964 0.330698,0.226506 0.190265,0.08154 0.412241,0.08154 0.212916,0 0.394121,-0.08154 0.185735,-0.08154 0.321638,-0.226506 0.135904,-0.149494 0.212916,-0.339759 0.07701,-0.194795 0.07701,-0.416771 0,-0.226506 -0.08154,-0.421301 -0.07701,-0.194795 -0.217446,-0.339759 -0.135904,-0.149494 -0.321639,-0.231036 -0.185735,-0.08154 -0.40318,-0.08154 -0.217446,0 -0.403181,0.08154 -0.185735,0.08154 -0.326169,0.231036 -0.140433,0.144964 -0.217445,0.339759 -0.07701,0.194795 -0.07701,0.421301 z"
           style="-inkscape-font-specification:'Josefin Sans Bold';fill:#ffffff"
           id="path297" /><path
           d="m 21.518702,83.253631 q 0.312578,0 0.557204,0.08154 0.244627,0.07701 0.407711,0.226506 0.167615,0.144964 0.253687,0.353349 0.08607,0.203856 0.08607,0.462073 0,0.203855 -0.06342,0.40771 -0.05889,0.203856 -0.199326,0.37147 -0.135903,0.167615 -0.362409,0.271807 -0.226506,0.09966 -0.561735,0.09966 h -0.471133 v 1.060048 h -0.656867 v -3.334168 z m 0.113253,1.639903 q 0.149494,0 0.249156,-0.04983 0.09966,-0.04983 0.154024,-0.126843 0.05889,-0.07701 0.08154,-0.158555 0.02718,-0.08607 0.02718,-0.158554 0,-0.05436 -0.01812,-0.135903 -0.01359,-0.08607 -0.06342,-0.172145 -0.04983,-0.08607 -0.154024,-0.144964 -0.09966,-0.05889 -0.271807,-0.05889 h -0.471133 v 1.005686 z m 0.616096,0.407711 0.824482,1.286554 h -0.76559 L 21.46434,85.319366 Z"
           style="-inkscape-font-specification:'Josefin Sans Bold';fill:#ffffff"
           id="path299" /><path
           d="m 23.321696,83.253631 h 2.24694 v 0.634217 h -0.810892 v 2.699951 h -0.656867 v -2.699951 h -0.779181 z"
           style="-inkscape-font-specification:'Josefin Sans Bold';fill:#ffffff"
           id="path301" /><path
           d="m 26.017119,85.274064 h 0.851662 v 0.552675 h -0.851662 z"
           style="-inkscape-font-specification:'Josefin Sans Bold';fill:#ffffff"
           id="path303" /><path
           d="m 13.581936,89.617533 h 0.851663 v 0.552674 h -0.851663 z"
           style="-inkscape-font-specification:'Josefin Sans Bold';fill:#ffffff"
           id="path305" /><path
           d="m 15.153887,87.597099 h 2.083855 v 0.634217 h -1.426988 v 0.75653 h 1.236723 v 0.634217 h -1.236723 v 1.309204 h -0.656867 z"
           style="-inkscape-font-specification:'Josefin Sans Bold';fill:#ffffff"
           id="path307" /><path
           d="m 17.668105,89.268713 q 0,-0.344289 0.131373,-0.652337 0.131374,-0.308048 0.36241,-0.543614 0.235566,-0.240097 0.543614,-0.376 0.308048,-0.135904 0.661398,-0.135904 0.348819,0 0.656867,0.135904 0.308048,0.135903 0.543615,0.376 0.240096,0.235566 0.371469,0.543614 0.135904,0.308048 0.135904,0.652337 0,0.35335 -0.135904,0.661398 -0.131373,0.308048 -0.371469,0.543614 -0.235567,0.231036 -0.543615,0.36241 -0.308048,0.131373 -0.656867,0.131373 -0.35335,0 -0.661398,-0.131373 -0.308048,-0.131374 -0.543614,-0.36241 -0.231036,-0.235566 -0.36241,-0.543614 -0.131373,-0.308048 -0.131373,-0.661398 z m 0.679518,0 q 0,0.221976 0.07701,0.416771 0.08154,0.190265 0.221976,0.339759 0.144964,0.144964 0.330699,0.226506 0.190265,0.08154 0.41224,0.08154 0.212916,0 0.394121,-0.08154 0.185735,-0.08154 0.321638,-0.226506 0.135904,-0.149494 0.212916,-0.339759 0.07701,-0.194795 0.07701,-0.416771 0,-0.226506 -0.08154,-0.421301 -0.07701,-0.194795 -0.217446,-0.339759 -0.135903,-0.149494 -0.321638,-0.231036 -0.185735,-0.08154 -0.403181,-0.08154 -0.217446,0 -0.403181,0.08154 -0.185735,0.08154 -0.326168,0.231036 -0.140434,0.144964 -0.217446,0.339759 -0.07701,0.194795 -0.07701,0.421301 z"
           style="-inkscape-font-specification:'Josefin Sans Bold';fill:#ffffff"
           id="path309" /><path
           d="m 21.731619,87.597099 h 0.656868 v 2.699952 h 1.567421 v 0.634216 h -2.224289 z"
           style="-inkscape-font-specification:'Josefin Sans Bold';fill:#ffffff"
           id="path311" /><path
           d="m 24.63543,87.597099 h 0.656867 v 3.334168 H 24.63543 Z"
           style="-inkscape-font-specification:'Josefin Sans Bold';fill:#ffffff"
           id="path313" /><path
           d="m 25.94916,89.268713 q 0,-0.344289 0.131374,-0.652337 0.131373,-0.308048 0.362409,-0.543614 0.235567,-0.240097 0.543615,-0.376 0.308048,-0.135904 0.661397,-0.135904 0.34882,0 0.656868,0.135904 0.308048,0.135903 0.543614,0.376 0.240096,0.235566 0.37147,0.543614 0.135903,0.308048 0.135903,0.652337 0,0.35335 -0.135903,0.661398 -0.131374,0.308048 -0.37147,0.543614 -0.235566,0.231036 -0.543614,0.36241 -0.308048,0.131373 -0.656868,0.131373 -0.353349,0 -0.661397,-0.131373 -0.308048,-0.131374 -0.543615,-0.36241 -0.231036,-0.235566 -0.362409,-0.543614 -0.131374,-0.308048 -0.131374,-0.661398 z m 0.679518,0 q 0,0.221976 0.07701,0.416771 0.08154,0.190265 0.221976,0.339759 0.144964,0.144964 0.330699,0.226506 0.190265,0.08154 0.412241,0.08154 0.212916,0 0.39412,-0.08154 0.185735,-0.08154 0.321639,-0.226506 0.135903,-0.149494 0.212915,-0.339759 0.07701,-0.194795 0.07701,-0.416771 0,-0.226506 -0.08154,-0.421301 -0.07701,-0.194795 -0.217445,-0.339759 -0.135904,-0.149494 -0.321639,-0.231036 -0.185735,-0.08154 -0.403181,-0.08154 -0.217445,0 -0.40318,0.08154 -0.185735,0.08154 -0.326169,0.231036 -0.140434,0.144964 -0.217446,0.339759 -0.07701,0.194795 -0.07701,0.421301 z"
           style="-inkscape-font-specification:'Josefin Sans Bold';fill:#ffffff"
           id="path315" /></g><path
         id="path106290"
         style="fill:none;fill-opacity:1;stroke:#ffffff;stroke-width:0.214022;stroke-linecap:round;stroke-miterlimit:18.1;stroke-dasharray:none;stroke-dashoffset:5.07364;stroke-opacity:1;paint-order:markers fill stroke"
         d="m 38.263979,84.497594 -0.315071,-33.591675 16.299237,-9.640807 0.34282,33.636941 z"
         sodipodi:nodetypes="ccccc" /></g></g></svg>
