<svg width="238.58" height="238.58" viewBox="0 0 63.124 63.124" xmlns="http://www.w3.org/2000/svg"><path style="font-weight:700;font-size:83.9422px;line-height:1.25;font-family:'Josefin Sans';-inkscape-font-specification:'Josefin Sans, Bold';fill:#007298;fill-opacity:1;stroke-width:2.09856" d="M49.898 199.893c-4.365 0-8.45.839-12.256 2.518a32.184 32.184 0 0 0-10.073 6.967c-2.854 2.91-5.092 6.268-6.715 10.073-1.623 3.805-2.434 7.835-2.434 12.088 0 4.365.811 8.45 2.434 12.255 1.623 3.806 3.861 7.164 6.715 10.074 2.91 2.854 6.268 5.092 10.073 6.715 3.806 1.623 7.89 2.434 12.256 2.434 4.309 0 8.366-.811 12.172-2.434 3.805-1.623 7.162-3.861 10.072-6.715a31.043 31.043 0 0 0 6.884-10.074c1.679-3.805 2.518-7.89 2.518-12.255 0-4.253-.84-8.283-2.518-12.088a31.043 31.043 0 0 0-6.884-10.073 32.184 32.184 0 0 0-10.072-6.967c-3.806-1.68-7.863-2.518-12.172-2.518zm.084 11.751c2.686 0 5.176.504 7.47 1.511a17.44 17.44 0 0 1 5.96 4.282c1.736 1.79 3.079 3.889 4.03 6.295 1.007 2.406 1.511 5.009 1.511 7.807 0 2.742-.476 5.316-1.427 7.722a20.982 20.982 0 0 1-3.945 6.296 17.99 17.99 0 0 1-5.96 4.197c-2.24 1.007-4.673 1.511-7.304 1.511-2.742 0-5.288-.504-7.638-1.51a19.926 19.926 0 0 1-6.128-4.198 21.478 21.478 0 0 1-4.113-6.296c-.951-2.406-1.427-4.98-1.427-7.722 0-2.798.476-5.4 1.427-7.807.951-2.406 2.294-4.504 4.03-6.295a18.323 18.323 0 0 1 6.043-4.282c2.295-1.007 4.785-1.51 7.471-1.51z" transform="translate(-18.42 -199.893)"/><path style="font-weight:700;font-size:83.9422px;line-height:1.25;font-family:'Josefin Sans';-inkscape-font-specification:'Josefin Sans, Bold';fill:#99250b;fill-opacity:1;stroke-width:2.09856" d="M18.564 234.653a30.28 30.28 0 0 0 2.29 9.141 33.484 33.484 0 0 0 1.624 3.282c15.526 6.4 31.561 9.049 46.396 9.593a32.385 32.385 0 0 0 3.268-2.802 31.076 31.076 0 0 0 5.513-7.254c-4.75.077-9.668-.045-14.685-.436a18.033 18.033 0 0 1-5.35 3.577c-2.238 1.007-4.672 1.511-7.303 1.511-2.742 0-5.288-.504-7.638-1.511a19.926 19.926 0 0 1-6.128-4.197 21.408 21.408 0 0 1-3.644-5.279 102.775 102.775 0 0 1-12.708-5.183 5 5 0 0 0-1.635-.442z" transform="translate(-18.42 -199.893)"/><path style="font-weight:700;font-size:83.9422px;line-height:1.25;font-family:'Josefin Sans';-inkscape-font-specification:'Josefin Sans, Bold';fill:#f57b66;fill-opacity:1;stroke-width:2.09856" d="M21.915 246.031a32.206 32.206 0 0 0 4.593 6.7c12.754 3.696 26.075 5.55 39.125 6.068a32.188 32.188 0 0 0 6.498-4.92c-16.762-.11-34.187-2.362-50.216-7.848z" transform="translate(-18.42 -199.893)"/></svg>